<svg xmlns="http://www.w3.org/2000/svg" xml:space="preserve" width="100mm" height="100mm">
    <defs>
        <linearGradient id="1_VERTICALMOVER_svg__a" x1="112.38" x2="258.8" y1="970.31" y2="970.31" gradientTransform="translate(3.114 -778.82)" gradientUnits="userSpaceOnUse">
            <stop offset="0" stop-color="#fff"/>
            <stop offset="1" stop-color="#999999ff"/>
        </linearGradient>
    </defs>
    <path fill-rule="evenodd" d="M-62.922 345.17c-.745-3.973-1.126-7.449-.646-10.702h.017c-.48 3.245-.116 6.73.629 10.71m21.486-26.568c4.486-1.663 9.286-2.433 14.153-2.996 4.875-.562 9.816-.918 14.566-1.796-4.75.878-9.691 1.25-14.566 1.821-4.867.555-9.667 1.308-14.153 2.971m42.169-9.642c5.131-3.203 8.475-7.772 9.642-12.77-1.159 5.007-4.494 9.559-9.626 12.778zm-21.288-7.043c3.89-2.467 6.059-5.248 6.092-7.871-.033 2.623-2.185 5.404-6.075 7.863zm6.092-7.871a5.38 5.38 0 0 0-1.597-3.766h.016a5.38 5.38 0 0 1 1.581 3.766m-1.597-3.766c-1.093-1.175-2.756-2.251-5.057-3.17-10.247-4.13-30.516-6.307-50.082-9.75 19.566 3.443 39.835 5.603 50.073 9.733 2.301.92 3.973 2.012 5.066 3.187m-55.14-12.912c-9.783-1.73-19.392-3.757-27.478-6.522-8.087-2.756-14.65-6.248-18.35-10.842 3.708 4.602 10.263 8.07 18.35 10.826s17.695 4.809 27.478 6.538m-45.828-17.372h-.016c-10.313-12.829-9.402-31.923-1.117-45.472h.016c-8.276 13.549-9.195 32.651 1.117 45.472m19.815-60.808c8.342-2.525 17.67-3.311 26.948-4.884 12.084-1.986 24.176-3.641 36.21-6.033-12.026 2.4-24.126 4.064-36.21 6.042-9.27 1.58-18.606 2.35-26.948 4.875m63.158-10.917a8.19 8.19 0 0 0 6.514-7.077c.281-2.3-.124-3.972-.985-5.239.86 1.267 1.283 2.955 1.002 5.256-.39 3.178-2.541 6.125-6.514 7.06zm5.53-12.316c-.862-1.266-2.178-2.11-3.717-2.731-3.079-1.242-7.068-1.58-10.098-2.524 3.03.943 7.01 1.266 10.098 2.507a7.86 7.86 0 0 1 3.724 2.748m16.91 93.79-44.57-11.926c-12.721-2.98-24.21-5.934-30.971-10.296 6.754 4.37 18.242 7.3 30.971 10.28zm-75.541-22.222h-.017c-3.724-2.408-5.636-6.141-5.636-9.948 0 3.807 1.928 7.54 5.653 9.948m54.03-27.354c16.396-2.044 31.699-9.725 39.876-21.048-8.185 11.331-23.472 19.004-39.876 21.048m46.067-40.53c-.215-7.243-2.963-15.155-8.988-23.49h.016c6.026 8.335 8.757 16.247 8.972 23.49m-71.32-17.572c-11.43-9.228-17.711-25.376-16.991-39.943-.728 14.567 5.562 30.715 16.992 39.943m43.046-18.622c-3.972-.993-7.97-1.275-11.57-2.343-3.609-1.067-6.829-2.921-9.254-7.035 2.425 4.114 5.645 5.96 9.254 7.019 3.6 1.076 7.59 1.366 11.57 2.359m-18.034-46.457c-1.647-9.253-6.158-18.126-12.59-24.556 6.432 6.439 10.943 15.295 12.59 24.556m-45.34-1.44c1.945-8.922 6.597-17.472 12.962-24.308 2.466-2.624 4.709-4.13 6.935-4.677-2.226.547-4.452 2.07-6.919 4.693-6.373 6.837-11.033 15.378-12.978 24.292m24.201-28.836v-.016H-54v.016zm-4.403-.149c-.083-4.85-2.235-10.138-4.685-14.55 2.459 4.42 4.619 9.7 4.702 14.55zm4.85-.066c.72-4.378 2.624-10.18 4.693-15.113h.016c-2.069 4.925-3.989 10.735-4.709 15.113" class="1_VERTICALMOVER_svg__st0" clip-rule="evenodd"/>
    <path fill="url(#1_VERTICALMOVER_svg__a)" stroke="#000" stroke-width="11.339" d="M181.78 337.31c-36.947-42.74 68.066-37.135 43.784-59.432-7.692-7.063-106.37-12.159-104.38-49.778 2.971-56.024 68.452-51.294 86.957-57.695 3.892-1.346 5.617-8.576 3.923-11.442-14.793-25.021-35.985-13.395-39.362-49.261-11.353-19.32-10.375-32.866 1.444-49.06 1.874-2.568 11.358-4.674 11.139-11.278 1.566 2.6 2.156 1.547 4.51-1.139-.34 1.831-3.035 6.599 6.338 10.284 22.318 8.776 17.173 31.724 10.696 50.23 1.999 14.184 33.878 21.391 42.34 38.985 32.454 67.487-101.7 45.02-92.984 79.422 8.541 33.701 124.57 22.98 95.183 63.741-17.797 24.682-73.177 12.296-69.588 46.422z"/>
</svg>
