<svg xmlns="http://www.w3.org/2000/svg" viewBox="0 0 100 100">
    <linearGradient id="0_BISHOP_svg__a" x1="19.181" x2="80.829" y1="52" y2="52" gradientTransform="matrix(1 0 0 -1 0 102)" gradientUnits="userSpaceOnUse">
        <stop offset="0" stop-color="#f9da9c"/>
        <stop offset=".043" stop-color="#fbe0a1"/>
        <stop offset=".067" stop-color="#fce6a6"/>
        <stop offset=".145" stop-color="#f4d593"/>
        <stop offset=".193" stop-color="#f5d797"/>
        <stop offset=".243" stop-color="#f7dda4"/>
        <stop offset=".263" stop-color="#f9e1ab"/>
        <stop offset=".329" stop-color="#f7dfa8"/>
        <stop offset=".383" stop-color="#f2d89e"/>
        <stop offset=".398" stop-color="#efd599"/>
        <stop offset=".461" stop-color="#f2d795"/>
        <stop offset=".615" stop-color="#efda9c"/>
        <stop offset=".735" stop-color="#f6e5ad"/>
        <stop offset=".773" stop-color="#f9e9b4"/>
        <stop offset=".822" stop-color="#f7e1a6"/>
        <stop offset=".887" stop-color="#f5db9b"/>
        <stop offset=".956" stop-color="#f4d997"/>
        <stop offset=".967" stop-color="#f4da9c"/>
        <stop offset="1" stop-color="#f4db9e"/>
    </linearGradient>
    <path fill="url(#0_BISHOP_svg__a)" stroke="#63451a" stroke-miterlimit="10" stroke-width=".954" d="M77.6 15.4 50 5.8l-27.6 9.6-10.6 72.1v6.7h76.4v-6.7z"/>
    <path fill="#63451a" fill-opacity=".75" d="M12.3 87.5h75.4v6.2H12.3z"/>
    <path d="M72.483 45.11q.175.99-.466 1.516t-1.458.99q-.466.234-.933.526-.408.291-.7.641-.291 1.808-.641 4.257-.292 2.391-.408 4.957-.059 1.225.116 2.45l.467 2.448q.233.992.408 1.925t.233 1.866v.291q.233 3.208.175 6.415 0 3.149-1.224 5.657-.584.874-1.633.933-.992.058-2.158-.35t-2.274-1.05q-1.108-.583-1.866-1.108-.234-.117-.35-.466-.059-.35-.292-.467-.933-.466-2.04-.758-1.05-.233-1.925-.642-.758-.408-1.458-.933-.642-.583-1.458-.99-.933-.467-1.866-.759-.875-.35-1.924-.583l.058-.058q.175-.234 0-.292 3.032.758 6.415 1.05 3.382.233 7.114.641.933-2.274 1.166-5.015t0-5.598q-.175-2.916-.466-5.715-.175-1.516-.292-2.974-.116-1.516-.175-2.858v-1.749q0-1.05-.058-1.924 0-.933-.35-1.808-1.458-.175-3.09-.058-1.575.116-3.091.233-.642.116-1.225.175-.583 0-1.166.058.466.991.525 2.274.116 1.283.175 2.45v1.166q.058.525.116.933 1.225-.525 2.624-.292 1.458.234 2.566.933 1.166.642 1.516 1.458-.874.583-2.099.7t-2.508.233q-1.224.059-2.332.642l-.117 3.265q0 1.633-.116 2.508 1.283-.408 2.74-.175 1.517.175 2.858.816t1.983 1.691q-.933.234-2.741.35t-3.616.35-2.857.817q-.992-.409-2.45-.292-1.399.117-2.973.35-1.633.233-3.266.35-1.575.117-2.683-.408-.524 2.04-1.282 4.257-.7 2.216-1.808 4.14-1.05 1.983-2.624 3.266-.992.408-1.925.35-.875 0-1.633-.175 2.216-3.5 3.79-8.164 1.634-4.724 2.217-9.914.583-5.248-.467-10.322-.816-.991-1.75-1.924-.874-.991-1.34-2.333.641-.116.758-.641.175-.525.7-.7.524.408.99.35.526-.058.876.583 1.69-.641 4.082-.875 2.39-.291 4.665-.408 2.274-.175 3.615-.408.175-.933.525-1.866.35-.991.817-1.983.583-1.458 1.108-2.916.524-1.516.408-2.915-1.05-.059-2.624 0-1.517.058-2.916.233-1.341.175-1.983.525-2.332 2.624-5.132 4.665-2.74 2.041-5.481 4.257l-.583.466q-.234.234-.467.409-.933.874-1.924 1.458-.933.583-2.916.524-.408-.291-.758-.7-.292-.466-.7-.816 4.082-3.032 7.581-6.531 3.499-3.557 6.881-7.173-.116-.116-.35-.233-.175-.117-.408-.233-.641-.408-1.341-.933t-.642-1.517h.584q.408-.058.933-.058 1.283-.116 3.032-.116 1.75-.059 3.09.408 1.342.408 1.575 1.75 2.216.232 3.907.116 1.75-.117 2.624-1.691 3.266-.409 5.774.816t4.49 2.858q-.233.583-1.05.99-.758.41-1.516.176-.058.466-.816.758-.7.291-1.575.525-.816.233-1.341.641-.758 2.041-1.75 3.907-.991 1.808-2.04 3.616.816.116 2.39-.058t2.683-.35q.583-.059.816-.117.817-.117 1.458-.525.7-.408 1.458-.466 1.108-.117 2.566.291 1.458.35 2.857.992t2.333 1.4q.933.699 1.05 1.34M50.09 53.45v-.817q0-1.866-.175-3.557-.175-1.75-1.458-2.566-.583.291-1.866.466-1.283.117-2.566.292-1.225.175-1.691.7-.525 1.05-.525 1.982 0 .875.116 1.808.117.525.175 1.167.059.583 0 1.224 1.108.117 2.1 0 1.05-.116 2.1-.291.874-.175 1.807-.292t1.983-.117m-.234 3.208q-1.75.233-3.79.466t-3.966.175q.059.875-.058 1.75-.117.816-.291 1.632-.117.7-.234 1.342-.058.641-.058 1.224 1.166.059 2.216-.058t2.1-.292q.932-.116 1.865-.175.933-.116 1.983-.116.175-1.4.233-2.741t0-3.207"/>
</svg>
