<svg xmlns="http://www.w3.org/2000/svg" viewBox="0 0 100 100">
    <linearGradient id="0_DRAGON_svg__a" x1="19.181" x2="80.829" y1="52" y2="52" gradientTransform="matrix(1 0 0 -1 0 102)" gradientUnits="userSpaceOnUse">
        <stop offset="0" stop-color="#f9da9c"/>
        <stop offset=".043" stop-color="#fbe0a1"/>
        <stop offset=".067" stop-color="#fce6a6"/>
        <stop offset=".145" stop-color="#f4d593"/>
        <stop offset=".193" stop-color="#f5d797"/>
        <stop offset=".243" stop-color="#f7dda4"/>
        <stop offset=".263" stop-color="#f9e1ab"/>
        <stop offset=".329" stop-color="#f7dfa8"/>
        <stop offset=".383" stop-color="#f2d89e"/>
        <stop offset=".398" stop-color="#efd599"/>
        <stop offset=".461" stop-color="#f2d795"/>
        <stop offset=".615" stop-color="#efda9c"/>
        <stop offset=".735" stop-color="#f6e5ad"/>
        <stop offset=".773" stop-color="#f9e9b4"/>
        <stop offset=".822" stop-color="#f7e1a6"/>
        <stop offset=".887" stop-color="#f5db9b"/>
        <stop offset=".956" stop-color="#f4d997"/>
        <stop offset=".967" stop-color="#f4da9c"/>
        <stop offset="1" stop-color="#f4db9e"/>
    </linearGradient>
    <path fill="url(#0_DRAGON_svg__a)" stroke="#63451a" stroke-miterlimit="10" stroke-width=".954" d="M77.6 15.4 50 5.8l-27.6 9.6-10.6 72.1v6.7h76.4v-6.7z"/>
    <path fill="#63451a" fill-opacity=".75" d="M12.3 87.5h75.4v6.2H12.3z"/>
    <path d="M78.49 72.459q-.292 1.05-1.05 1.574-.7.525-1.516.875-.758.408-1.283 1.108-1.866.7-4.374 1.108t-5.19.408q-2.624.059-5.073-.35T55.69 75.9q-.817-.642-1.458-1.575-.642-.991-1.108-1.866t-.816-1.283q.058-.7.116-1.458.058-.816.175-1.69.233-2.508.408-5.366.234-2.857.175-5.481-.058-2.683-.583-4.666-.058-.291-.175-.466-.116-.233-.291-.467-.234-.408-.35-.816t.175-.933q.291 0 .641.175l.7.35q1.05.35 3.324.175t4.665-.758q.641.233 1.574.583l.934.35q0-.175.058-.584.058-.933.116-2.449t-.116-2.974q-1.691.058-4.082.292-2.333.233-4.024.874-.641-.524-1.516-.816-.817-.35-1.458-.875t-.816-1.516q.641-.291 1.34-.233l-.116-.35q-.116-.35.117-.816l.175.175q.175.174.583.174-.408-1.05-.467-2.157 0-1.108.059-2.158.058-.933.058-1.808t-.233-1.749q-.059-.233-.292-.641-.233-.467-.583-.992-.525-.933-1.05-1.924-.466-1.05-.116-1.458.058-.175.466-.175.175-.058.35-.058.233-.059.35-.35 1.4.466 2.916 1.283 1.574.758 2.216 2.449-.35.7-.467 1.341-.116.583.117 1.575 1.866-.117 3.615-.234 1.75-.175 3.324-.175 2.041 0 3.733.584 1.69.524 2.799 2.39-1.925.584-4.666.7t-5.423.117q-.816 0-1.633.058h-1.458q-.408.758-.7 1.75-.233.991-.174 1.75 1.166.057 2.74.057t2.916-.291q1.4-.35 2.041-1.108 1.283.816 2.8 1.4 1.574.524 2.973 1.224 1.458.641 2.333 1.866l-.35.233-.35.234q-.641.466-1.458.874-.758.35-1.924.292.292 1.225.058 2.39-.233 1.109-.524 2.158-.059.35-.175.759-.117.35-.175.7-.584-.117-1.108-.059t-.992.525h-2.915q-1.575-.058-2.975 0-1.34.058-2.624.583.234.408.234.758v.758q-.059.408-.059.642 1.05.058 2.041.058.992-.058 1.866-.117h1.05q.525-.058.991-.058 1.342 0 2.508.35t2.158 1.4q-1.167.816-3.033.99-1.808.117-3.674.176-1.108 0-2.157.058-.992.058-1.75.233-.116.409-.175 1.108v1.225q.933.117 1.808 0t1.75-.292q.758-.175 1.516-.233.758-.117 1.458-.058 1.516.175 2.565 1.05t1.75 1.166q-.117.35-.292.35t-.291-.35q-.933.758-2.8.874t-3.732.059h-1.924q-.875 0-1.516.116-.35.175-.408.7-.059.467 0 .992v.466l1.4.117h1.399q1.633 0 3.149.116 1.574.117 2.799.758 1.283.584 1.983 2.041-.642-.116-1.225 0-.525.059-1.108.175-.641.117-1.283.175-.583 0-1.05-.408-.466.467-1.574.583-1.108.059-2.333-.058-1.224-.175-2.099-.408-.233.466-.233 1.05.058.583.116 1.107t.059.758q1.224.525 2.974.7 1.808.117 3.674-.058t3.44-.583q1.575-.467 2.508-1.167.466-1.457.408-2.74 0-1.283-.117-2.566-.116-.758-.175-1.516-.058-.817 0-1.691.292-.175.35-.467.059-.35.117-.758.466 0 .641.875.234.874.117 1.69.466.934 1.108 1.75.7.817 1.108 1.925 1.225.058 1.75.933l1.049 1.632q.583-.058.875.117.35.175.583.35.466.292.7.292-.059.641.058 1.05.117.35.35.699m-27.408-35.98q-.583.933-1.633 1.283-.991.291-2.216.408 0 .408.233.641t.525.409q.233.175.467.408.291.233.35.583.116.7-.234 1.516-.35.758-.816 1.575-.408.758-.758 1.516-.35.7-.35 1.458 1.05.175 2.274.641t1.458 1.808q-2.216.816-5.307 1.05-3.032.174-6.18.35-3.033.174-5.774.7-2.683.466-4.374 1.865-1.166.059-2.39-.758-1.225-.875-2.217-1.983-.933-1.166-1.34-1.924 1.107-.233 2.274-.233h2.39q1.633.058 3.266 0t3.149-.583q-.583-.992-.875-2.333t-.641-2.624q-.292-1.341-.991-2.216-.35.058-.409.408-.058.292-.35.408-1.807-.466-3.09-2.04-1.283-1.633-2.1-3.441.642-.35 1.108-.233t.933.291l.584.233q.291.117.641.175 1.05.175 2.158.117l2.216-.233q.7-.117 1.34-.175.7-.059 1.284-.059.991 0 2.157-.116 1.225-.117 2.275-.292l1.574-.35q-.058-.583-.116-1.458t-.117-1.632q-1.108-.817-2.45-1.342t-2.099-1.632q.992-1.108 2.566-1.225 1.633-.117 3.15.525 1.574.583 2.39 1.69 0 1.226-.408 2.334-.35 1.108-.758 1.807l-.408.7q1.866-.35 4.023.292 2.158.583 3.616 1.69m.408 17.437q-.816.583-1.516 1.283-.7.641-1.516 1.283-.059 1.4.058 3.09.175 1.692.292 3.5.35 3.44.466 7.055.117 3.558-.7 6.532-.408.933-1.224.933t-1.691.525q-1.808-.817-3.907-2.275-2.041-1.458-3.383-3.207l-2.566-.117q.759-.758 1.983-.7 1.283.059 2.683.292l1.75.233q.932.117 1.748 0 .7-1.283.7-2.799 0-1.574-.175-3.09 0-.409-.058-.817-.058-.466-.058-.875 0-.524-.059-1.108v-1.166q0-1.924-.116-4.024-.059-2.099-.7-3.965-2.333-.058-4.315.233-1.925.292-3.208 1.283-.058.583-.116 1.225t-.175 1.283q2.74-.642 4.898.233 2.216.875 3.266 1.924h-.058q-2.041.409-4.257.758t-3.616.175q-.408.467-.466 1.4-.059.875-.175 1.341 2.624-.583 4.606.233 2.041.759 3.674 1.692l.059.058q-.992.35-2.508.641-1.458.234-3.09.35-1.575.117-2.916.117 0 .117-.059.291-.116 1.167-.233 2.741-.058 1.575 0 3.091.117 1.458.7 2.45 0 .64-.233.816t-.584.233q-.291.116-.466.525-1.166-.409-2.041-1.4t-1.458-2.158q-.583-1.224-.933-2.157-.058-.408.117-.408.233 0 .466.058.292.117.408.117.059-.117.117-.292.525-1.4.758-2.8.292-1.457-.641-2.682.758-.524 1.108-1.749.35-1.283.233-2.624-.058-1.341-.7-2.041l.933-.059q.175-1.924-.525-2.74-.641-.875-1.75-1.633-.057-.175.06-.408.057-.117.057-.292.059-.175-.116-.466 2.04-1.225 5.132-1.458 3.149-.292 6.298-.409.174-.291.233-.7t.291-.64q1.517.64 3.266.816 1.808.175 3.44.641 1.633.408 2.508 1.808m-7.93-15.512q-1.4.233-3.383.35t-4.024.292q-1.982.175-3.615.583 2.04.933 3.382 2.682 1.4 1.691 1.808 4.374 1.4 0 2.624-.117 1.283-.175 2.39-.408 0-.467.176-1.05.175-.641.408-1.34.408-1.342.7-2.8.291-1.516-.467-2.566"/>
</svg>
