<svg xmlns="http://www.w3.org/2000/svg" viewBox="0 0 100 100">
    <linearGradient id="0_EAGLE_svg__a" x1="19.181" x2="80.829" y1="52" y2="52" gradientTransform="matrix(1 0 0 -1 0 102)" gradientUnits="userSpaceOnUse">
        <stop offset="0" stop-color="#f9da9c"/>
        <stop offset=".043" stop-color="#fbe0a1"/>
        <stop offset=".067" stop-color="#fce6a6"/>
        <stop offset=".145" stop-color="#f4d593"/>
        <stop offset=".193" stop-color="#f5d797"/>
        <stop offset=".243" stop-color="#f7dda4"/>
        <stop offset=".263" stop-color="#f9e1ab"/>
        <stop offset=".329" stop-color="#f7dfa8"/>
        <stop offset=".383" stop-color="#f2d89e"/>
        <stop offset=".398" stop-color="#efd599"/>
        <stop offset=".461" stop-color="#f2d795"/>
        <stop offset=".615" stop-color="#efda9c"/>
        <stop offset=".735" stop-color="#f6e5ad"/>
        <stop offset=".773" stop-color="#f9e9b4"/>
        <stop offset=".822" stop-color="#f7e1a6"/>
        <stop offset=".887" stop-color="#f5db9b"/>
        <stop offset=".956" stop-color="#f4d997"/>
        <stop offset=".967" stop-color="#f4da9c"/>
        <stop offset="1" stop-color="#f4db9e"/>
    </linearGradient>
    <path fill="url(#0_EAGLE_svg__a)" stroke="#63451a" stroke-miterlimit="10" stroke-width=".954" d="M77.6 15.4 50 5.8l-27.6 9.6-10.6 72.1v6.7h76.4v-6.7z"/>
    <path fill="#63451a" fill-opacity=".75" d="M12.3 87.5h75.4v6.2H12.3z"/>
    <path fill="#a00" d="M74.758 49.425q-.234.933-1.108 1.574-.817.642-1.983.933-1.4.408-3.615.408-2.158-.058-3.85-.466-.466 0-.407.525t-.234.7q-.641-.35-1.166-.117-.467.233-.875.525-.175.116-.233.175-.117 1.4-.233 2.332-.059.875-.175 1.691t-.408 2.041q-1.983-.175-3.79.059t-3.558.466q-1.808.292-3.616.525-1.749.175-3.673 0v1.225q2.04.233 4.082 0t4.082-.525q1.4-.175 2.74-.35t2.683-.175q.233 0 .408.117t.408.116q1.225-.116 2.391-.641 1.225-.525 2.391-.583 1.575-.059 3.324.758 1.808.758 2.74 2.1-3.79.116-7.872.349-4.082.175-8.047.525-3.965.291-7.406.758h-.35q-.408 0-.875.116-.408.117-.466.7 2.39.35 5.481.175 3.091-.233 6.182-.525.933-.116 1.808-.175.874-.116 1.749-.175l.467-.35q.291-.174.35-.583 2.857.467 5.073 1.458t4.315 2.216q-.525.7.233 1.225-.233.758-1.166.875t-1.983.116q-.874 1.983-1.807 4.082t-2.275 3.79q-1.34 1.75-3.615 2.683-2.216.059-3.674-.583-1.4-.641-2.39-1.75-.992-1.049-1.925-2.274-.292-.35-.583-.758l-.584-.7-.816.117q-.408.058-.642.292l-.35-.234-.35-.35q-.99-.758-1.865-1.749t-.584-2.566q-.99-.641-2.215-1.05-1.167-.408-2.275-.932t-1.75-1.458q.234-.234.526-.234.35 0 .641.059.292.116.583.116t.525-.175q0-.7-.525-1.283t-1.05-1.282q-.466-.759-.524-1.692.583-1.05.758-2.507t.116-2.974-.233-2.74q-.116-1.226-.233-1.867v-.058q-.642.058-.7 1.05-.058.932 0 1.399-.583.758-1.224.991-.584.175-1.342 0-1.05-.291-2.04-1.05t-1.75-1.399q.175-.7.058-1.283-.058-.583-.933-.933.292-.525.758-.466.467 0 .992.174.291.117.583.175.35.059.641-.058.35-.875.292-1.75 0-.874-.059-1.865 0-.175-.058-.35v-.35q-.233-.117-.466-.117-.234-.058-.409 0h-.466q-.233 0-.525-.233l-.641.641q-.35.292-.642.525-.525-.466-1.458-.933-.874-.525-1.574-1.224t-.7-1.692q.292-.058.35.175l.058.234q.525-.7.467-1.167-.059-.524-.35-.933-.467-.641-1.283-1.108-.758-.524-1.108-1.224 1.516-.642 3.499-.875t4.14-.35q2.158-.175 4.199-.466t3.615-.992q1.517.234 2.625.583 1.166.292 2.332 1.05.175 0 .642-.117t.933-.116q.524-.059.933.233.291-.058.233-.408t.175-.408q.291.175.758.233h1.633q.291-.058.525 0 .524-.758.816-1.924.35-1.225.467-1.925-.7-.933-1.342-1.924-.641-1.05-1.574-1.75l.816-.408q.467-.233 1.05-.233.175 0 .233.291t.175.35q.175.059.408-.058t.408-.233.234-.117q.641.175 1.458.817.874.583 1.516 1.282.7.7.758 1.167.116.466-.058.991l-.35.933q-.234.467-.409.991t-.174 1.108q.816.175 1.982.234t2.1-.175q.99-.292 1.108-1.05 1.866.7 3.732 1.341 1.866.583 2.915 2.1-1.283.525-2.974.583t-3.382.058H61.52q-.233.35 0 .583t.583.408q.175.175.35.292t.292.292q.058.758-.117 1.458-.116.7-.35 1.34-.233.759-.35 1.517t.175 1.574q.117.467.409.525t.641.117q.408 0 .642.583.524-.466 1.224-.525.7-.116 1.283-.116h.758q.35-.059.583-.175.642-.467.758-1.4.175-.991 0-2.04t-.524-1.634q.466-.175.758.117.35.291.641.758.233.292.467.641.233.292.583.525.816.642 1.866 1.167 1.108.524 1.866 1.224.466.467.7 1.108.291.642 0 1.575M52.132 34.613q-.992.291-2.275.525-1.224.233-2.566.058-2.507-.292-5.714-.058-3.15.174-6.182.466-.758.058-1.458.117l-1.4.116q-.99.933-1.865.992-.817 0-1.575-.525-.933-.642-1.69-1.866-.7-1.225-1.342-2.275.7-.641 1.516-.524.875.058 1.633.524.816.409 1.4.817l4.548-.467q2.274-.291 4.665-.35-.116-.933-.758-1.4t-1.341-.874-1.05-1.166q1.166-.933 2.508-.991 1.4-.117 2.624.466 1.283.525 1.983 1.516.058.35 0 .642-.059.233-.117.525l-.117.35v.35q2.741-.292 5.015.582t3.558 2.45m9.796 32.714q-2.74.059-5.423.175-2.624.059-4.607.233-1.166.059-2.507.175t-2.1.817q1.167.175 2.391.875 1.225.641 2.041 1.69.875.992.817 2.333.35.059.7.175.408.059.758.117 1.108.233 2.216.408t2.39-.117q1.225-1.282 2.391-2.974 1.225-1.75.933-3.907m-2.507-18.719q-1.05-.816-1.225-2.04-.116-1.225-.116-2.625 0-.875-.059-1.808 0-.991-.291-1.866-.817.467-1.341 1.458t-1.05 1.866q-.467.817-1.341.992.233 1.224-.817 2.099-.991.816-1.866 1.341-.466.292-.641.408.233.175.116.758-.116.292-.116.467 1.166.117 2.157-.058 1.05-.234 1.925-.467.408-.058.758-.117.408-.116.758-.175.233-.466.758-.408.583.059 1.108.234.467.174.816.233.409.058.467-.292M38.544 75.433q-.058.642-.641.875-.583.291-1.225.525-1.808-.409-2.74-1.866-.934-1.4-1.4-3.208-.408-1.808-.875-3.207 1.108.7 2.333 1.283 1.224.525 2.216 1.283.991.7 1.632 1.75.642.99.7 2.565m4.84-36.155q-1.34-.117-2.682 0-1.283.117-2.683.233-.933.117-1.924.233-.991.059-2.1.117.35.641.467 1.458l.35 1.633q.875 0 1.691-.059.817-.116 1.633-.175 1.108-.174 2.216-.233 1.166-.058 2.39.059.176-.817.41-1.575t.232-1.691m-11.72 13.587q-.934.408-1.634.233t-1.166-.7q-.758-.816-1.108-2.099-.35-1.34-.467-2.274.817-.35 1.458 0 .525-.466.7-1.341t.991-1.108q1.517 1.166 1.983 3.265.525 2.1-.758 4.024m14.17 21.752-.466.466q-.233.292-.525.525-4.14-2.1-5.248-7.056 1.283.058 2.799.7 1.574.583 2.624 1.924 1.05 1.283.817 3.44m6.706-33.939q-.875-.408-1.4-1.05t-1.516-.932q.058.525.408.758.35.175.408.641-.175.467-.758.583-.583.059-1.108.234-.35 1.108-.758 2.332t-1.341 2.333q.991.175 1.75.583.758.35 1.574.641l1.633-2.799q.816-1.457 1.108-3.324m15.628-5.89q-.233.934-.933.934-.7-.059-1.166.291-1.575-1.4-3.266-2.682t-2.566-3.382q1.808.116 3.5.583t2.857 1.458q1.224.99 1.574 2.799m-11.896 19.71q.058-.758 0-1.4-.058-.7-.408-1.05-2.566.35-5.132.292t-4.898.584v1.457q.7.234 1.69.117 1.05-.117 2.217-.292.874-.174 1.75-.291.932-.117 1.749-.117t1.574.117q.816.117 1.458.583m.058 2.857q.059-.291.059-.874.058-.642-.292-.642-.525.059-1.108.175l-1.05.117q-2.332.291-4.548.583-2.216.233-3.557.175v1.691q2.682-.175 5.365-.525t5.131-.7m2.041 13.821q.175.467.117.758t-.233.525q-.117.175-.234.408-.058.233-.058.525-1.983-.117-3.207-1.691-1.225-1.633-1.808-3.557 1.516-.059 2.974.991 1.516.991 2.45 2.041M45.016 49.833q-1.458.058-2.566-1.108-1.05-1.166-1.75-2.333-.057 1.108 0 2.158.06.991.117 1.808.059.175.059.291.35-.175.758-.175.466 0 .933.059.7.058 1.341 0t1.108-.7m.817-.817q.408-.641.175-1.108t-.525-.933q-.117-.175-.292-.35-.117-.233-.175-.466.058-.35.35-.408.35-.117.467-.35-.059 0-.117-.058-.642-.175-1.983-.467-1.283-.35-2.216.292 1.516.524 2.624 1.458 1.167.874 1.692 2.39m-4.549-3.848q-.233.058-.583.116t-.467.292q.059.058.117.233.058.117.117.292.116.116.408.058-.117-.292-.059-.35.117-.117.234-.175.291-.175.233-.466"/>
</svg>
