<svg xmlns="http://www.w3.org/2000/svg" viewBox="0 0 100 100">
    <linearGradient id="0_ELEPHANT_svg__a" x1="19.181" x2="80.829" y1="52" y2="52" gradientTransform="matrix(1 0 0 -1 0 102)" gradientUnits="userSpaceOnUse">
        <stop offset="0" stop-color="#f9da9c"/>
        <stop offset=".043" stop-color="#fbe0a1"/>
        <stop offset=".067" stop-color="#fce6a6"/>
        <stop offset=".145" stop-color="#f4d593"/>
        <stop offset=".193" stop-color="#f5d797"/>
        <stop offset=".243" stop-color="#f7dda4"/>
        <stop offset=".263" stop-color="#f9e1ab"/>
        <stop offset=".329" stop-color="#f7dfa8"/>
        <stop offset=".383" stop-color="#f2d89e"/>
        <stop offset=".398" stop-color="#efd599"/>
        <stop offset=".461" stop-color="#f2d795"/>
        <stop offset=".462" stop-color="#f2d795"/>
        <stop offset=".527" stop-color="#f2d795"/>
        <stop offset=".538" stop-color="#f2d795"/>
        <stop offset=".538" stop-color="#f2d795"/>
        <stop offset=".615" stop-color="#efda9c"/>
        <stop offset=".735" stop-color="#f6e5ad"/>
        <stop offset=".773" stop-color="#f9e9b4"/>
        <stop offset=".822" stop-color="#f7e1a6"/>
        <stop offset=".887" stop-color="#f5db9b"/>
        <stop offset=".956" stop-color="#f4d997"/>
        <stop offset=".967" stop-color="#f4da9c"/>
        <stop offset="1" stop-color="#f4db9e"/>
    </linearGradient>
    <path fill="url(#0_ELEPHANT_svg__a)" stroke="#63451a" stroke-miterlimit="10" stroke-width=".954" d="M77.6 15.4 50 5.8l-27.6 9.6-10.6 72.1v6.7h76.4v-6.7z"/>
    <path fill="#63451a" fill-opacity=".75" d="M12.3 87.5h75.4v6.2H12.3z"/>
    <path d="M73.416 73.275q-.466-.058-.816.117-.292.117-.583.35-.175.117-.408.233-.175.117-.408.117-1.925-.117-3.85-.642-1.924-.583-3.148-1.632-.525-.467-1.225-1.283t-1.05-1.692q-1.4-1.749-2.74-3.498-1.342-1.808-2.683-3.558.233 2.858.117 5.657-.059 2.74-.817 5.015-.7 2.158-2.099 3.79-1.341 1.692-3.615 2.625-1.633-.642-3.674-1.225-1.983-.525-3.79-1.458-1.75-.933-2.858-2.566l-.467.234q-.233.116-.408.233-1.108.583-2.158.991-1.05.467-2.157.292-1.05-.117-2.158-1.283 0-.35.292-.35.291-.058.641-.058h.467q3.79-3.266 8.164-6.182 4.373-2.974 8.164-5.831.233-.758.466-1.167.234-.466.525-.816-.35-.292-1.05-.058-.64.175-1.107.408-.992.408-1.867 1.225T45.25 62.72q-3.032 1.983-6.298 3.79-3.207 1.75-6.59 3.441-.582 0-1.515-.174-.875-.234-1.633-.525-.7-.292-.933-.467 2.157-.758 4.024-1.75 1.924-.99 3.323-2.449.175.059.467-.058.233-.175.35.058 1.924-1.632 4.14-2.857 2.275-1.283 4.374-2.624 2.157-1.4 3.674-3.324-.117-.058-.583 0-.409 0-.7.117-.992.408-1.983 1.34-.933.876-2.216 1.517-1.458.758-3.266 1.341-1.807.525-3.498 1.108-.409.117-.817.292l-.7.35q-1.166.525-2.39.933-1.167.408-2.858.058-.058-.758-.7-.875-.641-.175-.933-.7 0-.35.234-.35.116 0 .233-.058t.116-.35q2.333-.174 4.607-1.108 2.333-.99 3.966-2.332 1.982-.7 3.848-1.458t3.091-2.158q-.35-.291-.933-.233l-1.05.117-.466.116h-.408q0 .35.058.7.117.35.175.7-.292.117-.583.175-.292 0-.642.408-1.4-.525-2.157-1.458-.7-.991-.992-2.1-.408-1.457-.408-3.09t-.233-2.974q-.933-.408-2.041-1.574-1.108-1.225-2.1-2.333.35-.233.934-.233.641-.059.874-.583.583.233.992.175.408-.117.933-.292.233-.058.525-.117.291-.116.641-.175 1.166-.233 2.508-.233 1.4 0 2.799.058 1.574.059 2.915.059 1.4-.059 2.216-.408 1.167-.467 1.633-1.575t.817-2.39q.35-1.342.99-2.392-.582-.408-1.515-.408-.875 0-1.866.117-.875.058-1.691.116-.759 0-1.283-.35-1.75.992-4.082 2.508-2.275 1.458-4.724 2.857-2.45 1.342-4.665 2.1-2.274.758-3.44.116t-2.333-2.04q2.04-.409 3.79-1.109 1.808-.7 3.382-1.574 2.391-1.283 4.49-2.74 2.158-1.459 4.666-2.625-.117-.7-.583-1.05-.409-.408-.875-.758-.408-.35-.583-.933h.7q.35 0 .7.058 1.516 0 3.032.117t2.74.642q1.225.466 1.867 1.632.933.35 1.69.117.817-.292 1.575-.7.408-.233.817-.408t.816-.233q1.866-.292 3.324.466 1.516.7 2.857 1.866 0 1.05-.524 1.575-.525.466-.875 1.166-1.633.292-2.391 1.458-.7 1.166-1.458 2.333-.233.408-.7.874l-.525.525q1.75.117 3.674.175 1.925 0 4.082-.233.175-.058.175-.233t.059-.35q1.866.291 3.673.641t3.208 1.225 1.982 2.799q-1.108.525-2.449.875-1.283.291-2.274.933-.35 1.982-1.225 4.023-.816 1.983-2.157 3.5-1.283-.35-3.266-.467-1.924-.175-3.907-.059-1.983.059-3.499.409-.117.99.408 1.516.583.525 1.342.991.816.408 1.69.933.934.525 1.517 1.458 2.39-.641 4.315-1.574 1.983-.992 3.44-2.45.059-.291-.058-.525-.058-.291-.175-.524-.116-.292-.174-.525-.059-.292.174-.583 1.517.233 3.091.7 1.575.408 2.916 1.224-.058.292 0 .467l.233.35q.058.174.117.408.116.175.058.524-3.032 1.517-5.948 2.275-2.857.758-5.307 2.216l1.05.816q1.05.817 2.158 1.633 1.166.816 2.799 1.05.525.583 1.224 1.224.758.583 1.225.117 1.225 1.05 2.916 2.1 1.75 1.049 2.799 2.332.758.933.875 1.982t-.759 2.391M60.18 42.427q-1.108-.233-2.274-.117-1.167.059-2.333.175-.875.117-1.75.175-.816.058-1.632.058-.292 1.225-.35 3.15 0 1.924-.175 3.557.642.233 1.516.175t1.808-.175q1.108-.117 2.158-.175t1.866.291q.058-.816.233-1.574t.408-1.516q.292-.933.467-1.925.233-.991.058-2.1m-11.605 7.232q-.35-.642-.35-1.575 0-.99.059-1.982.058-.875.058-1.691t-.233-1.458q-1.983-.117-3.966.116-1.924.234-3.207.933-.175.467-.175 1.342.058.874.117 1.866.058.7.058 1.458.058.758.058 1.457 2.391-.058 4.49-.116 2.158-.117 3.091-.35m3.44 15.745q-3.031 1.458-5.772 3.499-2.683 1.982-5.424 3.324.292.874 1.692 1.05 1.457.174 2.624.116 1.516-.117 2.74-.641 1.284-.584 2.217-1.4 1.34-1.225 1.866-2.857t.058-3.091"/>
</svg>
