<svg xmlns="http://www.w3.org/2000/svg" viewBox="0 0 100 100">
    <linearGradient id="0_FALCON_svg__a" x1="19.181" x2="80.829" y1="52" y2="52" gradientTransform="matrix(1 0 0 -1 0 102)" gradientUnits="userSpaceOnUse">
        <stop offset="0" stop-color="#f9da9c"/>
        <stop offset=".043" stop-color="#fbe0a1"/>
        <stop offset=".067" stop-color="#fce6a6"/>
        <stop offset=".145" stop-color="#f4d593"/>
        <stop offset=".193" stop-color="#f5d797"/>
        <stop offset=".243" stop-color="#f7dda4"/>
        <stop offset=".263" stop-color="#f9e1ab"/>
        <stop offset=".329" stop-color="#f7dfa8"/>
        <stop offset=".383" stop-color="#f2d89e"/>
        <stop offset=".398" stop-color="#efd599"/>
        <stop offset=".461" stop-color="#f2d795"/>
        <stop offset=".615" stop-color="#efda9c"/>
        <stop offset=".735" stop-color="#f6e5ad"/>
        <stop offset=".773" stop-color="#f9e9b4"/>
        <stop offset=".822" stop-color="#f7e1a6"/>
        <stop offset=".887" stop-color="#f5db9b"/>
        <stop offset=".956" stop-color="#f4d997"/>
        <stop offset=".967" stop-color="#f4da9c"/>
        <stop offset="1" stop-color="#f4db9e"/>
    </linearGradient>
    <path fill="url(#0_FALCON_svg__a)" stroke="#63451a" stroke-miterlimit="10" stroke-width=".954" d="M77.6 15.4 50 5.8l-27.6 9.6-10.6 72.1v6.7h76.4v-6.7z"/>
    <path fill="#63451a" fill-opacity=".75" d="M12.3 87.5h75.4v6.2H12.3z"/>
    <path fill="#a00" d="M76.449 69.077q-1.225.233-1.983.583-.758.291-2.04.291.116 1.4-.41 3.383-.524 1.924-1.632 3.615-1.108 1.75-2.857 2.508-4.199.583-6.532-.992t-2.799-4.198q.467-.059.992 0 .583 0 1.166.058.35.058.7.058.408.059.758.059.816 0 1.4-.234.64-.291.932-1.05.234.06.117.234l-.058.175q.525.117.816-.233.292-.408.525-.875l.292-.583q.174-.292.408-.467-.117-.233-.35 0-.175.234-.35.525l-.117.292q.059-.292.175-.525l.234-.467q.35-.641.524-1.34.175-.759-.408-1.925-5.89.291-11.255.525-5.365.175-9.913 1.108 1.225.933 2.39 1.924 1.225.991 1.575 2.8-.933.757-1.982.699-.992-.058-1.866-.642-1.283-.816-2.1-2.332-.816-1.575-.816-2.8.583-.116 1.05-.058l.466.059q-.641-.409-1.4-.7-.758-.35-.99-1.166.466-.292 1.282-.234.875 0 1.225-.408-.409-.525-.875-.933-.408-.466-.642-1.108l.117-.7.233-.816q.292-1.108.467-2.333t-.175-2.332q-.175-.7-.758-1.108t-1.108-.817q-.467-.408-.525-1.05.991-.29 1.983-.466t1.75-.583q.582-.292 1.049-.758t.7-1.225q0-.758-.584-1.108L44.667 51q.117.933-.175 1.575-.233.583-.583 1.166-2.04-.408-2.624-2.041-.525-1.691-.117-3.674-.116 0-.583.175-.408.233-1.108.408-.641.175-1.283-.116-.175.641-.641 2.099t-.467 2.916q-.291 0-.35-.292 0-.117-.116-.117.116.642-.117 1.108-.175.409-.7 1.05.059.175.525.175h.117q0 .117-.175.233-.35.175 0 .35-.525.292-.642.583-.058.292-.058.525 0 .175-.116.35-.059.175-.409.292-.116.291.234.35t.233.408q-.525.116-.467.525t-.583.641q-.058.583.292.408l.35-.233q-.175.35-.467 1.05t-.758 1.05q.467.233 0 .7-.408.407-1.05.524v.117q.117.583.467.408.175.233-.233.583-.35.35-.758.641-.35.234-.467.35 0 .758-.466 1.516-.409.759-1.4 1.05 0 .117.058.292.117 1.05 0 1.807-.116.7-1.224 1.167 0 .233.233.058l.233-.117q.175-.116.35 0-.233.35-.641.584-.35.233-.817.408.117.35.467.116l.408-.291q-.058.408-.408.816-.292.408-.408.525-.292.292-.7.35-.35.058-.35.816 0 .117-.408.234-.409.175-.642.408 0 .058-.058.058-.933.933-1.808 1.458-.816.525-2.158-.292.933-1.34 2.275-2.274t1.866-2.216h-.292q.467-1.166 1.225-2.682.816-1.575 1.924-2.391-.466-.175-.291-.408.175-.292.466-.584l.35-.466q.233-.233.292-.467 0-.116-.234-.058-.175.058-.233-.117.758-2.332 1.633-5.306.933-3.033 1.75-6.24.874-3.265 1.282-6.181.525-3.79-.933-6.007-1.458-2.274-5.131-4.023.058-.35-.234-.583-.291-.292-.641-.584-.35-.233-.7-.524-.292-.292-.408-.759.291 0 .35-.175t0-.35q0-.35.233-.408 4.84.642 9.447.409 4.665-.234 9.739-.642l1.866-.116q.933-.117 1.866-.175.291-.175.175-.875-.059-.7-.234-.875-1.05-.641-2.157-.933-1.05-.35-2.041-.758-.933-.467-1.691-1.4 1.166-.466 2.565-.758t2.741-.233q1.691.058 2.974.758 1.342.642 1.866 2.274-.7.35-.933 1.108t-.524 1.4q1.574.058 3.265 0 1.691-.117 3.44-.233 2.217-.117 4.491-.175 2.274-.117 4.607.058.233-.058.233-.466t.175-.467l3.032.583q1.517.233 2.741.817 1.225.524 1.808 1.69-.408.934-1.108 1.284t-1.691.35q-.583 0-1.283-.059-.7-.116-1.458-.233-1.283-.175-2.682-.292-1.342-.175-2.625.117-.116.175-.116.35v.35q0 .291-.059.583 0 .292-.233.641 1.458.35 2.741.525 1.341.175 2.45.525 1.166.35 1.982 1.283-2.216.641-4.199.641t-4.782.35q-.116.292.117.525.117.175.117.408 2.04 0 3.848.234 1.867.175 2.625 1.34-.175.292-.933.35t-1.75.06-1.924.116q-.875.058-1.341.408.116.408.758.466t1.05 0q1.399.234 2.682.525t2.39 1.108q-.99.35-2.215.467-1.167.058-2.566.058-.525 0-1.05.058h-.991q-.175.234-.233.642 0 .408.058.7 1.75-.817 4.14-.234 1.341.292 2.391.933 1.108.584 1.633 1.4-5.19.408-10.438.525-5.19.058-9.214.875-.642-.35-1.225-.759-.525-.408-1.166-.7-.058-.29.117-.408.175-.174.408-.233l.35-.175q-.467-.7-.409-1.866t.175-2.157q.059-.234.059-.35-.35.116-.642.291-.233.175-.525.35-.524.35-1.166.642-.583.233-1.691.116-.233-.641-.875-.641l-.641-.059q.816-1.05 1.808-2.04 1.05-.992 1.807-2.042.817-1.108.933-2.39.292-.059.409-.175.175-.175.291-.35.175-.175.35-.292.233-.175.642-.175.058-.525.174-1.05.175-.524.642-1.05-.758-.29-2.158-.232-1.4 0-2.566.116l-1.108.059q.817.408 1.108.874t.35.933q.059.758-.525 1.633t-1.282 1.75q-.584.7-1.108 1.4-.467.64-.642 1.282.175 1.05.175 2.216 0 1.108-.058 2.333v.816q.466-.058 1.166 0 .758.058 1.225.7 1.4-.408 2.74.291 1.4.642 1.633 2.158.992-.292 2.1-.292 1.166-.058 2.274-.058 1.633 0 3.09-.117 1.517-.116 2.508-.933 2.391.234 4.49.817 2.1.525 3.5 1.69.174.234.058.526-.059.233-.234.466l-.175.35q-.641.292-1.574.408-.875.117-1.691.35-.817.175-1.225.7.117 1.4-.175 2.857t-.933 1.75q-1.808.117-4.665.35-2.8.175-5.832.35t-5.54.233q0 .233-.116.408l-.117.175q3.091.35 6.24.175t6.415-.408q2.099-.175 4.257-.292 2.216-.116 4.49-.175.233-.058.175-.291 0-.292.233-.292 1.983.175 4.082.583t3.674 1.575q-.233.758-1.4.933-1.166.116-1.982.116l-3.907.117h-3.85q-4.664.058-9.271.175-4.549.117-9.272.642-.059.583.233.99 1.283-.057 2.74-.116 1.459-.116 2.975-.233 3.265-.175 6.706-.35t6.415-.117q.466-.116.874-.35l.817-.466q1.807.35 3.674.583 1.924.175 3.324.875 1.749.816 2.099 2.74m-35.98 6.532q-.117.292-.292.292-.175.058-.35.058-.233 0-.408.058t-.233.408q-4.957-1.866-6.182-7.522.117-.233.467-.175.35 0 .35-.233 1.633.583 3.382 1.457t2.682 2.158q.584.758.759 1.633t-.175 1.866M42.8 39.22q.35-.817.233-1.517-.058-.7-.874-1.166-.875.233-1.691.292H39.01q-1.108 0-2.041.175-.875.116-1.633.816 1.4.408 2.04 1.633.642 1.166.992 2.566.408 1.4.992 2.624.233-.7.874-1.575.7-.933 1.4-1.924.758-.991 1.166-1.924m13.47 34.522q-.057.466-.349.583t-.641.175q-.35 0-.525.058-3.732-1.807-5.074-5.481 2.333.058 4.199 1.224 1.924 1.167 2.39 3.44m6.182-.874q-1.458.525-2.74-.116-1.225-.7-2.042-1.867t-1.108-2.099q1.167-.058 2.625.35 1.516.35 2.507 1.283 1.05.875.758 2.45m-3.615-13.53q.116-.525.058-.991 0-.525-.525-.758-1.516.175-3.557.466t-3.907.467q-.467.058-.933.058-.408 0-.816-.058-.759 0-1.4.058-.583.058-.933.408.408.758 1.516.817 1.108 0 2.041-.059.525-.058.758-.058l1.4-.117q.7-.116 1.341-.175 1.4-.174 2.682-.291t2.275.233m-.292-3.265q.292-.525.117-.992-.117-.466-.408-.933-.817.292-2.45.35-1.574.058-3.382.117t-3.324.35q-.933.174-1.633.524-.7.292-.933.875 1.05.117 2.275 0 1.283-.175 2.624-.408l2.566-.35q1.283-.175 2.39-.058.292 0 .525.116l.584.234q.35.175.641.291.292.058.408-.116m1.75-20.527q-.292.058-.642.058-.35-.058-.7-.058-.583 0-1.166.058-.525 0-.875.175.467.816.175 1.75-.233.874-.991 1.166h1.108q1.108 0 2.1-.234.407-.583.7-1.282t.29-1.633m-.524 11.663q-1.108.233-2.391.291-1.283 0-2.274.234-.933.174-1.283.758 1.516.175 2.915.233 1.458.058 3.091-.175zm-.059-2.858q-.7-.233-1.4-.175t-1.515.117q-.583.117-1.283.175-.642.058-1.4 0l-.175.35q-.116.175-.175.35t0 .466q.525-.175 1.4-.175h2.74q.759 0 1.284-.233t.524-.875m-.116-2.857q-.642-.35-2.274-.35t-2.974.058q-.234 0-.467.059h-.467q-.058.291.117.524.175.292.117.584.525-.234 1.224-.234h1.517q.99 0 1.924-.058t1.283-.583"/>
</svg>
