<svg xmlns="http://www.w3.org/2000/svg" xml:space="preserve" viewBox="0 0 100 100">
    <linearGradient id="0_GOLD_svg__a" x1="23.313" x2="76.671" y1="52" y2="52" gradientTransform="matrix(1 0 0 -1 0 102)" gradientUnits="userSpaceOnUse">
        <stop offset="0" stop-color="#f9da9c"/>
        <stop offset=".043" stop-color="#fbe0a1"/>
        <stop offset=".067" stop-color="#fce6a6"/>
        <stop offset=".145" stop-color="#f4d593"/>
        <stop offset=".193" stop-color="#f5d797"/>
        <stop offset=".243" stop-color="#f7dda4"/>
        <stop offset=".263" stop-color="#f9e1ab"/>
        <stop offset=".329" stop-color="#f7dfa8"/>
        <stop offset=".383" stop-color="#f2d89e"/>
        <stop offset=".398" stop-color="#efd599"/>
        <stop offset=".461" stop-color="#f2d795"/>
        <stop offset=".462" stop-color="#f2d795"/>
        <stop offset=".527" stop-color="#f2d795"/>
        <stop offset=".538" stop-color="#f2d795"/>
        <stop offset=".538" stop-color="#f2d795"/>
        <stop offset=".615" stop-color="#efda9c"/>
        <stop offset=".735" stop-color="#f6e5ad"/>
        <stop offset=".773" stop-color="#f9e9b4"/>
        <stop offset=".822" stop-color="#f7e1a6"/>
        <stop offset=".887" stop-color="#f5db9b"/>
        <stop offset=".956" stop-color="#f4d997"/>
        <stop offset=".967" stop-color="#f4da9c"/>
        <stop offset="1" stop-color="#f4db9e"/>
    </linearGradient>
    <path fill="url(#0_GOLD_svg__a)" stroke="#63451a" stroke-miterlimit="10" stroke-width=".922" d="M74.5 17.5 50 8.6l-24.5 8.9-9.4 66.6v7.3h67.8v-7.3z"/>
    <path fill="#63451a" fill-opacity=".75" d="M16.6 84.1h66.8v6.8H16.6z"/>
    <path d="M76.986 57.79q-2.169 1.005-3.809 1.11-1.64.107-3.226-.475-1.534-.582-3.491-1.534-3.491-5.977-7.247-11.796-3.703-5.818-7.934-11.214-.37.106-.688.423-.317.265-.582.53-.846 1.269-2.063 3.067-1.163 1.746-2.433 3.597-1.27 1.799-2.38 3.28-1.111 1.428-1.746 2.115 2.01.053 4.232-.158 2.274-.212 3.597-.688 1.375-.106 1.798-.635t1.111-.793q2.222.37 3.914 1.27 1.746.846 2.804 2.486-1.799 0-3.703.264-1.851.265-3.65.529.582.688.53 1.746 0 1.005-.107 1.904-.052.264-.105.476v.423q.687-.106 1.534-.212.846-.105 1.534-.37.687-.317.793-.846 1.27.635 2.645 1.005t2.486.952q1.164.529 1.587 1.798-1.323.16-3.174.318-1.851.106-3.808.211-1.905.106-3.492.37-.105 1.958-.317 5.079t-.635 6.347q.635 0 1.27.053h1.27q1.533.106 2.856 0t2.274-1.058q1.005.053 2.38.317 1.376.265 2.751.794 1.375.476 2.433 1.27 1.058.793 1.428 1.904-.582.528-1.798.581-1.164.106-2.486-.105-1.323-.16-2.38-.37-1.799-.212-4.285-.318-2.486-.053-5.184 0-2.644.053-5.025.317-2.327.318-3.861.847-.476.158-.9.317-.37.212-.687.37-.846.423-1.587.635-.74.212-1.587-.053-.846-.264-2.01-1.27-.317-.317-.952-1.163-.635-.794-1.11-1.64-.424-.899-.265-1.27 2.274 1.111 4.549 1.059 2.274-.106 4.813-.424 1.164-.158 2.38-.317 1.27-.159 2.593-.212.105-2.168.105-3.914t-.053-3.385V57.26q-1.586.212-2.75.317-1.111.106-2.01.952-2.116-.211-3.438-1.269-1.27-1.058-2.38-2.327 1.322-.053 3.067-.265 1.799-.264 3.756-.476 1.957-.264 3.65-.317.105-1.376-.212-2.328-.264-1.005-.846-1.64-1.27.635-2.486.053-1.217-.634-2.328-1.48-.264-.212-.529-.37-.264-.212-.529-.371-1.005 1.48-2.221 2.91-1.217 1.427-2.433 2.803-.37.423-1.27 1.322-.9.9-2.063 1.957-1.11 1.058-2.221 2.063-1.111.952-1.905 1.64-.793.634-1.058.687-.476.106-.952 0-.476-.158-.899-.317-.37-.159-.793-.265-.424-.105-.847-.052.9-.847 2.116-1.852 1.217-1.058 2.169-2.063 3.914-3.967 7.088-7.987 3.226-4.073 6.294-8.41 1.64-2.275 2.698-3.967 1.058-1.746 1.693-3.544-.265-.688-.847-1.058l-1.058-.847q-.476-.423-.581-1.27 1.534-.37 2.433-.475.952-.159 1.745-.106.847 0 2.063.212 2.275.952 2.116 2.592 3.12 3.12 6.083 6.4t5.871 6.718q1.005 1.163 2.486 2.168t3.068 2.01q1.64.952 3.068 2.01 1.481 1.005 2.433 2.275.741.952 1.164 2.169.476 1.163.688 2.327zm-14.282 3.385q-1.798 1.481-3.491 3.121-1.64 1.587-3.703 2.804l.106-.424q.159-.476.53-1.058-.583.106-1.64.688-1.006.582-1.746.846 1.058-2.063 2.645-4.178 1.586-2.116 2.644-3.386-.317-.423-.634-.952-.318-.582-.688-1.058l.74-.423q1.852.423 3.333 1.217 1.534.793 1.904 2.803m-17.826 6.242q-1.428.476-2.644-.106-1.217-.635-2.222-1.851-.952-1.217-1.64-2.645t-1.058-2.592q1.27 0 2.434.635 1.163.635 2.221 1.48 1.11.794 2.063 1.482.053 1.11.423 1.851.37.688.423 1.746"/>
</svg>
