<svg xmlns="http://www.w3.org/2000/svg" xml:space="preserve" viewBox="0 0 100 100">
    <linearGradient id="0_GOBETWEEN_svg__a" x1="23.313" x2="76.671" y1="52" y2="52" gradientTransform="matrix(1 0 0 -1 0 102)" gradientUnits="userSpaceOnUse">
        <stop offset="0" stop-color="#f9da9c"/>
        <stop offset=".043" stop-color="#fbe0a1"/>
        <stop offset=".067" stop-color="#fce6a6"/>
        <stop offset=".145" stop-color="#f4d593"/>
        <stop offset=".193" stop-color="#f5d797"/>
        <stop offset=".243" stop-color="#f7dda4"/>
        <stop offset=".263" stop-color="#f9e1ab"/>
        <stop offset=".329" stop-color="#f7dfa8"/>
        <stop offset=".383" stop-color="#f2d89e"/>
        <stop offset=".398" stop-color="#efd599"/>
        <stop offset=".461" stop-color="#f2d795"/>
        <stop offset=".615" stop-color="#efda9c"/>
        <stop offset=".735" stop-color="#f6e5ad"/>
        <stop offset=".773" stop-color="#f9e9b4"/>
        <stop offset=".822" stop-color="#f7e1a6"/>
        <stop offset=".887" stop-color="#f5db9b"/>
        <stop offset=".956" stop-color="#f4d997"/>
        <stop offset=".967" stop-color="#f4da9c"/>
        <stop offset="1" stop-color="#f4db9e"/>
    </linearGradient>
    <path fill="url(#0_GOBETWEEN_svg__a)" stroke="#63451a" stroke-miterlimit="10" stroke-width=".922" d="M74.5 17.5 50 8.6l-24.5 8.9-9.4 66.6v7.3h67.8v-7.3z" transform="translate(3.895 3.894)scale(.9221)"/>
    <path fill="#63451a" fill-opacity=".75" d="M19.202 81.443h61.596v6.27H19.202Z"/>
    <path d="M73.987 45.623q.146.243-.05.488-.048.096-.097.243-.049.098 0 .292-.878.586-1.756.83-.83.244-1.463.537-.586.243-.83 1.023-.048.196-.097.489v.536q.05.292.05.585t-.099.586q-.34 1.512-.877 3.072-.537 1.513-.635 2.877-.341-.048-.682.148-.293.145-.245.536-.145.097-.633 0h-.489q-.243 0-.438.146-.439-.634-1.17-.878-.683-.244-1.561-.292-.781 0-1.659.097-.878.098-1.707.244-.585.049-1.122.147l-.976.097q0 1.512.05 3.024.048 1.463.048 2.927 0 1.609-.194 3.56-.148 1.902-.635 3.756-.439 1.902-1.316 3.462-.49-.048-.83-.878-.293-.829-.487-1.999-.148-1.122-.245-2.194-.097-1.074-.097-1.61V60.4q0-1.707-.097-2.927-1.415 0-2.44.147-.975.147-1.901.341-.586.147-1.22.293-.634.097-1.317.146v1.025q-.976.682-1.951.195-.732-.39-1.365-1.122-.634-.731-1.122-1.22v-.048q.146-.341.243-.732.098-.439-.243-.927.049-.194.341-.146h.292q.294-1.56.148-3.024-.148-1.512-.538-3.072-.488-.83-1.219-1.415t-1.414-1.22q-.39-.341-.976-.927l-.537-.584v1.023q0 .537.05 1.123v1.706q.048.878 0 1.854-.05 1.024-.05 2.146.05 1.073.05 2.146.048 1.317.048 2.536t-.098 2.293v.292q0 .293-.097.635-.097.292-.536.585.048.195.243.146.244-.049.244.196.195 2.39.293 5.071.098 2.635.439 4.537-.78.489-1.366.39-.585-.097-1.073-.585-.78-.83-1.317-2.293-.487-1.462-1.023-2.39.438-.243.536-1.024.146-.78.195-1.755.048-1.025.146-1.903l.097-.877q.098-.49.537-.684 0-.195-.244-.146h-.244q0-.146.098-.293t.195-.244q.097-.195.195-.341.147-.195.098-.488-.049-.194-.147.098l-.098.244q-.145-1.269-.145-3.024t.048-3.512v-3.024q-.634 1.17-1.61 2.146-.975.926-1.365 2.048-.489.147-.78.537-.293.341-.781.537-.439.829-.927 1.268-.488.39-.829.634-.439.292-.926.341-.44 0-.488.683-.927-.244-1.366-.293-.39-.049-.537-.682 4.048-4.341 6.926-9.463T38.186 36.6q-.195-.439-.489-.78-.243-.39-.487-.682-.438-.49-.732-.977-.243-.537.098-1.414 1.122.048 2.244.293 1.17.194 2.634.341.39.731.976 1.219.633.439 1.12 1.122-1.023 1.854-2.292 4.438-1.267 2.586-2.829 4.683.586.536 1.025.34.488-.194.976-.584.243-.146.536-.34.292-.196.585-.294 1.17-.39 2.536-.44 1.415-.048 2.83 0 1.609 0 3.219-.048 1.61-.098 3.072-.633-.048-2.635-.439-5.122-.39-2.536-1.365-3.951.194-.341.048-.634-.097-.293-.292-.585-.195-.293-.341-.634-.098-.342.097-.83.195-.244.488-.048.048.049.097.049 1.122.877 2.293 1.364 1.22.49 2.292 1.123t1.756 1.95q-.195 1.366-.244 2.44-.049 1.023-.049 2.097 0 1.024-.098 2.39.927.34 2.05.34 1.17 0 2.34-.047.683-.049 1.366-.049.683-.049 1.317 0 .244-.732.78-.78.586-.098 1.269-.049.341.049.682.049.39 0 .732-.098.05.341.293.39.292 0 .536-.049h.098q.195.196.098.341l-.049.147q1.56.78 2.536 1.512.975.683 2.488 1.464m-8.634-.05q-.536-.537-2-.634-1.414-.147-3.073 0-1.609.146-2.78.39 0 .926-.049 1.804 0 .879-.048 1.757-.097 1.364-.146 2.829 0 1.414.146 3.024.732-.293 1.805-.342t2.097-.049h1.512q.731-.049 1.22-.195-.05-.293.097-.634l.292-.682.245-.732q.097-.293-.196-.293.098-.537.147-1.122t.292-.926q.098.194 0 .438l-.097.488q-.147.537-.049.585.05-.195.097-.341l.098-.39q.195-.586.293-1.123.146-.584.048-1.17-.097.05-.146.537 0 .292-.097.586-.05.243-.293.243.585-1.756.585-4.048m-11.56 9.218q-.048-1.365-.194-3.121-.098-1.757-.196-3.415-.097-1.706-.195-2.731-2.39 0-4.048.292-1.61.294-3.805.83.196.536.294 1.317.145.78.292 1.462t.39.88q-.146.292-.098.438.05.097.148.244.097.097.145.292.098.147-.146.537l-.049-.293q0-.292-.146-.34-.049.096-.049.633.05.488.146.926.147.44.244.44l-.048-.44q-.05-.439.195-.39v1.805q.048.634.341 1.024h2.195q1.268 0 2.439-.049 1.219-.049 2.146-.34"/>
</svg>
