<svg xmlns="http://www.w3.org/2000/svg" viewBox="0 0 100 100">
    <linearGradient id="0_HORSE_svg__a" x1="19.181" x2="80.829" y1="52" y2="52" gradientTransform="matrix(1 0 0 -1 0 102)" gradientUnits="userSpaceOnUse">
        <stop offset="0" stop-color="#f9da9c"/>
        <stop offset=".043" stop-color="#fbe0a1"/>
        <stop offset=".067" stop-color="#fce6a6"/>
        <stop offset=".145" stop-color="#f4d593"/>
        <stop offset=".193" stop-color="#f5d797"/>
        <stop offset=".243" stop-color="#f7dda4"/>
        <stop offset=".263" stop-color="#f9e1ab"/>
        <stop offset=".329" stop-color="#f7dfa8"/>
        <stop offset=".383" stop-color="#f2d89e"/>
        <stop offset=".398" stop-color="#efd599"/>
        <stop offset=".461" stop-color="#f2d795"/>
        <stop offset=".462" stop-color="#f2d795"/>
        <stop offset=".527" stop-color="#f2d795"/>
        <stop offset=".538" stop-color="#f2d795"/>
        <stop offset=".538" stop-color="#f2d795"/>
        <stop offset=".615" stop-color="#efda9c"/>
        <stop offset=".735" stop-color="#f6e5ad"/>
        <stop offset=".773" stop-color="#f9e9b4"/>
        <stop offset=".822" stop-color="#f7e1a6"/>
        <stop offset=".887" stop-color="#f5db9b"/>
        <stop offset=".956" stop-color="#f4d997"/>
        <stop offset=".967" stop-color="#f4da9c"/>
        <stop offset="1" stop-color="#f4db9e"/>
    </linearGradient>
    <path fill="url(#0_HORSE_svg__a)" stroke="#63451a" stroke-miterlimit="10" stroke-width=".954" d="M77.6 15.4 50 5.8l-27.6 9.6-10.6 72.1v6.7h76.4v-6.7z"/>
    <path fill="#63451a" fill-opacity=".75" d="M12.3 87.5h75.4v6.2H12.3z"/>
    <path d="M77.032 57.064q-.7.875-2.216 1.75-1.516.816-3.382 1.107-.583 2.1-.875 4.549-.292 2.39-.7 4.782t-1.166 4.432-2.216 3.382q-.641.583-1.75 1.224-1.05.642-2.215 1.108t-2.1.525q-1.807.117-3.09-.583t-2.45-1.574l-1.05-.7q-.524-.35-1.049-.642-.933-1.516-2.216-2.799-1.225-1.341-2.974-2.04 1.225-.409 2.566-.117t2.74.758q1.225.408 2.45.7t2.39.174q1.225-.174 2.217-.99t1.866-1.809q.933-1.05 1.808-1.632.058.408-.525.99-.525.584-1.108 1.109l-.642.641q-.233.234-.233.35 1.108-.525 1.983-1.516.933-.991 1.166-2.39.058-.234-.058-.467-.059-.292-.175-.584-.117-.233-.175-.466t-.058-.467q.058-.758.174-1.516l.35-1.633q.35-1.632.584-3.324t-.234-3.44q-4.665-.292-9.447.175-4.782.408-9.797.991-1.224.117-2.507.292-1.225.175-2.508.291 0 .35-.525.642-.466.291-.99.525-.526.175-.7.35-1.109-.817-1.867-1.983-.758-1.225-1.75-2.158.409-1.458.642-3.557t.35-4.374q.117-2.332.117-4.49.058-2.216 0-3.907-.059-1.633-.583-2.682t-1.866-1.458q-.059-.292-.175-.525-.117-.292-.292-.525-.233-.408-.408-.816-.117-.467.175-.992.466-.116.758 0 .291.059.525.175t.466.175.525.058q.233-.058.233-.583 0-.466.175-.525 3.44-.233 6.94-.874t7.23-.875q2.392-.175 5.132-.175t5.074-.35q.933-.116 2.216 0 1.341.117 2.566.525 1.283.408 2.099 1.108.875.7.875 1.75-1.342.116-2.858.116h-3.032q-2.1-.058-4.14 0-2.041 0-3.674.35l.233.583.35.583q.466.758.816 1.691.35.875 0 2.216h.758q1.225 0 2.275-.058t1.632-.641q2.1.233 3.674 1.05 1.633.757 2.216 2.04-2.449.992-5.19 1.167t-5.831.35q-.35 1.05-.35 1.749t.117 1.574v.234q3.615-.933 6.647-.234 3.091.7 4.374 2.45-.292.524-.7.524t-.874-.058q-.234-.058-.467-.058h-.467q-2.04.233-4.14.583-2.1.292-4.14.292-.408.291-.467.933t0 1.4v1.224q.758.058 1.516.058.759-.058 1.575-.117 1.341-.058 2.8-.058 1.515 0 3.323.292 1.516-.817 3.09-.817 1.634 0 3.266.525 2.158.7 4.082 2.1 1.983 1.34 3.266 2.857m-44.26 14.054q-.934.291-1.634.116t-1.283-.583q-1.05-.816-1.866-2.1-.758-1.282-1.75-2.04.467-.758.292-1.691-.116-.933-.408-1.866-.233-.817-.408-1.517-.117-.7.292-1.107 2.04 1.05 3.848 2.332t2.741 3.324q.933 1.983.175 5.132m16.853-32.773q.117-1.516-.058-2.8t-.408-2.507q-1.517.175-3.266.292-1.691.116-3.15.525t-2.332 1.457q.467.525.583 1.75.175 1.225-.116 1.924 1.516.117 2.682 0t2.275-.291q.874-.175 1.807-.234.933-.116 1.983-.116m-.233 7.464q.116-.583.058-1.108v-1.166q-.058-.408-.058-.817v-.874q-1.575-.059-2.8.116-1.224.117-2.449.35-.758.117-1.574.234-.758.116-1.691.174-.059.234-.175.933t-.117 1.517q.059.758.292 1.283 2.216-.234 4.082-.409 1.924-.175 4.432-.233m.233 6.823q.058-.642 0-1.108 0-.525-.117-.991-.058-.35-.116-.758V48.9q-1.225-.059-2.275.175-.99.175-1.982.408-.992.292-2.041.525-1.05.175-2.275.058.117.408.059.875l-.117.933q-.058.466-.116.991-.059.467 0 .875 2.157-.175 4.315-.292t4.665-.816m-8.047 13.062q.524 1.75-.292 3.674-2.216-.116-3.382-1.574t-1.75-3.557q-.525-2.158-.933-4.14 1.866.699 3.79 2.157 1.983 1.4 2.567 3.44m16.386 1.225q-1.983.233-3.09-.933-1.05-1.225-1.925-2.624-.35-.525-.641-.991-.292-.525-.642-.934.058-.816-.058-1.516-.059-.758-.175-1.34 2.216.757 4.082 1.923 1.866 1.108 2.45 3.033.232.7.232 1.574.059.817-.233 1.808M49.8 64.645q.233.758.233 1.574t-.408 1.808q-1.75-.058-3.207-1.225-1.4-1.166-2.158-3.09-.758-1.983-.466-4.257.933.466 2.157 1.166t2.333 1.691 1.516 2.333"/>
</svg>
