<svg xmlns="http://www.w3.org/2000/svg" viewBox="0 0 100 100">
    <linearGradient id="0_KING_svg__a" x1="19.181" x2="80.829" y1="52" y2="52" gradientTransform="matrix(1 0 0 -1 0 102)" gradientUnits="userSpaceOnUse">
        <stop offset="0" stop-color="#f9da9c"/>
        <stop offset=".043" stop-color="#fbe0a1"/>
        <stop offset=".067" stop-color="#fce6a6"/>
        <stop offset=".145" stop-color="#f4d593"/>
        <stop offset=".193" stop-color="#f5d797"/>
        <stop offset=".243" stop-color="#f7dda4"/>
        <stop offset=".263" stop-color="#f9e1ab"/>
        <stop offset=".329" stop-color="#f7dfa8"/>
        <stop offset=".383" stop-color="#f2d89e"/>
        <stop offset=".398" stop-color="#efd599"/>
        <stop offset=".461" stop-color="#f2d795"/>
        <stop offset=".462" stop-color="#f2d795"/>
        <stop offset=".527" stop-color="#f2d795"/>
        <stop offset=".538" stop-color="#f2d795"/>
        <stop offset=".538" stop-color="#f2d795"/>
        <stop offset=".615" stop-color="#efda9c"/>
        <stop offset=".735" stop-color="#f6e5ad"/>
        <stop offset=".773" stop-color="#f9e9b4"/>
        <stop offset=".822" stop-color="#f7e1a6"/>
        <stop offset=".887" stop-color="#f5db9b"/>
        <stop offset=".956" stop-color="#f4d997"/>
        <stop offset=".967" stop-color="#f4da9c"/>
        <stop offset="1" stop-color="#f4db9e"/>
    </linearGradient>
    <path fill="url(#0_KING_svg__a)" stroke="#63451a" stroke-miterlimit="10" stroke-width=".954" d="M77.6 15.4 50 5.8l-27.6 9.6-10.6 72.1v6.7h76.4v-6.7z"/>
    <path fill="#63451a" fill-opacity=".75" d="M12.3 87.5h75.4v6.2H12.3z"/>
    <path d="M79.003 77.46q-.667 1.068-1.868 1.068t-2.202-.8q-8.808-1.001-17.682-1.001-5.138 0-10.276.467-5.07.4-10.075 1.534-1.601.334-2.87.4-1.2.134-1.867.801-.467.468-1.135.601-.6.2-1.267.2-2.536 0-4.738-1.334t-3.47-3.07q-1.267-1.801-1.067-3.069 3.203.4 6.539.4 5.07 0 10.075-.533 5.071-.534 10.142-.801.067-1.401 0-3.536 0-2.136-.066-4.538 0-1.735-.067-3.47v-3.336q-1.001.134-2.069.134-1 0-2.068-.067h-1.868q-.868 0-1.802.067-1.134.067-2.135.667-.934.6-2.069.6-1.801 0-3.202-1.067-1.335-1.134-2.269-2.736-.934-1.668-1.468-3.136 2.536.467 5.138.534 2.669.067 5.271.067h4.738l3.803-.134q.067-1 0-2.001 0-1.001-.067-2.002 0-.734-.067-1.401v-1.535q0-1.268-.133-2.869-.067-1.668-.467-3.136-.4-1.535-1.468-2.335-1.001.133-2.069.2h-2.135q-2.135 0-4.27.2t-3.87 1.468q-1.868-.334-3.27-1.601-1.4-1.335-2.335-3.07-.867-1.801-1.334-3.47.333-.133.667-.2t.667-.066q1.068 0 3.203.8t5.204.801q3.136 0 6.272-.267 3.136-.333 6.206-.4 3.536-.134 7.273-.334t7.206-1.134q.333-.134.4-.4.134-.267.4-.534 2.136 0 3.604.6 1.468.534 2.802 1.401 1.401.868 3.07 1.869 0 .333.066.6.067.2.134.467t.133.6q.133.334.133.735l-2.001.133H69.06q-1.735 0-3.536.134-1.735.066-3.47.4-.334.067-.6-.334-.067-.133-.134-.2-.4.668-1.201.801-.8.067-1.535 0h-.533q-1.001 0-1.669.334-.4-.134-.333-.467-.934.066-1.868.266-.868.134-1.802.267.4 1.135 1.134 2.069-.467 2.068-.533 4.27-.067 2.135-.067 4.337-.067 1.201-.067 2.335t-.067 2.27h.734q.4-.068.801-.068 1.535-.066 3.203-.267 1.735-.2 2.335-1.4 1.134.066 2.736.4 1.601.267 3.136.867 1.534.534 2.602 1.535 1.068.934 1.134 2.468-.934.468-1.935.668-1 .133-2.068.133t-2.202.134q-1.068.066-2.202.066h-.8q-.4 0-.801.067-1.335.2-3.47.4-2.068.134-3.336.267.067 2.402-.067 4.938-.067 2.535-.2 4.737-.133 1.535-.2 2.87v2.135q1.067.133 2.002.2 1 0 2.001-.067h5.005l3.67-.133q.533 0 .533-.6.067-.601.534-.601 2.602 0 5.138.667 2.602.6 4.67 2.068 2.136 1.468 3.27 4.004"/>
</svg>
