<svg xmlns="http://www.w3.org/2000/svg" viewBox="0 0 100 100">
    <linearGradient id="0_KIRIN_svg__a" x1="19.181" x2="80.829" y1="52" y2="52" gradientTransform="matrix(1 0 0 -1 0 102)" gradientUnits="userSpaceOnUse">
        <stop offset="0" stop-color="#f9da9c"/>
        <stop offset=".043" stop-color="#fbe0a1"/>
        <stop offset=".067" stop-color="#fce6a6"/>
        <stop offset=".145" stop-color="#f4d593"/>
        <stop offset=".193" stop-color="#f5d797"/>
        <stop offset=".243" stop-color="#f7dda4"/>
        <stop offset=".263" stop-color="#f9e1ab"/>
        <stop offset=".329" stop-color="#f7dfa8"/>
        <stop offset=".383" stop-color="#f2d89e"/>
        <stop offset=".398" stop-color="#efd599"/>
        <stop offset=".461" stop-color="#f2d795"/>
        <stop offset=".462" stop-color="#f2d795"/>
        <stop offset=".527" stop-color="#f2d795"/>
        <stop offset=".538" stop-color="#f2d795"/>
        <stop offset=".538" stop-color="#f2d795"/>
        <stop offset=".615" stop-color="#efda9c"/>
        <stop offset=".735" stop-color="#f6e5ad"/>
        <stop offset=".773" stop-color="#f9e9b4"/>
        <stop offset=".822" stop-color="#f7e1a6"/>
        <stop offset=".887" stop-color="#f5db9b"/>
        <stop offset=".956" stop-color="#f4d997"/>
        <stop offset=".967" stop-color="#f4da9c"/>
        <stop offset="1" stop-color="#f4db9e"/>
    </linearGradient>
    <path fill="url(#0_KIRIN_svg__a)" stroke="#63451a" stroke-miterlimit="10" stroke-width=".954" d="M77.6 15.4 50 5.8l-27.6 9.6-10.6 72.1v6.7h76.4v-6.7z"/>
    <path fill="#63451a" fill-opacity=".75" d="M12.3 87.5h75.4v6.2H12.3z"/>
    <path d="M79.19 64.82q-2.508.466-4.84.525t-4.666 0h-.7q-.291-.059-.64-.059-2.45-.058-5.016-.058-2.508-.058-5.307.35.467.7 1.342.933t1.166 1.166q-1.691 2.274-3.266 4.724-1.516 2.39-3.44 4.432-.175-.175-.35-.234h-.292q-.233.059-.35 0 .117.758-.35.875l-1.516-.816q-.7-.35-.991-1.283 2.04-1.167 3.382-2.974 1.4-1.808 2.45-3.966-.117-.641-.584-.874-.408-.292-.583-.817-1.283.7-2.507.35-1.167-.408-2.158-.991l-.583-.234q-.292-.175-.525-.291.117-.117.117-.35.058-.292.058-.525-.642-.117-1.166 0-.467.117-.933.292t-1.05.35q-.525.116-1.225.058 0 .466-.058.991v.933l-.117 2.508q0 1.224.292 2.216 1.108-.467 1.983-.7.874-.292 1.632-.292.933 0 1.75.467.816.408 1.691 1.458-.758 1.108-2.566 1.633-1.808.583-3.79.524-1.983 0-3.324-.7-.933-1.166-.933-3.265t.175-4.607q.058-.875.116-1.69.059-.876.059-1.75-1.05.175-2.45.991-1.34.758-3.032.816-.525.933-.641 2.333-.117 1.341-.817 2.158.175.175.467.116.291-.116.583-.291.175-.059.408-.117.233-.117.408-.175 1.108-.117 2.1.058 1.05.175 1.4 1.167-.934 1.75-2.508 2.915-1.517 1.167-2.8 2.566-1.574-.291-3.032-1.34-1.458-1.109-2.74-2.217.29-.291.64-.233.35 0 .759.116l.7.117q.35 0 .583-.233.175-1.808.583-4.082.466-2.333.466-4.49 0-1.4-.291-2.566-.292-1.225-1.108-1.925-.758 1.517-1.108 3.5-.35 1.924-.817 3.673t-1.574 2.74q-.233.176-.058.35.175.234.058.467-.991.933-1.575 1.633l-1.166 1.4q-.525.7-1.516 1.75-.408-.118-.583-.06-.175 0-.35.06t-.35.057q-.175.059-.583 0-.058-.175.058-.408.117-.291-.116-.466 1.632-1.808 2.39-3.558t1.225-3.44q.525-1.691 1.341-3.324.117-.233.525-1.283.467-1.05.583-1.574 1.05-3.733 1.517-7.99t.35-9.155q-.759-1.75-2.275-3.149-1.458-1.458-2.216-2.74 1.575 0 4.024-.234 2.45-.292 5.073-.642t4.607-.7q.292-.816.525-1.982.292-1.166 0-1.866-.292-.933-1.458-1.458-1.108-.525-2.274-.991-1.166-.525-1.633-1.283 1.4-.583 3.09-.817 1.75-.233 3.325.175t2.39 1.75q.117.991-.174 2.1t-.642 2.157l-.233.816q-.117.408-.233.758h.641q.35-.058.7-.058 1.574-.058 3.266-.058t3.09.35q1.166.233 1.983.874.875.583 1.225 1.691-.992.409-2.158.409t-2.333-.059q-1.108-.058-2.1-.058t-1.807.291q.117.409.233.759.175.35.292.641.35.816.525 1.575t-.175 1.924q.175.058.816.117.642 0 1.225-.234t.583-.991q2.45.466 4.257 1.691 1.866 1.166 3.266 2.857-.525.234-1.575.525-1.05.234-2.04.409-.234 2.449-.409 4.84-.175 2.332-1.4 3.965-.466-.058-1.108.058-.583.059-1.224.175l-1.166.234q-.584.058-1.05.058.233.7.175 1.924 0 1.225-.117 2.45v.35q1.808-.992 2.916-.7t2.158.874q.291.117.408.175.933.467 2.1.758t2.915-.233q-.583-2.04-.583-4.199.058-2.157.291-4.548 0-.117.059-.408.175-2.216.291-4.607.175-2.45-.116-5.074-.759.234-1.458.117-.642-.117-1.283-.466-1.108-.642-1.925-1.75t-1.283-1.866q.7-.583 1.458-.525t1.516.35q.059 0 .175.058.642.234 1.283.409.642.116 1.283 0v-.584l.117-.583q.058-.874.058-1.75.059-.932-.233-1.807-.233-.758-.816-1.283l-1.05-1.166q-.467-.583-.525-1.341 0-.234.058-.409l.234-.35.233-.466q.116-.292.058-.7.758.408 2.158 1.05 1.4.583 2.682 1.633t1.691 2.74q-.524 1.109-.641 2.333-.058 1.225-.058 1.866v.117q2.04-.175 3.79-.292 1.75-.175 3.849-.466-.058-.758-.058-1.75.058-.991.058-2.1.058-.932.058-1.865v-1.808q-.408-.991-.933-1.808-.525-.874-.641-2.216.641-.408 1.108 0t.874.817q.117.175.175.233 1.808.292 2.916 1.4t2.45 1.924q-.234.233-.176.35l.234.233q.058.058.116.058-.175.817-.816 2.391-.583 1.575-.758 3.324.7.35 1.808.642t2.04.816q.992.467 1.109 1.341.408-.175.524-.058.175.058.292.233.233.234.525.234.175.466 0 .641-.117.117-.35.233-.408.117-.408.409-1.225-.467-2.741-.467t-2.566.117q-.466.7-.583 1.69l-.117 1.983v.817q-.058 1.4-.058 2.916.058 1.458.058 2.974.059 2.507.059 4.898t-.234 4.432q.292.408 1.108.35.875-.058.758-.816 1.517.233 3.441.933t2.682 1.34q-.116.292-.058.467.117.175.292.292.291.291.175.525m-11.722-7.29q-.291-.466-.35-1.34t-.058-1.984q0-.933-.058-1.924-.058-1.05-.233-2.04-2.1.232-3.79.407-1.634.117-3.966.35.058.525 0 1.166-.059.584-.059 1.167l-.116.933v.816q.116 0 .408-.058 1.458-.117 2.974-.117 1.575 0 2.8.467 1.282.466 1.865 1.75l-4.315.466q-2.158.175-3.849.525.058.524 0 .99v.759q-.058.641-.058 1.283.058.583.291 1.225 2.216-.117 4.14-.175 1.983-.059 4.024-.175.059-.409 0-.875v-.933q-.058-.875 0-1.633.059-.816.35-1.05m7.465 17.203v.583q.058.292.058.584.117 1.166 0 2.39-.058 1.225-1.283 1.808-1.574-.758-2.682-2.332-1.108-1.517-1.925-3.324-1.108-2.45-1.983-4.957-.816-2.566-2.04-4.024 1.282.117 2.274.817 1.05.641 1.866 1.516l1.458 1.458q.291.233.583.525l.583.466q1.05.875 1.866 1.866.875.933.642 2.45.058.174.466.174zM67.002 49.6q0-.642-.058-1.225-.059-.641-.059-1.225-.116-1.283-.175-2.507 0-1.225.175-2.333-2.216.059-3.732.234t-3.907.524q.058.758 0 1.458v1.341q-.058.7-.058 1.342 0 .583.116 1.05 1.342-.7 2.741-.7 1.516 0 2.8.641 1.34.583 2.157 1.4m-30.557-1.633q-.642.291-1.166.233t-.992-.175q-.291-.058-.641-.117-.292-.116-.642-.058-.35 1.808-.466 3.266-.059 1.458-.583 3.149.758-.117 1.283.058.524.117 1.05.35.407.175.874.35.525.116 1.166.058.234-1.108.175-2.799V49.25q-.058-.409-.058-.7zm5.307 14.054q.116-.992.174-2.333.059-1.4-.408-2.158-.466.059-.991.059h-1.05q-.874-.059-1.69 0-.759 0-1.4.233v.058q0 .292-.117.583-.058.292-.642.467.467.583.409 1.166 0 .583-.059 1.108-.116.35-.116.525.058 0 .233-.058 1.808-.467 3.207-.583 1.458-.175 2.45.933m5.364-15.687q-.466.058-1.166.117t-1.341.35q-.117.524-.175 1.166v1.341q-.058 1.166-.175 2.45-.058 1.224-.525 2.332.175 0 .408-.058t.409-.059q.583-.116 1.108-.175.583-.058.991.234.058-.175.058-.35.059-.175.117-.292.408-1.808.583-3.266.175-1.516-.292-3.79m-10.554-1.75q-.059-1.34-.234-2.74-.116-1.458-.758-2.216-1.108-.117-1.924.116t-1.575.525q-.175.059-.35.175l-.35.117q.467.816 1.283 1.283t1.225 1.283l-.117.35q0 .116-.058.233-.058.35-.117.641 0 .234.117.7.525 0 1.4-.175.874-.233 1.458-.291m5.19 2.215q-1.225 0-2.275.467-.058 1.983-.175 3.849-.116 1.808-.466 3.499.816 0 1.458-.059.7-.116 1.166-.466-.175-1.341-.117-2.508t.175-2.449q.059-.525.117-1.108t.117-1.225m.35-2.974v-1.69q0-.992-.059-1.925t-.408-1.516q-.7-.059-1.283.058-.583.058-1.166.175-.292.058-.642.117l-.7.116.234.35.233.35q.583.816.933 1.75.408.933 0 2.449.641.058 1.166 0 .583-.059 1.108-.175.408-.059.583-.059m-8.747 14.288q-.35-.7-.758-1.283-.408-.642-.991-1.05 0 .466-.059.991-.058.467-.174.875-.117.525-.117.7.466-.117 1.05-.117.641-.058 1.05-.116"/>
</svg>
