<svg xmlns="http://www.w3.org/2000/svg" viewBox="0 0 100 100">
    <linearGradient id="0_LANCE_svg__a" x1="23.313" x2="76.671" y1="52" y2="52" gradientTransform="matrix(1 0 0 -1 0 102)" gradientUnits="userSpaceOnUse">
        <stop offset="0" stop-color="#f9da9c"/>
        <stop offset=".043" stop-color="#fbe0a1"/>
        <stop offset=".067" stop-color="#fce6a6"/>
        <stop offset=".145" stop-color="#f4d593"/>
        <stop offset=".193" stop-color="#f5d797"/>
        <stop offset=".243" stop-color="#f7dda4"/>
        <stop offset=".263" stop-color="#f9e1ab"/>
        <stop offset=".329" stop-color="#f7dfa8"/>
        <stop offset=".383" stop-color="#f2d89e"/>
        <stop offset=".398" stop-color="#efd599"/>
        <stop offset=".461" stop-color="#f2d795"/>
        <stop offset=".615" stop-color="#efda9c"/>
        <stop offset=".735" stop-color="#f6e5ad"/>
        <stop offset=".773" stop-color="#f9e9b4"/>
        <stop offset=".822" stop-color="#f7e1a6"/>
        <stop offset=".887" stop-color="#f5db9b"/>
        <stop offset=".956" stop-color="#f4d997"/>
        <stop offset=".967" stop-color="#f4da9c"/>
        <stop offset="1" stop-color="#f4db9e"/>
    </linearGradient>
    <path fill="url(#0_LANCE_svg__a)" stroke="#63451a" stroke-miterlimit="10" stroke-width=".922" d="M74.5 17.5 50 8.6l-24.5 8.9-9.4 66.6v7.3h67.8v-7.3z"/>
    <path fill="#63451a" fill-opacity=".75" d="M16.6 84.1h66.8v6.8H16.6z"/>
    <path d="M75.431 60.805q-2.592 1.64-5.66 1.375t-5.342-1.904q-1.111 1.164-1.587 2.962t-.74 3.861q-.212 2.01-.635 3.862-.424 1.904-1.429 3.173-.476-.211-.846-.211-.317.053-.846.159-.053.052-.106.052-.476-.37-1.005-.74-.476-.317-.9-.793-.898.052-1.85 0H52.58q-1.851-.053-3.702 0-1.852.052-3.333.581-.317.106-.74.582-.37.476-.688.53-.37.052-1.322-.424t-1.852-1.217q-.899-.687-1.216-1.163.317-.212.899-.159-.529-1.375-.688-3.015-.106-1.64-.158-3.332-.106-2.328-.424-4.39-.264-2.117-1.64-3.174-1.48 1.163-3.279 2.433t-3.544 2.063q-1.428.687-2.856.74-1.428 0-3.703-.37 6.136-3.438 11.055-7.987 4.972-4.55 9.627-9.416-1.428 0-3.173.16-1.693.105-3.28.528-1.534.37-2.539 1.164-2.01-.582-3.756-1.693-1.745-1.11-1.904-3.174 2.116.265 5.184.159t6.294-.476q3.28-.37 5.925-.793-.265-1.429-.212-2.645.053-1.217-.529-2.275-2.221.688-4.231 1.058-2.01.318-3.65-.687.317-.53-.212-.688-.476-.159-1.058.159.106-.318.794-.688.74-.37 1.587-.529.846-.212 1.322.053-.264-.212.159-.53.476-.316 1.27-.634.793-.317 1.533-.582.265-.105.476-.158.212-.106.37-.159 1.905-.74 3.597-1.217 1.693-.476 3.174-1.216-.106-.212-.264-.318-.16-.158-.318-.264-.264-.212-.476-.476-.211-.265-.211-.794 1.375-.105 2.962-.158 1.64-.053 3.068.211 1.428.265 2.274 1.058.9.74.846 2.275-1.322.952-3.226 1.428-1.851.423-3.544.688-1.64.264-2.38.687.317.688.74 1.27l.846 1.163q-.105.847-.211 1.746-.106.846-.317 1.64 1.005.529 2.115.476t2.38-.265q1.111-.158 2.328-.211 1.27-.106 2.539.211.106-.317.264-.529.16-.211.265-.423 1.375.053 2.962.476 1.64.423 3.068 1.27 1.428.846 2.063 2.221-1.904.053-3.491.053-1.587-.053-3.068-.106-2.222-.052-4.496-.052t-5.237.264q2.54 2.274 5.29 4.708 2.803 2.433 5.66 3.914 1.904.952 4.072 2.063 2.17 1.11 4.02 2.697 1.905 1.534 2.751 3.862M57.817 57.42q-4.02-.106-7.723.158-3.65.265-7.246 1.164.37.529.37 1.164.053.634 0 1.27v.951q0 .423.158.74 2.751-.21 4.973-.37 2.221-.211 4.549-.74 1.058.582 2.168 1.11 1.111.53 2.01 1.27-2.063.635-4.39.794-2.327.105-4.655.264-2.274.159-4.284.9.106 1.216.106 1.745.052.529.105 1.005.053.423.318 1.375 1.534 0 2.962-.053 1.428-.105 2.803-.211 1.852-.159 3.544-.212 1.746-.106 3.333.053.582-2.803 1.005-6.136.476-3.385-.106-6.241m1.322-3.333q-1.587-2.169-3.28-4.284-1.639-2.17-3.913-3.65-.265 1.745-.318 3.28 0 1.48-.053 3.226v2.168q1.27-.21 2.962-.21 1.693-.054 2.38.37.106-.318.9-.477.793-.211 1.322-.423m-11.002.9v-.054q.053-.899.053-2.221t-.053-2.645q0-1.375-.159-2.38h-.581q-.953 1.322-2.487 2.592t-3.015 2.592q-1.428 1.322-2.168 2.856 2.063-.159 4.39-.37 2.38-.265 4.02-.37"/>
</svg>
