<svg xmlns="http://www.w3.org/2000/svg" xml:space="preserve" viewBox="0 0 100 100">
    <linearGradient id="0_LEOPARD_svg__a" x1="23.313" x2="76.671" y1="52" y2="52" gradientTransform="matrix(1 0 0 -1 0 102)" gradientUnits="userSpaceOnUse">
        <stop offset="0" stop-color="#f9da9c"/>
        <stop offset=".043" stop-color="#fbe0a1"/>
        <stop offset=".067" stop-color="#fce6a6"/>
        <stop offset=".145" stop-color="#f4d593"/>
        <stop offset=".193" stop-color="#f5d797"/>
        <stop offset=".243" stop-color="#f7dda4"/>
        <stop offset=".263" stop-color="#f9e1ab"/>
        <stop offset=".329" stop-color="#f7dfa8"/>
        <stop offset=".383" stop-color="#f2d89e"/>
        <stop offset=".398" stop-color="#efd599"/>
        <stop offset=".461" stop-color="#f2d795"/>
        <stop offset=".462" stop-color="#f2d795"/>
        <stop offset=".527" stop-color="#f2d795"/>
        <stop offset=".538" stop-color="#f2d795"/>
        <stop offset=".538" stop-color="#f2d795"/>
        <stop offset=".615" stop-color="#efda9c"/>
        <stop offset=".735" stop-color="#f6e5ad"/>
        <stop offset=".773" stop-color="#f9e9b4"/>
        <stop offset=".822" stop-color="#f7e1a6"/>
        <stop offset=".887" stop-color="#f5db9b"/>
        <stop offset=".956" stop-color="#f4d997"/>
        <stop offset=".967" stop-color="#f4da9c"/>
        <stop offset="1" stop-color="#f4db9e"/>
    </linearGradient>
    <path fill="url(#0_LEOPARD_svg__a)" stroke="#63451a" stroke-miterlimit="10" stroke-width=".922" d="M74.5 17.5 50 8.6l-24.5 8.9-9.4 66.6v7.3h67.8v-7.3z"/>
    <path fill="#63451a" fill-opacity=".75" d="M16.6 84.1h66.8v6.8H16.6z"/>
    <path d="M49.38 41.203q.427.64.373 1.333 0 .693-.746 1.386-.107.107-.587.267-.427.16-.693.32-.16.053-1.014.747-.853.693-1.92 1.6-1.066.853-1.92 1.6-.8.746-.8.96 0 .32.64.746.694.427 1.014.747.693.693 1.12 1.493.426.747.693 1.6.427 1.494.533 3.254t.16 3.946v.64q.054.32.054.64.053 2.24.053 4.48t-.587 4.16q-.373 1.28-1.066 2.187-.64.907-1.067 2.133-.587.214-1.12.534-.48.373-1.28.426-1.173-1.12-2.56-2.24t-2.507-2.453-1.493-2.933q-.907.213-1.493.853-.534.587-1.44.853-.427-.266-1.067-.266-.64-.054-1.173-.267-.534-.213-.747-.907 1.6-.96 3.52-2.506 1.973-1.547 3.893-3.254 1.974-1.76 3.574-3.306 1.653-1.547 2.613-2.507-.053-.533-.16-1.067-.107-.586-.267-.96-2.293 2.72-5.333 4.694-2.987 1.973-6.187 3.84-.586-.267-1.28-.48-.693-.267-1.173-.64 0-.267.64-.214.373.054.48 0 .053-.32-.427-.213l-.48.053q2.027-1.92 4.267-3.36 2.293-1.44 4.427-2.986t3.786-3.68q-.053-.267-.213-.694-.107-.426-.373-.64-1.974 1.28-3.894 2.774-1.866 1.44-4 2.666-2.08 1.174-4.8 1.814-.053-.16.107-.374.107-.106.107-.213-.587.267-1.12.053-.48-.213-.907-.48-.16-.053-.213-.106 1.546-.907 2.773-1.654 1.28-.8 2.933-1.226 1.12-1.387 3.04-2.614t3.734-2.293q-.054-.533-.48-.747-.374-.213-.8-.373.16-.427.533-.373.427 0 .853.053l.534.107q.266.053.48 0 .373-.64-.374-1.547-.746-.907-1.333-1.44-.107-1.28-.48-2.347t-1.067-1.76q.907-.16 2.187.427 1.28.533 2.293 1.6 1.067 1.067 1.334 2.453 1.173-.8 1.973-1.92.853-1.12 1.867-2.08-.107-.853-.587-1.28-.48-.48-.587-1.333.747-.107 1.76.213 1.014.267 1.974.8.96.534 1.493 1.28zm24.587 5.866q-.267.8-1.12 1.013-.8.16-1.654.427-.853.213-1.226 1.227 0 .906.053 1.973.053 1.013.053 2.133.107 2.72.16 5.76.054 2.987-.266 5.92-.267 2.934-1.12 5.387-.8.427-.96 1.28-.16.8-.854 1.707-.32.426-1.066 1.12-.694.746-1.12.96-.48 0-1.387-.267-.907-.213-1.387-.427-.373-.16-.8-.64-.373-.48-.906-.693-.48-.213-1.067-.16-.533.053-.96-.16-1.547-.747-2.827-2.187t-1.653-2.293q-.533-.107-.96-.373-.427-.32-.533-.907.853.107 1.706.373.854.214 1.707.48 1.44.427 2.88.747 1.493.32 2.987-.213 1.706-.587 2.666-3.04 1.014-2.454 1.387-5.6.427-3.307.213-6.667-.16-3.413-.8-5.653-.053-.214-.16-.32-.053-.16-.16-.32l-.32-.534q-.106-.266-.106-.693-.64.053-1.334.107l-1.386.106-3.307.214q-1.6.106-2.613 0-.8.693-1.974.693-1.12 0-1.92.48.32.427-.16.907-.48.426-.746.586-.054.214.213.214h.32q-.053.106-.213.213l-.32.213-.427.32q-.16.16.053.374-.053.16-.32.48-.32.586-.693 1.333-.32.693-.053 1.387-1.067 0-.907.746-.533.107-.8-.053-.267-.213-.48-.533-.213-.214-.533-.48-.267-.267-.8-.427.853-.907 1.44-2.027.586-1.12 1.493-1.92-.213-.746 0-1.28.213-.586.533-1.12.16-.213.267-.426.16-.267.267-.534.053-.373-.107-.533-.107-.16-.267-.267-.16-.106-.266-.266t-.107-.427l.267.107q.266.053.48.053.853-1.707 1.386-3.68.587-2.027 1.12-4-.693-1.067-1.6-2.293-.853-1.227-.853-2.56 1.44.426 2.987.853 1.546.427 2.666 1.227 1.12.746 1.227 2.346.107.96-.267 1.867-.373.907-.853 1.813-.427.854-.8 1.76-.373.854-.427 1.867 2.24.053 5.227-.053 2.987-.107 5.28-.427.747-.587 1.547-.747.853-.16 1.706 0 1.334.214 2.667.907 1.387.64 2.453 1.067-.16.373-.053.746.16.32.32.587.16.32.267.587.106.266 0 .533M48.58 34.002q-.533 1.014-1.92 1.6t-3.2 1.174q-1.76.533-3.52 1.44-1.707.853-3.253 1.973-1.494 1.12-2.934 1.44-.906.213-1.813-.107t-1.813-1.333q-.107-.16-.427-.587t-.373-.746q-.107-.427.64-.374l-.374.214q1.174.373 2.134.32.96-.054 1.813-.427 1.44-.587 2.773-1.6 1.334-1.067 3.04-1.76 0-.16-.48.053-.213.107-.426.16-.16.054-.214 0 .267-.32.96-.586.747-.32 1.547-.64t1.333-.694q-.213-.586-.586-.96-.374-.426-1.28-.32.053-.213 0-.32-.054-.16-.054-.266-.053-.054-.106-.16-.054-.16 0-.374 2.986-.426 5.013.427 2.08.853 3.52 2.453m10.613 28.374q-.106.746-.533.8-.373.053-.853 0-.214-.054-.427-.054-.213-.053-.427 0-1.546-1.013-2.613-2.56-1.013-1.546-1.813-3.306-.8-1.814-1.76-3.414 1.653.48 3.573 1.44 1.973.907 3.467 2.027.053.64.266 1.12l.427.96q.267.64.48 1.333.267.694.213 1.654m-16.853-.214q-1.92 1.6-3.893 3.094-1.92 1.493-3.574 3.36 1.387.373 2.667.906 1.28.534 2.88.694.8-.854 1.333-2.294.587-1.493.8-3.093t-.213-2.667m-8.213-13.013q-.054.32-.214.373h-.533q.107.64 0 1.067-.107.373-.373.587-1.974-1.227-3.147-3.254-1.173-2.026-2.24-4.16 1.44-.266 2.987.427 1.546.693 2.56 2.027 1.066 1.28.96 2.933"/>
</svg>
