<svg xmlns="http://www.w3.org/2000/svg" viewBox="0 0 100 100">
    <linearGradient id="0_LIONPROMOTED_svg__a" x1="19.181" x2="80.829" y1="52" y2="52" gradientTransform="matrix(1 0 0 -1 0 102)" gradientUnits="userSpaceOnUse">
        <stop offset="0" stop-color="#f9da9c"/>
        <stop offset=".043" stop-color="#fbe0a1"/>
        <stop offset=".067" stop-color="#fce6a6"/>
        <stop offset=".145" stop-color="#f4d593"/>
        <stop offset=".193" stop-color="#f5d797"/>
        <stop offset=".243" stop-color="#f7dda4"/>
        <stop offset=".263" stop-color="#f9e1ab"/>
        <stop offset=".329" stop-color="#f7dfa8"/>
        <stop offset=".383" stop-color="#f2d89e"/>
        <stop offset=".398" stop-color="#efd599"/>
        <stop offset=".461" stop-color="#f2d795"/>
        <stop offset=".462" stop-color="#f2d795"/>
        <stop offset=".527" stop-color="#f2d795"/>
        <stop offset=".538" stop-color="#f2d795"/>
        <stop offset=".538" stop-color="#f2d795"/>
        <stop offset=".615" stop-color="#efda9c"/>
        <stop offset=".735" stop-color="#f6e5ad"/>
        <stop offset=".773" stop-color="#f9e9b4"/>
        <stop offset=".822" stop-color="#f7e1a6"/>
        <stop offset=".887" stop-color="#f5db9b"/>
        <stop offset=".956" stop-color="#f4d997"/>
        <stop offset=".967" stop-color="#f4da9c"/>
        <stop offset="1" stop-color="#f4db9e"/>
    </linearGradient>
    <path fill="url(#0_LIONPROMOTED_svg__a)" stroke="#63451a" stroke-miterlimit="10" stroke-width=".954" d="M77.6 15.4 50 5.8l-27.6 9.6-10.6 72.1v6.7h76.4v-6.7z"/>
    <path fill="#63451a" fill-opacity=".75" d="M12.3 87.5h75.4v6.2H12.3z"/>
    <path fill="#a00" d="M78.723 47.617q-.058.933-.991 1.4t-2.1.64q-.524 1.575-.466 3.558.117 1.924.35 4.024.058.466.058.991l.117.933q.233 2.566.058 5.074-.175 2.449-1.516 4.315-1.4.175-2.8-.525-1.34-.7-2.39-1.808-.991-1.108-1.458-2.099-.058 1.4-.117 3.499 0 2.04-.175 4.315-.116 2.274-.466 4.374-.292 2.157-.933 3.674-.175.408-.583.466-.35.117-.467-.466-.466-2.45-.7-5.482-.175-2.974-.175-6.006v-7.057q.059-3.09.059-6.298t-.233-6.59q-.409 0-.817.06-.35 0-.7.116l-.816.116q-.408.059-.933 0 .175 1.458.175 2.8v4.84q.058 1.108.233 2.274-.408 1.283-.466 2.333-.059.991-.059 2.04 0 .992-.058 2.1-.058 1.05-.35 2.45-.292-.117-.583.057-.233.175-.467.175-.7-.816-1.457-1.574-.7-.816-1.692-1.341.117-.234.117-.525t-.058-.642q-.059-.233-.117-.524v-.642q.292 0 .583-.117l.233-.116q.175-.058.409 0 .583-2.8.583-5.773t-.117-5.365v-.583q-.583-.817-1.341-1.458-.7-.642-1.283-1.458.117-.175.467-.408.233-.175.35-.35.174-.175-.117-.642.583-.291 1.516-.291.991-.059 2.041 0 1.225 0 2.45-.059t2.157-.408q0-.583-.117-1.924-.058-1.341-.233-2.741t-.525-2.1q-1.516.526-3.207.35t-3.033-1.05-1.807-2.448q3.674-.467 7.29-.467t7.405-.291q.642-.525 1.866-.584t2.508.292q1.283.292 2.099.991.816.642.7 1.517-1.167.7-2.391.816t-2.566.058q-1.283-.058-2.566 0t-2.624.583q.933.759 1.05 2.158.175 1.341.175 3.207v1.517q.758.174 1.807-.117 1.05-.35 1.458-.933 2.275.35 4.374 1.224 2.158.875 3.382 1.925m-21.168-6.998q0 .233-.058.408 0 .117-.117.234l-.117.35q-.058.116 0 .408-1.283.408-1.924 1.4-.583.99-.875 2.332-.408 1.69-.525 3.615-.116 1.866-.641 3.208-2.333.524-4.315.583t-4.607.641l.116 2.974q1.633-.116 3.033-.408 1.458-.35 2.216-1.283 1.924-.466 3.848.35t3.266 2.216q.117 1.283-.466 1.633-.175-.175-.525-.058l-.35.116q-.175 0-.408-.058-.117 1.166-.292 3.324-.175 2.1-.583 4.257t-1.225 3.557q-1.166-.233-2.682 0-1.516.175-2.974.466l-1.167.234q-.524.058-.99.116-.35.117-.467.525-.059.35-.234.642-1.574-.583-2.566-1.75-.99-1.224-1.749-2.682.758-.933.758-2.158.058-1.283.058-2.45.059-1.165.7-1.749-.408-.291-.466-.7t-.059-.874q0-.408-.058-.758-.058-.408-.408-.642.175-.233.291-.524.117-.35.234-.642-.234-1.225-.234-2.566 0-1.4.059-2.857.058-1.691.058-3.382 0-1.75-.35-3.5-.175-.874-.758-1.516l-1.05-1.282q-.466-.642-.524-1.517.524-.35.99-.35.467-.058.934 0h.816q.467 0 .933-.291.933-.583 1.517-1.808t1.108-2.566 1.224-2.274q-.466-.816-.875-1.75-.35-.99-1.05-1.574.117-.408.35-.641t.35-.584q1.05.292 2.391.759 1.4.466 2.45 1.224 1.05.7 1.108 1.866-1.342 1.633-2.508 3.616-1.108 1.924-2.624 3.44.933.059 1.808-.233.933-.291 1.866-.641 1.05-.409 2.1-.7t2.215 0q.875.758 2.041 1.108 1.225.291 1.983 1.166m-16.562-7.756q-.058.467-.874 1.4-.758.875-1.225 1.224-.991.759-2.1 1.342-1.049.583-1.69 1.574.641 1.166 1.458 2.158.816.933 1.4 2.1-.234 1.34-.234 2.215t.35 2.158q-.234 1.866-.117 4.082.117 2.157.292 4.548.058.467.058.992.058.466.117.991.233 2.8.291 5.832t-.35 6.123q-.175 1.457-.933 3.324t-1.75 2.974q-.582.583-1.165.816-.584.292-1.225-.058-.233-.175-.35-.583t-.408-.584q-.525-.35-1.225-.466-.641-.058-1.166-.467-.933-.7-1.633-1.75-.641-1.049-1.4-2.157 0-.175.234-.291.233-.059.116-.292l-.058-.058q-.233-.117-.525-.35-.233-.233-.175-.583.817.525 1.983 1.108 1.225.525 2.39.7t1.867-.35q.7-.584 1.05-1.866t.466-2.858q.175-1.574.292-2.857.291-3.324.408-6.473.117-3.208-.467-5.015-1.282 1.166-2.216 2.682t-1.924 3.033q-.991 1.457-2.39 2.565-.7 1.167-1.167 2.158-.408.991-1.05 1.808-.583.758-1.866 1.4-.116-.526-.7-.817-.524-.292-1.108-.583-.524-.292-.7-.817.817-.466 1.284-1.05.466-.64 1.457-1.224 0-.291.292-.875t.408-.7q.059-.058.233 0 .292.059.35-.058.467-.525.992-1.633t1.108-2.274q.641-1.166 1.224-1.866.117-.117.35-.117.292 0 .35-.116.117-.117.058-.408 0-.35.117-.584.292-.524.816-.99.584-.467.759-.817.874-1.516 1.69-3.324t.759-2.683q-.059-1.224-.408-1.75-.35-.582-.817-.64-1.166-.117-2.1 1.632-.116 0-.582.175-.409.175-.758.408-.292.234-.117.467-.583 1.166-1.866 1.458t-2.508.116q-1.224-.233-1.75-.408 1.517-.758 2.508-1.633 1.05-.874 2.158-1.924 1.108-1.108 2.8-2.39-.234-.292.116-.642.175-.117.291-.292t.117-.466q-.583-1.342-1.808-2.333-1.166-.991-2.157-2.041-.642-.7-1.108-1.516t-.584-1.925q2.1 1.108 3.79 2.683 1.75 1.574 3.5 3.09 1.05-.583 1.633-1.574.583-1.05 1.34-1.866-.29-.758-.874-1.166l-1.05-.817q-.466-.466-.7-1.283.7.175.526-.641.466.116.99.233.584.117 1.225.175 1.283.233 2.566.583 1.342.292 2.1.992.816.641.7 1.982m9.388 35.047v-.35q.058-.174.058-.35.117-1.457.117-2.624.058-1.224 0-2.565 0-1.4-.233-3.383-1.108.234-2.683.584-1.516.291-3.09.524v.117q-.059 2.158-.059 4.257 0 2.041.059 4.14.583 0 1.166-.058.641-.117 1.166-.292.933-.175 1.808-.233.875-.116 1.691.233m20.469-5.248q.524-2.274.524-4.957 0-2.74-.35-5.306t-.874-4.374l-2.391.058q-.175 1.866-.292 4.374-.058 2.508-.058 5.015.058 2.45.117 4.257.641.408 1.574.583.933.117 1.75.35M49.974 41.96q-1.866.117-3.15.409t-2.682.933q.117.874.117 1.749.058.875.058 1.808v1.924q0 .992.175 2.041 2.45.175 5.307-.7.35-.99.408-2.565.117-1.575 0-3.15-.058-1.574-.233-2.449"/>
</svg>
