<svg xmlns="http://www.w3.org/2000/svg" xml:space="preserve" viewBox="0 0 100 100">
    <linearGradient id="0_OX_svg__a" x1="23.313" x2="76.671" y1="52" y2="52" gradientTransform="matrix(1 0 0 -1 0 102)" gradientUnits="userSpaceOnUse">
        <stop offset="0" stop-color="#f9da9c"/>
        <stop offset=".043" stop-color="#fbe0a1"/>
        <stop offset=".067" stop-color="#fce6a6"/>
        <stop offset=".145" stop-color="#f4d593"/>
        <stop offset=".193" stop-color="#f5d797"/>
        <stop offset=".243" stop-color="#f7dda4"/>
        <stop offset=".263" stop-color="#f9e1ab"/>
        <stop offset=".329" stop-color="#f7dfa8"/>
        <stop offset=".383" stop-color="#f2d89e"/>
        <stop offset=".398" stop-color="#efd599"/>
        <stop offset=".461" stop-color="#f2d795"/>
        <stop offset=".462" stop-color="#f2d795"/>
        <stop offset=".527" stop-color="#f2d795"/>
        <stop offset=".538" stop-color="#f2d795"/>
        <stop offset=".538" stop-color="#f2d795"/>
        <stop offset=".615" stop-color="#efda9c"/>
        <stop offset=".735" stop-color="#f6e5ad"/>
        <stop offset=".773" stop-color="#f9e9b4"/>
        <stop offset=".822" stop-color="#f7e1a6"/>
        <stop offset=".887" stop-color="#f5db9b"/>
        <stop offset=".956" stop-color="#f4d997"/>
        <stop offset=".967" stop-color="#f4da9c"/>
        <stop offset="1" stop-color="#f4db9e"/>
    </linearGradient>
    <path fill="url(#0_OX_svg__a)" stroke="#63451a" stroke-miterlimit="10" stroke-width=".922" d="M74.5 17.5 50 8.6l-24.5 8.9-9.4 66.6v7.3h67.8v-7.3z"/>
    <path fill="#63451a" fill-opacity=".75" d="M16.6 84.1h66.8v6.8H16.6z"/>
    <path fill="#a00" d="M73.157 55.991q-.053.476-.477.582-.423.106-.476.582-1.058-.053-2.063-.106l-2.01-.106q-4.443-.264-8.198-.317-3.756-.106-7.141.423v1.481q-.053 1.323-.053 2.75 0 1.43.264 2.804-.317.16-.37 1.058-.053.9-.106 2.169 0 1.587-.158 3.385-.159 1.799-.74 3.227-.53 1.481-1.746 2.01-1.217-3.967-1.376-8.093-.158-4.179-.105-9.045v-1.693q-3.227.212-6.348.265-3.068.053-5.66.899-1.216.37-1.64.688t-.793.423-1.11-.159q-.688-.317-2.645-1.27-.16-.952-.794-1.375-.635-.423-1.27-.899-.581-.476-.687-1.428.9-.212 1.851-.159 1.005 0 2.01.053.952.106 1.957.159 1.005 0 2.063-.159 1.746-.264 4.02-.423 2.275-.212 4.655-.317t4.443-.212v-1.322q0-.794-.052-1.746 0-1.217-.053-2.645v-3.12q-1.64.211-3.756.37-2.063.158-3.597.105-1.164 1.323-2.274 2.804-1.058 1.428-2.434 2.592-.37 0-.687-.053l-.635-.212q-.582-.158-1.164-.211-.529-.053-1.216.317 1.798-2.75 3.332-5.66 1.587-2.962 2.91-6.188-.37-1.217-1.323-1.746-.952-.582-1.798-1.587 2.274-1.11 4.549-.582 2.327.476 3.544 1.852.053.899-.212 1.745-.212.847-.529 1.746-.159.317-.317.687l-.212.74q.423.107 1.481.107 1.111-.053 2.328-.159 1.216-.159 1.904-.212.37-2.221 0-4.866-.318-2.645-1.111-4.866-.793-2.275-1.904-3.386.211.053.476.053l.635-.105q.529-.053 1.005-.106.529-.053.952.106.529.211 1.48.846.953.582 1.958 1.428 1.058.793 1.798 1.746.74.899.847 1.692.053.688-.159 1.481-.212.74-.476 1.534-.317.952-.635 2.01-.264 1.005-.211 2.169.687.212 1.904.106 1.27-.106 2.433-.53 1.164-.422 1.481-1.11 1.851.423 3.65 1.058t2.698 2.063q-1.164.899-2.857 1.322-1.64.37-3.438.476t-3.385.159q-.688 0-1.323.053-.634 0-1.163.053-.16.793-.16 2.168v2.857q.054 1.48.107 2.592v.634q.053.265.053.476 2.168.106 3.596.16 1.429.052 2.804.052 1.428-.053 3.438-.159.106-.37.37-.581.318-.212.582-.424 1.64 0 3.491.424 1.852.423 3.491 1.322 1.64.9 2.487 2.274"/>
</svg>
