<svg xmlns="http://www.w3.org/2000/svg" xml:space="preserve" viewBox="0 0 100 100">
    <linearGradient id="0_PAWN_svg__a" x1="27.382" x2="76.327" y1="-846" y2="-846" gradientTransform="matrix(1 0 0 -1 0 -796)" gradientUnits="userSpaceOnUse">
        <stop offset="0" stop-color="#f9da9c"/>
        <stop offset=".043" stop-color="#fbe0a1"/>
        <stop offset=".067" stop-color="#fce6a6"/>
        <stop offset=".145" stop-color="#f4d593"/>
        <stop offset=".193" stop-color="#f5d797"/>
        <stop offset=".243" stop-color="#f7dda4"/>
        <stop offset=".263" stop-color="#f9e1ab"/>
        <stop offset=".329" stop-color="#f7dfa8"/>
        <stop offset=".383" stop-color="#f2d89e"/>
        <stop offset=".398" stop-color="#efd599"/>
        <stop offset=".461" stop-color="#f2d795"/>
        <stop offset=".462" stop-color="#f2d795"/>
        <stop offset=".527" stop-color="#f2d795"/>
        <stop offset=".538" stop-color="#f2d795"/>
        <stop offset=".538" stop-color="#f2d795"/>
        <stop offset=".615" stop-color="#efda9c"/>
        <stop offset=".735" stop-color="#f6e5ad"/>
        <stop offset=".773" stop-color="#f9e9b4"/>
        <stop offset=".822" stop-color="#f7e1a6"/>
        <stop offset=".887" stop-color="#f5db9b"/>
        <stop offset=".956" stop-color="#f4d997"/>
        <stop offset=".967" stop-color="#f4da9c"/>
        <stop offset="1" stop-color="#f4db9e"/>
    </linearGradient>
    <path fill="url(#0_PAWN_svg__a)" stroke="#63451a" stroke-miterlimit="10" stroke-width=".944" d="M72.6 21.1 50 12.9l-22.6 8.2-8.7 61v5h62.6v-5z"/>
    <path fill="#63451a" d="M19.2 82.1h61.6v4.5H19.2z" opacity=".75"/>
    <path d="M70.654 46.75q0 .1.05.351t.05.452q0 .151-.25.252-1.86.351-3.619.904-1.708-.402-3.97-.352-2.21 0-4.623.1-1.507.101-3.015.152t-2.965 0q.252.452.603.703.402.251.855.503-.503 1.256-.704 2.562-.15 1.307-.15 2.613v1.106q.05.502.05 1.055.1 1.759 0 3.417-.05 1.659-.804 3.216.703-.301.854-.954t.2-1.156q.905-.553 1.91-1.91t1.81-2.713q-.05-.252-.151-.402-.1-.201-.252-.352-.2-.251-.351-.553-.1-.301.2-.754 2.06-.1 3.82.955 1.809 1.005 2.16 2.613-1.557 1.608-3.065 3.367-1.457 1.709-3.115 3.317-1.659 1.557-3.77 2.713-1.004 1.256-2.512 2.412-1.457 1.106-3.367 1.86-.653.351-1.356.753-.654.402-1.307.854-2.06 1.257-4.22 2.312t-4.724.804q.05-.201.351-.201h.352q-.1-.05-.251-.15-.352-.151-.653-.302-.302-.1-.704-.05 0-.302-.352-.402-.15-.05-.301-.201-.1-.101-.1-.402.954-.101 1.758-.604l1.709-1.005q.904-.502 1.91-.603-.152.352-.554.503-.402.201-.703.402.352.201.603.05.301-.15.653-.352.251-.2.603-.402t.854-.2q.05-.202-.15-.453-.151-.15-.05-.251.1-.05.25-.15l.302-.202q.553-.352 1.055-.603.503-.301.553.05.251-.1.704-.301.502-.251.15-.553 1.659-1.608 3.618-2.864 2.01-1.307 3.669-2.864.251 0 .1.2-.05.101-.05.151t.352 0q.15-.05.15-.301v-.201q-1.96.1-3.366-.854-1.357-.955-2.262-2.412-.854-1.508-1.306-2.915 1.206.502 2.412.754 1.256.251 2.663.2.855-2.11.654-4.924-.151-2.864-.855-5.377-2.412.151-4.673.302-2.211.15-4.12.653t-3.418 1.709q-.954-.754-2.16-1.458-1.156-.703-2.111-1.557-.905-.855-1.206-1.96.452-.1.754 0 .351.05.653.15.402.151.754.202t.754-.252q.402.1.502.453.15.351.603.402.955-1.056 3.216-.905l-.402-2.11-.402-2.212q-1.206-.703-2.01-1.809t-1.457-2.361q.603-.201 1.859 0 1.307.2 2.613.703 1.307.452 1.86 1.156t.703 1.658q.15.905.2 1.91 0 .603.051 1.206t.201 1.105q1.156.252 2.211.201 1.055-.1 2.161-.251.653-.1 1.357-.15.703-.101 1.457-.101.352-.754.402-1.608.05-.905.05-1.81-.05-.452-.05-.904t.05-.904q-.502-.201-1.256-.654-.704-.452-1.106-1.055.804-.05 1.307-.1.553-.05 1.055-.1 0-.403-.05-.704t-.15-.603-.202-.654q-.05-.351 0-.804-1.005-1.005-1.96-2.11-.954-1.156-1.206-2.563.352.05.603 0 .302-.05.553-.1.201-.05.402-.05.201-.05.452-.05 1.005 0 1.86.502.854.452 1.658.954.804.453 1.558.553.754.955.703 1.96 0 1.005-.25 2.311l-.101.503q-.05.2-.1.452 2.713-.653 5.677-.603 3.015 0 5.327 1.457-1.055 1.106-2.864 1.508-1.76.352-3.87.502-2.11.101-4.22.603-.151.955-.252 1.96-.05 1.005-.402 1.709h2.211q2.01.05 4.322-.05t3.869-.955q2.312.251 4.422.754 2.11.452 3.568 1.557M43.267 56.6q-1.055.401-2.16 1.406-1.056 1.005-2.111 2.111-1.005 1.106-1.96 1.809-.352.302-.955.603t-.854.302q-1.005.05-1.357-.603-.301-.704-.301-1.659v-.804q.05-.452.1-.854.05-.653.05-1.256.05-.603 0-1.106.453 0 1.056-.703 1.658.301 2.663-.302 1.005-.653 1.91-1.457.552-.503 1.105-.955.603-.452 1.307-.703.552.402.703 1.206.201.753.302 1.557.15.804.502 1.407m25.729 1.156q.402 1.055.05 1.96-.302.905-.704 1.357-2.311-.603-4.02-2.06-1.658-1.458-3.166-3.217-1.457-1.809-3.216-3.266v-.553q3.568.1 6.533 1.608 3.015 1.508 4.523 4.171M40.252 73.382q-1.156.251-1.608.905.452-.201.905-.352.502-.15.703-.553m7.286-5.88q-.301.051-.753.353-.402.301-.1.552.2-.25.451-.402.302-.15.402-.502"/>
</svg>
