<svg xmlns="http://www.w3.org/2000/svg" viewBox="0 0 100 100">
    <linearGradient id="0_PHOENIX_svg__a" x1="19.181" x2="80.829" y1="52" y2="52" gradientTransform="matrix(1 0 0 -1 0 102)" gradientUnits="userSpaceOnUse">
        <stop offset="0" stop-color="#f9da9c"/>
        <stop offset=".043" stop-color="#fbe0a1"/>
        <stop offset=".067" stop-color="#fce6a6"/>
        <stop offset=".145" stop-color="#f4d593"/>
        <stop offset=".193" stop-color="#f5d797"/>
        <stop offset=".243" stop-color="#f7dda4"/>
        <stop offset=".263" stop-color="#f9e1ab"/>
        <stop offset=".329" stop-color="#f7dfa8"/>
        <stop offset=".383" stop-color="#f2d89e"/>
        <stop offset=".398" stop-color="#efd599"/>
        <stop offset=".461" stop-color="#f2d795"/>
        <stop offset=".615" stop-color="#efda9c"/>
        <stop offset=".735" stop-color="#f6e5ad"/>
        <stop offset=".773" stop-color="#f9e9b4"/>
        <stop offset=".822" stop-color="#f7e1a6"/>
        <stop offset=".887" stop-color="#f5db9b"/>
        <stop offset=".956" stop-color="#f4d997"/>
        <stop offset=".967" stop-color="#f4da9c"/>
        <stop offset="1" stop-color="#f4db9e"/>
    </linearGradient>
    <path fill="url(#0_PHOENIX_svg__a)" stroke="#63451a" stroke-miterlimit="10" stroke-width=".954" d="M77.6 15.4 50 5.8l-27.6 9.6-10.6 72.1v6.7h76.4v-6.7z"/>
    <path fill="#63451a" fill-opacity=".75" d="M12.3 87.5h75.4v6.2H12.3z"/>
    <path d="M79.656 71.351q-.875 3.032-2.74 4.432-1.867 1.458-4.9.7-2.565-.7-4.256-2.216-1.633-1.516-2.8-3.616-1.107-2.157-2.157-4.665-.291.117-.758.35t-.758.35q-.525 1.458-.408 3.324.116 1.808-.408 3.44-.35 1.225-1.283 2.683-.933 1.516-2.158 2.507-1.225 1.05-2.624.933-.35-.058-.7-.408-.292-.35-.7-.525t-.991-.233q-.525-.058-.991-.35-1.167-.7-1.983-1.866t-1.458-2.39q-.991-.584-2.216-1.109 1.108-.408 2.1-.175t1.982.642l1.633.583q.875.233 1.75.058 1.34-.233 2.215-1.633t1.225-3.382.175-3.965q-2.1-.408-4.49-.35t-4.724.233l-1.4.117q-.64 0-1.282.058h-.817q-.816 0-1.516.117-.7.058-1.108.583-.875-.175-2.1-.35t-2.274-.642q-.99-.466-1.282-1.516 1.166-.291 1.924-.408.816-.175 2.1-.175-.584-.758-1.4-1.341-.758-.583-1.4-1.341.933-2.45 1.05-4.84.175-2.45.116-4.666 0-.816-.058-1.574 0-.817.058-1.575-.233-.816-.99-1.108-.7-.35-.817-1.224.816-.642 2.157-.875 1.4-.233 2.683-.641.933-.292 1.75-.933t.874-1.575q-2.041.058-3.849-.466-1.75-.525-3.149-1.05-.291-.117-.583-.175l-.466-.233q1.4-.992 3.615-1.4t4.665-.525q2.508-.175 4.782-.35 2.274-.233 3.907-.816 1.575.35 2.916.583 1.4.233 2.507.758.7.583.584 1.341-.117.7-.35.992-2.8.233-5.19.35-2.391.058-5.132.408v.408q.058.117.117.292.116.175.116.35.059.175 0 .466-.7-.117-.991.175-.292.233-.467.583.175.233 1.167.292t2.099-.117 1.574-.525q2.566.175 4.257.642 1.75.466 3.85 1.458.232-2.741.64-5.307.467-2.566.759-5.248-3.09-.292-6.59-.117t-6.998.408l-.816.117h-.758q-1.983.116-4.49.291-2.45.117-4.49.7-2.042.525-2.916 1.866.991 5.132.758 11.022-.233 5.831-1.575 11.838-.874 3.848-1.807 7.464t-2.625 6.181q-.408.642-1.108 1.05-.641.408-1.34.875-.176-.175-.409-.234h-.467q-.35 0-.7-.116-.29-.058-.408-.642 2.275-5.19 3.908-10.904 1.69-5.774 2.216-12.013.583-6.298-.467-13.18-.758-.7-1.516-1.282-.758-.642-2.333-.817-.116-.291-.058-.466.058-.234.117-.409.116-.233.174-.466.059-.292-.058-.758.525-.175.875-.175.408-.058.758-.058h.233q1.341-.758 3.44-1.342 2.158-.583 4.666-.933 2.566-.408 5.132-.641 2.566-.292 4.723-.35 4.082-.175 8.398-.233 4.315-.117 7.989-.35.175 0 .116-.35-.175-.35.059-.408 1.34-.059 2.332.233t1.983.641q.758.292 1.574.584.875.291 1.983.466 0 .583.525.875t1.225.525 1.108.7q-.409.64-.292 1.166t-.525.991q-.7-.117-1.283.058-.525.175-1.05.409l-.933.35q-.466.116-.99-.059-.584.233-1.109.642-.466.35-1.108.524-1.108 1.458-1.574 4.024t-.467 5.598q0 4.2.642 8.69t1.574 7.814q.292 1.05.875 2.74.641 1.691 1.691 2.741.583.583 1.225.817.7.174 1.457-.175.642-.292.992-.933.408-.642.525-1.458.175-1.05.116-2.275 0-1.283-.116-2.39 0-.35-.059-.7v-.7q.292 0 .35.291t.059.642v.466q0 .234.174.35.234.059.175-.233 0-.291-.175-.583.409-.117.642.466.292.525.466 1.4.175.816.234 1.575.058.7.058.99.292-.057.35-.407t.117-.758v-.642q.058-.291.174-.466.817.466 1.167 1.108t.233 1.166q.292.117.292-.408v-.467q.058-.233.291-.291.059.175.059.466.058.642.35.525.116.816.524 2.45.467 1.574 1.283 2.565m-17.32-7.872q-1.399-3.79-1.865-8.281-.467-4.549-.759-9.447-.583.058-1.107.233t-1.167.175q-.35.933-.408 2.333v2.857q0 1.458-.292 2.683-.233.874-.758 1.516-.466.641-1.34.816-.584.117-1.167.058l-1.05-.233q-.291-.058-.641-.116l-.583-.117q-1.225-.117-2.391 0t-2.391.291q-1.225.117-2.508.234-1.224.116-2.624.058v1.516q1.75.117 3.616 0t3.673-.291q1.4-.117 2.741-.234t2.566-.116q2.274 0 4.14.583 1.925.525 3.091 2.216-2.566-.292-5.482-.175-2.857.117-5.714.292-2.216.116-4.316.233t-3.907 0q-.116.758.233 1.516.817-.058 1.983-.058t2.45.058h3.906q1.983 0 3.383-.175.466-.058.758-.292.35-.291.816-.291 1.4 0 2.566.525 1.225.525 2.333 1.05 1.166.524 2.216.583M52.19 49.016q0-.116.058-.408.117-.641.175-1.75t-.408-1.632q-2.683.408-5.482.583t-5.015.758q.059.525.059 1.167t.116 1.107q.233 0 .467-.058t.466-.058q2.391-.292 5.015-.467t4.549.758m-.408 4.432q.116-.466.291-1.4.175-.99-.291-1.457-2.275.35-4.957.525-2.683.116-5.307.641-.116.525-.175 1.167-.058.583-.058.933 1.108-.059 2.041-.117.991-.058 1.924-.117 1.692-.175 3.266-.233t3.266.058m-13.704 19.42q-.117.64-.7.816-.525.175-1.108.35-.816-.875-1.866-1.925t-1.75-2.158q-.524-.816-.7-1.632-.174-.875.234-1.633 1.341.35 2.682 1.108 1.342.7 2.275 1.924t.933 3.15m6.648-1.167q-.117.466-.467.525-.292.058-.583.058-.642-.058-.758.175-1.341-.583-2.216-1.633t-2.041-1.808q.408-.408.35-.816t-.175-.758-.175-.583q0-.292.233-.525 2.391.525 3.907 1.75t1.925 3.615m5.248-1.808q0 .875-.583 1.633-.292-.233-.7-.408-.35-.175-.758-.35-.875-.408-1.516-.817t-.467-1.108q-.758-.233-.875-1.05-.116-.874-.758-1.457.292-.117.642-.117.35-.058.7-.058 1.632.058 2.915 1.225 1.342 1.108 1.4 2.507m4.665.642q-1.924.175-3.09-1.225t-1.575-3.149q1.225-.35 2.507.175t1.983 1.633.175 2.566"/>
</svg>
