<svg xmlns="http://www.w3.org/2000/svg" viewBox="0 0 100 100">
    <linearGradient id="0_PRINCE_svg__a" x1="19.181" x2="80.829" y1="52" y2="52" gradientTransform="matrix(1 0 0 -1 0 102)" gradientUnits="userSpaceOnUse">
        <stop offset="0" stop-color="#f9da9c"/>
        <stop offset=".043" stop-color="#fbe0a1"/>
        <stop offset=".067" stop-color="#fce6a6"/>
        <stop offset=".145" stop-color="#f4d593"/>
        <stop offset=".193" stop-color="#f5d797"/>
        <stop offset=".243" stop-color="#f7dda4"/>
        <stop offset=".263" stop-color="#f9e1ab"/>
        <stop offset=".329" stop-color="#f7dfa8"/>
        <stop offset=".383" stop-color="#f2d89e"/>
        <stop offset=".398" stop-color="#efd599"/>
        <stop offset=".461" stop-color="#f2d795"/>
        <stop offset=".462" stop-color="#f2d795"/>
        <stop offset=".527" stop-color="#f2d795"/>
        <stop offset=".538" stop-color="#f2d795"/>
        <stop offset=".538" stop-color="#f2d795"/>
        <stop offset=".615" stop-color="#efda9c"/>
        <stop offset=".735" stop-color="#f6e5ad"/>
        <stop offset=".773" stop-color="#f9e9b4"/>
        <stop offset=".822" stop-color="#f7e1a6"/>
        <stop offset=".887" stop-color="#f5db9b"/>
        <stop offset=".956" stop-color="#f4d997"/>
        <stop offset=".967" stop-color="#f4da9c"/>
        <stop offset="1" stop-color="#f4db9e"/>
    </linearGradient>
    <path fill="url(#0_PRINCE_svg__a)" stroke="#63451a" stroke-miterlimit="10" stroke-width=".954" d="M77.6 15.4 50 5.8l-27.6 9.6-10.6 72.1v6.7h76.4v-6.7z"/>
    <path fill="#63451a" fill-opacity=".75" d="M12.3 87.5h75.4v6.2H12.3z"/>
    <path fill="#a00" d="M76.857 71.643q0 1.108-.816 1.924-.758.816-1.866 1.283-1.05.525-1.867.641-2.332.292-4.723-.35-2.333-.641-4.024-2.04t-2.157-3.266q-.7-.7-1.167-1.691-.408-.992-.874-1.925-.409-.991-1.283-1.516-.642-2.04-1.866-4.082t-2.275-3.965q-.991-1.866-1.982-3.616-.992-1.808-2.158-3.382-.933 2.274-1.691 4.723-.7 2.45-1.575 4.782-.816 2.333-2.099 4.316.058.641.408.7.408 0 .933-.117h.117q.466.583 1.691 1.166 1.283.525 2.682 1.225t2.1 1.866q.7 1.05.933 2.39.233 1.283-.292 2.275-.466.991-1.924 1.166-2.974-1.05-4.49-3.615t-2.683-5.599q-.466.234-.7.875-.233.583-.874.583-.7 1.925-2.391 3.616-1.633 1.633-3.674 3.09-1.983 1.4-3.79 2.625-.467-.059-.875-.117-.408 0-.758-.058-.817-.059-1.575-.117-.7-.058-1.458 0-.116-.175.059-.7.058-.175.116-.408.059-.175 0-.35-.291.175-.758.175.058.175.292.292l.233.116q-.408.059-.7 0t-.525-.116q-.291-.059-.641-.117-.35 0-.875.117l.408-.583q.409-.584.758-.292 1.517-.641 2.8-.991 1.34-.35 2.157-1.808 1.225-.35 2.1-1.166l1.69-1.692q.817-.874 1.75-1.166v-1.05q1.983-1.69 3.324-4.082t2.974-4.373q.292-2.216 1.108-3.907.817-1.75 1.108-4.024-2.682 0-5.54.467t-5.423.874q-1.575-1.516-3.15-3.207-1.515-1.691-1.807-4.082 1.108-.233 1.925.175.874.35 1.69.816.526.35 1.05.642.584.233 1.167.35 1.574.291 3.149.116t3.265-.408q1.05-.175 2.216-.292 1.167-.174 2.391-.233.7-3.382 0-6.356-.7-3.032-1.574-5.832-.409-1.05-.758-2.099-.292-1.108-.525-2.158.583-.175 1.866.467 1.341.583 2.74 1.516 1.4.875 2.042 1.691.116.117.175.292l.116.35q.058.35.175.583.175.233.583.175.525 2.799.292 5.365-.175 2.566-.758 5.306 2.682.117 5.54-.175 2.915-.35 5.656-.758.7-.116 1.4-.175l1.4-.233q1.107.583 2.274 1.108 1.224.525 2.216 1.283t1.4 2.1q-4.025.874-8.69 1.107-4.607.234-9.272.467 1.75 1.574 3.15 3.499 1.457 1.924 3.032 3.674 1.632 1.75 3.79 2.857 1.283 1.75 3.032 3.032 1.808 1.283 3.732 2.45 1.983 1.108 3.791 2.449.758.525 1.05 1.108.35.583.991 1.341.525.642 1.166 1.225.7.583.7 1.458"/>
</svg>
