<svg xmlns="http://www.w3.org/2000/svg" viewBox="0 0 100 100">
    <linearGradient id="0_QUEEN_svg__a" x1="19.181" x2="80.829" y1="52" y2="52" gradientTransform="matrix(1 0 0 -1 0 102)" gradientUnits="userSpaceOnUse">
        <stop offset="0" stop-color="#f9da9c"/>
        <stop offset=".043" stop-color="#fbe0a1"/>
        <stop offset=".067" stop-color="#fce6a6"/>
        <stop offset=".145" stop-color="#f4d593"/>
        <stop offset=".193" stop-color="#f5d797"/>
        <stop offset=".243" stop-color="#f7dda4"/>
        <stop offset=".263" stop-color="#f9e1ab"/>
        <stop offset=".329" stop-color="#f7dfa8"/>
        <stop offset=".383" stop-color="#f2d89e"/>
        <stop offset=".398" stop-color="#efd599"/>
        <stop offset=".461" stop-color="#f2d795"/>
        <stop offset=".615" stop-color="#efda9c"/>
        <stop offset=".735" stop-color="#f6e5ad"/>
        <stop offset=".773" stop-color="#f9e9b4"/>
        <stop offset=".822" stop-color="#f7e1a6"/>
        <stop offset=".887" stop-color="#f5db9b"/>
        <stop offset=".956" stop-color="#f4d997"/>
        <stop offset=".967" stop-color="#f4da9c"/>
        <stop offset="1" stop-color="#f4db9e"/>
    </linearGradient>
    <path fill="url(#0_QUEEN_svg__a)" stroke="#63451a" stroke-miterlimit="10" stroke-width=".954" d="M77.6 15.4 50 5.8l-27.6 9.6-10.6 72.1v6.7h76.4v-6.7z"/>
    <path fill="#63451a" fill-opacity=".75" d="M12.3 87.5h75.4v6.2H12.3z"/>
    <path d="M76.507 57.122q-.116.233-.116.467v.408q0 .175-.059.466 0 .234-.058.584-.408.408-1.166.641-.7.175-1.108.642-2.683-.175-5.074-.759-2.332-.641-3.674-1.807-.816-.758-1.69-2.216-.817-1.458-2.158-2.216-1.05.233-2.1.35-.991.058-1.982.058-1.342 0-2.625.175-1.283.117-2.507.7.291 1.982-.175 3.907t-1.866 2.857q-1.05-.175-1.516-1.05-.409-.874-.467-2.04t0-2.275v-.991q-.7-.467-1.574-.525-.875-.117-1.808-.117h-.292q-1.108 0-2.157-.291t-1.633-1.4q-.991.875-1.691 1.575-.7.641-1.225 1.633-.641-.234-.816-.059-.175.117-.292.408t-.35.525q-.175.234-.758.175 0 .35-.175.467-.116.116-.408.233-.117.058-.292.175-.174.058-.291.175-.583.466-1.108 1.05t-1.225 1.05q-.291.699-1.283 1.107-.933.408-2.157.525t-2.333.058q.175-.291.35-.291t.408.058q.117 0 .292.058h.35q-.117-.466-.35-.466-.175-.058-.467.058-.35.117-.583.175-.291-.175-.641-.116-.292 0-.583.058-.234.058-.525.116-.234 0-.467-.058 0-.525.817-.7.874-.233 1.69-.466.875-.233.875-.758.234.233.875.233.642-.641 1.108-1.458.525-.816 1.808-.875-.058-.35.058-.583l.175-.233q.408.233.642.117t.466-.292q.175-.175.35-.291.233-.175.583-.175-.058-.35-.408-.292-.233.058-.292-.175.175-.35.35-.292.234 0 .467.117l.35.175q.058-.292-.175-.408t-.467-.175-.291-.058q.233-.292.7-.234.524.059.64-.35 0-.233-.232-.116-.117.116-.292.175-.117.058-.35-.059.933-.99 1.866-1.924.992-.933 2.158-1.691.117-1.516 1.166-3.032t2.274-3.15 1.75-3.382q-.7-.291-1.75-.116-.99.175-2.04.466-.992.292-1.925.467t-1.691.058q.058-.875-.467-1.458-.524-.641-1.166-1.224-.7-.642-1.341-1.342-.642-.758-.642-1.924.817-.175 1.633.058.875.234 1.75.525l1.283.467q.7.175 1.4.233.816.058 2.098.058t2.45-.116q1.224-.175 1.75-.409.699-.35.874-1.4.233-1.107.116-2.39-.058-1.283-.291-2.333-.058-.233-.233-.525-.117-.35-.292-.7-.35-.7-.7-1.516t-.35-1.516q.467-.175.642-.641 1.866 1.516 3.907 2.916 2.041 1.34 3.324 3.44-.583.758-.7 1.983t-.233 1.866q1.4.058 2.799-.058l2.8-.234q1.165-.175 2.332-.233 1.166-.117 2.332-.117 1.691 0 3.324.35t3.09 1.342q.7.933.467 1.4-.233.407-.641.757-.117.175-.292.292-.116.116-.233.291-2.507-.175-5.423-.116-2.858 0-5.598.35.641.816 1.457 1.34t1.575 1.05 1.225 1.4q1.224.233 1.75 1.225.524.933 1.399 1.574 1.283.933 2.915 1.575 1.633.583 3.266 1.224 1.633.583 2.857 1.633.584 1.108 1.458 1.983.933.875 1.925 1.633.116.933.641 1.4t.933 1.107m-5.19 6.998q.117.292.058.466-.058.117-.233.234-.233.175-.291.408-1.342.233-2.566.175-1.167-.058-2.333-.175l-2.216-.117q-1.108-.058-2.332.117-.117 1.108-.117 2.39 0 1.225.058 2.45v1.283q.059.583.059 1.225 0 2.39-.409 4.49-.35 2.158-1.807 3.382-1.05-.466-1.517-2.04-.466-1.517-.583-3.383-.116-1.808-.175-3.033v-1.457q0-.7.059-1.4.058-1.05.058-1.983t-.117-1.75q-1.632-.407-3.615-.232-1.925.116-3.966.35L47 65.753q-1.108.116-2.216.116-.117 3.79-1.283 6.24t-2.333 4.14q-.408.584-1.05 1.108t-1.632 1.225q-.058-.058-.35 0-.233.058-.466.058-.175 0-.35-.291.116-.525.35-1.225.291-.7.583-1.458.758-1.982 1.458-4.373.758-2.391.583-4.607-.7-.117-1.4.233-.641.35-1.108.816-2.39-.408-3.849-1.69t-2.682-2.741q.466-.117.875-.117h.816q.641 0 1.166-.058.583-.059.992-.7.524.525 1.516.525 1.05-.059 2.04-.175.584-.117 1.109-.117.525-.058.933 0 .175-1.108-.292-1.983-.408-.874-.933-1.749l-.7-1.05q-.291-.583-.524-1.166 1.4-.292 3.265.175 1.925.466 2.974 1.808 1.108 1.4.525 3.557 2.741 0 5.482-.233 2.799-.292 5.948-.409.116-1.166-.117-2.449-.175-1.341-.408-2.507-.117-.7-.233-1.342t-.117-1.108l.7.35q.35.117.7.292 1.34.583 2.624 1.283t2.04 1.808q.759 1.05.467 2.799 2.216.058 4.724.874t4.49 2.508m-10.38-11.838-.933-1.05q-.875-1.05-2.274-2.799t-3.033-3.848q-1.574-2.158-2.974-4.374-.524.058-1.224.058t-1.225.117q-.058.175-.291.466-.409.7-.817 1.517t-.233 1.4q1.108.466 2.332 1.282t1.925 2.041q.758 1.225.466 2.857 1.517-.058 3.208.525 1.69.525 3.149 1.108.583.234 1.05.408t.874.292m-13.004-1.691q.117-1.05-.233-2.857-.292-1.867-.933-3.324l-.642.641q-.35.35-.7.641.175.234.467.117.175-.117.233.117-.058.175-.233.291-.117.117-.292.175-.233.117-.35.292-.116.116.175.525h-.874q.116.291 0 .641-.059.292-.7.175.058.233 0 .408-.058.117-.117.292-.058.116-.116.35-.059.175 0 .466-.584 0-.992.642-.408.583-.758 1.05 1.691 0 3.033-.292 1.4-.292 3.032-.35"/>
</svg>
