<svg xmlns="http://www.w3.org/2000/svg" viewBox="0 0 100 100">
    <linearGradient id="0_ROOK_svg__a" x1="19.181" x2="80.829" y1="52" y2="52" gradientTransform="matrix(1 0 0 -1 0 102)" gradientUnits="userSpaceOnUse">
        <stop offset="0" stop-color="#f9da9c"/>
        <stop offset=".043" stop-color="#fbe0a1"/>
        <stop offset=".067" stop-color="#fce6a6"/>
        <stop offset=".145" stop-color="#f4d593"/>
        <stop offset=".193" stop-color="#f5d797"/>
        <stop offset=".243" stop-color="#f7dda4"/>
        <stop offset=".263" stop-color="#f9e1ab"/>
        <stop offset=".329" stop-color="#f7dfa8"/>
        <stop offset=".383" stop-color="#f2d89e"/>
        <stop offset=".398" stop-color="#efd599"/>
        <stop offset=".461" stop-color="#f2d795"/>
        <stop offset=".615" stop-color="#efda9c"/>
        <stop offset=".735" stop-color="#f6e5ad"/>
        <stop offset=".773" stop-color="#f9e9b4"/>
        <stop offset=".822" stop-color="#f7e1a6"/>
        <stop offset=".887" stop-color="#f5db9b"/>
        <stop offset=".956" stop-color="#f4d997"/>
        <stop offset=".967" stop-color="#f4da9c"/>
        <stop offset="1" stop-color="#f4db9e"/>
    </linearGradient>
    <path fill="url(#0_ROOK_svg__a)" stroke="#63451a" stroke-miterlimit="10" stroke-width=".954" d="M77.6 15.4 50 5.8l-27.6 9.6-10.6 72.1v6.7h76.4v-6.7z"/>
    <path fill="#63451a" fill-opacity=".75" d="M12.3 87.5h75.4v6.2H12.3z"/>
    <path d="M78.14 74.208q-.758 1.633-2.39 2.391-1.575.758-3.442.933-2.682.234-5.54-.35-2.799-.583-4.665-1.34-2.682-1.983-4.49-5.074-1.808-3.15-2.04-7.29-.06-.64 0-1.282.057-.7.116-1.342.058-1.108.058-2.216.058-1.108-.291-2.216-.934-.116-2.1-.058-1.108 0-2.157.058-.292 0-.584.059h-.583q-.233 3.674-.233 6.88.058 3.208.175 6.707.058 1.866.117 3.907t.058 4.315q0 .175-.292.234-.408.058-.35.408-1.807.292-2.682-.816t-1.458-2.333q-.233-.467-.466-.875t-.467-.7q.758-2.157.991-4.723.292-2.624.292-5.132.058-2.566 0-4.665v-2.74q-1.108-.117-2.74.174-1.634.233-2.858.525-.059 2.1-.525 4.665-.408 2.566-1.225 5.132t-1.982 4.723-2.741 3.441q-1.283 1.05-3.09 1.4t-3.675-.467q.525-.991 1.4-1.691t1.808-1.4q.99-.758 1.69-1.75 1.808-2.507 2.567-5.772.816-3.266 1.282-6.94-.933 0-1.924.175-.933.117-1.924.35l-1.75.35q-.874.175-1.69.175-1.342.058-2.508-.467t-1.983-2.099q-.117-.408.058-.583.233-.175.467-.292t.35-.233q.175-.117.233-.35 2.682.059 5.773-.291 3.149-.409 5.248-1.342-.058-1.108-.175-2.332-.058-1.283-.35-2.216t-1.107-1.05q-.292-.058-.817.292-.466.35-1.108.816-.525.408-1.166.875-.583.408-1.225.758-.991.525-2.1.641-1.107.059-2.157-.758 2.974-2.04 5.307-4.665 2.39-2.624 4.257-5.656-.058-.992-.467-1.575t-.466-1.516q1.691-.525 3.266-.175 1.632.35 2.682 1.4 1.05.99 1.108 2.624-1.166.991-2.39 2.157l-2.042 2.041q2.624.817 3.266 2.858.35 1.05.291 2.39-.058 1.284-.291 2.858 1.283-.175 2.799-.291 1.574-.117 2.624-.234 0-4.49-.292-8.689-.291-4.257-1.807-7.697 0-.35.116-.525t.233-.292q.292-.35.35-.583-1.75-.35-3.324 0-1.516.35-2.915.758-.35.117-.642.234l-.583.116q-1.516-1.224-2.566-2.624t-1.341-3.149q1.283-.408 2.624-.175 1.341.175 2.741.467.933.233 1.808.408.933.175 1.866.175 1.808.058 3.674-.175t3.79-.525q1.4-.233 2.8-.408t2.798-.292q.234-.466.35-.874.175-.467.525-.817 1.808.467 3.674.875 1.924.408 3.615 1.108 1.692.641 2.741 2.04-.525 1.109-1.808 1.925-1.224.817-2.449.875-1.166.991-2.274 1.924-1.05.933-1.516 2.45-.408 1.457.116 3.09t1.633 3.033q1.166 1.458 2.741 2.449 1.633.991 3.207.991 1.691 0 2.858-1.166.175-.758-.175-1.283t-.642-.816q-.058-.117-.116-.175.408-.35 1.4.058 1.049.408 1.282 1.166 1.283.7 2.624 1.341t2.216 1.692q.117 1.866-.991 2.915-1.05 1.05-2.683 1.4-1.982.466-4.373.058-2.333-.408-3.674-1.283l.467.525q.524.525 1.108 1.283t.758 1.458q-.467 1.05-1.342 1.283t-1.807.408q-.875.175-1.575 1.108-1.108 1.516-1.108 3.616-.058 1.982.642 4.023.758 1.983 1.516 3.15 1.166.757 2.624 1.049 1.516.292 2.857-.058 1.108-.292 1.925-.992.874-.7 1.166-1.807.058-.642-.058-1.225-.059-.642-.117-1.225-.058-.175-.058-.233 1.283.058 2.04.642.817.524 1.517 1.166.758.583 1.866.816.642 1.283 1.458 2.624.875 1.342.933 2.974M61.287 52.807q-2.158-1.691-3.965-4.14-1.75-2.508-2.683-5.54-.583-1.925-.758-4.024-.117-2.158.35-4.315-2.683-.292-5.132-.059t-4.607 1.05q1.808.583 3.383 1.458 1.574.816 2.507 1.983.933 1.108.817 2.682-.059.933-.642 1.866t-.7 2.1q-.175 1.399-.116 3.148t.116 2.974v.584q.059.233.059.408 1.632.408 2.974-.058t2.04-1.283q1.225-.292 2.683.058 1.516.291 2.566.7zm9.039-15.279q.291 1.108-.35 1.692-.642.524-1.808.816-1.808.466-4.082.466-2.216-.058-3.732-.174h-.175q1.166-1.342 2.566-2.391 1.4-1.108 2.332-2.625 1.05-.174 2.158.117 1.166.292 2.041.875.875.525 1.05 1.224m.583 23.676q-.991 1.108-2.857 1.516-1.808.409-3.674.817-.175-.058-.409-.175l-.35-.233q-.408-.292-.874-.525t-1.108-.059q-.058-.524.35-.874t.991-.642q.117-.116.292-.233l.35-.233q.466-.35.758-.817.35-.466.175-1.166 1.283-.875 2.624-.641 1.4.175 2.449 1.05t1.283 2.215M66.594 46.51q-2.333.117-4.082-1.4-1.692-1.516-2.333-3.499l.408-.35q1.633-.291 3.324.35 1.75.642 2.624 1.808.525.7.525 1.575.058.816-.466 1.516m.524 20.177q.7.933.584 1.983-.117.99-1.633 1.749-.117-.117-.467-.35-1.4-1.225-2.682-2.624-1.225-1.458-.992-3.44 1.4 0 2.916.816 1.516.758 2.274 1.866"/>
</svg>
