<svg xmlns="http://www.w3.org/2000/svg" viewBox="0 0 100 100">
    <linearGradient id="0_STAG_svg__a" x1="19.181" x2="80.829" y1="52" y2="52" gradientTransform="matrix(1 0 0 -1 0 102)" gradientUnits="userSpaceOnUse">
        <stop offset="0" stop-color="#f9da9c"/>
        <stop offset=".043" stop-color="#fbe0a1"/>
        <stop offset=".067" stop-color="#fce6a6"/>
        <stop offset=".145" stop-color="#f4d593"/>
        <stop offset=".193" stop-color="#f5d797"/>
        <stop offset=".243" stop-color="#f7dda4"/>
        <stop offset=".263" stop-color="#f9e1ab"/>
        <stop offset=".329" stop-color="#f7dfa8"/>
        <stop offset=".383" stop-color="#f2d89e"/>
        <stop offset=".398" stop-color="#efd599"/>
        <stop offset=".461" stop-color="#f2d795"/>
        <stop offset=".462" stop-color="#f2d795"/>
        <stop offset=".527" stop-color="#f2d795"/>
        <stop offset=".538" stop-color="#f2d795"/>
        <stop offset=".538" stop-color="#f2d795"/>
        <stop offset=".615" stop-color="#efda9c"/>
        <stop offset=".735" stop-color="#f6e5ad"/>
        <stop offset=".773" stop-color="#f9e9b4"/>
        <stop offset=".822" stop-color="#f7e1a6"/>
        <stop offset=".887" stop-color="#f5db9b"/>
        <stop offset=".956" stop-color="#f4d997"/>
        <stop offset=".967" stop-color="#f4da9c"/>
        <stop offset="1" stop-color="#f4db9e"/>
    </linearGradient>
    <path fill="url(#0_STAG_svg__a)" stroke="#63451a" stroke-miterlimit="10" stroke-width=".954" d="M77.6 15.4 50 5.8l-27.6 9.6-10.6 72.1v6.7h76.4v-6.7z"/>
    <path fill="#63451a" fill-opacity=".75" d="M12.3 87.5h75.4v6.2H12.3z"/>
    <path fill="#a00" d="M76.04 72.75q-1.049 2.8-3.382 3.733t-6.006.7q-1.341-.117-3.09-.409-1.692-.233-3.15-.583-1.458-.291-2.04-.525-.759-.35-1.284-1.108-.466-.758-1.458-.933-1.282-1.807-1.4-3.907-.057-2.1.06-4.432.058-.525.058-1.05.058-.583.058-1.166-1.108.758-3.033 1.167-1.866.408-4.082.524t-4.315.117q-.408.933-.466 2.216t-.059 2.624q0 1.283-.35 2.333 1.225-.467 2.391-1.05 1.167-.641 2.1-1.691 0-.175-.117-.467-.058-.116-.117-.291t0-.408q.758-.175 1.517-.059.816.117 1.516.234.641.175 1.108.233.525.058.816-.175.525.233.642.641t0 .7q-1.342.642-2.275 1.283t-2.04 2.041q-.176-.058-.117-.291v-.35q-.467 0-.467.175t.058.408q.175.466 0 .641-.058 0-.233-.058-.35-.058-.816.058t-1.05 1.458q-1.05.467-1.866 1.166-.758.759-1.458 1.575-2.157.233-3.499-.525-1.283-.758-2.39-1.633-.35-.291-.642-.525t-.641-.466q1.05-.583 2.157-.525 1.166 0 2.041-.233.525-1.341.525-3.44.058-2.1 0-4.316 0-1.166-.058-2.216 0-1.108.058-2.158-.058-.233-.175-.408-.058-.175-.175-.291-.117-.175-.175-.35t.117-.467q-.758-.525-1.458-1.283t-.35-1.633q1.691-.408 3.499.117 1.866.467 2.682 2.216-.408.583-.466 1.4t.35 1.224q1.108.292 2.04 0 .934-.35 1.75-.758.467-.233.875-.408t.816-.233q.875-.117 1.517.116.641.175 1.224.408.467.234.933.409t.992.116q-.059.583.291.7.408.117.642.058v-1.69q0-1.284-.117-2.508-.058-1.283-.642-2.158-2.39.292-4.49.817-2.04.466-3.907.583-1.983.175-3.79-.35-1.75-.525-3.5-2.275.817-.058 1.517-.174.758-.117 1.458-.234 1.108-.175 2.158-.291 1.107-.175 2.274.058.583-1.4.408-3.557t-.467-3.79q-.291.058-.583.058h-.583q-.7.058-1.224.175-.525.058-.817.466-.641-.641-1.574-.758-.933-.175-1.75-.933-.641 1.225-.758 2.682-.058 1.458-.175 2.858-.116 1.341-.875 2.45.175.29.117.524 0 .233-.117.408-.116.408.234.467-.059.058-.117.233-.058.233-.175.408-.116.117-.466 0 .058.933-.292 2.041t-.758 2.158-.7 2.04q-.291.934-.116 1.517-.759 1.341-1.692 2.683t-.99 2.565q-.176-.058-.234-.175 0-.175-.175-.175.175.642-.292 1.517-.466.816-1.05 1.75-.29.524-.64 1.049-.292.466-.526.933-.233 0-.408.058-.116 0-.233.058-.175.059-.408.117-.175.058-.467 0-.116.35.35.35.408 0 .292.408-.933.35-1.225.7-.292.408 0 .641-.233.525-1.166.933-.875.467-1.342 1.225-.233-.408.059-.991.291-.525.641-.817-.116-.233-.408-.175-.233.059-.35-.175.058-.116.175-.175.117-.116.175-.233t0-.408q.175 0 .233.292.117.35.35.291.467-1.166 1.4-2.566.991-1.4 1.458-2.915 0-.175-.234-.409-.291-.291-.35-.524.117-.059.234-.175.233-.117.408-.175t.525.058q.116-.292.233-1.05.175-.758-.117-1.108-.408-.175-.175-.466.292-.292.525.058 1.225-1.108 1.575-2.74.35-1.692 1.108-3.208l-.233-.292q-.059-.233.058-.35.175-.116.35-.174.116 0 .175-.059-.059-.408 0-.816.116-.467.233-.875.117-.466.233-.991t0-1.108q0-.117.35-.408t.35-.642q0-.758.175-1.75.175-1.049.466-2.215.467-2.391.817-5.015.35-2.683-.525-4.724v-.058q-.117-.175-.35-.467t-.641-.233q-.7-.991-1.225-2.1-.466-1.166-1.574-1.749-.059-.233-.059-.408.059-.175.117-.291.058-.234 0-.35 0-.117-.292-.175.525-.817 1.691-.7 1.167.058 1.75.641 2.45.175 4.607.059 2.216-.117 4.548-.292 1.75-.117 3.674-.233 1.983-.117 4.315-.117-.116-.291-.058-.7l.117-.816q.058-.408.058-.7.058-.35 0-.583-.35-.816-1.4-1.166t-2.157-.583q-1.108-.292-1.691-.875.058-.292-.117-.583t-.117-.583q.525-.059.992-.234.525-.175.991-.408.991-.35 1.866-.525.933-.233 1.691.583.467-.524 1.225-.291.816.175 1.516.816.7.583.758 1.342.059.524-.175 1.166t-.525 1.283q-.291.7-.524 1.341-.175.583.058 1.05 1.633.291 3.149.291 1.574-.058 3.149-.175 1.108-.058 2.274-.116t2.45 0q.408-.117.466-.525.058-.467.292-.7 1.457.233 3.032.583 1.633.35 2.974 1.108 1.4.7 2.158 2.216-.759.467-1.75.525-.991 0-2.04-.058-.759-.059-1.459-.059t-1.224.175q.058-.116.116-.175t.059-.175q-.992.117-2.333.117h-2.857q-1.283-.058-2.625-.058-1.283 0-2.507.058.641.758.991 2.216t.117 2.333q.7.116 1.516.116.816-.058 1.75-.058h.524q.292-.058.583-.058.992-.992 1.983-.875t2.216.583q.408.117.817.292l.933.233q.524.641 1.166 1.108.641.408 1.166 1.05.583.583.642 1.924-.642.641-1.458.525t-1.575.35q-.641.758-.874 1.866-.234 1.05-.35 2.157-.117 1.458-.35 2.8-.175 1.282-1.167 1.749l-.816.058q-.466.059-1.05.059-.583-.059-1.224-.117-1.167-.058-2.391-.058-1.225-.059-2.158.175.292.466.525 1.924.233 1.4.175 2.39 1.166-.232 2.333-.35t1.807-.757q1.4.233 2.741.933t2.274 1.691q1.108 1.283 1.283 3.149.35-.292.875.292.525.524.875 1.4.291-.117 0-.642-.233-.409-.059-.525.175.408.584.758t.816.641q.583.35.991.817.467.408.409 1.05-.059.233.175.116.291-.117.35-.233.583.35.758 1.166t.466 1.633 1.225 1.225M68.168 71q.233-2.1.058-4.665-.116-2.566-.874-4.082-.7.117-1.342.233l-1.282.233q-1.517.292-3.15.525-1.574.234-3.557-.058-.291 1.808-.233 3.324.117 1.458.292 2.916.058.408.058.874l.117.817q1.05 1.108 2.915 1.4 1.866.233 3.79-.176 1.984-.466 3.208-1.34m-14.17-25.368q-1.458.117-2.566.175-1.108 0-2.741.642-.292 1.574-.35 2.799-.058 1.166-.117 2.274v1.225q0 .583-.058 1.224.583-.058 1.108-.058.583-.058 1.108-.058.991 0 1.808-.059.875-.116 1.691-.408v-1.633q.058-.816.058-1.633.059-1.05.059-2.157.058-1.108 0-2.333m8.805-.058q-.7-.583-1.866-.583t-2.332.116q-.234 0-.525.059h-.467q-.058.583-.175 1.283-.058.641-.175 1.283-.233 1.457-.408 2.915-.175 1.4.117 2.45.991-.759 1.866-.642.933.117 1.924.467.292.116.642.233t.7.175q.174-1.983.408-3.674.233-1.75.291-4.082m-17.436-2.391q-.117-1.866-.641-2.624-.467-.817-1.4-1.691-.758.525-1.983.7t-2.332.35-1.575.757q.467.234.583.992.175.7.234 1.4t.233.932q.875-.408 1.75-.408.874-.058 1.749-.058.875.058 1.69.058.876-.058 1.692-.408m8.747-.7q-.116-.583-.116-.991v-.875l-.117-1.166q-.058-.583-.292-1.341-2.04 0-3.498.175-1.4.174-3.383.291.992.991 1.691 1.983t.584 2.507q1.982-.058 2.857-.175.933-.175 2.274-.408M26.531 72.167q-.058.35-.408 1.05-.291.7-.641 1.341-.35.7-.583.875-.117-.175.175-.933.35-.7.758-1.458.466-.758.7-.875"/>
</svg>
