<svg xmlns="http://www.w3.org/2000/svg" viewBox="0 0 100 100">
    <linearGradient id="0_TAMA_svg__a" x1="19.181" x2="80.829" y1="52" y2="52" gradientTransform="matrix(1 0 0 -1 0 102)" gradientUnits="userSpaceOnUse">
        <stop offset="0" stop-color="#f9da9c"/>
        <stop offset=".043" stop-color="#fbe0a1"/>
        <stop offset=".067" stop-color="#fce6a6"/>
        <stop offset=".145" stop-color="#f4d593"/>
        <stop offset=".193" stop-color="#f5d797"/>
        <stop offset=".243" stop-color="#f7dda4"/>
        <stop offset=".263" stop-color="#f9e1ab"/>
        <stop offset=".329" stop-color="#f7dfa8"/>
        <stop offset=".383" stop-color="#f2d89e"/>
        <stop offset=".398" stop-color="#efd599"/>
        <stop offset=".461" stop-color="#f2d795"/>
        <stop offset=".462" stop-color="#f2d795"/>
        <stop offset=".527" stop-color="#f2d795"/>
        <stop offset=".538" stop-color="#f2d795"/>
        <stop offset=".538" stop-color="#f2d795"/>
        <stop offset=".615" stop-color="#efda9c"/>
        <stop offset=".735" stop-color="#f6e5ad"/>
        <stop offset=".773" stop-color="#f9e9b4"/>
        <stop offset=".822" stop-color="#f7e1a6"/>
        <stop offset=".887" stop-color="#f5db9b"/>
        <stop offset=".956" stop-color="#f4d997"/>
        <stop offset=".967" stop-color="#f4da9c"/>
        <stop offset="1" stop-color="#f4db9e"/>
    </linearGradient>
    <path fill="url(#0_TAMA_svg__a)" stroke="#63451a" stroke-miterlimit="10" stroke-width=".954" d="M77.6 15.4 50 5.8l-27.6 9.6-10.6 72.1v6.7h76.4v-6.7z"/>
    <path fill="#63451a" fill-opacity=".75" d="M12.3 87.5h75.4v6.2H12.3z"/>
    <path d="M78.428 73.645q-1.067 1.201-2.869 1.468-1.734.267-2.869 0-2.936-.734-7.073-1-4.07-.268-8.874-.201-4.804 0-9.875.334-1.601.066-3.937.333-2.268.2-4.47.6-2.202.334-3.67 1.002l-.8.4q-.334.2-.601.467-.734.467-1.468.734t-2.002-.2q-2.068-1.401-4.203-2.803-2.069-1.468-3.337-3.87 1.001-.4 1.869-.267.934.134 1.868.4l1.2.268q.601.133 1.269.133 3.603-.133 8.674-.8 5.138-.668 10.275-.935.067-1.468 0-4.337 0-2.869-.066-5.738 0-1.668-.067-3.136v-2.536q-2.269.267-4.604.4t-4.537.668q-.267.067-.534.2l-.534.267q-.534.267-1 .467t-1.002 0q-1.468-.534-2.869-1.668t-2.469-2.335l-1.601-1.802q1.802-.267 3.803-.267h4.27q2.603.067 5.405.067 2.803-.067 5.739-.467v-4.137q0-1.802-.134-3.47-.067-1.734-.334-3.403-.2-1.668-.667-3.536-1.067.134-2.135.2h-2.202q-1.268 0-2.669.067-1.334 0-2.802.267-.334.067-.734.2t-.734.267q-.734.267-1.535.467-.734.133-1.401-.2-1.601-.868-3.003-2.536-1.334-1.734-2.602-3.27-.2-.933-.133-1.534.133-.667.8-.534 2.403.6 4.338 1.201 2.001.534 3.936.801 1.668.2 4.404.2t5.938-.133q3.27-.2 6.606-.467t6.205-.534q2.87-.334 4.805-.6.266 0 .467-.2l.333-.334q.334-.334.467-.334 3.003.267 5.405 1.268t3.07 3.87q-2.203.467-4.404.6t-4.604.2q-2.336.067-5.205.334-2.802.2-5.738.4-.067 3.67-.2 7.607-.067 3.87-.267 6.74h3.203q1.868-.068 3.47-.334 1.667-.267 2.401-.868 2.336.467 4.47 1.201t3.604 2.269q.467.667.333 1.268-.066.6-1.267.6-3.87-.133-8.274-.067-4.337.067-8.007.6 0 2.27-.067 5.205l-.133 5.672q-.067 2.736-.2 4.804 2.135.067 4.003.2t3.737.134 3.536-.4 3.136-1.535q2.069.533 4.337 1.2 2.269.601 4.27 1.669t3.136 3.069M65.751 59.967q.734 1.868.8 3.603t-1.4 2.936q-2.136-1.001-3.937-3.003-1.735-2.068-3.07-4.204t-2.201-3.47q2.135-.2 3.67.601 1.6.734 3.069 1.735l1.468.934q.8.467 1.6.868"/>
</svg>
