<svg xmlns="http://www.w3.org/2000/svg" viewBox="0 0 100 100">
    <linearGradient id="0_TIGER_svg__a" x1="19.181" x2="80.829" y1="52" y2="52" gradientTransform="matrix(1 0 0 -1 0 102)" gradientUnits="userSpaceOnUse">
        <stop offset="0" stop-color="#f9da9c"/>
        <stop offset=".043" stop-color="#fbe0a1"/>
        <stop offset=".067" stop-color="#fce6a6"/>
        <stop offset=".145" stop-color="#f4d593"/>
        <stop offset=".193" stop-color="#f5d797"/>
        <stop offset=".243" stop-color="#f7dda4"/>
        <stop offset=".263" stop-color="#f9e1ab"/>
        <stop offset=".329" stop-color="#f7dfa8"/>
        <stop offset=".383" stop-color="#f2d89e"/>
        <stop offset=".398" stop-color="#efd599"/>
        <stop offset=".461" stop-color="#f2d795"/>
        <stop offset=".615" stop-color="#efda9c"/>
        <stop offset=".735" stop-color="#f6e5ad"/>
        <stop offset=".773" stop-color="#f9e9b4"/>
        <stop offset=".822" stop-color="#f7e1a6"/>
        <stop offset=".887" stop-color="#f5db9b"/>
        <stop offset=".956" stop-color="#f4d997"/>
        <stop offset=".967" stop-color="#f4da9c"/>
        <stop offset="1" stop-color="#f4db9e"/>
    </linearGradient>
    <path fill="url(#0_TIGER_svg__a)" stroke="#63451a" stroke-miterlimit="10" stroke-width=".954" d="M77.6 15.4 50 5.8l-27.6 9.6-10.6 72.1v6.7h76.4v-6.7z"/>
    <path fill="#63451a" fill-opacity=".75" d="M12.3 87.5h75.4v6.2H12.3z"/>
    <path d="M74.058 41.669q.466 1.283-.816 2.1t-2.975 1.515q-.874.408-1.69.817t-1.4.874q-1.925.817-3.557.933t-2.333-.35q.816-1.574 1.4-3.032.641-1.458.933-2.916-1.925 0-4.49.175-2.508.175-5.249.409l-3.732.35-3.616.233q-.583.058-1.166.058h-1.05q-2.274.058-4.315.35t-3.207 1.75q.7 1.982.641 4.431 0 2.45-.466 5.074t-1.167 5.131q-.641 2.45-1.224 4.549-.058.233-.175.525l-.117.466q-.525 1.108-1.05 2.275t-1.107 1.516q-.059 1.516-.933 3.032-.875 1.458-2.1 2.8t-2.449 2.507q-1.225.408-2.216.058t-.933-1.05q.816-.35 1.75-1.574.99-1.225 1.982-2.857 1.108-2.391 2.333-5.599t2.157-6.823 1.108-7.172q.175-2.45-.35-4.024-.524-1.633-1.574-2.857-1.05-1.283-2.566-2.625.583-.35.583-.816.059-.525.175-1.05.117-.583.758-.874.117-.117.525-.175.467-.059.642-.059 1.166-.233 2.857-.175 1.75 0 3.674.117 2.45.175 4.957.233 2.507 0 4.432-.466v-.642q.058-.35.058-.7.116-1.166.058-2.565t-.816-2.566q.233-.233.874-.233.467-1.925-.35-2.858-.757-.991-1.807-1.75l-1.05-.816q-.466-.408-.816-.991.35-.933.874-.933.584-.058 1.225.117.583.116 1.283.175t1.458-.409q.117.059.408.175 1.4.7 2.508 1.458 1.166.7 1.574 1.925.467 1.224-.233 3.265.933.175 1.924.117l1.983-.233q1.691-.234 3.382-.175t3.15 1.457q-.759 1.517-2.508 1.75t-3.674.233q-1.108 0-2.216.058-1.05 0-1.866.35-.817.292-1.283 1.05-.408.7-.35 2.041 1.691.292 3.616.175 1.982-.117 3.79-.233.7-.117 1.341-.117.642-.058 1.225-.117h1.05q1.05 0 1.807-.174t.875-1.283q3.207 0 5.482 1.166 2.332 1.108 4.14 3.499m2.682 33.064q-1.283 1.983-3.557 2.8t-5.015.816q-2.74.058-5.54-.408-2.799-.409-5.19-.933-.583-.7-1.633-1.05t-2.04-.758q-.934-.35-1.4-1.05-.233-.408-.642-1.166-.35-.758-.641-1.516t-.35-1.05q-.058-.7.058-1.341t.234-1.342q.233-.758.35-1.574.116-.875 0-1.808-.059-.408-.234-.758l-.233-.7q-.292-.583-.408-1.166t.408-1.4q.466-.233 1.341-.291l.875-.058q-2.8-.35-4.84-1.05-1.983-.758-2.974-3.266.408-.583.466-1.4.059-.874-.058-1.515-1.225.758-2.8.524t-2.915-1.108q-1.283-.933-1.866-2.04.7-.759 1.866-.759 1.225-.058 2.624 0l1.516.117q.817.058 1.575-.058.7-1.808-.058-2.858-.7-1.108-1.633-1.924-.292-.292-.583-.525-.234-.233-.467-.525 1.166-.7 2.683-.641 1.574.058 2.974.758t2.099 1.982q.758 1.283.292 3.091l1.4-.116 1.399-.117q1.866-.233 3.79-.292t3.732.409q1.866.466 3.44 1.866-.466.816-1.515.933-.992.116-2.333.116-.525-.058-1.108-.058-.525 0-1.05.058-2.449.117-4.431.35-1.925.233-3.966.583-.117.758-.175 1.575-.058.758 0 1.75 1.458.582 3.033.524 1.632-.117 3.265-.291 1.575-.175 3.09-.234 1.575-.058 2.975.467t2.507 2.1q-2.915 1.049-5.54 1.224-2.624.116-5.89.35 1.284.816 1.75 2.157t.467 2.916-.117 3.09q-.058 1.109-.117 2.158 0 .992.234 1.691 1.224.875 3.324 1.342 2.099.408 4.315.233t3.674-.991q.933-.292 1.224-.817t.525-1.283v-1.283q.233.234.292.467.116.175.408.175v-.933q0-1.05-.058-2.1t-.467-2.39q3.324 1.282 4.957 4.082t2.682 6.24M47.583 62.486q-.117.117-.7 1.166l-1.341 2.275q-.758 1.224-1.341 2.216-.525.933-.583 1.05-.875 1.282-2.1 3.032t-2.682 3.207q-1.458 1.516-3.09 1.924-.759-.116-1.984-.175-1.166-.058-1.807 0 1.05-1.34 2.099-2.507 1.05-1.108 2.974-2.508 0-.116-.175-.116-.175-.059-.291-.117 1.69-2.39 3.323-4.782t2.8-5.248q-.059-1.05-.7-1.574t-1.108-1.283q.875-.7 2.39-.642 1.517 0 2.858.583 1.4.525 1.925 1.458.583.933-.467 2.041"/>
</svg>
