<svg xmlns="http://www.w3.org/2000/svg" viewBox="0 0 100 100">
    <defs>
        <linearGradient id="1_BISHOP_svg__a" x1="16.913" x2="82.09" y1="-845.7" y2="-845.7" gradientTransform="matrix(1 0 0 -1 0 -796)" gradientUnits="userSpaceOnUse">
            <stop offset="0" stop-color="#f9da9c"/>
            <stop offset=".043" stop-color="#fbe0a1"/>
            <stop offset=".067" stop-color="#fce6a6"/>
            <stop offset=".145" stop-color="#f4d593"/>
            <stop offset=".193" stop-color="#f5d797"/>
            <stop offset=".243" stop-color="#f7dda4"/>
            <stop offset=".263" stop-color="#f9e1ab"/>
            <stop offset=".329" stop-color="#f7dfa8"/>
            <stop offset=".383" stop-color="#f2d89e"/>
            <stop offset=".398" stop-color="#efd599"/>
            <stop offset=".461" stop-color="#f2d795"/>
            <stop offset=".462" stop-color="#f2d795"/>
            <stop offset=".527" stop-color="#f2d795"/>
            <stop offset=".538" stop-color="#f2d795"/>
            <stop offset=".538" stop-color="#f2d795"/>
            <stop offset=".615" stop-color="#efda9c"/>
            <stop offset=".735" stop-color="#f6e5ad"/>
            <stop offset=".773" stop-color="#f9e9b4"/>
            <stop offset=".822" stop-color="#f7e1a6"/>
            <stop offset=".887" stop-color="#f5db9b"/>
            <stop offset=".956" stop-color="#f4d997"/>
            <stop offset=".967" stop-color="#f4da9c"/>
            <stop offset="1" stop-color="#f4db9e"/>
        </linearGradient>
    </defs>
    <path fill="url(#1_BISHOP_svg__a)" stroke="#63451a" stroke-miterlimit="10" stroke-width="1.01" d="M11.5 5.5v5.2L22 84.2l27.5 9.7L77 84.2l10.5-73.5V5.5Z" transform="translate(.766 4.73)"/>
    <path fill="#63451a" fill-opacity=".75" d="m77.266 83.43-27 9.7-27-9.7-10.5-72.2v4.7l10.5 72.7 27 9.6 27-9.6 10.5-72.7v-4.7Z"/>
    <path d="M27.517 54.863q-.175-.992.466-1.517t1.458-.991q.467-.233.933-.525.409-.291.7-.641.292-1.808.642-4.257.291-2.391.408-4.957.058-1.225-.117-2.45l-.466-2.449q-.234-.99-.409-1.924t-.233-1.866v-.292q-.233-3.207-.175-6.414 0-3.15 1.225-5.657.583-.874 1.633-.933.991-.058 2.157.35t2.275 1.05q1.108.583 1.866 1.108.233.116.35.466.058.35.291.467.933.466 2.041.758 1.05.233 1.925.641.758.409 1.457.933.642.584 1.458.992.933.466 1.866.758.875.35 1.925.583l-.059.058q-.175.234 0 .292-3.032-.758-6.414-1.05-3.382-.233-7.115-.641-.933 2.274-1.166 5.015t0 5.598q.175 2.916.467 5.715.175 1.516.291 2.974.117 1.516.175 2.857v1.75q0 1.05.058 1.924 0 .933.35 1.808 1.458.175 3.091.058 1.574-.116 3.09-.233.642-.117 1.225-.175.583 0 1.167-.058-.467-.992-.525-2.274-.117-1.283-.175-2.45v-1.166q-.059-.525-.117-.933-1.224.525-2.624.292-1.458-.234-2.566-.934-1.166-.641-1.516-1.457.875-.584 2.1-.7t2.507-.233q1.224-.059 2.332-.642l.117-3.266q0-1.632.117-2.507-1.283.408-2.741.175-1.516-.175-2.858-.817t-1.982-1.69q.933-.234 2.74-.35t3.616-.35 2.858-.817q.99.408 2.449.292 1.4-.117 2.974-.35 1.633-.233 3.265-.35 1.575-.117 2.683.408.525-2.04 1.283-4.257.7-2.216 1.808-4.14 1.05-1.983 2.624-3.266.991-.408 1.924-.35.875 0 1.633.175-2.216 3.5-3.79 8.164-1.633 4.724-2.216 9.914-.584 5.248.466 10.322.816.99 1.75 1.924.874.991 1.34 2.333-.64.116-.757.641-.175.525-.7.7-.525-.408-.992-.35-.524.058-.874-.583-1.691.641-4.082.874-2.391.292-4.665.409-2.275.175-3.616.408-.175.933-.525 1.866-.35.991-.816 1.983-.583 1.458-1.108 2.915-.525 1.517-.408 2.916 1.05.058 2.624 0 1.516-.058 2.916-.233 1.34-.175 1.982-.525 2.333-2.624 5.132-4.665 2.74-2.041 5.482-4.257l.583-.467q.233-.233.466-.408.933-.875 1.925-1.458.933-.583 2.915-.525.409.292.758.7.292.467.7.817-4.082 3.032-7.58 6.53-3.5 3.558-6.882 7.174.117.116.35.233.175.117.408.233.642.408 1.341.933t.642 1.516h-.583q-.408.059-.933.059-1.283.116-3.033.116-1.75.059-3.09-.408-1.342-.408-1.575-1.75-2.216-.233-3.907-.116-1.75.117-2.624 1.691-3.266.408-5.773-.816t-4.49-2.858q.233-.583 1.05-.991.757-.408 1.515-.175.059-.466.817-.758.7-.292 1.574-.525.817-.233 1.342-.641.758-2.041 1.749-3.907.991-1.808 2.041-3.616-.816-.117-2.39.058t-2.683.35q-.584.059-.817.117-.816.117-1.458.525-.7.408-1.458.466-1.108.117-2.565-.291-1.458-.35-2.858-.992t-2.332-1.4q-.933-.699-1.05-1.34m22.393-8.34v.817q0 1.866.175 3.557.175 1.75 1.458 2.566.583-.292 1.866-.467 1.283-.116 2.566-.291 1.224-.175 1.69-.7.525-1.05.525-1.983 0-.874-.116-1.807-.117-.525-.175-1.167-.058-.583 0-1.224-1.108-.117-2.1 0-1.05.116-2.099.291-.874.175-1.808.292t-1.982.116m.233-3.207q1.75-.233 3.79-.466t3.966-.175q-.058-.875.058-1.75.117-.816.292-1.633.116-.7.233-1.34.058-.642.058-1.225-1.166-.059-2.216.058t-2.099.291q-.933.117-1.866.175-.933.117-1.983.117-.175 1.4-.233 2.74t0 3.208"/>
</svg>
