<svg xmlns="http://www.w3.org/2000/svg" viewBox="0 0 100 100">
    <defs>
        <linearGradient id="1_DRAGONPROMOTED_svg__a" x1="16.913" x2="82.09" y1="-845.7" y2="-845.7" gradientTransform="matrix(1 0 0 -1 0 -796)" gradientUnits="userSpaceOnUse">
            <stop offset="0" stop-color="#f9da9c"/>
            <stop offset=".043" stop-color="#fbe0a1"/>
            <stop offset=".067" stop-color="#fce6a6"/>
            <stop offset=".145" stop-color="#f4d593"/>
            <stop offset=".193" stop-color="#f5d797"/>
            <stop offset=".243" stop-color="#f7dda4"/>
            <stop offset=".263" stop-color="#f9e1ab"/>
            <stop offset=".329" stop-color="#f7dfa8"/>
            <stop offset=".383" stop-color="#f2d89e"/>
            <stop offset=".398" stop-color="#efd599"/>
            <stop offset=".461" stop-color="#f2d795"/>
            <stop offset=".462" stop-color="#f2d795"/>
            <stop offset=".527" stop-color="#f2d795"/>
            <stop offset=".538" stop-color="#f2d795"/>
            <stop offset=".538" stop-color="#f2d795"/>
            <stop offset=".615" stop-color="#efda9c"/>
            <stop offset=".735" stop-color="#f6e5ad"/>
            <stop offset=".773" stop-color="#f9e9b4"/>
            <stop offset=".822" stop-color="#f7e1a6"/>
            <stop offset=".887" stop-color="#f5db9b"/>
            <stop offset=".956" stop-color="#f4d997"/>
            <stop offset=".967" stop-color="#f4da9c"/>
            <stop offset="1" stop-color="#f4db9e"/>
        </linearGradient>
    </defs>
    <path fill="url(#1_DRAGONPROMOTED_svg__a)" stroke="#63451a" stroke-miterlimit="10" stroke-width="1.01" d="M11.5 5.5v5.2L22 84.2l27.5 9.7L77 84.2l10.5-73.5V5.5Z" transform="translate(.492 3.036)"/>
    <path fill="#63451a" fill-opacity=".75" d="m76.992 81.736-27 9.7-27-9.7-10.5-72.2v4.7l10.5 72.7 27 9.6 27-9.6 10.5-72.7v-4.7Z"/>
    <path fill="#a00" d="M21.574 25.327q.292-1.05 1.05-1.575.7-.524 1.516-.874.758-.409 1.283-1.108 1.866-.7 4.374-1.108t5.19-.409q2.624-.058 5.073.35t4.316 1.283q.816.642 1.457 1.575.642.991 1.108 1.866t.817 1.283q-.058.7-.117 1.458-.058.816-.175 1.69-.233 2.508-.408 5.366-.233 2.857-.175 5.481.058 2.683.583 4.666.059.291.175.466.117.233.292.467.233.408.35.816t-.175.933q-.292 0-.642-.175l-.7-.35q-1.05-.35-3.323-.175t-4.666.758q-.641-.233-1.574-.583l-.933-.35q0 .175-.059.583-.058.933-.116 2.45t.116 2.974q1.692-.059 4.083-.292 2.332-.233 4.023-.875.642.525 1.516.817.817.35 1.458.875t.817 1.516q-.642.291-1.342.233l.117.35q.117.35-.117.816l-.174-.175q-.175-.175-.584-.175.409 1.05.467 2.158 0 1.108-.058 2.158-.059.933-.059 1.807t.234 1.75q.058.233.291.641.233.467.583.992.525.933 1.05 1.924.466 1.05.117 1.458-.059.175-.467.175-.175.058-.35.058-.233.059-.35.35-1.4-.466-2.915-1.283-1.575-.758-2.216-2.449.35-.7.466-1.341.117-.583-.117-1.575-1.866.117-3.615.233-1.75.175-3.324.175-2.041 0-3.732-.583-1.691-.525-2.8-2.39 1.925-.584 4.666-.7t5.423-.117q.817 0 1.633-.058h1.458q.408-.758.7-1.75.233-.991.175-1.75Q42.1 56 40.527 56t-2.916.292q-1.4.35-2.041 1.108-1.283-.816-2.8-1.4-1.574-.524-2.973-1.224-1.458-.642-2.333-1.866l.35-.233.35-.234q.642-.466 1.458-.874.758-.35 1.924-.292-.291-1.225-.058-2.391.233-1.108.525-2.158.058-.35.175-.758.116-.35.175-.7.583.117 1.108.059t.991-.525h2.916q1.574.058 2.974 0 1.341-.058 2.624-.583-.233-.408-.233-.758v-.758q.058-.409.058-.642-1.05-.058-2.041-.058-.991.058-1.866.117h-1.05q-.525.058-.991.058-1.341 0-2.508-.35t-2.157-1.4q1.166-.816 3.032-.991 1.808-.117 3.674-.175 1.108 0 2.158-.058.991-.059 1.75-.233.116-.409.174-1.108V36.64q-.933-.117-1.808 0t-1.75.292q-.757.174-1.515.233-.758.116-1.458.058-1.516-.175-2.566-1.05t-1.75-1.166q.117-.35.292-.35t.292.35q.933-.758 2.799-.875t3.732-.058h1.924q.875 0 1.516-.117.35-.174.409-.7.058-.466 0-.99V31.8l-1.4-.117h-1.4q-1.632 0-3.148-.116-1.575-.117-2.8-.759-1.283-.583-1.982-2.04.641.116 1.224 0 .525-.059 1.108-.176.642-.116 1.283-.174.583 0 1.05.408.466-.467 1.574-.583 1.108-.059 2.333.058 1.225.175 2.1.408.233-.466.233-1.05-.059-.583-.117-1.108t-.058-.758q-1.225-.524-2.974-.7-1.808-.116-3.674.059t-3.44.583q-1.575.467-2.508 1.166-.467 1.458-.409 2.741 0 1.283.117 2.566.117.758.175 1.516.058.817 0 1.691-.292.175-.35.467-.058.35-.117.758-.466 0-.641-.875-.233-.875-.117-1.69-.466-.934-1.108-1.75-.7-.817-1.108-1.925-1.224-.058-1.749-.933l-1.05-1.633q-.583.059-.874-.116-.35-.175-.584-.35-.466-.292-.7-.292.059-.641-.058-1.05-.116-.35-.35-.7m27.408 35.981q.584-.933 1.633-1.283.992-.291 2.216-.408 0-.408-.233-.641t-.525-.409q-.233-.175-.466-.408-.292-.233-.35-.583-.117-.7.233-1.516.35-.758.816-1.575.409-.758.758-1.516.35-.7.35-1.458-1.05-.175-2.274-.641t-1.458-1.808q2.216-.816 5.307-1.05 3.032-.175 6.181-.35 3.033-.175 5.773-.7 2.683-.466 4.374-1.865 1.166-.059 2.39.758 1.226.874 2.217 1.982.933 1.167 1.341 1.925-1.108.233-2.274.233H72.6q-1.633-.058-3.266 0t-3.149.583q.583.992.875 2.333t.641 2.624q.292 1.341.992 2.216.35-.058.408-.408.058-.292.35-.409 1.808.467 3.09 2.042 1.284 1.632 2.1 3.44-.642.35-1.108.233t-.933-.291l-.583-.234q-.292-.116-.642-.174-1.05-.175-2.157-.117l-2.216.233q-.7.117-1.342.175-.7.058-1.282.058-.992 0-2.158.117-1.225.117-2.274.292l-1.575.35q.058.583.117 1.457t.116 1.633q1.108.817 2.45 1.341t2.099 1.633q-.991 1.108-2.566 1.225-1.633.117-3.149-.525-1.574-.583-2.39-1.691 0-1.225.407-2.333.35-1.108.758-1.807l.409-.7q-1.866.35-4.024-.292-2.158-.583-3.616-1.69m-.408-17.437q.817-.583 1.516-1.283.7-.641 1.517-1.283.058-1.4-.059-3.09-.175-1.692-.291-3.5-.35-3.44-.467-7.056-.116-3.557.7-6.53.408-.934 1.225-.934t1.69-.525q1.808.817 3.908 2.275 2.04 1.457 3.382 3.207l2.566.117q-.758.758-1.983.7-1.283-.059-2.682-.292l-1.75-.234q-.933-.116-1.75 0-.699 1.283-.699 2.8 0 1.574.175 3.09 0 .408.058.817.059.466.059.874 0 .525.058 1.108V35.3q0 1.924.117 4.023.058 2.1.7 3.966 2.332.058 4.315-.233 1.924-.292 3.207-1.283.058-.584.117-1.225t.175-1.283q-2.741.642-4.899-.233-2.216-.875-3.266-1.925h.059q2.04-.408 4.257-.758t3.615-.175q.408-.466.467-1.4.058-.874.175-1.34-2.624.583-4.607-.234-2.041-.758-3.674-1.69l-.058-.06q.991-.349 2.507-.64 1.458-.234 3.09-.35 1.575-.117 2.917-.117 0-.117.058-.292.117-1.166.233-2.74.059-1.575 0-3.091-.116-1.458-.7-2.45 0-.64.234-.816t.583-.233q.291-.117.466-.525 1.167.408 2.041 1.4t1.458 2.157q.583 1.225.933 2.158.059.408-.116.408-.234 0-.467-.058-.291-.117-.408-.117-.058.117-.117.292-.524 1.4-.758 2.799-.291 1.458.642 2.682-.758.525-1.108 1.75-.35 1.283-.234 2.624.059 1.341.7 2.041l-.933.058q-.175 1.925.525 2.741.642.875 1.75 1.633.058.175-.059.408-.058.117-.058.292-.058.175.116.466-2.04 1.225-5.131 1.458-3.15.292-6.298.408-.175.292-.233.7t-.292.642q-1.516-.642-3.266-.817-1.807-.175-3.44-.641-1.633-.408-2.508-1.808m7.931 15.512q1.4-.234 3.382-.35t4.024-.292q1.983-.175 3.616-.583-2.041-.933-3.383-2.682-1.4-1.692-1.807-4.374-1.4 0-2.625.117-1.283.175-2.39.408 0 .466-.176 1.05-.174.641-.408 1.34-.408 1.342-.7 2.8-.291 1.516.467 2.566"/>
</svg>
