<svg xmlns="http://www.w3.org/2000/svg" viewBox="0 0 100 100">
    <defs>
        <linearGradient id="1_EAGLE_svg__a" x1="16.913" x2="82.09" y1="-845.7" y2="-845.7" gradientTransform="matrix(1 0 0 -1 0 -796)" gradientUnits="userSpaceOnUse">
            <stop offset="0" stop-color="#f9da9c"/>
            <stop offset=".043" stop-color="#fbe0a1"/>
            <stop offset=".067" stop-color="#fce6a6"/>
            <stop offset=".145" stop-color="#f4d593"/>
            <stop offset=".193" stop-color="#f5d797"/>
            <stop offset=".243" stop-color="#f7dda4"/>
            <stop offset=".263" stop-color="#f9e1ab"/>
            <stop offset=".329" stop-color="#f7dfa8"/>
            <stop offset=".383" stop-color="#f2d89e"/>
            <stop offset=".398" stop-color="#efd599"/>
            <stop offset=".461" stop-color="#f2d795"/>
            <stop offset=".615" stop-color="#efda9c"/>
            <stop offset=".735" stop-color="#f6e5ad"/>
            <stop offset=".773" stop-color="#f9e9b4"/>
            <stop offset=".822" stop-color="#f7e1a6"/>
            <stop offset=".887" stop-color="#f5db9b"/>
            <stop offset=".956" stop-color="#f4d997"/>
            <stop offset=".967" stop-color="#f4da9c"/>
            <stop offset="1" stop-color="#f4db9e"/>
        </linearGradient>
    </defs>
    <path fill="url(#1_EAGLE_svg__a)" stroke="#63451a" stroke-miterlimit="10" stroke-width="1.01" d="M11.5 5.5v5.2L22 84.2l27.5 9.7L77 84.2l10.5-73.5V5.5Z" transform="translate(.715 3.425)"/>
    <path fill="#63451a" fill-opacity=".75" d="m77.215 82.125-27 9.7-27-9.7-10.5-72.2v4.7l10.5 72.7 27 9.6 27-9.6 10.5-72.7v-4.7Z"/>
    <path fill="#a00" d="M25.316 49.003q.233-.933 1.108-1.574.816-.642 1.982-.933 1.4-.409 3.616-.409 2.157.059 3.849.467.466 0 .408-.525t.233-.7q.642.35 1.166.117.467-.233.875-.525.175-.116.233-.175.117-1.4.234-2.332.058-.875.175-1.691t.408-2.042q1.982.175 3.79-.058t3.557-.466q1.808-.292 3.616-.525 1.75-.175 3.674 0v-1.225q-2.041-.233-4.082 0t-4.082.525q-1.4.175-2.741.35t-2.683.175q-.233 0-.408-.117t-.408-.116q-1.225.116-2.39.641-1.226.525-2.392.583-1.574.059-3.324-.758-1.808-.758-2.74-2.1 3.79-.116 7.872-.35 4.082-.174 8.047-.524 3.966-.291 7.406-.758h.35q.408 0 .875-.117.408-.116.466-.7-2.39-.35-5.481-.174-3.09.233-6.181.524-.933.117-1.808.175-.875.117-1.75.175l-.466.35q-.292.175-.35.583-2.857-.466-5.073-1.457T28.58 31.1q.525-.7-.233-1.225.233-.758 1.166-.875t1.983-.116q.875-1.983 1.808-4.082t2.274-3.79q1.341-1.75 3.616-2.683 2.216-.059 3.673.583 1.4.641 2.391 1.75.992 1.049 1.925 2.273.291.35.583.759l.583.7.816-.117q.409-.059.642-.292l.35.233.35.35q.991.758 1.866 1.75t.583 2.566q.991.641 2.216 1.05 1.166.407 2.274.932t1.75 1.458q-.234.233-.525.233-.35 0-.642-.058-.291-.117-.583-.117t-.525.175q0 .7.525 1.283t1.05 1.283q.466.758.525 1.691-.584 1.05-.759 2.508t-.116 2.974.233 2.74q.117 1.225.233 1.867v.058q.642-.058.7-1.05.058-.933 0-1.399.583-.758 1.225-.991.583-.175 1.341 0 1.05.291 2.041 1.05t1.75 1.399q-.175.7-.059 1.283.058.583.933.933-.291.525-.758.466-.466 0-.991-.175-.292-.116-.583-.175-.35-.058-.642.059-.35.874-.291 1.75 0 .874.058 1.865 0 .175.058.35v.35q.233.117.467.117.233.058.408 0h.466q.234 0 .525.233l.642-.642q.35-.291.641-.524.525.466 1.458.933.875.525 1.575 1.224t.7 1.691q-.292.059-.35-.175l-.059-.233q-.525.7-.466 1.167.058.524.35.933.466.641 1.282 1.108.759.524 1.108 1.224-1.516.642-3.498.875t-4.14.35q-2.158.175-4.2.466t-3.615.992q-1.516-.234-2.624-.584-1.166-.291-2.333-1.05-.175 0-.641.117t-.933.117q-.525.058-.933-.233-.292.058-.234.408t-.175.408q-.291-.175-.758-.233h-1.632q-.292.058-.525 0-.525.758-.817 1.924-.35 1.225-.466 1.925.7.933 1.341 1.924.642 1.05 1.575 1.75l-.817.408q-.466.233-1.05.233-.174 0-.233-.292t-.175-.35q-.175-.058-.408.059t-.408.233-.233.117q-.642-.175-1.458-.817-.875-.583-1.516-1.283-.7-.7-.759-1.166-.116-.466.059-.991l.35-.933q.233-.467.408-.992t.175-1.108q-.817-.175-1.983-.233t-2.1.175q-.99.292-1.107 1.05-1.866-.7-3.732-1.341-1.866-.584-2.916-2.1 1.283-.525 2.974-.583t3.382-.058h2.566q.233-.35 0-.583t-.583-.409q-.175-.175-.35-.291t-.292-.292q-.058-.758.117-1.458.117-.7.35-1.34.233-.759.35-1.517t-.175-1.575q-.117-.466-.408-.524t-.642-.117q-.408 0-.641-.583-.525.466-1.225.525-.7.116-1.283.116h-.758q-.35.059-.583.175-.641.467-.758 1.4-.175.991 0 2.04t.525 1.634q-.467.175-.758-.117-.35-.292-.642-.758-.233-.292-.466-.642-.234-.291-.583-.524-.817-.642-1.867-1.167-1.108-.525-1.866-1.224-.466-.467-.7-1.108-.291-.642 0-1.575m22.627 14.812q.991-.291 2.274-.525 1.225-.233 2.566-.058 2.507.292 5.715.058 3.149-.175 6.181-.466.758-.059 1.458-.117l1.4-.116q.99-.933 1.866-.992.816 0 1.574.525.933.641 1.691 1.866.7 1.225 1.341 2.274-.7.642-1.516.525-.874-.058-1.633-.525-.816-.408-1.4-.816l-4.548.466q-2.274.292-4.665.35.117.933.758 1.4t1.342.875 1.05 1.166q-1.167.933-2.508.991-1.4.117-2.625-.466-1.282-.525-1.982-1.516-.059-.35 0-.642.058-.233.116-.525l.117-.35v-.35q-2.74.292-5.015-.583t-3.557-2.449M38.144 31.1q2.74-.059 5.423-.175 2.624-.059 4.607-.234 1.166-.058 2.508-.175t2.099-.816q-1.166-.175-2.391-.875-1.225-.641-2.041-1.69-.875-.992-.816-2.333-.35-.059-.7-.175-.408-.059-.758-.117-1.108-.233-2.216-.408t-2.391.116q-1.225 1.283-2.391 2.974-1.225 1.75-.933 3.908m2.507 18.719q1.05.816 1.225 2.04.117 1.225.117 2.625 0 .875.058 1.808 0 .99.292 1.866.816-.467 1.34-1.458t1.05-1.866q.467-.817 1.342-.992-.234-1.224.816-2.099.991-.816 1.866-1.341.467-.292.642-.408-.234-.175-.117-.759.117-.291.117-.466-1.167-.117-2.158.058-1.05.234-1.924.467-.409.058-.758.116-.409.117-.759.175-.233.467-.758.409-.583-.059-1.108-.234-.466-.175-.816-.233-.408-.058-.467.292M61.53 22.995q.058-.642.642-.875.583-.291 1.224-.525 1.808.408 2.741 1.866.933 1.4 1.4 3.208.408 1.807.874 3.207-1.108-.7-2.332-1.283-1.225-.525-2.216-1.283-.992-.7-1.633-1.75-.642-.99-.7-2.565M56.69 59.15q1.341.117 2.682 0 1.283-.117 2.683-.233.933-.117 1.924-.234.992-.058 2.1-.116-.35-.642-.467-1.458l-.35-1.633q-.874 0-1.69.058-.817.117-1.634.175-1.108.175-2.216.234-1.166.058-2.39-.059-.176.817-.409 1.575t-.233 1.691m11.72-13.587q.933-.409 1.633-.234t1.166.7q.758.817 1.108 2.1.35 1.34.467 2.274-.817.35-1.458 0-.525.466-.7 1.341t-.991 1.108q-1.516-1.166-1.983-3.266-.525-2.099.758-4.023M54.24 23.81l.466-.466q.234-.292.525-.525 4.14 2.1 5.248 7.056-1.282-.058-2.799-.7-1.574-.583-2.624-1.924-1.05-1.283-.816-3.44M47.534 57.75q.874.409 1.4 1.05t1.515.933q-.058-.525-.408-.758-.35-.175-.408-.641.175-.467.758-.584.583-.058 1.108-.233.35-1.108.758-2.332t1.341-2.333q-.991-.175-1.75-.583-.757-.35-1.574-.642l-1.632 2.8q-.817 1.457-1.108 3.323m-15.629 5.89q.233-.933.933-.933.7.058 1.167-.291 1.574 1.4 3.265 2.682t2.566 3.382q-1.808-.116-3.499-.583T33.48 66.44q-1.225-.991-1.575-2.799m11.896-19.71q-.058.758 0 1.4.059.7.409 1.049 2.565-.35 5.131-.292t4.899-.583v-1.458q-.7-.233-1.691-.116-1.05.116-2.216.291-.875.175-1.75.292-.933.117-1.75.117t-1.574-.117q-.816-.117-1.458-.583m-.058-2.858q-.058.292-.058.875-.059.642.291.642.525-.059 1.108-.175l1.05-.117q2.333-.292 4.549-.583 2.216-.233 3.557-.175v-1.691q-2.683.175-5.365.525t-5.132.7m-2.04-13.821q-.176-.467-.118-.758t.234-.525q.116-.175.233-.408.058-.234.058-.525 1.983.116 3.208 1.691 1.224 1.633 1.807 3.557-1.516.058-2.974-.991-1.516-.992-2.449-2.041m13.354 21.343q1.458-.058 2.566 1.108 1.05 1.166 1.75 2.333.058-1.108 0-2.158-.059-.991-.117-1.808-.058-.175-.058-.291-.35.175-.759.175-.466 0-.933-.059-.7-.058-1.34 0t-1.109.7m-.816.816q-.408.642-.175 1.108t.525.933q.116.175.291.35.117.234.175.467-.058.35-.35.408-.35.117-.466.35.058 0 .116.058.642.175 1.983.467 1.283.35 2.216-.292-1.516-.525-2.624-1.458-1.166-.874-1.691-2.39m4.548 3.848q.234-.058.583-.116t.467-.292q-.058-.058-.117-.233-.058-.117-.116-.292-.117-.116-.408-.058.116.291.058.35-.117.116-.233.175-.292.175-.234.466"/>
</svg>
