<svg xmlns="http://www.w3.org/2000/svg" viewBox="0 0 100 100">
    <defs>
        <linearGradient id="1_ELEPHANT_svg__a" x1="16.913" x2="82.09" y1="-845.7" y2="-845.7" gradientTransform="matrix(1 0 0 -1 0 -796)" gradientUnits="userSpaceOnUse">
            <stop offset="0" stop-color="#f9da9c"/>
            <stop offset=".043" stop-color="#fbe0a1"/>
            <stop offset=".067" stop-color="#fce6a6"/>
            <stop offset=".145" stop-color="#f4d593"/>
            <stop offset=".193" stop-color="#f5d797"/>
            <stop offset=".243" stop-color="#f7dda4"/>
            <stop offset=".263" stop-color="#f9e1ab"/>
            <stop offset=".329" stop-color="#f7dfa8"/>
            <stop offset=".383" stop-color="#f2d89e"/>
            <stop offset=".398" stop-color="#efd599"/>
            <stop offset=".461" stop-color="#f2d795"/>
            <stop offset=".615" stop-color="#efda9c"/>
            <stop offset=".735" stop-color="#f6e5ad"/>
            <stop offset=".773" stop-color="#f9e9b4"/>
            <stop offset=".822" stop-color="#f7e1a6"/>
            <stop offset=".887" stop-color="#f5db9b"/>
            <stop offset=".956" stop-color="#f4d997"/>
            <stop offset=".967" stop-color="#f4da9c"/>
            <stop offset="1" stop-color="#f4db9e"/>
        </linearGradient>
    </defs>
    <path fill="url(#1_ELEPHANT_svg__a)" stroke="#63451a" stroke-miterlimit="10" stroke-width="1.01" d="M11.5 5.5v5.2L22 84.2l27.5 9.7L77 84.2l10.5-73.5V5.5Z" transform="translate(.552 3.617)"/>
    <path fill="#63451a" fill-opacity=".75" d="m77.052 82.317-27 9.7-27-9.7-10.5-72.2v4.7l10.5 72.7 27 9.6 27-9.6 10.5-72.7v-4.7Z"/>
    <path d="M26.584 25.502q.466.059.816-.116.292-.117.583-.35.175-.117.409-.233.175-.117.408-.117 1.924.117 3.849.642 1.924.583 3.149 1.632.524.467 1.224 1.283t1.05 1.691q1.4 1.75 2.74 3.5 1.342 1.807 2.683 3.556-.233-2.857-.116-5.656.058-2.74.816-5.015.7-2.158 2.1-3.79 1.34-1.692 3.615-2.625 1.633.642 3.674 1.225 1.982.525 3.79 1.458 1.75.933 2.857 2.566l.467-.234q.233-.116.408-.233 1.108-.583 2.158-.991 1.05-.467 2.158-.292 1.05.117 2.157 1.283 0 .35-.291.35-.292.058-.642.058h-.466q-3.79 3.266-8.164 6.182-4.374 2.974-8.165 5.831-.233.758-.466 1.166-.233.467-.525.817.35.291 1.05.058.641-.175 1.108-.408.991-.408 1.866-1.225t1.866-1.458q3.032-1.982 6.298-3.79 3.207-1.75 6.59-3.44.583 0 1.516.174.874.234 1.632.525.7.292.934.467-2.158.758-4.024 1.75-1.925.99-3.324 2.448-.175-.058-.467.059-.233.175-.35-.059-1.924 1.633-4.14 2.858-2.274 1.283-4.374 2.624-2.157 1.4-3.673 3.324.116.058.583 0 .408 0 .7-.117.99-.408 1.982-1.341.933-.875 2.216-1.516 1.458-.758 3.266-1.341 1.808-.525 3.499-1.108.408-.117.816-.292l.7-.35q1.166-.525 2.39-.933 1.167-.408 2.858-.058.059.758.7.875.642.174.933.7 0 .35-.233.35-.117 0-.233.058t-.117.35q-2.333.174-4.607 1.107-2.333.992-3.965 2.333-1.983.7-3.85 1.458t-3.09 2.157q.35.292.933.234l1.05-.117.466-.117h.409q0-.35-.059-.7-.116-.35-.175-.7.292-.116.584-.174.291 0 .641-.408 1.4.525 2.158 1.458.7.991.991 2.099.408 1.458.408 3.09t.233 2.975q.933.408 2.041 1.574 1.108 1.225 2.1 2.333-.35.233-.933.233-.642.058-.875.583-.583-.233-.991-.175-.409.117-.933.292-.234.058-.525.116-.292.117-.642.175-1.166.234-2.507.234-1.4 0-2.8-.059-1.574-.058-2.915-.058-1.4.058-2.216.408-1.166.467-1.633 1.575t-.816 2.39q-.35 1.342-.992 2.392.584.408 1.517.408.874 0 1.866-.117.874-.058 1.69-.116.759 0 1.284.35 1.75-.992 4.082-2.508 2.274-1.458 4.723-2.858 2.45-1.34 4.665-2.099 2.275-.758 3.441-.117t2.333 2.042q-2.041.408-3.79 1.107-1.809.7-3.383 1.575-2.391 1.283-4.49 2.74-2.158 1.459-4.666 2.625.117.7.584 1.05.408.408.874.758.409.35.583.933h-.7q-.35 0-.7-.059-1.515 0-3.031-.116t-2.741-.642q-1.225-.466-1.866-1.632-.933-.35-1.691-.117-.817.291-1.575.7-.408.233-.816.408t-.817.233q-1.866.292-3.324-.466-1.516-.7-2.857-1.866 0-1.05.525-1.575.525-.466.874-1.166 1.633-.292 2.391-1.458.7-1.166 1.458-2.333.233-.408.7-.874l.525-.525q-1.75-.117-3.674-.175-1.924 0-4.082.233-.175.058-.175.233t-.058.35q-1.866-.291-3.674-.641t-3.207-1.225-1.983-2.799q1.108-.525 2.45-.875 1.282-.291 2.273-.933.35-1.982 1.225-4.023.816-1.983 2.158-3.5 1.283.35 3.265.467 1.925.175 3.907.058 1.983-.058 3.5-.408.116-.991-.409-1.516-.583-.525-1.341-.991-.817-.408-1.691-.933-.933-.525-1.517-1.458-2.39.641-4.315 1.574-1.983.992-3.44 2.45-.059.291.058.524.058.292.175.525.116.292.175.525.058.292-.175.583-1.516-.233-3.09-.7-1.575-.408-2.917-1.224.059-.292 0-.467l-.233-.35q-.058-.175-.116-.408-.117-.175-.059-.525 3.033-1.516 5.948-2.274 2.858-.758 5.307-2.216l-1.05-.816q-1.05-.817-2.157-1.633-1.167-.817-2.8-1.05-.524-.583-1.224-1.224-.758-.584-1.225-.117-1.224-1.05-2.915-2.1-1.75-1.049-2.8-2.332-.758-.933-.874-1.983t.758-2.39M39.82 56.35q1.108.233 2.275.117 1.166-.059 2.332-.175.875-.117 1.75-.175.816-.059 1.632-.059.292-1.224.35-3.149 0-1.924.175-3.557-.641-.233-1.516-.175t-1.808.175q-1.108.117-2.157.175t-1.866-.291q-.059.816-.234 1.574t-.408 1.516q-.291.933-.466 1.925-.234.991-.059 2.099m11.605-7.231q.35.641.35 1.574 0 .992-.058 1.983-.059.875-.059 1.691t.233 1.458q1.983.117 3.966-.116 1.924-.234 3.207-.934.175-.466.175-1.34-.058-.875-.116-1.867-.059-.7-.059-1.458-.058-.758-.058-1.458-2.391.059-4.49.117-2.158.117-3.091.35m-3.44-15.745q3.032-1.458 5.773-3.499 2.682-1.983 5.423-3.324-.292-.875-1.691-1.05-1.458-.174-2.624-.116-1.517.116-2.741.641-1.283.583-2.216 1.4-1.341 1.224-1.866 2.857t-.059 3.091"/>
</svg>
