<svg xmlns="http://www.w3.org/2000/svg" viewBox="0 0 100 100">
    <defs>
        <linearGradient id="1_FALCON_svg__a" x1="16.913" x2="82.09" y1="-845.7" y2="-845.7" gradientTransform="matrix(1 0 0 -1 0 -796)" gradientUnits="userSpaceOnUse">
            <stop offset="0" stop-color="#f9da9c"/>
            <stop offset=".043" stop-color="#fbe0a1"/>
            <stop offset=".067" stop-color="#fce6a6"/>
            <stop offset=".145" stop-color="#f4d593"/>
            <stop offset=".193" stop-color="#f5d797"/>
            <stop offset=".243" stop-color="#f7dda4"/>
            <stop offset=".263" stop-color="#f9e1ab"/>
            <stop offset=".329" stop-color="#f7dfa8"/>
            <stop offset=".383" stop-color="#f2d89e"/>
            <stop offset=".398" stop-color="#efd599"/>
            <stop offset=".461" stop-color="#f2d795"/>
            <stop offset=".462" stop-color="#f2d795"/>
            <stop offset=".527" stop-color="#f2d795"/>
            <stop offset=".538" stop-color="#f2d795"/>
            <stop offset=".538" stop-color="#f2d795"/>
            <stop offset=".615" stop-color="#efda9c"/>
            <stop offset=".735" stop-color="#f6e5ad"/>
            <stop offset=".773" stop-color="#f9e9b4"/>
            <stop offset=".822" stop-color="#f7e1a6"/>
            <stop offset=".887" stop-color="#f5db9b"/>
            <stop offset=".956" stop-color="#f4d997"/>
            <stop offset=".967" stop-color="#f4da9c"/>
            <stop offset="1" stop-color="#f4db9e"/>
        </linearGradient>
    </defs>
    <path fill="url(#1_FALCON_svg__a)" stroke="#63451a" stroke-miterlimit="10" stroke-width="1.01" d="M11.5 5.5v5.2L22 84.2l27.5 9.7L77 84.2l10.5-73.5V5.5Z" transform="translate(.635 3.264)"/>
    <path fill="#63451a" fill-opacity=".75" d="m77.135 81.964-27 9.7-27-9.7-10.5-72.2v4.7l10.5 72.7 27 9.6 27-9.6 10.5-72.7v-4.7Z"/>
    <path fill="#a00" d="M23.724 29.231q1.225-.233 1.983-.583.758-.292 2.041-.292-.116-1.4.408-3.382.525-1.924 1.633-3.615 1.108-1.75 2.858-2.508 4.198-.583 6.53.991t2.8 4.2q-.466.057-.991 0-.583 0-1.167-.06-.35-.058-.7-.058-.408-.058-.757-.058-.817 0-1.4.233-.642.292-.933 1.05-.233-.058-.117-.233l.059-.175q-.525-.117-.817.233-.291.408-.525.875l-.291.583q-.175.292-.408.467.116.233.35 0 .174-.234.35-.525l.116-.292q-.058.292-.175.525l-.233.466q-.35.642-.525 1.342-.175.758.408 1.924 5.89-.291 11.255-.525 5.365-.175 9.913-1.108-1.224-.933-2.39-1.924-1.225-.991-1.575-2.8.933-.757 1.983-.699.991.058 1.866.641 1.283.817 2.1 2.333.816 1.575.816 2.8-.584.116-1.05.057l-.467-.058q.642.408 1.4.7.758.35.991 1.166-.466.292-1.283.234-.874 0-1.224.408.408.525.874.933.409.466.642 1.108l-.117.7-.233.816q-.292 1.108-.467 2.333t.175 2.332q.175.7.759 1.108t1.108.816q.466.409.524 1.05-.991.292-1.982.467t-1.75.583q-.583.291-1.05.758t-.7 1.225q0 .758.584 1.108l.583.408q-.117-.933.175-1.575.233-.583.583-1.166 2.041.408 2.624 2.04.525 1.692.117 3.675.117 0 .583-.175.408-.233 1.108-.408.642-.175 1.283.116.175-.641.641-2.1t.467-2.915q.292 0 .35.292 0 .116.116.116-.116-.641.117-1.108.175-.408.7-1.05-.058-.174-.525-.174h-.117q0-.117.175-.233.35-.175 0-.35.525-.292.642-.584.058-.291.058-.524 0-.175.117-.35.058-.175.408-.292.117-.291-.233-.35t-.234-.408q.525-.117.467-.525t.583-.641q.058-.583-.291-.408l-.35.233q.175-.35.466-1.05t.758-1.05q-.466-.233 0-.7.408-.407 1.05-.524v-.117q-.117-.583-.467-.408-.175-.233.234-.583.35-.35.758-.642.35-.233.466-.35 0-.758.467-1.516.408-.758 1.4-1.05 0-.116-.059-.29-.117-1.05 0-1.809.117-.7 1.225-1.166 0-.233-.234-.058l-.233.116q-.175.117-.35 0 .234-.35.642-.583.35-.233.816-.408-.116-.35-.466-.117l-.409.292q.059-.408.409-.816.291-.409.408-.525.291-.292.7-.35.35-.058.35-.817 0-.116.408-.233.408-.175.641-.408 0-.058.058-.058.934-.933 1.808-1.458.817-.525 2.158.291-.933 1.342-2.274 2.275t-1.866 2.216h.291Q73.76 27.715 73 29.23q-.816 1.575-1.924 2.391.467.175.292.408-.175.292-.467.583l-.35.467q-.233.233-.291.466 0 .117.233.059.175-.059.233.116-.758 2.333-1.633 5.307-.933 3.032-1.749 6.24-.875 3.265-1.283 6.181-.525 3.79.933 6.006 1.458 2.275 5.132 4.024-.059.35.233.583.292.292.641.583.35.234.7.525.292.292.408.758-.291 0-.35.175t0 .35q0 .35-.233.408-4.84-.641-9.447-.408-4.665.234-9.738.642l-1.866.116q-.933.117-1.866.175-.292.175-.175.875.058.7.233.875 1.05.641 2.158.933 1.05.35 2.04.758.934.466 1.692 1.4-1.167.466-2.566.758t-2.74.233q-1.692-.059-2.975-.758-1.341-.642-1.866-2.275.7-.35.933-1.108t.525-1.4q-1.575-.057-3.266 0-1.69.117-3.44.234-2.216.117-4.49.175-2.275.117-4.607-.058-.234.058-.234.466t-.175.467l-3.032-.583q-1.516-.234-2.74-.817-1.225-.525-1.809-1.69.409-.934 1.108-1.284t1.691-.35q.584 0 1.283.059.7.116 1.458.233 1.283.175 2.683.291 1.341.175 2.624-.116.117-.175.117-.35v-.35q0-.292.058-.583 0-.292.233-.642-1.458-.35-2.74-.524-1.342-.175-2.45-.525-1.166-.35-1.983-1.283 2.216-.642 4.2-.642t4.78-.35q.118-.291-.116-.524-.116-.175-.116-.409-2.041 0-3.85-.233-1.865-.175-2.623-1.341.175-.292.933-.35t1.75-.058 1.924-.117q.874-.058 1.34-.408-.116-.408-.757-.467t-1.05 0q-1.4-.233-2.682-.524t-2.391-1.108q.991-.35 2.216-.467 1.166-.058 2.565-.058.525 0 1.05-.059h.991q.175-.233.234-.641 0-.408-.059-.7-1.749.817-4.14.233-1.341-.291-2.39-.933-1.109-.583-1.634-1.4 5.19-.407 10.439-.524 5.19-.058 9.213-.875.642.35 1.225.758.525.409 1.166.7.059.292-.116.408-.175.175-.408.234l-.35.175q.466.7.408 1.866t-.175 2.157q-.058.234-.058.35.35-.116.641-.291.233-.175.525-.35.525-.35 1.166-.642.583-.233 1.691-.116.234.641.875.641l.641.058q-.816 1.05-1.807 2.041-1.05.992-1.808 2.041-.816 1.108-.933 2.391-.292.059-.408.175-.175.175-.292.35-.175.175-.35.292-.233.175-.641.175-.059.525-.175 1.05-.175.524-.642 1.049.758.292 2.158.233 1.4 0 2.566-.116l1.108-.059q-.817-.408-1.108-.874t-.35-.933q-.058-.758.525-1.633t1.283-1.75q.583-.7 1.108-1.4.466-.64.641-1.282-.175-1.05-.175-2.216 0-1.108.059-2.333v-.816q-.467.058-1.167 0-.758-.058-1.224-.7-1.4.408-2.741-.291-1.4-.642-1.633-2.158-.991.291-2.1.291-1.166.059-2.274.059-1.632 0-3.09.116-1.516.117-2.508.933-2.39-.233-4.49-.816-2.1-.525-3.499-1.691-.175-.233-.058-.525.058-.233.233-.466l.175-.35q.641-.292 1.574-.409.875-.116 1.692-.35.816-.174 1.224-.7-.116-1.399.175-2.857t.933-1.75q1.808-.116 4.665-.349 2.8-.175 5.832-.35t5.54-.233q0-.233.116-.408l.117-.175q-3.09-.35-6.24-.175t-6.414.408q-2.1.175-4.257.292-2.216.116-4.49.175-.234.058-.175.291 0 .292-.234.292-1.982-.175-4.082-.583T23.9 34.77q.234-.758 1.4-.933 1.166-.117 1.983-.117l3.907-.116h3.849q4.665-.059 9.272-.175 4.548-.117 9.272-.642.058-.583-.234-.991-1.283.058-2.74.117-1.458.116-2.974.233-3.266.175-6.707.35t-6.414.116q-.467.117-.875.35l-.816.467q-1.808-.35-3.674-.583-1.925-.175-3.324-.875-1.75-.816-2.1-2.74m35.98-6.532q.117-.292.292-.292.175-.058.35-.058.233 0 .408-.058t.234-.409q4.956 1.867 6.181 7.523-.117.233-.467.175-.35 0-.35.233-1.632-.583-3.382-1.458T60.288 26.2q-.583-.758-.758-1.633t.175-1.866m-2.333 36.388q-.35.817-.233 1.516.058.7.875 1.167.874-.233 1.69-.292h1.459q1.108 0 2.04-.175.875-.116 1.633-.816-1.4-.408-2.04-1.633-.642-1.166-.992-2.566-.408-1.4-.991-2.624-.234.7-.875 1.575-.7.933-1.4 1.924-.758.991-1.166 1.924m-13.47-34.522q.058-.467.35-.583t.64-.175q.35 0 .526-.058 3.732 1.807 5.073 5.481-2.333-.058-4.199-1.224-1.924-1.167-2.39-3.441m-6.182.875q1.458-.525 2.74.116 1.225.7 2.042 1.866t1.108 2.1q-1.166.058-2.624-.35-1.517-.35-2.508-1.283-1.05-.875-.758-2.45m3.616 13.53q-.117.525-.059.991 0 .525.525.758 1.516-.175 3.557-.466t3.907-.467q.467-.058.933-.058.409 0 .817.058.758 0 1.4-.058.583-.059.932-.408-.408-.759-1.516-.817-1.108 0-2.04.058-.526.059-.759.059l-1.4.116q-.7.117-1.34.175-1.4.175-2.683.292t-2.274-.233m.291 3.265q-.291.525-.116.992.116.466.408.933.816-.292 2.449-.35 1.574-.058 3.382-.117t3.324-.35q.933-.175 1.633-.525.7-.291.933-.874-1.05-.117-2.274 0-1.283.175-2.624.408l-2.566.35q-1.283.175-2.391.058-.292 0-.525-.116l-.583-.234q-.35-.175-.642-.291-.291-.059-.408.116m-1.75 20.527q.292-.058.642-.058.35.058.7.058.583 0 1.166-.058.525 0 .875-.175-.467-.817-.175-1.75.233-.874.991-1.166h-1.108q-1.108 0-2.099.233-.408.584-.7 1.283t-.291 1.633m.525-11.663q1.108-.233 2.39-.291 1.283 0 2.275-.234.933-.175 1.283-.758-1.517-.175-2.916-.233-1.458-.058-3.09.175zm.058 2.858q.7.233 1.4.175t1.516-.117q.583-.117 1.283-.175.641-.058 1.4 0l.174-.35q.117-.175.175-.35t0-.466q-.525.175-1.4.175h-2.74q-.758 0-1.283.233t-.525.875m.116 2.857q.642.35 2.275.35t2.974-.058q.233 0 .466-.059h.467q.058-.291-.117-.525-.175-.291-.116-.583-.525.234-1.225.234h-1.516q-.992 0-1.925.058t-1.283.583"/>
</svg>
