<svg xmlns="http://www.w3.org/2000/svg"  viewBox="0 0 100 100">
    <defs>
        <linearGradient id="1_GOBETWEEN_svg__a" x1="16.913" x2="82.09" y1="-845.7" y2="-845.7" gradientTransform="matrix(1 0 0 -1 0 -796)" gradientUnits="userSpaceOnUse">
            <stop offset="0" stop-color="#f9da9c"/>
            <stop offset=".043" stop-color="#fbe0a1"/>
            <stop offset=".067" stop-color="#fce6a6"/>
            <stop offset=".145" stop-color="#f4d593"/>
            <stop offset=".193" stop-color="#f5d797"/>
            <stop offset=".243" stop-color="#f7dda4"/>
            <stop offset=".263" stop-color="#f9e1ab"/>
            <stop offset=".329" stop-color="#f7dfa8"/>
            <stop offset=".383" stop-color="#f2d89e"/>
            <stop offset=".398" stop-color="#efd599"/>
            <stop offset=".461" stop-color="#f2d795"/>
            <stop offset=".615" stop-color="#efda9c"/>
            <stop offset=".735" stop-color="#f6e5ad"/>
            <stop offset=".773" stop-color="#f9e9b4"/>
            <stop offset=".822" stop-color="#f7e1a6"/>
            <stop offset=".887" stop-color="#f5db9b"/>
            <stop offset=".956" stop-color="#f4d997"/>
            <stop offset=".967" stop-color="#f4da9c"/>
            <stop offset="1" stop-color="#f4db9e"/>
        </linearGradient>
    </defs>
    <path fill="url(#1_GOBETWEEN_svg__a)" stroke="#63451a" stroke-miterlimit="10" stroke-width="1.01" d="M11.5 5.5v5.2L22 84.2l27.5 9.7L77 84.2l10.5-73.5V5.5Z" transform="translate(8.581 11.94)scale(.8417)"/>
    <path fill="#63451a" fill-opacity=".75" d="m72.971 78.182-22.726 8.164-22.726-8.164-8.838-60.77v3.955l8.838 61.192 22.726 8.08 22.726-8.08 8.838-61.192v-3.956Z"/>
    <path d="M25.46 54.45q-.15-.25.05-.5.05-.1.1-.25.05-.099 0-.299.898-.599 1.796-.849.85-.249 1.497-.548.6-.249.85-1.047.048-.2.098-.5v-.549q-.05-.299-.05-.598 0-.3.1-.6.35-1.546.898-3.142.55-1.547.65-2.945.349.05.698-.15.299-.15.25-.549.149-.1.648 0h.5q.249 0 .448-.15.449.65 1.198.9.698.248 1.596.298.799 0 1.697-.1t1.746-.249q.6-.05 1.148-.15l.998-.1q0-1.547-.05-3.094-.05-1.496-.05-2.993 0-1.647.2-3.642.15-1.946.648-3.843.45-1.946 1.347-3.543.5.05.85.898.299.85.498 2.046.15 1.149.25 2.246.1 1.098.1 1.647v7.235q0 1.745.099 2.993 1.447 0 2.495-.149.998-.15 1.946-.349.599-.15 1.248-.3.648-.1 1.347-.15v-1.047q.998-.699 1.996-.2.748.4 1.396 1.148.65.748 1.148 1.247v.05q-.149.35-.249.749-.1.449.25.948-.05.2-.35.15h-.299q-.3 1.597-.15 3.094.15 1.547.55 3.143.498.849 1.246 1.447.75.6 1.448 1.247.399.35.998.948l.549.6V53.85q0-.55-.05-1.148v-1.747q-.05-.898 0-1.896.05-1.047.05-2.195-.05-1.098-.05-2.196-.05-1.347-.05-2.595t.1-2.345v-.3q0-.299.1-.648.099-.3.548-.599-.05-.2-.25-.15-.248.05-.248-.199-.2-2.445-.3-5.19-.1-2.694-.45-4.64.799-.5 1.398-.4t1.098.6q.798.848 1.347 2.345.499 1.497 1.047 2.445-.448.249-.548 1.047-.15.799-.2 1.797-.05 1.047-.15 1.946l-.1.898q-.1.5-.548.698 0 .2.25.151h.249q0 .15-.1.3-.1.148-.2.248-.1.2-.2.35-.15.2-.1.5.05.197.15-.102l.1-.249q.15 1.297.15 3.095t-.05 3.592v3.094q.649-1.198 1.647-2.196.998-.948 1.397-2.096.5-.15.798-.548.3-.35.8-.55.448-.848.947-1.296.5-.4.848-.65.45-.3.948-.349.45 0 .5-.698.947.25 1.397.298.399.05.549.7-4.142 4.44-7.086 9.68t-5.49 11.028q.2.449.5.798.25.399.499.698.449.5.749.998.249.55-.1 1.447-1.148-.05-2.295-.299-1.198-.2-2.696-.349-.399-.749-.998-1.248-.648-.449-1.147-1.147 1.047-1.896 2.345-4.541t2.895-4.79q-.6-.55-1.048-.35-.5.2-.998.6-.25.148-.55.348t-.598.3q-1.198.398-2.595.448-1.447.05-2.894 0-1.646 0-3.293.05-1.647.1-3.143.65.049 2.694.449 5.239.399 2.594 1.396 4.041-.198.35-.05.65.1.298.3.598t.349.648q.1.35-.1.85-.2.248-.5.05-.048-.05-.098-.05-1.148-.899-2.345-1.398-1.248-.5-2.346-1.148t-1.796-1.996q.2-1.396.25-2.495.05-1.047.05-2.145 0-1.047.1-2.445-.949-.35-2.097-.35-1.198 0-2.395.05-.698.05-1.397.05-.698.05-1.347 0-.25.749-.798.799-.6.1-1.298.05-.35-.05-.698-.05-.4 0-.75.1-.05-.35-.298-.4-.3 0-.55.05h-.1q-.199-.2-.1-.35l.05-.149q-1.596-.799-2.594-1.547-.998-.698-2.545-1.497m8.833.05q.548.55 2.045.648 1.447.151 3.144 0 1.646-.149 2.844-.399 0-.948.05-1.846 0-.898.05-1.796.1-1.397.15-2.894 0-1.447-.15-3.094-.749.3-1.847.349-1.097.05-2.145.05h-1.547q-.748.05-1.247.2.05.3-.1.649l-.3.698-.25.749q-.1.299.2.299-.1.549-.15 1.148t-.298.948q-.1-.2 0-.45l.099-.499q.15-.548.05-.598-.05.2-.1.349l-.1.399q-.2.599-.3 1.148-.148.599-.048 1.198.099-.05.149-.549 0-.3.1-.599.05-.25.299-.25-.598 1.797-.598 4.141zm11.826-9.43q.05 1.396.199 3.193.1 1.796.2 3.493.1 1.745.2 2.794 2.444 0 4.14-.3 1.647-.299 3.893-.848-.2-.549-.3-1.347-.149-.798-.299-1.497-.15-.698-.399-.898.15-.3.1-.45-.05-.1-.15-.25-.1-.098-.15-.298-.1-.15.15-.55l.05.3q0 .3.15.35.05-.1.05-.65-.05-.498-.15-.947-.15-.45-.25-.45l.05.45q.05.449-.2.399v-1.846q-.049-.648-.349-1.047H50.81q-1.297 0-2.495.049-1.247.05-2.195.349z"/>
</svg>
