<svg xmlns="http://www.w3.org/2000/svg" viewBox="0 0 100 100">
    <defs>
        <linearGradient id="1_HORSE_svg__a" x1="16.913" x2="82.09" y1="-845.7" y2="-845.7" gradientTransform="matrix(1 0 0 -1 0 -796)" gradientUnits="userSpaceOnUse">
            <stop offset="0" stop-color="#f9da9c"/>
            <stop offset=".043" stop-color="#fbe0a1"/>
            <stop offset=".067" stop-color="#fce6a6"/>
            <stop offset=".145" stop-color="#f4d593"/>
            <stop offset=".193" stop-color="#f5d797"/>
            <stop offset=".243" stop-color="#f7dda4"/>
            <stop offset=".263" stop-color="#f9e1ab"/>
            <stop offset=".329" stop-color="#f7dfa8"/>
            <stop offset=".383" stop-color="#f2d89e"/>
            <stop offset=".398" stop-color="#efd599"/>
            <stop offset=".461" stop-color="#f2d795"/>
            <stop offset=".615" stop-color="#efda9c"/>
            <stop offset=".735" stop-color="#f6e5ad"/>
            <stop offset=".773" stop-color="#f9e9b4"/>
            <stop offset=".822" stop-color="#f7e1a6"/>
            <stop offset=".887" stop-color="#f5db9b"/>
            <stop offset=".956" stop-color="#f4d997"/>
            <stop offset=".967" stop-color="#f4da9c"/>
            <stop offset="1" stop-color="#f4db9e"/>
        </linearGradient>
    </defs>
    <path fill="url(#1_HORSE_svg__a)" stroke="#63451a" stroke-miterlimit="10" stroke-width="1.01" d="M11.5 5.5v5.2L22 84.2l27.5 9.7L77 84.2l10.5-73.5V5.5Z" transform="translate(.54 3.011)"/>
    <path fill="#63451a" fill-opacity=".75" d="m77.04 81.711-27 9.7-27-9.7-10.5-72.2v4.7l10.5 72.7 27 9.6 27-9.6 10.5-72.7v-4.7Z"/>
    <path d="M23.074 40.876q.7-.875 2.216-1.75 1.516-.816 3.383-1.107.583-2.1.874-4.549.292-2.39.7-4.782t1.166-4.432 2.216-3.382q.642-.583 1.75-1.225 1.05-.641 2.216-1.108t2.1-.524q1.807-.117 3.09.583t2.449 1.574l1.05.7q.524.35 1.05.641.932 1.517 2.215 2.8 1.225 1.34 2.974 2.04-1.224.409-2.566.117t-2.74-.758q-1.225-.408-2.45-.7t-2.39-.175q-1.225.175-2.216.992t-1.866 1.808q-.934 1.05-1.808 1.632-.059-.408.525-.991.524-.583 1.108-1.108l.641-.641q.233-.234.233-.35-1.108.524-1.982 1.516-.933.991-1.167 2.39-.058.234.059.467.058.292.175.583.116.234.174.467t.059.466q-.059.759-.175 1.517l-.35 1.632q-.35 1.633-.583 3.324t.233 3.44q4.665.293 9.447-.174 4.782-.408 9.797-.991 1.225-.117 2.507-.292 1.225-.175 2.508-.291 0-.35.525-.642.466-.292.991-.525.525-.175.7-.35 1.108.817 1.866 1.983.758 1.225 1.75 2.158-.409 1.458-.642 3.557t-.35 4.373q-.116 2.333-.116 4.49-.059 2.217 0 3.908.058 1.633.583 2.682t1.866 1.458q.058.292.175.525.116.292.291.525.234.408.408.816.117.467-.174.992-.467.116-.759 0-.291-.059-.524-.175t-.467-.175-.525-.059q-.233.059-.233.584 0 .466-.175.524-3.44.234-6.94.875t-7.23.875q-2.391.175-5.132.175t-5.074.35q-.933.116-2.215 0-1.342-.117-2.566-.525-1.283-.408-2.1-1.108-.874-.7-.874-1.75 1.34-.116 2.857-.116h3.032q2.1.058 4.14 0 2.042 0 3.675-.35l-.234-.583-.35-.583q-.466-.759-.816-1.692-.35-.874 0-2.216h-.758q-1.225 0-2.274.059t-1.633.641q-2.1-.233-3.674-1.05-1.633-.757-2.216-2.04 2.45-.992 5.19-1.167t5.832-.35q.35-1.05.35-1.75t-.117-1.574v-.233q-3.616.933-6.648.233-3.09-.7-4.374-2.449.292-.525.7-.525t.875.059q.233.058.466.058h.467q2.04-.233 4.14-.583 2.1-.292 4.14-.292.409-.291.467-.933t0-1.4v-1.224q-.758-.058-1.516-.058-.758.058-1.575.116-1.34.059-2.799.059-1.516 0-3.324-.292-1.516.817-3.09.817-1.633 0-3.266-.525-2.158-.7-4.082-2.1-1.983-1.34-3.266-2.857m44.261-14.054q.933-.291 1.633-.117t1.283.584q1.05.816 1.866 2.099.758 1.283 1.75 2.041-.467.758-.292 1.691.117.933.408 1.866.233.817.408 1.516.117.7-.291 1.108-2.041-1.05-3.849-2.332t-2.74-3.324q-.934-1.983-.176-5.132M50.482 59.595q-.116 1.516.059 2.8t.408 2.507q1.516-.175 3.265-.292 1.692-.117 3.15-.525t2.332-1.458q-.466-.524-.583-1.75-.175-1.224.117-1.923-1.517-.117-2.683 0t-2.274.291q-.875.175-1.808.233-.933.117-1.983.117m.234-7.464q-.117.583-.059 1.108v1.166q.059.408.059.816v.875q1.574.058 2.799-.116 1.224-.117 2.449-.35.758-.117 1.574-.234.758-.116 1.692-.175.058-.233.174-.933t.117-1.516q-.058-.758-.291-1.283-2.216.234-4.083.408-1.924.175-4.431.234m-.234-6.823q-.058.641 0 1.108 0 .525.117.991.058.35.117.758v.875q1.224.058 2.274-.175.991-.175 1.983-.408.99-.292 2.04-.525 1.05-.175 2.275-.058-.117-.408-.058-.875l.116-.933q.058-.467.117-.991.058-.467 0-.875-2.158.175-4.316.291t-4.665.817m8.048-13.063q-.525-1.75.291-3.673 2.216.116 3.383 1.574t1.749 3.557q.525 2.158.933 4.14-1.866-.7-3.79-2.157-1.983-1.4-2.566-3.44M42.143 31.02q1.983-.233 3.091.933 1.05 1.224 1.924 2.624.35.525.642.991.291.525.641.933-.058.817.059 1.517.058.758.175 1.34-2.216-.757-4.082-1.924-1.867-1.108-2.45-3.032-.233-.7-.233-1.574-.058-.817.233-1.808m8.164 2.274q-.233-.758-.233-1.574t.408-1.808q1.75.058 3.208 1.224 1.4 1.167 2.157 3.091.758 1.983.467 4.257-.933-.466-2.158-1.166t-2.332-1.691-1.517-2.333"/>
</svg>
