<svg xmlns="http://www.w3.org/2000/svg" viewBox="0 0 100 100">
    <defs>
        <linearGradient id="1_KING_svg__a" x1="16.913" x2="82.09" y1="-845.7" y2="-845.7" gradientTransform="matrix(1 0 0 -1 0 -796)" gradientUnits="userSpaceOnUse">
            <stop offset="0" stop-color="#f9da9c"/>
            <stop offset=".043" stop-color="#fbe0a1"/>
            <stop offset=".067" stop-color="#fce6a6"/>
            <stop offset=".145" stop-color="#f4d593"/>
            <stop offset=".193" stop-color="#f5d797"/>
            <stop offset=".243" stop-color="#f7dda4"/>
            <stop offset=".263" stop-color="#f9e1ab"/>
            <stop offset=".329" stop-color="#f7dfa8"/>
            <stop offset=".383" stop-color="#f2d89e"/>
            <stop offset=".398" stop-color="#efd599"/>
            <stop offset=".461" stop-color="#f2d795"/>
            <stop offset=".462" stop-color="#f2d795"/>
            <stop offset=".527" stop-color="#f2d795"/>
            <stop offset=".538" stop-color="#f2d795"/>
            <stop offset=".538" stop-color="#f2d795"/>
            <stop offset=".615" stop-color="#efda9c"/>
            <stop offset=".735" stop-color="#f6e5ad"/>
            <stop offset=".773" stop-color="#f9e9b4"/>
            <stop offset=".822" stop-color="#f7e1a6"/>
            <stop offset=".887" stop-color="#f5db9b"/>
            <stop offset=".956" stop-color="#f4d997"/>
            <stop offset=".967" stop-color="#f4da9c"/>
            <stop offset="1" stop-color="#f4db9e"/>
        </linearGradient>
    </defs>
    <path fill="url(#1_KING_svg__a)" stroke="#63451a" stroke-miterlimit="10" stroke-width="1.01" d="M11.5 5.5v5.2L22 84.2l27.5 9.7L77 84.2l10.5-73.5V5.5Z" transform="translate(.555 3.577)"/>
    <path fill="#63451a" fill-opacity=".75" d="m77.055 82.277-27 9.7-27-9.7-10.5-72.2v4.7l10.5 72.7 27 9.6 27-9.6 10.5-72.7v-4.7Z"/>
    <path d="M21.119 21.038q.667-1.068 1.868-1.068t2.202.8q8.807 1.002 17.682 1.002 5.137 0 10.275-.467 5.071-.4 10.076-1.535 1.6-.334 2.869-.4 1.2-.134 1.868-.801.467-.467 1.134-.6.6-.2 1.268-.2 2.536 0 4.737 1.334t3.47 3.07q1.268 1.8 1.068 3.068-3.203-.4-6.54-.4-5.07 0-10.075.534-5.07.534-10.142.8-.066 1.402 0 3.537 0 2.135.067 4.537 0 1.735.067 3.47v3.336q1-.133 2.068-.133 1.001 0 2.069.066h1.868q.867 0 1.801-.066 1.135-.067 2.136-.668.934-.6 2.068-.6 1.802 0 3.203 1.067 1.334 1.135 2.268 2.736.935 1.668 1.468 3.136-2.535-.467-5.137-.534-2.67-.066-5.272-.066h-4.737l-3.803.133q-.067 1 0 2.002 0 1 .066 2.001 0 .734.067 1.402v1.534q0 1.268.134 2.87.066 1.668.467 3.135.4 1.535 1.468 2.336 1-.134 2.068-.2h2.135q2.135 0 4.27-.2t3.87-1.468q1.869.333 3.27 1.6 1.401 1.335 2.335 3.07.868 1.802 1.335 3.47-.334.133-.667.2t-.668.067q-1.067 0-3.202-.8t-5.205-.802q-3.136 0-6.272.267-3.136.334-6.205.4-3.537.134-7.273.334T37.8 68.48q-.334.133-.4.4-.134.267-.401.534-2.135 0-3.603-.6-1.468-.535-2.802-1.402-1.402-.867-3.07-1.868 0-.334-.067-.6-.066-.201-.133-.468t-.133-.6q-.134-.334-.134-.734l2.002-.134h2.002q1.734 0 3.536-.133 1.735-.067 3.47-.4.333-.067.6.333.067.133.134.2.4-.667 1.2-.8.801-.067 1.535 0h.534q1 0 1.668-.334.4.133.334.467.934-.067 1.868-.267.867-.133 1.802-.267-.4-1.134-1.135-2.068.467-2.069.534-4.27.067-2.136.067-4.338.067-1.2.067-2.335t.066-2.269h-.734q-.4.067-.8.067-1.535.067-3.203.267-1.735.2-2.336 1.401-1.134-.067-2.735-.4-1.602-.267-3.136-.868-1.535-.533-2.602-1.534-1.068-.934-1.135-2.469.934-.467 1.935-.667 1.001-.134 2.069-.134t2.202-.133q1.067-.067 2.201-.067h.801q.4 0 .8-.067 1.335-.2 3.47-.4 2.069-.133 3.337-.267-.067-2.402.066-4.937.067-2.536.2-4.738.134-1.534.2-2.869v-2.135q-1.067-.134-2.001-.2-1 0-2.002.066h-5.004l-3.67.134q-.534 0-.534.6-.066.6-.533.6-2.603 0-5.138-.666-2.602-.6-4.67-2.069-2.136-1.468-3.27-4.003"/>
</svg>
