<svg xmlns="http://www.w3.org/2000/svg" viewBox="0 0 100 100">
    <defs>
        <linearGradient id="1_LION_svg__a" x1="16.913" x2="82.09" y1="-845.7" y2="-845.7" gradientTransform="matrix(1 0 0 -1 0 -796)" gradientUnits="userSpaceOnUse">
            <stop offset="0" stop-color="#f9da9c"/>
            <stop offset=".043" stop-color="#fbe0a1"/>
            <stop offset=".067" stop-color="#fce6a6"/>
            <stop offset=".145" stop-color="#f4d593"/>
            <stop offset=".193" stop-color="#f5d797"/>
            <stop offset=".243" stop-color="#f7dda4"/>
            <stop offset=".263" stop-color="#f9e1ab"/>
            <stop offset=".329" stop-color="#f7dfa8"/>
            <stop offset=".383" stop-color="#f2d89e"/>
            <stop offset=".398" stop-color="#efd599"/>
            <stop offset=".461" stop-color="#f2d795"/>
            <stop offset=".462" stop-color="#f2d795"/>
            <stop offset=".527" stop-color="#f2d795"/>
            <stop offset=".538" stop-color="#f2d795"/>
            <stop offset=".538" stop-color="#f2d795"/>
            <stop offset=".615" stop-color="#efda9c"/>
            <stop offset=".735" stop-color="#f6e5ad"/>
            <stop offset=".773" stop-color="#f9e9b4"/>
            <stop offset=".822" stop-color="#f7e1a6"/>
            <stop offset=".887" stop-color="#f5db9b"/>
            <stop offset=".956" stop-color="#f4d997"/>
            <stop offset=".967" stop-color="#f4da9c"/>
            <stop offset="1" stop-color="#f4db9e"/>
        </linearGradient>
    </defs>
    <path fill="url(#1_LION_svg__a)" stroke="#63451a" stroke-miterlimit="10" stroke-width="1.01" d="M11.5 5.5v5.2L22 84.2l27.5 9.7L77 84.2l10.5-73.5V5.5Z" transform="translate(2.261 3.432)"/>
    <path fill="#63451a" fill-opacity=".75" d="m78.761 82.132-27 9.7-27-9.7-10.5-72.2v4.7l10.5 72.7 27 9.6 27-9.6 10.5-72.7v-4.7Z"/>
    <path d="M22.414 50.405q.059-.933.992-1.4t2.099-.641q.525-1.575.466-3.557-.116-1.925-.35-4.024-.058-.466-.058-.991l-.116-.933q-.234-2.566-.059-5.074.175-2.449 1.516-4.315 1.4-.175 2.8.525 1.34.7 2.39 1.808.992 1.108 1.458 2.099.059-1.4.117-3.499 0-2.041.175-4.315.117-2.275.466-4.374.292-2.158.933-3.674.175-.408.584-.466.35-.117.466.466.467 2.45.7 5.482.175 2.974.175 6.006v7.056q-.058 3.091-.058 6.298t.233 6.59q.408 0 .816-.058.35 0 .7-.117l.816-.117q.409-.058.933 0-.175-1.458-.175-2.799v-4.84q-.058-1.108-.233-2.274.408-1.283.467-2.333.058-.991.058-2.04 0-.992.058-2.1.059-1.05.35-2.45.292.117.583-.058.234-.175.467-.175.7.817 1.458 1.575.7.816 1.69 1.341-.116.233-.116.525t.059.641q.058.234.116.525v.642q-.291 0-.583.116l-.233.117q-.175.058-.408 0-.584 2.8-.584 5.773t.117 5.365v.583q.583.817 1.341 1.458.7.642 1.283 1.458-.116.175-.466.408-.233.175-.35.35-.175.175.117.642-.584.291-1.517.291-.991.058-2.04 0-1.225 0-2.45.058t-2.158.409q0 .583.117 1.924.058 1.341.233 2.74t.525 2.1q1.516-.525 3.207-.35t3.033 1.05 1.808 2.45q-3.674.466-7.29.466t-7.406.291q-.641.525-1.866.583t-2.507-.291q-1.283-.292-2.1-.992-.816-.641-.7-1.516 1.167-.7 2.391-.816t2.566-.058q1.283.058 2.566 0t2.624-.584q-.933-.758-1.05-2.157-.174-1.341-.174-3.208v-1.516q-.758-.175-1.808.117-1.05.35-1.458.933-2.274-.35-4.374-1.225-2.157-.874-3.382-1.924m21.168 6.998q0-.234.059-.408 0-.117.116-.234l.117-.35q.058-.116 0-.408 1.283-.408 1.924-1.4.584-.99.875-2.332.408-1.691.525-3.615.117-1.867.641-3.208 2.333-.525 4.316-.583t4.607-.641l-.117-2.974q-1.633.116-3.032.408-1.458.35-2.216 1.283-1.925.466-3.85-.35t-3.265-2.216q-.116-1.283.467-1.633.175.175.525.058l.35-.116q.174 0 .408.058.116-1.166.291-3.324.175-2.1.583-4.257t1.225-3.557q1.166.233 2.683 0 1.516-.175 2.974-.467l1.166-.233q.525-.058.991-.117.35-.116.467-.524.058-.35.233-.642 1.574.583 2.566 1.75.991 1.224 1.75 2.682-.759.933-.759 2.158-.058 1.283-.058 2.449-.058 1.166-.7 1.75.408.291.467.7t.058.874q0 .408.058.758.059.408.408.641-.174.234-.291.525-.117.35-.233.642.233 1.224.233 2.566 0 1.4-.058 2.857-.059 1.691-.059 3.382 0 1.75.35 3.5.175.874.758 1.515l1.05 1.283q.466.642.525 1.516-.525.35-.992.35-.466.059-.933 0h-.816q-.467 0-.933.292-.933.583-1.516 1.808t-1.108 2.566-1.225 2.274q.467.816.875 1.75.35.99 1.05 1.574-.117.408-.35.641t-.35.583q-1.05-.291-2.391-.758-1.4-.466-2.45-1.224-1.05-.7-1.107-1.866 1.34-1.633 2.507-3.616 1.108-1.924 2.624-3.44-.933-.059-1.807.233-.933.291-1.867.641-1.05.408-2.099.7t-2.216 0q-.875-.758-2.04-1.108-1.225-.292-1.984-1.166m16.562 7.756q.058-.467.875-1.4.758-.875 1.224-1.225.992-.758 2.1-1.34 1.05-.584 1.69-1.575-.64-1.167-1.457-2.158-.817-.933-1.4-2.1.234-1.34.234-2.215t-.35-2.158q.233-1.866.116-4.082-.116-2.158-.291-4.548-.059-.467-.059-.992-.058-.466-.116-.991-.234-2.8-.292-5.832t.35-6.123q.175-1.458.933-3.324t1.75-2.974q.583-.583 1.166-.816.583-.292 1.224.058.234.175.35.583t.409.583q.524.35 1.224.467.642.058 1.166.467.933.7 1.633 1.749.642 1.05 1.4 2.158 0 .175-.233.291-.234.059-.117.292l.058.058q.233.117.525.35.233.233.175.583-.816-.525-1.983-1.108-1.224-.525-2.39-.7t-1.867.35q-.7.583-1.05 1.866t-.466 2.858q-.175 1.574-.291 2.857-.292 3.324-.409 6.473-.116 3.207.467 5.015 1.283-1.166 2.216-2.682t1.924-3.033q.992-1.458 2.391-2.566.7-1.166 1.166-2.157.409-.992 1.05-1.808.583-.758 1.866-1.4.117.525.7.817.525.292 1.108.583.525.292.7.816-.817.467-1.283 1.05-.467.642-1.458 1.225 0 .291-.292.874t-.408.7q-.058.059-.233 0-.292-.058-.35.059-.467.524-.991 1.632t-1.108 2.275q-.642 1.166-1.225 1.866-.117.116-.35.116-.291 0-.35.117-.116.117-.058.408 0 .35-.117.583-.291.525-.816.992-.583.466-.758.816-.875 1.516-1.691 3.324t-.758 2.683q.058 1.224.408 1.749.35.583.816.641 1.167.117 2.1-1.632.116 0 .583-.175.408-.175.758-.409.291-.233.116-.466.584-1.166 1.866-1.458t2.508-.117q1.225.234 1.75.409-1.517.758-2.508 1.632-1.05.875-2.158 1.925-1.108 1.108-2.799 2.39.233.292-.116.642-.175.117-.292.292t-.117.466q.583 1.342 1.808 2.333 1.166.991 2.158 2.04.641.7 1.108 1.517t.583 1.925q-2.1-1.108-3.79-2.683-1.75-1.574-3.5-3.09-1.05.582-1.632 1.574-.583 1.05-1.342 1.866.292.758.875 1.166l1.05.817q.466.466.7 1.283-.7-.175-.525.641-.467-.117-.992-.233-.583-.117-1.224-.175-1.283-.233-2.566-.583-1.341-.292-2.1-.992-.816-.641-.7-1.982M50.756 30.11v.35q-.058.175-.058.35-.117 1.458-.117 2.624-.058 1.225 0 2.566 0 1.4.234 3.382 1.107-.233 2.682-.583 1.516-.291 3.09-.525v-.116q.059-2.158.059-4.257 0-2.041-.058-4.14-.583 0-1.167.058-.641.116-1.166.291-.933.175-1.808.234-.874.116-1.69-.234m-20.47 5.249q-.524 2.274-.524 4.957 0 2.74.35 5.306t.874 4.374l2.391-.059q.175-1.866.292-4.373.058-2.508.058-5.015-.058-2.45-.116-4.257-.642-.408-1.575-.583-.933-.117-1.75-.35m20.877 20.702q1.866-.117 3.15-.409t2.682-.933q-.117-.874-.117-1.75-.058-.874-.058-1.807V49.24q0-.992-.175-2.041-2.45-.175-5.307.7-.35.99-.408 2.565-.116 1.575 0 3.15.058 1.574.233 2.449"/>
</svg>
