<svg xmlns="http://www.w3.org/2000/svg" xml:space="preserve" viewBox="0 0 100 100">
    <defs>
        <linearGradient id="1_PAWN_svg__a" x1="23.796" x2="76.297" y1="50.05" y2="50.05" gradientTransform="matrix(1 0 0 -1 0 102)" gradientUnits="userSpaceOnUse">
            <stop offset="0" stop-color="#f9da9c"/>
            <stop offset=".043" stop-color="#fbe0a1"/>
            <stop offset=".067" stop-color="#fce6a6"/>
            <stop offset=".145" stop-color="#f4d593"/>
            <stop offset=".193" stop-color="#f5d797"/>
            <stop offset=".243" stop-color="#f7dda4"/>
            <stop offset=".263" stop-color="#f9e1ab"/>
            <stop offset=".329" stop-color="#f7dfa8"/>
            <stop offset=".383" stop-color="#f2d89e"/>
            <stop offset=".398" stop-color="#efd599"/>
            <stop offset=".461" stop-color="#f2d795"/>
            <stop offset=".462" stop-color="#f2d795"/>
            <stop offset=".527" stop-color="#f2d795"/>
            <stop offset=".538" stop-color="#f2d795"/>
            <stop offset=".538" stop-color="#f2d795"/>
            <stop offset=".615" stop-color="#efda9c"/>
            <stop offset=".735" stop-color="#f6e5ad"/>
            <stop offset=".773" stop-color="#f9e9b4"/>
            <stop offset=".822" stop-color="#f7e1a6"/>
            <stop offset=".887" stop-color="#f5db9b"/>
            <stop offset=".956" stop-color="#f4d997"/>
            <stop offset=".967" stop-color="#f4da9c"/>
            <stop offset="1" stop-color="#f4db9e"/>
        </linearGradient>
    </defs>
    <path fill="url(#1_PAWN_svg__a)" stroke="#63451a" d="M18.8 15.7v5.8l8.7 58.6L50 88.2l22.5-8.1 8.7-58.6v-5.8z" transform="translate(.104 -1.204)"/>
    <path fill="#63451a" d="m72.204 75.096-22.1 8-22.1-8-8.6-60.1v5.2l8.6 58.3 22.1 7.9 22.1-7.9 8.6-58.3v-5.3z" opacity=".75"/>
    <path d="M29.346 53.222q0-.1-.05-.352t-.05-.452q0-.151.251-.252 1.86-.351 3.618-.904 1.709.402 3.97.352 2.211 0 4.623-.1 1.508-.101 3.015-.152t2.965 0q-.251-.452-.603-.703-.402-.251-.854-.503.502-1.256.703-2.562.151-1.307.151-2.614v-1.105q-.05-.503-.05-1.055-.1-1.76 0-3.417.05-1.659.804-3.216-.704.301-.855.954t-.2 1.156q-.905.553-1.91 1.91t-1.81 2.713q.051.251.152.402.1.201.25.352.202.251.353.553.1.301-.201.753-2.06.101-3.82-.954-1.808-1.005-2.16-2.613 1.558-1.608 3.065-3.367 1.457-1.709 3.116-3.317 1.658-1.557 3.768-2.713 1.005-1.257 2.513-2.412 1.457-1.106 3.367-1.86.653-.351 1.357-.753.653-.402 1.306-.855 2.06-1.256 4.221-2.311t4.724-.804q-.05.2-.352.2h-.352q.1.051.251.152.352.15.654.301.301.1.703.05 0 .302.352.402.15.05.302.201.1.1.1.402-.955.1-1.759.603l-1.708 1.005q-.905.503-1.91.603.15-.351.553-.502.402-.201.703-.402-.351-.201-.603-.05-.301.15-.653.351-.251.201-.603.402t-.854.201q-.05.201.15.453.151.15.05.25-.1.051-.25.152l-.302.2q-.553.352-1.055.604-.503.301-.553-.05-.251.1-.703.301-.503.251-.151.553-1.658 1.608-3.618 2.864-2.01 1.307-3.668 2.864-.252 0-.101-.2.05-.101.05-.151t-.351 0q-.151.05-.151.301v.201q1.96-.1 3.367.854 1.356.955 2.26 2.412.855 1.508 1.307 2.915-1.206-.503-2.412-.754-1.256-.251-2.663-.2-.854 2.11-.653 4.924.15 2.864.854 5.377 2.412-.151 4.673-.302 2.211-.15 4.12-.653t3.418-1.709q.955.754 2.16 1.458 1.157.703 2.111 1.557.905.855 1.206 1.96-.452.1-.753 0-.352-.05-.654-.15-.402-.151-.753-.202t-.754.252q-.402-.1-.503-.453-.15-.351-.603-.402-.955 1.056-3.216.905l.402 2.11.402 2.211q1.206.704 2.01 1.81t1.458 2.361q-.603.201-1.86 0-1.306-.2-2.613-.703-1.306-.453-1.86-1.156t-.703-1.658q-.15-.905-.2-1.91 0-.603-.05-1.206t-.202-1.105q-1.156-.252-2.21-.201-1.056.1-2.162.25-.653.101-1.356.152-.704.1-1.458.1-.351.754-.402 1.608-.05.905-.05 1.81.05.451.05.904t-.05.904q.503.201 1.256.653.704.453 1.106 1.056-.804.05-1.307.1-.552.05-1.055.1 0 .403.05.704t.151.603.201.654q.05.351 0 .804 1.005 1.005 1.96 2.11.955 1.156 1.206 2.563-.352-.05-.603 0-.302.05-.553.1-.2.05-.402.05-.2.05-.452.05-1.005 0-1.86-.502-.854-.452-1.658-.954-.804-.453-1.558-.553-.753-.955-.703-1.96 0-1.005.251-2.311l.1-.503q.051-.201.101-.452-2.713.653-5.678.603-3.015 0-5.327-1.458 1.056-1.105 2.865-1.507 1.758-.352 3.869-.503 2.11-.1 4.221-.603.15-.954.251-1.96.05-1.004.402-1.708h-2.21q-2.01-.05-4.322.05t-3.87.955q-2.311-.251-4.422-.754-2.11-.452-3.568-1.557m27.387-9.85q1.055-.402 2.16-1.407 1.056-1.005 2.111-2.11 1.005-1.106 1.96-1.81.352-.3.955-.602t.854-.302q1.005-.05 1.357.603.302.704.302 1.659v.804q-.05.452-.101.854-.05.653-.05 1.256-.05.603 0 1.106-.452 0-1.055.703-1.659-.301-2.664.302-1.005.653-1.91 1.457-.552.502-1.105.955-.603.452-1.306.703-.553-.402-.704-1.206-.2-.754-.301-1.558-.151-.804-.503-1.407m-25.728-1.155q-.402-1.056-.05-1.96.301-.905.703-1.357 2.312.603 4.02 2.06 1.658 1.458 3.166 3.216 1.457 1.81 3.216 3.267v.553q-3.568-.101-6.533-1.609-3.015-1.507-4.522-4.17m28.743-15.628q1.156-.252 1.608-.905-.452.201-.904.352-.503.15-.704.553m-7.286 5.879q.301-.05.754-.352.402-.301.1-.552-.2.25-.452.402-.302.15-.402.502"/>
</svg>
