<svg xmlns="http://www.w3.org/2000/svg" viewBox="0 0 100 100">
    <defs>
        <linearGradient id="1_PHOENIX_svg__a" x1="16.913" x2="82.09" y1="-845.7" y2="-845.7" gradientTransform="matrix(1 0 0 -1 0 -796)" gradientUnits="userSpaceOnUse">
            <stop offset="0" stop-color="#f9da9c"/>
            <stop offset=".043" stop-color="#fbe0a1"/>
            <stop offset=".067" stop-color="#fce6a6"/>
            <stop offset=".145" stop-color="#f4d593"/>
            <stop offset=".193" stop-color="#f5d797"/>
            <stop offset=".243" stop-color="#f7dda4"/>
            <stop offset=".263" stop-color="#f9e1ab"/>
            <stop offset=".329" stop-color="#f7dfa8"/>
            <stop offset=".383" stop-color="#f2d89e"/>
            <stop offset=".398" stop-color="#efd599"/>
            <stop offset=".461" stop-color="#f2d795"/>
            <stop offset=".462" stop-color="#f2d795"/>
            <stop offset=".527" stop-color="#f2d795"/>
            <stop offset=".538" stop-color="#f2d795"/>
            <stop offset=".538" stop-color="#f2d795"/>
            <stop offset=".615" stop-color="#efda9c"/>
            <stop offset=".735" stop-color="#f6e5ad"/>
            <stop offset=".773" stop-color="#f9e9b4"/>
            <stop offset=".822" stop-color="#f7e1a6"/>
            <stop offset=".887" stop-color="#f5db9b"/>
            <stop offset=".956" stop-color="#f4d997"/>
            <stop offset=".967" stop-color="#f4da9c"/>
            <stop offset="1" stop-color="#f4db9e"/>
        </linearGradient>
    </defs>
    <path fill="url(#1_PHOENIX_svg__a)" stroke="#63451a" stroke-miterlimit="10" stroke-width="1.01" d="M11.5 5.5v5.2L22 84.2l27.5 9.7L77 84.2l10.5-73.5V5.5Z" transform="translate(.876 3.364)"/>
    <path fill="#63451a" fill-opacity=".75" d="m77.376 82.064-27 9.7-27-9.7-10.5-72.2v4.7l10.5 72.7 27 9.6 27-9.6 10.5-72.7v-4.7Z"/>
    <path d="M20.476 27.153q.875-3.033 2.741-4.432 1.866-1.458 4.898-.7 2.566.7 4.257 2.216 1.633 1.516 2.8 3.616 1.107 2.157 2.157 4.665.292-.117.758-.35t.758-.35q.525-1.458.409-3.324-.117-1.808.408-3.44.35-1.225 1.283-2.683.933-1.516 2.157-2.508 1.225-1.05 2.624-.933.35.059.7.409.292.35.7.524t.991.234q.525.058.992.35 1.166.7 1.982 1.866t1.458 2.39q.992.584 2.216 1.109-1.108.408-2.1.175t-1.982-.642l-1.633-.583q-.874-.233-1.749-.058-1.341.233-2.216 1.632T43.86 29.72t-.175 3.965q2.1.408 4.49.35t4.724-.233l1.4-.117q.641 0 1.283-.058h.816q.816 0 1.516-.117.7-.058 1.108-.583.875.175 2.1.35t2.274.641q.991.467 1.283 1.517-1.167.291-1.925.408-.816.175-2.099.175.583.758 1.4 1.34.758.584 1.4 1.342-.934 2.45-1.05 4.84-.175 2.45-.117 4.665 0 .817.058 1.575 0 .816-.058 1.574.233.817.991 1.108.7.35.817 1.225-.817.642-2.158.875-1.4.233-2.682.641-.934.292-1.75.933t-.875 1.575q2.041-.059 3.85.466 1.749.525 3.148 1.05.292.117.583.175l.467.233q-1.4.992-3.616 1.4t-4.665.525q-2.507.175-4.782.35-2.274.233-3.907.816-1.574-.35-2.916-.583-1.4-.234-2.507-.758-.7-.584-.583-1.342.116-.7.35-.991 2.799-.233 5.19-.35 2.39-.058 5.131-.408v-.408q-.058-.117-.116-.292-.117-.175-.117-.35-.058-.175 0-.466.7.116.991-.175.292-.233.467-.583-.175-.234-1.166-.292t-2.1.117-1.574.525q-2.566-.175-4.257-.642-1.75-.466-3.849-1.458-.233 2.741-.641 5.307-.467 2.566-.758 5.248 3.09.292 6.59.117t6.997-.408l.816-.117h.758q1.983-.117 4.49-.292 2.45-.116 4.49-.7 2.042-.524 2.917-1.865-.992-5.132-.758-11.022.233-5.831 1.574-11.838.875-3.849 1.808-7.464t2.624-6.181q.408-.642 1.108-1.05.641-.408 1.341-.875.175.175.408.233h.467q.35 0 .7.117.291.058.408.641-2.274 5.19-3.907 10.905-1.691 5.774-2.216 12.013-.583 6.298.466 13.18.758.7 1.517 1.282.758.642 2.332.817.117.291.058.466-.058.233-.116.408-.117.234-.175.467-.058.291.058.758-.525.175-.875.175-.408.058-.758.058h-.233q-1.341.758-3.44 1.341-2.158.584-4.666.934-2.566.408-5.131.641-2.566.292-4.724.35-4.082.175-8.397.233-4.315.117-7.99.35-.174 0-.116.35.175.35-.058.408-1.342.058-2.333-.233t-1.983-.642q-.758-.291-1.574-.583-.875-.291-1.983-.466 0-.583-.525-.875T28 65.932t-1.108-.7q.408-.641.291-1.166t.525-.991q.7.116 1.283-.059.525-.175 1.05-.408l.933-.35q.466-.116.991.059.583-.234 1.108-.642.467-.35 1.108-.525 1.108-1.457 1.575-4.023t.466-5.599q0-4.198-.641-8.688t-1.575-7.815q-.291-1.05-.875-2.74-.641-1.692-1.69-2.741-.584-.583-1.225-.817-.7-.175-1.458.175-.642.292-.991.933-.409.642-.525 1.458-.175 1.05-.117 2.274 0 1.283.117 2.391 0 .35.058.7v.7q-.292 0-.35-.292t-.058-.641v-.467q0-.233-.175-.35-.233-.058-.175.234 0 .291.175.583-.408.117-.642-.467-.291-.524-.466-1.4-.175-.816-.233-1.574-.059-.7-.059-.991-.291.058-.35.408t-.116.758v.642q-.059.291-.175.466-.817-.466-1.166-1.108t-.234-1.166q-.291-.117-.291.408v.467q-.059.233-.292.291-.058-.175-.058-.466-.058-.642-.35-.525-.117-.816-.525-2.45-.466-1.574-1.283-2.565m17.32 7.872q1.4 3.79 1.866 8.281.466 4.549.758 9.447.583-.058 1.108-.233t1.166-.175q.35-.933.408-2.333v-2.857q0-1.458.292-2.683.233-.874.758-1.516.467-.641 1.341-.816.583-.117 1.167-.059l1.05.234q.29.058.64.116l.584.117q1.224.117 2.39 0t2.392-.292q1.224-.116 2.507-.233 1.225-.117 2.624-.058v-1.516q-1.75-.117-3.615 0t-3.674.291q-1.4.117-2.74.233t-2.567.117q-2.274 0-4.14-.583-1.924-.525-3.09-2.216 2.565.292 5.48.175 2.858-.117 5.716-.292 2.216-.116 4.315-.233t3.907 0q.117-.758-.233-1.516-.817.058-1.983.058t-2.45-.058h-3.906q-1.983 0-3.382.175-.467.058-.759.291-.35.292-.816.292-1.4 0-2.566-.525-1.224-.525-2.332-1.05-1.167-.524-2.216-.583m10.146 14.462q0 .117-.058.409-.116.641-.175 1.75t.408 1.632q2.683-.408 5.482-.583t5.015-.758q-.058-.525-.058-1.167t-.117-1.108q-.233 0-.466.059t-.467.058q-2.39.292-5.015.467t-4.549-.759m.409-4.432q-.117.467-.292 1.4-.175.991.292 1.458 2.274-.35 4.956-.525 2.683-.117 5.307-.641.117-.525.175-1.167.058-.583.058-.933-1.108.059-2.04.117-.992.058-1.925.117-1.691.174-3.266.233t-3.265-.059m13.704-19.418q.116-.642.7-.817.524-.175 1.107-.35.817.875 1.866 1.925t1.75 2.157q.525.817.7 1.633.175.875-.234 1.633-1.34-.35-2.682-1.108-1.341-.7-2.274-1.924t-.933-3.15m-6.648 1.167q.116-.467.466-.525.292-.058.583-.058.642.058.758-.175 1.342.583 2.216 1.633t2.041 1.807q-.408.409-.35.817t.176.758.174.583q0 .292-.233.525-2.39-.525-3.907-1.75t-1.924-3.615m-5.249 1.808q0-.875.584-1.633.291.233.7.408.35.175.757.35.875.408 1.517.816t.466 1.108q.758.234.875 1.05.116.875.758 1.458-.292.117-.642.117-.35.058-.7.058-1.632-.058-2.915-1.225-1.341-1.108-1.4-2.507m-4.665-.642q1.925-.175 3.09 1.225t1.575 3.149q-1.224.35-2.507-.175t-1.983-1.633-.175-2.566"/>
</svg>
