<svg xmlns="http://www.w3.org/2000/svg" viewBox="0 0 100 100">
    <defs>
        <linearGradient id="1_PRINCE_svg__a" x1="16.913" x2="82.09" y1="-845.7" y2="-845.7" gradientTransform="matrix(1 0 0 -1 0 -796)" gradientUnits="userSpaceOnUse">
            <stop offset="0" stop-color="#f9da9c"/>
            <stop offset=".043" stop-color="#fbe0a1"/>
            <stop offset=".067" stop-color="#fce6a6"/>
            <stop offset=".145" stop-color="#f4d593"/>
            <stop offset=".193" stop-color="#f5d797"/>
            <stop offset=".243" stop-color="#f7dda4"/>
            <stop offset=".263" stop-color="#f9e1ab"/>
            <stop offset=".329" stop-color="#f7dfa8"/>
            <stop offset=".383" stop-color="#f2d89e"/>
            <stop offset=".398" stop-color="#efd599"/>
            <stop offset=".461" stop-color="#f2d795"/>
            <stop offset=".462" stop-color="#f2d795"/>
            <stop offset=".527" stop-color="#f2d795"/>
            <stop offset=".538" stop-color="#f2d795"/>
            <stop offset=".538" stop-color="#f2d795"/>
            <stop offset=".615" stop-color="#efda9c"/>
            <stop offset=".735" stop-color="#f6e5ad"/>
            <stop offset=".773" stop-color="#f9e9b4"/>
            <stop offset=".822" stop-color="#f7e1a6"/>
            <stop offset=".887" stop-color="#f5db9b"/>
            <stop offset=".956" stop-color="#f4d997"/>
            <stop offset=".967" stop-color="#f4da9c"/>
            <stop offset="1" stop-color="#f4db9e"/>
        </linearGradient>
    </defs>
    <path fill="url(#1_PRINCE_svg__a)" stroke="#63451a" stroke-miterlimit="10" stroke-width="1.01" d="M11.5 5.5v5.2L22 84.2l27.5 9.7L77 84.2l10.5-73.5V5.5Z" transform="translate(.839 3.255)"/>
    <path fill="#63451a" fill-opacity=".75" d="m77.339 81.955-27 9.7-27-9.7-10.5-72.2v4.7l10.5 72.7 27 9.6 27-9.6 10.5-72.7v-4.7Z"/>
    <path fill="#a00" d="M23.201 26.317q0-1.108.817-1.924.758-.817 1.866-1.283 1.05-.525 1.866-.642 2.332-.291 4.723.35 2.333.642 4.024 2.041t2.158 3.266q.7.7 1.166 1.691.408.992.875 1.925.408.99 1.283 1.516.641 2.04 1.866 4.082t2.274 3.965q.991 1.866 1.983 3.616.991 1.807 2.157 3.382.933-2.274 1.691-4.724.7-2.449 1.575-4.781.816-2.333 2.1-4.316-.059-.641-.409-.7-.408 0-.933.117h-.117q-.466-.583-1.69-1.166-1.284-.525-2.683-1.225t-2.1-1.866q-.7-1.05-.933-2.39-.233-1.284.292-2.275.467-.991 1.924-1.166 2.974 1.05 4.49 3.615t2.683 5.598q.467-.233.7-.874.233-.583.875-.583.7-1.925 2.39-3.616 1.633-1.633 3.674-3.09 1.983-1.4 3.79-2.625.467.059.876.117.408 0 .758.058.816.058 1.574.117.7.058 1.458 0 .117.175-.058.7-.059.175-.117.408-.058.175 0 .35.292-.175.758-.175-.058-.175-.291-.292l-.234-.116q.409-.059.7 0t.525.116q.292.058.641.117.35 0 .875-.117l-.408.583q-.408.583-.758.292-1.516.641-2.8.991-1.34.35-2.157 1.808-1.225.35-2.1 1.166l-1.69 1.691q-.817.875-1.75 1.167v1.05q-1.983 1.69-3.324 4.081t-2.974 4.374q-.291 2.216-1.108 3.907-.816 1.75-1.108 4.024 2.683 0 5.54-.467t5.423-.874q1.575 1.516 3.15 3.207 1.516 1.691 1.807 4.082-1.108.233-1.924-.175-.875-.35-1.691-.816-.525-.35-1.05-.642-.583-.233-1.166-.35-1.575-.291-3.15-.116t-3.265.408q-1.05.175-2.216.291-1.166.175-2.39.234-.7 3.382 0 6.356.699 3.032 1.574 5.831.408 1.05.758 2.1.291 1.108.525 2.157-.584.175-1.866-.466-1.342-.583-2.741-1.516-1.4-.875-2.041-1.691-.117-.117-.175-.292l-.117-.35q-.058-.35-.175-.583-.175-.233-.583-.175-.525-2.8-.292-5.365.175-2.566.759-5.307-2.683-.116-5.54.175-2.916.35-5.657.758-.7.117-1.4.175l-1.399.234q-1.108-.583-2.274-1.108-1.225-.525-2.216-1.283t-1.4-2.1q4.024-.874 8.69-1.108 4.606-.233 9.271-.466-1.75-1.575-3.149-3.499-1.458-1.924-3.032-3.674-1.633-1.75-3.79-2.857-1.284-1.75-3.033-3.033-1.808-1.283-3.732-2.449-1.983-1.108-3.79-2.449-.759-.525-1.05-1.108-.35-.583-.992-1.341-.524-.642-1.166-1.225-.7-.583-.7-1.458"/>
</svg>
