<svg xmlns="http://www.w3.org/2000/svg" xml:space="preserve" viewBox="0 0 100 100">
    <defs>
        <linearGradient id="1_PROMOTEDPAWN_svg__a" x1="23.796" x2="76.297" y1="50.05" y2="50.05" gradientTransform="matrix(1 0 0 -1 0 102)" gradientUnits="userSpaceOnUse">
            <stop offset="0" stop-color="#f9da9c"/>
            <stop offset=".043" stop-color="#fbe0a1"/>
            <stop offset=".067" stop-color="#fce6a6"/>
            <stop offset=".145" stop-color="#f4d593"/>
            <stop offset=".193" stop-color="#f5d797"/>
            <stop offset=".243" stop-color="#f7dda4"/>
            <stop offset=".263" stop-color="#f9e1ab"/>
            <stop offset=".329" stop-color="#f7dfa8"/>
            <stop offset=".383" stop-color="#f2d89e"/>
            <stop offset=".398" stop-color="#efd599"/>
            <stop offset=".461" stop-color="#f2d795"/>
            <stop offset=".615" stop-color="#efda9c"/>
            <stop offset=".735" stop-color="#f6e5ad"/>
            <stop offset=".773" stop-color="#f9e9b4"/>
            <stop offset=".822" stop-color="#f7e1a6"/>
            <stop offset=".887" stop-color="#f5db9b"/>
            <stop offset=".956" stop-color="#f4d997"/>
            <stop offset=".967" stop-color="#f4da9c"/>
            <stop offset="1" stop-color="#f4db9e"/>
        </linearGradient>
    </defs>
    <path fill="url(#1_PROMOTEDPAWN_svg__a)" stroke="#63451a" d="M18.8 15.7v5.8l8.7 58.6L50 88.2l22.5-8.1 8.7-58.6v-5.8z" transform="translate(-.246 2.097)"/>
    <path fill="#63451a" d="m71.854 78.397-22.1 8-22.1-8-8.6-60.1v5.2l8.6 58.3 22.1 7.9 22.1-7.9 8.6-58.3v-5.3z" opacity=".75"/>
    <path fill="#a00" d="M52.155 64.664c2.071.31 2.485.828 1.553 2.796-.725 1.45-1.657 2.796-2.589 4.039-.725.932-1.035 1.45 0 2.382 1.036.932 2.486 2.796 3.107 3.728.104.103-.104.31-.207.207-2.071-1.243-4.35-2.382-6.214-3.728-.932-.622-.828-1.864.104-2.796a27 27 0 0 1 1.76-1.968c.104-.103 0-.31-.207-.31-1.035 0-2.382-.104-3.21-.311-1.346-.415-1.45-1.243-.31-2.279 1.449-1.346 3.002-2.485 4.66-3.935-4.454.518-4.04-4.246-4.143-4.453 0-.207-.207-.31-.31-.31-5.49 1.45-12.117 1.76-12.739-1.45 0-.208-.103-.311-.103-.415-.104-.932.725-1.76 1.657-1.553.103 0 .103 0 .207.103 2.9 1.14 8.388 1.243 10.874.725.31-.103.414-.31.518-.518.103-1.139.31-5.902.207-6.938 0-.104-.104-.207-.207-.31-.311 0-.622-.104-.829-.208-2.175-.932-2.693-2.071-1.346-4.039 1.967-2.9 4.039-5.696 6.11-8.492.31-.414.621-.828 1.035-1.346.208-.207 0-.414-.31-.31-1.76.31-3.314.828-4.868 1.035-5.074.414-3.935-2.071-3.106-3.003.103-.104 3.728-3.728 9.838-4.557.31 0 2.589-.207 3.21 0 .31.104.31.414 0 .518-1.657.414-3.107 1.035-3.935 1.864-.104.103 0 .31.103.31.311 0 .622.104.829.104 1.864.207 2.796 1.346 2.278 3.21-.103.311-.828 1.761-1.139 2.382-.103.208 0 .415.207.518s.415.31.932.622a57 57 0 0 1 3.832 3.21c1.243 1.14 1.036 2.796-.414 3.625-1.76 1.035-8.596 3.831-9.217 4.142a.57.57 0 0 0-.31.518c-.104 1.243.517 4.764.724 5.8.104.31.31.31.414.31 5.178-2.796 10.46-5.903 14.188-10.149.207-.31.414-.31.829-.518.932-.31 1.45.622 1.76 1.657.104.31-.103 1.036-.207 1.243-1.45 2.589-2.796 4.867-4.557 7.25-3.624 3.83-7.145 7.663-10.46 11.598zm9.734-15.534c.208-.31-.207-.622-.414-.31-2.692 2.588-10.045 6.627-11.391 7.455q-.311.156-.311.311c-.104.829-.207 3.21.414 4.764.104.207.207.31.31.725 4.661-3.314 8.39-8.285 11.392-12.945m-11.702-5.696c-.103.31.207.518.31.31 1.347-.62 2.797-1.242 4.04-1.967 1.967-1.14 1.967-1.45-.207-2.485-.622-.311-1.865-.518-2.072-.208-.725 1.243-1.346 2.9-2.07 4.35z"/>
</svg>
