<svg xmlns="http://www.w3.org/2000/svg" viewBox="0 0 100 100">
    <defs>
        <linearGradient id="1_QUEEN_svg__a" x1="16.913" x2="82.09" y1="-845.7" y2="-845.7" gradientTransform="matrix(1 0 0 -1 0 -796)" gradientUnits="userSpaceOnUse">
            <stop offset="0" stop-color="#f9da9c"/>
            <stop offset=".043" stop-color="#fbe0a1"/>
            <stop offset=".067" stop-color="#fce6a6"/>
            <stop offset=".145" stop-color="#f4d593"/>
            <stop offset=".193" stop-color="#f5d797"/>
            <stop offset=".243" stop-color="#f7dda4"/>
            <stop offset=".263" stop-color="#f9e1ab"/>
            <stop offset=".329" stop-color="#f7dfa8"/>
            <stop offset=".383" stop-color="#f2d89e"/>
            <stop offset=".398" stop-color="#efd599"/>
            <stop offset=".461" stop-color="#f2d795"/>
            <stop offset=".615" stop-color="#efda9c"/>
            <stop offset=".735" stop-color="#f6e5ad"/>
            <stop offset=".773" stop-color="#f9e9b4"/>
            <stop offset=".822" stop-color="#f7e1a6"/>
            <stop offset=".887" stop-color="#f5db9b"/>
            <stop offset=".956" stop-color="#f4d997"/>
            <stop offset=".967" stop-color="#f4da9c"/>
            <stop offset="1" stop-color="#f4db9e"/>
        </linearGradient>
    </defs>
    <path fill="url(#1_QUEEN_svg__a)" stroke="#63451a" stroke-miterlimit="10" stroke-width="1.01" d="M11.5 5.5v5.2L22 84.2l27.5 9.7L77 84.2l10.5-73.5V5.5Z" transform="translate(.998 2.237)"/>
    <path fill="#63451a" fill-opacity=".75" d="m77.498 80.937-27 9.7-27-9.7-10.5-72.2v4.7l10.5 72.7 27 9.6 27-9.6 10.5-72.7v-4.7Z"/>
    <path d="M23.877 40.533q.117-.234.117-.467v-.408q0-.175.058-.467 0-.233.058-.583.409-.408 1.167-.641.7-.175 1.108-.642 2.682.175 5.073.758 2.333.642 3.674 1.808.816.758 1.691 2.216.816 1.458 2.158 2.216 1.05-.233 2.099-.35.991-.058 1.983-.058 1.341 0 2.624-.175 1.283-.117 2.507-.7-.291-1.983.175-3.907t1.866-2.857q1.05.175 1.517 1.05.408.874.466 2.04t0 2.275v.991q.7.467 1.575.525.874.116 1.807.116h.292q1.108 0 2.158.292t1.632 1.4q.992-.875 1.692-1.575.7-.641 1.224-1.633.642.234.817.059.175-.117.291-.409t.35-.524q.175-.234.758-.175 0-.35.175-.467.117-.117.408-.233.117-.058.292-.175.175-.058.291-.175.584-.467 1.108-1.05t1.225-1.05q.292-.7 1.283-1.107.933-.409 2.158-.525t2.332-.059q-.175.292-.35.292t-.408-.058q-.117 0-.291-.059h-.35q.116.467.35.467.174.058.466-.058.35-.117.583-.175.292.175.642.116.291 0 .583-.058.233-.058.525-.117.233 0 .466.059 0 .525-.816.7-.875.233-1.691.466-.875.233-.875.758-.233-.233-.875-.233-.641.641-1.108 1.458-.525.816-1.808.874.059.35-.058.584l-.175.233q-.408-.233-.641-.117t-.467.292q-.175.175-.35.291-.233.175-.583.175.058.35.408.292.234-.058.292.175-.175.35-.35.291-.233 0-.466-.116l-.35-.175q-.059.291.175.408t.466.175.292.058q-.234.292-.7.234-.525-.059-.642.35 0 .233.234.116.116-.117.291-.175.117-.058.35.058-.933.992-1.866 1.925-.991.933-2.158 1.69-.116 1.517-1.166 3.033t-2.274 3.15-1.75 3.382q.7.291 1.75.116.991-.175 2.04-.466.992-.292 1.925-.467t1.691-.058q-.058.875.467 1.458.525.641 1.166 1.224.7.642 1.341 1.342.642.758.642 1.924-.816.175-1.633-.058-.875-.234-1.75-.525l-1.282-.467q-.7-.175-1.4-.233-.816-.058-2.1-.058t-2.448.116q-1.225.175-1.75.409-.7.35-.875 1.4-.233 1.107-.116 2.39.058 1.283.291 2.333.059.233.234.524.116.35.291.7.35.7.7 1.516t.35 1.517q-.467.174-.642.641-1.866-1.516-3.907-2.916-2.04-1.341-3.324-3.44.584-.758.7-1.983t.233-1.866q-1.4-.058-2.799.058l-2.799.233q-1.166.175-2.332.234-1.167.116-2.333.116-1.691 0-3.324-.35t-3.09-1.34q-.7-.934-.467-1.4.233-.408.641-.758.117-.175.292-.292.117-.117.233-.292 2.508.175 5.423.117 2.858 0 5.599-.35-.642-.816-1.458-1.341t-1.575-1.05-1.224-1.4q-1.225-.233-1.75-1.224-.525-.933-1.4-1.574-1.282-.933-2.915-1.575-1.633-.583-3.266-1.224-1.632-.584-2.857-1.633-.583-1.108-1.458-1.983-.933-.875-1.924-1.633-.117-.933-.642-1.4t-.933-1.107m5.19-6.998q-.116-.292-.058-.467.058-.116.233-.233.233-.175.292-.408 1.34-.233 2.566-.175 1.166.058 2.332.175l2.216.117q1.108.058 2.333-.117.116-1.108.116-2.391 0-1.225-.058-2.45v-1.282q-.058-.583-.058-1.225 0-2.39.408-4.49.35-2.158 1.808-3.382 1.05.466 1.516 2.04.466 1.517.583 3.383.117 1.808.175 3.032v1.458q0 .7-.058 1.4-.059 1.05-.059 1.983t.117 1.749q1.633.408 3.615.233 1.925-.116 3.966-.35l2.332-.233q1.108-.117 2.216-.117.117-3.79 1.283-6.24t2.333-4.14q.408-.583 1.05-1.108t1.632-1.224q.059.058.35 0 .234-.059.467-.059.175 0 .35.292-.117.525-.35 1.225-.292.7-.583 1.458-.758 1.982-1.458 4.373-.758 2.391-.583 4.607.7.117 1.4-.233.64-.35 1.107-.817 2.391.409 3.849 1.691t2.682 2.741q-.466.117-.874.117h-.817q-.641 0-1.166.058-.583.059-.991.7-.525-.525-1.517-.525-1.05.058-2.04.175-.584.117-1.109.117-.524.058-.933 0-.174 1.108.292 1.982.408.875.933 1.75l.7 1.05q.291.583.525 1.166-1.4.291-3.266-.175-1.924-.467-2.974-1.808-1.108-1.4-.525-3.557-2.74 0-5.481.233-2.8.292-5.949.408-.116 1.167.117 2.45.175 1.34.408 2.507.117.7.234 1.341t.116 1.108l-.7-.35q-.35-.116-.7-.291-1.34-.583-2.624-1.283t-2.04-1.808q-.759-1.05-.467-2.799-2.216-.058-4.724-.875t-4.49-2.507m10.38 11.838.933 1.05q.875 1.05 2.275 2.799t3.032 3.848q1.574 2.158 2.974 4.374.525-.058 1.225-.058t1.224-.117q.058-.175.292-.467.408-.7.816-1.516t.233-1.4q-1.108-.466-2.332-1.282t-1.925-2.041q-.758-1.225-.466-2.858-1.516.059-3.207-.524-1.692-.525-3.15-1.108-.583-.234-1.05-.409t-.874-.291m13.004 1.69q-.116 1.05.234 2.858.291 1.866.933 3.324l.641-.641q.35-.35.7-.642-.175-.233-.467-.116-.175.116-.233-.117.058-.175.233-.291.117-.117.292-.175.233-.117.35-.292.117-.117-.175-.525h.875q-.117-.291 0-.641.058-.292.7-.175-.059-.233 0-.408.058-.117.116-.292.058-.117.117-.35.058-.175 0-.466.583 0 .991-.642.408-.583.758-1.05-1.691 0-3.032.292-1.4.292-3.033.35"/>
</svg>
