<svg xmlns="http://www.w3.org/2000/svg" viewBox="0 0 100 100">
    <defs>
        <linearGradient id="1_ROOK_svg__a" x1="16.913" x2="82.09" y1="-845.7" y2="-845.7" gradientTransform="matrix(1 0 0 -1 0 -796)" gradientUnits="userSpaceOnUse">
            <stop offset="0" stop-color="#f9da9c"/>
            <stop offset=".043" stop-color="#fbe0a1"/>
            <stop offset=".067" stop-color="#fce6a6"/>
            <stop offset=".145" stop-color="#f4d593"/>
            <stop offset=".193" stop-color="#f5d797"/>
            <stop offset=".243" stop-color="#f7dda4"/>
            <stop offset=".263" stop-color="#f9e1ab"/>
            <stop offset=".329" stop-color="#f7dfa8"/>
            <stop offset=".383" stop-color="#f2d89e"/>
            <stop offset=".398" stop-color="#efd599"/>
            <stop offset=".461" stop-color="#f2d795"/>
            <stop offset=".615" stop-color="#efda9c"/>
            <stop offset=".735" stop-color="#f6e5ad"/>
            <stop offset=".773" stop-color="#f9e9b4"/>
            <stop offset=".822" stop-color="#f7e1a6"/>
            <stop offset=".887" stop-color="#f5db9b"/>
            <stop offset=".956" stop-color="#f4d997"/>
            <stop offset=".967" stop-color="#f4da9c"/>
            <stop offset="1" stop-color="#f4db9e"/>
        </linearGradient>
    </defs>
    <path fill="url(#1_ROOK_svg__a)" stroke="#63451a" stroke-miterlimit="10" stroke-width="1.01" d="M11.5 5.5v5.2L22 84.2l27.5 9.7L77 84.2l10.5-73.5V5.5Z" transform="translate(1.265 3.1)"/>
    <path fill="#63451a" fill-opacity=".75" d="m77.765 81.8-27 9.7-27-9.7-10.5-72.2v4.7l10.5 72.7 27 9.6 27-9.6 10.5-72.7V9.6Z"/>
    <path d="M22.415 24.381q.758-1.632 2.391-2.39 1.575-.759 3.44-.934 2.683-.233 5.54.35 2.8.584 4.666 1.342 2.682 1.982 4.49 5.073 1.808 3.149 2.041 7.29.059.64 0 1.282-.058.7-.116 1.342-.059 1.107-.059 2.215-.058 1.108.292 2.216.933.117 2.1.059 1.107 0 2.157-.059.291 0 .583-.058h.583q.233-3.674.233-6.881-.058-3.207-.175-6.706-.058-1.866-.116-3.907t-.059-4.316q0-.175.292-.233.408-.058.35-.408 1.808-.292 2.682.816t1.458 2.333q.234.466.467.875t.466.7q-.758 2.157-.991 4.723-.292 2.624-.292 5.132-.058 2.565 0 4.665v2.74q1.108.117 2.741-.174 1.633-.234 2.858-.525.058-2.1.524-4.665.409-2.566 1.225-5.132t1.983-4.724 2.74-3.44q1.283-1.05 3.091-1.4t3.674.467q-.525.991-1.4 1.691t-1.807 1.4q-.992.758-1.691 1.749-1.808 2.507-2.566 5.773-.817 3.266-1.283 6.94.933 0 1.924-.175.933-.117 1.925-.35l1.75-.35q.874-.175 1.69-.175 1.341-.058 2.508.466t1.982 2.1q.117.408-.058.583-.233.175-.466.291t-.35.234q-.175.116-.234.35-2.682-.059-5.773.291-3.149.408-5.248 1.341.058 1.108.175 2.333.058 1.283.35 2.216t1.108 1.05q.291.058.816-.292.467-.35 1.108-.816.525-.409 1.166-.875.584-.408 1.225-.758.991-.525 2.1-.642 1.107-.058 2.157.759-2.974 2.04-5.307 4.665-2.39 2.624-4.257 5.656.059.992.467 1.575t.466 1.516q-1.69.525-3.265.175-1.633-.35-2.683-1.4-1.05-.991-1.108-2.624 1.167-.991 2.391-2.158l2.041-2.04q-2.624-.817-3.265-2.858-.35-1.05-.292-2.39.058-1.284.292-2.858-1.283.175-2.8.291-1.574.117-2.624.234 0 4.49.292 8.688.292 4.257 1.808 7.698 0 .35-.117.525t-.233.291q-.292.35-.35.584 1.75.35 3.324 0 1.516-.35 2.916-.759.35-.116.641-.233l.583-.116q1.516 1.224 2.566 2.624t1.341 3.149q-1.283.408-2.624.175-1.341-.175-2.74-.467-.934-.233-1.808-.408-.933-.175-1.866-.175-1.808-.058-3.674.175t-3.79.525q-1.4.233-2.8.408t-2.799.292q-.233.466-.35.874-.175.467-.525.817-1.807-.467-3.674-.875-1.924-.408-3.615-1.108-1.691-.641-2.74-2.041.524-1.108 1.807-1.924 1.225-.817 2.45-.875 1.165-.991 2.273-1.925 1.05-.933 1.517-2.449.408-1.458-.117-3.09t-1.633-3.033q-1.166-1.458-2.74-2.449-1.633-.991-3.208-.991-1.691 0-2.857 1.166-.175.758.175 1.283t.641.816q.058.117.117.175-.409.35-1.4-.058-1.05-.408-1.283-1.166-1.283-.7-2.624-1.342t-2.216-1.69q-.117-1.867.991-2.917 1.05-1.05 2.683-1.4 1.983-.466 4.373-.057 2.333.408 3.674 1.283l-.466-.525q-.525-.525-1.108-1.283t-.758-1.458q.466-1.05 1.341-1.283t1.808-.408q.874-.175 1.574-1.108 1.108-1.516 1.108-3.616.059-1.982-.641-4.023-.758-1.983-1.516-3.15-1.167-.758-2.625-1.05-1.516-.29-2.857.06-1.108.29-1.924.99-.875.7-1.167 1.808-.058.642.059 1.225.058.641.116 1.225.059.174.059.233-1.283-.059-2.041-.642-.817-.524-1.517-1.166-.758-.583-1.866-.816-.641-1.283-1.458-2.625-.874-1.34-.933-2.974m16.853 21.402q2.158 1.691 3.966 4.14 1.75 2.508 2.682 5.54.583 1.925.758 4.024.117 2.158-.35 4.315 2.683.292 5.132.059t4.607-1.05q-1.808-.583-3.382-1.458-1.575-.816-2.508-1.983-.933-1.108-.816-2.682.058-.933.641-1.866t.7-2.1q.175-1.4.117-3.149t-.117-2.974v-.583q-.058-.233-.058-.408-1.633-.408-2.974.058t-2.041 1.283q-1.225.292-2.683-.058-1.516-.292-2.566-.7zM30.23 61.06q-.292-1.108.35-1.69.64-.526 1.807-.817 1.808-.467 4.082-.467 2.216.059 3.732.175h.175q-1.166 1.342-2.566 2.391-1.4 1.108-2.332 2.624-1.05.175-2.158-.116-1.166-.292-2.04-.875-.876-.525-1.05-1.225m-.584-23.675q.992-1.108 2.858-1.517 1.808-.408 3.674-.816.175.058.408.175l.35.233q.408.292.874.525t1.108.058q.059.525-.35.875t-.99.642q-.117.116-.292.233l-.35.233q-.467.35-.758.816-.35.467-.175 1.167-1.283.875-2.624.641-1.4-.175-2.45-1.05t-1.283-2.215m4.316 14.695q2.332-.117 4.082 1.4 1.69 1.516 2.332 3.498l-.408.35q-1.633.292-3.324-.35-1.75-.641-2.624-1.807-.525-.7-.525-1.575-.058-.816.467-1.516m-.525-20.177q-.7-.933-.583-1.983.116-.991 1.633-1.75.116.118.466.35 1.4 1.225 2.683 2.625 1.224 1.458.99 3.44-1.399 0-2.915-.816-1.516-.758-2.274-1.866"/>
</svg>
