<svg xmlns="http://www.w3.org/2000/svg" viewBox="0 0 100 100">
    <defs>
        <linearGradient id="1_STAG_svg__a" x1="16.913" x2="82.09" y1="-845.7" y2="-845.7" gradientTransform="matrix(1 0 0 -1 0 -796)" gradientUnits="userSpaceOnUse">
            <stop offset="0" stop-color="#f9da9c"/>
            <stop offset=".043" stop-color="#fbe0a1"/>
            <stop offset=".067" stop-color="#fce6a6"/>
            <stop offset=".145" stop-color="#f4d593"/>
            <stop offset=".193" stop-color="#f5d797"/>
            <stop offset=".243" stop-color="#f7dda4"/>
            <stop offset=".263" stop-color="#f9e1ab"/>
            <stop offset=".329" stop-color="#f7dfa8"/>
            <stop offset=".383" stop-color="#f2d89e"/>
            <stop offset=".398" stop-color="#efd599"/>
            <stop offset=".461" stop-color="#f2d795"/>
            <stop offset=".462" stop-color="#f2d795"/>
            <stop offset=".527" stop-color="#f2d795"/>
            <stop offset=".538" stop-color="#f2d795"/>
            <stop offset=".538" stop-color="#f2d795"/>
            <stop offset=".615" stop-color="#efda9c"/>
            <stop offset=".735" stop-color="#f6e5ad"/>
            <stop offset=".773" stop-color="#f9e9b4"/>
            <stop offset=".822" stop-color="#f7e1a6"/>
            <stop offset=".887" stop-color="#f5db9b"/>
            <stop offset=".956" stop-color="#f4d997"/>
            <stop offset=".967" stop-color="#f4da9c"/>
            <stop offset="1" stop-color="#f4db9e"/>
        </linearGradient>
    </defs>
    <path fill="url(#1_STAG_svg__a)" stroke="#63451a" stroke-miterlimit="10" stroke-width="1.01" d="M11.5 5.5v5.2L22 84.2l27.5 9.7L77 84.2l10.5-73.5V5.5Z" transform="translate(.625 3.41)"/>
    <path fill="#63451a" fill-opacity=".75" d="m77.125 82.11-27 9.7-27-9.7-10.5-72.2v4.7l10.5 72.7 27 9.6 27-9.6 10.5-72.7v-4.7Z"/>
    <path fill="#a00" d="M24.194 25.615q1.05-2.799 3.382-3.732t6.006-.7q1.342.117 3.091.409 1.691.233 3.15.583 1.457.291 2.04.525.758.35 1.283 1.108.467.758 1.458.933 1.283 1.807 1.4 3.907.058 2.099-.059 4.432-.058.524-.058 1.05-.059.582-.059 1.166 1.108-.759 3.033-1.167 1.866-.408 4.082-.525t4.315-.116q.408-.933.467-2.216t.058-2.624q0-1.283.35-2.333-1.225.467-2.391 1.05-1.166.641-2.1 1.69 0 .176.117.467.059.117.117.292t0 .408q-.758.175-1.516.058-.817-.116-1.516-.233-.642-.175-1.108-.233-.525-.058-.817.175-.525-.233-.641-.642t0-.7q1.34-.64 2.274-1.282t2.041-2.041q.175.058.117.291v.35q.466 0 .466-.175t-.058-.408q-.175-.466 0-.641.058 0 .233.058.35.058.816-.058t1.05-1.458q1.05-.467 1.866-1.167.758-.758 1.458-1.574 2.158-.233 3.499.525 1.283.758 2.39 1.633.35.291.642.524t.642.467q-1.05.583-2.158.525-1.166 0-2.04.233-.526 1.341-.526 3.44-.058 2.1 0 4.316 0 1.166.059 2.216 0 1.108-.059 2.157.059.234.175.409.059.175.175.291.117.175.175.35t-.116.467q.758.524 1.457 1.283t.35 1.632q-1.69.409-3.499-.116-1.866-.467-2.682-2.216.408-.583.466-1.4t-.35-1.224q-1.107-.292-2.04 0-.934.35-1.75.758-.466.233-.875.408t-.816.233q-.875.117-1.516-.116-.642-.175-1.225-.409-.466-.233-.933-.408t-.991-.116q.058-.584-.292-.7-.408-.117-.641-.059v1.692q0 1.282.116 2.507.059 1.283.642 2.158 2.39-.292 4.49-.817 2.041-.466 3.907-.583 1.983-.175 3.79.35 1.75.525 3.5 2.274-.817.059-1.517.175-.758.117-1.458.234-1.108.175-2.157.291-1.108.175-2.274-.058-.584 1.4-.409 3.557t.467 3.79q.291-.058.583-.058h.583q.7-.058 1.225-.175.525-.058.816-.466.642.641 1.575.758.933.175 1.75.933.64-1.225.757-2.683.059-1.458.175-2.857.117-1.341.875-2.45-.175-.29-.117-.524 0-.233.117-.408.116-.409-.233-.467.058-.058.116-.233.059-.233.175-.408.117-.117.467 0-.059-.933.291-2.041t.758-2.158.7-2.041q.292-.933.117-1.516.758-1.341 1.69-2.683t.992-2.566q.175.059.234.175 0 .175.174.175-.174-.641.292-1.516.467-.816 1.05-1.75.291-.524.641-1.049.292-.466.525-.933.233 0 .408-.058.117 0 .233-.059.175-.058.409-.116.175-.059.466 0 .117-.35-.35-.35-.408 0-.291-.408.933-.35 1.224-.7.292-.408 0-.642.234-.524 1.167-.933.874-.466 1.34-1.224.234.408-.057.991-.292.525-.642.817.117.233.408.175.234-.059.35.174-.058.117-.175.175-.116.117-.175.234t0 .408q-.175 0-.233-.292-.117-.35-.35-.291-.466 1.166-1.4 2.566-.99 1.4-1.457 2.915 0 .175.233.409.292.291.35.524-.117.059-.233.175-.234.117-.409.175t-.524-.058q-.117.291-.234 1.05-.175.758.117 1.108.408.175.175.466-.292.292-.525-.058-1.225 1.108-1.574 2.74-.35 1.692-1.108 3.208l.233.291q.058.234-.058.35-.175.117-.35.175-.117 0-.175.059.058.408 0 .816-.117.467-.234.875-.116.466-.233.991t0 1.108q0 .117-.35.408t-.35.642q0 .758-.175 1.75-.175 1.049-.466 2.215-.467 2.391-.816 5.015-.35 2.683.524 4.724v.058q.117.175.35.467t.642.233q.7.991 1.224 2.1.467 1.165 1.575 1.749.058.233.058.408-.058.175-.117.291-.058.234 0 .35 0 .117.292.175-.525.817-1.691.7-1.166-.058-1.75-.642-2.449-.174-4.606-.058-2.216.117-4.549.292-1.75.116-3.674.233-1.982.117-4.315.117.117.291.058.7l-.116.816q-.059.408-.059.7-.058.35 0 .583.35.816 1.4 1.166t2.158.583q1.107.292 1.69.875-.058.291.117.583t.117.583q-.525.059-.991.233-.525.175-.992.409-.991.35-1.866.525-.933.233-1.691-.584-.467.525-1.225.292-.816-.175-1.516-.816-.7-.584-.758-1.342-.058-.525.175-1.166t.525-1.283q.291-.7.525-1.341.175-.583-.059-1.05-1.632-.291-3.149-.291-1.574.058-3.149.175-1.108.058-2.274.116t-2.45 0q-.407.117-.466.525-.058.467-.291.7-1.458-.233-3.033-.583-1.632-.35-2.974-1.108-1.4-.7-2.157-2.216.758-.467 1.75-.525.99 0 2.04.058.758.058 1.458.058t1.225-.174q-.059.116-.117.174t-.058.175q.991-.116 2.332-.116h2.858q1.283.058 2.624.058 1.283 0 2.507-.058-.641-.758-.99-2.216t-.118-2.333q-.7-.116-1.516-.116-.816.058-1.75.058h-.524q-.292.058-.583.058-.991.992-1.983.875t-2.216-.583q-.408-.117-.816-.292l-.933-.233q-.525-.641-1.167-1.108-.641-.408-1.166-1.05-.583-.583-.641-1.924.641-.642 1.458-.525t1.574-.35q.642-.758.875-1.866.233-1.05.35-2.157.116-1.458.35-2.8.175-1.283 1.166-1.75l.816-.057q.467-.059 1.05-.059.583.059 1.225.117 1.166.058 2.39.058 1.225.059 2.158-.175-.291-.466-.525-1.924-.233-1.4-.175-2.391-1.166.233-2.332.35t-1.808.758q-1.4-.233-2.74-.933t-2.275-1.691q-1.108-1.283-1.283-3.15-.35.292-.875-.29-.525-.526-.874-1.4-.292.116 0 .641.233.408.058.525-.175-.408-.583-.758t-.817-.642q-.583-.35-.991-.816-.467-.408-.408-1.05.058-.233-.175-.116-.292.116-.35.233-.583-.35-.758-1.166t-.467-1.633-1.224-1.225m7.872 1.75q-.233 2.1-.058 4.665.117 2.566.875 4.082.7-.117 1.34-.233l1.284-.234q1.516-.291 3.149-.524 1.574-.234 3.557.058.292-1.808.233-3.324-.116-1.458-.291-2.916-.059-.408-.059-.874l-.116-.817q-1.05-1.108-2.916-1.4-1.866-.233-3.79.175-1.983.467-3.208 1.342m14.17 25.367q1.459-.117 2.567-.175 1.108 0 2.74-.642.292-1.574.35-2.799l.117-2.274v-1.225q0-.583.058-1.224-.583.058-1.108.058-.583.058-1.108.058-.991 0-1.808.059-.874.116-1.69.408v1.633q-.059.816-.059 1.632-.058 1.05-.058 2.158-.059 1.108 0 2.333m-8.806.058q.7.583 1.866.583t2.333-.116q.233 0 .525-.059h.466q.058-.583.175-1.283.058-.641.175-1.283.233-1.458.408-2.915.175-1.4-.116-2.45-.992.758-1.866.642-.933-.117-1.925-.467-.291-.116-.641-.233t-.7-.175q-.175 1.983-.408 3.674-.234 1.75-.292 4.082m17.436 2.39q.117 1.867.642 2.625.466.816 1.4 1.691.757-.525 1.982-.7t2.333-.35 1.574-.758q-.466-.233-.583-.99-.175-.7-.233-1.4t-.234-.934q-.874.409-1.749.409-.875.058-1.75.058-.874-.058-1.69-.058-.875.058-1.692.408m-8.747.7q.117.583.117.991v.875l.116 1.166q.059.583.292 1.341 2.04 0 3.499-.175 1.4-.175 3.382-.291-.991-.992-1.691-1.983t-.583-2.507q-1.983.058-2.858.174-.933.175-2.274.409m27.583-29.683q.058-.35.408-1.05.292-.699.642-1.34.35-.7.583-.875.116.175-.175.933-.35.7-.758 1.458-.467.758-.7.874"/>
</svg>
