<svg xmlns="http://www.w3.org/2000/svg" viewBox="0 0 100 100">
    <defs>
        <linearGradient id="1_TIGER_svg__a" x1="16.913" x2="82.09" y1="-845.7" y2="-845.7" gradientTransform="matrix(1 0 0 -1 0 -796)" gradientUnits="userSpaceOnUse">
            <stop offset="0" stop-color="#f9da9c"/>
            <stop offset=".043" stop-color="#fbe0a1"/>
            <stop offset=".067" stop-color="#fce6a6"/>
            <stop offset=".145" stop-color="#f4d593"/>
            <stop offset=".193" stop-color="#f5d797"/>
            <stop offset=".243" stop-color="#f7dda4"/>
            <stop offset=".263" stop-color="#f9e1ab"/>
            <stop offset=".329" stop-color="#f7dfa8"/>
            <stop offset=".383" stop-color="#f2d89e"/>
            <stop offset=".398" stop-color="#efd599"/>
            <stop offset=".461" stop-color="#f2d795"/>
            <stop offset=".462" stop-color="#f2d795"/>
            <stop offset=".527" stop-color="#f2d795"/>
            <stop offset=".538" stop-color="#f2d795"/>
            <stop offset=".538" stop-color="#f2d795"/>
            <stop offset=".615" stop-color="#efda9c"/>
            <stop offset=".735" stop-color="#f6e5ad"/>
            <stop offset=".773" stop-color="#f9e9b4"/>
            <stop offset=".822" stop-color="#f7e1a6"/>
            <stop offset=".887" stop-color="#f5db9b"/>
            <stop offset=".956" stop-color="#f4d997"/>
            <stop offset=".967" stop-color="#f4da9c"/>
            <stop offset="1" stop-color="#f4db9e"/>
        </linearGradient>
    </defs>
    <path fill="url(#1_TIGER_svg__a)" stroke="#63451a" stroke-miterlimit="10" stroke-width="1.01" d="M11.5 5.5v5.2L22 84.2l27.5 9.7L77 84.2l10.5-73.5V5.5Z" transform="translate(.664 2.732)"/>
    <path fill="#63451a" fill-opacity=".75" d="m77.164 81.432-27 9.7-27-9.7-10.5-72.2v4.7l10.5 72.7 27 9.6 27-9.6 10.5-72.7v-4.7Z"/>
    <path d="M26.032 55.853q-.466-1.283.817-2.1t2.974-1.515q.875-.409 1.691-.817t1.4-.875q1.924-.816 3.557-.933t2.332.35q-.816 1.575-1.4 3.033-.64 1.458-.932 2.915 1.924 0 4.49-.175 2.508-.174 5.248-.408l3.732-.35 3.616-.233q.583-.058 1.166-.058h1.05q2.274-.059 4.315-.35t3.208-1.75q-.7-1.982-.642-4.431 0-2.45.467-5.074t1.166-5.132q.641-2.449 1.225-4.548.058-.233.174-.525l.117-.466q.525-1.108 1.05-2.275t1.108-1.516q.058-1.516.933-3.032.874-1.458 2.1-2.8t2.448-2.507q1.225-.408 2.216-.058t.933 1.05q-.816.35-1.75 1.574-.99 1.225-1.982 2.857-1.108 2.391-2.332 5.599t-2.158 6.822-1.108 7.173q-.175 2.45.35 4.024.525 1.633 1.574 2.857 1.05 1.283 2.566 2.624-.583.35-.583.817-.058.525-.175 1.05-.117.583-.758.874-.117.117-.525.175-.466.058-.641.058-1.167.234-2.858.175-1.75 0-3.674-.116-2.449-.175-4.956-.233-2.508 0-4.432.466v.642q-.059.35-.059.7-.116 1.166-.058 2.565t.817 2.566q-.234.233-.875.233-.467 1.925.35 2.858.758.991 1.807 1.75l1.05.816q.467.408.817.99-.35.934-.875.934-.583.058-1.225-.117-.583-.116-1.283-.175t-1.458.409q-.116-.059-.408-.175-1.4-.7-2.507-1.458-1.167-.7-1.575-1.925-.466-1.224.233-3.265-.933-.175-1.924-.117l-1.983.233q-1.69.234-3.382.175t-3.149-1.458q.758-1.516 2.508-1.749t3.673-.233q1.108 0 2.216-.059 1.05 0 1.867-.35.816-.291 1.282-1.05.409-.699.35-2.04-1.69-.292-3.615-.175-1.983.117-3.79.233-.7.117-1.342.117-.641.058-1.225.116h-1.05q-1.049 0-1.807.175t-.875 1.283q-3.207 0-5.481-1.166-2.333-1.108-4.14-3.499M23.35 22.79q1.283-1.983 3.557-2.8t5.015-.816q2.741-.058 5.54.408 2.8.408 5.19.933.583.7 1.633 1.05t2.04.758q.934.35 1.4 1.05.234.408.642 1.166.35.758.641 1.516t.35 1.05q.059.7-.058 1.341t-.233 1.341q-.234.758-.35 1.575-.117.875 0 1.808.058.408.233.758l.233.7q.292.583.409 1.166t-.409 1.4q-.466.233-1.34.29l-.876.06q2.8.35 4.84 1.049 1.983.758 2.975 3.266-.409.583-.467 1.4-.058.874.058 1.515 1.225-.758 2.8-.525t2.915 1.108q1.283.933 1.866 2.041-.7.759-1.866.759-1.224.058-2.624 0l-1.516-.117q-.817-.058-1.575.058-.7 1.808.059 2.858.7 1.108 1.633 1.924.291.292.583.525.233.233.466.525-1.166.7-2.682.641-1.575-.058-2.974-.758t-2.1-1.983q-.758-1.283-.291-3.09l-1.4.116-1.4.117q-1.865.233-3.79.292t-3.732-.409q-1.866-.466-3.44-1.866.466-.816 1.516-.933.991-.116 2.332-.116.525.058 1.108.058.525 0 1.05-.058 2.45-.117 4.432-.35 1.924-.234 3.965-.583.117-.759.175-1.575.058-.758 0-1.75-1.458-.583-3.032-.524-1.633.116-3.266.291-1.574.175-3.09.234-1.575.058-2.975-.467t-2.507-2.1q2.916-1.049 5.54-1.224 2.624-.117 5.89-.35-1.283-.816-1.75-2.157t-.466-2.916.116-3.09q.059-1.109.117-2.158 0-.992-.233-1.692-1.225-.874-3.324-1.34-2.1-.41-4.316-.234t-3.673.991q-.933.292-1.225.817t-.525 1.283v1.282q-.233-.233-.291-.466-.117-.175-.409-.175v.933q0 1.05.059 2.1t.466 2.39q-3.324-1.283-4.957-4.082t-2.682-6.24m29.157 12.247q.117-.117.7-1.167l1.341-2.274q.758-1.224 1.342-2.216.524-.933.583-1.05.874-1.282 2.1-3.032t2.682-3.207q1.457-1.516 3.09-1.925.758.117 1.983.175 1.166.059 1.808 0-1.05 1.342-2.1 2.508-1.05 1.108-2.974 2.507 0 .117.175.117.175.058.292.117-1.691 2.39-3.324 4.782t-2.8 5.248q.06 1.05.7 1.574t1.109 1.283q-.875.7-2.391.642-1.517 0-2.858-.583-1.4-.525-1.924-1.458-.583-.933.466-2.041"/>
</svg>
