<svg xmlns="http://www.w3.org/2000/svg" width="42mm" height="42mm" viewBox="0 0 42 42">
    <defs>
        <filter id="0GY_svg__a" width="1.092" height="1.1" x="-.03" y="-.028" color-interpolation-filters="sRGB">
            <feFlood flood-color="#000" flood-opacity=".851" result="flood"/>
            <feComposite in="flood" in2="SourceGraphic" operator="in" result="composite1"/>
            <feGaussianBlur in="composite1" result="blur" stdDeviation=".4"/>
            <feOffset dx="1" dy="1.5" result="offset"/>
            <feComposite in="SourceGraphic" in2="offset" result="composite2"/>
        </filter>
    </defs>
    <path fill="#ffe680" d="m12.198 152.583 12.356-3.382 12.353 2.896 3.723 31.293-31.834.028z" filter="url(#0GY_svg__a)" transform="translate(-4.213 -146.06)"/>
    <path d="M21.15 10.607c-.309.135-1.009.315-1.551.427-.525.113-1.746.36-2.716.563-.95.18-2.115.404-2.56.494-1.107.18-1.107.698.057 1.979 1.008 1.147 1.435 1.237 2.6.54.426-.27 1.067-.494 1.416-.517l.62-.022.058 2.428c.04 1.822 0 2.429-.193 2.496-.136.045-.718.248-1.3.45-.563.203-1.416.36-1.881.36-.447 0-.893.09-.951.225-.136.27.679 1.709 1.241 2.159.485.404 1.901.472 2.211.113a.84.84 0 0 1 .563-.248c.29 0 .33.27.33 2.789 0 2.136-.078 2.856-.272 3.058-.155.157-1.26.36-2.463.472a64 64 0 0 0-4.443.675c-1.377.292-2.522.404-2.968.314-.64-.156-.698-.112-.698.338 0 .562 1.144 1.934 1.882 2.272.717.314 1.669.246 2.172-.158.621-.517 2.988-1.214 4.035-1.214.486 0 1.029-.112 1.223-.225.213-.135 1.804-.315 3.55-.45 2.677-.158 3.336-.158 4.132.135.543.202 2.075.405 3.511.473 2.212.112 2.639.066 3.066-.248.776-.585.563-1.238-.7-2.204-.969-.765-1.26-.855-3.22-1.102-1.649-.203-2.54-.203-3.938 0-.989.157-1.881.18-1.978.067-.214-.247-.233-5.442-.019-5.667.29-.293 1.745-.675 2.522-.675.911 0 1.241-.36 1.027-1.056-.194-.54-1.804-1.193-2.967-1.193-.389 0-.757-.112-.815-.225-.078-.134-.194-.922-.253-1.73-.116-1.351-.194-1.508-.717-1.845-1.223-.764-1.067-.832 2.948-1.552 1.203-.203 2.27-.494 2.406-.652.465-.54.039-1.35-.93-1.732-.991-.382-3.124-.45-4.037-.112"/>
    <path d="m25.678 23.476-.567.522.84.576c.468.301.961.576 1.085.576s.815.44 1.506.989c.913.686 1.506.96 2 .878.642-.082.716-.165.69-1.07-.048-1.977-1.234-2.91-3.825-2.965-.79-.028-1.334.137-1.729.494"/>
</svg>
