<svg xmlns="http://www.w3.org/2000/svg" width="42mm" height="42mm" viewBox="0 0 42 42">
    <defs>
        <filter id="1GY_svg__a" width="1.092" height="1.1" x="-.03" y="-.028" color-interpolation-filters="sRGB">
            <feFlood flood-color="#000" flood-opacity=".851" result="flood"/>
            <feComposite in="flood" in2="SourceGraphic" operator="in" result="composite1"/>
            <feGaussianBlur in="composite1" result="blur" stdDeviation=".4"/>
            <feOffset dx="1" dy="1.5" result="offset"/>
            <feComposite in="SourceGraphic" in2="offset" result="composite2"/>
        </filter>
    </defs>
    <path fill="#ffe680" d="m37.515 254.226-12.356 3.382-12.353-2.897-3.723-31.293 31.834-.028z" filter="url(#1GY_svg__a)" transform="translate(-4.5 -220.249)"/>
    <path d="M19.775 28.884c.31-.135 1.01-.315 1.552-.428.524-.112 1.746-.36 2.717-.562.95-.18 2.114-.405 2.56-.494 1.106-.18 1.106-.698-.058-1.98-1.009-1.147-1.435-1.238-2.6-.54-.427.27-1.067.495-1.416.518l-.62.022-.059-2.428c-.04-1.822 0-2.429.194-2.497.135-.045.718-.247 1.3-.45.563-.202 1.416-.36 1.882-.36.445 0 .892-.09.95-.225.136-.27-.68-1.708-1.242-2.158-.485-.405-1.9-.473-2.21-.113a.84.84 0 0 1-.563.248c-.291 0-.33-.27-.33-2.789 0-2.137.077-2.856.271-3.059.155-.157 1.26-.36 2.464-.472 1.203-.135 3.201-.427 4.442-.675 1.378-.291 2.523-.404 2.968-.314.64.157.699.112.699-.338 0-.563-1.144-1.934-1.882-2.271-.717-.315-1.668-.248-2.173.157-.62.518-2.987 1.215-4.035 1.215-.484 0-1.028.112-1.222.225-.213.135-1.804.315-3.55.45-2.677.156-3.337.156-4.132-.135-.544-.203-2.076-.405-3.511-.473-2.212-.112-2.639-.067-3.066.248-.776.584-.562 1.237.699 2.203.97.765 1.261.856 3.22 1.102 1.65.203 2.541.203 3.938 0 .99-.157 1.882-.18 1.979-.067.213.247.233 5.442.018 5.667-.29.292-1.745.675-2.521.675-.911 0-1.241.36-1.028 1.057.194.54 1.804 1.192 2.968 1.192.388 0 .757.112.816.225.077.135.193.921.251 1.732.116 1.349.194 1.506.718 1.843 1.222.765 1.067.833-2.949 1.552-1.203.202-2.269.495-2.406.653-.465.539-.037 1.349.932 1.73.99.383 3.123.45 4.035.113z"/>
    <path d="m15.247 16.014.568-.521-.84-.577c-.469-.302-.962-.575-1.086-.575s-.814-.44-1.506-.989c-.913-.686-1.505-.96-1.999-.878-.642.082-.716.165-.69 1.07.048 1.976 1.233 2.91 3.825 2.964.79.029 1.333-.136 1.728-.494"/>
</svg>
