<svg xmlns="http://www.w3.org/2000/svg" viewBox="0 0 50 50"><path fill="currentColor" d="M25.001 2.848 10.489 7.25 3.72 47.152l42.561-.002-6.77-39.9ZM22.058 6.67c.235.003.847.425 1.511 1.043 1.287 1.197 2.397 1.668 5.641 2.39 1.106.247 2.065.484 2.133.526.148.092-.8 2.095-1.287 2.717-.3.384-.48.44-1.424.44h-1.08l-.026.921-.025.924h1.209c1.196 0 1.212-.007 1.457-.572.429-.987 2.04-2.737 3.342-3.633.851-.586 1.258-.617.777-.059-.215.25-.529 1.77-.305 3.66.333 2.36 1.502 4.694 3.26 6.504.327.336.594.697.594.801-.647 1.712-1.276 3.421-2.219 5.002-.561.886-1.683 2.01-2.006 2.01-.692-.536-1.115-1.338-1.45-2.127-.178-.232-.079-.112-.214.63-.315 1.733-.747 2.499-.967 3.16-.111.339-.475.374-.86.2-2.87-1.38-5.737-2.855-9.015-2.207-1.015.327-1.453.59-2.2 1.32-.896.874-.934.948-.934 1.842 0 2.833 3.46 6.21 6.322 6.17 2.126-.21 4.04-1.292 5.775-2.484.163-.145.598-.49.965-.764.368-.275.967-.789 1.332-1.143a63 63 0 0 1 1.53-1.418c.476-.425 1.695-1.571 2.71-2.548 1.016-.977 2.036-1.935 2.268-2.127l.42-.352-.229.44c-.125.241-.477.646-.64.984-1.898 2.814-4.053 5.475-6.272 8.05a119 119 0 0 1-2.71 3.03c-.843.888-1.016 2.125-1.174 3.291.112.294-.592.643-2.914 1.443-2.132.735-2.625.837-2.989.618-3.29-1.72-6.179-4.675-8.967-7.114-2.137-1.843-3.88-3.304-5.199-5.568-.276-.474-.187-1.104.672-2.15.412-.503.79-.954.838-1.002.508-.509 1.348-1.815 1.959-3.047 1-2.016 1.712-2.292 3.508-1.362.65.338 1.23.43 3.633.586 1.572.102 2.889.155 2.927.116.039-.04.128-.377.198-.75l.127-.68-2 .043c-2.663.057-2.567.077-2.9-.574-.162-.315-.376-.624-.475-.688-.319-.205.385-1.669 1.12-2.334.75-.676 1.214-.765 1.962-.375.4.21 1.566.353 2.36.291.13-.01.202-.404.202-1.08 0-1.057-.002-1.064-.465-.976-3.275.62-3.644.559-4.263-.721l-.373-.772.501-.808c.277-.445.794-1.044 1.147-1.328l.643-.518.966.281c.532.155 1.214.282 1.516.282.47 0 .563-.077.654-.532.059-.292.353-.738.655-.994.524-.444.53-.46.109-.357-.627.154-4.773.18-5.148.031-.696-.275-1.07-1.748-.573-2.246.928-1.895 2.295-3.615 4.36-4.336m8.021 9.94c-.085.052-.154.3-.154.548 0 .538-.604 1.57-1.06 1.815-.18.095-.52.173-.759.173-.395 0-.438.078-.494.88l-.06.878h.988c.544 0 1.244-.05 1.555-.113.548-.11.562-.135.468-.834a57 57 0 0 1-.212-2.082c-.064-.748-.186-1.318-.272-1.266m.707 5.527c-.058-.001-.255.332-.44.74-.544 1.209-.978 1.563-1.949 1.6l-.845.03-.053 1-.053 1.003.756.052c.891.065 3.534-.037 3.643-.14.105-.1-.929-4.282-1.059-4.285m-8.41 8c1.765-.014 3.749.647 5.197 1.222.675.439 2.36 2.203 2.756 2.885l.318.549-.494.002c-.271 0-.88.12-1.355.264-1.23.373-1.671.328-2.211-.223-1.688-1.722-3.52-2.707-3.52-1.895 0 .586 1.179 2.942 1.891 3.782.874 1.031.848 1.045-.863.447-2.354-.823-3.942-2.108-4.828-3.906-.394-.799-.427-.992-.254-1.514.75-1.184 1.99-1.603 3.363-1.613m18.367.289-.066.695c-.137 1.433-.206 1.137 1.304 4.39.249.536.456.57.301.905-1.314 2.83-1.877 3.852-2.345 4.246-.3.253-.639.46-.752.461a3.6 3.6 0 0 0-.559.078c-.193.042-.468.028-.611-.031v.002a1.5 1.5 0 0 1-.444-.299c-.312-.329-1.45-1.971-1.732-2.5a6.6 6.6 0 0 0-.674-.978c-1.046-1.225-1.238-1.592-.803-1.536.688.09.994-.084 1.635-.933.867-1.147 3.55-3.814 4.234-4.207z"/></svg>