<svg xmlns="http://www.w3.org/2000/svg" viewBox="0 0 50 50"><path d="M25 1.139 10.538 5.88 3.79 48.861h42.42l-6.747-42.98Zm-2.89 5.916c.021.006.048.01.112.042q.132.065.323.196c.253.174.565.427.89.73 1.307 1.216 2.48 1.712 5.72 2.434.55.123 1.064.245 1.447.339.192.047.351.087.464.118l.033.01c-.012.043-.022.081-.045.145a9 9 0 0 1-.324.762c-.275.58-.64 1.234-.854 1.509-.14.178-.21.241-.363.288-.154.048-.419.067-.885.067h-1.29l-.03 1.133-.03 1.144h1.428c.596 0 .904.013 1.162-.088a.7.7 0 0 0 .31-.252c.071-.106.12-.22.18-.361.193-.444.691-1.123 1.298-1.784.607-.66 1.327-1.312 1.956-1.744a5 5 0 0 1 .434-.267 1.4 1.4 0 0 0-.164.38c-.06.22-.114.502-.154.833-.079.663-.101 1.53.013 2.49l.001.002v.001c.339 2.401 1.526 4.766 3.31 6.603.156.16.299.326.398.46.05.068.087.129.11.17.004.006.001-.004.004.002-.636 1.684-1.25 3.354-2.164 4.886-.267.42-.678.912-1.055 1.29-.19.19-.371.351-.517.46-.101.076-.131.084-.166.101-.593-.496-1.003-1.203-1.318-1.943l-.01-.025-.018-.021q-.031-.043-.059-.078c-.02-.024-.031-.049-.1-.085a.24.24 0 0 0-.173-.02.24.24 0 0 0-.138.105c-.04.067-.036.095-.04.127-.02.13-.024.315-.09.674-.309 1.703-.727 2.426-.957 3.12-.034.103-.071.125-.16.142a.7.7 0 0 1-.399-.076c-2.854-1.373-5.765-2.876-9.115-2.213l-.011.003-.012.003c-1.027.33-1.524.627-2.28 1.366-.448.437-.697.681-.843.969s-.154.574-.154 1.023c0 1.5.899 3.085 2.148 4.304s2.861 2.082 4.374 2.06h.019c2.178-.215 4.118-1.318 5.858-2.514l.01-.006.011-.008c.147-.13.583-.479.946-.75.38-.283.975-.795 1.348-1.158.36-.348 1.045-.983 1.517-1.404.482-.43 1.695-1.572 2.708-2.547.707-.68 1.135-1.073 1.573-1.476-.03.05-.068.095-.094.146-1.883 2.793-4.025 5.439-6.233 8.002a117 117 0 0 1-2.694 3.01c-.9.947-1.068 2.237-1.226 3.399l-.008.057.01.028c-.002.004-.001.008-.021.028a1.7 1.7 0 0 1-.404.253c-.43.214-1.183.5-2.337.897-1.06.366-1.712.572-2.122.657s-.54.057-.672-.022l-.011-.006q-.002 0-.003-.003c-3.233-1.69-6.104-4.618-8.89-7.056v-.002c-2.132-1.837-3.843-3.272-5.135-5.491-.111-.191-.15-.39-.068-.69.082-.301.299-.697.715-1.205a93 93 0 0 1 .74-.888l.081-.095c.554-.553 1.376-1.849 1.993-3.093.491-.99.9-1.505 1.335-1.673s.99-.042 1.866.413c.34.176.681.294 1.221.382.54.087 1.286.148 2.485.226.785.05 1.506.09 2.038.11.266.011.484.017.641.017q.118.002.192-.001l.07-.007q.017-.002.044-.009l.037-.014.026-.015.04-.03c.046-.046.049-.07.06-.093l.028-.071q.026-.078.054-.185a8 8 0 0 0 .112-.512l.177-.94-2.262.047c-1.327.029-1.977.041-2.269-.017-.146-.029-.188-.056-.236-.11s-.101-.16-.186-.326a4 4 0 0 0-.273-.46c-.092-.134-.15-.23-.275-.31.026.017.026.04.023.017a.5.5 0 0 1 .011-.152c.027-.144.1-.352.208-.577.216-.45.569-.967.902-1.268.36-.325.63-.488.872-.534s.484.01.834.192c.258.135.651.213 1.103.269s.95.079 1.368.046c.14-.01.222-.116.264-.197a1 1 0 0 0 .082-.27q.058-.31.057-.827c0-.527.03-.777-.08-1.009a.43.43 0 0 0-.32-.216c-.115-.008-.207.016-.323.038-1.629.309-2.533.434-3.04.349-.252-.043-.404-.123-.547-.269-.143-.145-.274-.37-.425-.681l-.318-.66.437-.703c.258-.414.778-1.013 1.095-1.268l.549-.444.855.247c.547.159 1.21.289 1.57.289.247 0 .444-.011.606-.143.163-.132.213-.324.261-.562.039-.194.322-.65.58-.868.132-.11.23-.195.303-.262q.055-.05.095-.093c.027-.03.054-.05.077-.129a.24.24 0 0 0-.015-.175.24.24 0 0 0-.135-.118c-.08-.027-.113-.016-.15-.011-.076.01-.152.028-.258.054-.103.026-.493.064-.97.086s-1.063.035-1.64.038a40 40 0 0 1-1.589-.018 12 12 0 0 1-.558-.031c-.144-.013-.26-.042-.243-.034-.235-.093-.493-.468-.6-.887-.107-.418-.047-.84.105-.993l.025-.026.016-.033c.903-1.845 2.222-3.483 4.181-4.184zm7.935 9.459a.3.3 0 0 0-.088.03c-.15.093-.17.203-.205.325a1.5 1.5 0 0 0-.055.407c0 .186-.132.57-.327.903s-.463.633-.613.713a1.9 1.9 0 0 1-.65.147c-.106 0-.202 0-.305.034a.5.5 0 0 0-.26.216c-.112.199-.12.426-.148.829l-.076 1.11h1.22c.556 0 1.242-.048 1.59-.118.139-.028.248-.049.35-.087a.5.5 0 0 0 .272-.214c.121-.217.067-.423.02-.773a57 57 0 0 1-.211-2.066 8 8 0 0 0-.132-.955 1.7 1.7 0 0 0-.085-.3.4.4 0 0 0-.083-.13.24.24 0 0 0-.116-.07.3.3 0 0 0-.098-.001m.736 5.505c-.113-.002-.149.044-.177.068a.5.5 0 0 0-.067.072q-.06.075-.122.181a6 6 0 0 0-.278.544c-.266.59-.496.948-.75 1.156s-.541.293-1 .31l-1.043.04-.063 1.194-.064 1.21.967.072c.468.034 1.345.022 2.133-.009a24 24 0 0 0 1.043-.059q.212-.018.352-.039.067-.01.123-.023c.037-.01.062.008.146-.071l.093-.089-.02-.076.003-.07a2 2 0 0 0-.02-.167 10 10 0 0 0-.095-.511c-.085-.409-.21-.94-.34-1.468a43 43 0 0 0-.383-1.453 9 9 0 0 0-.153-.487 2 2 0 0 0-.06-.153.4.4 0 0 0-.04-.07c-.01-.013-.02-.027-.044-.048a.2.2 0 0 0-.092-.048zm-8.38 8.408q.281-.001.571.019c1.548.109 3.225.672 4.497 1.176.296.196.882.735 1.424 1.302.548.573 1.068 1.193 1.239 1.487l.126.22h-.114c-.333.001-.923.123-1.414.272-.603.183-.998.255-1.274.227s-.459-.136-.71-.391c-.853-.871-1.738-1.556-2.434-1.931-.349-.188-.644-.306-.91-.312a.54.54 0 0 0-.38.12.5.5 0 0 0-.155.386c0 .219.083.47.208.795.124.324.295.705.489 1.092.387.775.855 1.574 1.237 2.024.16.189.25.302.34.418a22 22 0 0 1-.961-.32c-2.308-.807-3.83-2.05-4.686-3.786-.194-.393-.291-.625-.32-.794-.027-.16.002-.291.072-.511.703-1.093 1.844-1.485 3.155-1.493m18.037.469-.026.271c-.068.71-.121 1.048.043 1.593.165.544.526 1.276 1.278 2.896.132.286.26.451.307.537s.054.051-.007.182c-1.308 2.817-1.892 3.826-2.283 4.155a4 4 0 0 1-.417.304 2 2 0 0 1-.157.085c-.04.018-.073.02-.036.019h-.001a3.5 3.5 0 0 0-.598.082 1.3 1.3 0 0 1-.483-.019c-.1-.04-.3-.178-.364-.245-.122-.128-.497-.633-.852-1.145-.356-.513-.713-1.06-.84-1.298a6.6 6.6 0 0 0-.699-1.016c-.51-.597-.803-.983-.91-1.18.327.032.622.02.886-.13.288-.165.536-.444.861-.874.416-.55 1.302-1.503 2.159-2.355a34 34 0 0 1 1.208-1.147c.356-.318.657-.557.788-.633z"/></svg>