<svg xmlns="http://www.w3.org/2000/svg" style="height:512px;width:512px" viewBox="0 0 512 512"><path fill="white" d="M476.401 54.05c3.674-.052 7.343.22 11.016.766-.984 18.973-2.226 39.808-8.106 56.516-6.682 18.99-17.358 32.218-42.87 35.504l-3.964.51-19.552 28.15c11.674 19.768 24.757 40.383 27.453 64.24 3.753 37.524-24.697 70.767-24.107 110.537.513 34.337 38.857 58.057 76.39 69.592V494h-191.1c-5.815-59.63-3.997-142.295-46.45-193.568.098-.082.193-.158.292-.24 36.887 13.005 67.608 15.536 91.19 5.884 7.885-3.227 14.73-7.882 20.49-13.763 9.234-16.563 10.896-32.02 1.967-42.104-4.063 20.628-13.888 32.91-29.277 39.208-35.125 6.58-61.317.294-87.974-9.633-37.367 28.99-77.208 43.628-120.232 47.863-3.3 19.667-13.757 35.763-30.412 40.163-14.11 3.496-31.643.26-43.44-5.744-17.47-8.89-27.032-33.07-17.07-59.71 48.152-2.008 100.698-13.49 133.68-42.907-16.136 3.43-33.54 6.376-47.3 8.034-26.324 12.59-51.317 13.888-90.546 17.073-8.062-5.743-13.12-10.632-15.63-14.584-2.774-4.368-3.313-7.532-2.51-12.754 3.09-11.252 11.807-15.73 21.478-14.93 15.433-39.633 39.394-82.483 70.715-97.464 36.225-8.937 73.532 1.93 105.856 11.54-3.448-14.18 1.07-18.407 6.27-28.366 19.06-19.503 39.63-11.05 57.38-18.498 14.267-8.968 15.308-35.744 28.94-42.57 11.082-4.523 26.49-4.93 40.848-1.68 14.36 3.25 27.51 10.208 34.336 17.787l4.785 5.312 6.257-3.46c28.671-15.852 55.02-30.482 81.197-30.841Zm-16.054 24.41c-12.82 1.653-26.336 9.28-38.996 18.04-12.66 8.757-23.642 18.164-29.495 27.225l15.12 9.767c2.81-4.348 13.225-14.31 24.617-22.19s24.586-14.155 31.052-14.987ZM276.52 159.12c-6.545.052-14.645 1.008-28.33 2.614-4.758 1.464-4.267 10.61 2.6 15.733 26.57 9.943 38.235 14.125 64.15-9.88-20.924-6.123-27.513-8.55-38.42-8.466zM104.404 183.4c-20.81 7.5-30.964 29.094-38.154 47.196l16.75 6.59c4.683-10.115 13.924-33.156 25.414-36.24z"/></svg>