<svg xmlns="http://www.w3.org/2000/svg" style="height:512px;width:512px" viewBox="0 0 512 512"><path fill="white" d="M268.42 18.844c2.157.02 4.292.068 6.406.156 73.28 3.064 120.385 46.286 139.406 94.094 11.706 29.42 12.328 60.463 1.813 84.78-10.515 24.32-31.522 42.552-66.906 47.845-18.85 2.818-37.402 5.89-55.314 9.5-59.88-25.15-71.217-72.16-86.625-115.19-7.735-21.602-16.277-42.437-33.874-56.655-12.758-10.31-29.792-16.212-52.47-16.563 28.51-20.475 62.022-35.544 99.095-43.093 17.22-3.507 33.372-5.024 48.47-4.876zm-147.47 66.53c19.04.243 31.413 5.12 40.626 12.564 12.818 10.356 20.528 27.42 28.03 48.374 13.216 36.904 26.567 85.154 75.752 115.282-42.035 10.47-78.926 24.997-105.188 47.5-21.364 18.306-35.342 42.586-37.406 72.75-1.54 22.492 3.3 47.973 15.25 77.187C36.958 385.23 8.15 291.847 25.576 209.75c9.833-46.322 34.647-89.155 70.344-122.5 9.447-1.382 17.738-1.968 25.03-1.875Zm308.376 15.44c20.48 6.425 42.002 17.384 64.28 33.655l.002 359.155H262.733c-11.166-23.298-19.82-46.743-26.188-69.97 34.545-1.148 67.374-12.59 94.563-31.06 48.912-33.232 80.487-89.767 72.25-149.22 13.442-10.208 23.455-23.32 29.843-38.094 12.89-29.806 11.65-65.73-1.624-99.093a155 155 0 0 0-2.25-5.374zM284.67 127.938c-23.412 0-42.406 18.968-42.406 42.374s18.994 42.375 42.406 42.375 42.375-18.968 42.375-42.375c0-23.406-18.963-42.375-42.375-42.375zm100.97 126.187c3.5 48.926-23.382 94.734-65.032 123.03-44.693 30.365-105.29 39.94-162.657 9.658a146 146 0 0 0 17.376-3.907c13.214-17.616 20.057-42.566 18.688-63.187a70 70 0 0 0-1.5-10.533c5.35-3.108 11.05-6.05 17.094-8.812 1.66 5.77 2.648 11.858 3.062 18.094 1.14 17.168-2.01 35.7-9.188 52.592 35.888-20.445 55.414-55.432 58.22-88.875 27.608-7.465 58.322-13.202 90.187-17.968 12.5-1.87 23.76-5.332 33.75-10.095z"/></svg>