<svg xmlns="http://www.w3.org/2000/svg" xmlns:xlink="http://www.w3.org/1999/xlink" width="30mm" height="30mm" viewBox="0 0 30 30">
    <defs>
        <linearGradient id="0_BISHOP_svg__a">
            <stop offset="0" stop-color="#ffdba6"/>
            <stop offset="1" stop-color="#f2c478"/>
        </linearGradient>
        <linearGradient xlink:href="#0_BISHOP_svg__a" id="0_BISHOP_svg__b" x1="244.85" x2="244.85" y1="222.989" y2="140.991" gradientTransform="translate(2040.944 -212.603)" gradientUnits="userSpaceOnUse"/>
    </defs>
    <path fill="url(#0_BISHOP_svg__b)" d="m0 0-21.223 7.255a1.62 1.62 0 0 1-1.044 0L-43.49 0c-.512-.175-.879-.593-.956-1.088L-54.328-64.8c-.128-.823.569-1.559 1.477-1.559H9.361c.907 0 1.605.736 1.477 1.559L.955-1.088C.879-.593.512-.175 0 0" transform="matrix(.35278 0 0 -.35278 22.671 4.59)"/>
    <path fill="#4d3608" d="M4.026 28.3c-.482 0-.892-.415-.817-.896L6.694 4.928a.8.8 0 0 1 .537-.622l7.488-2.56a.87.87 0 0 1 .562 0l7.487 2.56c.277.095.491.33.536.622l3.487 22.476c.075.481-.335.896-.818.896H15Zm0-.6h21.947c.158 0 .24-.103.225-.203v-.001L22.712 5.019c-.009-.056-.054-.116-.138-.145l-7.487-2.56a.3.3 0 0 0-.174 0l-7.487 2.56c-.084.028-.13.089-.138.146L3.802 27.496c-.016.1.066.204.224.204"/>
    <path d="m13.645 5.7.794.232-.397.562h2.216l.132-.066.463.496q-.066.033-1.058 1.025h2.315v4.664q0 .33-.265.595-.297.265-1.29.298 0-.265-.033-.331 0-.033-.066-.165-.066-.067-.165-.265h.86q.066 0 .1-.033.032-.033.032-.1v-.992H13.05q-.066.232-.43 1.026-.199.297-.662.76-.231-.33-.595-.595.629-.628.794-1.025.165-.496.231-.926.067-.86.067-2.58-.53.496-.827.662-.199-.331-.53-.596.728-.463 1.257-.992.596-.661 1.29-1.654m-.86 2.25h2.117l.694-.794h-2.083q-.265.264-.43.463-.165.198-.298.33m2.778 1.488h1.72V8.61h-1.72zm-.76-.827h-1.588v.827h1.588zm.76 2.348h1.72v-.926h-1.72zm-2.38 0h1.62v-.926h-1.588q-.033.298-.033.926m4.983 13.56L11.517 17.8l.32-.317 6.648 6.716z"/>
    <path d="M11.453 18.999v-1.582h1.568v.45h-1.118v1.132Zm5.529 5.585v-.45H18.1v-1.132h.45v1.582zm-5.145-.067-.32-.317 6.648-6.717.32.318z"/>
    <path d="M11.452 24.584v-1.582h.45v1.132h1.118v.45zm6.648-5.543v-1.174h-1.118v-.45h1.568v1.624Z"/>
</svg>
