<svg xmlns="http://www.w3.org/2000/svg" xmlns:xlink="http://www.w3.org/1999/xlink" width="30mm" height="30mm" viewBox="0 0 30 30">
    <defs>
        <linearGradient id="0_BOAR_svg__a">
            <stop offset="0" stop-color="#ffdba6"/>
            <stop offset="1" stop-color="#f2c478"/>
        </linearGradient>
        <linearGradient xlink:href="#0_BOAR_svg__a" id="0_BOAR_svg__b" x1="244.85" x2="244.85" y1="222.989" y2="140.991" gradientTransform="translate(5442.518 -212.603)" gradientUnits="userSpaceOnUse"/>
    </defs>
    <path fill="url(#0_BOAR_svg__b)" d="m0 0-21.223 7.255a1.62 1.62 0 0 1-1.044 0L-43.49 0c-.512-.175-.879-.592-.956-1.088L-54.328-64.8c-.128-.823.569-1.559 1.477-1.559H9.361c.908 0 1.605.736 1.477 1.559L.956-1.088C.879-.592.512-.175 0 0" transform="matrix(.35278 0 0 -.35278 22.671 4.59)"/>
    <path fill="#4d3608" d="M4.026 28.3c-.482 0-.892-.415-.817-.896L6.694 4.928a.8.8 0 0 1 .537-.622l7.488-2.56a.87.87 0 0 1 .562 0l7.487 2.56c.277.095.491.33.537.622l3.485 22.476c.076.48-.334.896-.817.896H15Zm0-.6h21.947c.159 0 .24-.103.225-.203v-.001L22.712 5.02c-.01-.057-.054-.117-.138-.146l-7.487-2.56a.3.3 0 0 0-.174 0l-7.487 2.56c-.084.029-.13.089-.138.146L3.802 27.496c-.016.1.066.204.224.204"/>
    <path fill="red" d="M17.316 12.415v-.761h-1.984v.76zm0-1.356v-.695h-1.984v.695zm.133-3.506h-1.29v.827h.496q.231-.265.43-.463zm-2.05-.662v-.959h.76v.96h1.323v.595q.397-.43.694-.86l.629.43q-.166.231-1.125 1.323h1.025v.661h-1.72q-.363.364-.892.728h1.984v3.605h-.76v-.331h-1.985v.397h-.728v-2.68q-.529.299-.727.365-.265-.43-.43-.662 1.323-.529 2.447-1.422h-2.348V8.38h1.852v-.827h-1.422V6.89Zm-2.812.033q.53-.595.728-.893l.562.497q-.298.363-.992 1.124.463 1.39.463 3.175 0 .397-.066 1.125-.033.529-.166.76-.165.265-.364.397-.397.232-1.025.265-.033-.232-.298-.794h.761q.1 0 .232-.066.033-.033.099-.43.099-.728.066-1.852-.43.529-.993.992-.132-.265-.496-.595.53-.43 1.422-1.423-.033-.396-.231-1.058-.066.033-.165.132-.1.067-.232.166l-.397.297q-.264-.463-.463-.628.199-.132.96-.661-.331-.563-.695-1.158l.595-.397q.43.595.695 1.025m-2.016 13.301v-.45h8.859v.45z"/>
    <path fill="red" d="M11.307 21.054 10.252 20l1.055-1.053.318.318-.736.735.736.736Zm7.386-.001-.318-.318.736-.735-.736-.736.318-.318L19.748 20Zm-.72 2.238-6.264-6.264.318-.318 6.264 6.264Z"/>
    <path fill="red" d="M11.643 18.133v-1.49h1.49v.45h-1.04v1.04Zm5.223 5.223v-.45h1.04v-1.04h.451v1.49zm-4.839-.065-.318-.318 6.264-6.264.318.318z"/>
    <path fill="red" d="M11.643 23.357v-1.49h.45v1.04h1.04v.45zm6.265-5.223v-1.04h-1.041v-.451h1.49v1.491Z"/>
</svg>
