<svg xmlns="http://www.w3.org/2000/svg" xmlns:xlink="http://www.w3.org/1999/xlink" width="30mm" height="30mm" viewBox="0 0 30 30">
    <defs>
        <linearGradient id="0_CHARIOT_svg__a">
            <stop offset="0" stop-color="#ffdba6"/>
            <stop offset="1" stop-color="#f2c478"/>
        </linearGradient>
        <linearGradient xlink:href="#0_CHARIOT_svg__a" id="0_CHARIOT_svg__b" x1="244.85" x2="244.85" y1="222.989" y2="140.991" gradientTransform="translate(5669.29 -212.603)" gradientUnits="userSpaceOnUse"/>
    </defs>
    <path fill="url(#0_CHARIOT_svg__b)" d="m0 0-18.208 6.244c-.37.127-.78.127-1.15 0L-37.566 0c-.538-.184-.92-.612-.998-1.116l-8.551-55.301c-.13-.841.611-1.59 1.573-1.59H7.976c.962 0 1.703.749 1.573 1.59L.998-1.116C.92-.612.538-.184 0 0" transform="matrix(.35278 0 0 -.35278 21.626 5.887)"/>
    <path fill="#4d3608" d="M5.56 26.65c-.496 0-.928-.413-.852-.906L7.725 6.235a.81.81 0 0 1 .551-.632L14.7 3.4a.92.92 0 0 1 .6 0l6.424 2.203a.81.81 0 0 1 .551.632l3.017 19.509c.076.493-.356.907-.85.907H15Zm0-.6h18.88c.184 0 .274-.115.258-.214l-3.016-19.51c-.01-.056-.057-.123-.153-.155l-6.424-2.203a.34.34 0 0 0-.21 0L8.47 6.171c-.096.033-.143.099-.152.156L5.301 25.835c-.015.1.075.215.258.215"/>
    <path d="M15.661 11.592q.463-.563.827-1.092.364-.628.53-1.091h-2.58q.198.661.462 1.124.232.43.761 1.059m-3.473-4.763h6.284v.662h-5.523v1.29h4.333l.066-.067.628.463q-.165.331-.198.43-.331.794-.596 1.257-.463.628-.959 1.19.662.464 1.224.695.595.298 1.389.496-.298.298-.496.695-.86-.265-1.455-.595-.496-.232-1.224-.794-.728.562-1.124.76-.497.265-1.522.629-.132-.33-.43-.695 1.455-.363 2.547-1.19-.595-.695-.86-1.19-.33-.53-.595-1.456h-.728q-.066 1.786-.298 2.712-.297 1.025-.826 1.786-.199-.199-.662-.53.53-.76.695-1.355.231-.728.264-1.489.066-1.124.066-3.704M14.775 23.5v-7h.45v7Z"/>
    <path d="m14.452 17.366-.318-.318.866-.866.866.866-.317.318-.549-.548ZM15 23.818l-.866-.866.317-.318.549.548.548-.548.318.318z"/>
</svg>
