<svg xmlns="http://www.w3.org/2000/svg" xmlns:xlink="http://www.w3.org/1999/xlink" width="30mm" height="30mm" viewBox="0 0 30 30">
    <defs>
        <linearGradient id="0_COPPER_svg__a">
            <stop offset="0" stop-color="#ffdba6"/>
            <stop offset="1" stop-color="#f2c478"/>
        </linearGradient>
        <linearGradient xlink:href="#0_COPPER_svg__a" id="0_COPPER_svg__b" x1="244.85" x2="244.85" y1="222.989" y2="140.991" gradientTransform="translate(4762.203 -212.603)" gradientUnits="userSpaceOnUse"/>
    </defs>
    <path fill="url(#0_COPPER_svg__b)" d="m0 0-20.266 6.952a1.47 1.47 0 0 1-.952 0L-41.484 0a1.59 1.59 0 0 1-1.038-1.274l-9.381-60.689c-.151-.981.569-1.871 1.515-1.871H8.905c.945 0 1.666.89 1.514 1.871L1.038-1.274A1.59 1.59 0 0 1 0 0" transform="matrix(.35278 0 0 -.35278 22.317 4.98)"/>
    <path fill="#4d3608" d="M4.54 27.8c-.521 0-.91-.491-.83-1.006l3.309-21.41a.86.86 0 0 1 .566-.688l7.15-2.452a.82.82 0 0 1 .53 0l7.149 2.452a.86.86 0 0 1 .566.688l3.31 21.41c.08.514-.31 1.005-.831 1.005H15Zm0-.6h20.918c.145 0 .265-.137.238-.314l-3.31-21.41a.26.26 0 0 0-.166-.212L15.07 2.81a.2.2 0 0 0-.14 0L7.78 5.264a.27.27 0 0 0-.168.212l-3.309 21.41c-.027.177.092.313.238.313"/>
    <path d="m13.71 10.595.562.232-.496 1.19q-.099-.099-.53-.264zm-1.488 1.224-.662.199q-.297-.893-.397-1.224l.629-.232q.066.166.43 1.257m4.465-1.124v-1.19h-.596v1.19zm-1.224 1.157V8.876h1.852v2.745h-.628v-.232h-.596v.463zm-.1-3.737V7.52h2.118v.595Zm-.958 5.226V6.164h4.068v6.217q0 .563-.232.695-.264.265-1.025.364-.066-.43-.1-.563-.032-.132-.198-.33h.728q.066 0 .099-.033V6.858h-2.646v6.483zm-2.547-5.127h1.918v.629h-.628v.661h.893v.628h-.893v2.183q.595-.099.893-.165v.694l-.728.166-2.05.43-.132-.827q.33-.033.727-.066.397-.066.53-.066v-2.349h-1.125v-.628h1.124v-.661h-.595V8.28l-.33.397q-.2-.33-.497-.628.562-.595.992-1.19.133-.166.662-1.092l.628.397-.099.198q.232.132 1.19.926l-.528.595q-.265-.264-1.059-.926-.595.86-.893 1.257M14.775 24.5v-8h.45v8Z"/>
    <path d="m14.84 20.66-2.828-2.83.319-.318 2.828 2.83Z"/>
    <path d="m15.16 20.66-.319-.319 2.83-2.828.317.318Z"/>
</svg>
