<svg xmlns="http://www.w3.org/2000/svg" xmlns:xlink="http://www.w3.org/1999/xlink" width="30mm" height="30mm" viewBox="0 0 30 30">
    <defs>
        <linearGradient id="0_DRAGON_svg__a">
            <stop offset="0" stop-color="#ffdba6"/>
            <stop offset="1" stop-color="#f2c478"/>
        </linearGradient>
        <linearGradient xlink:href="#0_DRAGON_svg__a" id="0_DRAGON_svg__b" x1="244.85" x2="244.85" y1="222.989" y2="140.991" gradientTransform="translate(3250.53 -212.603)" gradientUnits="userSpaceOnUse"/>
    </defs>
    <path fill="url(#0_DRAGON_svg__b)" d="m0 0-21.223 7.255a1.62 1.62 0 0 1-1.044 0L-43.49 0c-.512-.175-.879-.593-.956-1.088L-54.328-64.8c-.128-.823.569-1.559 1.477-1.559H9.361c.907 0 1.605.736 1.477 1.559L.955-1.088C.879-.593.512-.175 0 0" transform="matrix(.3681 0 0 -.36636 23.004 4.19)"/>
    <path fill="#4d3608" d="M3.55 28.8c-.497 0-.918-.425-.841-.916L6.346 4.543a.82.82 0 0 1 .552-.636l7.812-2.658a.9.9 0 0 1 .579 0l7.812 2.658a.81.81 0 0 1 .552.636l3.638 23.341c.076.492-.345.917-.841.917H15Zm0-.598h22.9c.171 0 .264-.114.246-.226L23.058 4.634c-.01-.063-.06-.13-.151-.16l-7.812-2.659a.294.293 0 0 0-.19 0L7.091 4.473c-.091.031-.142.097-.152.161L3.303 27.976c-.018.112.075.226.246.226"/>
    <path d="M14.775 25.18v-8.358h.45v8.358Z"/>
    <path d="m14.315 17.824-.318-.318 1.004-1.003 1.003 1.003-.318.318-.686-.685ZM15 25.497l-1.004-1.003.318-.318.686.684.685-.684.318.318zm-4.178-4.272v-.45h8.358v.45z"/>
    <path d="m11.506 22.004-1.003-1.003 1.003-1.004.318.318-.684.686.684.685Zm6.988 0-.318-.318.685-.686-.685-.685.318-.318 1.003 1.004Zm-4.751-10.801v-.496h-1.455v.496zm0-1.025v-.53h-1.455v.53zM11.56 13.32V8.954h2.91v3.54q0 .33-.198.528-.264.199-.827.298-.033-.298-.099-.463 0-.033-.066-.132l-.165-.166h.43q.132 0 .165-.033.034-.033.034-.132v-.595h-1.456v1.52zm3.671-5.325V5.713h.794v.629h2.381v.595h-2.38v.496h2.38V9.12h-2.447v.496h2.216v.43h-2.216v.463h2.216v.463h-2.216v.463h2.216v.463h-2.216v.397q0 .231.132.264.066.066.463.066h.926q.331 0 .364-.033.298-.099.33-.529.332.232.662.33-.132.497-.363.662-.232.199-.53.199h-1.72q-.363 0-.562-.066-.165-.033-.33-.265-.1-.132-.1-.43V8.557h2.448v-.562Zm-1.852-.099.265-.992h-1.19q.165.529.297.992zm-.727-1.554V5.68h.793v.662h1.323v.562h-.397l-.33.992h.893v.661h-3.77v-.661h.892q0-.1-.099-.43-.099-.364-.165-.562h-.496v-.562Zm4.654 17.282-4.93-4.93.32-.318 4.928 4.93Z"/>
    <path d="m12.695 23.624-.318-.318 4.93-4.93.317.318z"/>
</svg>
