<svg xmlns="http://www.w3.org/2000/svg" xmlns:xlink="http://www.w3.org/1999/xlink" width="30mm" height="30mm" viewBox="0 0 30 30">
    <defs>
        <linearGradient id="0_DRAGONPROMOTED_svg__a">
            <stop offset="0" stop-color="#ffdba6"/>
            <stop offset="1" stop-color="#f2c478"/>
        </linearGradient>
        <linearGradient xlink:href="#0_DRAGONPROMOTED_svg__a" id="0_DRAGONPROMOTED_svg__b" x1="244.85" x2="244.85" y1="222.989" y2="140.991" gradientTransform="translate(3174.802 -212.603)" gradientUnits="userSpaceOnUse"/>
    </defs>
    <path fill="url(#0_DRAGONPROMOTED_svg__b)" d="m0 0-21.223 7.255a1.62 1.62 0 0 1-1.044 0L-43.49 0c-.512-.175-.879-.592-.956-1.088L-54.328-64.8c-.128-.823.569-1.559 1.477-1.559H9.361c.907 0 1.605.736 1.477 1.559L.955-1.088C.879-.592.512-.175 0 0" transform="matrix(.35278 0 0 -.35278 22.671 4.59)"/>
    <path fill="#4d3608" d="M4.026 28.3c-.482 0-.892-.415-.817-.896L6.694 4.928a.8.8 0 0 1 .537-.622l7.488-2.56a.87.87 0 0 1 .562 0l7.487 2.56a.79.79 0 0 1 .536.622l3.487 22.476c.075.481-.335.896-.818.896H15Zm0-.6h21.947c.158 0 .24-.103.225-.203v-.001L22.712 5.019c-.009-.057-.054-.116-.138-.145l-7.487-2.56a.3.3 0 0 0-.174 0l-7.487 2.56c-.084.029-.13.089-.138.146L3.802 27.496c-.016.1.066.204.224.204"/>
    <path fill="red" d="M14.775 24.18v-8.358h.45v8.358Z"/>
    <path fill="red" d="m14.315 16.824-.318-.318 1.004-1.003 1.003 1.003-.318.318-.686-.685ZM15 24.497l-1.004-1.003.318-.318.686.684.685-.684.318.318zm-4.178-4.272v-.45h8.358v.45z"/>
    <path fill="red" d="m11.506 21.004-1.003-1.003 1.003-1.004.318.318-.684.686.684.685Zm6.988 0-.318-.318.685-.686-.685-.685.318-.318 1.003 1.004Zm-4.684-9.648v-.496h-1.456v.496zm0-1.025V9.8h-1.456v.53Zm-2.184 3.142V9.107h2.91v3.539q0 .33-.198.53-.264.198-.827.297-.033-.298-.099-.463 0-.033-.066-.133l-.165-.165h.43q.132 0 .165-.033t.033-.132v-.596h-1.455v1.522zm3.671-5.325V5.866h.794v.628h2.381v.596h-2.38v.496h2.38v1.687h-2.447v.496h2.216v.43h-2.216v.463h2.216v.463h-2.216v.463h2.216v.463h-2.216v.397q0 .231.132.264.066.066.463.066h.926q.331 0 .364-.033.298-.099.331-.529.33.232.661.33-.132.497-.363.662-.232.199-.53.199h-1.72q-.363 0-.562-.066-.165-.034-.33-.265-.1-.132-.1-.43V8.71h2.448v-.562Zm-1.852-.1.265-.991h-1.19q.165.529.297.992zm-.727-1.554v-.661h.793v.661h1.323v.563h-.396l-.331.992H15v.661h-3.77v-.66h.892q0-.1-.099-.43-.098-.364-.165-.562h-.496v-.563Zm4.588 16.13-4.93-4.93.32-.318 4.928 4.93Z"/>
    <path fill="red" d="m12.695 22.624-.318-.318 4.93-4.93.317.318z"/>
</svg>
