<svg xmlns="http://www.w3.org/2000/svg" xmlns:xlink="http://www.w3.org/1999/xlink" width="30mm" height="30mm" viewBox="0 0 30 30">
    <defs>
        <linearGradient id="0_EAGLE_svg__a">
            <stop offset="0" stop-color="#ffdba6"/>
            <stop offset="1" stop-color="#f2c478"/>
        </linearGradient>
        <linearGradient xlink:href="#0_EAGLE_svg__a" id="0_EAGLE_svg__b" x1="244.85" x2="244.85" y1="222.989" y2="140.991" gradientTransform="translate(3628.345 -212.603)" gradientUnits="userSpaceOnUse"/>
    </defs>
    <path fill="url(#0_EAGLE_svg__b)" d="m0 0-22.28 7.578c-.3.102-.625.102-.924 0L-45.484 0a1.42 1.42 0 0 1-.949-1.125l-10.308-66.12a1.422 1.422 0 0 1 1.411-1.636H9.846c.875 0 1.544.776 1.41 1.636L.948-1.125A1.42 1.42 0 0 1 0 0" transform="matrix(.35278 0 0 -.35278 23.023 4.2)"/>
    <path fill="#4d3608" d="M3.504 28.8a.808.808 0 0 1-.795-.924L6.346 4.551a.8.8 0 0 1 .534-.635l7.86-2.673a.8.8 0 0 1 .52 0l7.86 2.673a.8.8 0 0 1 .534.635l3.636 23.325a.808.808 0 0 1-.794.923H15Zm0-.6h22.992a.196.196 0 0 0 .202-.231L23.06 4.643a.2.2 0 0 0-.134-.159l-7.861-2.673a.2.2 0 0 0-.132 0l-7.86 2.673a.2.2 0 0 0-.135.159L3.303 27.97a.196.196 0 0 0 .2.23"/>
    <path fill="red" d="m11.86 12.249.595.397q-.199.264-.364.463-.165.198-.364.43l-.562-.43q.397-.397.694-.86m4.762-1.588v-.264h-3.44v.264zm0-.628v-.265h-3.44v.265zm-2.017-1.257-.1.1.827.066-.165.363h2.183v1.786h-4.167v.265h5.556v.397h-5.556v.297h5.457q-.1 1.092-.232 1.191-.165.199-1.124.364-.066-.33-.265-.695h.595q.066 0 .1-.033.032 0 .032-.066.033-.1.033-.364h-1.29l.331.463-.496.298q-.33-.53-.496-.628l.232-.133h-1.026l.397.563-.529.33q-.165-.297-.43-.661l.364-.232h-1.323q.33.53.397.728l-.595.298q-.1-.298-.199-.463-.066-.166-.165-.364l.397-.199h-.893V9.305h1.918l.099-.396q-.198.165-.265.264-.231-.198-.595-.595l.397-.364q.298.33.595.562zm-.761-1.025v-.397h-1.654v.397zm-2.315.397v-1.19h3.043v1.19h-1.224v.529q0 .198-.132.33-.199.133-.794.2-.033-.2-.199-.563h.397q.066 0 .1-.033.032 0 .032-.066v-.397h-.628l.264.298q-.43.33-.992.661-.231-.364-.364-.463.563-.265.794-.496zm6.184-2.25.596.53-.199.198h.563v.53h-1.753l-.066.264h.496v.86q0 .066.033.1 0 .032.033.032h.463q.165 0 .231-.066.133-.198.166-.529.231.199.661.298-.132.463-.298.628-.165.166-.264.199-.133.033-.364.033h-.463q-.496 0-.728-.166-.165-.099-.165-.297v-.629q-.232.43-.496.695-.165.165-.628.43 0-.066-.133-.298-.165-.165-.364-.33.497-.2.827-.53.232-.231.331-.694H15.1v-.53h1.223q0-.363.033-.793h.695q0 .562-.033.793h.661q-.066-.066-.397-.33zm-4.994.332v-.397h.728v.397h1.488v.463h-3.67V6.23zm2.057 18.197v-8.859h.45v8.859Z"/>
    <path fill="red" d="m14.264 16.623-.318-.318L15 15.251l1.053 1.054-.318.318-.735-.736ZM15 24.747l-1.053-1.055.318-.318.736.735.735-.735.318.318zm-4.429-4.524v-.45h8.859v.45z"/>
    <path fill="red" d="m11.307 21.052-1.055-1.054 1.055-1.053.318.318-.736.735.736.736Zm7.386-.001-.318-.318.736-.736-.736-.735.318-.318 1.055 1.053Zm-.72 2.239-3.133-3.133.319-.318 3.132 3.132Z"/>
    <path fill="red" d="M16.866 23.355v-.45h1.04v-1.04h.451v1.49zm-4.839-.065-.318-.32 3.132-3.13.318.317z"/>
    <path fill="red" d="M11.644 23.355v-1.49h.45v1.04h1.04v.45zm.516-7.015-.318.318 3 3a.225.225 0 0 0 .318 0l3-3-.318-.318L15 19.18z"/>
    <path fill="#fff" d="m15.5 19.998 3-3"/>
    <path fill="red" d="m18.342 16.84-3 3 .318.318 3-3z"/>
    <path fill="#fff" d="m14.5 19.998-3-3"/>
    <path fill="red" d="m11.66 16.84-.318.318 3 3 .318-.318z"/>
</svg>
