<svg xmlns="http://www.w3.org/2000/svg" xmlns:xlink="http://www.w3.org/1999/xlink" width="30mm" height="30mm" viewBox="0 0 30 30">
    <defs>
        <linearGradient id="0_ELEPHANTPROMOTED_svg__a">
            <stop offset="0" stop-color="#ffdba6"/>
            <stop offset="1" stop-color="#f2c478"/>
        </linearGradient>
        <linearGradient xlink:href="#0_ELEPHANTPROMOTED_svg__a" id="0_ELEPHANTPROMOTED_svg__b" x1="244.85" x2="244.85" y1="222.989" y2="140.991" gradientTransform="translate(8163.777 -212.603)" gradientUnits="userSpaceOnUse"/>
    </defs>
    <path fill="url(#0_ELEPHANTPROMOTED_svg__b)" d="m0 0-15.596 5.771a3.6 3.6 0 0 1-2.482 0L-33.674 0c-.531-.196-.903-.629-.975-1.134l-7.687-53.636c-.122-.85.627-1.601 1.595-1.601H7.066c.969 0 1.717.751 1.596 1.601L.975-1.134C.902-.629.531-.196 0 0" transform="matrix(.35278 0 0 -.35278 20.94 6.114)"/>
    <path fill="#4d3608" d="M6.568 26.3c-.497 0-.932-.412-.86-.907L8.42 6.472a.81.81 0 0 1 .536-.639l5.502-2.036a1.57 1.57 0 0 1 1.084 0l5.502 2.036c.28.103.494.341.537.638l2.712 18.922c.07.496-.364.907-.86.907H15Zm0-.6h16.865c.187 0 .28-.117.266-.222l-2.712-18.92c-.009-.06-.056-.128-.151-.163L15.334 4.36a1 1 0 0 0-.667 0L9.164 6.395c-.095.035-.142.102-.15.161L6.3 25.478c-.015.105.08.223.266.223"/>
    <path fill="red" d="M14.605 9.744v-.596h-1.753v.596zm2.745 0v-.596h-2.018v.596zM15.233 8.09h-1.852l-.53.463h1.886q.165-.132.496-.463m-.893-1.025-.33.396h1.917l.133-.066.43.463q-.265.265-.463.43-.166.166-.298.265h2.414v1.786h-1.819q.066.562.298 1.058l.661-.463q.331-.231.629-.43l.562.596q-.992.628-1.521.926.76 1.058 1.819 1.587-.397.397-.563.695-.86-.596-1.157-.926-.397-.364-.695-.893-.33-.497-.496-.993-.165-.363-.297-1.157h-.629l-.231.165q.529.629.793 1.257.232.562.232 1.422 0 .43-.165.76-.133.298-.463.398-.364.132-1.092.165-.066-.463-.198-.76h.76q.232 0 .265-.1.132-.132.132-.496 0-.198-.033-.364-1.223.662-1.62.827-.496.232-1.72.595-.298-.628-.364-.694 1.951-.463 3.539-1.488l-.132-.331q-.794.463-1.257.661-.33.133-1.522.53-.066-.199-.396-.629 1.554-.364 2.877-1.091l-.232-.298q-1.19.628-2.546.992-.133-.364-.397-.694 1.521-.331 2.414-.827h-1.455V9.082q-.397.298-.496.364-.165-.232-.53-.595 1.49-.993 2.448-2.051zm.435 13.08v-4.01h.45v4.01Z"/>
    <path fill="red" d="M11 20.37v-.45h8v.45z"/>
    <path fill="red" d="m17.669 23.14-5.657-5.672.318-.318 5.657 5.67Z"/>
    <path fill="red" d="m12.33 23.14-.318-.318 5.657-5.671.318.318Z"/>
</svg>
