<svg xmlns="http://www.w3.org/2000/svg" xmlns:xlink="http://www.w3.org/1999/xlink" width="30mm" height="30mm" viewBox="0 0 30 30">
    <defs>
        <linearGradient id="0_FALCON_svg__a">
            <stop offset="0" stop-color="#ffdba6"/>
            <stop offset="1" stop-color="#f2c478"/>
        </linearGradient>
        <linearGradient xlink:href="#0_FALCON_svg__a" id="0_FALCON_svg__b" x1="244.85" x2="244.85" y1="222.989" y2="140.991" gradientTransform="translate(2721.259 -212.603)" gradientUnits="userSpaceOnUse"/>
    </defs>
    <path fill="url(#0_FALCON_svg__b)" d="m0 0-22.28 7.578c-.3.102-.625.102-.924 0L-45.484 0a1.42 1.42 0 0 1-.949-1.125l-10.308-66.12a1.422 1.422 0 0 1 1.411-1.636H9.846c.875 0 1.544.776 1.41 1.636L.948-1.125A1.42 1.42 0 0 1 0 0" transform="matrix(.35278 0 0 -.35278 23.023 4.2)"/>
    <path fill="#4d3608" d="M3.504 28.8a.808.808 0 0 1-.795-.924L6.346 4.551a.8.8 0 0 1 .534-.635l7.86-2.673a.8.8 0 0 1 .52 0l7.86 2.673a.8.8 0 0 1 .534.635l3.636 23.325a.808.808 0 0 1-.794.923H15Zm0-.6h22.992a.196.196 0 0 0 .202-.231L23.06 4.643a.2.2 0 0 0-.134-.159l-7.861-2.673a.2.2 0 0 0-.132 0l-7.86 2.673a.2.2 0 0 0-.135.159L3.303 27.97a.196.196 0 0 0 .2.23"/>
    <path fill="red" d="m13.446 12.712.53-.165q.065.066.297.628l-.562.198q-.232-.595-.265-.661m1.257 0 .43-.199q.198.199.397.563l-.463.231q-.066-.132-.165-.297-.1-.133-.199-.298m-2.249-.298.496.232q-.165.43-.397.827l-.496-.265q.265-.43.397-.794m4.564-1.455v-.231h-3.406v.231zm0-.53v-.23h-3.406v.23zm-.893-1.289v-.33h-1.091v.33zm0-.595v-.298h-1.091v.298zm0-.596v-.33h-1.091v.33zm-2.646-1.19h-1.124V7.85q.661-.496 1.124-1.091m2.745.496.298-.496h-1.224l.199.165-.298.33zm-1.422-.96v-.528h.761v.529h3.109v.463H16.82l.33.165-.231.33h1.521v.365h-1.62v.33h1.356v.298H16.82v.298h1.356v.264H16.82v.331h1.852v.364h-3.109l-.099.297h2.216v1.489h-4.068v.264h5.126v.298h-5.126v.298h4.895q-.1.926-.265 1.157-.231.232-1.025.265-.1-.364-.298-.662h.53q.198 0 .23-.033.067-.066.1-.43h-1.455q.099.1.198.232.1.165.132.231.066.1.1.133l-.464.231-.43-.562.43-.265h-3.307V9.801h1.786l.099-.297h-.397V8.049l-.397.397q-.033-.166-.297-.596.264-.198 1.058-1.091h-.992l.264.264q-.099.1-.198.232-.1.132-.265.33V9.57h-.628V8.18q-.298.299-.463.398-.066-.166-.199-.43 0 1.753-.066 2.48-.033.629-.231 1.323-.132.53-.53 1.356l-.528-.562q.198-.463.396-1.025.166-.463.199-.992.066-.728.066-1.191V6.296ZM11.71 22.97l6.264-6.263.319.319-6.264 6.264Z"/>
    <path fill="red" d="M16.868 17.092v-.45h1.49v1.49h-.45v-1.04Zm-5.224 6.264v-1.49h.45v1.04h1.04v.45zm.066-6.33.319-.319 6.264 6.264-.32.32z"/>
    <path fill="red" d="M11.644 18.132v-1.49h1.49v.45h-1.04v1.04Zm5.223 5.223v-.45h1.04v-1.04h.45l.001 1.49Zm-2.09 1.073v-4.43h.45v4.43Z"/>
    <path fill="red" d="m13.946 23.693.319-.319.735.736.736-.736.318.319L15 24.747zm-3.374-3.47v-.45h8.858v.45z"/>
    <path fill="red" d="m10.252 19.999 1.055-1.055.318.319-.736.735.736.736-.318.318zm8.124.735.736-.735-.736-.736.318-.319 1.054 1.054-1.054 1.055Z"/>
    <path fill="#fff" d="M14.647 19.998v-4.5"/>
    <path fill="red" d="M14.422 15.498v4.5h.45v-4.5z"/>
    <path fill="#fff" d="M15.354 19.998v-4.5"/>
    <path fill="red" d="M15.129 15.498v4.5h.45v-4.5z"/>
</svg>
