<svg xmlns="http://www.w3.org/2000/svg" xmlns:xlink="http://www.w3.org/1999/xlink" width="30mm" height="30mm" viewBox="0 0 30 30">
    <defs>
        <linearGradient id="0_GOBETWEEN_svg__a">
            <stop offset="0" stop-color="#ffdba6"/>
            <stop offset="1" stop-color="#f2c478"/>
        </linearGradient>
        <linearGradient xlink:href="#0_GOBETWEEN_svg__a" id="0_GOBETWEEN_svg__b" x1="244.85" x2="244.85" y1="222.989" y2="140.991" gradientTransform="translate(7937.006 -212.603)" gradientUnits="userSpaceOnUse"/>
    </defs>
    <path fill="url(#0_GOBETWEEN_svg__b)" d="m0 0-16.217 5.989a1.8 1.8 0 0 1-1.241 0L-33.674 0c-.531-.196-.903-.627-.975-1.131l-7.687-53.534c-.122-.848.627-1.598 1.595-1.598H7.066c.969 0 1.717.75 1.596 1.598L.975-1.131C.902-.627.531-.196 0 0" transform="matrix(.35278 0 0 -.35278 20.94 6.152)"/>
    <path fill="#4d3608" d="M6.568 26.3c-.497 0-.93-.41-.86-.906L8.42 6.508a.81.81 0 0 1 .536-.637l5.721-2.113a.93.93 0 0 1 .645 0l5.722 2.113c.279.103.494.34.537.637l2.712 18.886c.07.495-.364.906-.86.906H15Zm0-.6h16.865c.187 0 .28-.117.266-.22L20.987 6.593c-.009-.06-.055-.126-.151-.16L15.115 4.32a.35.35 0 0 0-.23 0l-5.72 2.112c-.097.035-.143.102-.152.16L6.301 25.48c-.014.103.08.221.266.221"/>
    <path d="M15.629 11.1V9.246h-1.224V11.1zm2.05 0V9.246h-1.256V11.1zm-2.05-2.547v-1.62h.794v1.62h2.05v3.539h-.794v-.331h-1.256v2.646h-.794V11.76h-1.224v.397h-.728V8.553Zm-2.646.231v5.689h-.794v-4.399q-.463.794-.727 1.19-.199-.462-.43-.727.43-.562.893-1.422.43-.827 1.025-2.381l.727.363q-.396.993-.694 1.687M14.775 23v-6h.45v6Z"/>
    <path d="M15 20.605a.6.6 0 0 1-.43-.176.61.61 0 0 1 0-.858.61.61 0 0 1 .86 0 .61.61 0 0 1 0 .858.6.6 0 0 1-.43.176m-.111-.494a.154.154 0 0 0 .222 0 .154.154 0 0 0 0-.222.155.155 0 0 0-.222 0 .153.153 0 0 0 0 .222"/>
</svg>
