<svg xmlns="http://www.w3.org/2000/svg" xmlns:xlink="http://www.w3.org/1999/xlink" width="30mm" height="30mm" viewBox="0 0 30 30">
    <defs>
        <linearGradient id="0_HORSE_svg__a">
            <stop offset="0" stop-color="#ffdba6"/>
            <stop offset="1" stop-color="#f2c478"/>
        </linearGradient>
        <linearGradient xlink:href="#0_HORSE_svg__a" id="0_HORSE_svg__b" x1="244.85" x2="244.85" y1="222.989" y2="140.991" gradientTransform="translate(2381.205 -212.603)" gradientUnits="userSpaceOnUse"/>
    </defs>
    <path fill="url(#0_HORSE_svg__b)" d="m0 0-21.223 7.255a1.62 1.62 0 0 1-1.044 0L-43.49 0c-.512-.175-.879-.593-.956-1.088L-54.328-64.8c-.128-.823.569-1.559 1.477-1.559H9.361c.907 0 1.605.736 1.477 1.559L.955-1.088C.879-.593.512-.175 0 0" transform="matrix(.3681 0 0 -.36636 23.004 4.19)"/>
    <path fill="#4d3608" d="M3.55 28.8c-.497 0-.918-.425-.841-.916L6.346 4.543a.82.82 0 0 1 .552-.636l7.812-2.658a.9.9 0 0 1 .579 0l7.812 2.658a.81.81 0 0 1 .552.636l3.638 23.341c.076.492-.345.917-.841.917H15Zm0-.598h22.9c.171 0 .264-.114.246-.226L23.058 4.634c-.01-.063-.06-.13-.151-.16l-7.812-2.659a.294.293 0 0 0-.19 0L7.091 4.473c-.091.031-.142.097-.152.161L3.303 27.976c-.018.112.075.226.246.226"/>
    <path d="m13.049 11.137.628-.132q.232.661.364 1.29l-.695.165q-.033-.53-.297-1.323m-1.092-.231.662.231q-.232.86-.596 1.62l-.661-.297q.265-.628.595-1.554m2.547.165.562-.198q.232.363.496 1.157l-.595.232q-.132-.397-.463-1.191m1.918.86-.562-1.025.562-.265q.298.43.595.992zm-1.587-2.15v-.727h-1.952v.727zm0-1.356v-.661h-1.952v.661zm0-1.257v-.661h-1.952v.661zm-2.712 3.506V5.812h6.25v.695h-2.778v.661h2.348v.596h-2.348v.661h2.348v.629h-2.348v.727h3.043q-.033 2.018-.198 2.58-.067.364-.298.463-.397.231-1.323.364-.033-.298-.298-.86h.794q.265 0 .298-.1.132-.231.165-1.785h-4.895v.231zm6.042 13.844L11.517 17.8l.32-.317 6.648 6.716z"/>
    <path d="M11.453 18.999v-1.582h1.568v.45h-1.118v1.132Zm5.529 5.585v-.45H18.1v-1.132h.45v1.582zm-5.145-.067-.32-.317 6.648-6.717.32.318z"/>
    <path d="M11.452 24.584v-1.582h.45v1.132h1.118v.45zM18.1 19v-1.133h-1.118v-.45h1.568V19Zm-3.325 4.5v-5h.45v5Z"/>
    <path d="M12.5 21.225v-.45h5v.45z"/>
</svg>
