<svg xmlns="http://www.w3.org/2000/svg" xmlns:xlink="http://www.w3.org/1999/xlink" width="30mm" height="30mm" viewBox="0 0 30 30">
    <defs>
        <linearGradient id="0_HORSEPROMOTED_svg__a">
            <stop offset="0" stop-color="#ffdba6"/>
            <stop offset="1" stop-color="#f2c478"/>
        </linearGradient>
        <linearGradient xlink:href="#0_HORSEPROMOTED_svg__a" id="0_HORSEPROMOTED_svg__b" x1="244.85" x2="244.85" y1="222.989" y2="140.991" gradientTransform="translate(2267.716 -212.603)" gradientUnits="userSpaceOnUse"/>
    </defs>
    <path fill="url(#0_HORSEPROMOTED_svg__b)" d="m0 0-21.223 7.255a1.62 1.62 0 0 1-1.044 0L-43.49 0c-.512-.175-.879-.592-.956-1.088L-54.328-64.8c-.128-.823.569-1.559 1.477-1.559H9.361c.907 0 1.605.736 1.477 1.559L.955-1.088C.879-.592.512-.175 0 0" transform="matrix(.35278 0 0 -.35278 22.671 4.59)"/>
    <path fill="#4d3608" d="M4.026 28.3c-.482 0-.892-.415-.817-.896L6.694 4.928a.8.8 0 0 1 .537-.622l7.488-2.56a.87.87 0 0 1 .562 0l7.487 2.56a.79.79 0 0 1 .536.622l3.487 22.476c.075.481-.335.896-.818.896H15Zm0-.6h21.947c.158 0 .24-.103.225-.203v-.001L22.712 5.019c-.009-.057-.054-.116-.138-.145l-7.487-2.56a.3.3 0 0 0-.174 0l-7.487 2.56c-.084.029-.13.089-.138.146L3.802 27.496c-.016.1.066.204.224.204"/>
    <path fill="red" d="m12.918 11.521.628-.132q.231.662.364 1.29l-.695.165q-.033-.529-.297-1.323m-1.092-.231.662.231q-.232.86-.596 1.621l-.661-.298q.264-.628.595-1.554m2.547.165.562-.198q.232.364.496 1.157l-.595.232q-.133-.397-.463-1.19m1.918.86-.562-1.025.562-.265q.298.43.595.993zm-1.588-2.15v-.727h-1.95v.727zm0-1.355v-.662h-1.95v.662zm0-1.257V6.89h-1.95v.662zm-2.711 3.505V6.197h6.25v.694h-2.778v.662h2.348v.595h-2.348v.662h2.348v.628h-2.348v.727h3.043q-.033 2.018-.199 2.58-.066.364-.297.463-.397.232-1.323.364-.033-.298-.298-.86h.794q.265 0 .298-.1.132-.23.165-1.785h-4.895v.231zm6.173 13.459L11.517 17.8l.32-.316 6.648 6.716z"/>
    <path fill="red" d="M11.453 18.999v-1.582h1.568v.45h-1.118v1.132Zm5.529 5.585v-.45H18.1v-1.132h.45v1.582zm-5.145-.067-.32-.316 6.648-6.718.32.317z"/>
    <path fill="red" d="M11.452 24.584v-1.582h.45v1.132h1.118v.45zM18.1 19v-1.133h-1.118v-.45h1.568V19Zm-3.325 4.5v-5h.45v5Z"/>
    <path fill="red" d="M12.5 21.225v-.45h5v.45z"/>
</svg>
