<svg xmlns="http://www.w3.org/2000/svg" xmlns:xlink="http://www.w3.org/1999/xlink" width="30mm" height="30mm" viewBox="0 0 30 30">
    <defs>
        <linearGradient id="0_KING_svg__a">
            <stop offset="0" stop-color="#ffdba6"/>
            <stop offset="1" stop-color="#f2c478"/>
        </linearGradient>
        <linearGradient xlink:href="#0_KING_svg__a" id="0_KING_svg__b" x1="244.85" x2="244.85" y1="222.989" y2="140.991" gradientTransform="translate(3692 -212.603)" gradientUnits="userSpaceOnUse"/>
    </defs>
    <path fill="url(#0_KING_svg__b)" d="m0 0-22.28 7.578c-.3.102-.625.102-.924 0L-45.484 0a1.42 1.42 0 0 1-.949-1.125l-10.308-66.12a1.422 1.422 0 0 1 1.411-1.636H9.846a1.42 1.42 0 0 1 1.41 1.636L.948-1.125A1.42 1.42 0 0 1 0 0" transform="matrix(.36746 0 0 -.36586 23.357 3.8)"/>
    <path fill="#4d3608" d="M3.025 29.3a.827.827 0 0 1-.815-.943L5.997 4.165a.827.823 0 0 1 .55-.649L14.732.744a.83.83 0 0 1 .533 0h.001l8.187 2.772a.827.823 0 0 1 .548.65l3.788 24.19a.827.827 0 0 1-.815.944H15Zm0-.599h23.95a.215.215 0 0 0 .22-.252L23.409 4.257a.22.22 0 0 0-.148-.173L15.074 1.31a.22.22 0 0 0-.146 0L6.74 4.084a.22.22 0 0 0-.148.173L2.804 28.448a.215.214 0 0 0 .221.254"/>
    <path d="M11.825 6.437v-.728h6.416v.728h-2.877v2.017h2.513v.761h-2.513v2.282h3.34v.794h-7.408v-.794h3.274V9.215h-2.381v-.76h2.381V6.436Zm2.95 19.063v-9h.45v9Z"/>
    <path d="M10.5 21.225v-.45h9v.45z"/>
    <path d="m18.023 24.341-6.364-6.364.318-.318 6.364 6.364Z"/>
    <path d="m11.977 24.34-.318-.317 6.364-6.364.318.318z"/>
</svg>
