<svg xmlns="http://www.w3.org/2000/svg" xmlns:xlink="http://www.w3.org/1999/xlink" width="30mm" height="30mm" viewBox="0 0 30 30">
    <defs>
        <clipPath id="0_KIRIN_svg__c" clipPathUnits="userSpaceOnUse">
            <path d="M-1148.797 1659.034h2834.646v-2834.646h-2834.646Z"/>
        </clipPath>
        <clipPath id="0_KIRIN_svg__d" clipPathUnits="userSpaceOnUse">
            <path d="M-1148.797 1659.034h2834.646v-2834.646h-2834.646Z"/>
        </clipPath>
        <clipPath id="0_KIRIN_svg__e" clipPathUnits="userSpaceOnUse">
            <path d="M-1148.797 1659.034h2834.646v-2834.646h-2834.646Z"/>
        </clipPath>
        <clipPath id="0_KIRIN_svg__f" clipPathUnits="userSpaceOnUse">
            <path d="M-1148.797 1659.034h2834.646v-2834.646h-2834.646Z"/>
        </clipPath>
        <linearGradient id="0_KIRIN_svg__a">
            <stop offset="0" stop-color="#ffdba6"/>
            <stop offset="1" stop-color="#f2c478"/>
        </linearGradient>
        <linearGradient xlink:href="#0_KIRIN_svg__a" id="0_KIRIN_svg__b" x1="244.85" x2="244.85" y1="222.989" y2="140.991" gradientTransform="translate(6576.376 -212.603)" gradientUnits="userSpaceOnUse"/>
    </defs>
    <path fill="url(#0_KIRIN_svg__b)" d="m0 0-22.28 7.578c-.3.102-.625.102-.924 0L-45.484 0a1.42 1.42 0 0 1-.949-1.125l-10.308-66.12a1.422 1.422 0 0 1 1.411-1.636H9.846c.875 0 1.545.777 1.41 1.636L.948-1.125A1.42 1.42 0 0 1 0 0" transform="matrix(.35278 0 0 -.35278 23.023 4.2)"/>
    <path fill="#4d3608" d="M3.504 28.8a.808.808 0 0 1-.795-.924L6.346 4.551a.8.8 0 0 1 .534-.635l7.86-2.673a.8.8 0 0 1 .52 0l7.86 2.673a.8.8 0 0 1 .534.635l3.636 23.325a.807.807 0 0 1-.794.923H15Zm0-.6h22.992a.197.197 0 0 0 .202-.23L23.06 4.642a.2.2 0 0 0-.134-.159L15.065 1.81a.2.2 0 0 0-.132 0l-7.86 2.673a.2.2 0 0 0-.135.159L3.303 27.97a.196.196 0 0 0 .2.23"/>
    <path d="M15.76 13.605q-.198-.232-.496-.496.53-.695.894-1.323l.595.297q-.496.926-.992 1.522m3.142-.53q-.231.166-.496.43-.43-.43-.595-.628-.33-.33-.628-.794l.595-.297q.43.595 1.125 1.29m-6.548-.43V9.968h.562v.827h.596v.595h-.596v1.124l.596-.165v.562l-1.522.463-.132-.628zm1.323.133V9.967h.562v.86l.695-.331.33.463q-.198.066-.43.165-.198.1-.33.133t-.298.099v1.124q0 .1.033.133.066.066.165.066h.166l.066-.066q.066-.166.099-.563.165.1.562.166-.165.793-.231.893-.133.132-.43.132h-.43q-.265 0-.397-.132-.133-.1-.133-.331zm3.77-1.654v-.893h-1.025v.893zm0-1.455v-.76h-1.025v.76zm0-1.29v-.76h-1.025v.76zm-1.686-1.356v-1.19h.661v1.19h1.025v-1.19h.695v1.19h.562v.596h-.562v3.505h.628v.596H15.3v-.596h.463V7.62H15.3v-.596ZM12.621 9.24v-.794h-.53v.794zm2.017 0v-.794h-.463v.794zm-.959 0v-.794h-.562v.794zm-1.058-1.323V7.19h-.53v.727zm1.058 0V7.19h-.562v.727zm-.628-1.323V5.8h.661v.793h1.422v.596h-.959v.727h1.058v1.885h-3.142q-.032 2.05-.66 3.54-.133-.298-.464-.53.265-.661.463-1.488.1-.662.1-1.654V6.593Zm3.558 16.331-3.536-3.535.319-.319 3.535 3.536Z"/>
    <path d="m13.392 22.925-.319-.319 3.536-3.535.318.318Z"/>
    <g clip-path="url(#0_KIRIN_svg__c)" transform="matrix(.5295 0 0 -.52275 20.256 21.399)">
        <path fill="none" d="M0 0a1.083 1.083 0 1 0-1.532 1.532A1.083 1.083 0 0 0 0 0"/>
        <path d="M-.766-.742c-.387 0-.775.146-1.068.44a1.517 1.517 0 0 0 0 2.136c.586.586 1.55.586 2.137 0a1.517 1.517 0 0 0 0-2.137 1.5 1.5 0 0 0-1.069-.44M-1.23.303a.65.65 0 0 1 .927 0 .65.65 0 0 1 0 .927.65.65 0 0 1-.927 0 .65.65 0 0 1 0-.927"/>
    </g>
    <g clip-path="url(#0_KIRIN_svg__d)" transform="matrix(.5295 0 0 -.52275 10.556 21.399)">
        <path fill="none" d="M0 0a1.083 1.083 0 1 0-1.532 1.532A1.083 1.083 0 0 0 0 0"/>
        <path d="M-.766-.742c-.387 0-.775.146-1.068.44a1.517 1.517 0 0 0 0 2.136c.586.586 1.55.586 2.137 0a1.517 1.517 0 0 0 0-2.137 1.5 1.5 0 0 0-1.069-.44M-1.23.303a.65.65 0 0 1 .927 0 .65.65 0 0 1 0 .927.65.65 0 0 1-.927 0 .65.65 0 0 1 0-.927"/>
    </g>
    <g clip-path="url(#0_KIRIN_svg__e)" transform="matrix(0 .5295 .52275 0 14.6 26.254)">
        <path fill="none" d="M0 0a1.083 1.083 0 1 0-1.532 1.532A1.083 1.083 0 0 0 0 0"/>
        <path d="M-.766-.742c-.387 0-.775.146-1.068.44a1.517 1.517 0 0 0 0 2.136c.586.586 1.55.586 2.137 0a1.517 1.517 0 0 0 0-2.137 1.5 1.5 0 0 0-1.069-.44M-1.23.303a.65.65 0 0 1 .927 0 .65.65 0 0 1 0 .927.65.65 0 0 1-.927 0 .65.65 0 0 1 0-.927"/>
    </g>
    <g clip-path="url(#0_KIRIN_svg__f)" transform="matrix(0 .5295 .52275 0 14.6 16.554)">
        <path fill="none" d="M0 0a1.083 1.083 0 1 0-1.532 1.532A1.083 1.083 0 0 0 0 0"/>
        <path d="M-.766-.742c-.387 0-.775.146-1.068.44a1.517 1.517 0 0 0 0 2.136c.586.586 1.55.586 2.137 0a1.517 1.517 0 0 0 0-2.137 1.5 1.5 0 0 0-1.069-.44M-1.23.303a.65.65 0 0 1 .927 0 .65.65 0 0 1 0 .927.65.65 0 0 1-.927 0 .65.65 0 0 1 0-.927"/>
    </g>
</svg>
