<svg xmlns="http://www.w3.org/2000/svg" xmlns:xlink="http://www.w3.org/1999/xlink" width="30mm" height="30mm" viewBox="0 0 30 30">
    <defs>
        <linearGradient id="0_LEOPARD_svg__a">
            <stop offset="0" stop-color="#ffdba6"/>
            <stop offset="1" stop-color="#f2c478"/>
        </linearGradient>
        <linearGradient xlink:href="#0_LEOPARD_svg__a" id="0_LEOPARD_svg__b" x1="244.85" x2="244.85" y1="222.989" y2="140.991" gradientTransform="translate(4308.66 -212.603)" gradientUnits="userSpaceOnUse"/>
    </defs>
    <path fill="url(#0_LEOPARD_svg__b)" d="m0 0-19.243 6.562a1.66 1.66 0 0 1-1.059 0L-39.545 0c-.531-.181-.912-.618-.993-1.139l-8.982-57.757c-.134-.863.585-1.636 1.523-1.636H8.452c.938 0 1.657.773 1.523 1.636L.993-1.139C.912-.618.531-.181 0 0" transform="matrix(.35278 0 0 -.35278 21.975 5.496)"/>
    <path fill="#4d3608" d="M5.043 27.15c-.496 0-.91-.43-.834-.923L7.377 5.852a.82.82 0 0 1 .55-.64l6.79-2.315a.9.9 0 0 1 .565 0h.001l6.789 2.315c.285.098.503.34.55.64l3.168 20.375c.077.492-.338.924-.834.924H15Zm0-.6h19.913c.166 0 .26-.113.241-.23L22.03 5.944a.21.21 0 0 0-.15-.164l.096-.284-.097.284-6.788-2.314a.3.3 0 0 0-.18 0L8.12 5.78c-.09.03-.14.096-.15.164L4.8 26.32c-.017.117.076.23.242.23"/>
    <path d="m15.298 10.269.595-.463q.297.33.86 1.157l-.596.463q-.397-.562-.86-1.157m-1.555-1.125q.595 1.025.728 1.522.165.661.165 1.488 0 .992-.265 1.356-.264.397-1.124.463-.066-.397-.066-.364-.033-.1-.198-.43h.595q.165 0 .198-.033t.033-.132q.066-.265.066-.629v-.661q-1.091.893-2.183 1.455-.363-.43-.529-.562.827-.397 1.224-.662.86-.595 1.356-1.058-.033-.397-.1-.496-.594.496-1.057.794-.133.066-.397.231-.232.132-.629.33l-.198-.396-.165-.165-.1-.1q.761-.297 1.158-.529.232-.132 1.091-.76-.032-.1-.098-.166-.033-.066-.1-.132-.793.397-1.653.728-.132-.298-.397-.596.86-.297 1.918-.86.794-.529 1.323-.926l.496.53q-.727.529-1.091.76zm-2.05-.992.496-.298q.264.298.496.794l-.53.298q-.132-.265-.264-.463-.132-.199-.198-.331m1.09-.463.563-.298q.165.199.397.695l-.53.33q-.297-.562-.43-.727m2.15 2.348q-.462-.496-.562-.529.596-.86.827-1.356.331-.728.629-1.786l.793.232q-.264.86-.496 1.356h2.381v3.01q-.033 1.322-.099 1.884-.033.463-.165.662-.165.165-.43.297-.297.133-.86.232-.033-.397-.297-.86h.628q.165 0 .265-.1.066-.065.099-.594.099-1.059.033-3.77h-1.919q-.43.826-.826 1.322zM11.46 7.788q-.198-.397-.364-.628.86-.166 1.39-.298.561-.165 1.421-.529l.397.562q-.794.33-1.389.53-.926.264-1.455.363M14.775 24v-8h.45v8Z"/>
    <path d="m17.666 22.988-5.65-5.657.318-.318 5.65 5.657Z"/>
    <path d="m12.334 22.988-.318-.318 5.65-5.657.318.318z"/>
</svg>
