<svg xmlns="http://www.w3.org/2000/svg" xmlns:xlink="http://www.w3.org/1999/xlink" width="30mm" height="30mm" viewBox="0 0 30 30">
    <defs>
        <linearGradient id="0_LIONPROMOTED_svg__a">
            <stop offset="0" stop-color="#ffdba6"/>
            <stop offset="1" stop-color="#f2c478"/>
        </linearGradient>
        <linearGradient xlink:href="#0_LIONPROMOTED_svg__a" id="0_LIONPROMOTED_svg__b" x1="244.85" x2="244.85" y1="222.989" y2="140.991" gradientTransform="translate(6803.148 -212.603)" gradientUnits="userSpaceOnUse"/>
    </defs>
    <path fill="url(#0_LIONPROMOTED_svg__b)" d="m0 0-22.28 7.578c-.3.102-.625.102-.924 0L-45.484 0a1.42 1.42 0 0 1-.949-1.125l-10.308-66.12a1.422 1.422 0 0 1 1.411-1.636H9.846c.875 0 1.544.777 1.41 1.636L.948-1.125A1.42 1.42 0 0 1 0 0" transform="matrix(.35278 0 0 -.35278 23.023 4.2)"/>
    <path fill="#4d3608" d="M3.504 28.8a.808.808 0 0 1-.795-.924L6.346 4.551a.8.8 0 0 1 .534-.635l7.86-2.673a.8.8 0 0 1 .52 0l7.86 2.673a.8.8 0 0 1 .534.635l3.636 23.325a.808.808 0 0 1-.794.923H15Zm0-.6h22.992a.197.197 0 0 0 .202-.23L23.06 4.642a.2.2 0 0 0-.134-.159L15.065 1.81a.2.2 0 0 0-.132 0l-7.86 2.673a.2.2 0 0 0-.135.159L3.303 27.97a.196.196 0 0 0 .2.23"/>
    <path fill="red" d="M15.76 6.827v-.695h3.043v.695h-1.257v1.157h1.025v3.605q0 .33-.099.496-.066.066-.661.232-.033-.331-.232-.794h.364V8.679h-.397v4.762h-.661V8.68h-.397v3.538h-.629V7.984h1.026V6.827Zm-3.473.099q.464-.562.629-.86l.595.496q-.397.562-.86 1.091.298 1.257.331 1.654.099.827.099 1.753t-.132 1.356q-.166.562-.364.694-.232.133-.96.298-.032-.132-.264-.827h.595q.232 0 .265-.198.165-.662.165-1.455v-.761q-.43.53-.926 1.025-.066-.132-.43-.727.794-.629 1.224-1.356-.033-.298-.165-.893-.133.132-.629.529-.099-.265-.396-.662.231-.165.727-.595-.33-.628-.694-1.025l.595-.397q.43.53.595.86m2.514 5.192v-1.157h-.661v1.157zm0-3.44V7.654h-.661V8.68zm0-1.72h.695V9.34H14.14v.926h1.356v2.811h-.695v-.264h-.661v.397h-.662V6.959h.628l.1-1.125.793.1q0 .066-.198 1.025zM15 25.048c-2.785 0-5.048-2.262-5.048-5.048s2.263-5.048 5.048-5.048 5.05 2.262 5.05 5.048-2.264 5.048-5.05 5.048m0-.45c2.542 0 4.599-2.056 4.599-4.598S17.542 15.402 15 15.402 10.402 17.458 10.402 20s2.056 4.598 4.598 4.598"/>
    <path fill="red" d="M15 23.549c-1.958 0-3.549-1.592-3.549-3.549s1.591-3.549 3.548-3.549 3.55 1.592 3.55 3.549-1.593 3.549-3.55 3.549m0-.45A3.095 3.095 0 0 0 18.098 20a3.095 3.095 0 0 0-3.099-3.099A3.094 3.094 0 0 0 11.901 20a3.094 3.094 0 0 0 3.098 3.099"/>
</svg>
