<svg xmlns="http://www.w3.org/2000/svg" xmlns:xlink="http://www.w3.org/1999/xlink" width="30mm" height="30mm" viewBox="0 0 30 30">
    <defs>
        <linearGradient id="0_LION_svg__a">
            <stop offset="0" stop-color="#ffdba6"/>
            <stop offset="1" stop-color="#f2c478"/>
        </linearGradient>
        <linearGradient xlink:href="#0_LION_svg__a" id="0_LION_svg__b" x1="244.85" x2="244.85" y1="222.989" y2="140.991" gradientTransform="translate(7029.92 -212.603)" gradientUnits="userSpaceOnUse"/>
    </defs>
    <path fill="url(#0_LION_svg__b)" d="m0 0-22.28 7.578c-.3.102-.625.102-.924 0L-45.484 0a1.42 1.42 0 0 1-.949-1.125l-10.308-66.12a1.422 1.422 0 0 1 1.411-1.636H9.846c.875 0 1.544.777 1.41 1.636L.948-1.125A1.42 1.42 0 0 1 0 0" transform="matrix(.35278 0 0 -.35278 23.023 4.2)"/>
    <path fill="#4d3608" d="M3.504 28.8a.808.808 0 0 1-.795-.924L6.346 4.551a.8.8 0 0 1 .534-.635l7.86-2.673a.8.8 0 0 1 .52 0l7.86 2.673a.8.8 0 0 1 .534.635l3.636 23.325a.808.808 0 0 1-.794.923H15Zm0-.6h22.992a.197.197 0 0 0 .202-.23L23.06 4.642a.2.2 0 0 0-.134-.159L15.065 1.81a.2.2 0 0 0-.132 0l-7.86 2.673a.2.2 0 0 0-.135.159L3.303 27.97a.196.196 0 0 0 .2.23"/>
    <path d="M15.76 6.825V6.13h3.042v.695h-1.257v1.158h1.025v3.605q0 .33-.099.496-.066.066-.661.231-.033-.33-.232-.794h.364V8.677h-.397v4.763h-.661V8.677h-.397v3.539h-.629V7.983h1.026V6.825Zm-3.474.1q.464-.563.629-.86l.595.495q-.397.563-.86 1.092.298 1.257.331 1.653.099.827.099 1.753t-.132 1.356q-.166.563-.364.695-.232.132-.96.298-.032-.133-.264-.827h.596q.231 0 .264-.199.166-.661.166-1.455v-.76q-.43.529-.926 1.025-.066-.133-.43-.728.793-.628 1.223-1.356-.033-.298-.165-.893-.132.132-.628.53-.1-.265-.397-.662.231-.166.727-.596-.33-.628-.694-1.025l.595-.397q.43.53.595.86zm2.514 5.192v-1.158h-.661v1.158zm0-3.44V7.652h-.661v1.025zm0-1.72h.695V9.34h-1.356v.926h1.356v2.81H14.8v-.264h-.661v.397h-.662v-6.25h.629l.098-1.125.794.099q0 .066-.198 1.025zm.2 18.091c-2.785 0-5.048-2.262-5.048-5.048s2.263-5.048 5.048-5.048 5.05 2.262 5.05 5.048-2.264 5.048-5.05 5.048m0-.45c2.542 0 4.599-2.056 4.599-4.598S17.542 15.402 15 15.402 10.402 17.458 10.402 20s2.056 4.598 4.598 4.598"/>
    <path d="M15 23.549c-1.958 0-3.549-1.592-3.549-3.549s1.591-3.549 3.548-3.549 3.55 1.592 3.55 3.549-1.593 3.549-3.55 3.549m0-.45A3.095 3.095 0 0 0 18.098 20a3.095 3.095 0 0 0-3.099-3.099A3.094 3.094 0 0 0 11.901 20a3.094 3.094 0 0 0 3.098 3.099"/>
</svg>
