<svg xmlns="http://www.w3.org/2000/svg" xmlns:xlink="http://www.w3.org/1999/xlink" width="30mm" height="30mm" viewBox="0 0 30 30">
    <defs>
        <linearGradient id="0_OX_svg__a">
            <stop offset="0" stop-color="#ffdba6"/>
            <stop offset="1" stop-color="#f2c478"/>
        </linearGradient>
        <linearGradient xlink:href="#0_OX_svg__a" id="0_OX_svg__b" x1="244.85" x2="244.85" y1="222.989" y2="140.991" gradientTransform="translate(1360.63 -212.603)" gradientUnits="userSpaceOnUse"/>
    </defs>
    <path fill="url(#0_OX_svg__b)" d="m0 0-21.223 7.255a1.62 1.62 0 0 1-1.044 0L-43.49 0c-.512-.175-.879-.592-.956-1.088L-54.328-64.8c-.128-.823.569-1.559 1.477-1.559H9.361c.907 0 1.605.736 1.477 1.559L.955-1.088C.879-.592.512-.175 0 0" transform="matrix(.35278 0 0 -.35278 22.671 4.59)"/>
    <path fill="#4d3608" d="M4.026 28.3c-.482 0-.892-.415-.817-.896L6.694 4.928a.8.8 0 0 1 .537-.622l7.488-2.56a.87.87 0 0 1 .562 0l7.487 2.56a.79.79 0 0 1 .536.622l3.487 22.476c.075.481-.335.896-.818.896H15Zm0-.6h21.947c.158 0 .24-.103.225-.203v-.001L22.712 5.019c-.009-.057-.054-.116-.138-.145l-7.487-2.56a.3.3 0 0 0-.174 0l-7.487 2.56c-.084.029-.13.089-.138.146L3.802 27.496c-.016.1.066.204.224.204"/>
    <path fill="red" d="M14.572 7.52V5.898h.76v1.62h2.779v.695h-2.778V10h3.307v.694h-3.307v2.812h-.761v-2.812h-3.373V10h3.373V8.214h-1.951q-.265.496-.728 1.091-.264-.264-.694-.463.628-.793.86-1.19.264-.496.595-1.489l.794.298q-.331.728-.497 1.058zm.203 16.909V15.57h.45v8.859Z"/>
    <path fill="red" d="m14.264 16.624-.318-.318L15 15.252l1.053 1.054-.318.318-.735-.736ZM15 24.748l-1.053-1.055.318-.318.736.735.735-.735.318.318zm2.973-1.457-6.264-6.264.318-.318 6.264 6.264Z"/>
    <path fill="red" d="M11.643 18.133v-1.49h1.49v.45h-1.04v1.04Zm5.223 5.223v-.45h1.04v-1.04h.451v1.49zm-4.839-.065-.318-.318 6.264-6.264.318.318z"/>
    <path fill="red" d="M11.644 23.357v-1.49h.45v1.04h1.04v.45zm6.263-5.223v-1.04h-1.041v-.451h1.49v1.491Z"/>
</svg>
