<svg xmlns="http://www.w3.org/2000/svg" xmlns:xlink="http://www.w3.org/1999/xlink" width="30mm" height="30mm" viewBox="0 0 30 30">
    <defs>
        <linearGradient id="0_PAWN_svg__a">
            <stop offset="0" stop-color="#ffdba6"/>
            <stop offset="1" stop-color="#f2c478"/>
        </linearGradient>
        <linearGradient xlink:href="#0_PAWN_svg__a" id="0_PAWN_svg__b" x1="244.85" x2="244.85" y1="222.989" y2="140.991" gradientTransform="translate(-226.772 -212.603)" gradientUnits="userSpaceOnUse"/>
    </defs>
    <path fill="url(#0_PAWN_svg__b)" d="m0 0-16.217 5.989a1.8 1.8 0 0 1-1.241 0L-33.674 0c-.531-.196-.903-.627-.975-1.131l-7.687-53.534c-.122-.848.627-1.598 1.595-1.598H7.066c.969 0 1.717.75 1.596 1.598L.975-1.131C.902-.627.531-.196 0 0" transform="matrix(.35278 0 0 -.35278 20.94 6.152)"/>
    <path fill="#4d3608" d="M6.568 26.3c-.497 0-.93-.41-.86-.906L8.42 6.508a.81.81 0 0 1 .536-.637l5.721-2.113a.93.93 0 0 1 .645 0l5.722 2.113c.279.103.494.34.537.637l2.712 18.886c.07.495-.364.906-.86.906H15Zm0-.6h16.865c.187 0 .28-.117.266-.22L20.987 6.593c-.009-.06-.055-.126-.151-.16L15.115 4.32a.35.35 0 0 0-.23 0l-5.72 2.112c-.097.035-.143.102-.152.16L6.301 25.48c-.014.103.08.221.266.221"/>
    <path d="M14.525 20.5v-3h.45v3ZM11.7 14.506q-.1-.43-.295-.76.95-.033 2.098-.332.92-.23 1.607-.727.69-.462 1.345-1.19l.591.462q-.755.762-.985.926-.458.365-1.147.695-.459.265-1.444.562-.787.2-1.77.364m6.756-2.844-.492.596q-.95-.86-1.771-1.356l.426-.562q1.083.693 1.837 1.322m-6.92.926q-.1-.199-.164-.265l-.329-.364q.656-.462.854-.661.36-.298.984-.992l.622.496-.262.265-.263.264q-.655.663-.72.695-.526.43-.723.562m2.854-3.175v-2.58h.721v.992h2.56v.695h-2.56v.893h3.28v.728h-3.28v1.918q0 .264-.229.463-.197.165-1.016.331-.033-.331-.33-.794h.723q.033 0 .098-.066.033-.034.033-.1v-1.751H11.01v-.728h1.28V7.528h.754v1.885z"/>
</svg>
