<svg xmlns="http://www.w3.org/2000/svg" xmlns:xlink="http://www.w3.org/1999/xlink" width="30mm" height="30mm" viewBox="0 0 30 30">
    <defs>
        <linearGradient id="0_PROMOTEDPAWN_svg__a">
            <stop offset="0" stop-color="#ffdba6"/>
            <stop offset="1" stop-color="#f2c478"/>
        </linearGradient>
        <linearGradient xlink:href="#0_PROMOTEDPAWN_svg__a" id="0_PROMOTEDPAWN_svg__b" x1="244.85" x2="244.85" y1="222.989" y2="140.991" gradientTransform="translate(0 -212.603)" gradientUnits="userSpaceOnUse"/>
    </defs>
    <path fill="url(#0_PROMOTEDPAWN_svg__b)" d="m0 0-16.217 5.989a1.8 1.8 0 0 1-1.241 0L-33.674 0c-.531-.196-.903-.628-.975-1.131l-7.687-53.534c-.122-.848.627-1.599 1.595-1.599H7.066c.969 0 1.717.751 1.596 1.599L.975-1.131C.902-.628.531-.196 0 0" transform="matrix(.35278 0 0 -.35278 20.94 6.152)"/>
    <path fill="#4d3608" d="M6.568 26.301c-.497 0-.93-.412-.86-.907L8.42 6.508a.81.81 0 0 1 .536-.637l5.721-2.113a.93.93 0 0 1 .645 0l5.722 2.113a.82.82 0 0 1 .537.637l2.712 18.886c.07.495-.364.907-.86.907H15Zm0-.6h16.865c.187 0 .28-.119.266-.222L20.987 6.594c-.009-.058-.055-.126-.151-.16L15.115 4.32a.35.35 0 0 0-.23 0l-5.72 2.112c-.096.035-.143.103-.152.16L6.301 25.48c-.014.103.08.222.266.222"/>
    <path fill="red" d="M14.586 10.074q.557-.198 2.657-.86l.294.827q-2.525.595-3.017.827-1.213.463-1.64.926-.328.331-.328.728 0 .462.426.694.558.298 2.264.298.886 0 1.181-.033.525 0 1.213-.133l.033.828q-1.77.098-2.198.098-1.573 0-2.427-.297-.72-.265-.95-.629-.296-.396-.296-.793 0-.596.458-1.158.46-.562 1.673-1.091-.064-.298-.163-1.059-.066-.463-.066-1.158 0-.562.033-.959l.887-.033q-.1 1.191-.1 1.985 0 .132.066.992M14.775 24v-8h.45v8Z"/>
    <path fill="red" d="M11 20.225v-.45h8v.45z"/>
    <path fill="red" d="m14.84 20.16-2.828-2.83.319-.318 2.828 2.83Z"/>
    <path fill="red" d="m15.159 20.16-.319-.319 2.83-2.828.317.318Z"/>
</svg>
