<svg xmlns="http://www.w3.org/2000/svg" xmlns:xlink="http://www.w3.org/1999/xlink" width="30mm" height="30mm" viewBox="0 0 30 30">
    <defs>
        <linearGradient id="0_QUEENPROMOTED_svg__a">
            <stop offset="0" stop-color="#ffdba6"/>
            <stop offset="1" stop-color="#f2c478"/>
        </linearGradient>
        <linearGradient xlink:href="#0_QUEENPROMOTED_svg__a" id="0_QUEENPROMOTED_svg__b" x1="244.85" x2="244.85" y1="222.989" y2="140.991" gradientTransform="translate(7483.462 -212.603)" gradientUnits="userSpaceOnUse"/>
    </defs>
    <path fill="url(#0_QUEENPROMOTED_svg__b)" d="m0 0-22.28 7.578c-.3.102-.625.102-.924 0L-45.484 0a1.42 1.42 0 0 1-.949-1.125l-10.308-66.12a1.422 1.422 0 0 1 1.411-1.636H9.846c.875 0 1.544.776 1.41 1.636L.948-1.125A1.42 1.42 0 0 1 0 0" transform="matrix(.35278 0 0 -.35278 23.023 4.2)"/>
    <path fill="#4d3608" d="M3.504 28.8a.808.808 0 0 1-.795-.924L6.346 4.551a.8.8 0 0 1 .534-.635l7.86-2.673a.8.8 0 0 1 .52 0l7.86 2.673a.8.8 0 0 1 .534.635l3.636 23.325a.808.808 0 0 1-.794.923H15Zm0-.6h22.992a.196.196 0 0 0 .202-.231L23.06 4.643a.2.2 0 0 0-.134-.159l-7.861-2.673a.2.2 0 0 0-.132 0l-7.86 2.673a.2.2 0 0 0-.135.159L3.303 27.97a.196.196 0 0 0 .2.23"/>
    <path fill="red" d="m13.877 10-.033.893h2.348V10h.794v.893h1.654v.662h-1.654v1.918h-.794v-1.918h-2.447q-.066.33-.265.694-.132.298-.397.562-.198.199-.529.397-.132.066-.297.133-.166.066-.43.198-.166-.364-.463-.628.76-.298 1.091-.563.265-.264.463-.793h-1.587v-.662h1.72q0-.397.032-.893zm-.959-1.157h1.687v-.96h.76v.96h1.687q-.397-.331-.76-.761-.265-.33-.563-.76h-1.29q-.363.528-.661.826-.198.132-.397.298-.165.132-.463.397m1.918-2.15h3.605v.628h-1.819q.397.496.595.662.464.33.728.463.397.231.96.397-.298.297-.464.694-.562-.198-1.29-.628v.595h-1.786v1.19h-.76v-1.19h-1.852v-.53q-.43.299-1.125.662-.33-.463-.529-.694.728-.33 1.323-.695.33-.231 1.025-.926h-2.083v-.628h2.546q.232-.364.496-.96l.761.2q-.132.43-.33.76m-.062 17.737v-8.859h.45v8.859Z"/>
    <path fill="red" d="m14.264 16.624-.318-.318L15 15.252l1.053 1.054-.318.318-.735-.736ZM15 24.748l-1.053-1.055.318-.318.736.735.735-.735.318.318zm-4.429-4.523v-.45h8.859v.45z"/>
    <path fill="red" d="M11.307 21.054 10.252 20l1.055-1.053.318.318-.736.735.736.736Zm7.387-.001-.318-.318.736-.736-.736-.735.318-.318L19.749 20Zm-.721 2.238-6.264-6.264.318-.318 6.264 6.264Z"/>
    <path fill="red" d="M11.643 18.133v-1.49h1.49v.45h-1.04v1.04Zm5.223 5.223v-.45h1.04v-1.04h.451v1.49zm-4.839-.065-.318-.318 6.264-6.264.318.318z"/>
    <path fill="red" d="M11.644 23.357v-1.49h.45v1.04h1.04v.45zm6.264-5.223v-1.04h-1.041v-.451h1.49v1.491Z"/>
</svg>
