<svg xmlns="http://www.w3.org/2000/svg" xmlns:xlink="http://www.w3.org/1999/xlink" width="30mm" height="30mm" viewBox="0 0 30 30">
    <defs>
        <linearGradient id="0_ROOK_svg__a">
            <stop offset="0" stop-color="#ffdba6"/>
            <stop offset="1" stop-color="#f2c478"/>
        </linearGradient>
        <linearGradient xlink:href="#0_ROOK_svg__a" id="0_ROOK_svg__b" x1="244.85" x2="244.85" y1="222.989" y2="140.991" gradientTransform="translate(2948.03 -212.603)" gradientUnits="userSpaceOnUse"/>
    </defs>
    <path fill="url(#0_ROOK_svg__b)" d="m0 0-21.223 7.255a1.62 1.62 0 0 1-1.044 0L-43.49 0c-.512-.175-.879-.593-.956-1.088L-54.328-64.8c-.128-.823.569-1.559 1.477-1.559H9.361c.907 0 1.605.736 1.477 1.559L.955-1.088C.879-.593.512-.175 0 0" transform="matrix(.35278 0 0 -.35278 22.671 4.59)"/>
    <path fill="#4d3608" d="M4.026 28.3c-.482 0-.892-.415-.817-.896L6.694 4.928a.8.8 0 0 1 .537-.622l7.488-2.56a.87.87 0 0 1 .562 0l7.487 2.56c.277.095.491.33.536.622l3.487 22.476c.075.481-.335.896-.818.896H15Zm0-.6h21.947c.158 0 .24-.103.225-.203v-.001L22.712 5.019c-.009-.056-.054-.116-.138-.145l-7.487-2.56a.3.3 0 0 0-.174 0l-7.487 2.56c-.084.028-.13.089-.138.146L3.802 27.496c-.016.1.066.204.224.204"/>
    <path d="M14.775 24.18v-8.358h.45v8.358Z"/>
    <path d="m14.315 16.824-.318-.318 1.004-1.003 1.003 1.003-.318.318-.686-.685ZM15 24.497l-1.004-1.003.318-.318.686.684.685-.684.318.318zm-4.178-4.272v-.45h8.358v.45z"/>
    <path d="m11.506 21.004-1.003-1.003 1.003-1.004.318.318-.684.686.684.685Zm6.988 0-.318-.318.685-.686-.685-.685.318-.318 1.003 1.004ZM14.47 9.339V7.057h.728v2.282h1.588q0 .827.033 1.29l.86-.794.529.496-.695.595.86.331-.33.628q-.067-.033-.43-.165-.331-.165-.662-.298.264.629.595.993.265.264.364.264.033 0 .099-.066.099-.165.198-.562.166.132.629.397-.166.595-.364.76-.198.199-.43.199-.364 0-.893-.364-.463-.33-.728-.992-.297-.728-.33-2.018h-.893v3.407h-.728v-3.407h-1.124q-.066 1.026-.166 1.39-.165.529-.33.826-.397.53-.43.595-.066.1-.695.629-.33-.463-.529-.629.562-.43.794-.727.297-.43.43-.827.132-.43.198-1.257h-1.29V9.34h1.29V8.28q-.198.067-1.124.298-.199-.463-.331-.694.694-.1 1.091-.199.331-.1 1.522-.496l.363.595q-.396.166-.76.298v1.257Zm1.654-2.48h-4.597v-.695h5.292q-.033.297.033.992.198-.232.43-.463.231-.265.463-.496l.529.529-.463.397-.397.33q.099.034.33.133.265.066.695.198l-.298.596-1.157-.43q.265.496.661.893.232.231.397.231.033 0 .1-.066l.165-.463q.231.232.661.397-.264.628-.364.727-.165.166-.33.166-.364 0-.926-.364-.596-.364-.827-.893-.298-.53-.397-1.72z"/>
</svg>
