<svg xmlns="http://www.w3.org/2000/svg" xmlns:xlink="http://www.w3.org/1999/xlink" width="30mm" height="30mm" viewBox="0 0 30 30">
    <defs>
        <linearGradient id="0_ROOKPROMOTED_svg__a">
            <stop offset="0" stop-color="#ffdba6"/>
            <stop offset="1" stop-color="#f2c478"/>
        </linearGradient>
        <linearGradient xlink:href="#0_ROOKPROMOTED_svg__a" id="0_ROOKPROMOTED_svg__b" x1="244.85" x2="244.85" y1="222.989" y2="140.991" gradientTransform="translate(1814.172 -212.603)" gradientUnits="userSpaceOnUse"/>
    </defs>
    <path fill="url(#0_ROOKPROMOTED_svg__b)" d="m0 0-20.266 6.952a1.47 1.47 0 0 1-.952 0L-41.484 0a1.59 1.59 0 0 1-1.038-1.274l-9.381-60.689c-.151-.981.569-1.871 1.515-1.871H8.905c.945 0 1.666.89 1.514 1.871L1.038-1.274A1.59 1.59 0 0 1 0 0" transform="matrix(.35278 0 0 -.35278 22.317 4.98)"/>
    <path fill="#4d3608" d="M4.54 27.8c-.521 0-.91-.491-.83-1.006l3.309-21.41a.86.86 0 0 1 .566-.688l7.15-2.452a.82.82 0 0 1 .53 0l7.149 2.452a.86.86 0 0 1 .566.688l3.31 21.41c.08.514-.31 1.005-.831 1.005H15Zm0-.6h20.918c.145 0 .265-.137.238-.314l-3.31-21.41a.26.26 0 0 0-.166-.212L15.07 2.81a.2.2 0 0 0-.14 0L7.78 5.264a.27.27 0 0 0-.168.212l-3.309 21.41c-.027.177.092.313.238.313"/>
    <path fill="red" d="M14.775 24.68v-8.358h.45v8.358Z"/>
    <path fill="red" d="m14.315 17.324-.318-.318 1.004-1.003 1.003 1.003-.318.318-.686-.685ZM15 24.997l-1.004-1.003.318-.318.686.684.685-.684.318.318zm-4.178-4.272v-.45h8.358v.45z"/>
    <path fill="red" d="M11.506 21.503 10.503 20.5l1.003-1.004.318.318-.684.686.684.685Zm6.988.001-.318-.318.685-.686-.685-.685.318-.318 1.003 1.004ZM14.47 9.339V7.057h.728v2.282h1.587q0 .826.033 1.29l.86-.794.53.496-.695.595.86.33-.33.63q-.067-.034-.43-.166-.332-.166-.662-.298.264.629.595.992.265.265.364.265.033 0 .099-.066.1-.166.198-.562.166.132.629.396-.166.596-.364.761-.198.199-.43.199-.364 0-.893-.364-.463-.331-.727-.992-.298-.728-.331-2.018h-.893v3.407h-.728v-3.407h-1.124q-.066 1.025-.166 1.39-.165.528-.33.826-.397.53-.43.595-.066.1-.695.629-.33-.463-.529-.629.562-.43.794-.727.297-.43.43-.827.132-.43.198-1.257h-1.29V9.34h1.29V8.28q-.198.066-1.124.298-.199-.463-.331-.695.694-.099 1.091-.198.331-.1 1.522-.496l.364.595q-.397.165-.761.298v1.257zm1.654-2.48h-4.597v-.695h5.291q-.033.297.034.992.198-.232.43-.463.231-.265.462-.496l.53.529-.463.397-.397.33q.099.033.33.133.265.066.695.198l-.298.595-1.157-.43q.264.497.661.893.232.232.397.232.033 0 .1-.066l.165-.463q.231.231.661.397-.264.628-.364.727-.165.166-.33.166-.364 0-.926-.364-.596-.364-.827-.893-.298-.53-.397-1.72"/>
</svg>
