<svg xmlns="http://www.w3.org/2000/svg" xmlns:xlink="http://www.w3.org/1999/xlink" width="30mm" height="30mm" viewBox="0 0 30 30">
    <defs>
        <linearGradient id="0_SIDEMOVER_svg__a">
            <stop offset="0" stop-color="#ffdba6"/>
            <stop offset="1" stop-color="#f2c478"/>
        </linearGradient>
        <linearGradient xlink:href="#0_SIDEMOVER_svg__a" id="0_SIDEMOVER_svg__b" x1="244.85" x2="244.85" y1="222.989" y2="140.991" gradientTransform="translate(5215.747 -212.603)" gradientUnits="userSpaceOnUse"/>
    </defs>
    <path fill="url(#0_SIDEMOVER_svg__b)" d="m0 0-21.223 7.255a1.62 1.62 0 0 1-1.044 0L-43.49 0c-.512-.175-.879-.593-.956-1.088L-54.328-64.8c-.128-.823.569-1.559 1.477-1.559H9.361c.908 0 1.605.736 1.477 1.559L.956-1.088C.879-.593.512-.175 0 0" transform="matrix(.35278 0 0 -.35278 22.671 4.59)"/>
    <path fill="#4d3608" d="M4.026 28.3c-.482 0-.892-.415-.817-.896L6.694 4.928a.8.8 0 0 1 .537-.622l7.488-2.56a.87.87 0 0 1 .562 0l7.487 2.56c.278.095.491.33.537.622l3.485 22.476c.076.48-.334.896-.817.896H15Zm0-.6h21.947c.159 0 .24-.103.225-.203v-.001L22.712 5.02c-.01-.057-.054-.117-.138-.146l-7.487-2.56a.3.3 0 0 0-.174 0l-7.487 2.56c-.084.028-.13.089-.138.146L3.802 27.496c-.016.1.066.204.224.204"/>
    <path d="M15.861 11.455v-.628h-.992v.628zm1.687 0v-.628h-.992v.628zm0-1.157v-.53h-.992v.53zm-1.687 0v-.53h-.992v.53zm.827-2.282v-.629h-1.091v.629zm-1.82-1.29v-.893h.729v.893h1.09v-.893h.695v.893h.96v.661h-.96v.629h1.356v.661h-2.182v.463h1.753v2.91h-.96q.1.067.728.464.066.033.76.33-.33.331-.462.629-.563-.199-1.026-.53-.231-.099-.694-.496l.364-.396h-1.654l.364.463q-.562.396-.86.562-.298.165-.926.397-.33-.463-.463-.596.595-.231.827-.33.363-.232.76-.496h-.86V9.14h1.654v-.464h-1.984v-.661h.992v-.629h-.86v-.661Zm-2.579.76V5.833h.728v1.653h.727v.662h-.727v.728q.463.43.893.793-.132.199-.232.331-.066.1-.099.165-.033.067-.099.133-.33-.331-.463-.496v3.737h-.727v-3.506q-.232.53-.794 1.521-.232-.463-.463-.793.794-1.092 1.224-2.613h-.993v-.662Zm2.487 14.769v-4.509h.45v4.509Z"/>
    <path d="M10.572 20.225v-.45h8.858v.45z"/>
    <path d="M11.308 21.05 10.253 20l1.055-1.05.318.319-.735.73.735.732Zm7.386 0-.318-.319.735-.73-.735-.732.317-.318 1.055 1.05z"/>
</svg>
