<svg xmlns="http://www.w3.org/2000/svg" xmlns:xlink="http://www.w3.org/1999/xlink" width="30mm" height="30mm" viewBox="0 0 30 30">
    <defs>
        <linearGradient id="0_VERTICALMOVER_svg__a">
            <stop offset="0" stop-color="#ffdba6"/>
            <stop offset="1" stop-color="#f2c478"/>
        </linearGradient>
        <linearGradient xlink:href="#0_VERTICALMOVER_svg__a" id="0_VERTICALMOVER_svg__b" x1="244.85" x2="244.85" y1="222.989" y2="140.991" gradientTransform="translate(1133.858 -212.603)" gradientUnits="userSpaceOnUse"/>
    </defs>
    <path fill="url(#0_VERTICALMOVER_svg__b)" d="m0 0-21.223 7.255a1.62 1.62 0 0 1-1.044 0L-43.49 0c-.512-.175-.879-.593-.956-1.088L-54.328-64.8c-.128-.823.569-1.559 1.477-1.559H9.361c.907 0 1.605.736 1.477 1.559L.955-1.088C.879-.593.512-.175 0 0" transform="matrix(.35278 0 0 -.35278 22.671 4.59)"/>
    <path fill="#4d3608" d="M4.026 28.3c-.482 0-.892-.415-.817-.896L6.694 4.928a.8.8 0 0 1 .537-.622l7.488-2.56a.87.87 0 0 1 .562 0l7.487 2.56c.277.095.491.33.536.622l3.487 22.476c.075.481-.335.896-.818.896H15Zm0-.6h21.947c.158 0 .24-.103.225-.203v-.001L22.712 5.019c-.009-.056-.054-.116-.138-.145l-7.487-2.56a.3.3 0 0 0-.174 0l-7.487 2.56c-.084.028-.13.089-.138.146L3.802 27.496c-.016.1.066.204.224.204"/>
    <path d="M16.357 11.422h-2.58q.166.33.397 1.092h1.786q.066-.166.397-1.092m-1.786-.661v-.496h.827v.496h2.745v.661h-.992l-.397 1.092h1.985v.661h-7.508v-.661h2.183q-.033-.265-.199-.563-.132-.33-.231-.529h-1.125v-.661Zm-1.62-1.224v-.562h-.728v.562Zm1.257-1.091V7.85h-1.985v.596Zm-1.257-1.092V6.76h-.728v.595zm-1.455 2.878V6.13h3.472v.629h-1.323v.595h1.257v1.62h-1.257v.563h1.356v.53h-2.778v.165zm5.49-2.183q.463-.496.793-1.224h-1.323q.133.43.298.827 0 .033.232.397m-1.82-1.919h2.911l.066-.066.595.463q-.066.133-.264.563-.364.793-.992 1.554.694.661 1.323.926-.1.1-.166.198l-.132.133q-.132.198-.198.364-.563-.298-1.356-1.092-.298.298-.662.562-.33.199-.728.397-.264-.43-.496-.661.926-.496 1.423-.893-.53-.695-.728-1.753h-.595zm-.39 18.3v-8.859h.45v8.859Z"/>
    <path d="m14.265 16.625-.318-.318 1.054-1.054 1.055 1.054-.318.318-.737-.736Zm.737 8.123-1.055-1.055.318-.318.737.735.736-.735.318.318Zm-2.255-4.523v-.45h4.509v.45z"/>
</svg>
