<svg xmlns="http://www.w3.org/2000/svg" xmlns:xlink="http://www.w3.org/1999/xlink" width="30mm" height="30mm" viewBox="0 0 30 30">
    <defs>
        <linearGradient id="0_VERTICALMOVERPROMOTED_svg__a">
            <stop offset="0" stop-color="#ffdba6"/>
            <stop offset="1" stop-color="#f2c478"/>
        </linearGradient>
        <linearGradient xlink:href="#0_VERTICALMOVERPROMOTED_svg__a" id="0_VERTICALMOVERPROMOTED_svg__b" x1="244.85" x2="244.85" y1="222.989" y2="140.991" gradientTransform="translate(907.086 -212.603)" gradientUnits="userSpaceOnUse"/>
    </defs>
    <path fill="url(#0_VERTICALMOVERPROMOTED_svg__b)" d="m0 0-20.266 6.952a1.47 1.47 0 0 1-.952 0L-41.484 0a1.59 1.59 0 0 1-1.038-1.274l-9.381-60.689c-.151-.981.569-1.871 1.515-1.871H8.905c.945 0 1.666.89 1.514 1.871L1.038-1.274A1.59 1.59 0 0 1 0 0" transform="matrix(.35278 0 0 -.35278 22.317 4.98)"/>
    <path fill="#4d3608" d="M4.54 27.8c-.521 0-.91-.491-.83-1.006l3.309-21.41a.86.86 0 0 1 .566-.688l7.15-2.452a.82.82 0 0 1 .53 0l7.149 2.452a.86.86 0 0 1 .566.688l3.31 21.41c.08.514-.31 1.005-.831 1.005H15Zm0-.6h20.918c.145 0 .265-.137.238-.314l-3.31-21.41a.26.26 0 0 0-.166-.212L15.07 2.81a.2.2 0 0 0-.14 0L7.78 5.264a.27.27 0 0 0-.168.212l-3.309 21.41c-.027.177.092.313.238.313"/>
    <path fill="red" d="M16.357 11.422h-2.58q.166.33.397 1.092h1.786q.066-.166.397-1.092m-1.786-.661v-.496h.827v.496h2.745v.661h-.992l-.397 1.092h1.984v.661h-7.507v-.661h2.182q-.033-.265-.198-.563-.132-.33-.232-.529h-1.124v-.661Zm-1.62-1.224v-.562h-.728v.562Zm1.256-1.091V7.85h-1.984v.596ZM12.95 7.354V6.76h-.727v.595zm-1.455 2.878V6.13h3.473v.629h-1.323v.595h1.257v1.62h-1.257v.563H15v.53h-2.778v.165zm5.49-2.183q.463-.496.794-1.224h-1.323q.132.43.298.827 0 .033.231.397M15.166 6.13h2.91l.067-.066.595.463q-.066.133-.264.563-.364.793-.993 1.554.695.661 1.323.926-.099.1-.165.198l-.132.133q-.133.198-.199.364-.562-.298-1.356-1.092-.297.298-.661.562-.331.199-.728.397-.264-.43-.496-.661.926-.496 1.422-.893-.529-.695-.727-1.753h-.596zm-.391 18.299v-7.858h.45v7.858Z"/>
    <path fill="red" d="m14.365 17.523-.318-.318.953-.953.953.953-.317.318-.636-.635ZM15 24.747l-.953-.953.317-.318.636.635.635-.635.318.318zm-2-4.022v-.45h4v.45z"/>
</svg>
