<svg xmlns="http://www.w3.org/2000/svg" xmlns:xlink="http://www.w3.org/1999/xlink" width="30mm" height="30mm" viewBox="0 0 30 30">
    <defs>
        <linearGradient id="0_WHITEHORSE_svg__a">
            <stop offset="0" stop-color="#ffdba6"/>
            <stop offset="1" stop-color="#f2c478"/>
        </linearGradient>
        <linearGradient xlink:href="#0_WHITEHORSE_svg__a" id="0_WHITEHORSE_svg__b" x1="244.85" x2="244.85" y1="222.989" y2="140.991" gradientTransform="translate(453.543 -212.603)" gradientUnits="userSpaceOnUse"/>
    </defs>
    <path fill="url(#0_WHITEHORSE_svg__b)" d="m0 0-18.208 6.244c-.37.127-.78.127-1.15 0L-37.566 0c-.538-.184-.92-.612-.998-1.116l-8.551-55.301c-.13-.841.611-1.59 1.573-1.59H7.976c.962 0 1.703.749 1.573 1.59L.998-1.116C.92-.612.538-.184 0 0" transform="matrix(.35278 0 0 -.35278 21.626 5.887)"/>
    <path fill="#4d3608" d="M5.56 26.65c-.496 0-.928-.413-.852-.906L7.725 6.235a.81.81 0 0 1 .551-.632L14.7 3.4a.92.92 0 0 1 .6 0l6.424 2.203a.81.81 0 0 1 .551.632l3.017 19.509c.076.493-.356.907-.85.907H15Zm0-.6h18.88c.184 0 .274-.115.258-.214l-3.016-19.51c-.01-.056-.057-.123-.153-.155l-6.424-2.203a.34.34 0 0 0-.21 0L8.47 6.171c-.096.033-.143.099-.152.156L5.301 25.835c-.015.1.075.215.258.215"/>
    <path fill="red" d="m11.925 11.625.298-.033q.1.396.165 1.223l-.363.066q-.067-1.025-.1-1.256m-.562-.033.364.033q-.033.562-.265 1.521l-.397-.165q.265-.86.298-1.39m1.72 1.025-.364.066q-.1-.728-.231-1.091l.297-.034q.132.232.298 1.059m3.274-1.092v-1.52h-.694v1.52zm-1.389 1.092v-3.24h2.05v3.01h-.66v-.265h-.695v.496zm-2.183-2.084v-.76h-.595v.76zm0-1.323v-.595h-.595v.595zm0-1.19v-.662h-.595v.662zm-1.29 3.307V6.73h2.91v.628h-.991v.662h.793v.595h-.793v.595h.793v.563h-.793v.76h1.124q-.033 1.62-.231 2.613-.067.43-.298.562-.232.199-1.092.298-.033-.265-.231-.728h.628q.232 0 .298-.066t.1-.827l-.265.066q-.232-.463-.496-.959l.297-.165q.265.463.463.86l.1-1.058H12.19v.198zm5.259 2.646q-.066-.397-.198-.728h.562q.33 0 .397-.066.066-.1.099-.43.099-1.389.132-4.233h-2.381q-.232.297-.794.992-.298-.397-.496-.53.661-.826.794-1.058.43-.76.727-1.554l.761.265q-.33.793-.595 1.223h2.745l-.033 2.415q-.033 2.282-.199 2.877-.066.397-.297.53-.232.198-1.224.297m-1.979 8.474v-6.892h.45v6.892Z"/>
    <path fill="red" d="m14.466 16.409-.318-.318.852-.856.852.857-.319.316-.533-.536ZM15 22.765l-.852-.857.319-.316.533.536.534-.537.318.317zm-.16-3.606-2.424-2.437.318-.317 2.425 2.436Z"/>
    <path fill="red" d="M12.35 17.548v-1.21h1.205v.45H12.8v.76Zm2.81 1.61-.32-.317 2.426-2.436.318.316z"/>
    <path fill="red" d="M17.2 17.548v-.76h-.755v-.45h1.204v1.21Z"/>
</svg>
