<svg xmlns="http://www.w3.org/2000/svg" xmlns:xlink="http://www.w3.org/1999/xlink" width="30mm" height="30mm" viewBox="0 0 30 30">
    <defs>
        <linearGradient id="1_BISHOPPROMOTED_svg__a">
            <stop offset="0" stop-color="#ffdba6"/>
            <stop offset="1" stop-color="#f2c478"/>
        </linearGradient>
        <linearGradient xlink:href="#1_BISHOPPROMOTED_svg__a" id="1_BISHOPPROMOTED_svg__b" x1="244.85" x2="244.85" y1="222.989" y2="140.991" gradientTransform="translate(-5102.362 -212.603)" gradientUnits="userSpaceOnUse"/>
    </defs>
    <path fill="url(#1_BISHOPPROMOTED_svg__b)" d="m0 0-19.243 6.562a1.66 1.66 0 0 1-1.059 0L-39.545 0c-.531-.181-.912-.618-.993-1.139l-8.982-57.757c-.134-.863.585-1.636 1.523-1.636H8.452c.938 0 1.657.773 1.523 1.636L.993-1.139C.912-.618.531-.181 0 0" transform="matrix(-.35278 0 0 .35278 8.025 24.504)"/>
    <path fill="#4d3608" d="M24.957 2.85c.496 0 .91.43.834.923l-3.168 20.375a.82.82 0 0 1-.55.64l-6.79 2.315a.9.9 0 0 1-.565 0h-.001l-6.789-2.315a.82.82 0 0 1-.55-.64L4.21 3.774c-.077-.492.338-.924.834-.924H15Zm0 .6H5.044c-.166 0-.26.113-.241.23L7.97 24.056a.21.21 0 0 0 .15.164l-.096.284.097-.284 6.788 2.314a.3.3 0 0 0 .18 0l6.789-2.314c.09-.03.14-.096.15-.164L25.2 3.68c.017-.117-.076-.23-.242-.23"/>
    <path fill="red" d="m16.354 23.8-.793-.232.397-.562h-2.216l-.133.066-.463-.496q.066-.033 1.059-1.026H11.89v-4.663q0-.33.264-.595.298-.265 1.29-.298 0 .265.033.331 0 .033.066.165.066.066.165.265h-.86q-.066 0-.099.033t-.033.1v.991h4.234q.066-.231.43-1.025.198-.298.661-.76.232.33.596.595-.629.628-.794 1.025-.166.496-.232.926-.066.86-.066 2.58.53-.496.827-.662.198.331.53.596-.728.463-1.258.992-.595.661-1.29 1.653zm.86-2.25h-2.116l-.695.794h2.084q.264-.264.43-.463.165-.198.297-.33m-2.778-1.488h-1.72v.827h1.72zm.76.827h1.588v-.827h-1.587zm-.76-2.348h-1.72v.926h1.72zm2.381 0h-1.62v.926h1.587q.033-.298.033-.926M11.836 6.491l6.647 6.7-.319.317-6.648-6.7Z"/>
    <path fill="red" d="M18.55 11.996v1.579h-1.57v-.451h1.118v-1.128Zm-5.531-5.571v.45h-1.118v1.129h-.45V6.425zm5.145.067.319.317-6.647 6.7-.32-.317z"/>
    <path fill="red" d="M18.548 6.425v1.579h-.45V6.875H16.98v-.45zm-6.646 5.572v1.128h1.118v.45h-1.568v-1.578Z"/>
</svg>
