<svg xmlns="http://www.w3.org/2000/svg" xmlns:xlink="http://www.w3.org/1999/xlink" width="30mm" height="30mm" viewBox="0 0 30 30">
    <defs>
        <linearGradient id="1_BISHOP_svg__a">
            <stop offset="0" stop-color="#ffdba6"/>
            <stop offset="1" stop-color="#f2c478"/>
        </linearGradient>
        <linearGradient xlink:href="#1_BISHOP_svg__a" id="1_BISHOP_svg__b" x1="244.85" x2="244.85" y1="222.989" y2="140.991" gradientTransform="translate(-2607.874 -212.603)" gradientUnits="userSpaceOnUse"/>
    </defs>
    <path fill="url(#1_BISHOP_svg__b)" d="m0 0-21.223 7.255a1.62 1.62 0 0 1-1.044 0L-43.49 0c-.512-.175-.879-.593-.956-1.088L-54.328-64.8c-.128-.823.569-1.559 1.477-1.559H9.361c.907 0 1.605.736 1.477 1.559L.955-1.088C.879-.593.512-.175 0 0" transform="matrix(-.35278 0 0 .35278 7.329 25.41)"/>
    <path fill="#4d3608" d="M25.974 1.7c.482 0 .892.415.817.896l-3.485 22.476a.8.8 0 0 1-.537.622l-7.488 2.56a.87.87 0 0 1-.562 0l-7.487-2.56a.79.79 0 0 1-.536-.622L3.209 2.596c-.075-.481.335-.896.818-.896H15Zm0 .6H4.027c-.158 0-.24.103-.225.203v.001l3.486 22.477c.009.056.054.116.138.145l7.487 2.56a.3.3 0 0 0 .174 0l7.487-2.56c.084-.028.13-.089.138-.146l3.486-22.476c.016-.1-.066-.204-.224-.204"/>
    <path d="m16.355 24.3-.794-.232.397-.562h-2.216l-.132.066-.463-.496q.066-.033 1.058-1.025H11.89v-4.664q0-.33.265-.595.297-.265 1.29-.298 0 .265.032.331 0 .033.067.165.066.067.165.265h-.86q-.066 0-.1.033-.032.033-.032.1v.992h4.233q.066-.232.43-1.026.198-.297.661-.76.232.33.596.595-.629.628-.794 1.025-.165.496-.231.926-.067.86-.067 2.58.53-.496.827-.662.199.331.53.596-.728.463-1.257.992-.596.661-1.29 1.654m.86-2.25h-2.117l-.695.794h2.084q.265-.264.43-.463.165-.198.298-.33m-2.778-1.488h-1.72v.827h1.72zm.76.827h1.588v-.827h-1.588zm-.76-2.348h-1.72v.926h1.72zm2.38 0h-1.62v.926h1.588q.033-.298.033-.926m-4.983-13.56 6.648 6.717-.32.317L11.515 5.8z"/>
    <path d="M18.547 11.001v1.582H16.98v-.45h1.118v-1.132Zm-5.529-5.585v.45H11.9v1.132h-.45V5.416zm5.145.067.32.317-6.648 6.717-.32-.318z"/>
    <path d="M18.548 5.416v1.582h-.45V5.866H16.98v-.45zM11.9 10.959v1.174h1.118v.45H11.45V10.96Z"/>
</svg>
