<svg xmlns="http://www.w3.org/2000/svg" xmlns:xlink="http://www.w3.org/1999/xlink" width="30mm" height="30mm" viewBox="0 0 30 30">
    <defs>
        <linearGradient id="1_BOAR_svg__a">
            <stop offset="0" stop-color="#ffdba6"/>
            <stop offset="1" stop-color="#f2c478"/>
        </linearGradient>
        <linearGradient xlink:href="#1_BOAR_svg__a" id="1_BOAR_svg__b" x1="244.85" x2="244.85" y1="222.989" y2="140.991" gradientTransform="translate(-6009.448 -212.603)" gradientUnits="userSpaceOnUse"/>
    </defs>
    <path fill="url(#1_BOAR_svg__b)" d="m0 0-21.223 7.255a1.62 1.62 0 0 1-1.044 0L-43.49 0c-.512-.175-.879-.592-.956-1.088L-54.328-64.8c-.128-.823.569-1.559 1.477-1.559H9.361c.908 0 1.605.736 1.477 1.559L.956-1.088C.879-.592.512-.175 0 0" transform="matrix(-.35278 0 0 .35278 7.329 25.41)"/>
    <path fill="#4d3608" d="M25.974 1.7c.482 0 .892.415.817.896l-3.485 22.476a.8.8 0 0 1-.537.622l-7.488 2.56a.87.87 0 0 1-.562 0l-7.487-2.56a.8.8 0 0 1-.537-.622L3.21 2.596c-.076-.48.334-.896.817-.896H15Zm0 .6H4.027c-.159 0-.24.103-.225.203v.001L7.288 24.98c.01.057.054.117.138.146l7.487 2.56a.3.3 0 0 0 .174 0l7.487-2.56c.084-.029.13-.089.138-.146l3.486-22.476c.016-.1-.066-.204-.224-.204"/>
    <path fill="red" d="M12.684 17.585v.761h1.984v-.76zm0 1.356v.695h1.984v-.695zm-.133 3.506h1.29v-.827h-.496q-.231.265-.43.463zm2.051.662v.959h-.76v-.96h-1.324v-.595q-.397.43-.694.86l-.628-.43q.165-.231 1.124-1.323h-1.025v-.661h1.72q.363-.364.892-.728h-1.984v-3.605h.76v.331h1.985v-.397h.728v2.68q.529-.299.727-.365.265.43.43.662-1.323.529-2.447 1.422h2.348v.661h-1.852v.827h1.422v.662zm2.811-.033q-.529.595-.727.893l-.563-.497q.298-.363.992-1.124-.462-1.39-.462-3.175 0-.397.065-1.125.033-.529.166-.76.165-.265.364-.397.397-.232 1.025-.265.033.232.298.794h-.761q-.1 0-.232.066-.033.033-.099.43-.099.728-.066 1.852.43-.529.993-.992.132.265.496.595-.53.43-1.423 1.423.034.396.232 1.058.066-.033.165-.132.1-.067.232-.166l.397-.297q.264.463.463.628-.199.132-.96.661.331.563.695 1.158l-.595.397q-.43-.595-.695-1.025m2.016-13.301v.45H10.57v-.45z"/>
    <path fill="red" d="M18.693 8.946 19.748 10l-1.055 1.053-.318-.318.736-.735-.736-.736Zm-7.387.001.318.318-.736.735.736.736-.318.318L10.251 10Zm.721-2.238 6.264 6.264-.318.318-6.264-6.264Z"/>
    <path fill="red" d="M18.357 11.867v1.49h-1.49v-.45h1.04v-1.04Zm-5.223-5.223v.45h-1.04v1.04h-.451v-1.49zm4.839.065.318.318-6.264 6.264-.318-.318z"/>
    <path fill="red" d="M18.356 6.643v1.49h-.45v-1.04h-1.04v-.45zm-6.264 5.223v1.04h1.041v.451h-1.49v-1.491Z"/>
</svg>
