<svg xmlns="http://www.w3.org/2000/svg" xmlns:xlink="http://www.w3.org/1999/xlink" width="30mm" height="30mm" viewBox="0 0 30 30">
    <defs>
        <linearGradient id="1_CHARIOT_svg__a">
            <stop offset="0" stop-color="#ffdba6"/>
            <stop offset="1" stop-color="#f2c478"/>
        </linearGradient>
        <linearGradient xlink:href="#1_CHARIOT_svg__a" id="1_CHARIOT_svg__b" x1="244.85" x2="244.85" y1="222.989" y2="140.991" gradientTransform="translate(-6236.22 -212.603)" gradientUnits="userSpaceOnUse"/>
    </defs>
    <path fill="url(#1_CHARIOT_svg__b)" d="m0 0-18.208 6.244c-.37.127-.78.127-1.15 0L-37.566 0c-.538-.184-.92-.612-.998-1.116l-8.551-55.301c-.13-.841.611-1.59 1.573-1.59H7.976c.962 0 1.703.749 1.573 1.59L.998-1.116C.92-.612.538-.184 0 0" transform="matrix(-.35278 0 0 .35278 8.374 24.113)"/>
    <path fill="#4d3608" d="M24.44 3.35c.496 0 .928.413.852.906l-3.017 19.509a.81.81 0 0 1-.551.632L15.3 26.6a.92.92 0 0 1-.6 0l-6.424-2.203a.81.81 0 0 1-.551-.632L4.709 4.256c-.076-.493.356-.907.85-.907H15Zm0 .6H5.56c-.184 0-.274.115-.258.214l3.016 19.51c.01.056.057.123.153.155l6.424 2.203a.34.34 0 0 0 .21 0l6.425-2.203c.096-.033.143-.099.152-.156l3.017-19.508c.015-.1-.075-.215-.258-.215"/>
    <path d="M14.339 18.408q-.463.563-.827 1.092-.364.628-.53 1.091h2.58q-.198-.661-.462-1.124-.232-.43-.761-1.059m3.473 4.763h-6.284v-.662h5.523v-1.29h-4.333l-.066.067-.628-.463q.165-.331.198-.43.331-.794.596-1.257.463-.628.959-1.19-.662-.464-1.224-.695-.595-.298-1.389-.496.298-.298.496-.695.86.265 1.455.595.496.232 1.224.794.728-.562 1.124-.76.497-.265 1.522-.629.132.33.43.695-1.455.363-2.547 1.19.595.695.86 1.19.33.53.595 1.456h.728q.066-1.786.298-2.712.297-1.025.826-1.786.199.199.662.53-.53.76-.695 1.355-.231.728-.264 1.489-.066 1.124-.066 3.704M15.225 6.5v7h-.45v-7Z"/>
    <path d="m15.548 12.634.318.318-.866.866-.866-.866.317-.318.549.548ZM15 6.182l.866.866-.317.318L15 6.818l-.548.548-.318-.318z"/>
</svg>
