<svg xmlns="http://www.w3.org/2000/svg" xmlns:xlink="http://www.w3.org/1999/xlink" width="30mm" height="30mm" viewBox="0 0 30 30">
    <defs>
        <linearGradient id="1_COPPER_svg__a">
            <stop offset="0" stop-color="#ffdba6"/>
            <stop offset="1" stop-color="#f2c478"/>
        </linearGradient>
        <linearGradient xlink:href="#1_COPPER_svg__a" id="1_COPPER_svg__b" x1="244.85" x2="244.85" y1="222.989" y2="140.991" gradientTransform="translate(-5329.133 -212.603)" gradientUnits="userSpaceOnUse"/>
    </defs>
    <path fill="url(#1_COPPER_svg__b)" d="m0 0-20.266 6.952a1.47 1.47 0 0 1-.952 0L-41.484 0a1.59 1.59 0 0 1-1.038-1.274l-9.381-60.689c-.151-.981.569-1.871 1.515-1.871H8.905c.945 0 1.666.89 1.514 1.871L1.038-1.274A1.59 1.59 0 0 1 0 0" transform="matrix(-.35278 0 0 .35278 7.683 25.02)"/>
    <path fill="#4d3608" d="M25.46 2.2c.521 0 .91.491.83 1.006l-3.309 21.41a.86.86 0 0 1-.566.688l-7.15 2.452a.82.82 0 0 1-.53 0l-7.149-2.452a.86.86 0 0 1-.566-.688L3.71 3.206c-.08-.514.31-1.005.831-1.005H15Zm0 .6H4.541c-.145 0-.265.137-.238.314l3.31 21.41a.26.26 0 0 0 .166.212l7.15 2.453a.2.2 0 0 0 .14 0l7.15-2.453a.27.27 0 0 0 .168-.212l3.309-21.41c.027-.177-.092-.313-.238-.313"/>
    <path d="m16.29 19.405-.562-.232.496-1.19q.099.099.53.264zm1.488-1.224.662-.199q.297.893.397 1.224l-.629.232q-.066-.166-.43-1.257m-4.465 1.124v1.19h.596v-1.19zm1.224-1.157v2.976h-1.852v-2.745h.628v.232h.596v-.463zm.1 3.737v.595h-2.118v-.595zm.958-5.226v7.177h-4.068v-6.217q0-.563.232-.695.264-.265 1.025-.364.066.43.1.563.032.132.198.33h-.728q-.066 0-.099.033v5.656h2.646v-6.483zm2.547 5.127h-1.918v-.629h.628v-.661h-.893v-.628h.893v-2.183q-.595.099-.893.165v-.694l.728-.166 2.05-.43.132.827q-.33.033-.727.066-.397.066-.53.066v2.349h1.125v.628h-1.124v.661h.595v.563l.33-.397q.2.33.497.628-.562.595-.992 1.19-.133.166-.662 1.092l-.628-.397.099-.198q-.232-.132-1.19-.926l.528-.595q.265.264 1.059.926.595-.86.893-1.257M15.225 5.5v8h-.45v-8Z"/>
    <path d="m15.16 9.34 2.828 2.83-.319.318-2.828-2.83Z"/>
    <path d="m14.841 9.34.319.319-2.83 2.828-.317-.318Z"/>
</svg>
