<svg xmlns="http://www.w3.org/2000/svg" xmlns:xlink="http://www.w3.org/1999/xlink" width="30mm" height="30mm" viewBox="0 0 30 30">
    <defs>
        <linearGradient id="1_DRAGON_svg__a">
            <stop offset="0" stop-color="#ffdba6"/>
            <stop offset="1" stop-color="#f2c478"/>
        </linearGradient>
        <linearGradient xlink:href="#1_DRAGON_svg__a" id="1_DRAGON_svg__b" x1="244.85" x2="244.85" y1="222.989" y2="140.991" gradientTransform="translate(-3812.74 -212.603)" gradientUnits="userSpaceOnUse"/>
    </defs>
    <path fill="url(#1_DRAGON_svg__b)" d="m0 0-21.223 7.255a1.62 1.62 0 0 1-1.044 0L-43.49 0c-.512-.175-.879-.593-.956-1.088L-54.328-64.8c-.128-.823.569-1.559 1.477-1.559H9.361c.907 0 1.605.736 1.477 1.559L.955-1.088C.879-.593.512-.175 0 0" transform="matrix(-.3681 0 0 .36636 6.996 25.81)"/>
    <path fill="#4d3608" d="M26.45 1.2c.497 0 .918.425.841.916l-3.637 23.341a.82.82 0 0 1-.552.636l-7.812 2.658a.9.9 0 0 1-.579 0l-7.812-2.658a.81.81 0 0 1-.552-.636L2.71 2.115c-.076-.492.345-.917.841-.917H15Zm0 .598H3.55c-.171 0-.264.114-.246.226l3.638 23.342c.01.063.06.13.151.16l7.812 2.659a.293.294 90 0 0 .19 0l7.813-2.658c.091-.031.142-.097.152-.161l3.637-23.342c.018-.112-.075-.226-.246-.226"/>
    <path d="M15.225 4.82v8.358h-.45V4.82Z"/>
    <path d="m15.685 12.176.318.318-1.004 1.003-1.003-1.003.318-.318.686.685ZM15 4.503l1.004 1.003-.318.318L15 5.14l-.685.684-.318-.318zm4.178 4.272v.45H10.82v-.45z"/>
    <path d="m18.494 7.996 1.003 1.003-1.003 1.004-.318-.318.684-.686-.684-.685Zm-6.988 0 .318.318L11.14 9l.685.685-.318.318-1.003-1.004Zm4.751 10.801v.496h1.455v-.496zm0 1.025v.53h1.455v-.53zm2.183-3.142v4.366h-2.91v-3.54q0-.33.198-.528.264-.199.827-.298.033.298.099.463 0 .033.066.132l.165.166h-.43q-.132 0-.165.033-.034.033-.034.132v.595h1.456v-1.52zm-3.671 5.325v2.282h-.794v-.629h-2.381v-.595h2.38v-.496h-2.38V20.88h2.447v-.496h-2.216v-.43h2.216v-.463h-2.216v-.463h2.216v-.463h-2.216v-.463h2.216v-.397q0-.231-.132-.264-.066-.066-.463-.066h-.926q-.331 0-.364.033-.298.099-.33.529-.332-.232-.662-.33.132-.497.363-.662.232-.199.53-.199h1.72q.363 0 .562.066.165.033.33.265.1.132.1.43v3.936h-2.448v.562zm1.852.099-.265.992h1.19q-.165-.529-.297-.992zm.727 1.554v.662h-.793v-.662h-1.323v-.562h.397l.33-.992h-.893v-.661h3.77v.661h-.892q0 .1.099.43.099.364.165.562h.496v.562zM12.694 6.376l4.93 4.93-.32.318-4.928-4.93Z"/>
    <path d="m17.305 6.376.318.318-4.93 4.93-.317-.318z"/>
</svg>
