<svg xmlns="http://www.w3.org/2000/svg" xmlns:xlink="http://www.w3.org/1999/xlink" width="30mm" height="30mm" viewBox="0 0 30 30">
    <defs>
        <linearGradient id="1_EAGLE_svg__a">
            <stop offset="0" stop-color="#ffdba6"/>
            <stop offset="1" stop-color="#f2c478"/>
        </linearGradient>
        <linearGradient xlink:href="#1_EAGLE_svg__a" id="1_EAGLE_svg__b" x1="244.85" x2="244.85" y1="222.989" y2="140.991" gradientTransform="translate(-4195.275 -212.603)" gradientUnits="userSpaceOnUse"/>
    </defs>
    <path fill="url(#1_EAGLE_svg__b)" d="m0 0-22.28 7.578c-.3.102-.625.102-.924 0L-45.484 0a1.42 1.42 0 0 1-.949-1.125l-10.308-66.12a1.422 1.422 0 0 1 1.411-1.636H9.846c.875 0 1.544.776 1.41 1.636L.948-1.125A1.42 1.42 0 0 1 0 0" transform="matrix(-.35278 0 0 .35278 6.977 25.8)"/>
    <path fill="#4d3608" d="M26.496 1.2c.486 0 .87.443.795.924l-3.637 23.325a.8.8 0 0 1-.534.635l-7.86 2.673a.8.8 0 0 1-.52 0l-7.86-2.673a.8.8 0 0 1-.534-.635L2.71 2.124a.808.808 0 0 1 .794-.923H15Zm0 .6H3.504a.196.196 0 0 0-.202.231L6.94 25.357a.2.2 0 0 0 .134.159l7.861 2.673a.2.2 0 0 0 .132 0l7.86-2.673a.2.2 0 0 0 .135-.159L26.697 2.03a.196.196 0 0 0-.2-.23"/>
    <path fill="red" d="m18.14 17.751-.595-.397q.199-.264.364-.463.165-.198.364-.43l.562.43q-.397.397-.694.86m-4.762 1.588v.264h3.44v-.264zm0 .628v.265h3.44v-.265zm2.017 1.257.1-.1-.827-.066.165-.363h-2.183v-1.786h4.167v-.265h-5.556v-.397h5.556v-.297h-5.457q.1-1.092.232-1.191.165-.199 1.124-.364.066.33.265.695h-.595q-.066 0-.1.033-.032 0-.032.066-.033.1-.033.364h1.29l-.331-.463.496-.298q.33.53.496.628l-.232.133h1.026l-.397-.563.529-.33q.165.297.43.661l-.364.232h1.323q-.33-.53-.397-.728l.595-.298q.1.298.199.463.066.166.165.364l-.397.199h.893v3.142h-1.918l-.099.396q.198-.165.265-.264.231.198.595.595l-.397.364q-.298-.33-.595-.562zm.761 1.025v.397h1.654v-.397zm2.315-.397v1.19h-3.043v-1.19h1.224v-.529q0-.198.132-.33.199-.133.794-.2.033.2.199.563h-.397q-.066 0-.1.033-.032 0-.032.066v.397h.628l-.264-.298q.43-.33.992-.661.231.364.364.463-.563.265-.794.496zm-6.184 2.25-.596-.53.199-.198h-.563v-.53h1.753l.066-.264h-.496v-.86q0-.066-.033-.1 0-.032-.033-.032h-.463q-.165 0-.231.066-.133.198-.166.529-.231-.199-.661-.298.132-.463.298-.628.165-.166.264-.199.133-.033.364-.033h.463q.496 0 .728.166.165.099.165.297v.629q.232-.43.496-.695.165-.165.628-.43 0 .066.133.298.165.165.364.33-.497.2-.827.53-.232.231-.331.694H14.9v.53h-1.223q0 .363-.033.793h-.695q0-.562.033-.793h-.661q.066.066.397.33zm4.994-.332v.397h-.728v-.397h-1.488v-.463h3.67v.463zM15.225 5.573v8.859h-.45V5.573Z"/>
    <path fill="red" d="m15.736 13.377.318.318L15 14.749l-1.053-1.054.318-.318.735.736ZM15 5.253l1.053 1.055-.318.318L15 5.891l-.735.735-.318-.318zm4.429 4.524v.45H10.57v-.45z"/>
    <path fill="red" d="m18.693 8.948 1.055 1.054-1.055 1.053-.318-.318.736-.735-.736-.736Zm-7.386.001.318.318-.736.736.736.735-.318.318-1.055-1.053Zm.72-2.239 3.133 3.133-.319.318-3.132-3.132Z"/>
    <path fill="red" d="M13.134 6.645v.45h-1.04v1.04h-.451v-1.49zm4.839.065.318.32-3.132 3.13-.318-.317z"/>
    <path fill="red" d="M18.356 6.645v1.49h-.45v-1.04h-1.04v-.45zm-3.516 3.697-3 3 .318.318L15 10.82l2.84 2.84.318-.318-3-3a.225.225 0 0 0-.318 0"/>
    <path fill="#fff" d="m14.5 10.002-3 3"/>
    <path fill="red" d="m14.34 9.842-3 3 .318.318 3-3z"/>
    <path fill="#fff" d="m15.5 10.002 3 3"/>
    <path fill="red" d="m15.658 9.842-.318.318 3 3 .318-.318z"/>
</svg>
