<svg xmlns="http://www.w3.org/2000/svg" xmlns:xlink="http://www.w3.org/1999/xlink" width="30mm" height="30mm" viewBox="0 0 30 30">
    <defs>
        <linearGradient id="1_ELEPHANTPROMOTED_svg__a">
            <stop offset="0" stop-color="#ffdba6"/>
            <stop offset="1" stop-color="#f2c478"/>
        </linearGradient>
        <linearGradient xlink:href="#1_ELEPHANTPROMOTED_svg__a" id="1_ELEPHANTPROMOTED_svg__b" x1="244.85" x2="244.85" y1="222.989" y2="140.991" gradientTransform="translate(-8730.708 -212.603)" gradientUnits="userSpaceOnUse"/>
    </defs>
    <path fill="url(#1_ELEPHANTPROMOTED_svg__b)" d="m0 0-15.596 5.771a3.6 3.6 0 0 1-2.482 0L-33.674 0c-.531-.196-.903-.629-.975-1.134l-7.687-53.636c-.122-.85.627-1.601 1.595-1.601H7.066c.969 0 1.717.751 1.596 1.601L.975-1.134C.902-.629.531-.196 0 0" transform="matrix(-.35278 0 0 .35278 9.06 23.886)"/>
    <path fill="#4d3608" d="M23.432 3.7c.497 0 .932.412.86.907L21.58 23.528a.81.81 0 0 1-.536.639l-5.502 2.036a1.57 1.57 0 0 1-1.084 0l-5.502-2.036a.82.82 0 0 1-.537-.638L5.707 4.606c-.07-.496.364-.907.86-.907H15Zm0 .6H6.567c-.187 0-.28.117-.266.222l2.712 18.92c.009.06.056.128.151.163l5.502 2.035a1 1 0 0 0 .667 0l5.503-2.035c.095-.035.142-.102.15-.161L23.7 4.522c.015-.105-.08-.223-.266-.223"/>
    <path fill="red" d="M15.395 20.256v.596h1.753v-.596zm-2.745 0v.596h2.018v-.596zm2.117 1.654h1.852l.53-.463h-1.886q-.165.132-.496.463m.893 1.025.33-.396h-1.917l-.133.066-.43-.463q.265-.265.463-.43.166-.166.298-.265h-2.414v-1.786h1.819q-.066-.562-.298-1.058l-.661.463q-.331.231-.629.43l-.562-.596q.992-.628 1.521-.926-.76-1.058-1.819-1.587.397-.397.563-.695.86.596 1.157.926.397.364.695.893.33.497.496.993.165.363.297 1.157h.629l.231-.165q-.529-.629-.793-1.257-.232-.562-.232-1.422 0-.43.165-.76.133-.298.463-.398.364-.132 1.092-.165.066.463.198.76h-.76q-.232 0-.265.1-.132.132-.132.496 0 .198.033.364 1.223-.662 1.62-.827.496-.232 1.72-.595.298.628.364.694-1.951.463-3.539 1.488l.132.331q.794-.463 1.257-.661.33-.133 1.522-.53.066.199.396.629-1.554.364-2.877 1.091l.232.298q1.19-.628 2.546-.992.133.364.397.694-1.521.331-2.414.827h1.455v1.257q.397-.298.496-.364.165.232.53.595-1.49.993-2.448 2.051zm-.435-13.08v4.01h-.45v-4.01Z"/>
    <path fill="red" d="M19 9.63v.45h-8v-.45z"/>
    <path fill="red" d="m12.33 6.86 5.657 5.672-.318.318-5.657-5.67Z"/>
    <path fill="red" d="m17.669 6.86.318.318-5.657 5.671-.318-.318Z"/>
</svg>
