<svg xmlns="http://www.w3.org/2000/svg" xmlns:xlink="http://www.w3.org/1999/xlink" width="30mm" height="30mm" viewBox="0 0 30 30">
    <defs>
        <linearGradient id="1_FALCON_svg__a">
            <stop offset="0" stop-color="#ffdba6"/>
            <stop offset="1" stop-color="#f2c478"/>
        </linearGradient>
        <linearGradient xlink:href="#1_FALCON_svg__a" id="1_FALCON_svg__b" x1="244.85" x2="244.85" y1="222.989" y2="140.991" gradientTransform="translate(-3288.19 -212.603)" gradientUnits="userSpaceOnUse"/>
    </defs>
    <path fill="url(#1_FALCON_svg__b)" d="m0 0-22.28 7.578c-.3.102-.625.102-.924 0L-45.484 0a1.42 1.42 0 0 1-.949-1.125l-10.308-66.12a1.422 1.422 0 0 1 1.411-1.636H9.846c.875 0 1.544.776 1.41 1.636L.948-1.125A1.42 1.42 0 0 1 0 0" transform="matrix(-.35278 0 0 .35278 6.977 25.8)"/>
    <path fill="#4d3608" d="M26.496 1.2c.486 0 .87.443.795.924l-3.637 23.325a.8.8 0 0 1-.534.635l-7.86 2.673a.8.8 0 0 1-.52 0l-7.86-2.673a.8.8 0 0 1-.534-.635L2.71 2.124a.808.808 0 0 1 .794-.923H15Zm0 .6H3.504a.196.196 0 0 0-.202.231L6.94 25.357a.2.2 0 0 0 .134.159l7.861 2.673a.2.2 0 0 0 .132 0l7.86-2.673a.2.2 0 0 0 .135-.159L26.697 2.03a.196.196 0 0 0-.2-.23"/>
    <path fill="red" d="m16.554 17.288-.53.165q-.065-.066-.297-.628l.562-.198q.232.595.265.661m-1.257 0-.43.199q-.198-.199-.397-.563l.463-.231q.066.132.165.297.1.133.199.298m2.249.298-.496-.232q.165-.43.397-.827l.496.265q-.265.43-.397.794m-4.564 1.455v.231h3.406v-.231zm0 .53v.23h3.406v-.23zm.893 1.289v.33h1.091v-.33zm0 .595v.298h1.091v-.298zm0 .596v.33h1.091v-.33zm2.646 1.19h1.124V22.15q-.661.496-1.124 1.091m-2.745-.496-.298.496h1.224l-.199-.165.298-.33zm1.422.96v.528h-.761v-.529h-3.109v-.463h1.852l-.33-.165.231-.33H11.56v-.365h1.62v-.33h-1.356v-.298h1.356v-.298h-1.356v-.264h1.356v-.331h-1.852v-.364h3.109l.099-.297H12.32V18.71h4.068v-.264h-5.126v-.298h5.126v-.298h-4.895q.1-.926.265-1.157.231-.232 1.025-.265.1.364.298.662h-.53q-.198 0-.23.033-.067.066-.1.43h1.455q-.099-.1-.198-.232-.1-.165-.132-.231-.066-.1-.1-.133l.464-.231.43.562-.43.265h3.307v2.646h-1.786l-.099.297h.397v1.455l.397-.397q.033.166.297.596-.264.198-1.058 1.091h.992l-.264-.264q.099-.1.198-.232.1-.132.265-.33V20.43h.628v1.39q.298-.299.463-.398.066.166.199.43 0-1.753.066-2.48.033-.629.231-1.323.132-.53.53-1.356l.528.562q-.198.463-.396 1.025-.166.463-.199.992-.066.728-.066 1.191v3.241zM18.291 7.03l-6.264 6.263-.319-.319 6.264-6.264Z"/>
    <path fill="red" d="M13.133 12.909v.45l-1.49-.001v-1.49h.45v1.04Zm5.223-6.265v1.492h-.45V7.095h-1.04v-.45zm-.064 6.331-.32.319L11.71 7.03l.319-.32z"/>
    <path fill="red" d="M18.357 11.868v1.49h-1.49v-.45h1.04v-1.04Zm-5.224-5.222v.45h-1.04v1.04h-.45v-1.49Zm2.092-1.073v4.43h-.45v-4.43Z"/>
    <path fill="red" d="m16.054 6.308-.318.319L15 5.89l-.736.735-.318-.318L15 5.254zm3.375 3.469v.45H10.57v-.45z"/>
    <path fill="red" d="m19.747 10.001-1.054 1.055-.319-.318.736-.736-.735-.736.318-.318zm-8.122-.734-.736.735.736.736-.318.319-1.054-1.054 1.054-1.055Z"/>
    <path fill="#fff" d="M15.353 10.002v4.5"/>
    <path fill="red" d="M15.129 10.002v4.5h.45v-4.5z"/>
    <path fill="#fff" d="M14.646 10.002v4.5"/>
    <path fill="red" d="M14.422 10.002v4.5h.45v-4.5z"/>
</svg>
