<svg xmlns="http://www.w3.org/2000/svg" xmlns:xlink="http://www.w3.org/1999/xlink" width="30mm" height="30mm" viewBox="0 0 30 30">
    <defs>
        <linearGradient id="1_GOLD_svg__a">
            <stop offset="0" stop-color="#ffdba6"/>
            <stop offset="1" stop-color="#f2c478"/>
        </linearGradient>
        <linearGradient xlink:href="#1_GOLD_svg__a" id="1_GOLD_svg__b" x1="244.85" x2="244.85" y1="222.989" y2="140.991" gradientTransform="translate(-2154.331 -212.603)" gradientUnits="userSpaceOnUse"/>
    </defs>
    <path fill="url(#1_GOLD_svg__b)" d="m0 0-20.266 6.952a1.47 1.47 0 0 1-.952 0L-41.484 0a1.59 1.59 0 0 1-1.038-1.274l-9.381-60.689c-.151-.981.569-1.871 1.515-1.871H8.905c.945 0 1.666.89 1.514 1.871L1.038-1.274A1.59 1.59 0 0 1 0 0" transform="matrix(-.35278 0 0 .35278 7.683 25.02)"/>
    <path fill="#4d3608" d="M25.46 2.2c.521 0 .91.491.83 1.006l-3.309 21.41a.86.86 0 0 1-.566.688l-7.15 2.452a.82.82 0 0 1-.53 0l-7.149-2.452a.86.86 0 0 1-.566-.688L3.71 3.206c-.08-.514.31-1.005.831-1.005H15Zm0 .6H4.541c-.145 0-.265.137-.238.314l3.31 21.41a.26.26 0 0 0 .166.212l7.15 2.453a.2.2 0 0 0 .14 0l7.15-2.453a.27.27 0 0 0 .168-.212l3.309-21.41c.027-.177-.092-.313-.238-.313"/>
    <path d="M15.225 6v8h-.45V6Z"/>
    <path d="M19 9.775v.45h-8v-.45z"/>
    <path d="m15.16 9.84 2.828 2.83-.319.318-2.828-2.83Z"/>
    <path d="m14.841 9.84.319.319-2.83 2.828-.317-.318Zm2.881 8.851-.655.379q-.172-.207-.758-1.171l.724-.345q.275.62.689 1.137m-2.619 4.65q.62-.688.655-.723l1.102-1.033h-3.617q.896.758 1.034.896zm.173 1.172-.827-.413.138-.172q-.793-.93-1.62-1.482-.999-.792-2.101-1.309.482-.62.551-.758.655.345 1.344.861v-.379h1.929v-.86h-3.1v-.655h3.1v-1.999h-1.481q.24.173.585.38-.344.55-.689 1.412l-.792-.413q.482-.93.792-1.379H11.21v-.723h7.614v.723h-3.307v1.999h2.894V20h-2.894v.861h1.722v.414q.552-.482 1.344-1 .069.139.138.208l.034.103q0 .034.138.172.103.172.207.276-2.102 1.206-3.824 3.48"/>
</svg>
