<svg xmlns="http://www.w3.org/2000/svg" xmlns:xlink="http://www.w3.org/1999/xlink" width="30mm" height="30mm" viewBox="0 0 30 30">
    <defs>
        <linearGradient id="1_GOBETWEEN_svg__a">
            <stop offset="0" stop-color="#ffdba6"/>
            <stop offset="1" stop-color="#f2c478"/>
        </linearGradient>
        <linearGradient xlink:href="#1_GOBETWEEN_svg__a" id="1_GOBETWEEN_svg__b" x1="244.85" x2="244.85" y1="222.989" y2="140.991" gradientTransform="translate(-8503.936 -212.603)" gradientUnits="userSpaceOnUse"/>
    </defs>
    <path fill="url(#1_GOBETWEEN_svg__b)" d="m0 0-16.217 5.989a1.8 1.8 0 0 1-1.241 0L-33.674 0c-.531-.196-.903-.627-.975-1.131l-7.687-53.534c-.122-.848.627-1.598 1.595-1.598H7.066c.969 0 1.717.75 1.596 1.598L.975-1.131C.902-.627.531-.196 0 0" transform="matrix(-.35278 0 0 .35278 9.06 23.848)"/>
    <path fill="#4d3608" d="M23.432 3.7c.497 0 .93.41.86.906L21.58 23.492a.81.81 0 0 1-.536.637l-5.721 2.113a.93.93 0 0 1-.645 0L8.956 24.13a.82.82 0 0 1-.537-.637L5.707 4.606c-.07-.495.364-.906.86-.906H15Zm0 .6H6.567c-.187 0-.28.117-.266.22l2.712 18.886c.009.06.055.126.151.16l5.721 2.113a.35.35 0 0 0 .23 0l5.72-2.112c.097-.035.143-.102.152-.16L23.699 4.52c.014-.103-.08-.221-.266-.221"/>
    <path d="M14.371 18.9v1.853h1.224v-1.852zm-2.05 0v1.853h1.257v-1.852zm2.05 2.547v1.62h-.793v-1.62h-2.05v-3.539h.793v.331h1.257v-2.646h.793v2.646h1.224v-.397h.728v3.605zm2.646-.231v-5.689h.794v4.399q.463-.794.728-1.19.198.462.43.727-.43.562-.893 1.422-.43.827-1.026 2.381l-.727-.363q.397-.993.694-1.687M15.225 7v6h-.45V7Z"/>
    <path d="M15 9.395c.156 0 .312.058.43.176a.61.61 0 0 1 0 .858.61.61 0 0 1-.86 0 .61.61 0 0 1 0-.858.6.6 0 0 1 .43-.176m.111.494a.154.154 0 0 0-.222 0 .154.154 0 0 0 0 .222.155.155 0 0 0 .222 0 .153.153 0 0 0 0-.222"/>
</svg>
