<svg xmlns="http://www.w3.org/2000/svg" xmlns:xlink="http://www.w3.org/1999/xlink" width="30mm" height="30mm" viewBox="0 0 30 30">
    <defs>
        <linearGradient id="1_HORSEPROMOTED_svg__a">
            <stop offset="0" stop-color="#ffdba6"/>
            <stop offset="1" stop-color="#f2c478"/>
        </linearGradient>
        <linearGradient xlink:href="#1_HORSEPROMOTED_svg__a" id="1_HORSEPROMOTED_svg__b" x1="244.85" x2="244.85" y1="222.989" y2="140.991" gradientTransform="translate(-2834.646 -212.603)" gradientUnits="userSpaceOnUse"/>
    </defs>
    <path fill="url(#1_HORSEPROMOTED_svg__b)" d="m0 0-21.223 7.255a1.62 1.62 0 0 1-1.044 0L-43.49 0c-.512-.175-.879-.592-.956-1.088L-54.328-64.8c-.128-.823.569-1.559 1.477-1.559H9.361c.907 0 1.605.736 1.477 1.559L.955-1.088C.879-.592.512-.175 0 0" transform="matrix(-.35278 0 0 .35278 7.329 25.41)"/>
    <path fill="#4d3608" d="M25.974 1.7c.482 0 .892.415.817.896l-3.485 22.476a.8.8 0 0 1-.537.622l-7.488 2.56a.87.87 0 0 1-.562 0l-7.487-2.56a.79.79 0 0 1-.536-.622L3.209 2.596c-.075-.481.335-.896.818-.896H15Zm0 .6H4.027c-.158 0-.24.103-.225.203v.001l3.486 22.477c.009.057.054.116.138.145l7.487 2.56a.3.3 0 0 0 .174 0l7.487-2.56c.084-.029.13-.089.138-.146l3.486-22.476c.016-.1-.066-.204-.224-.204"/>
    <path fill="red" d="m17.082 18.479-.628.132q-.231-.662-.364-1.29l.695-.165q.033.529.297 1.323m1.092.231-.662-.231q.232-.86.596-1.621l.661.298q-.264.628-.595 1.554m-2.547-.165-.562.198q-.232-.364-.496-1.157l.595-.232q.133.397.463 1.19m-1.918-.86.562 1.025-.562.265q-.298-.43-.595-.993zm1.588 2.15v.727h1.95v-.727zm0 1.355v.662h1.95v-.662zm0 1.257v.662h1.95v-.662zm2.711-3.505v4.861h-6.25v-.694h2.778v-.662h-2.348v-.595h2.348v-.662h-2.348v-.628h2.348v-.727h-3.043q.033-2.018.199-2.58.066-.364.297-.463.397-.232 1.323-.364.033.298.298.86h-.794q-.265 0-.298.1-.132.23-.165 1.785h4.895v-.231zM11.835 5.482l6.648 6.718-.32.316L11.515 5.8z"/>
    <path fill="red" d="M18.547 11.001v1.582H16.98v-.45h1.118v-1.132Zm-5.529-5.585v.45H11.9v1.132h-.45V5.416zm5.145.067.32.316-6.648 6.718-.32-.317z"/>
    <path fill="red" d="M18.548 5.416v1.582h-.45V5.866H16.98v-.45zM11.9 11v1.133h1.118v.45H11.45V11Zm3.325-4.5v5h-.45v-5Z"/>
    <path fill="red" d="M17.5 8.775v.45h-5v-.45z"/>
</svg>
