<svg xmlns="http://www.w3.org/2000/svg" xmlns:xlink="http://www.w3.org/1999/xlink" width="30mm" height="30mm" viewBox="0 0 30 30">
    <defs>
        <linearGradient id="1_HORSE_svg__a">
            <stop offset="0" stop-color="#ffdba6"/>
            <stop offset="1" stop-color="#f2c478"/>
        </linearGradient>
        <linearGradient xlink:href="#1_HORSE_svg__a" id="1_HORSE_svg__b" x1="244.85" x2="244.85" y1="222.989" y2="140.991" gradientTransform="translate(-2943.415 -212.603)" gradientUnits="userSpaceOnUse"/>
    </defs>
    <path fill="url(#1_HORSE_svg__b)" d="m0 0-21.223 7.255a1.62 1.62 0 0 1-1.044 0L-43.49 0c-.512-.175-.879-.593-.956-1.088L-54.328-64.8c-.128-.823.569-1.559 1.477-1.559H9.361c.907 0 1.605.736 1.477 1.559L.955-1.088C.879-.593.512-.175 0 0" transform="matrix(-.3681 0 0 .36636 6.996 25.81)"/>
    <path fill="#4d3608" d="M26.45 1.2c.497 0 .918.425.841.916l-3.637 23.341a.82.82 0 0 1-.552.636l-7.812 2.658a.9.9 0 0 1-.579 0l-7.812-2.658a.81.81 0 0 1-.552-.636L2.71 2.115c-.076-.492.345-.917.841-.917H15Zm0 .598H3.55c-.171 0-.264.114-.246.226l3.638 23.342c.01.063.06.13.151.16l7.812 2.659a.293.294 90 0 0 .19 0l7.813-2.658c.091-.031.142-.097.152-.161l3.637-23.342c.018-.112-.075-.226-.246-.226"/>
    <path d="m16.951 18.863-.628.132q-.232-.661-.364-1.29l.695-.165q.033.53.297 1.323m1.092.231-.662-.231q.232-.86.596-1.62l.661.297q-.265.628-.595 1.554m-2.547-.165-.562.198q-.232-.363-.496-1.157l.595-.232q.132.397.463 1.191m-1.918-.86.562 1.025-.562.265q-.298-.43-.595-.992zm1.587 2.15v.727h1.952v-.727zm0 1.356v.661h1.952v-.661zm0 1.257v.661h1.952v-.661zm2.712-3.506v4.862h-6.25v-.695h2.778v-.661h-2.349v-.596h2.349v-.661h-2.349v-.629h2.349v-.727h-3.043q.033-2.018.198-2.58.066-.364.298-.463.397-.231 1.323-.364.033.298.298.86h-.794q-.265 0-.298.1-.132.231-.165 1.785h4.895v-.231zM11.835 5.482l6.648 6.717-.32.317L11.515 5.8z"/>
    <path d="M18.547 11.001v1.582H16.98v-.45h1.118v-1.132Zm-5.529-5.585v.45H11.9v1.132h-.45V5.416zm5.145.067.32.317-6.648 6.717-.32-.318z"/>
    <path d="M18.548 5.416v1.582h-.45V5.866H16.98v-.45zM11.9 11v1.133h1.118v.45H11.45V11Zm3.325-4.5v5h-.45v-5Z"/>
    <path d="M17.5 8.775v.45h-5v-.45z"/>
</svg>
