<svg xmlns="http://www.w3.org/2000/svg" xmlns:xlink="http://www.w3.org/1999/xlink" width="30mm" height="30mm" viewBox="0 0 30 30">
    <defs>
        <linearGradient id="1_LIONPROMOTED_svg__a">
            <stop offset="0" stop-color="#ffdba6"/>
            <stop offset="1" stop-color="#f2c478"/>
        </linearGradient>
        <linearGradient xlink:href="#1_LIONPROMOTED_svg__a" id="1_LIONPROMOTED_svg__b" x1="244.85" x2="244.85" y1="222.989" y2="140.991" gradientTransform="translate(-7370.078 -212.603)" gradientUnits="userSpaceOnUse"/>
    </defs>
    <path fill="url(#1_LIONPROMOTED_svg__b)" d="m0 0-22.28 7.578c-.3.102-.625.102-.924 0L-45.484 0a1.42 1.42 0 0 1-.949-1.125l-10.308-66.12a1.422 1.422 0 0 1 1.411-1.636H9.846c.875 0 1.544.777 1.41 1.636L.948-1.125A1.42 1.42 0 0 1 0 0" transform="matrix(-.35278 0 0 .35278 6.977 25.8)"/>
    <path fill="#4d3608" d="M26.496 1.2c.487 0 .87.443.795.924l-3.637 23.325a.8.8 0 0 1-.534.635l-7.86 2.673a.8.8 0 0 1-.52 0l-7.86-2.673a.8.8 0 0 1-.534-.635L2.71 2.124a.808.808 0 0 1 .794-.923H15Zm0 .6H3.504a.197.197 0 0 0-.202.23L6.94 25.358a.2.2 0 0 0 .134.159l7.861 2.673a.2.2 0 0 0 .132 0l7.86-2.673a.2.2 0 0 0 .135-.159L26.697 2.03a.196.196 0 0 0-.2-.23"/>
    <path fill="red" d="M14.24 23.173v.695h-3.043v-.695h1.257v-1.157h-1.025v-3.605q0-.33.099-.496.066-.066.661-.232.033.331.232.794h-.364v2.844h.397v-4.762h.661v4.762h.397v-3.538h.629v4.233h-1.026v1.157zm3.473-.099q-.464.562-.629.86l-.595-.496q.397-.562.86-1.091-.298-1.257-.331-1.654-.099-.827-.099-1.753t.132-1.356q.166-.562.364-.694.232-.133.96-.298.032.132.264.827h-.595q-.232 0-.265.198-.165.662-.165 1.455v.761q.43-.53.926-1.025.066.132.43.727-.794.629-1.224 1.356.033.298.165.893.133-.132.629-.529.099.265.396.662-.231.165-.727.595.33.628.694 1.025l-.595.397q-.43-.53-.595-.86m-2.514-5.192v1.157h.661v-1.157zm0 3.44v1.025h.661v-1.026zm0 1.72h-.695V20.66h1.356v-.926h-1.356v-2.811h.695v.264h.661v-.397h.662v6.251h-.628l-.1 1.125-.793-.1q0-.066.198-1.025zM15 4.952c2.785 0 5.048 2.262 5.048 5.048S17.785 15.048 15 15.048 9.95 12.786 9.95 10 12.214 4.952 15 4.952m0 .45c-2.542 0-4.6 2.056-4.6 4.598s2.057 4.598 4.599 4.598 4.598-2.056 4.598-4.598S17.542 5.402 15 5.402"/>
    <path fill="red" d="M15 6.451c1.957 0 3.548 1.592 3.548 3.549S16.957 13.549 15 13.549 11.45 11.957 11.45 10 13.044 6.451 15 6.451m0 .45A3.095 3.095 0 0 0 11.9 10a3.095 3.095 90 0 0 3.1 3.099A3.094 3.094 90 0 0 18.098 10 3.094 3.094 90 0 0 15 6.901"/>
</svg>
