<svg xmlns="http://www.w3.org/2000/svg" xmlns:xlink="http://www.w3.org/1999/xlink" width="30mm" height="30mm" viewBox="0 0 30 30">
    <defs>
        <linearGradient id="1_OX_svg__a">
            <stop offset="0" stop-color="#ffdba6"/>
            <stop offset="1" stop-color="#f2c478"/>
        </linearGradient>
        <linearGradient xlink:href="#1_OX_svg__a" id="1_OX_svg__b" x1="244.85" x2="244.85" y1="222.989" y2="140.991" gradientTransform="translate(-1927.56 -212.603)" gradientUnits="userSpaceOnUse"/>
    </defs>
    <path fill="url(#1_OX_svg__b)" d="m0 0-21.223 7.255a1.62 1.62 0 0 1-1.044 0L-43.49 0c-.512-.175-.879-.592-.956-1.088L-54.328-64.8c-.128-.823.569-1.559 1.477-1.559H9.361c.907 0 1.605.736 1.477 1.559L.955-1.088C.879-.592.512-.175 0 0" transform="matrix(-.35278 0 0 .35278 7.329 25.41)"/>
    <path fill="#4d3608" d="M25.974 1.7c.482 0 .892.415.817.896l-3.485 22.476a.8.8 0 0 1-.537.622l-7.488 2.56a.87.87 0 0 1-.562 0l-7.487-2.56a.79.79 0 0 1-.536-.622L3.209 2.596c-.075-.481.335-.896.818-.896H15Zm0 .6H4.027c-.158 0-.24.103-.225.203v.001l3.486 22.477c.009.057.054.116.138.145l7.487 2.56a.3.3 0 0 0 .174 0l7.487-2.56c.084-.029.13-.089.138-.146l3.486-22.476c.016-.1-.066-.204-.224-.204"/>
    <path fill="red" d="M15.428 22.48v1.621h-.76v-1.62h-2.779v-.695h2.778V20H11.36v-.694h3.307v-2.812h.761v2.812h3.373V20h-3.373v1.786h1.951q.265-.496.728-1.091.264.264.694.463-.628.793-.86 1.19-.264.496-.595 1.489l-.794-.298q.331-.728.497-1.058zm-.203-16.909v8.859h-.45V5.57Z"/>
    <path fill="red" d="m15.736 13.376.318.318L15 14.748l-1.053-1.054.318-.318.735.736ZM15 5.252l1.053 1.055-.318.318L15 5.89l-.735.735-.318-.318zm-2.973 1.457 6.264 6.264-.318.318-6.264-6.264Z"/>
    <path fill="red" d="M18.357 11.867v1.49h-1.49v-.45h1.04v-1.04Zm-5.223-5.223v.45h-1.04v1.04h-.451v-1.49zm4.839.065.318.318-6.264 6.264-.318-.318z"/>
    <path fill="red" d="M18.356 6.643v1.49h-.45v-1.04h-1.04v-.45zm-6.263 5.223v1.04h1.041v.451h-1.49v-1.491Z"/>
</svg>
