<svg xmlns="http://www.w3.org/2000/svg" xmlns:xlink="http://www.w3.org/1999/xlink" width="30mm" height="30mm" viewBox="0 0 30 30">
    <defs>
        <linearGradient id="1_PAWN_svg__a">
            <stop offset="0" stop-color="#ffdba6"/>
            <stop offset="1" stop-color="#f2c478"/>
        </linearGradient>
        <linearGradient xlink:href="#1_PAWN_svg__a" id="1_PAWN_svg__b" x1="244.85" x2="244.85" y1="222.989" y2="140.991" gradientTransform="translate(-340.158 -212.603)" gradientUnits="userSpaceOnUse"/>
    </defs>
    <path fill="url(#1_PAWN_svg__b)" d="m0 0-16.217 5.989a1.8 1.8 0 0 1-1.241 0L-33.674 0c-.531-.196-.903-.627-.975-1.131l-7.687-53.534c-.122-.848.627-1.598 1.595-1.598H7.066c.969 0 1.717.75 1.596 1.598L.975-1.131C.902-.627.531-.196 0 0" transform="matrix(-.35278 0 0 .35278 9.06 23.848)"/>
    <path fill="#4d3608" d="M23.432 3.7c.497 0 .93.41.86.906L21.58 23.492a.81.81 0 0 1-.536.637l-5.721 2.113a.93.93 0 0 1-.645 0L8.956 24.13a.82.82 0 0 1-.537-.637L5.707 4.606c-.07-.495.364-.906.86-.906H15Zm0 .6H6.567c-.187 0-.28.117-.266.22l2.712 18.886c.009.06.055.126.151.16l5.721 2.113a.35.35 0 0 0 .23 0l5.72-2.112c.097-.035.143-.102.152-.16L23.699 4.52c.014-.103-.08-.221-.266-.221"/>
    <path d="M15.475 9.5v3h-.45v-3Zm2.825 5.994q.1.43.296.76-.951.033-2.1.332-.917.23-1.607.727-.689.462-1.344 1.19l-.59-.462q.753-.762.983-.926.458-.365 1.149-.695.458-.264 1.443-.562.786-.198 1.77-.364m-6.757 2.844.492-.595q.952.86 1.772 1.356l-.426.562q-1.083-.695-1.838-1.323m6.922-.926q.098.199.164.265l.328.364q-.657.462-.853.661-.361.298-.984.992l-.623-.496.262-.265.263-.264q.656-.662.72-.695.525-.43.723-.562m-2.854 3.175v2.58h-.722v-.992H12.33v-.695h2.56v-.893h-3.281v-.728h3.28v-1.918q0-.264.23-.462.197-.166 1.017-.331.032.331.328.793h-.722q-.033 0-.099.066-.032.034-.032.1v1.752h3.378v.728h-1.28v1.885h-.753v-1.885z"/>
</svg>
