<svg xmlns="http://www.w3.org/2000/svg" xmlns:xlink="http://www.w3.org/1999/xlink" width="30mm" height="30mm" viewBox="0 0 30 30">
    <defs>
        <clipPath id="1_PHOENIX_svg__c" clipPathUnits="userSpaceOnUse">
            <path d="M-1148.797 1659.034h2834.646v-2834.646h-2834.646Z"/>
        </clipPath>
        <clipPath id="1_PHOENIX_svg__d" clipPathUnits="userSpaceOnUse">
            <path d="M-1148.797 1659.034h2834.646v-2834.646h-2834.646Z"/>
        </clipPath>
        <clipPath id="1_PHOENIX_svg__e" clipPathUnits="userSpaceOnUse">
            <path d="M-1148.797 1659.034h2834.646v-2834.646h-2834.646Z"/>
        </clipPath>
        <clipPath id="1_PHOENIX_svg__f" clipPathUnits="userSpaceOnUse">
            <path d="M-1148.797 1659.034h2834.646v-2834.646h-2834.646Z"/>
        </clipPath>
        <linearGradient id="1_PHOENIX_svg__a">
            <stop offset="0" stop-color="#ffdba6"/>
            <stop offset="1" stop-color="#f2c478"/>
        </linearGradient>
        <linearGradient xlink:href="#1_PHOENIX_svg__a" id="1_PHOENIX_svg__b" x1="244.85" x2="244.85" y1="222.989" y2="140.991" gradientTransform="translate(-7823.621 -212.603)" gradientUnits="userSpaceOnUse"/>
    </defs>
    <path fill="url(#1_PHOENIX_svg__b)" d="m0 0-22.28 7.578c-.3.102-.625.102-.924 0L-45.484 0a1.42 1.42 0 0 1-.949-1.125l-10.308-66.12a1.422 1.422 0 0 1 1.411-1.636H9.846c.875 0 1.544.777 1.41 1.636L.948-1.125A1.42 1.42 0 0 1 0 0" transform="matrix(-.35278 0 0 .35278 6.977 25.8)"/>
    <path fill="#4d3608" d="M26.496 1.2c.487 0 .87.443.795.924l-3.637 23.325a.8.8 0 0 1-.534.635l-7.86 2.673a.8.8 0 0 1-.52 0l-7.86-2.673a.8.8 0 0 1-.534-.635L2.71 2.124a.808.808 0 0 1 .794-.923H15Zm0 .6H3.504a.197.197 0 0 0-.202.23L6.94 25.358a.2.2 0 0 0 .134.159l7.861 2.673a.2.2 0 0 0 .132 0l7.86-2.673a.2.2 0 0 0 .135-.159L26.697 2.03a.196.196 0 0 0-.2-.23"/>
    <path d="m16.653 17.95-.529.033q-.066-.298-.132-.96l.53-.066q.098.794.131.993m-.826 0-.43.132q-.199-.43-.298-.893l.463-.132q.066.297.265.893m1.587.165-.529-.198q.198-.662.364-.993l.562.199q-.265.463-.397.992m-2.381-.1-.463.133q-.132-.298-.33-.76l.462-.133q.066.199.199.43.099.232.132.33m-.728 2.349v.33h1.919v-.33zm0 .728v.396h1.919v-.396zm2.878 1.256v.496h-4.035v-.496h1.753l.099-.397h-1.422v-2.017h2.645v-.364h-3.108v-.463h3.108v-.364h-3.108q0-1.422.033-1.587.032-.265.198-.397.231-.232.926-.33.066.363.265.727h-.43q-.199 0-.232.1l-.066 1.024h3.076v3.671h-1.224l-.066.397zm-5.59-4.2q-.264-.265-.562-.397.199-.86.364-1.091.165-.166.298-.166.297 0 .529.331.43.43.595 1.786.099.893.099 2.977 0 .231-.066 1.62h4.73q-.067-2.183 0-3.142.065-1.058.132-1.488.099-.562.33-1.158.066-.231.463-.959.166.232.53.596-.43.926-.596 1.62-.198.96-.198 2.315 0 1.422.099 2.845h-6.317q.132-1.224.132-1.82.033-.297.033-1.422 0-1.72-.231-2.678-.166-.497-.199-.497t-.033.034q-.033.066-.132.694M15.225 6.5v5h-.45v-5Z"/>
    <path d="M17.5 8.775v.45h-5v-.45z"/>
    <g clip-path="url(#1_PHOENIX_svg__c)" transform="rotate(-135 6.82 .106)scale(.5295 -.52275)">
        <path fill="none" d="M0 0a1.083 1.083 0 1 0-1.532 1.532A1.083 1.083 0 0 0 0 0"/>
        <path d="M-.766-.742c-.387 0-.775.146-1.068.44a1.517 1.517 0 0 0 0 2.136c.586.586 1.55.586 2.137 0a1.517 1.517 0 0 0 0-2.137 1.5 1.5 0 0 0-1.069-.44M-1.23.303a.65.65 0 0 1 .927 0 .65.65 0 0 1 0 .927.65.65 0 0 1-.927 0 .65.65 0 0 1 0-.927"/>
    </g>
    <g clip-path="url(#1_PHOENIX_svg__d)" transform="rotate(-135 11.67 2.115)scale(.5295 -.52275)">
        <path fill="none" d="M0 0a1.083 1.083 0 1 0-1.532 1.532A1.083 1.083 0 0 0 0 0"/>
        <path d="M-.766-.742c-.387 0-.775.146-1.068.44a1.517 1.517 0 0 0 0 2.136c.586.586 1.55.586 2.137 0a1.517 1.517 0 0 0 0-2.137 1.5 1.5 0 0 0-1.069-.44M-1.23.303a.65.65 0 0 1 .927 0 .65.65 0 0 1 0 .927.65.65 0 0 1-.927 0 .65.65 0 0 1 0-.927"/>
    </g>
    <g clip-path="url(#1_PHOENIX_svg__e)" transform="rotate(135 8.346 6.72)scale(-.5295 .52275)">
        <path fill="none" d="M0 0a1.083 1.083 0 1 0-1.532 1.532A1.083 1.083 0 0 0 0 0"/>
        <path d="M-.766-.742c-.387 0-.775.146-1.068.44a1.517 1.517 0 0 0 0 2.136c.586.586 1.55.586 2.137 0a1.517 1.517 0 0 0 0-2.137 1.5 1.5 0 0 0-1.069-.44M-1.23.303a.65.65 0 0 1 .927 0 .65.65 0 0 1 0 .927.65.65 0 0 1-.927 0 .65.65 0 0 1 0-.927"/>
    </g>
    <g clip-path="url(#1_PHOENIX_svg__f)" transform="rotate(135 3.496 8.728)scale(-.5295 .52275)">
        <path fill="none" d="M0 0a1.083 1.083 0 1 0-1.532 1.532A1.083 1.083 0 0 0 0 0"/>
        <path d="M-.766-.742c-.387 0-.775.146-1.068.44a1.517 1.517 0 0 0 0 2.136c.586.586 1.55.586 2.137 0a1.517 1.517 0 0 0 0-2.137 1.5 1.5 0 0 0-1.069-.44M-1.23.303a.65.65 0 0 1 .927 0 .65.65 0 0 1 0 .927.65.65 0 0 1-.927 0 .65.65 0 0 1 0-.927"/>
    </g>
</svg>
