<svg xmlns="http://www.w3.org/2000/svg" xmlns:xlink="http://www.w3.org/1999/xlink" width="30mm" height="30mm" viewBox="0 0 30 30">
    <defs>
        <linearGradient id="1_PROMOTEDPAWN_svg__a">
            <stop offset="0" stop-color="#ffdba6"/>
            <stop offset="1" stop-color="#f2c478"/>
        </linearGradient>
        <linearGradient xlink:href="#1_PROMOTEDPAWN_svg__a" id="1_PROMOTEDPAWN_svg__b" x1="244.85" x2="244.85" y1="222.989" y2="140.991" gradientTransform="translate(-566.93 -212.603)" gradientUnits="userSpaceOnUse"/>
    </defs>
    <path fill="url(#1_PROMOTEDPAWN_svg__b)" d="m0 0-16.217 5.989a1.8 1.8 0 0 1-1.241 0L-33.674 0c-.531-.196-.903-.628-.975-1.131l-7.687-53.534c-.122-.848.627-1.599 1.595-1.599H7.066c.969 0 1.717.751 1.596 1.599L.975-1.131C.902-.628.531-.196 0 0" transform="matrix(-.35278 0 0 .35278 9.06 23.848)"/>
    <path fill="#4d3608" d="M23.432 3.699c.497 0 .93.412.86.907L21.58 23.492a.81.81 0 0 1-.536.637l-5.721 2.113a.93.93 0 0 1-.645 0L8.956 24.13a.82.82 0 0 1-.537-.637L5.707 4.606c-.07-.495.364-.907.86-.907H15Zm0 .6H6.567c-.187 0-.28.119-.266.222l2.712 18.885c.009.058.055.126.151.16l5.721 2.113a.35.35 0 0 0 .23 0l5.72-2.112c.096-.035.143-.103.152-.16L23.699 4.52c.014-.103-.08-.222-.266-.222"/>
    <path fill="red" d="M15.414 19.926q-.557.198-2.657.86l-.295-.827q2.525-.595 3.017-.827 1.215-.462 1.64-.926.329-.331.329-.728 0-.462-.427-.694-.558-.298-2.263-.298-.886 0-1.181.033-.525 0-1.214.133l-.032-.827q1.77-.1 2.197-.1 1.575 0 2.428.298.721.265.951.629.295.396.295.793 0 .596-.458 1.158-.46.562-1.673 1.091.064.299.163 1.059.066.463.066 1.158 0 .562-.033.959l-.886.033q.1-1.191.1-1.985 0-.132-.067-.992M15.225 6v8h-.45V6Z"/>
    <path fill="red" d="M19 9.775v.45h-8v-.45z"/>
    <path fill="red" d="m15.16 9.84 2.828 2.83-.319.318-2.828-2.83Z"/>
    <path fill="red" d="m14.841 9.84.319.319-2.83 2.828-.317-.318Z"/>
</svg>
