<svg xmlns="http://www.w3.org/2000/svg" xmlns:xlink="http://www.w3.org/1999/xlink" width="30mm" height="30mm" viewBox="0 0 30 30">
    <defs>
        <linearGradient id="1_QUEENPROMOTED_svg__a">
            <stop offset="0" stop-color="#ffdba6"/>
            <stop offset="1" stop-color="#f2c478"/>
        </linearGradient>
        <linearGradient xlink:href="#1_QUEENPROMOTED_svg__a" id="1_QUEENPROMOTED_svg__b" x1="244.85" x2="244.85" y1="222.989" y2="140.991" gradientTransform="translate(-8050.393 -212.603)" gradientUnits="userSpaceOnUse"/>
    </defs>
    <path fill="url(#1_QUEENPROMOTED_svg__b)" d="m0 0-22.28 7.578c-.3.102-.625.102-.924 0L-45.484 0a1.42 1.42 0 0 1-.949-1.125l-10.308-66.12a1.422 1.422 0 0 1 1.411-1.636H9.846c.875 0 1.544.776 1.41 1.636L.948-1.125A1.42 1.42 0 0 1 0 0" transform="matrix(-.35278 0 0 .35278 6.977 25.8)"/>
    <path fill="#4d3608" d="M26.496 1.2c.486 0 .87.443.795.924l-3.637 23.325a.8.8 0 0 1-.534.635l-7.86 2.673a.8.8 0 0 1-.52 0l-7.86-2.673a.8.8 0 0 1-.534-.635L2.71 2.124a.808.808 0 0 1 .794-.923H15Zm0 .6H3.504a.196.196 0 0 0-.202.231L6.94 25.357a.2.2 0 0 0 .134.159l7.861 2.673a.2.2 0 0 0 .132 0l7.86-2.673a.2.2 0 0 0 .135-.159L26.697 2.03a.196.196 0 0 0-.2-.23"/>
    <path fill="red" d="m16.123 20 .033-.893h-2.348V20h-.794v-.893H11.36v-.662h1.654v-1.918h.794v1.918h2.447q.066-.33.265-.694.132-.298.397-.562.198-.199.529-.397.132-.066.297-.133.166-.066.43-.198.166.364.463.628-.76.298-1.091.563-.265.264-.463.793h1.587v.662h-1.72q0 .397-.032.893zm.959 1.157h-1.687v.96h-.76v-.96h-1.687q.397.331.76.761.265.33.563.76h1.29q.363-.528.661-.826.198-.132.397-.298.165-.132.463-.397m-1.918 2.15h-3.605v-.628h1.819q-.397-.496-.595-.662-.464-.33-.728-.463-.397-.231-.96-.397.298-.297.464-.694.562.198 1.29.628v-.595h1.786v-1.19h.76v1.19h1.852v.53q.43-.299 1.125-.662.33.463.529.694-.728.33-1.323.695-.33.231-1.025.926h2.083v.628H16.09q-.232.364-.496.96l-.761-.2q.132-.43.33-.76m.062-17.737v8.859h-.45V5.57Z"/>
    <path fill="red" d="m15.736 13.376.318.318L15 14.748l-1.053-1.054.318-.318.735.736ZM15 5.252l1.053 1.055-.318.318L15 5.89l-.735.735-.318-.318zm4.429 4.523v.45H10.57v-.45z"/>
    <path fill="red" d="M18.693 8.946 19.748 10l-1.055 1.053-.318-.318.736-.735-.736-.736Zm-7.387.001.318.318-.736.736.736.735-.318.318L10.251 10Zm.721-2.238 6.264 6.264-.318.318-6.264-6.264Z"/>
    <path fill="red" d="M18.357 11.867v1.49h-1.49v-.45h1.04v-1.04Zm-5.223-5.223v.45h-1.04v1.04h-.451v-1.49zm4.839.065.318.318-6.264 6.264-.318-.318z"/>
    <path fill="red" d="M18.356 6.643v1.49h-.45v-1.04h-1.04v-.45zm-6.264 5.223v1.04h1.041v.451h-1.49v-1.491Z"/>
</svg>
