<svg xmlns="http://www.w3.org/2000/svg" xmlns:xlink="http://www.w3.org/1999/xlink" width="30mm" height="30mm" viewBox="0 0 30 30">
    <defs>
        <linearGradient id="1_ROOKPROMOTED_svg__a">
            <stop offset="0" stop-color="#ffdba6"/>
            <stop offset="1" stop-color="#f2c478"/>
        </linearGradient>
        <linearGradient xlink:href="#1_ROOKPROMOTED_svg__a" id="1_ROOKPROMOTED_svg__b" x1="244.85" x2="244.85" y1="222.989" y2="140.991" gradientTransform="translate(-2381.103 -212.603)" gradientUnits="userSpaceOnUse"/>
    </defs>
    <path fill="url(#1_ROOKPROMOTED_svg__b)" d="m0 0-20.266 6.952a1.47 1.47 0 0 1-.952 0L-41.484 0a1.59 1.59 0 0 1-1.038-1.274l-9.381-60.689c-.151-.981.569-1.871 1.515-1.871H8.905c.945 0 1.666.89 1.514 1.871L1.038-1.274A1.59 1.59 0 0 1 0 0" transform="matrix(-.35278 0 0 .35278 7.683 25.02)"/>
    <path fill="#4d3608" d="M25.46 2.2c.521 0 .91.491.83 1.006l-3.309 21.41a.86.86 0 0 1-.566.688l-7.15 2.452a.82.82 0 0 1-.53 0l-7.149-2.452a.86.86 0 0 1-.566-.688L3.71 3.206c-.08-.514.31-1.005.831-1.005H15Zm0 .6H4.541c-.145 0-.265.137-.238.314l3.31 21.41a.26.26 0 0 0 .166.212l7.15 2.453a.2.2 0 0 0 .14 0l7.15-2.453a.27.27 0 0 0 .168-.212l3.309-21.41c.027-.177-.092-.313-.238-.313"/>
    <path fill="red" d="M15.225 5.32v8.358h-.45V5.32Z"/>
    <path fill="red" d="m15.685 12.676.318.318-1.004 1.003-1.003-1.003.318-.318.686.685ZM15 5.003l1.004 1.003-.318.318L15 5.64l-.685.684-.318-.318zm4.178 4.272v.45H10.82v-.45z"/>
    <path fill="red" d="M18.494 8.497 19.497 9.5l-1.003 1.004-.318-.318.684-.686-.684-.685Zm-6.988-.001.318.318-.685.686.685.685-.318.318-1.003-1.004Zm4.024 12.165v2.282h-.728v-2.282h-1.587q0-.826-.033-1.29l-.86.794-.53-.496.695-.595-.86-.33.33-.63q.067.034.43.166.331.166.662.298-.264-.629-.595-.992-.265-.265-.364-.265-.033 0-.1.066-.098.166-.198.562-.165-.132-.628-.396.165-.596.364-.761.198-.199.43-.199.364 0 .893.364.463.331.727.992.298.728.331 2.018h.893V16.56h.728v3.407h1.124q.066-1.025.166-1.39.165-.528.33-.826.397-.53.43-.595.066-.1.695-.629.33.463.529.629-.562.43-.794.727-.297.43-.43.827-.132.43-.198 1.257h1.29v.694h-1.29v1.059q.198-.066 1.124-.298.199.463.331.695-.695.099-1.091.198-.331.1-1.522.496l-.364-.595q.397-.165.761-.298v-1.257zm-1.654 2.48h4.597v.695h-5.291q.033-.297-.034-.992-.198.232-.43.463-.231.265-.463.496l-.529-.529.463-.397.397-.33q-.099-.033-.33-.133-.265-.066-.695-.198l.298-.595 1.157.43q-.264-.497-.661-.893-.232-.232-.397-.232-.033 0-.1.066l-.165.463q-.231-.231-.661-.397.264-.628.364-.727.165-.166.33-.166.364 0 .926.364.596.364.827.893.298.53.397 1.72"/>
</svg>
