<svg xmlns="http://www.w3.org/2000/svg" xmlns:xlink="http://www.w3.org/1999/xlink" width="30mm" height="30mm" viewBox="0 0 30 30">
    <defs>
        <linearGradient id="1_ROOK_svg__a">
            <stop offset="0" stop-color="#ffdba6"/>
            <stop offset="1" stop-color="#f2c478"/>
        </linearGradient>
        <linearGradient xlink:href="#1_ROOK_svg__a" id="1_ROOK_svg__b" x1="244.85" x2="244.85" y1="222.989" y2="140.991" gradientTransform="translate(-3514.96 -212.603)" gradientUnits="userSpaceOnUse"/>
    </defs>
    <path fill="url(#1_ROOK_svg__b)" d="m0 0-21.223 7.255a1.62 1.62 0 0 1-1.044 0L-43.49 0c-.512-.175-.879-.593-.956-1.088L-54.328-64.8c-.128-.823.569-1.559 1.477-1.559H9.361c.907 0 1.605.736 1.477 1.559L.955-1.088C.879-.593.512-.175 0 0" transform="matrix(-.35278 0 0 .35278 7.329 25.41)"/>
    <path fill="#4d3608" d="M25.974 1.7c.482 0 .892.415.817.896l-3.485 22.476a.8.8 0 0 1-.537.622l-7.488 2.56a.87.87 0 0 1-.562 0l-7.487-2.56a.79.79 0 0 1-.536-.622L3.209 2.596c-.075-.481.335-.896.818-.896H15Zm0 .6H4.027c-.158 0-.24.103-.225.203v.001l3.486 22.477c.009.056.054.116.138.145l7.487 2.56a.3.3 0 0 0 .174 0l7.487-2.56c.084-.028.13-.089.138-.146l3.486-22.476c.016-.1-.066-.204-.224-.204"/>
    <path d="M15.225 5.82v8.358h-.45V5.82Z"/>
    <path d="m15.685 13.176.318.318-1.004 1.003-1.003-1.003.318-.318.686.685ZM15 5.503l1.004 1.003-.318.318L15 6.14l-.685.684-.318-.318zm4.178 4.272v.45H10.82v-.45z"/>
    <path d="m18.494 8.996 1.003 1.003-1.003 1.004-.318-.318.684-.686-.684-.685Zm-6.988 0 .318.318-.685.686.685.685-.318.318-1.003-1.004Zm4.024 11.665v2.282h-.728v-2.282h-1.587q0-.827-.033-1.29l-.86.794-.53-.496.695-.595-.86-.331.33-.628q.067.033.43.165.332.165.662.298-.264-.629-.595-.993-.264-.264-.364-.264-.033 0-.099.066-.099.165-.198.562-.166-.132-.629-.397.166-.595.364-.76.199-.199.43-.199.364 0 .893.364.463.33.728.992.297.728.33 2.018h.893V16.56h.728v3.407h1.125q.066-1.026.165-1.39.165-.529.33-.826.398-.53.43-.595.067-.1.695-.629.33.463.53.629-.563.43-.794.727-.298.43-.43.827-.133.43-.199 1.257h1.29v.694h-1.29v1.059q.199-.067 1.125-.298.198.463.33.694-.694.1-1.091.199-.33.1-1.521.496l-.364-.595q.397-.166.76-.298v-1.257zm-1.654 2.48h4.597v.695h-5.292q.033-.297-.033-.992-.198.232-.43.463-.231.265-.463.496l-.529-.529.463-.397.397-.33q-.099-.034-.33-.133-.265-.066-.695-.198l.298-.596 1.157.43q-.264-.496-.661-.893-.232-.231-.397-.231-.033 0-.1.066l-.164.463q-.232-.232-.662-.397.265-.628.364-.727.165-.166.33-.166.364 0 .927.364.595.364.826.893.298.53.397 1.72z"/>
</svg>
