<svg xmlns="http://www.w3.org/2000/svg" xmlns:xlink="http://www.w3.org/1999/xlink" width="30mm" height="30mm" viewBox="0 0 30 30">
    <defs>
        <linearGradient id="1_SIDEMOVERPROMOTED_svg__a">
            <stop offset="0" stop-color="#ffdba6"/>
            <stop offset="1" stop-color="#f2c478"/>
        </linearGradient>
        <linearGradient xlink:href="#1_SIDEMOVERPROMOTED_svg__a" id="1_SIDEMOVERPROMOTED_svg__b" x1="244.85" x2="244.85" y1="222.989" y2="140.991" gradientTransform="translate(-5555.905 -212.603)" gradientUnits="userSpaceOnUse"/>
    </defs>
    <path fill="url(#1_SIDEMOVERPROMOTED_svg__b)" d="m0 0-20.266 6.952a1.47 1.47 0 0 1-.952 0L-41.484 0a1.59 1.59 0 0 1-1.038-1.274l-9.381-60.689c-.151-.981.569-1.871 1.515-1.871H8.905c.945 0 1.666.89 1.514 1.871L1.038-1.274A1.59 1.59 0 0 1 0 0" transform="matrix(-.35278 0 0 .35278 7.683 25.02)"/>
    <path fill="#4d3608" d="M25.46 2.2c.521 0 .91.491.83 1.006l-3.309 21.41a.86.86 0 0 1-.566.688l-7.15 2.452a.82.82 0 0 1-.53 0l-7.149-2.452a.86.86 0 0 1-.566-.688L3.71 3.206c-.08-.514.31-1.005.831-1.005H15Zm0 .6H4.541c-.145 0-.265.137-.238.314l3.31 21.41a.26.26 0 0 0 .166.212l7.15 2.453a.2.2 0 0 0 .14 0l7.15-2.453a.27.27 0 0 0 .168-.212l3.309-21.41c.027-.177-.092-.313-.238-.313"/>
    <path fill="red" d="M14.14 18.545v.628h.992v-.628zm-1.687 0v.628h.992v-.628zm0 1.157v.53h.992v-.53zm1.687 0v.53h.992v-.53zm-.827 2.282v.629h1.091v-.629zm1.819 1.29v.893h-.728v-.893h-1.091v.893h-.695v-.893h-.959v-.661h.96v-.629h-1.357v-.661h2.183v-.463h-1.753v-2.91h.96q-.1-.067-.728-.464-.066-.033-.76-.33.33-.331.462-.629.562.199 1.025.53.232.099.695.496l-.364.396h1.654l-.364-.463q.562-.396.86-.562.297-.165.926-.397.33.463.463.596-.595.231-.827.33-.364.232-.76.496h.86v2.91H14.14v.464h1.984v.661h-.992v.629h.86v.661zm2.58-.76v1.653h-.728v-1.653h-.728v-.662h.728v-.728q-.463-.43-.893-.793.132-.199.231-.331.067-.1.1-.165.032-.067.098-.133.331.331.464.496v-3.737h.727v3.506q.232-.53.794-1.521.231.463.463.793-.794 1.092-1.224 2.613h.992v.662zM15.225 7.5v4h-.45v-4Z"/>
    <path fill="red" d="M18.928 9.275v.45H11.07v-.45z"/>
    <path fill="red" d="m18.295 8.55.954.95-.955.949-.316-.32.633-.63-.634-.63Zm-6.589 0 .318.32-.634.63.634.63-.317.319-.955-.95z"/>
</svg>
