<svg xmlns="http://www.w3.org/2000/svg" xmlns:xlink="http://www.w3.org/1999/xlink" width="30mm" height="30mm" viewBox="0 0 30 30">
    <defs>
        <linearGradient id="1_SIDEMOVER_svg__a">
            <stop offset="0" stop-color="#ffdba6"/>
            <stop offset="1" stop-color="#f2c478"/>
        </linearGradient>
        <linearGradient xlink:href="#1_SIDEMOVER_svg__a" id="1_SIDEMOVER_svg__b" x1="244.85" x2="244.85" y1="222.989" y2="140.991" gradientTransform="translate(-5782.677 -212.603)" gradientUnits="userSpaceOnUse"/>
    </defs>
    <path fill="url(#1_SIDEMOVER_svg__b)" d="m0 0-21.223 7.255a1.62 1.62 0 0 1-1.044 0L-43.49 0c-.512-.175-.879-.593-.956-1.088L-54.328-64.8c-.128-.823.569-1.559 1.477-1.559H9.361c.908 0 1.605.736 1.477 1.559L.956-1.088C.879-.593.512-.175 0 0" transform="matrix(-.35278 0 0 .35278 7.329 25.41)"/>
    <path fill="#4d3608" d="M25.974 1.7c.482 0 .892.415.817.896l-3.485 22.476a.8.8 0 0 1-.537.622l-7.488 2.56a.87.87 0 0 1-.562 0l-7.487-2.56a.8.8 0 0 1-.537-.622L3.21 2.596c-.076-.48.334-.896.817-.896H15Zm0 .6H4.027c-.159 0-.24.103-.225.203v.001L7.288 24.98c.01.057.054.117.138.146l7.487 2.56a.3.3 0 0 0 .174 0l7.487-2.56c.084-.028.13-.089.138-.146l3.486-22.476c.016-.1-.066-.204-.224-.204"/>
    <path d="M14.139 18.545v.628h.992v-.628zm-1.687 0v.628h.992v-.628zm0 1.157v.53h.992v-.53zm1.687 0v.53h.992v-.53zm-.827 2.282v.629h1.091v-.629zm1.82 1.29v.893h-.729v-.893h-1.09v.893h-.695v-.893h-.96v-.661h.96v-.629h-1.356v-.661h2.182v-.463h-1.753v-2.91h.96q-.1-.067-.728-.464-.066-.033-.76-.33.33-.331.462-.629.563.199 1.026.53.231.099.694.496l-.364.396h1.654l-.364-.463q.562-.396.86-.562.298-.165.926-.397.33.463.463.596-.595.231-.827.33-.363.232-.76.496h.86v2.91h-1.654v.464h1.984v.661h-.992v.629h.86v.661zm2.579-.76v1.653h-.728v-1.653h-.727v-.662h.727v-.728q-.463-.43-.893-.793.132-.199.232-.331.066-.1.099-.165.033-.067.099-.133.33.331.463.496v-3.737h.727v3.506q.232-.53.794-1.521.232.463.463.793-.794 1.092-1.224 2.613h.993v.662zM15.224 7.745v4.509h-.45V7.745Z"/>
    <path d="M19.428 9.775v.45H10.57v-.45z"/>
    <path d="M18.692 8.95 19.747 10l-1.055 1.05-.318-.319.735-.73-.735-.732Zm-7.387 0 .318.319-.735.73.735.732-.317.318-1.055-1.05z"/>
</svg>
