<svg xmlns="http://www.w3.org/2000/svg" xmlns:xlink="http://www.w3.org/1999/xlink" width="30mm" height="30mm" viewBox="0 0 30 30">
    <defs>
        <linearGradient id="1_STAG_svg__a">
            <stop offset="0" stop-color="#ffdba6"/>
            <stop offset="1" stop-color="#f2c478"/>
        </linearGradient>
        <linearGradient xlink:href="#1_STAG_svg__a" id="1_STAG_svg__b" x1="244.85" x2="244.85" y1="222.989" y2="140.991" gradientTransform="translate(-6916.535 -212.603)" gradientUnits="userSpaceOnUse"/>
    </defs>
    <path fill="url(#1_STAG_svg__b)" d="m0 0-19.243 6.562a1.66 1.66 0 0 1-1.059 0L-39.545 0c-.531-.181-.912-.618-.993-1.139l-8.982-57.757c-.134-.863.585-1.636 1.523-1.636H8.452c.938 0 1.657.773 1.523 1.636L.993-1.139C.912-.618.531-.181 0 0" transform="matrix(-.35278 0 0 .35278 8.025 24.504)"/>
    <path fill="#4d3608" d="M24.957 2.85c.496 0 .91.43.834.923l-3.168 20.375a.82.82 0 0 1-.55.64l-6.79 2.315a.9.9 0 0 1-.565 0h-.001l-6.789-2.315a.82.82 0 0 1-.55-.64L4.21 3.774c-.077-.492.338-.924.834-.924H15Zm0 .6H5.044c-.166 0-.26.113-.241.23L7.97 24.056a.21.21 0 0 0 .15.164l-.096.284.097-.284 6.788 2.314a.3.3 0 0 0 .18 0l6.789-2.314c.09-.03.14-.096.15-.164L25.2 3.68c.017-.117-.076-.23-.242-.23"/>
    <path fill="red" d="M16.686 17.02v2.314h-.728v-.694h-1.422v-.628h1.422v-.893q-.298.066-.794.132t-.694.099v-.694l2.447-.397q.198-.033.364-.067.165-.066.33-.099l.1.827zm-2.514-.265v2.58h-.728v-.894q-.529.232-1.52.695l-.464-.595q1.488-.596 1.984-.728v-.959q-.033-.033-.066-.033h-.661q-.662 0-.695.033-.066.033-.231.628-.298-.198-.695-.297.166-.662.397-.86.232-.199.76-.199h1.026q.496 0 .628.133.265.198.265.496m0 3.34v.827h1.29v-.827zm-1.687 0v.827h.992v-.827zm3.671 0v.827h1.257v-.827zm-1.984 1.39v.826h1.29v-.827zm1.984 0v.826h1.257v-.827zm-1.025 1.487v.662h-.827v-.662h-3.01v-.661h2.184v-.827h-1.787v-2.017h5.755q.033-.893.166-1.489.066-.43.264-.926.066-.132.463-.893l.199.298.397.265q-.53.992-.629 1.918-.099.86-.099 4.332zm.094-16.893v7.842h-.45V6.08Z"/>
    <path fill="red" d="m15.635 12.97.318.318-.953.95-.953-.95.318-.318.635.634ZM15 5.76l.953.95-.319.32L15 6.394l-.635.634-.318-.318Zm2.5 4.015v.45h-5v-.45z"/>
    <path fill="red" d="m16.609 8.073.318.318-3.535 3.536-.319-.319Z"/>
    <path fill="red" d="m13.391 8.073 3.536 3.535-.319.319-3.535-3.536Z"/>
</svg>
