<svg xmlns="http://www.w3.org/2000/svg" xmlns:xlink="http://www.w3.org/1999/xlink" width="30mm" height="30mm" viewBox="0 0 30 30">
    <defs>
        <linearGradient id="1_TAMA_svg__a">
            <stop offset="0" stop-color="#ffdba6"/>
            <stop offset="1" stop-color="#f2c478"/>
        </linearGradient>
        <linearGradient xlink:href="#1_TAMA_svg__a" id="1_TAMA_svg__b" x1="244.85" x2="244.85" y1="222.989" y2="140.991" gradientTransform="translate(-4472.11 -212.603)" gradientUnits="userSpaceOnUse"/>
    </defs>
    <path fill="url(#1_TAMA_svg__b)" d="m0 0-22.28 7.578c-.3.102-.625.102-.924 0L-45.484 0a1.42 1.42 0 0 1-.949-1.125l-10.308-66.12a1.422 1.422 0 0 1 1.411-1.636H9.846a1.42 1.42 0 0 1 1.41 1.636L.948-1.125A1.42 1.42 0 0 1 0 0" transform="matrix(-.36746 0 0 .36586 6.643 26.2)"/>
    <path fill="#4d3608" d="M26.975.7c.5 0 .892.452.815.943l-3.787 24.192a.823.827 90 0 1-.55.649l-8.186 2.772a.83.83 0 0 1-.533 0h-.001l-8.187-2.772a.823.827 90 0 1-.548-.65L2.21 1.644A.827.827 0 0 1 3.025.7H15Zm0 .599H3.025a.215.215 0 0 0-.22.252l3.787 24.192a.22.22 90 0 0 .148.173l8.186 2.773a.22.22 90 0 0 .146 0l8.188-2.773a.22.22 90 0 0 .148-.173l3.788-24.191a.214.215 90 0 0-.221-.254"/>
    <path d="m12.14 19.396.595-.529q.727.926 1.058 1.224l-.562.463q-.43-.43-1.092-1.158m5.985 4.101v.728h-6.316v-.728h2.844v-1.918h-2.547v-.728h2.547v-2.348h-3.307v-.793h7.309v.793h-3.208v2.348h2.282v.728h-2.282v1.918zM15.225 4.5v9h-.45v-9Z"/>
    <path d="M19.5 8.775v.45h-9v-.45z"/>
    <path d="m11.977 5.659 6.364 6.364-.318.318-6.364-6.364Z"/>
    <path d="m18.023 5.66.318.317-6.364 6.364-.318-.318z"/>
</svg>
