<svg xmlns="http://www.w3.org/2000/svg" xmlns:xlink="http://www.w3.org/1999/xlink" width="30mm" height="30mm" viewBox="0 0 30 30">
    <defs>
        <linearGradient id="1_TIGER_svg__a">
            <stop offset="0" stop-color="#ffdba6"/>
            <stop offset="1" stop-color="#f2c478"/>
        </linearGradient>
        <linearGradient xlink:href="#1_TIGER_svg__a" id="1_TIGER_svg__b" x1="244.85" x2="244.85" y1="222.989" y2="140.991" gradientTransform="translate(-6689.763 -212.603)" gradientUnits="userSpaceOnUse"/>
    </defs>
    <path fill="url(#1_TIGER_svg__b)" d="m0 0-19.243 6.562a1.66 1.66 0 0 1-1.059 0L-39.545 0c-.531-.181-.912-.618-.993-1.139l-8.982-57.757c-.134-.863.585-1.636 1.523-1.636H8.452c.938 0 1.657.773 1.523 1.636L.993-1.139C.912-.618.531-.181 0 0" transform="matrix(-.35278 0 0 .35278 8.025 24.504)"/>
    <path fill="#4d3608" d="M24.957 2.85c.496 0 .91.43.834.923l-3.168 20.375a.82.82 0 0 1-.55.64l-6.79 2.315a.9.9 0 0 1-.565 0h-.001l-6.789-2.315a.82.82 0 0 1-.55-.64L4.21 3.774c-.077-.492.338-.924.834-.924H15Zm0 .6H5.044c-.166 0-.26.113-.241.23L7.97 24.056a.21.21 0 0 0 .15.164l-.096.284.097-.284 6.788 2.314a.3.3 0 0 0 .18 0l6.789-2.314c.09-.03.14-.096.15-.164L25.2 3.68c.017-.117-.076-.23-.242-.23"/>
    <path d="M14.306 16.821v2.183h-.76v-1.885q0-.132-.1-.199-.066-.066-.298-.066h-.628q-.33 0-.364.1-.132.132-.231.66-.463-.198-.794-.23.132-.53.33-.86.166-.232.298-.265.133-.1.563-.1h.926q.595 0 .76.133.298.198.298.53zm3.043-.76.198.297.33.33q-.694.232-1.058.497-.33.265-.496.661-.165.397-.198 1.191h-.76q.065-.893.131-1.224.166-.463.364-.76.166-.232.629-.563.066-.066.86-.43m-1.919 6.085v1.521h-.76v-.496h-2.15v-.661h2.15v-.364h-3.175v-1.488h.793v.826h2.547v-.529l-2.315.1-.033-.596 2.348-.132v-.298q0-.066-.033-.099l-.066-.066q-.033-.033-.33-.033h-.894q-.33 0-.397.066-.132.066-.231.463-.232-.198-.364-.232-.033 0-.132-.066-.132-.033-.232-.066.232-.496.397-.595.132-.1.364-.1h1.72q.496 0 .694.067.232.132.232.463v.463l1.554-.1.033.629-1.587.066v.595h1.918q0-2.083.033-2.447.066-.794.132-1.124.033-.331.265-.893l.43-.926q.43.43.628.595-.364.694-.529 1.389-.099.496-.165 1.951v2.117zM15.225 6.5V10h-.45V6.5Z"/>
    <path d="M18.5 9.775v.45h-7v-.45z"/>
    <path d="m12.684 7.366 4.95 4.95-.318.318-4.95-4.95Z"/>
    <path d="m17.316 7.366.318.318-4.95 4.95-.318-.318z"/>
</svg>
