<svg xmlns="http://www.w3.org/2000/svg" xmlns:xlink="http://www.w3.org/1999/xlink" width="30mm" height="30mm" viewBox="0 0 30 30">
    <defs>
        <linearGradient id="1_VERTICALMOVER_svg__a">
            <stop offset="0" stop-color="#ffdba6"/>
            <stop offset="1" stop-color="#f2c478"/>
        </linearGradient>
        <linearGradient xlink:href="#1_VERTICALMOVER_svg__a" id="1_VERTICALMOVER_svg__b" x1="244.85" x2="244.85" y1="222.989" y2="140.991" gradientTransform="translate(-1700.788 -212.603)" gradientUnits="userSpaceOnUse"/>
    </defs>
    <path fill="url(#1_VERTICALMOVER_svg__b)" d="m0 0-21.223 7.255a1.62 1.62 0 0 1-1.044 0L-43.49 0c-.512-.175-.879-.593-.956-1.088L-54.328-64.8c-.128-.823.569-1.559 1.477-1.559H9.361c.907 0 1.605.736 1.477 1.559L.955-1.088C.879-.593.512-.175 0 0" transform="matrix(-.35278 0 0 .35278 7.329 25.41)"/>
    <path fill="#4d3608" d="M25.974 1.7c.482 0 .892.415.817.896l-3.485 22.476a.8.8 0 0 1-.537.622l-7.488 2.56a.87.87 0 0 1-.562 0l-7.487-2.56a.79.79 0 0 1-.536-.622L3.209 2.596c-.075-.481.335-.896.818-.896H15Zm0 .6H4.027c-.158 0-.24.103-.225.203v.001l3.486 22.477c.009.056.054.116.138.145l7.487 2.56a.3.3 0 0 0 .174 0l7.487-2.56c.084-.028.13-.089.138-.146l3.486-22.476c.016-.1-.066-.204-.224-.204"/>
    <path d="M13.643 18.578h2.58q-.166-.33-.397-1.092H14.04q-.066.166-.397 1.092m1.786.661v.496h-.827v-.496h-2.745v-.661h.992l.397-1.092h-1.984v-.661h7.507v.661h-2.183q.033.265.199.563.132.33.231.529h1.125v.661zm1.62 1.224v.562h.728v-.562zm-1.256 1.091v.596h1.984v-.596zm1.256 1.092v.595h.728v-.595zm1.456-2.878v4.102h-3.473v-.629h1.323v-.595h-1.257v-1.62h1.257v-.563h-1.356v-.53h2.778v-.165zm-5.49 2.183q-.464.496-.794 1.224h1.323q-.133-.43-.298-.827 0-.033-.232-.397m1.818 1.919h-2.91l-.066.066-.595-.463q.066-.133.264-.563.364-.793.992-1.554-.694-.661-1.323-.926.1-.1.166-.198l.132-.133q.132-.198.199-.364.562.298 1.356 1.092.297-.298.661-.562.33-.199.728-.397.264.43.496.661-.926.496-1.422.893.529.695.727 1.753h.595zm.392-18.3v8.859h-.45V5.57Z"/>
    <path d="m15.735 13.375.318.318-1.054 1.054-1.055-1.054.318-.318.737.736Zm-.737-8.123 1.055 1.055-.318.318-.737-.735-.736.735-.318-.318Zm2.255 4.523v.45h-4.509v-.45z"/>
</svg>
