<svg xmlns="http://www.w3.org/2000/svg" xmlns:xlink="http://www.w3.org/1999/xlink" width="30mm" height="30mm" viewBox="0 0 30 30">
    <defs>
        <linearGradient id="1_WHITEHORSE_svg__a">
            <stop offset="0" stop-color="#ffdba6"/>
            <stop offset="1" stop-color="#f2c478"/>
        </linearGradient>
        <linearGradient xlink:href="#1_WHITEHORSE_svg__a" id="1_WHITEHORSE_svg__b" x1="244.85" x2="244.85" y1="222.989" y2="140.991" gradientTransform="translate(-1020.473 -212.603)" gradientUnits="userSpaceOnUse"/>
    </defs>
    <path fill="url(#1_WHITEHORSE_svg__b)" d="m0 0-18.208 6.244c-.37.127-.78.127-1.15 0L-37.566 0c-.538-.184-.92-.612-.998-1.116l-8.551-55.301c-.13-.841.611-1.59 1.573-1.59H7.976c.962 0 1.703.749 1.573 1.59L.998-1.116C.92-.612.538-.184 0 0" transform="matrix(-.35278 0 0 .35278 8.374 24.113)"/>
    <path fill="#4d3608" d="M24.44 3.35c.496 0 .928.413.852.906l-3.017 19.509a.81.81 0 0 1-.551.632L15.3 26.6a.92.92 0 0 1-.6 0l-6.424-2.203a.81.81 0 0 1-.551-.632L4.709 4.256c-.076-.493.356-.907.85-.907H15Zm0 .6H5.56c-.184 0-.274.115-.258.214l3.016 19.51c.01.056.057.123.153.155l6.424 2.203a.34.34 0 0 0 .21 0l6.425-2.203c.096-.033.143-.099.152-.156l3.017-19.508c.015-.1-.075-.215-.258-.215"/>
    <path fill="red" d="m18.075 18.375-.298.033q-.1-.396-.165-1.223l.364-.066q.066 1.025.099 1.256m.562.033-.364-.033q.033-.562.265-1.521l.397.165q-.265.86-.298 1.39m-1.72-1.025.364-.066q.1.728.232 1.091l-.298.034q-.132-.232-.298-1.059m-3.274 1.092v1.52h.695v-1.52zm1.389-1.092v3.241h-2.05v-3.01h.661v.265h.695v-.496zm2.183 2.084v.76h.595v-.76zm0 1.323v.595h.595v-.595zm0 1.19v.662h.595v-.662zm1.29-3.307v4.597h-2.91v-.628h.991v-.662h-.793v-.595h.793v-.595h-.793v-.563h.793v-.76h-1.124q.033-1.62.231-2.613.067-.43.298-.562.232-.199 1.092-.298.033.265.231.728h-.628q-.232 0-.298.066t-.1.827l.265-.066q.232.463.497.959l-.298.165q-.265-.463-.463-.86l-.1 1.058h1.621v-.198zm-5.259-2.646q.066.397.199.728h-.563q-.33 0-.397.066-.066.1-.099.43-.099 1.389-.132 4.233h2.381q.232-.297.794-.992.298.397.496.53-.661.826-.794 1.058-.43.76-.727 1.554l-.761-.265q.33-.793.595-1.223h-2.745l.033-2.415q.033-2.282.199-2.877.066-.397.297-.53.232-.198 1.224-.297m1.979-8.474v6.892h-.45V7.554Z"/>
    <path fill="red" d="m15.534 13.591.318.318-.852.856-.852-.857.319-.316.533.536ZM15 7.235l.852.857-.319.316L15 7.872l-.534.537-.318-.317zm.16 3.606 2.424 2.437-.318.317-2.425-2.436Z"/>
    <path fill="red" d="M17.65 12.452v1.21h-1.205v-.45h.754v-.76Zm-2.81-1.61.32.317-2.426 2.436-.318-.316z"/>
    <path fill="red" d="M12.8 12.452v.76h.755v.45h-1.204v-1.21Z"/>
</svg>
