<svg xmlns="http://www.w3.org/2000/svg" xmlns:xlink="http://www.w3.org/1999/xlink" width="30mm" height="30mm" viewBox="0 0 30 30">
    <defs>
        <linearGradient id="1_WHALE_svg__a">
            <stop offset="0" stop-color="#ffdba6"/>
            <stop offset="1" stop-color="#f2c478"/>
        </linearGradient>
        <linearGradient xlink:href="#1_WHALE_svg__a" id="1_WHALE_svg__b" x1="244.85" x2="244.85" y1="222.989" y2="140.991" gradientTransform="translate(-6462.992 -212.603)" gradientUnits="userSpaceOnUse"/>
    </defs>
    <path fill="url(#1_WHALE_svg__b)" d="m0 0-18.208 6.244c-.37.127-.78.127-1.15 0L-37.566 0c-.538-.184-.92-.612-.998-1.116l-8.551-55.301c-.13-.841.611-1.59 1.573-1.59H7.976c.962 0 1.703.749 1.573 1.59L.998-1.116C.92-.612.538-.184 0 0" transform="matrix(-.35278 0 0 .35278 8.374 24.113)"/>
    <path fill="#4d3608" d="M24.44 3.35c.496 0 .928.413.852.906l-3.017 19.509a.81.81 0 0 1-.551.632L15.3 26.6a.92.92 0 0 1-.6 0l-6.424-2.203a.81.81 0 0 1-.551-.632L4.709 4.256c-.076-.493.356-.907.85-.907H15Zm0 .6H5.56c-.184 0-.274.115-.258.214l3.016 19.51c.01.056.057.123.153.155l6.424 2.203a.34.34 0 0 0 .21 0l6.425-2.203c.096-.033.143-.099.152-.156l3.017-19.508c.015-.1-.075-.215-.258-.215"/>
    <path fill="red" d="m17.645 16.325.165 1.19-.53.067q-.165-.53-.198-1.191zm.959 1.323-.629-.1q.1-.463.364-1.422l.595.166q-.198.628-.33 1.356m-1.555-.066-.496.066q-.231-.496-.33-1.059l.529-.132q.099.463.297 1.125m-5.887-.596q.199-.099.364-.198.165-.1.298-.199.694 1.092.926 1.753l-.662.298q-.33-.662-.926-1.654m3.837-.43q.066.033.165.133.1.099.199.132l.43-.199q.198.497.496 1.092l-.496.165-.331-.661q-.33.529-.397.727-.165.397-.265.728l-.694-.265q.132-.496.364-.959t.529-.893m-2.58 3.11v1.057h1.951v-1.058zm2.646-.662v2.348h-3.374v-2.348h1.356v-2.183q0-.397.166-.562.231-.199 1.058-.232.1.496.232.695h-.629q-.033 0-.099.066-.033.033-.033.099v2.117zm-1.257 3.67v.927h-.76v-.926h-1.753v-.662h4.167v.662zm3.539-3.968v.86h.496v-.86zm-1.058 0v.86h.529v-.86zm1.058 1.488v.728h.496v-.728zm-1.058 0v.728h.529v-.728zm.992 1.323-.562.76h.893q.529-.694.595-.76zm-.033 1.356h-1.092l-.099.033-.363-.496q.132-.132.727-.893h-.76v-3.406h2.81v3.075l.298-.297q.034.264.265.827-.364.363-.827.959-.198.297-.595 1.124l-.695-.364q.066-.099.166-.264.066-.166.165-.298M15.225 6.554v6.892h-.45V6.554Z"/>
    <path fill="red" d="m15.534 12.591.318.318-.852.856-.852-.857.319-.316.533.536ZM15 6.235l.852.857-.319.316L15 6.872l-.534.537-.318-.317zm-2.266 1.17 2.425 2.437-.318.317-2.425-2.436Z"/>
    <path fill="red" d="M13.555 7.338v.45H12.8v.76h-.452v-1.21zm3.711.067.318.317-2.425 2.436-.318-.316z"/>
    <path fill="red" d="M17.65 7.339v1.21h-.45v-.76h-.755v-.45z"/>
</svg>
