<svg xmlns="http://www.w3.org/2000/svg" width="100" height="100">
    <path fill="#fff" stroke="#000" stroke-linecap="round" stroke-linejoin="round" stroke-width="3" d="M4.78 80.262a14.393 14.393 0 1 0 28.788 0 14.393 14.393 0 1 0-28.787 0M66.22 18.821a14.393 14.393 0 1 0 28.788 0 14.393 14.393 0 1 0-28.787 0"/>
    <path fill="#fff" stroke="#000" stroke-linecap="round" stroke-width="2.869" d="M70.321 8.948 7.607 71.662 27.774 91.83l62.714-62.714z"/>
    <path fill="#fff" stroke="#000" stroke-linecap="round" stroke-linejoin="round" stroke-width="3" d="M95.326 80.508a14.393 14.393 0 1 1-28.787 0 14.393 14.393 0 1 1 28.787 0M33.885 19.067a14.393 14.393 0 1 1-28.787 0 14.393 14.393 0 1 1 28.787 0"/>
    <path fill="#fff" stroke="#000" stroke-linecap="round" stroke-width="2.869" d="M29.786 9.195 92.5 71.91 72.333 92.077 9.619 29.363z"/>
    <path fill="#fff" stroke="#fff" stroke-linecap="round" stroke-width="3.018" d="M35.174 18.752 82.502 66.08l-16.08 16.079L19.096 34.83z"/>
    <path fill="#fff" stroke="#fff" stroke-linecap="round" stroke-width="3.185" d="M92.49 80.525a11.294 11.294 0 1 1-22.586 0 11.294 11.294 0 1 1 22.586 0zM30.47 18.802a11.294 11.294 0 1 1-22.587 0 11.294 11.294 0 1 1 22.586 0z"/>
    <path fill="none" stroke="#000" stroke-linecap="round" stroke-width="3" d="m17.658 17.658 18.074 18.074m29.595 29.172 18.074 18.074"/>
    <path fill="#fff" stroke="#fff" stroke-linecap="round" stroke-width="3.018" d="m35.025 80.575 47.327-47.328L66.273 17.17 18.946 64.496z"/>
    <path fill="#fff" stroke="#fff" stroke-linecap="round" stroke-width="3.185" d="M92.341 18.802c0-6.236-5.056-11.293-11.293-11.293s-11.293 5.057-11.293 11.293c0 6.237 5.056 11.294 11.293 11.294S92.34 25.039 92.34 18.802zM30.32 80.524c0-6.236-5.057-11.293-11.294-11.293S7.733 74.288 7.733 80.524c0 6.237 5.056 11.294 11.293 11.294s11.293-5.057 11.293-11.294z"/>
    <path fill="none" stroke="#000" stroke-linecap="round" stroke-width="3" d="M82.45 17.412 64.374 35.486M34.78 64.657 16.706 82.731"/>
</svg>
