<svg xmlns="http://www.w3.org/2000/svg" width="100" height="100">
    <path stroke="#000" stroke-linecap="round" stroke-linejoin="round" stroke-width="3" d="M95.326 80.508a14.393 14.393 0 1 1-28.787 0 14.393 14.393 0 1 1 28.787 0M33.885 19.067a14.393 14.393 0 1 1-28.787 0 14.393 14.393 0 1 1 28.787 0"/>
    <path stroke="#000" stroke-linecap="round" stroke-width="2.869" d="M29.786 9.195 92.5 71.91 72.333 92.077 9.619 29.363z"/>
    <path fill="none" stroke="#fff" stroke-linecap="round" stroke-width="3" d="m17.658 17.658 18.074 18.074m29.595 29.172 18.074 18.074"/>
    <path stroke="#000" stroke-linecap="round" stroke-linejoin="round" stroke-width="3" d="M4.78 80.262a14.393 14.393 0 1 0 28.788 0 14.393 14.393 0 1 0-28.787 0M66.22 18.821a14.393 14.393 0 1 0 28.788 0 14.393 14.393 0 1 0-28.787 0"/>
    <path stroke="#000" stroke-linecap="round" stroke-width="2.869" d="M70.321 8.948 7.607 71.662 27.774 91.83l62.714-62.714z"/>
    <path fill="none" stroke="#fff" stroke-linecap="round" stroke-width="3" d="M82.45 17.412 64.374 35.486M34.78 64.657 16.706 82.731"/>
</svg>
