<svg xmlns="http://www.w3.org/2000/svg" width="100" height="100">
    <path stroke="#000" stroke-linecap="round" stroke-width="2.876" d="M19.293 35.485h60.734v28.729H19.293z"/>
    <path stroke="#000" stroke-linecap="round" stroke-linejoin="round" stroke-width="3" d="M33.343 50c0-7.95-6.444-14.394-14.393-14.394S4.557 42.05 4.557 50c0 7.948 6.443 14.392 14.393 14.392 7.948 0 14.393-6.444 14.393-14.392m61.422-.3c0-7.95-6.444-14.394-14.393-14.394S65.978 41.75 65.978 49.7c0 7.948 6.444 14.392 14.394 14.392 7.948 0 14.393-6.444 14.393-14.392m.281-30.765c0-7.95-6.444-14.394-14.393-14.394s-14.394 6.444-14.394 14.394c0 7.948 6.444 14.392 14.394 14.392 7.948 0 14.393-6.444 14.393-14.392M33.605 80.376c0-7.95-6.444-14.394-14.393-14.394S4.819 72.426 4.819 80.376c0 7.948 6.443 14.392 14.393 14.392 7.948 0 14.393-6.444 14.393-14.392"/>
    <path stroke="#000" stroke-linecap="round" stroke-width="2.869" d="M29.506 90.248 92.22 27.534 72.052 7.367 9.338 70.08z"/>
    <path stroke="#000" stroke-linecap="round" stroke-linejoin="round" stroke-width="3" d="M4.5 18.689c0-7.95 6.445-14.394 14.394-14.394S33.287 10.74 33.287 18.69c0 7.948-6.443 14.392-14.393 14.392-7.948 0-14.393-6.444-14.393-14.392M65.94 80.129c0-7.95 6.445-14.394 14.394-14.394S94.728 72.18 94.728 80.13c0 7.948-6.444 14.392-14.394 14.392-7.948 0-14.393-6.444-14.393-14.392"/>
    <path stroke="#000" stroke-linecap="round" stroke-width="2.869" d="M70.042 90.002 7.328 27.288 27.495 7.12 90.21 69.834z"/>
    <path stroke="#fff" stroke-linecap="round" stroke-width="3" d="M16.253 49.999h19.476m27.115-.3H82.32m-.15 31.839L64.096 63.466M34.501 34.293 16.426 16.219m.953 65.566 18.074-18.074m29.595-29.172 18.074-18.074"/>
</svg>
