<svg xmlns="http://www.w3.org/2000/svg" width="100" height="100">
    <path stroke="#000" stroke-linecap="round" stroke-width="3" d="M19.19 18.065h62.321v62.321H19.19z"/>
    <path stroke="#000" stroke-linecap="round" stroke-width="2.89" d="M64.765 19.062v60.72H35.75v-60.72z"/>
    <path stroke="#000" stroke-linecap="round" stroke-linejoin="round" stroke-width="3" d="M35.74 19.237a14.393 14.393 0 1 0 28.787 0 14.393 14.393 0 1 0-28.787 0m0 61.423a14.393 14.393 0 1 0 28.787 0 14.393 14.393 0 1 0-28.787 0"/>
    <path stroke="#000" stroke-linecap="round" stroke-width="2.876" d="M80.651 63.714H19.917V34.985h60.734z"/>
    <path stroke="#000" stroke-linecap="round" stroke-linejoin="round" stroke-width="3" d="M66.6 49.2a14.393 14.393 0 1 0 28.788 0 14.393 14.393 0 1 0-28.787 0m-61.422.3a14.393 14.393 0 1 0 28.787 0 14.393 14.393 0 1 0-28.787 0"/>
    <path stroke="#fff" stroke-linecap="round" stroke-width="3" d="M83.691 49.2H64.216m-27.116.3H17.625m32.209-12.735V17.29m0 65.317V63.132"/>
    <path fill="#fff" stroke="#fff" stroke-linecap="round" stroke-width="3" d="M53.931 49.813a4.345 4.345 0 1 1-8.689 0 4.345 4.345 0 1 1 8.69 0z"/>
</svg>
