<svg xmlns="http://www.w3.org/2000/svg" width="100" height="100">
    <path fill="#fff" stroke="#000" stroke-linecap="round" stroke-width="2.89" d="M64.368 18.927v60.72H35.353v-60.72z"/>
    <path fill="#fff" stroke="#000" stroke-linecap="round" stroke-linejoin="round" stroke-width="3" d="M35.343 19.101a14.393 14.393 0 1 0 28.787 0 14.393 14.393 0 1 0-28.787 0m0 61.423a14.393 14.393 0 1 0 28.787 0 14.393 14.393 0 1 0-28.787 0"/>
    <path fill="#fff" stroke="#000" stroke-linecap="round" stroke-width="2.876" d="M80.254 63.579H19.52V34.85h60.734z"/>
    <path fill="#fff" stroke="#000" stroke-linecap="round" stroke-linejoin="round" stroke-width="3" d="M66.204 49.064a14.393 14.393 0 1 0 28.787 0 14.393 14.393 0 1 0-28.787 0m-61.422.299a14.393 14.393 0 1 0 28.787 0 14.393 14.393 0 1 0-28.787 0M4.5 80.13a14.393 14.393 0 1 0 28.788 0 14.393 14.393 0 1 0-28.787 0"/>
    <path fill="#fff" stroke="#000" stroke-linecap="round" stroke-width="2.869" d="M70.041 8.816 7.327 71.53l20.167 20.167 62.714-62.714z"/>
    <path fill="#fff" stroke="#000" stroke-linecap="round" stroke-linejoin="round" stroke-width="3" d="M95.046 80.374a14.393 14.393 0 1 1-28.787 0 14.393 14.393 0 1 1 28.787 0"/>
    <path fill="#fff" stroke="#000" stroke-linecap="round" stroke-width="2.869" d="M29.507 9.062 92.22 71.776 72.053 91.943 9.34 29.229z"/>
    <path fill="#fff" stroke="#fff" stroke-linecap="round" stroke-width="3.018" d="m34.895 18.62 47.327 47.327-16.079 16.079-47.327-47.328z"/>
    <path fill="#fff" stroke="#fff" stroke-linecap="round" stroke-width="3.185" d="M92.211 80.392c0 6.236-5.056 11.293-11.293 11.293s-11.293-5.057-11.293-11.293c0-6.237 5.056-11.294 11.293-11.294S92.21 74.155 92.21 80.392zM30.19 18.67c0 6.236-5.057 11.293-11.294 11.293S7.603 24.906 7.603 18.67c0-6.237 5.056-11.294 11.293-11.294s11.293 5.057 11.293 11.294z"/>
    <path fill="#fff" stroke="#fff" stroke-linecap="round" stroke-width="3.018" d="m34.744 80.442 47.328-47.328-16.08-16.079-47.326 47.328z"/>
    <path fill="#fff" stroke="#fff" stroke-linecap="round" stroke-width="3.185" d="M92.061 18.668c0-6.236-5.056-11.293-11.293-11.293s-11.293 5.057-11.293 11.293c0 6.237 5.056 11.294 11.293 11.294S92.06 24.905 92.06 18.668zM30.04 80.391c0-6.236-5.057-11.293-11.294-11.293S7.453 74.155 7.453 80.39c0 6.237 5.056 11.294 11.293 11.294s11.293-5.057 11.293-11.294z"/>
    <path fill="#fff" stroke="#fff" stroke-linecap="round" stroke-width="2.814" d="M22.548 60.697h56.964V37.473H22.548z"/>
    <path fill="#fff" stroke="#fff" stroke-linecap="round" stroke-width="3" d="M94.98 80.974a10.637 10.637 0 1 1-21.273 0 10.637 10.637 0 1 1 21.273 0z" transform="matrix(.75075 .75939 .75075 -.75939 -43.808 46.763)"/>
    <path fill="#fff" stroke="#fff" stroke-linecap="round" stroke-width="3" d="M94.98 80.974a10.637 10.637 0 1 1-21.273 0 10.637 10.637 0 1 1 21.273 0z" transform="matrix(.75075 .75939 .75075 -.75939 -104.643 46.548)"/>
    <path fill="#fff" stroke="#fff" stroke-linecap="round" stroke-width="2.814" d="M38.247 22.924v56.964h23.224V22.924z"/>
    <path fill="#fff" stroke="#fff" stroke-linecap="round" stroke-width="3" d="M94.98 80.974c0 5.874-4.762 10.637-10.637 10.637-5.874 0-10.636-4.763-10.636-10.637s4.762-10.637 10.636-10.637c5.875 0 10.637 4.763 10.637 10.637z" transform="matrix(-.75939 .75075 .75939 .75075 52.181 -43.432)"/>
    <path fill="#fff" stroke="#fff" stroke-linecap="round" stroke-width="3" d="M94.98 80.974c0 5.874-4.762 10.637-10.637 10.637-5.874 0-10.636-4.763-10.636-10.637s4.762-10.637 10.636-10.637c5.875 0 10.637 4.763 10.637 10.637z" transform="matrix(-.75939 .75075 .75939 .75075 52.395 -104.266)"/>
    <path fill="none" stroke="#000" stroke-linecap="round" stroke-width="3" d="M83.295 49.064H63.819m-27.115.3H17.228m32.21-12.734V17.155m0 65.317V62.997m15.61 1.773 18.074 18.074M34.5 64.524 16.426 82.598"/>
    <path fill="#fff" stroke="#000" stroke-linecap="round" stroke-linejoin="round" stroke-width="3" d="M65.942 18.688a14.393 14.393 0 1 0 28.787 0 14.393 14.393 0 1 0-28.787 0m-32.337.246a14.393 14.393 0 1 1-28.787 0 14.393 14.393 0 1 1 28.787 0"/>
    <path stroke="#fff" stroke-linecap="round" stroke-width="3.428" d="M28.25 18.803a9.074 9.074 0 1 1-18.149 0 9.074 9.074 0 1 1 18.148 0zm61.122-.599a9.074 9.074 0 1 1-18.148 0 9.074 9.074 0 1 1 18.148 0z"/>
</svg>
