<svg xmlns="http://www.w3.org/2000/svg" width="100" height="100">
    <path stroke="#000" stroke-linecap="round" stroke-width="2.889" d="M64.368 18.927v60.72H35.353v-60.72z"/>
    <circle cx="139.407" cy="30.508" r="14.407" stroke="#000" stroke-linecap="round" stroke-linejoin="round" stroke-width="3.003" transform="matrix(-.99906 0 0 .99906 189.012 -11.378)"/>
    <circle cx="139.407" cy="30.508" r="14.407" stroke="#000" stroke-linecap="round" stroke-linejoin="round" stroke-width="3.003" transform="matrix(-.99906 0 0 .99906 189.012 50.045)"/>
    <path stroke="#000" stroke-linecap="round" stroke-width="2.876" d="M80.254 63.579H19.52V34.85h60.734z"/>
    <circle cx="139.407" cy="30.508" r="14.407" stroke="#000" stroke-linecap="round" stroke-linejoin="round" stroke-width="3.003" transform="matrix(-.99906 0 0 .99906 219.873 18.585)"/>
    <circle cx="139.407" cy="30.508" r="14.407" stroke="#000" stroke-linecap="round" stroke-linejoin="round" stroke-width="3.003" transform="matrix(-.99906 0 0 .99906 158.451 18.884)"/>
    <circle cx="139.407" cy="30.508" r="14.407" stroke="#000" stroke-linecap="round" stroke-linejoin="round" stroke-width="3.003" transform="matrix(-.99906 0 0 .99906 158.17 49.65)"/>
    <circle cx="139.407" cy="30.508" r="14.407" stroke="#000" stroke-linecap="round" stroke-linejoin="round" stroke-width="3.003" transform="matrix(-.99906 0 0 .99906 219.611 -11.791)"/>
    <path stroke="#000" stroke-linecap="round" stroke-width="2.869" d="M70.041 8.816 7.327 71.53l20.167 20.167 62.714-62.714z"/>
    <circle cx="139.407" cy="30.508" r="14.407" stroke="#000" stroke-linecap="round" stroke-linejoin="round" stroke-width="3.003" transform="translate(-58.623 49.895)scale(.99906)"/>
    <circle cx="139.407" cy="30.508" r="14.407" stroke="#000" stroke-linecap="round" stroke-linejoin="round" stroke-width="3.003" transform="translate(-120.064 -11.545)scale(.99906)"/>
    <path stroke="#000" stroke-linecap="round" stroke-width="2.869" d="M29.507 9.062 92.22 71.776 72.053 91.943 9.34 29.229z"/>
    <path stroke="#fff" stroke-linecap="round" stroke-width="3" d="M83.295 49.064H63.819m-27.115.3H17.228m32.21-12.734V17.155m0 65.317V62.997m15.61 1.773 18.074 18.074m-50.69-68.262c1.901 6.105.655 10.638-2.227 14.352-4.455 4.363-9.395 4.845-14.648 2.823M34.5 64.524 16.426 82.598"/>
    <circle cx="-16.779" cy="38.578" r="7.491" fill="#fff" stroke="#fff" stroke-linecap="round" stroke-width="3" transform="translate(31.202 -9.446)scale(.71673)"/>
    <circle cx="-16.779" cy="38.578" r="7.491" fill="#fff" stroke="#fff" stroke-linecap="round" stroke-width="3" transform="translate(92.924 -9.746)scale(.71673)"/>
    <path stroke="#fff" stroke-linecap="round" stroke-width="3" d="M67.82 13.836c-1.9 6.106-.654 10.639 2.228 14.353 4.455 4.363 9.395 4.845 14.648 2.823"/>
</svg>
