<svg xmlns="http://www.w3.org/2000/svg" width="100" height="100">
    <path stroke="#000" stroke-linecap="round" stroke-width="2.889" d="M64.368 18.927v60.72H35.353v-60.72z"/>
    <path stroke="#000" stroke-linecap="round" stroke-linejoin="round" stroke-width="3" d="M35.343 19.101c0 7.95 6.444 14.394 14.393 14.394S64.13 27.05 64.13 19.1c0-7.948-6.444-14.392-14.394-14.392-7.948 0-14.393 6.444-14.393 14.392m0 61.423c0 7.95 6.444 14.394 14.393 14.394S64.13 88.473 64.13 80.523c0-7.948-6.444-14.392-14.394-14.392-7.948 0-14.393 6.444-14.393 14.392"/>
    <path stroke="#000" stroke-linecap="round" stroke-width="2.876" d="M80.254 63.579H19.52V34.85h60.734Z"/>
    <path stroke="#000" stroke-linecap="round" stroke-linejoin="round" stroke-width="3" d="M66.203 49.063c0 7.95 6.444 14.394 14.393 14.394S94.99 57.013 94.99 49.063c0-7.948-6.444-14.392-14.394-14.392-7.948 0-14.393 6.444-14.393 14.392m-61.423.3c0 7.95 6.445 14.394 14.394 14.394s14.393-6.444 14.393-14.394c0-7.948-6.443-14.392-14.393-14.392-7.948 0-14.393 6.444-14.393 14.392M4.5 80.127c0 7.95 6.445 14.394 14.394 14.394s14.393-6.444 14.393-14.394c0-7.948-6.443-14.392-14.393-14.392-7.948 0-14.393 6.444-14.393 14.392m61.439-61.44c0 7.95 6.445 14.394 14.394 14.394s14.394-6.444 14.394-14.394c0-7.948-6.444-14.392-14.394-14.392-7.948 0-14.393 6.444-14.393 14.392"/>
    <path stroke="#000" stroke-linecap="round" stroke-width="2.869" d="M70.042 8.815 7.328 71.53l20.167 20.168L90.21 28.983Z"/>
    <path stroke="#000" stroke-linecap="round" stroke-linejoin="round" stroke-width="3" d="M95.046 80.374c0 7.95-6.444 14.394-14.393 14.394s-14.394-6.444-14.394-14.394c0-7.948 6.444-14.392 14.394-14.392 7.948 0 14.393 6.444 14.393 14.392M33.605 18.933c0 7.95-6.444 14.394-14.393 14.394S4.819 26.883 4.819 18.933c0-7.948 6.443-14.392 14.393-14.392 7.948 0 14.393 6.444 14.393 14.392"/>
    <path stroke="#000" stroke-linecap="round" stroke-width="2.869" d="M29.507 9.062 92.22 71.776 72.053 91.943 9.34 29.229Z"/>
    <path stroke="#fff" stroke-linecap="round" stroke-width="3" d="M83.295 49.064H63.819m-27.115.3H17.228"/>
    <path stroke="#fff" stroke-linecap="round" stroke-width="2.91" d="M35.76 16.324c-1.982 7.88 5.366 16.332 13.362 16.242 8.76-.1 16.385-7.796 14.592-16.805"/>
    <path stroke="#fff" stroke-linecap="round" stroke-width="3" d="M49.438 82.472V62.997m-32.06-45.472 18.074 18.074M65.048 64.77l18.074 18.074m-.952-65.566L64.094 35.352M34.5 64.524 16.426 82.598"/>
    <path fill="#fff" stroke="#fff" stroke-linecap="round" stroke-width="2.15" d="M55.256 17.754a5.369 5.369 0 1 1-10.737 0 5.368 5.368 0 0 1 10.736 0z"/>
</svg>
