<svg xmlns="http://www.w3.org/2000/svg" width="100" height="100">
    <path fill="#fff" stroke="#000" stroke-linecap="round" stroke-width="3" d="M17.678 17.903h62.321v62.321H17.678z"/>
    <path fill="#fff" stroke="#000" stroke-linecap="round" stroke-linejoin="round" stroke-width="3" d="M4.165 79.96c0 7.95 6.444 14.394 14.393 14.394S32.952 87.91 32.952 79.96c0-7.948-6.444-14.392-14.394-14.392-7.948 0-14.393 6.444-14.393 14.392m61.441-61.44c0 7.949 6.444 14.393 14.393 14.393s14.394-6.444 14.394-14.394c0-7.948-6.444-14.392-14.394-14.392-7.948 0-14.393 6.444-14.393 14.392"/>
    <path fill="#fff" stroke="#000" stroke-linecap="round" stroke-width="2.869" d="M69.705 8.647 6.991 71.361 27.16 91.53l62.714-62.714z"/>
    <path fill="#fff" stroke="#000" stroke-linecap="round" stroke-linejoin="round" stroke-width="3" d="M94.71 80.207c0 7.95-6.445 14.394-14.394 14.394s-14.394-6.444-14.394-14.394c0-7.948 6.444-14.392 14.394-14.392 7.948 0 14.393 6.444 14.393 14.392M33.27 18.766c0 7.95-6.445 14.394-14.394 14.394S4.482 26.716 4.482 18.766c0-7.948 6.444-14.392 14.394-14.392 7.948 0 14.393 6.444 14.393 14.392"/>
    <path fill="#fff" stroke="#000" stroke-linecap="round" stroke-width="2.869" d="m29.17 8.894 62.714 62.714-20.167 20.168L9.003 29.062z"/>
    <path fill="#fff" stroke="#fff" stroke-linecap="round" stroke-width="3.018" d="m34.558 18.452 47.328 47.327-16.08 16.079L18.48 34.531z"/>
    <path fill="#fff" stroke="#fff" stroke-linecap="round" stroke-width="3.185" d="M91.874 80.224c0 6.236-5.056 11.293-11.293 11.293S69.288 86.46 69.288 80.224c0-6.237 5.056-11.294 11.293-11.294s11.293 5.057 11.293 11.294zM29.852 18.502c0 6.236-5.056 11.293-11.293 11.293S7.266 24.738 7.266 18.502c0-6.237 5.056-11.294 11.293-11.294s11.293 5.057 11.293 11.294z"/>
    <path fill="#fff" stroke="#fff" stroke-linecap="round" stroke-width="3.018" d="m34.408 80.274 47.327-47.328-16.078-16.079-47.328 47.328z"/>
    <path fill="#fff" stroke="#fff" stroke-linecap="round" stroke-width="3.185" d="M91.725 18.501c0-6.236-5.056-11.293-11.293-11.293S69.139 12.265 69.139 18.5c0 6.237 5.056 11.294 11.293 11.294S91.725 24.738 91.725 18.5zM29.702 80.223c0-6.236-5.056-11.293-11.293-11.293S7.116 73.987 7.116 80.223c0 6.237 5.056 11.294 11.293 11.294s11.293-5.057 11.293-11.294z"/>
    <path fill="#fff" stroke="#fff" stroke-linecap="round" stroke-width="2.955" d="M20.651 20.877h56.374v56.374H20.651z"/>
    <path fill="none" stroke="#000" stroke-linecap="round" stroke-width="3" d="M17.041 17.356 35.117 35.43m29.594 29.172 18.074 18.074m-.952-65.566L63.759 35.184M34.164 64.356 16.09 82.43"/>
    <path stroke="#000" stroke-linecap="round" stroke-width="3" d="M53.931 49.813a4.345 4.345 0 1 1-8.689 0 4.345 4.345 0 1 1 8.69 0z"/>
</svg>
