<svg xmlns="http://www.w3.org/2000/svg" width="100" height="100">
    <path fill="#fff" stroke="#000" stroke-linecap="round" stroke-width="3" d="M18.577 18.503h62.321v62.321H18.577z"/>
    <path fill="#fff" stroke="#000" stroke-linecap="round" stroke-linejoin="round" stroke-width="3" d="M5.064 80.56a14.393 14.393 0 1 0 28.787 0 14.393 14.393 0 1 0-28.787 0m61.441-61.44a14.393 14.393 0 1 0 28.787 0 14.393 14.393 0 1 0-28.787 0"/>
    <path fill="#fff" stroke="#000" stroke-linecap="round" stroke-width="2.869" d="M70.604 9.247 7.89 71.96l20.167 20.167 62.714-62.714z"/>
    <path fill="#fff" stroke="#000" stroke-linecap="round" stroke-linejoin="round" stroke-width="3" d="M95.61 80.806a14.393 14.393 0 1 1-28.788 0 14.393 14.393 0 1 1 28.787 0M34.17 19.365a14.393 14.393 0 1 1-28.788 0 14.393 14.393 0 1 1 28.787 0"/>
    <path fill="#fff" stroke="#000" stroke-linecap="round" stroke-width="2.869" d="m30.069 9.494 62.714 62.714-20.167 20.167L9.902 29.661z"/>
    <path fill="#fff" stroke="#fff" stroke-linecap="round" stroke-width="3.018" d="m35.457 19.05 47.327 47.328-16.079 16.08L19.378 35.13z"/>
    <path fill="#fff" stroke="#fff" stroke-linecap="round" stroke-width="3.185" d="M92.773 80.823c0 6.236-5.056 11.293-11.293 11.293S70.187 87.06 70.187 80.823s5.056-11.294 11.293-11.294 11.293 5.057 11.293 11.294zM30.752 19.102c0 6.236-5.056 11.293-11.293 11.293S8.166 25.338 8.166 19.102c0-6.237 5.056-11.294 11.293-11.294s11.293 5.057 11.293 11.294z"/>
    <path fill="#fff" stroke="#fff" stroke-linecap="round" stroke-width="3.018" d="m35.307 80.873 47.328-47.327-16.08-16.08L19.23 64.795z"/>
    <path fill="#fff" stroke="#fff" stroke-linecap="round" stroke-width="3.185" d="M92.623 19.1c0-6.236-5.056-11.293-11.293-11.293S70.037 12.864 70.037 19.1c0 6.237 5.056 11.294 11.293 11.294S92.623 25.337 92.623 19.1zM30.602 80.822c0-6.236-5.056-11.293-11.293-11.293S8.016 74.586 8.016 80.822c0 6.237 5.056 11.294 11.293 11.294s11.293-5.057 11.293-11.294z"/>
    <path fill="#fff" stroke="#fff" stroke-linecap="round" stroke-width="2.955" d="M21.55 21.477h56.374v56.374H21.55z"/>
    <path fill="none" stroke="#000" stroke-linecap="round" stroke-width="3" d="M17.94 17.956 36.016 36.03M65.61 65.202l18.074 18.074m-.952-65.566L64.658 35.784M35.063 64.956 16.989 83.03"/>
</svg>
