<svg xmlns="http://www.w3.org/2000/svg" width="100" height="100">
    <path stroke="#000" stroke-linecap="round" stroke-width="3" d="M18.419 18.804H80.74v62.321H18.419z"/>
    <path stroke="#000" stroke-linecap="round" stroke-linejoin="round" stroke-width="3" d="M95.01 80.506c0 7.95-6.445 14.394-14.394 14.394s-14.394-6.444-14.394-14.394c0-7.948 6.444-14.392 14.394-14.392 7.948 0 14.393 6.444 14.393 14.392M33.57 19.066c0 7.95-6.445 14.394-14.394 14.394S4.783 27.016 4.783 19.066c0-7.948 6.443-14.392 14.393-14.392 7.948 0 14.393 6.444 14.393 14.392"/>
    <path stroke="#000" stroke-linecap="round" stroke-width="2.869" d="m29.47 9.193 62.714 62.714-20.168 20.168L9.302 29.36z"/>
    <path fill="none" stroke="#fff" stroke-linecap="round" stroke-width="3" d="m17.342 17.657 18.074 18.074m29.595 29.172 18.074 18.074"/>
    <path stroke="#000" stroke-linecap="round" stroke-linejoin="round" stroke-width="3" d="M4.465 80.26c0 7.95 6.444 14.394 14.393 14.394S33.251 88.21 33.251 80.26c0-7.948-6.443-14.392-14.393-14.392-7.948 0-14.393 6.444-14.393 14.392m61.441-61.44c0 7.949 6.444 14.393 14.393 14.393s14.393-6.444 14.393-14.394c0-7.948-6.443-14.392-14.393-14.392-7.948 0-14.393 6.444-14.393 14.392"/>
    <path stroke="#000" stroke-linecap="round" stroke-width="2.869" d="M70.005 8.947 7.29 71.66l20.167 20.167 62.714-62.714z"/>
    <path fill="none" stroke="#fff" stroke-linecap="round" stroke-width="3" d="M82.134 17.411 64.058 35.485M34.464 64.656 16.39 82.73"/>
    <path fill="#fff" stroke="#fff" stroke-linecap="round" stroke-width="3" d="M53.931 49.813a4.345 4.345 0 1 1-8.689 0 4.345 4.345 0 1 1 8.69 0z"/>
</svg>
