<svg xmlns="http://www.w3.org/2000/svg" width="100" height="100">
    <path fill="#fff" stroke="#000" stroke-linecap="round" stroke-width="3" d="M63.903 18.493V49.52H35.518V18.493z"/>
    <path fill="#fff" stroke="#000" stroke-linecap="round" stroke-linejoin="round" stroke-width="3" d="M35.343 19.101a14.393 14.393 0 1 0 28.787 0 14.393 14.393 0 1 0-28.787 0m0 30.862a14.393 14.393 0 1 0 28.787 0 14.393 14.393 0 1 0-28.787 0"/>
    <path fill="#fff" stroke="#fff" stroke-linecap="round" stroke-width="1.991" d="M37.835 22.512v27.526h24.047V22.512z"/>
    <path fill="#fff" stroke="#fff" stroke-linecap="round" stroke-width="3" d="M94.98 80.974a10.637 10.637 0 1 1-21.273 0 10.637 10.637 0 1 1 21.273 0z" transform="matrix(-.75939 .75075 .75939 .75075 52.181 -74.593)"/>
    <path fill="#fff" stroke="#fff" stroke-linecap="round" stroke-width="3" d="M94.98 80.974a10.637 10.637 0 1 1-21.273 0 10.637 10.637 0 1 1 21.273 0z" transform="matrix(-.75939 .75075 .75939 .75075 52.395 -104.266)"/>
    <path fill="none" stroke="#000" stroke-linecap="round" stroke-width="3" d="M49.438 36.63V17.155"/>
</svg>
