<svg xmlns="http://www.w3.org/2000/svg" width="100" height="100">
    <path stroke="#000" stroke-linecap="round" stroke-width="2.89" d="M64.368 18.927v60.72H35.353v-60.72z"/>
    <path stroke="#000" stroke-linecap="round" stroke-linejoin="round" stroke-width="3" d="M35.343 19.101a14.393 14.393 0 1 0 28.787 0 14.393 14.393 0 1 0-28.787 0m0 61.423a14.393 14.393 0 1 0 28.787 0 14.393 14.393 0 1 0-28.787 0"/>
    <path stroke="#000" stroke-linecap="round" stroke-width="2.876" d="M80.254 63.579H19.52V34.85h60.734z"/>
    <path stroke="#000" stroke-linecap="round" stroke-linejoin="round" stroke-width="3" d="M66.204 49.064a14.393 14.393 0 1 0 28.787 0 14.393 14.393 0 1 0-28.787 0m-61.422.299a14.393 14.393 0 1 0 28.787 0 14.393 14.393 0 1 0-28.787 0M4.5 80.13a14.393 14.393 0 1 0 28.788 0 14.393 14.393 0 1 0-28.787 0m61.441-61.442a14.393 14.393 0 1 0 28.787 0 14.393 14.393 0 1 0-28.787 0"/>
    <path stroke="#000" stroke-linecap="round" stroke-width="2.869" d="M70.041 8.816 7.327 71.53l20.167 20.167 62.714-62.714z"/>
    <path stroke="#000" stroke-linecap="round" stroke-linejoin="round" stroke-width="3" d="M95.046 80.374a14.393 14.393 0 1 1-28.787 0 14.393 14.393 0 1 1 28.787 0m-61.441-61.44a14.393 14.393 0 1 1-28.787 0 14.393 14.393 0 1 1 28.787 0"/>
    <path stroke="#000" stroke-linecap="round" stroke-width="2.869" d="M29.507 9.062 92.22 71.776 72.053 91.943 9.34 29.229z"/>
    <path stroke="#fff" stroke-linecap="round" stroke-width="3" d="M83.295 49.064H63.819m-27.115.3H17.228m32.21-12.734V17.155m0 65.317V62.997m-32.06-45.472 18.074 18.074M65.048 64.77l18.074 18.074m-.952-65.566L64.094 35.352M34.5 64.524 16.426 82.598"/>
</svg>
