<svg xmlns="http://www.w3.org/2000/svg" width="100" height="100">
    <path stroke="#000" stroke-linecap="round" stroke-width="2.89" d="M64.218 18.777v60.72H35.203v-60.72z"/>
    <path stroke="#000" stroke-linecap="round" stroke-linejoin="round" stroke-width="3" d="M35.194 18.952c0 7.95 6.444 14.394 14.393 14.394s14.394-6.444 14.394-14.394c0-7.948-6.444-14.392-14.394-14.392-7.948 0-14.393 6.444-14.393 14.392m0 61.422c0 7.95 6.444 14.394 14.393 14.394s14.394-6.444 14.394-14.394c0-7.948-6.444-14.392-14.394-14.392-7.948 0-14.393 6.444-14.393 14.392"/>
    <path stroke="#000" stroke-linecap="round" stroke-width="2.876" d="M80.105 63.429H19.371V34.7h60.734z"/>
    <path stroke="#000" stroke-linecap="round" stroke-linejoin="round" stroke-width="3" d="M66.055 48.914c0 7.95 6.444 14.394 14.393 14.394s14.394-6.444 14.394-14.394c0-7.948-6.444-14.392-14.394-14.392-7.948 0-14.393 6.444-14.393 14.392m-61.423.299c0 7.95 6.444 14.394 14.393 14.394s14.393-6.444 14.393-14.394c0-7.948-6.443-14.392-14.393-14.392-7.948 0-14.393 6.444-14.393 14.392"/>
    <path stroke="#fff" stroke-linecap="round" stroke-width="3" d="M83.145 48.914H63.669m-27.115.3H17.077m32.21-12.733V17.004m0 65.319V62.847"/>
    <path fill="#fff" stroke="#fff" stroke-linecap="round" stroke-width="3" d="M49.288 54.157a4.345 4.345 0 1 1 0-8.689 4.345 4.345 0 1 1 0 8.69z"/>
</svg>
