<svg xmlns="http://www.w3.org/2000/svg" width="100" height="100">
    <path stroke="#000" stroke-linecap="round" stroke-width="2.89" d="M80.323 63.793h-60.72V34.778h60.72z"/>
    <path stroke="#000" stroke-linecap="round" stroke-linejoin="round" stroke-width="3" d="M80.149 34.768c-7.95 0-14.394 6.444-14.394 14.393S72.2 63.555 80.15 63.555c7.948 0 14.392-6.444 14.392-14.394 0-7.948-6.444-14.393-14.392-14.393m-61.423 0c-7.95 0-14.394 6.444-14.394 14.393s6.444 14.394 14.394 14.394c7.948 0 14.392-6.444 14.392-14.394 0-7.948-6.444-14.393-14.392-14.393"/>
    <path stroke="#000" stroke-width="3.007" d="M69.193 30.791c3.732 2.802 6.318 4.413 11.765 4.189l.143 28.763c-4.573.09-8.913 1.246-11.907 4.493-3.086 3.496-4.669 8.19-4.79 12.285H35.041c-.127-4.775-1.368-8.808-3.892-11.985-2.994-3.02-6.155-4.583-12.284-4.491V34.982c4.968-.424 9.396-1.388 11.985-4.191 3.245-1.91 4.435-6.388 4.49-12.285l28.465-.3c-.027 5.78 2.123 9.344 5.388 12.585z"/>
    <path stroke="#fff" stroke-linecap="round" stroke-width="3" d="M62.621 48.861h19.475m-65.317 0h19.475"/>
    <path fill="#fff" stroke="#fff" stroke-linecap="round" stroke-width="3" d="M49.288 54.157a4.345 4.345 0 1 1 0-8.689 4.345 4.345 0 1 1 0 8.69z"/>
</svg>
