<svg xmlns="http://www.w3.org/2000/svg" width="100" height="100">
    <path fill="#fff" stroke="#000" stroke-linecap="round" stroke-width="3" d="M80.299 17.491v62.321H17.978V17.491z"/>
    <path fill="#fff" stroke="#000" stroke-linecap="round" stroke-width="2.876" d="M34.791 79.432V18.698H63.52v60.734z"/>
    <path fill="#fff" stroke="#000" stroke-linecap="round" stroke-linejoin="round" stroke-width="3" d="M49.306 65.38c-7.95 0-14.394 6.445-14.394 14.394s6.444 14.394 14.394 14.394 14.392-6.444 14.392-14.394-6.444-14.393-14.392-14.393m-.299-61.422c-7.95 0-14.394 6.444-14.394 14.393s6.444 14.393 14.394 14.393 14.392-6.443 14.392-14.393S56.955 3.959 49.007 3.959"/>
    <path fill="#fff" stroke="#fff" stroke-linecap="round" stroke-width="2.814" d="M37.673 21.725v56.964h23.224V21.725z"/>
    <path fill="#fff" stroke="#fff" stroke-linecap="round" stroke-width="3" d="M94.98 80.974c0 5.874-4.762 10.637-10.637 10.637-5.874 0-10.636-4.763-10.636-10.637s4.762-10.637 10.636-10.637c5.875 0 10.637 4.763 10.637 10.637z" transform="matrix(-.75939 .75075 .75939 .75075 51.608 -44.63)"/>
    <path fill="#fff" stroke="#fff" stroke-linecap="round" stroke-width="3" d="M94.98 80.974c0 5.874-4.762 10.637-10.637 10.637-5.874 0-10.636-4.763-10.636-10.637s4.762-10.637 10.636-10.637c5.875 0 10.637 4.763 10.637 10.637z" transform="matrix(-.75939 .75075 .75939 .75075 51.821 -105.465)"/>
    <path fill="#fff" stroke="#fff" stroke-linecap="round" stroke-width="2.739" d="M77.601 20.021v56.89h-56.89v-56.89z"/>
    <path fill="none" stroke="#000" stroke-linecap="round" stroke-width="3" d="M49.306 82.473V62.997m-.3-27.115V16.406"/>
</svg>
