<svg xmlns="http://www.w3.org/2000/svg" width="100" height="100">
    <path fill="#fff" stroke="#000" stroke-linecap="round" stroke-width="2.876" d="M35.727 80.012V19.278h28.729v60.734z"/>
    <path fill="#fff" stroke="#000" stroke-linecap="round" stroke-linejoin="round" stroke-width="3" d="M50.24 65.962a14.393 14.393 0 1 1 0 28.787 14.393 14.393 0 1 1 0-28.787M49.942 4.54a14.393 14.393 0 1 1 0 28.787 14.393 14.393 0 1 1 0-28.787m-30.765-.281a14.393 14.393 0 1 1 0 28.787 14.393 14.393 0 1 1 0-28.787M80.37 33.363a14.393 14.393 0 1 1 0-28.787 14.393 14.393 0 1 1 0 28.787"/>
    <path fill="#fff" stroke="#000" stroke-linecap="round" stroke-width="3" d="M39.174 39.981 69.88 9.275l20.15 20.151-30.705 30.706z"/>
    <g fill="#fff" stroke="#fff" stroke-linecap="round">
        <path stroke-width="3.252" d="m58.583 56.566 29.105-29.105-15.865-15.865L42.718 40.7z"/>
        <path stroke-width="3.185" d="M91.746 18.948c0-6.236-5.056-11.293-11.293-11.293S69.16 12.712 69.16 18.948c0 6.237 5.056 11.294 11.293 11.294s11.293-5.057 11.293-11.294z"/>
    </g>
    <path fill="none" stroke="#000" stroke-linecap="round" stroke-width="3" d="M81.78 17.136 63.708 35.21"/>
    <path fill="#fff" stroke="#000" stroke-linecap="round" stroke-width="3" d="m8.729 28.506 30.706 30.706 20.15-20.15L28.88 8.354z"/>
    <g fill="#fff" stroke="#fff" stroke-linecap="round">
        <path stroke-width="3.252" d="M40.99 56.425 11.885 27.319 27.75 11.454 56.856 40.56z"/>
        <path stroke-width="3.185" d="M7.777 18.878c-.009-6.236 5.04-11.301 11.277-11.31s11.3 5.04 11.31 11.276c.009 6.237-5.04 11.301-11.276 11.31-6.238.01-11.301-5.04-11.31-11.276z"/>
    </g>
    <path fill="none" stroke="#000" stroke-linecap="round" stroke-width="3" d="M34.781 34.258 16.707 16.184"/>
    <path fill="#fff" stroke="#fff" stroke-linecap="round" stroke-width="2.814" d="M38.608 22.306V79.27h23.224V22.306z"/>
    <path fill="#fff" stroke="#fff" stroke-linecap="round" stroke-width="3" d="M94.98 80.974c0 5.874-4.762 10.637-10.637 10.637-5.874 0-10.636-4.763-10.636-10.637s4.762-10.637 10.636-10.637c5.875 0 10.637 4.763 10.637 10.637z" transform="matrix(-.75939 .75075 .75939 .75075 52.543 -44.05)"/>
    <path fill="#fff" stroke="#fff" stroke-linecap="round" stroke-width="3" d="M94.98 80.974c0 5.874-4.762 10.637-10.637 10.637-5.874 0-10.636-4.763-10.636-10.637s4.762-10.637 10.636-10.637c5.875 0 10.637 4.763 10.637 10.637z" transform="matrix(-.75939 .75075 .75939 .75075 52.757 -104.884)"/>
    <path fill="none" stroke="#000" stroke-linecap="round" stroke-width="3" d="M50.241 83.053V63.577m-.3-27.115V16.986"/>
</svg>
