<svg xmlns="http://www.w3.org/2000/svg" width="100" height="100">
    <path fill="#fff" stroke="#000" stroke-linecap="round" stroke-width="2.876" d="M35.727 18.998v60.734h28.729V18.998z"/>
    <path fill="#fff" stroke="#000" stroke-linecap="round" stroke-linejoin="round" stroke-width="3" d="M50.24 33.047c-7.949 0-14.393-6.444-14.393-14.393S42.291 4.26 50.241 4.26c7.948 0 14.392 6.444 14.392 14.394 0 7.948-6.444 14.393-14.392 14.393M49.94 94.47c-7.949 0-14.393-6.445-14.393-14.394s6.444-14.394 14.394-14.394c7.948 0 14.392 6.444 14.392 14.394 0 7.948-6.444 14.393-14.392 14.393m-30.764.281c-7.95 0-14.394-6.445-14.394-14.394s6.444-14.393 14.394-14.393c7.948 0 14.392 6.443 14.392 14.393 0 7.948-6.444 14.393-14.392 14.393M80.37 65.646c-7.949 0-14.393 6.444-14.393 14.393s6.444 14.394 14.394 14.394c7.948 0 14.392-6.444 14.392-14.394 0-7.948-6.444-14.393-14.392-14.393"/>
    <path fill="#fff" stroke="#000" stroke-linecap="round" stroke-width="3" d="M39.174 59.028 69.88 89.734l20.151-20.15-30.706-30.707z"/>
    <g fill="#fff" stroke="#fff" stroke-linecap="round">
        <path stroke-width="3.252" d="m58.584 42.443 29.105 29.105-15.866 15.865-29.105-29.105z"/>
        <path stroke-width="3.185" d="M91.746 80.062c0 6.236-5.056 11.293-11.293 11.293S69.16 86.298 69.16 80.062c0-6.237 5.056-11.294 11.293-11.294s11.293 5.057 11.293 11.294z"/>
    </g>
    <path fill="none" stroke="#000" stroke-linecap="round" stroke-width="3" d="M81.78 81.874 63.708 63.8"/>
    <path fill="#fff" stroke="#000" stroke-linecap="round" stroke-width="3" d="m8.728 70.503 30.706-30.706 20.152 20.151-30.707 30.706z"/>
    <g fill="#fff" stroke="#fff" stroke-linecap="round">
        <path stroke-width="3.252" d="M40.99 42.584 11.886 71.69l15.866 15.866L56.856 58.45z"/>
        <path stroke-width="3.185" d="M7.828 80.202c0 6.236 5.056 11.293 11.293 11.293s11.293-5.057 11.293-11.293c0-6.237-5.056-11.294-11.293-11.294S7.828 73.965 7.828 80.202z"/>
    </g>
    <path fill="none" stroke="#000" stroke-linecap="round" stroke-width="3" d="M34.781 64.752 16.707 82.826"/>
    <path fill="#fff" stroke="#fff" stroke-linecap="round" stroke-width="2.814" d="M38.608 76.703V19.739h23.224v56.964z"/>
    <path fill="#fff" stroke="#fff" stroke-linecap="round" stroke-width="3" d="M94.98 80.974c0 5.874-4.762 10.637-10.637 10.637-5.874 0-10.636-4.763-10.636-10.637s4.762-10.637 10.636-10.637c5.875 0 10.637 4.763 10.637 10.637z" transform="matrix(-.75939 -.75075 .75939 -.75075 52.543 143.06)"/>
    <path fill="#fff" stroke="#fff" stroke-linecap="round" stroke-width="3" d="M94.98 80.974c0 5.874-4.762 10.637-10.637 10.637-5.874 0-10.636-4.763-10.636-10.637s4.762-10.637 10.636-10.637c5.875 0 10.637 4.763 10.637 10.637z" transform="matrix(-.75939 -.75075 .75939 -.75075 52.758 203.894)"/>
    <path fill="none" stroke="#000" stroke-linecap="round" stroke-width="3" d="M50.241 15.957v19.476m-.3 27.115v19.476"/>
</svg>
