<svg xmlns="http://www.w3.org/2000/svg" width="100" height="100">
    <path fill="#fff" stroke="#000" stroke-linecap="round" stroke-linejoin="round" stroke-width="3" d="M4.165 80.26c0 7.95 6.444 14.394 14.393 14.394S32.952 88.21 32.952 80.26c0-7.948-6.444-14.392-14.394-14.392-7.948 0-14.393 6.444-14.393 14.392m61.441-61.44c0 7.949 6.444 14.393 14.393 14.393s14.394-6.444 14.394-14.394c0-7.948-6.444-14.392-14.394-14.392-7.948 0-14.393 6.444-14.393 14.392"/>
    <path fill="#fff" stroke="#000" stroke-linecap="round" stroke-width="2.869" d="M69.705 8.947 6.99 71.66l20.167 20.167 62.714-62.714z"/>
    <path fill="#fff" stroke="#000" stroke-linecap="round" stroke-linejoin="round" stroke-width="3" d="M94.71 80.506c0 7.95-6.445 14.394-14.394 14.394s-14.394-6.444-14.394-14.394c0-7.948 6.444-14.392 14.394-14.392 7.948 0 14.393 6.444 14.393 14.392M33.27 19.066c0 7.95-6.445 14.394-14.394 14.394S4.482 27.016 4.482 19.066c0-7.948 6.444-14.392 14.394-14.392 7.948 0 14.393 6.444 14.393 14.392"/>
    <path fill="#fff" stroke="#000" stroke-linecap="round" stroke-width="2.869" d="m29.17 9.194 62.714 62.714-20.167 20.167L9.003 29.361z"/>
    <path fill="#fff" stroke="#fff" stroke-linecap="round" stroke-width="3.018" d="m34.559 18.75 47.327 47.328-16.079 16.08L18.48 34.83z"/>
    <path fill="#fff" stroke="#fff" stroke-linecap="round" stroke-width="3.185" d="M91.874 80.524c0 6.236-5.056 11.293-11.293 11.293S69.288 86.76 69.288 80.524c0-6.237 5.056-11.294 11.293-11.294s11.293 5.057 11.293 11.294zM29.852 18.802c0 6.236-5.056 11.293-11.293 11.293S7.266 25.038 7.266 18.802c0-6.237 5.056-11.294 11.293-11.294s11.293 5.057 11.293 11.294z"/>
    <path fill="none" stroke="#000" stroke-linecap="round" stroke-width="3" d="m17.042 17.657 18.074 18.074m29.595 29.172 18.074 18.074"/>
    <path fill="#fff" stroke="#fff" stroke-linecap="round" stroke-width="3.018" d="m34.409 80.573 47.327-47.327-16.079-16.079L18.33 64.494z"/>
    <path fill="#fff" stroke="#fff" stroke-linecap="round" stroke-width="3.185" d="M91.725 18.801c0-6.236-5.056-11.293-11.293-11.293S69.139 12.565 69.139 18.8c0 6.237 5.056 11.294 11.293 11.294S91.725 25.038 91.725 18.8zM29.702 80.523c0-6.236-5.056-11.293-11.293-11.293S7.116 74.287 7.116 80.523c0 6.237 5.056 11.294 11.293 11.294s11.293-5.057 11.293-11.294z"/>
    <path fill="none" stroke="#000" stroke-linecap="round" stroke-width="3" d="M81.834 17.411 63.758 35.485M34.164 64.656 16.09 82.73"/>
    <path stroke="#000" stroke-linecap="round" stroke-width="3" d="M53.931 49.813a4.345 4.345 0 1 1-8.689 0 4.345 4.345 0 1 1 8.69 0z"/>
</svg>
