<svg xmlns="http://www.w3.org/2000/svg" width="100" height="100">
    <path stroke="#000" stroke-linecap="round" stroke-linejoin="round" stroke-width="3" d="M95.124 80.364c0 7.95-6.444 14.394-14.393 14.394s-14.394-6.444-14.394-14.394c0-7.948 6.444-14.392 14.394-14.392 7.948 0 14.393 6.444 14.393 14.392M33.683 18.923c0 7.95-6.444 14.394-14.393 14.394S4.896 26.873 4.896 18.923c0-7.948 6.444-14.392 14.394-14.392 7.948 0 14.393 6.444 14.393 14.392"/>
    <path stroke="#000" stroke-linecap="round" stroke-width="2.869" d="m29.584 9.052 62.714 62.714L72.13 91.933 9.416 29.22z"/>
    <path fill="none" stroke="#fff" stroke-linecap="round" stroke-width="3" d="M17.456 17.514 35.53 35.588M65.125 64.76l18.074 18.074"/>
    <path stroke="#000" stroke-linecap="round" stroke-linejoin="round" stroke-width="3" d="M4.579 80.118c0 7.95 6.444 14.394 14.393 14.394s14.393-6.444 14.393-14.394c0-7.948-6.443-14.392-14.393-14.392-7.948 0-14.393 6.444-14.393 14.392M66.02 18.677c0 7.95 6.444 14.394 14.393 14.394s14.394-6.444 14.394-14.394c0-7.948-6.444-14.392-14.394-14.392-7.948 0-14.393 6.444-14.393 14.392"/>
    <path stroke="#000" stroke-linecap="round" stroke-width="2.869" d="M70.119 8.804 7.405 71.518l20.167 20.168 62.714-62.714z"/>
    <path fill="none" stroke="#fff" stroke-linecap="round" stroke-width="3" d="M82.248 17.268 64.172 35.342M34.578 64.513 16.504 82.587"/>
    <path fill="#fff" stroke="#fff" stroke-linecap="round" stroke-width="3" d="M53.931 49.813a4.345 4.345 0 1 1-8.689 0 4.345 4.345 0 1 1 8.69 0z"/>
</svg>
