<svg xmlns="http://www.w3.org/2000/svg" width="100" height="100">
    <g stroke-linecap="round" transform="matrix(1 0 0 -1 0 99.213)">
        <path fill="#fff" stroke="#000" stroke-width="2.889" d="M64.368 18.927v60.72H35.353v-60.72z"/>
        <circle cx="139.407" cy="30.508" r="14.407" fill="#fff" stroke="#000" stroke-linejoin="round" stroke-width="3.003" transform="matrix(-.99906 0 0 .99906 189.012 -11.378)"/>
        <circle cx="139.407" cy="30.508" r="14.407" fill="#fff" stroke="#000" stroke-linejoin="round" stroke-width="3.003" transform="matrix(-.99906 0 0 .99906 189.012 50.045)"/>
        <path fill="#fff" stroke="#000" stroke-width="2.876" d="M80.254 63.579H19.52V34.85h60.734z"/>
        <circle cx="139.407" cy="30.508" r="14.407" fill="#fff" stroke="#000" stroke-linejoin="round" stroke-width="3.003" transform="matrix(-.99906 0 0 .99906 219.873 18.585)"/>
        <circle cx="139.407" cy="30.508" r="14.407" fill="#fff" stroke="#000" stroke-linejoin="round" stroke-width="3.003" transform="matrix(-.99906 0 0 .99906 158.451 18.884)"/>
        <circle cx="139.407" cy="30.508" r="14.407" fill="#fff" stroke="#000" stroke-linejoin="round" stroke-width="3.003" transform="matrix(-.99906 0 0 .99906 158.17 49.65)"/>
        <path fill="#fff" stroke="#000" stroke-width="2.869" d="M70.041 8.816 7.327 71.53l20.167 20.167 62.714-62.714z"/>
        <circle cx="139.407" cy="30.508" r="14.407" fill="#fff" stroke="#000" stroke-linejoin="round" stroke-width="3.003" transform="translate(-58.623 49.895)scale(.99906)"/>
        <path fill="#fff" stroke="#000" stroke-width="2.869" d="M29.507 9.062 92.22 71.776 72.053 91.943 9.34 29.229z"/>
        <g fill="#fff" stroke="#fff" transform="translate(-.28 -.133)">
            <path stroke-width="3.018" d="M35.174 18.752 82.502 66.08l-16.08 16.079L19.096 34.83z"/>
            <circle cx="84.343" cy="80.974" r="10.637" stroke-width="3" transform="translate(-8.352 -5.447)scale(1.06172)"/>
            <circle cx="84.343" cy="80.974" r="10.637" stroke-width="3" transform="translate(-70.373 -67.17)scale(1.06172)"/>
        </g>
        <g fill="#fff" stroke="#fff" transform="matrix(1 0 0 -1 -.43 99.194)">
            <path stroke-width="3.018" d="M35.174 18.752 82.502 66.08l-16.08 16.079L19.096 34.83z"/>
            <circle cx="84.343" cy="80.974" r="10.637" stroke-width="3" transform="translate(-8.352 -5.447)scale(1.06172)"/>
            <circle cx="84.343" cy="80.974" r="10.637" stroke-width="3" transform="translate(-70.373 -67.17)scale(1.06172)"/>
        </g>
        <path fill="#fff" stroke="#fff" stroke-width="2.814" d="M22.548 60.697h56.964V37.473H22.548z"/>
        <circle cx="84.343" cy="80.974" r="10.637" fill="#fff" stroke="#fff" stroke-width="3" transform="matrix(.75075 .75939 .75075 -.75939 -43.808 46.763)"/>
        <circle cx="84.343" cy="80.974" r="10.637" fill="#fff" stroke="#fff" stroke-width="3" transform="matrix(.75075 .75939 .75075 -.75939 -104.643 46.548)"/>
        <g fill="#fff" stroke="#fff" transform="rotate(90 49.284 49.66)">
            <path stroke-width="2.814" d="M22.548 60.697h56.964V37.473H22.548z"/>
            <circle cx="84.343" cy="80.974" r="10.637" stroke-width="3" transform="matrix(.75075 .75939 .75075 -.75939 -43.808 46.763)"/>
            <circle cx="84.343" cy="80.974" r="10.637" stroke-width="3" transform="matrix(.75075 .75939 .75075 -.75939 -104.643 46.548)"/>
        </g>
        <path fill="none" stroke="#000" stroke-width="3" d="M83.295 49.064H63.819m-27.115.3H17.228m32.21-12.734V17.155m0 65.317V62.997m15.61 1.773 18.074 18.074M34.5 64.524 16.426 82.598"/>
        <circle cx="139.407" cy="30.508" r="14.407" fill="#fff" stroke="#000" stroke-linejoin="round" stroke-width="3.003" transform="matrix(-.99906 0 0 .99906 219.611 -11.791)"/>
        <circle cx="139.407" cy="30.508" r="14.407" fill="#fff" stroke="#000" stroke-linejoin="round" stroke-width="3.003" transform="translate(-120.064 -11.545)scale(.99906)"/>
        <circle cx="-12.734" cy="38.428" r="7.94" stroke="#fff" stroke-width="3" transform="translate(33.728 -25.114)scale(1.14283)"/>
        <circle cx="-12.734" cy="38.428" r="7.94" stroke="#fff" stroke-width="3" transform="translate(94.851 -25.713)scale(1.14283)"/>
    </g>
</svg>
