<svg xmlns="http://www.w3.org/2000/svg" width="100" height="100">
    <path stroke="#000" stroke-linecap="round" stroke-width="2.89" d="M64.368 80.286v-60.72H35.353v60.72z"/>
    <path stroke="#000" stroke-linecap="round" stroke-linejoin="round" stroke-width="3" d="M35.343 80.11c0-7.949 6.444-14.393 14.393-14.393S64.13 72.161 64.13 80.111c0 7.948-6.444 14.392-14.394 14.392-7.948 0-14.393-6.444-14.393-14.392m0-61.422c0-7.95 6.444-14.394 14.393-14.394S64.13 10.74 64.13 18.69c0 7.948-6.444 14.392-14.394 14.392-7.948 0-14.393-6.444-14.393-14.392"/>
    <path stroke="#000" stroke-linecap="round" stroke-width="2.876" d="M80.254 35.634H19.52v28.729h60.734z"/>
    <path stroke="#000" stroke-linecap="round" stroke-linejoin="round" stroke-width="3" d="M66.203 50.149c0-7.95 6.444-14.394 14.393-14.394S94.99 42.2 94.99 50.15c0 7.948-6.444 14.392-14.394 14.392-7.948 0-14.393-6.444-14.393-14.392M4.78 49.849c0-7.95 6.445-14.394 14.394-14.394S33.567 41.9 33.567 49.85c0 7.948-6.443 14.392-14.393 14.392-7.948 0-14.393-6.444-14.393-14.392M4.5 19.085c0-7.95 6.445-14.394 14.394-14.394s14.393 6.444 14.393 14.394c0 7.948-6.443 14.392-14.393 14.392-7.948 0-14.393-6.444-14.393-14.392m61.439 61.44c0-7.95 6.445-14.394 14.394-14.394s14.394 6.444 14.394 14.394c0 7.948-6.444 14.392-14.394 14.392-7.948 0-14.393-6.444-14.393-14.392"/>
    <path stroke="#000" stroke-linecap="round" stroke-width="2.869" d="M70.042 90.397 7.328 27.683 27.495 7.515 90.21 70.23z"/>
    <path stroke="#000" stroke-linecap="round" stroke-linejoin="round" stroke-width="3" d="M95.046 18.838c0-7.95-6.444-14.394-14.393-14.394s-14.394 6.444-14.394 14.394c0 7.948 6.444 14.392 14.394 14.392 7.948 0 14.393-6.444 14.393-14.392M33.605 80.279c0-7.95-6.444-14.394-14.393-14.394S4.819 72.33 4.819 80.28c0 7.948 6.443 14.392 14.393 14.392 7.948 0 14.393-6.444 14.393-14.392"/>
    <path stroke="#000" stroke-linecap="round" stroke-width="2.869" d="m29.507 90.15 62.714-62.713L72.054 7.269 9.34 69.983z"/>
    <path stroke="#fff" stroke-linecap="round" stroke-width="3" d="M83.295 50.149H63.819m-27.115-.3H17.228m32.21 12.734v19.475m0-65.317v19.475m15.61-1.773 18.074-18.074m-50.69 68.262c1.901-6.105.655-10.638-2.227-14.352-4.455-4.363-9.395-4.845-14.648-2.823M34.5 34.689 16.426 16.615"/>
    <path fill="#fff" stroke="#fff" stroke-linecap="round" stroke-width="2.15" d="M24.545 81.01a5.369 5.369 0 1 0-10.737 0 5.368 5.368 0 0 0 10.736 0zm61.722.299a5.369 5.369 0 1 0-10.737 0 5.368 5.368 0 0 0 10.736 0z"/>
    <path stroke="#fff" stroke-linecap="round" stroke-width="3" d="M67.82 85.377c-1.9-6.106-.654-10.639 2.228-14.353 4.455-4.363 9.395-4.845 14.648-2.823"/>
</svg>
