<svg xmlns="http://www.w3.org/2000/svg" width="100" height="100">
    <path fill="#fff" stroke="#000" stroke-linecap="round" stroke-width="2.889" d="M64.368 80.286v-60.72H35.353v60.72z"/>
    <path fill="#fff" stroke="#000" stroke-linecap="round" stroke-linejoin="round" stroke-width="3" d="M35.343 18.688a14.393 14.393 0 1 1 28.786 0 14.393 14.393 0 1 1-28.786 0"/>
    <path fill="#fff" stroke="#000" stroke-linecap="round" stroke-width="2.876" d="M80.254 35.634H19.52v28.729h60.734z"/>
    <path fill="#fff" stroke="#000" stroke-linecap="round" stroke-linejoin="round" stroke-width="3" d="M66.204 50.148a14.393 14.393 0 1 1 28.787 0 14.393 14.393 0 1 1-28.787 0M4.782 49.85a14.393 14.393 0 1 1 28.787 0 14.393 14.393 0 1 1-28.787 0M4.5 19.083a14.393 14.393 0 1 1 28.788 0 14.393 14.393 0 1 1-28.787 0zm61.442 61.441a14.393 14.393 0 1 1 28.787 0 14.393 14.393 0 1 1-28.787 0"/>
    <path fill="#fff" stroke="#000" stroke-linecap="round" stroke-width="2.869" d="M70.041 90.397 7.327 27.683 27.494 7.516 90.208 70.23Z"/>
    <path fill="#fff" stroke="#000" stroke-linecap="round" stroke-linejoin="round" stroke-width="3" d="M95.046 18.838a14.393 14.393 0 1 0-28.787 0 14.393 14.393 0 1 0 28.787 0m-61.441 61.44a14.393 14.393 0 1 0-28.786 0 14.393 14.393 0 1 0 28.786 0"/>
    <path fill="#fff" stroke="#000" stroke-linecap="round" stroke-width="2.869" d="M29.507 90.151 92.22 27.437 72.053 7.27 9.34 69.984Z"/>
    <path fill="#fff" stroke="#fff" stroke-linecap="round" stroke-width="3.018" d="m34.895 80.593 47.327-47.327-16.079-16.079-47.327 47.327Z"/>
    <path fill="#fff" stroke="#fff" stroke-linecap="round" stroke-width="3.185" d="M92.211 18.82c0-6.236-5.056-11.293-11.293-11.293s-11.293 5.057-11.293 11.294c0 6.236 5.056 11.293 11.293 11.293s11.293-5.057 11.293-11.293zM30.19 80.543c0-6.237-5.057-11.294-11.294-11.294S7.603 74.306 7.603 80.543c0 6.236 5.056 11.293 11.293 11.293s11.293-5.057 11.293-11.293z"/>
    <path fill="#fff" stroke="#fff" stroke-linecap="round" stroke-width="3.018" d="m34.744 18.771 47.328 47.327-16.08 16.08L18.667 34.85Z"/>
    <path fill="#fff" stroke="#fff" stroke-linecap="round" stroke-width="3.185" d="M92.061 80.544c0 6.237-5.056 11.294-11.293 11.294s-11.293-5.057-11.293-11.294c0-6.236 5.056-11.293 11.293-11.293s11.293 5.057 11.293 11.293zM30.04 18.821c0 6.237-5.057 11.294-11.294 11.294S7.453 25.058 7.453 18.82c0-6.236 5.056-11.293 11.293-11.293s11.293 5.057 11.293 11.293z"/>
    <path fill="#fff" stroke="#fff" stroke-linecap="round" stroke-width="2.814" d="M22.548 38.516h56.964V61.74H22.548Z"/>
    <path fill="#fff" stroke="#fff" stroke-linecap="round" stroke-width="3.203" d="M88.29 41.814a11.294 11.424 0 1 1-15.971 16.154 11.294 11.424 0 1 1 15.97-16.154Zm-60.835.214a11.294 11.424 0 1 1-15.97 16.155 11.294 11.424 0 1 1 15.97-16.155Z"/>
    <path fill="#fff" stroke="#fff" stroke-linecap="round" stroke-width="2.814" d="M38.247 76.289V19.325h23.224v56.964z"/>
    <path fill="#fff" stroke="#fff" stroke-linecap="round" stroke-width="3.203" d="M41.545 10.547c4.46-4.41 11.694-4.41 16.155 0a11.203 11.203 0 0 1 0 15.97c-4.461 4.41-11.694 4.412-16.155.002a11.203 11.203 0 0 1 0-15.972zm.215 60.835c4.46-4.41 11.693-4.411 16.155 0a11.203 11.203 0 0 1-.001 15.97c-4.46 4.41-11.694 4.411-16.155.001a11.203 11.203 0 0 1 0-15.971z"/>
    <path fill="none" stroke="#000" stroke-linecap="round" stroke-width="3" d="M83.295 50.149H63.819m-27.115-.3H17.228m32.21-33.108v19.475m-32.06 45.472 18.074-18.074m29.596-29.171 18.074-18.074m-.952 65.566L64.094 63.86M34.5 34.689 16.426 16.615"/>
    <path fill="#fff" stroke="#000" stroke-linecap="round" stroke-linejoin="round" stroke-width="3" d="M35.343 80.111a14.393 14.393 0 1 1 28.786 0 14.393 14.393 0 1 1-28.786 0"/>
    <path stroke="#fff" stroke-linecap="round" stroke-width="3.428" d="M58.811 80.41a9.074 9.074 0 1 0-18.148 0 9.074 9.074 0 1 0 18.148 0z"/>
</svg>
