<svg xmlns="http://www.w3.org/2000/svg" width="100" height="100">
    <path fill="#fff" fill-opacity=".941" stroke="#000" stroke-width="3.007" d="m19.629 18.508 12.579-.08c1.961 22.628 33.293 22.457 35.354.157l14.081-.378v13.18c-23.938 2.748-22.4 34.286 0 35.954v13.18H67.864c-1.663-23.464-33.59-21.833-34.756 0h-13.48v-12.88c21.386-1.298 22.373-34.057 0-35.655z"/>
    <path fill="#fff" stroke="#000" stroke-linecap="round" stroke-width="3" d="M60.874 16.856a10.838 10.838 0 1 1-21.676 0 10.838 10.838 0 1 1 21.676 0zm33.258 32.659a10.838 10.838 0 1 1-21.676 0 10.838 10.838 0 1 1 21.676 0zM61.174 81.874a10.838 10.838 0 1 1-21.676 0 10.838 10.838 0 1 1 21.676 0zm-32.359-32.06a10.838 10.838 0 1 1-21.676 0 10.838 10.838 0 1 1 21.676 0z"/>
</svg>
