<svg xmlns="http://www.w3.org/2000/svg" width="100" height="100">
    <path stroke="#000" stroke-linecap="round" stroke-width="2.876" d="M35.727 80.012V19.278h28.729v60.734z"/>
    <path stroke="#000" stroke-linecap="round" stroke-linejoin="round" stroke-width="3" d="M50.24 65.962a14.393 14.393 0 1 1 0 28.787 14.393 14.393 0 1 1 0-28.787M49.942 4.54a14.393 14.393 0 1 1 0 28.787 14.393 14.393 0 1 1 0-28.787m-30.765-.281a14.393 14.393 0 1 1 0 28.787 14.393 14.393 0 1 1 0-28.787M80.618 65.7a14.393 14.393 0 1 1 0 28.787 14.393 14.393 0 1 1 0-28.787"/>
    <path stroke="#000" stroke-linecap="round" stroke-width="2.869" d="M90.49 69.8 27.778 7.084 7.609 27.253l62.714 62.714z"/>
    <path stroke="#000" stroke-linecap="round" stroke-linejoin="round" stroke-width="3" d="M18.93 94.803a14.393 14.393 0 1 1 0-28.787 14.393 14.393 0 1 1 0 28.787m61.44-61.44a14.393 14.393 0 1 1 0-28.787 14.393 14.393 0 1 1 0 28.787"/>
    <path stroke="#000" stroke-linecap="round" stroke-width="2.869" d="M90.244 29.264 27.53 91.978 7.362 71.811 70.076 9.097z"/>
    <path stroke="#fff" stroke-linecap="round" stroke-width="3" d="M50.241 83.053V63.577m-.3-27.115V16.986m31.839.15L63.708 35.21M34.535 64.805 16.461 82.88m65.566-.953L63.953 63.853M34.781 34.258 16.707 16.184"/>
</svg>
