<svg xmlns="http://www.w3.org/2000/svg" width="100" height="100">
    <path fill="#fff" stroke="#000" stroke-linecap="round" stroke-width="2.876" d="M35.727 80.012V19.278h28.729v60.734z"/>
    <path fill="#fff" stroke="#000" stroke-linecap="round" stroke-linejoin="round" stroke-width="3" d="M50.24 65.962c-7.949 0-14.393 6.444-14.393 14.393s6.444 14.394 14.394 14.394c7.948 0 14.392-6.444 14.392-14.394 0-7.948-6.444-14.393-14.392-14.393M49.942 4.54c-7.95 0-14.394 6.444-14.394 14.393s6.444 14.394 14.394 14.394c7.948 0 14.392-6.444 14.392-14.394 0-7.948-6.444-14.393-14.392-14.393m-30.765-.281c-7.95 0-14.394 6.444-14.394 14.393s6.444 14.394 14.394 14.394c7.948 0 14.392-6.444 14.392-14.394 0-7.948-6.444-14.393-14.392-14.393M80.618 65.7c-7.95 0-14.394 6.444-14.394 14.393s6.444 14.394 14.394 14.394c7.948 0 14.392-6.444 14.392-14.394 0-7.948-6.444-14.393-14.392-14.393"/>
    <path fill="#fff" stroke="#000" stroke-linecap="round" stroke-width="2.869" d="M90.49 69.799 27.776 7.085 7.608 27.252l62.714 62.714z"/>
    <path fill="#fff" stroke="#000" stroke-linecap="round" stroke-linejoin="round" stroke-width="3" d="M18.93 94.803c-7.949 0-14.393-6.444-14.393-14.393s6.444-14.394 14.394-14.394c7.948 0 14.392 6.444 14.392 14.394 0 7.948-6.444 14.393-14.392 14.393m61.439-61.44c-7.949 0-14.393-6.444-14.393-14.393S72.421 4.576 80.371 4.576c7.948 0 14.392 6.444 14.392 14.394 0 7.948-6.444 14.393-14.392 14.393"/>
    <path fill="#fff" stroke="#000" stroke-linecap="round" stroke-width="2.869" d="M90.244 29.265 27.53 91.979 7.363 71.812 70.077 9.098z"/>
    <path fill="#fff" stroke="#fff" stroke-linecap="round" stroke-width="3.018" d="M80.685 34.652 33.358 81.979 17.278 65.9l47.328-47.327z"/>
    <path fill="#fff" stroke="#fff" stroke-linecap="round" stroke-width="3.185" d="M18.914 91.968c-6.236 0-11.293-5.056-11.293-11.293s5.057-11.293 11.293-11.293c6.237 0 11.294 5.056 11.294 11.293S25.15 91.968 18.914 91.968zm61.722-62.022c-6.236 0-11.293-5.056-11.293-11.293S74.4 7.36 80.636 7.36c6.237 0 11.294 5.056 11.294 11.293s-5.057 11.293-11.294 11.293z"/>
    <path fill="#fff" stroke="#fff" stroke-linecap="round" stroke-width="3.018" d="M18.864 34.502 66.192 81.83 82.27 65.75 34.943 18.424z"/>
    <path fill="#fff" stroke="#fff" stroke-linecap="round" stroke-width="3.185" d="M80.637 91.82c6.236 0 11.293-5.057 11.293-11.294s-5.057-11.293-11.293-11.293c-6.237 0-11.294 5.056-11.294 11.293S74.4 91.819 80.637 91.819zM18.914 29.797c6.236 0 11.293-5.056 11.293-11.293S25.15 7.21 18.914 7.21c-6.237 0-11.294 5.056-11.294 11.293s5.057 11.293 11.294 11.293z"/>
    <path fill="#fff" stroke="#fff" stroke-linecap="round" stroke-width="2.814" d="M38.608 22.306V79.27h23.224V22.306z"/>
    <path fill="#fff" stroke="#fff" stroke-linecap="round" stroke-width="3" d="M94.98 80.974c0 5.874-4.762 10.637-10.637 10.637-5.874 0-10.636-4.763-10.636-10.637s4.762-10.637 10.636-10.637c5.875 0 10.637 4.763 10.637 10.637z" transform="matrix(-.75939 .75075 .75939 .75075 52.543 -44.05)"/>
    <path fill="#fff" stroke="#fff" stroke-linecap="round" stroke-width="3" d="M94.98 80.974c0 5.874-4.762 10.637-10.637 10.637-5.874 0-10.636-4.763-10.636-10.637s4.762-10.637 10.636-10.637c5.875 0 10.637 4.763 10.637 10.637z" transform="matrix(-.75939 .75075 .75939 .75075 52.757 -104.884)"/>
    <path fill="none" stroke="#000" stroke-linecap="round" stroke-width="3" d="M50.242 83.053V63.577m-.3-27.115V16.986m31.839.15L63.707 35.21M34.536 64.806 16.462 82.88m65.566-.952L63.954 63.852M34.782 34.258 16.708 16.184"/>
</svg>
