<svg xmlns="http://www.w3.org/2000/svg" width="100" height="100">
    <path stroke="#000" stroke-linecap="round" stroke-width="2.89" d="M64.481 19.114v60.72H35.466v-60.72z"/>
    <path stroke="#000" stroke-linecap="round" stroke-linejoin="round" stroke-width="3" d="M35.456 19.29a14.393 14.393 0 1 0 28.787 0 14.393 14.393 0 1 0-28.787 0m0 61.421a14.393 14.393 0 1 0 28.787 0 14.393 14.393 0 1 0-28.787 0"/>
    <path stroke="#000" stroke-linecap="round" stroke-width="2.876" d="M80.367 63.765H19.633V35.036h60.734z"/>
    <path stroke="#000" stroke-linecap="round" stroke-linejoin="round" stroke-width="3" d="M66.318 49.25a14.393 14.393 0 1 0 28.787 0 14.393 14.393 0 1 0-28.787 0m-61.423.3a14.393 14.393 0 1 0 28.787 0 14.393 14.393 0 1 0-28.787 0"/>
    <path stroke="#fff" stroke-linecap="round" stroke-width="3" d="M83.408 49.25H63.932m-27.115.3H17.34m32.21-12.733V17.34m0 65.319V63.183"/>
</svg>
