<svg xmlns="http://www.w3.org/2000/svg" width="100" height="100">
    <path fill="#fff" stroke="#000" stroke-linecap="round" stroke-width="2.89" d="M63.918 18.777v60.72H34.903v-60.72z"/>
    <path fill="#fff" stroke="#000" stroke-linecap="round" stroke-linejoin="round" stroke-width="3" d="M34.894 18.952c0 7.95 6.444 14.394 14.393 14.394S63.68 26.902 63.68 18.952c0-7.948-6.443-14.392-14.393-14.392-7.948 0-14.393 6.444-14.393 14.392m0 61.422c0 7.95 6.444 14.394 14.393 14.394S63.68 88.324 63.68 80.374c0-7.948-6.443-14.392-14.393-14.392-7.948 0-14.393 6.444-14.393 14.392"/>
    <path fill="#fff" stroke="#000" stroke-linecap="round" stroke-width="2.876" d="M79.804 63.429H19.07V34.7h60.734z"/>
    <path fill="#fff" stroke="#000" stroke-linecap="round" stroke-linejoin="round" stroke-width="3" d="M65.755 48.914c0 7.95 6.444 14.394 14.393 14.394s14.394-6.444 14.394-14.394c0-7.948-6.444-14.392-14.394-14.392-7.948 0-14.393 6.444-14.393 14.392m-61.422.299c0 7.95 6.444 14.394 14.393 14.394S33.12 57.163 33.12 49.213c0-7.948-6.444-14.392-14.394-14.392-7.948 0-14.393 6.444-14.393 14.392"/>
    <path fill="#fff" stroke="#fff" stroke-linecap="round" stroke-width="2.814" d="M22.098 60.547h56.964V37.323H22.098z"/>
    <path fill="#fff" stroke="#fff" stroke-linecap="round" stroke-width="3" d="M94.98 80.974c0 5.874-4.762 10.637-10.637 10.637-5.874 0-10.636-4.763-10.636-10.637s4.762-10.637 10.636-10.637c5.875 0 10.637 4.763 10.637 10.637z" transform="matrix(.75075 .75939 .75075 -.75939 -44.257 46.613)"/>
    <path fill="#fff" stroke="#fff" stroke-linecap="round" stroke-width="3" d="M94.98 80.974c0 5.874-4.762 10.637-10.637 10.637-5.874 0-10.636-4.763-10.636-10.637s4.762-10.637 10.636-10.637c5.875 0 10.637 4.763 10.637 10.637z" transform="matrix(.75075 .75939 .75075 -.75939 -105.091 46.399)"/>
    <path fill="#fff" stroke="#fff" stroke-linecap="round" stroke-width="2.814" d="M37.797 22.774v56.964h23.224V22.774z"/>
    <path fill="#fff" stroke="#fff" stroke-linecap="round" stroke-width="3" d="M94.98 80.974c0 5.874-4.762 10.637-10.637 10.637-5.874 0-10.636-4.763-10.636-10.637s4.762-10.637 10.636-10.637c5.875 0 10.637 4.763 10.637 10.637z" transform="matrix(-.75939 .75075 .75939 .75075 51.731 -43.582)"/>
    <path fill="#fff" stroke="#fff" stroke-linecap="round" stroke-width="3" d="M94.98 80.974c0 5.874-4.762 10.637-10.637 10.637-5.874 0-10.636-4.763-10.636-10.637s4.762-10.637 10.636-10.637c5.875 0 10.637 4.763 10.637 10.637z" transform="matrix(-.75939 .75075 .75939 .75075 51.946 -104.416)"/>
    <path fill="none" stroke="#000" stroke-linecap="round" stroke-width="3" d="M82.845 48.914H63.369m-27.115.3H16.778m32.21-12.734V17.005m0 65.317V62.847"/>
    <path stroke="#000" stroke-linecap="round" stroke-width="3" d="M53.931 49.813a4.345 4.345 0 1 1-8.689 0 4.345 4.345 0 1 1 8.69 0z"/>
</svg>
