<svg xmlns="http://www.w3.org/2000/svg" width="100" height="100">
    <path fill="#fff" stroke="#000" stroke-linecap="round" stroke-width="2.89" d="M64.368 18.927v60.72H35.353v-60.72z"/>
    <path fill="#fff" stroke="#000" stroke-linecap="round" stroke-linejoin="round" stroke-width="3" d="M35.343 19.101a14.393 14.393 0 1 0 28.787 0 14.393 14.393 0 1 0-28.787 0m0 61.423a14.393 14.393 0 1 0 28.787 0 14.393 14.393 0 1 0-28.787 0"/>
    <path fill="#fff" stroke="#000" stroke-linecap="round" stroke-width="2.876" d="M80.254 63.579H19.52V34.85h60.734z"/>
    <path fill="#fff" stroke="#000" stroke-linecap="round" stroke-linejoin="round" stroke-width="3" d="M66.204 49.064a14.393 14.393 0 1 0 28.787 0 14.393 14.393 0 1 0-28.787 0m-61.422.299a14.393 14.393 0 1 0 28.787 0 14.393 14.393 0 1 0-28.787 0"/>
    <path fill="#fff" stroke="#fff" stroke-linecap="round" stroke-width="2.814" d="M22.548 60.697h56.964V37.473H22.548z"/>
    <path fill="#fff" stroke="#fff" stroke-linecap="round" stroke-width="3" d="M94.98 80.974a10.637 10.637 0 1 1-21.273 0 10.637 10.637 0 1 1 21.273 0z" transform="matrix(.75075 .75939 .75075 -.75939 -43.808 46.763)"/>
    <path fill="#fff" stroke="#fff" stroke-linecap="round" stroke-width="3" d="M94.98 80.974a10.637 10.637 0 1 1-21.273 0 10.637 10.637 0 1 1 21.273 0z" transform="matrix(.75075 .75939 .75075 -.75939 -104.643 46.548)"/>
    <path fill="#fff" stroke="#fff" stroke-linecap="round" stroke-width="2.814" d="M38.247 22.924v56.964h23.224V22.924z"/>
    <path fill="#fff" stroke="#fff" stroke-linecap="round" stroke-width="3" d="M94.98 80.974c0 5.874-4.762 10.637-10.637 10.637-5.874 0-10.636-4.763-10.636-10.637s4.762-10.637 10.636-10.637c5.875 0 10.637 4.763 10.637 10.637z" transform="matrix(-.75939 .75075 .75939 .75075 52.181 -43.432)"/>
    <path fill="#fff" stroke="#fff" stroke-linecap="round" stroke-width="3" d="M94.98 80.974c0 5.874-4.762 10.637-10.637 10.637-5.874 0-10.636-4.763-10.636-10.637s4.762-10.637 10.636-10.637c5.875 0 10.637 4.763 10.637 10.637z" transform="matrix(-.75939 .75075 .75939 .75075 52.395 -104.266)"/>
    <path fill="none" stroke="#000" stroke-linecap="round" stroke-width="3" d="M83.295 49.064H63.819m-27.115.3H17.228m32.21-12.734V17.155m0 65.317V62.997"/>
</svg>
