<svg xmlns="http://www.w3.org/2000/svg" width="100" height="100">
    <path fill="#fff" stroke="#000" stroke-linecap="round" stroke-width="2.89" d="M81.222 64.377h-60.72V35.362h60.72z"/>
    <path fill="#fff" stroke="#000" stroke-linecap="round" stroke-linejoin="round" stroke-width="3" d="M81.048 35.352c-7.95 0-14.394 6.444-14.394 14.393s6.444 14.393 14.394 14.393c7.948 0 14.392-6.443 14.392-14.393 0-7.948-6.444-14.393-14.392-14.393m-61.422 0c-7.95 0-14.394 6.444-14.394 14.393s6.444 14.393 14.394 14.393c7.948 0 14.392-6.443 14.392-14.393 0-7.948-6.444-14.393-14.392-14.393"/>
    <path fill="#fff" stroke="#000" stroke-width="3.007" d="M70.092 31.376c3.732 2.803 6.318 4.414 11.765 4.19L82 64.329c-4.573.09-8.913 1.245-11.907 4.493-3.086 3.496-4.669 8.19-4.79 12.285H35.94c-.127-4.775-1.368-8.808-3.892-11.985-2.994-3.02-6.155-4.583-12.284-4.491V35.568c4.968-.424 9.396-1.388 11.985-4.192 3.245-1.91 4.435-6.387 4.49-12.284l28.465-.3c-.027 5.78 2.123 9.344 5.388 12.584z"/>
    <path fill="#fff" stroke="#fff" stroke-width="2.731" d="M68.067 33.378c3.39 2.545 6.038 5.207 10.984 5.003l.13 22.825c-4.153.081-8.693 2.63-11.412 5.579-2.803 3.174-4.84 7.737-4.95 11.455l-24.269-.3c-.116-4.336-1.841-8.298-4.133-11.183-2.72-2.742-6.19-5.36-11.756-5.277l.3-23.097c4.512-.385 8.533-2.16 10.884-4.705 2.947-1.734 5.226-6.4 5.277-11.756l22.853-.272c-.024 5.25 3.127 8.786 6.092 11.728z"/>
    <path fill="#fff" stroke="#fff" stroke-linecap="round" stroke-width="2.814" d="M77.226 38.255H20.262v23.224h56.964z"/>
    <path fill="#fff" stroke="#fff" stroke-linecap="round" stroke-width="3" d="M94.98 80.974c0 5.874-4.762 10.637-10.637 10.637-5.874 0-10.636-4.763-10.636-10.637s4.762-10.637 10.636-10.637c5.875 0 10.637 4.763 10.637 10.637z" transform="matrix(-.75075 -.75939 -.75075 .75939 143.582 52.19)"/>
    <path fill="#fff" stroke="#fff" stroke-linecap="round" stroke-width="3" d="M94.98 80.974c0 5.874-4.762 10.637-10.637 10.637-5.874 0-10.636-4.763-10.636-10.637s4.762-10.637 10.636-10.637c5.875 0 10.637 4.763 10.637 10.637z" transform="matrix(-.75075 -.75939 -.75075 .75939 204.416 52.404)"/>
    <path fill="none" stroke="#000" stroke-linecap="round" stroke-width="3" d="M63.52 49.447h19.475m-65.317 0h19.475"/>
</svg>
