<svg xmlns="http://www.w3.org/2000/svg" width="100" height="100">
    <path stroke="#000" stroke-linecap="round" stroke-width="2.89" d="M81.223 64.377h-60.72V35.362h60.72z"/>
    <path stroke="#000" stroke-linecap="round" stroke-linejoin="round" stroke-width="3" d="M81.048 35.352a14.393 14.393 0 1 1 0 28.787 14.393 14.393 0 1 1 0-28.787m-61.422 0a14.393 14.393 0 1 1 0 28.787 14.393 14.393 0 1 1 0-28.787"/>
    <path stroke="#000" stroke-width="3.007" d="M70.092 31.376c3.732 2.802 6.318 4.413 11.765 4.189L82 64.328c-4.573.09-8.913 1.246-11.907 4.493-3.086 3.496-4.669 8.19-4.79 12.285H35.94c-.127-4.775-1.368-8.808-3.892-11.985-2.994-3.02-6.155-4.583-12.284-4.491V35.567c4.968-.424 9.396-1.388 11.985-4.191 3.245-1.91 4.435-6.388 4.49-12.285l28.465-.3c-.027 5.78 2.123 9.344 5.388 12.585z"/>
    <path stroke="#fff" stroke-linecap="round" stroke-width="3" d="M63.52 49.446h19.475m-65.317 0h19.475"/>
</svg>
