<svg xmlns="http://www.w3.org/2000/svg" width="100" height="100">
    <path stroke="#000" stroke-linecap="round" stroke-width="2.89" d="M64.765 19.062v60.72H35.75v-60.72z"/>
    <path stroke="#000" stroke-linecap="round" stroke-linejoin="round" stroke-width="3" d="M35.74 19.237a14.393 14.393 0 1 0 28.787 0 14.393 14.393 0 1 0-28.787 0m0 61.423a14.393 14.393 0 1 0 28.787 0 14.393 14.393 0 1 0-28.787 0"/>
    <path stroke="#000" stroke-width="3.007" d="M31.763 30.193c2.803-3.732 4.414-6.318 4.19-11.765l28.763-.143c.09 4.573 1.245 8.913 4.493 11.907 3.496 3.086 8.19 4.669 12.285 4.79v29.363c-4.775.127-8.808 1.368-11.985 3.892-3.02 2.994-4.583 6.155-4.491 12.284H35.955c-.424-4.968-1.388-9.396-4.192-11.985-1.91-3.245-6.387-4.435-12.284-4.49l-.3-28.465c5.78.027 9.344-2.123 12.584-5.388z"/>
    <path stroke="#fff" stroke-linecap="round" stroke-width="3" d="M49.834 36.765V17.29m0 65.317V63.132"/>
</svg>
