<svg xmlns="http://www.w3.org/2000/svg" width="100" height="100">
    <path fill="#fff" stroke="#000" stroke-linecap="round" stroke-width="2.89" d="M64.765 19.062v60.72H35.75v-60.72z"/>
    <path fill="#fff" stroke="#000" stroke-linecap="round" stroke-linejoin="round" stroke-width="3" d="M35.74 19.237a14.393 14.393 0 1 0 28.787 0 14.393 14.393 0 1 0-28.787 0m0 61.423a14.393 14.393 0 1 0 28.787 0 14.393 14.393 0 1 0-28.787 0"/>
    <path fill="#fff" stroke="#000" stroke-width="3.007" d="M31.763 30.193c2.803-3.732 4.414-6.318 4.19-11.765l28.763-.143c.09 4.573 1.245 8.913 4.493 11.907 3.496 3.086 8.19 4.669 12.285 4.79v29.363c-4.775.127-8.808 1.368-11.985 3.892-3.02 2.994-4.583 6.155-4.491 12.284H35.955c-.424-4.968-1.388-9.396-4.192-11.985-1.91-3.245-6.387-4.435-12.284-4.49l-.3-28.465c5.78.027 9.344-2.123 12.584-5.388z"/>
    <path fill="#fff" stroke="#fff" stroke-width="2.731" d="M33.765 32.218c2.545-3.39 5.207-6.038 5.003-10.984l22.825-.13c.081 4.153 2.63 8.693 5.579 11.412 3.174 2.803 7.737 4.84 11.455 4.95l-.3 24.269c-4.336.116-8.298 1.841-11.183 4.133-2.742 2.72-5.36 6.19-5.277 11.756l-23.097-.3c-.385-4.512-2.16-8.533-4.705-10.884-1.734-2.947-6.4-5.226-11.756-5.277l-.272-22.853c5.25.024 8.786-3.127 11.728-6.092z"/>
    <path fill="#fff" stroke="#fff" stroke-linecap="round" stroke-width="2.814" d="M38.643 23.059v56.964h23.224V23.059z"/>
    <path fill="#fff" stroke="#fff" stroke-linecap="round" stroke-width="3" d="M94.98 80.974c0 5.874-4.762 10.637-10.637 10.637-5.874 0-10.636-4.763-10.636-10.637s4.762-10.637 10.636-10.637c5.875 0 10.637 4.763 10.637 10.637z" transform="matrix(-.75939 .75075 .75939 .75075 52.577 -43.297)"/>
    <path fill="#fff" stroke="#fff" stroke-linecap="round" stroke-width="3" d="M94.98 80.974c0 5.874-4.762 10.637-10.637 10.637-5.874 0-10.636-4.763-10.636-10.637s4.762-10.637 10.636-10.637c5.875 0 10.637 4.763 10.637 10.637z" transform="matrix(-.75939 .75075 .75939 .75075 52.792 -104.13)"/>
    <path fill="none" stroke="#000" stroke-linecap="round" stroke-width="3" d="M49.834 36.765V17.29m0 65.317V63.132"/>
</svg>
