<svg xmlns="http://www.w3.org/2000/svg" width="100" height="100">
    <path stroke="#000" stroke-linecap="round" stroke-width="2.89" d="M63.866 18.477v60.72H34.851v-60.72z"/>
    <path stroke="#000" stroke-linecap="round" stroke-linejoin="round" stroke-width="3" d="M34.84 18.652c0 7.95 6.445 14.394 14.394 14.394s14.393-6.444 14.393-14.394c0-7.948-6.443-14.392-14.393-14.392-7.948 0-14.393 6.444-14.393 14.392m-.001 61.422c0 7.95 6.445 14.394 14.394 14.394s14.393-6.444 14.393-14.394c0-7.948-6.443-14.392-14.393-14.392-7.948 0-14.393 6.444-14.393 14.392"/>
    <path stroke="#000" stroke-width="3.007" d="M30.864 29.608c2.803-3.732 4.414-6.318 4.19-11.765l28.763-.143c.09 4.573 1.245 8.913 4.493 11.907 3.496 3.086 8.19 4.669 12.285 4.79V63.76c-4.775.127-8.808 1.368-11.985 3.892-3.02 2.994-4.583 6.155-4.491 12.284H35.056c-.424-4.968-1.388-9.396-4.192-11.985-1.91-3.245-6.387-4.435-12.284-4.49l-.3-28.465c5.78.027 9.344-2.123 12.584-5.388z"/>
    <path stroke="#fff" stroke-linecap="round" stroke-width="3" d="M48.935 36.18V16.705m0 65.317V62.547"/>
    <path fill="#fff" stroke="#fff" stroke-linecap="round" stroke-width="3" d="M49.288 54.157a4.345 4.345 0 1 1 0-8.689 4.345 4.345 0 1 1 0 8.69z"/>
</svg>
