<svg xmlns="http://www.w3.org/2000/svg" width="100" height="100">
    <path stroke="#000" stroke-linecap="round" stroke-width="2.89" d="M64.368 18.927v60.72H35.353v-60.72z"/>
    <path stroke="#000" stroke-linecap="round" stroke-linejoin="round" stroke-width="3" d="M35.343 19.101a14.393 14.393 0 1 0 28.787 0 14.393 14.393 0 1 0-28.787 0m0 61.423a14.393 14.393 0 1 0 28.787 0 14.393 14.393 0 1 0-28.787 0M4.5 80.13a14.393 14.393 0 1 0 28.788 0 14.393 14.393 0 1 0-28.787 0"/>
    <path stroke="#000" stroke-linecap="round" stroke-width="2.035" d="M61.301 58.48 30.626 89.156 9.868 68.398l30.676-30.675z"/>
    <path stroke="#000" stroke-linecap="round" stroke-linejoin="round" stroke-width="3" d="M95.046 80.374a14.393 14.393 0 1 1-28.787 0 14.393 14.393 0 1 1 28.787 0"/>
    <path stroke="#fff" stroke-linecap="round" stroke-width="3" d="M49.438 36.63V17.155M34.5 64.524 16.426 82.598"/>
    <path stroke="#000" stroke-linecap="round" stroke-width="2.035" d="M40.2 60.583 70.876 91.26l20.757-20.757-30.675-30.676z"/>
    <path stroke="#fff" stroke-linecap="round" stroke-width="3" d="M49.438 82.472V62.997m15.61 1.773 18.074 18.074"/>
</svg>
