<svg xmlns="http://www.w3.org/2000/svg" width="100" height="100">
    <path stroke="#000" stroke-linecap="round" stroke-width="2.89" d="M64.368 80.7V19.98H35.353V80.7z"/>
    <path stroke="#000" stroke-linecap="round" stroke-linejoin="round" stroke-width="3" d="M35.343 80.525c0-7.95 6.444-14.394 14.393-14.394S64.13 72.575 64.13 80.525c0 7.948-6.444 14.392-14.394 14.392-7.948 0-14.393-6.444-14.393-14.392m0-61.422c0-7.95 6.444-14.394 14.393-14.394S64.13 11.153 64.13 19.103c0 7.948-6.444 14.392-14.394 14.392-7.948 0-14.393-6.444-14.393-14.392M4.5 19.499c0-7.95 6.445-14.394 14.394-14.394S33.287 11.55 33.287 19.5c0 7.948-6.443 14.392-14.393 14.392-7.948 0-14.393-6.444-14.393-14.392"/>
    <path stroke="#000" stroke-linecap="round" stroke-width="2.035" d="M61.301 41.147 30.625 10.47 9.868 31.228l30.676 30.676z"/>
    <path stroke="#000" stroke-linecap="round" stroke-linejoin="round" stroke-width="3" d="M95.046 19.252c0-7.95-6.444-14.394-14.393-14.394s-14.394 6.444-14.394 14.394c0 7.948 6.444 14.392 14.394 14.392 7.948 0 14.393-6.444 14.393-14.392"/>
    <path stroke="#fff" stroke-linecap="round" stroke-width="3" d="M49.438 62.997v19.475M34.5 35.103 16.426 17.029"/>
    <path stroke="#000" stroke-linecap="round" stroke-width="2.035" d="M40.2 39.043 70.877 8.367l20.757 20.757L60.958 59.8z"/>
    <path stroke="#fff" stroke-linecap="round" stroke-width="3" d="M49.438 17.155V36.63m15.61-1.773 18.074-18.074"/>
</svg>
