<svg xmlns="http://www.w3.org/2000/svg" xml:space="preserve" width="800" height="800" viewBox="0 0 512 512"><circle cx="256" cy="223.357" r="135.837" style="fill:#f75534"/><path d="M274.808 352.231c-75.021 0-135.837-60.816-135.837-135.837 0-54.88 32.549-102.154 79.392-123.584-56.712 16.319-98.201 68.587-98.201 130.55 0 75.021 60.816 135.837 135.837 135.837 20.14 0 39.254-4.389 56.444-12.252a135.9 135.9 0 0 1-37.635 5.286" style="fill:#bd391e"/><path d="M460.069 433.006H51.931c-4.336 0-5.81-5.768-2.017-7.847 36.279-19.801 131.009-74.585 186.744-135.158a4.14 4.14 0 0 1 3.062-1.348h32.559c1.16 0 2.267.481 3.062 1.348 55.735 60.573 150.465 115.357 186.744 135.158 3.793 2.079 2.32 7.847-2.016 7.847" style="fill:#7fb2f0"/><path d="M270.409 168.396c0 23.583-19.132 42.705-42.715 42.705H86.444s-51.357 3.688-51.357-33.186c0-.888-.094-1.787-.094-2.696 0-19.905 16.133-36.049 36.049-36.049 3.082 0 6.06.387 8.913 1.118 3.072-19.864 20.25-35.067 40.981-35.067 3.897 0 7.649.554 11.222 1.546 5.538-21.044 28.912-38.787 56.414-35.129 27.052 3.594 46.885 31.211 43.144 54.105-.01.042-.01.094-.021.136 9.394.867 17.899 4.786 24.534 10.731 8.705 7.826 14.18 19.163 14.18 31.786" style="fill:#f7ede3"/><path d="M53.892 180.473c0-.822-.087-1.65-.087-2.489 0-17.288 15.727-31.256 33.973-28.068 1.89.33 3.693-.879 4.151-2.742 4.661-18.965 25.153-31.54 44.607-28.074 1.738.309 3.454-.613 4.094-2.258 9.739-25.029 30.514-37.742 54.968-34.49 14.558 1.936 26.839 11.409 33.878 23.158-6.031-16.552-21.627-31.305-40.9-33.868-27.502-3.657-50.876 14.085-56.414 35.129a41.8 41.8 0 0 0-11.222-1.546c-20.731 0-37.909 15.203-40.981 35.067a35.8 35.8 0 0 0-8.913-1.118c-19.916 0-36.049 16.144-36.049 36.049 0 .909.094 1.806.094 2.696 0 36.867 51.357 33.186 51.357 33.186h7.317c-13.379-.664-39.873-5.188-39.873-30.632" style="fill:#dbd2ca"/><path d="M95.877 113.659c-.259.196-.519.391-.774.594.213.05.431.089.643.143.038-.247.089-.491.131-.737" style="fill:#dbd2ca"/><path d="M492.944 257.177c0 23.583-19.132 42.705-42.715 42.705h-141.25s-51.357 3.681-51.357-33.186c0-.89-.094-1.787-.094-2.696 0-19.905 16.133-36.049 36.049-36.049 3.082 0 6.06.387 8.913 1.118 3.072-19.863 20.25-35.067 40.981-35.067 3.897 0 7.649.554 11.222 1.546 5.538-21.044 28.912-38.787 56.414-35.129 27.105 3.605 46.958 31.316 43.123 54.241 21.714 2.016 38.714 20.271 38.714 42.517" style="fill:#f7ede3"/><path d="M319.607 201.559a42 42 0 0 0-2.817 2.172c.775.145 1.543.311 2.302.506.139-.904.318-1.794.515-2.678" style="fill:#dbd2ca"/><path d="M256 288.653c-56.163 60.082-122.253 115.722-179.331 144.353H51.931c-4.336 0-5.81-5.768-2.017-7.847 36.279-19.801 131.009-74.585 186.744-135.158a4.14 4.14 0 0 1 3.062-1.348z" style="fill:#5f95d4"/><path d="M380.75 376.048c-4.859 8.161-9.237 17.115-18.85 17.115-17.648 0-17.648-30.177-35.286-30.177-17.648 0-17.648 30.177-35.297 30.177-17.659 0-17.659-30.177-35.297-30.177-17.648 0-17.648 30.177-35.297 30.177-17.659 0-17.659-30.177-35.297-30.177-2.351 0-4.389.533-6.196 1.473-1.818.93-3.417 2.267-4.859 3.856-7.858 8.662-11.316 24.848-24.242 24.848-2.56 0-4.744-.637-6.666-1.724a7 7 0 0 1-.502-.313c-5.026-3.082-8.234-9.3-11.682-15.099 36.509-24.325 76.267-54.387 105.378-86.026a4.18 4.18 0 0 1 3.062-1.348h32.559a4.18 4.18 0 0 1 3.062 1.348c29.122 31.65 68.891 61.722 105.41 86.047" style="fill:#f7ede3"/><path d="M256.23 136.61c-9.718-4.044-22.434-4.232-34.022.899-7.889 3.5-14.179 9.947-17.575 17.889-5.872 13.74-3.981 27.209 2.591 37.376.627.961-.564 2.069-1.463 1.358-13.019-10.282-19.205-28.839-10.585-47.752 3.396-7.429 9.425-13.375 16.875-16.718 6.541-2.936 13.26-4.138 19.665-3.918-.01.042-.01.094-.021.136 9.394.866 17.9 4.785 24.535 10.73M276.424 269.25c0-.822-.087-1.65-.087-2.489 0-17.288 15.727-31.256 33.973-28.068 1.89.33 3.693-.879 4.151-2.742 4.661-18.965 25.153-31.54 44.607-28.074 1.738.309 3.454-.613 4.094-2.258 9.74-25.029 30.514-37.742 54.968-34.49 14.558 1.936 26.839 11.409 33.878 23.158-6.031-16.552-21.627-31.305-40.9-33.868-27.502-3.657-50.876 14.085-56.414 35.129a41.8 41.8 0 0 0-11.222-1.546c-20.731 0-37.909 15.203-40.981 35.067a35.8 35.8 0 0 0-8.913-1.118c-19.916 0-36.049 16.144-36.049 36.049 0 .909.094 1.806.094 2.696 0 36.867 51.357 33.186 51.357 33.186h7.317c-13.379-.663-39.873-5.186-39.873-30.632M478.762 225.389c-9.718-4.044-22.434-4.232-34.022.899-7.889 3.5-14.179 9.947-17.575 17.889-5.872 13.74-3.981 27.209 2.591 37.376.627.961-.564 2.069-1.463 1.358-13.019-10.282-19.205-28.839-10.585-47.752 3.396-7.429 9.425-13.375 16.875-16.718 6.541-2.936 13.26-4.138 19.665-3.918-.01.042-.01.094-.021.136 9.394.866 17.9 4.784 24.535 10.73M256 288.653c-35.328 37.784-74.574 73.822-113.037 102.473-5.026-3.082-8.234-9.3-11.682-15.099 36.509-24.325 76.267-54.387 105.378-86.026a4.18 4.18 0 0 1 3.062-1.348z" style="fill:#dbd2ca"/><path d="M504.163 440.842H7.837a7.837 7.837 0 0 1 0-15.674h496.327a7.837 7.837 0 1 1-.001 15.674" style="fill:#5f95d4"/></svg>