<svg xmlns="http://www.w3.org/2000/svg" viewBox="-10 0 522 512"><path fill="currentColor" d="M186.255 193.218q0-26.981 19.078-46.06t46.06-19.078q26.98 0 46.058 19.077t19.078 46.06q0 26.98-19.078 46.06-19.078 19.079-46.057 19.078-26.983 0-46.06-19.079-19.077-19.078-19.079-46.059m115.717 76.94q.695-.49 13.709 8.432 11.986 7.077 15.95 10.314 4.036 2.763 13.91 10.65 10.126 8.113 14.366 14.165 9.76 11.948 10.093 12.82 7.667 13.128 8.32 15.658 2.347 11.47 2.267 23.944l-30.92 24.526-54 24-45 6-46-6-43-18-39.47-30.526q.55-20.45 2.271-23.946 3.2-7.528 8.319-15.655 1.58-3.96 10.1-12.822 7.78-7.05 14.364-14.165 10.416-7.886 13.912-10.65 3.504-3.236 15.944-10.313 13.56-8.923 13.71-8.433 36.85 15.51 50.577 14.89 33.273-2.38 50.578-14.89m-51.997-210.13q-53.308-.36-98.82 26.524-44.488 26.115-70.581 70.563-26.907 45.552-26.545 98.94-.362 53.613 26.516 98.783 26.122 44.83 70.573 70.593 45.55 26.237 98.934 26.543 53.615-.306 98.786-26.518 44.83-25.788 70.592-70.572 26.237-45.216 26.543-98.936-.306-53.28-26.518-98.785-25.788-44.495-70.596-70.605-45.192-26.89-98.884-26.53m1.054-28.25q60.848 0 113.065 30.344 51.094 29.692 80.759 80.74 30.37 52.263 30.37 113.2 0 60.817-30.339 113.025-29.696 51.103-80.747 80.77-52.26 30.369-113.197 30.369-60.817 0-113.026-30.34-51.102-29.696-80.769-80.748-30.368-52.26-30.368-113.197 0-60.817 30.34-113.026 29.696-51.101 80.774-80.783 52.232-30.355 113.139-30.355z"/></svg>