<svg xmlns="http://www.w3.org/2000/svg" viewBox="-10 0 522 512"><path fill="currentColor" d="M73.5 205Q63 205 58 198q-4-6-4-15v-46q0-39 39-39h134q0-10-.5-21t3.5-19 18-8 18 8 3.5 19-.5 21h133q22 0 34 7t12 32v46q0 10-4.5 16t-15 6-15.5-7q-4-6-4-15v-33q0-7-3-12t-12-5H108q-7 0-12 4-4 4-3 11v35q0 10-4.5 16t-15 6M411 462q-6 0-16-5t-14-8q-23-13-47-25-23-12-46-23-28 21-61 34t-68 18-69 5q-11 0-19.5-4.5T62 437q0-10 8-16 3-2 11-3 9-1 18-1 9-1 12-1 22-1 46-4t47-10 42-18l-36-14q-18-6-37-11-3-1-14-4l-20-6q-10-4-12-7-5-7-6-15 0-3 5-12 4-10 10-22t12-22q5-10 6-13H73q-10 0-16-4t-6-14.5 6-14.5q7-4 16-4h99l1-1 26-62q3-7 7-11 5-4 13-4 21 0 21 20 0 3-3 11t-8 18q-4 10-8 18-3 8-4 11h212q10 0 15 4 7 4 7 14.5t-7 14.5q-6 4-15 4h-57q-7 30-20 60-12 29-32 53 25 10 50 21 25 12 49 25 7 3 11 8.5t4 13.5q0 23-23 23M282 356q20-20 31.5-45.5T331 258H199q-1 2-5.5 10.5T184 287t-9 17q-3 8-4 9 0 6 8 9t11 3q23 7 46 15z"/></svg>