<svg xmlns="http://www.w3.org/2000/svg" viewBox="-10 0 522 512"><path fill="currentColor" d="M256 485q0-5-5-5-17 0-29-12t-12-29q0-5-5-5-4 0-4 5 0 21 14 35 15 15 36 15 5 0 5-4M65 402h372q-76-85-76-237 0-13-7-30-8-18-20-30-12-14-35-23-21-9-48-9t-48 9q-23 9-35 23-12 12-20 30-7 17-7 30 0 152-76 237m424 0q0 15-11 26t-26 11H324q0 29-21 52-22 21-52 21t-52-21q-21-22-21-52H50q-15 0-26-11t-11-26q13-10 26-25 11-13 25-34 12-21 21-45 7-19 14-59 6-35 6-74 0-43 33-81 33-37 88-45-2-4-2-12 0-12 8-19 8-8 19-8t19 8q8 7 8 19 0 8-2 12 55 8 88 45 33 38 33 81 0 39 6 74 7 40 14 59 9 24 21 45 14 21 25 34 13 15 26 25"/></svg>