<svg xmlns="http://www.w3.org/2000/svg" viewBox="-10 0 524 512"><path fill="currentColor" d="M227 153.182q4 0 14-2 4 0 5-3 2-4 2-6l-24-135q-2-9-10-7-32 5-50 31.5t-12 57.5q4 28 25.5 46t49.5 18m-18-134 20 116-2 1q-22 0-38-14t-20-36 7.5-41 32.5-26m154 132q10 2 14 2 28 0 49.5-18t25.5-46q6-31-12-57.5t-50-31.5q-4 0-6 2-2 1-4 5l-23 135q-2 9 6 9m32-132q21 7 33 26t8 41q-5 22-22 36t-39 13zm99 374h-94l6-33q10 6 16 7 14 3 26-5.5t14-22.5l14-90q5-23-10-44-14-20-38-25l-67-12q-5 0-7 2-3 2-3 5l-31 177q-2 9 6 9 9 2 7 10l-3 22h-57l-2-22q-2-8 7-10 3 0 5-3 2-2 2-6l-31-177q-2-9-10-7l-68 12q-24 5-38 25t-10 44l15 89q3 14 14 22 12 9 26 6 7-1 15-7l6 34h-43v-9q0-9-8-9-9 0-9 9v9H16q-15 0-15 34t15 34h128v25q0 9 9 9 8 0 8-9v-25h56l4 23q2 12 12 20t22 8h6q14-3 22-14.5t6-25.5l-2-11h31l-2 11q-3 13 5 26 8 11 22 14h6q13 0 22.5-8t11.5-20l4-23h73q17 0 30-21t13-39q0-8-9-8m-284-65v-1l-10-58q-2-9-10-7-3 0-5.5 3t-1.5 6l10 58v1q2 7-2 12.5t-11 6.5-13-3q-5-3-7-11l-15-89q-3-17 7-31.5t27-17.5l59-11 29 162q-16 8-13 26l2 19h-35zm-117 82h17v34H93Zm-17 34H59v-34h17zm-57-34h23v34H19q-2-5-2-17t2-17m108 34v-34h17v34zm145 31q2 16-14 20-7 1-12.5-3t-7.5-11l-3-20h34zm-111-31v-34h166l-6 34zm205 37q-4 17-20 14-7-2-11-7-3-6-3-13l18-101q3-18-12-26l28-162 59 11q18 3 27 17 10 15 7 32l-14 91q-4 16-20 13-6 0-11-7-3-4-3-12v-1l11-59q0-8-7-10-8-2-10 7l-11 61v1zm94-37h-70l7-34h87q-2 12-9.5 23t-14.5 11"/></svg>