<svg xmlns="http://www.w3.org/2000/svg" viewBox="-10 0 522 512"><path fill="currentColor" d="M324 256q0 30-21 52-22 21-52 21t-52-21q-21-22-21-52t21-52q22-21 52-21t52 21q21 22 21 52m37 0q0-44-32-78-34-32-78-32t-78 32q-32 34-32 78t32 78q34 32 78 32t78-32q32-34 32-78m36 0q0 61-43 103-42 43-103 43t-103-43q-43-42-43-103t43-103q42-43 103-43t103 43q43 42 43 103m37 0q0-36-15-71-13-34-39-58-24-26-58-39-35-15-71-15t-71 15q-34 13-58 39-26 24-39 58-15 35-15 71t15 71q13 34 39 58 24 26 58 39 35 15 71 15t71-15q34-13 58-39 26-24 39-58 15-34 15-71m36 0q0 62-29 110-30 50-80 80-48 29-110 29t-110-29q-50-30-80-80-29-48-29-110t29-110q30-50 80-80 48-29 110-29t110 29q50 30 80 80 29 48 29 110"/></svg>