<svg xmlns="http://www.w3.org/2000/svg" viewBox="-10 0 532 512"><path fill="currentColor" d="M199 150.808q8-1 24-1 137 1 236 88-91-54-239-54-16 0-28 1 6-29 7-34m265 90q-100-92-243-92-23 0-23.5 1t-7.5 36q12-1 30-1 153 0 244 57zm-324 15q0-49 10.5-88.5t23.5-41.5q21-4 52-3 24 0 48 2.5t56 11.5 61.5 22.5 61.5 38.5 58 58q-32 41-72 69t-80.5 41-72 18-61.5 5l-51-3q-13-2-23.5-41.5t-10.5-88.5m-95-101 85-18-21 37-74-4zm88-19q-8 2-40 8t-49 10q-5 9-10 17l75 4zm-27 120q0 6 2 19l-107-13v-12l107-13q-2 13-2 19m-106-7v14l109 13q-2-14-2-20.5t2-19.5zm109 89 21 37-85-18-10-15zm24 38-24-39-75 4 10 17zm93-254-52 3q-14 2-24.5 42t-10.5 89 10.5 89 24.5 42q20 4 51 3 20 0 39.5-2t45-6.5 51-14.5 51.5-24.5 52-36.5 48-50q-32-41-72-69.5t-80-41.5-71.5-18-62.5-5m-94 253-88-17-9-17 74-4zm-24-139q-2 13-2 20l2 20-108-13v-14zm24-99-23 38-74-4 9-17zm94-15q31 0 62.5 5.5t71.5 18.5 80 41 72 69q-37 47-85.5 77.5t-91 41-80 14-59.5.5l-22-3q-7-1-13-12t-11-29-8-41.5-3-47.5q0-49 11-88.5t24-41.5zm-3 28-25 1-7 34q7 0 18.5-.5t45.5 1 66 6.5 72 17.5 71 31.5q-100-90-241-91"/></svg>