<svg xmlns="http://www.w3.org/2000/svg" viewBox="-10 0 522 512"><path fill="currentColor" d="M7.117 26.265q17.04-13.845 45.795 11.714Q251 208.378 357.499 327.657l-22.365 23.43Q217.985 226.482 7.117 26.264M371.344 341.5l19.17 19.17-24.495 24.495q-8.52-9.585-18.105-20.235zm61.77 0 13.844 13.845-86.264 85.2-13.845-13.845zm-4.26 58.575 66.029 64.964q0 9.585-7.455 17.04t-17.04 7.455l-66.03-64.964 9.585-8.52q-5.325 7.455 0 11.714 6.39 6.39 14.91-3.194-9.585 9.584-3.195 15.974t14.91-4.26q-9.585 9.585-3.195 15.975t15.975-3.195q-9.585 9.585-3.728 15.975t15.443-4.26q-9.585 9.585-3.195 15.975t15.975-3.195 3.727-15.975-16.507 3.195q9.585-9.585 3.727-15.442-5.857-5.858-15.442 3.727 9.585-9.585 3.727-15.442-5.857-5.858-16.507 2.662 9.585-9.584 3.728-15.442-5.858-5.857-15.443 3.728 9.585-9.585 3.195-14.91-4.26-4.26-11.715 0zm66.029-373.811Q284.015 226.483 166.866 351.086l-23.43-22.365Q248.87 209.443 448.023 39.044q29.82-26.624 46.86-12.78M129.59 342.567l23.43 22.365q-8.52 9.585-18.105 20.235l-24.495-24.495zm-60.704 0 85.199 85.2-13.845 13.844-85.199-85.199zm3.195 57.51 9.585 10.65q-7.455-5.325-12.78-1.065-6.39 6.39 4.26 14.91-9.585-9.585-15.975-3.195t3.195 15.974q-9.585-9.585-15.975-3.727-6.39 5.857 4.26 15.442-9.585-9.585-15.975-3.195t3.195 14.91q-9.585-9.585-15.975-3.195t3.728 15.975 15.975 3.727-3.728-16.507q9.585 9.585 15.443 4.26t-2.663-15.975q9.585 9.585 15.442 3.728 5.858-5.858-3.727-16.508 9.585 9.585 15.442 4.26 5.858-5.325-2.662-15.974 9.585 9.584 14.91 3.194 4.26-4.26-1.065-11.714l9.585 8.52-66.03 66.029q-9.585 0-16.507-7.988-6.923-7.987-6.923-16.507z" style="stroke-width:1.06499"/></svg>