<svg xmlns="http://www.w3.org/2000/svg" viewBox="-10 0 523 512"><path fill="currentColor" d="M35.5 430q-6 0-10-4T22 411t3.5-16q4-4 10-4h85V268h-64q-6 0-10-4-4-5-3.5-15.5-.5-10.5 3.5-14.5t10-5h64V123h-76q-6 0-9-4-4-4-4-15t4-15q4-5 9-5h175q6 0 9 5 4 4 4 15t-4 15-9 4h-77v106h65q6 0 9 5 4 4 4 15t-4 15-9 4h-65v123h86q5 0 9 4t4 15-3 16q-4 5-10 4zm302 23q-6 0-9.5-4.5t-3.5-15.5q0-12 4-16t9-4h11q6 0 10-3t5-16v-82h-90q-5 0-9-4t-4-14.5 4-14.5 9-4h90v-63h-71q-5 0-8-4t-3-14 3-14q4-4 8-3h71v-60q-19 2-38 5t-39 3q-6 0-10-4t-4-15q0-8 4-14 1-1 7-2t14-2 17-2 15-1q7 0 8-1 23-3 45-7t45-11l10-4q5-3 10-3 13 0 13 22 0 8-4 11l-8 6q-6 4-14 6-8 3-17 4-9 2-18 3-8 1-15 3v63h65q5 0 8 3 4 4 4 15 0 10-3.5 13.5t-8.5 3.5h-65v63h84q5 0 9 4t3.5 14.5-3.5 14.5q-4 4-9 4h-84v89q0 24-5 38t-20 14z"/></svg>