<svg xmlns="http://www.w3.org/2000/svg" viewBox="-10 0 522 512"><path fill="currentColor" d="M157.375 15.937 222.383 81.5l-66.68 66.114-65.009-65.56zm100.62 56.57 11.517 11.613-109.487 108.557-11.514-11.61zm4.21 45.17q30.284.92 52.436 21.315 22.15 20.393 25.647 50.172l-.654-.091q-.504-.07-.779-.106-15.089-1.951-26.85-1.377-13.577.661-23.59 4.702l6.993 17.33q13.94-5.624 41.053-2.12 14.552 1.881 30.721 6.598-13.79 7.234-28.116 11.407-26.457 7.714-42.63 4.29l-3.872 18.284q13.52 2.862 31.713-.05-24.345 31.944-64.594 31.944-33.207 0-56.813-23.113-23.606-23.114-24.345-56.21zm37.422 30.014q-5.647 0-9.64 3.991t-3.992 9.639q0 5.646 3.992 9.638t9.64 3.992 9.638-3.992 3.99-9.638q0-5.648-3.99-9.639t-9.639-3.991m-55.75 35.102q-5.646 0-9.639 3.991t-3.992 9.639 3.992 9.638q3.993 3.992 9.64 3.992 5.645 0 9.638-3.992 3.99-3.992 3.99-9.638 0-5.648-3.99-9.639-3.993-3.991-9.639-3.991m-162.152 3.284 11.78 66.404 11.703-4.346 47.544 46.75q14.694-16.91 34.446-27.48 29.602 31.26 72.485 31.26 33.117 0 59.655-19.837 9.413 7.363 17.22 16.42l44.35-43.61 40.253 14.95 30.806-36.97 14.358 11.965-30.096 36.112 45.98 38.664-12.027 14.303-55.234-46.445-29.408-10.923-37.805 37.173q18.24 29.347 18.24 64.12 0 50.4-35.538 85.938t-85.938 35.538-85.937-35.538-35.537-85.938q0-35.026 18.505-64.532l-40.95-40.267-41.51 15.42-39.276-47.13 14.358-11.964 30.808 36.97 10.743-3.99-12.38-69.753zm215.84 162.727q-5.647 0-9.639 3.991-3.99 3.992-3.99 9.64 0 5.646 3.99 9.638 3.992 3.992 9.64 3.992 5.646 0 9.638-3.992 3.99-3.992 3.99-9.638 0-5.648-3.99-9.64-3.992-3.991-9.639-3.991m-1.65 54.512q-5.647 0-9.639 3.991-3.99 3.99-3.99 9.637t3.99 9.639 9.64 3.99 9.637-3.99q3.99-3.99 3.99-9.637t-3.99-9.639-9.638-3.991m-16.52 43.774q-5.647 0-9.639 3.991t-3.99 9.639q0 5.646 3.99 9.639t9.64 3.992 9.639-3.992 3.99-9.64-3.99-9.638-9.64-3.991"/></svg>