<svg xmlns="http://www.w3.org/2000/svg" viewBox="-10 0 522 512"><path fill="currentColor" d="M251 77.328-5.499 172.693 251 300.943l121.672-61.385-113.999-35.077q-4.385 2.192-7.673 2.192-17.538 0-17.538-17.538T251 171.597l-3.288 9.865 20.826 5.48q12.058 0 21.375 9.318t9.318 21.375q0 13.154-9.318 21.923t-21.375 8.769l29.596 9.865 171-8.769v13.154q-7.674 5.48-7.674 14.25t7.673 14.25q-7.673 30.692-7.673 126.057 13.154 8.769 17.539 8.769 4.384 0 17.538-8.77 0-95.364-7.673-126.056 7.673-5.481 7.673-14.25t-7.673-14.25v-28.5l-64.673-19.73 83.308-41.654ZM101.924 251.615l-14.25 86.596q37.269 4.385 94.269 39.461 29.596 19.731 48.23 36.173 8.77 6.577 20.827 20.827 12.058-14.25 20.827-20.827 18.634-16.442 48.23-36.173 57-35.076 95.365-39.46l-15.346-86.597H393.5L251 322.865l-142.5-71.25Z"/></svg>