<svg xmlns="http://www.w3.org/2000/svg" viewBox="-10 0 523 512"><path fill="currentColor" d="M235.5 255.5q0-27-20-47-19-19-46-19-28 0-47 19-20 22-19.5 47t19.5 47q19 19 47 19 27 0 46-19 20-20 20-47m197 131q0-14-10-22-9-10-23-10t-23 10q-10 10-10 22 0 14 10 24 9 10 23 10 13 0 23-10t10-24m0-262q0-14-10-24-11-10-23-10-14 0-23.5 10t-9.5 24q0 12 10 23 9 9 23 9t23-9q10-9 10-23m-99 108v47q0 4-2 5-2 3-4 3l-39 6q-5 13-9 20 20 25 23 29 2 4 2 6 0 3-2 4-2 3-20 24-17 15-21 15-2 0-6-2l-29-23q-13 5-20 8-3 28-5 39-2 6-8 7h-48q-2 0-6-2 0-1-.5-2.5t-1.5-2.5l-6-39q-8-3-20-8l-29 23q-4 2-6 2-3 0-5-3-37-34-37-40 0-2 2-6 3-4 11-13 3-4 7-9.5l4-5.5q-8-18-9-22l-38-6q-3 0-5-2t-2-6v-47q0-4 2-5 2-3 4-2l40-7q3-8 8-20-20-25-23-29-2-4-2-6 0-3 2-4 2-3 21-24 17-15 20-15 2 0 6 2-1 0 29 23 5-3 20-8 3-27 6-39 3-6 8-7h48q2 0 5 2 3 3 3 5l5 39q8 3 20 8-1 0 29-23 4-2 6-2 3 0 5 3 37 33 37 40 0 4-2 6-3 4-10 13-2 4-4.5 6.5t-4.5 5.5-3 4l9 21q-1 0 39 6 1 1 2 1.5t2 .5q2 2 2 6m165 136v36q0 4-38 9-1 2-2.5 4.5t-3 4.5-2.5 4q14 30 13 35l-1 2-32 19q-2 0-12-13-4-4-7.5-9.5t-5.5-7.5h-16q-2 2-6 8t-7 9q-10 13-12 13-11-6-31-19-2 0-2-2 0-5 13-35l-8-13q-37-4-37-9v-36q0-4 37-8 5-9 8-12-14-30-13-36l2-2q4-2 9-5l7.5-5 6.5-4 8-4q2 0 12 12 3 4 5.5 7t5 6.5 2.5 4.5q4-1 8-1t8 1q8-11 23-29l2-1q1 0 32 18 0 1 .5 1t.5 1q0 6-13 36 3 4 8 12 38 4 38 8m0-262v36q0 4-38 8-7 11-8 12 14 30 13 36 0 1-.5 1t-.5 1q-4 3-8 5t-7.5 4-6 3.5-4.5 2-3 1.5-2 1l-1 1q-3 0-12-12-3-4-5.5-7t-4.5-6.5-3-4.5q-4 1-8 1t-8-1q-1 1-3 4.5t-4.5 7-5.5 6.5q-9 12-12 12-11-6-31-18l-2-2q0-6 13-36-3-4-8-12-37-4-37-8v-36q0-4 37-8 4-8 8-14-14-30-13-35 0-2 2-2 0-1 9-5 2-2 14-9l8-4q3 0 12 12 3 4 7.5 9.5t5.5 7.5h16q14-17 23-29h2q3 0 32 18 1 1 1 2 0 5-13 35 4 5 8 14 38 4 38 8"/></svg>