<svg xmlns="http://www.w3.org/2000/svg" viewBox="-10 0 522 512"><path fill="currentColor" d="M197.558 364.308q-8.31 0-12.086-6.043-3.021-5.287-3.021-12.841V306.9H130.33q-15.863 0-15.863-15.108 0-7.553 4.532-10.575 4.532-3.777 11.33-3.777h52.122V164.134q-12.842 27.193-31.726 52.12-18.885 24.928-39.28 46.079-3.021 3.021-10.575 11.33-6.799 7.554-15.863 15.863-8.31 7.554-16.618 13.597-7.554 6.043-12.842 6.043-7.553 0-11.33-3.777-5.288-4.532-5.288-13.597 0-6.043 3.4-9.82 3.398-3.776 7.93-7.553 22.662-16.619 45.323-38.525 23.417-22.66 42.301-47.588 19.64-25.683 31.726-51.366H63.101q-7.554 0-13.219-3.4-5.665-3.398-5.665-11.707 0-9.065 5.287-12.086 6.043-3.022 13.597-3.022h119.35V62.913q0-7.554 3.776-13.597 3.022-6.043 12.086-5.287 9.065 0 11.331 5.287 3.022 5.288 3.022 13.597v43.812h123.126q7.554 0 13.597 3.022t6.043 12.086q0 8.309-6.043 12.086-5.288 3.776-13.597 3.021H223.24q12.841 27.194 31.726 52.121 19.64 24.928 42.3 46.078 23.417 21.15 48.345 36.258 5.287 3.022 9.82 7.554 4.532 3.777 3.777 10.575 0 8.31-3.777 12.842t-12.086 4.532q-6.043 0-14.352-4.532-8.31-5.288-16.619-12.842t-15.863-14.352l-11.33-11.33q-21.906-21.907-39.28-46.834-18.129-24.927-33.236-52.121V277.44h55.142q15.863 0 15.863 15.108 0 7.553-4.532 10.575-3.777 3.777-11.331 3.777h-55.142v38.524q0 7.554-3.022 12.841-3.021 6.043-12.086 6.043M359.359 401.885l-7.083 68.321 42.493-52.074 40.41 18.33 41.66-143.725zm117.48-109.148-213.297 87.485 50.408 9.998 38.326 79.986-27.495-79.986z"/></svg>