<svg xmlns="http://www.w3.org/2000/svg" viewBox="-10 0 522 512"><path fill="currentColor" d="M425 410q0-7-4.5-11.5T410 394H92q-6 0-10.5 4.5T77 410v19q0 7 4.5 11.5T92 445h318q6 0 10.5-4.5T425 429ZM121 197q-4-4-11-4-15 0-17 16v150h1q0 6 4.5 10.5T110 374h282v-1q14 0 16-14h1V209q0-7-5-12t-12-5q-6 0-10 4h-1v1l-1 1-36 35-81-81q-5-5-12-5t-12 5l-82 81-34-35h-1zm248 43h-1zM140 139q0 13-9 22t-22 9-22-9-9-22 9-22 22-9 22 9 9 22m282 0q0 13-9 22t-22 9-22-9-9-22 9-22 22-9 22 9 9 22M284 98q0 13-9 22t-22 9-22-9-9-22 9-22 22-9 22 9 9 22"/></svg>