<svg xmlns="http://www.w3.org/2000/svg" viewBox="-10 0 522 512"><path fill="currentColor" d="M379 420.5q0-6-5-13-7-5-13-5-8 0-13 5-6 6-6 13t6 13q5 5 13 5 6 0 13-5 5-7 5-13m73 0q0-6-5-13-7-5-13-5t-13 5q-5 5-5 13t5 13q7 5 13 5t13-5q5-7 5-13m37-64v91q0 12-8 20-10 8-20 8H41q-10 0-20-8-8-8-8-20v-91q0-11 8-19t20-8h133l38 38q16 16 39 16t39-16l39-38h132q12 0 20 8t8 19m-93-163q5 13-4 20l-128 128q-6 6-13 6t-13-6l-128-128q-9-7-4-20 5-11 17-11h73v-128q0-7 6-13 5-5 12-5h74q7 0 12 5 6 6 6 13v128h73q12 0 17 11"/></svg>