<svg xmlns="http://www.w3.org/2000/svg" viewBox="-10 0 522 512"><path fill="currentColor" d="M270 18.026q34-1 59 17.5t28 45.5q4 37-31 62l-3 2-1 2-8 23-72 6-17-20-1-1-2-1q-40-18-43-54-3-29 20.5-53t60.5-28h1q5-1 9-1m46 49q-10 0-17 7t-7 17 7 17 17 7 17-7 7-17-7-17-17-7m-86 9q-10 0-17 7t-7 17 7 17 17 7 17-7 7-17-7-17-17-7m41 36-17 42 41-4zm-164 7q25 0 59 5 13 30 46 46l19 22 2 2 3 32 18-1-2-31 19-2 2 31 19-2-3-30 21-2 3 30 18-2-2-32 1-3 9-26q18-14 28-33 68 5 118 44-1 45-2 63t-4 47-8.5 44-15 33-24.5 34q6-79-5-111-2 46-45 114l9-114q-14 33-54 50 23-34 19-67-37 20-46.5 62.5t2.5 81.5 34 60q-19 7-46.5-7t-34.5-35q-3 8-4.5 17.5t-1.5 16v18.5q1 12 1 18l-36-60-26 61-7-102q-20 64-67 103l21-67-47 50q15-77 53-130 19-27 21-74l-28 45-5-46-52 92 8-82q-39 82-59 97 7-32 5-71.5t-5.5-60.5-9.5-52.5-8-48.5q4-2 19.5-11t31-12.5 39.5-3.5"/></svg>