<svg xmlns="http://www.w3.org/2000/svg" viewBox="-10 0 532 512"><path fill="currentColor" d="M475 170q0-23-6-41-7-18-15-28-8-8-24-17-14-6-27-9-16-2-28-2-11 0-32 7-20 9-31 19-9 6-25 20-4 4-9.5 10t-7.5 8q-4 6-14 6t-14-6q-2-2-7.5-8t-9.5-10q-16-14-25-20-11-10-31-19-21-7-32-7-12 0-28 2-13 3-27 9-16 9-24 17-8 10-15 28-6 18-6 41 0 49 53 102l166 160 166-160q53-53 53-102m37 0q0 62-65 129L269 470q-5 5-13 5t-13-5L65 298q-1 0-3.5-2.5L57 291q-5-6-16-19-10-12-19-28-8-13-15-34-7-20-7-40 0-62 36-98 35-35 101-35 17 0 36 6t34 16q14 9 27 20 12 9 22 19 10-10 22-19 13-11 27-20 15-10 34-16t36-6q66 0 101 35 36 36 36 98"/></svg>