<svg xmlns="http://www.w3.org/2000/svg" viewBox="-12 0 534 512"><path fill="currentColor" d="m121 249.773-85 68 35 7 75-63q64-1 122.5-15.5t84.5-28.5l26-14-51-44q90-7 113 4 57-30 71-156-39-6-73-6.5t-63 4.5-52.5 11.5-45 21-37 25.5-32 32-26.5 34.5-23 39-19.5 39.5-19.5 41m38-15-2-1q18-19 41.5-40t69-58.5 101.5-66.5 108-40q-81 28-318 206m31 148h-32q0-13-9.5-22.5t-22.5-9.5H94q-14 0-23 9.5t-9 22.5H30q-14 0-23 9.5t-9 22.5v64q0 13 9.5 22.5t22.5 9.5h160q13 0 22.5-9.5t9.5-22.5v-64q0-13-9.5-22.5t-22.5-9.5"/></svg>