<svg xmlns="http://www.w3.org/2000/svg" viewBox="-10 0 522 512"><path fill="currentColor" d="M81.5 146.273q-9 0-15-4t-5.5-13 5.5-13q6-4 15-4h145q0-7-1-15 0-9 1-17t5-12q5-5 15.5-5.5t14.5 4.5q5 5 6 13t0 16v16h153q9 0 15 4t6 13.5-6 13-15 3.5zm118 303q-10 0-16-5t-6-15q0-11 5-15t13-4h15q9 0 15-3 7-3 6-14v-87h-87q-19 0-29-7t-11-28v-59q0-35 35-36h223q35 0 35 36v59q0 35-35 35h-93v99q0 21-8 32.5t-31 11.5zm-43-176h189q15 0 15-15v-34q0-15-15-15h-189q-15 0-15 15v34q0 15 15 15m-82 155q-10 0-14-6-4-5-4-14 0-7 6-12 7-6 11-10 15-11 29.5-22t27.5-23q3-3 8-7.5t10-8.5q6-4 10-4 8 0 13 4t6 13q0 6-9 17t-22 23-27.5 24-26.5 19-18 7m351-2q-6 0-18-7t-26-18-27-23-21-22-8-15q0-18 18-18 4 0 9 4 6 4 11 8t8 6q12 10 23.5 19.5t24.5 17.5q4 2 10 7 6 4 11 9.5t5 10.5q0 9-5 15t-15 6"/></svg>