<svg xmlns="http://www.w3.org/2000/svg" viewBox="-10 0 532 512"><path fill="currentColor" d="M73 393v55q0 3-3 6-2 3-6 3H9q-3 0-6-3t-3-6v-55q0-4 3-7 4-2 6-2h55q4 0 6 2 3 3 3 7m0-110v55q0 4-3 6-2 3-6 3H9q-3 0-6-3-3-2-3-6v-55q0-3 3-6t6-3h55q4 0 6 3 3 3 3 6m0-110v55q0 4-3 7-1 2-6 2H9q-4 0-6-2-3-3-3-7v-55q0-3 3-6t6-3h55q4 0 6 3 3 3 3 6m439 220v55q0 3-3 6t-6 3H119q-4 0-7-3-2-4-2-6v-55q0-3 2-7 4-2 7-2h384q2 0 6 2 3 3 3 7M73 64v55q0 3-3 6-2 3-6 3H9q-3 0-6-3t-3-6V64q0-4 3-7 2-2 6-2h55q5 0 6 2 3 3 3 7m439 219v55q0 4-3 6-3 3-6 3H119q-4 0-7-3-2-2-2-6v-55q0-2 2-6 3-3 7-3h384q3 0 6 3t3 6m0-110v55q0 4-3 7-2 2-6 2H119q-5 0-7-2-2-4-2-7v-55q0-2 2-6 3-3 7-3h384q3 0 6 3t3 6m0-109v55q0 3-3 6t-6 3H119q-4 0-7-3-2-4-2-6V64q0-3 2-7 2-2 7-2h384q4 0 6 2 3 3 3 7"/></svg>