<svg xmlns="http://www.w3.org/2000/svg" viewBox="-10 0 522 512"><path fill="currentColor" d="M487 191v209q0 17-12 29t-31 12H58q-18 0-30.5-12T15 400V191q9 10 27 23 107 73 131 90 4 3 9.5 7t8.5 6l6 4q14 7 25 13 19 6 29 6.5t29-6.5q11-6 25-13l6-4 9-6 9-7q85-59 131-90 18-13 27-23m0-78q0 19-13 40-11 17-33 32-90 63-123 86l-2 2q-2 1-4 2.5t-5 3.5-14 10q-6 3-13 8l-15 8q-11 2-14 2t-14-2q-2-1-3.5-2t-3-1.5-4-2-4.5-2.5q-8-6-13-8-11-8-14-10t-5-4-4-2l-2-2q-9-6-32.5-22.5T115 223q-13-8-26-17.5t-19.5-14T61 185q-17-11-31-30-15-18-15-36 0-20 11.5-34T58 71h386q17 0 30 12.5t13 29.5"/></svg>