<svg xmlns="http://www.w3.org/2000/svg" viewBox="-10 0 532 512"><path fill="currentColor" d="M.826 3.741q0 1 .5 3t1 5 .5 5q2 35 21 72 13 27 35 47 24 24 57 43t104 49q68 28 100 47 41 24 41 28l-5-3q-6-2-11-4-34-10-112-24-101-18-144-36-28-12-43-21-8-5-8-4 2 5 4 11 28 73 110 96 31 8 108 17 78 7 108 16l9 3h-18q-25 0-70 7-55 6-82 7-39 2-82-8l-9-4q-1 1 8.5 13.5t16.5 19.5q23 23 57 34 10 2 34 2 31 0 83-12 62-12 68-12 4-1 15-1l6-1-9 3q-26 11-50 25-60 34-103 37l-13 2 10 8q21 16 37 22 3 1 22 5 19 1 36-7t53-35q29-21 39-24 14-5 26 1 16 9 16 27v9q-1 2-2 0l-1-3q-5-10-15.5-13.5t-19.5 2.5q-18 9-11 29 1 3 7 11 14 14 33 13.5t32-15.5q25-24 7-54-10-14-20-18l-12-6q-14-11-15-15 16 5 32.5-2t23.5-23q10-22-3-42-11-20-37-22-13 0-21 5-13 11-6 24 8 19 27 12 11-5 12-12 1-2 2 5-3 18-17 26-14 6-29 0-8-5-14-15-3-12-3-20-6-31-15-48-15-32-49-60-36-29-129-77-90-47-132-74.5t-76-63.5l-15-15q-1 0-1 3"/></svg>