<svg xmlns="http://www.w3.org/2000/svg" viewBox="-10 0 532 512"><path fill="currentColor" d="M158 256q-43 1-71 34H52q-23 0-37-11-15-11-15-31 0-94 33-94 3 0 12 5 8 6 26 12 17 5 31 5 18 0 36-6-1 7-1 18 0 36 21 68m286 170q0 32-20 50-19 19-51 19H139q-32 0-51-19-20-18-20-50 0-5 .5-14.5T69 398q2-18 4-29 4-20 7-29 2-5 11-26 7-11 17-21 9-9 23-15 15-5 30-5 2 0 11 6 12 8 19 13 19 10 29 12 18 6 36 6t36-6q10-2 29-12 7-5 19-13 9-6 11-6 15 0 30 5 14 6 23 15 10 10 17 21 9 21 11 26 3 9 7 29 2 11 4 29 0 4 .5 13.5t.5 14.5M171 85q0 27-20 49-22 20-49 20-28 0-48-20-20-22-20-49 0-28 20-48t48-20q27 0 49 20 20 20 20 48m187 103q0 42-30 72t-72 30-72-30-30-72q0-43 30-73t72-30 72 30 30 73m154 60q0 20-15 31-14 11-37 11h-35q-28-33-71-34 21-32 21-68 0-11-1-18 18 6 36 6 14 0 31-5 18-6 26-12 9-5 12-5 33 0 33 94M478 85q0 27-20 49-20 20-48 20-27 0-49-20-20-22-20-49 0-28 20-48 22-20 49-20 28 0 48 20t20 48"/></svg>