<svg xmlns="http://www.w3.org/2000/svg" viewBox="-10 0 522 512"><path fill="currentColor" d="M229.015 33.52q21.6 0 34.56 15.66t11.88 34.56-14.04 29.7q-10.8 9.72-7.56 23.22t17.28 19.98l135-35.64 25.92 93.96-5.4-17.28q4.32 18.36-2.7 28.08t-18.36 8.64-18.9-6.48q-6.48-5.4-16.2-5.94t-18.36 3.78-13.5 16.2.54 31.32q6.48 23.76 21.06 33.48t27 6.48 15.66-11.88q5.4-15.12 21.06-21.06t26.46 5.94l30.24 110.16-115.56 31.32q1.08 0 3.239-1.08l-5.4 1.08q-12.96 3.24-17.28-5.4t-2.7-18.36 4.86-11.88q5.4-7.56 5.94-22.14t-11.34-28.62-31.32-14.04q-6.48 0-12.96 2.16-23.76 6.48-32.94 24.3t-5.4 34.02 12.42 19.44q10.8 4.32 18.9 10.8t8.1 15.66-14.04 15.66l-111.24 29.16-27-101.52q-12.96-9.72-28.08-4.32t-16.2 11.88q-2.16 10.8-18.36 17.82t-35.1.54-25.38-30.24q-4.32-14.04-1.08-27t10.8-19.44 16.2-11.88 16.2-4.86 11.88 2.7q11.88 10.8 29.16 8.1t20.52-15.66l-27-101.52 102.6-28.08q4.32-9.72 3.78-19.98t-3.78-18.36-5.4-8.1q-12.96-2.16-21.6-21.6t-.54-41.04 35.1-29.16q8.64-2.16 16.2-3.24zm133.92 394.2-4.32 1.08 6.48-1.08zm61.56-236.52 2.16 6.48z"/></svg>