<svg xmlns="http://www.w3.org/2000/svg" viewBox="-10 0 522 512"><path fill="currentColor" d="M470 256q0 47-17 85-20 44-47 70-26 27-70 47-38 17-85 17-52 0-93-20-43-20-76-59-2-4-2-6 0-3 3-6l39-39q3-3 7-3 1 0 7 3 19 28 51 42 30 15 64 15 29 0 57-11 28-12 46-32 20-18 32-46 11-28 11-57t-11-57q-12-28-32-46-18-20-46-32-28-11-57-11-30 0-54 10-27 11-45 29l39 39q9 9 4 20-6 11-17 11H50q-8 0-13-5t-5-13V73q0-11 11-17 11-5 20 4l37 37q29-28 70-45 39-15 81-15 47 0 85 17 44 20 70 47 27 26 47 70 17 38 17 85"/></svg>