<svg xmlns="http://www.w3.org/2000/svg" viewBox="-10 0 522 512"><path fill="currentColor" d="M150.804 35.058q39.738 0 67.87 28.13 28.13 28.132 28.13 67.87-.007 29.549-16.63 53.979l-47.04.171-2.248 5.653q-6.34 15.952-15.906 35.06-7.042 1.094-14.176 1.136-39.737 0-67.87-28.13-28.13-28.133-28.13-67.87 0-39.739 28.13-67.869 28.134-28.13 67.87-28.13m43.757 167.884H322.87l2.146 5.945q10.384 28.783 31.09 65.197 20.705 36.414 34.412 56.936t49.538 70.421q35.83 49.9 43.859 61.33l9.952 14.171H8.133l13.771-15.07q108.49-118.73 170.253-253.676zm-7.83 56.92Q131.99 364.26 48.485 458.943h410.527q-7.778-10.914-27.118-37.658t-29.546-41.28q-10.205-14.539-25.218-36.676t-26.474-41.42q-11.46-19.283-20.973-37.939l2.865 43.973-39.615-48-24.385 64-7.22-64-24.78 48-21.465-43.785-19.666 43.786z"/></svg>