<svg xmlns="http://www.w3.org/2000/svg" viewBox="-10 0 522 512"><path fill="currentColor" d="M470 274.5q0 47-17 85-20 44-47 70-26 27-70 47-38 17-85 17t-85-17q-44-20-70-47-27-26-47-70-17-38-17-85 0-53 23-98 22-46 64-77 13-10 28-7 15 2 23 14 10 12 7 27-1 15-14 24-29 23-43 52-15 30-15 65 0 29 11 57 12 28 32 46 18 20 46 32 28 11 57 11t57-11q28-12 46-32 20-18 32-46 11-28 11-57 0-35-15-65-14-29-43-52-13-9-14-24-3-15 7-27 8-13 24-14 14-3 27 7 42 31 64 77 23 45 23 98m-182-219v182q0 15-11 26-13 11-26 11t-26-11q-11-11-11-26v-182q0-15 11-26 13-11 26-11t26 11q11 11 11 26"/></svg>