<svg xmlns="http://www.w3.org/2000/svg" viewBox="-10 0 522 512"><path fill="currentColor" d="M248.929 468.056q-11 0-16-8-4-7-4-17v-51h-69q-21 0-21-20 0-10 6-14 6-5 15-5h69v-150q-17 36-42 69t-52 61q-4 4-14 15-9 10-21 21-11 10-22 18-10 8-17 8-10 0-15-5-7-6-7-18 0-8 4.5-13t10.5-10q30-22 60-51 31-30 56-63 26-34 42-68h-141q-10 0-17.5-4.5t-7.5-15.5q0-12 7-16 8-4 18-4h158v-58q0-10 5-18 4-8 16-7 12 0 15 7 4 7 4 18v58h163q10 0 18 4t8 16q0 11-8 16-7 5-18 4h-149q17 36 42 69 26 33 56 61 31 28 64 48 7 4 13 10 6 5 5 14 0 11-5 17t-16 6q-8 0-19-6-11-7-22-17t-21-19l-15-15q-29-29-52-62-24-33-44-69v149h73q21 0 21 20 0 10-6 14-5 5-15 5h-73v51q0 10-4 17-4 8-16 8"/></svg>