<svg xmlns="http://www.w3.org/2000/svg" viewBox="-10 0 522 512"><path fill="currentColor" d="M294.687 18.655q34.99-.136 47.096 28.814 12.477-8.567 22.383 3.587 9.904 12.155-1.57 22.568 36.975 24.598 46.094 73.188-8.82-19.717-36.01-31.063-27.188-11.346-52.395-2.875t-27.252 39.093q2.483 64.758 41.091 124 27.744 42.57 68.732 72.865T488.625 390v19.217q-65.074-14.322-119.906-64.094 1.505 9.433-4.62 16.263-6.128 6.83-17.066 4.145-16.911-4.288-15.215-20.429t16.966-16.29q1.843-.002 3.592.312-19-20.062-33.907-42.938-52.17-80.053-42.811-167.372l-.906-1.75q-27.39 62.632-18.812 134.345 11.84 1.26 18.873 12.25 7.83 12.223 2 24.53 9.49-.044 14.97 9 6.432 10.63.039 20.415-6.392 9.785-16.696 9.271 22.72 57.837 64.896 102.48 42.175 44.64 93.509 63.991h-43.28q-45.57-26.478-81.094-70.726-35.526-44.248-54.842-97.9-3.702-10.272-6.72-20.78-10.38-1.884-16.938-12.125-6.461-11.606-4.05-20.856 2.41-9.25 11.112-14.957-10.311-81.566 22.406-152.03Q194.634 181.997 204 294.125q5.026 60.174 32.255 113.637 27.228 53.463 69.9 85.584H277q-38.858-35.847-62.835-87.968-23.98-52.12-28.791-109.72-.91-10.917-1.06-22.25-9.502 7.49-22.432 6.093T140 266.252q-.067.346-.278 1.413t-.316 1.65q-10.975 60.767 1.716 120.796t46.283 103.234h-23.156q-15.787-23.014-26.686-50.156-4.73 2.312-10.72 2.187-12.16-.257-16.705-9.257t.143-18.507q4.69-9.506 15.342-11.08-17.596-68.742-4.625-140.562 6.978-38.64 22.563-73.344-13.536.157-15.655-7.438-2.01 19.155-16.706 24.283t-24.544-3.283q-10.96 17.418-19.75 36.03-11.358 24.018-19.063 49.94 5.838-1.844 12.062-1.875 18.543-.086 30.902 13.435t7.224 34.441q-5.642 22.974-27.054 29.89-21.412 6.92-36.51-4.58-5.666 71.127 18.096 129.876H32.47q-27.52-74.02-13.093-161.127.255-4.406 1.407-9.093.286-1.17.782-2.813 5.979-29.9 16.75-58.437-13.395 1.757-24.94-5.375V138.438q14.195-17.118 36.19-17.625.21-.005.613.006 12.378.01 22.947 5.148 6.888-5.83 14.063-11.28-.548-.856-.594-.938-9.041-15.656 5.092-26.914Q105.822 75.58 117 88.625q5.27-16.22 21.186-22.84 15.918-6.618 30.002 3.623 7.03-13.252 24.186-7.44.206-.057.6-.175 1.318-15.749 21.817-21.616t36.74 7.54q3.926-13.865 15.964-21.433t27.19-7.627zm-138.625 2q.305-.017.905 0 10.246.218 13.093 11.035 2.846 10.82-7.968 17.09-8.353 4.59-14.794-.146-6.44-4.736-6.17-13.16t8.214-12.789q3.403-1.87 6.72-2.03M420.217 43.53q9.192.194 12.69 7.528 3.5 7.334-.765 14.504t-13.926 6.968q-9.53-.202-12.74-7.53-3.21-7.33 1.233-14.495 4.444-7.165 13.507-6.975M49.342 72.872q7.982-.283 12.656 7.813 5.063 8.77.404 16.471t-12.454 7.718q-7.795.015-13.544-7.689-4.904-8.494-.074-16.258t13.012-8.055m69.906 42.282q-4.533 6.207-11.968 8.03-10.262 7.244-18.907 14.375 7.917 9.011 10.25 20.78 13.896-16.473 29.875-30.936-4.616-4.008-7.97-9.813-.517-.897-1.28-2.436m57.594 5.093q-6.078 8.18-15.5 12.063 6.401 4.32 10.593 10.811 5.706-7.963 11.97-15.5-3.939-3.295-7.063-7.374m240 51.593q.6-.015 1.22 0 12.936.274 17.862 10.59 4.925 10.312-1.076 20.395t-19.6 9.795q-13.197-.276-17.783-10.31-4.586-10.036 1.262-20.088t18.115-10.382m-244.187 4.625q-8.549 15.003-15.158 30.94 5.107-1.474 10.063-1.375 12.356.242 21.5 9.25 2.293-12.693 5.72-25.124-17.027 1.947-22.126-13.69zm280.47 42.22q8.887.186 12.26 7.267 3.374 7.082-.758 14.006-4.13 6.923-13.472 6.727-9.212-.193-12.307-7.269t1.21-13.996 13.067-6.735"/></svg>