<svg xmlns="http://www.w3.org/2000/svg" viewBox="-10 0 532 512"><path fill="currentColor" d="M466 299V123q-49 26-87 26-24 0-41-10-28-13-53-21-21-8-51-8-49 0-115 36v171q72-32 124-32 11 0 29 2 10 1 28 7 6 2 13 5t9 4l6 3 8.5 4 9.5 5 8 4q12 6 29 6 33 0 83-26M82 73q0 12-5 18-4 8-13 14v361q0 3-2 7-2 2-7 2H37q-5 0-7-2t-2-7V105q-8-6-14-14-5-8-5-18 0-15 11-26 10-10 26-10t26 10 10 26m421 18v218q0 11-10 17-4 2-5 2-61 33-105 33-26 0-45-10l-8-4q-17-8-29-13-8-4-26-9-20-4-32-4-26 0-68 13-37 12-65 29-5 3-9 3t-9-3q-10-4-10-16V135q0-9 9-15 14-8 23-12 1-1 32-15 24-10 44-14 23-6 44-6 31 0 60 9 30 10 60 25 12 5 25 5 34 0 89-32 6-3 8-5 9-5 18 1t9 15"/></svg>