<svg xmlns="http://www.w3.org/2000/svg" viewBox="-10 0 532 512"><path fill="currentColor" d="M256 73.5q-60 0-109 20-50 19-81 53-29 35-29 73 0 34 20 61 22 30 58 50l24 14-7 28q-8 26-20 49 45-18 78-49l13-11 16 2q13 2 37 2 60 0 109-20 50-19 81-53 29-35 29-73t-29-73q-31-34-81-53-49-20-109-20m256 146q0 51-34 92-34 42-93 66-59 25-129 25-13 0-41-2-57 49-132 69-12 3-32 6h-2q-3 0-8-3-2-2-4-8-1-1 0-4v-2q0-1 2-3l1-3 2-2 3-3 1-2q2-1 4-3.5t3-4.5l10-10q1-1 4-5t5-7q5-7 9-14 3-4 8-17 2-4 4.5-11.5l3.5-10.5q-46-26-71-63-26-38-26-80 0-51 34-92 34-42 93-66 59-25 129-25t129 25q59 24 93 66 34 41 34 92"/></svg>