<svg xmlns="http://www.w3.org/2000/svg" viewBox="-10 0 532 512"><path fill="currentColor" d="M201 91.667q-43 0-82 15-36 13-60 40-22 25-22 54 0 23 15 46 16 23 42 37l28 16-10 24q3-2 9-5.5t9-5.5l12-9 15 3q20 4 44 4 45 0 82-15 38-15 60-40 23-26 23-55 0-28-23-54-24-27-60-40-38-15-82-15m0-37q53 0 101 20 47 20 73 53 27 33 27 73 0 39-27 74-26 33-73 53-48 20-101 20-22 0-50-5-35 25-80 37-2 0-6.5 1l-9 2-8.5 1h-1q-4 0-6-2-3-3-3-6v-5l1-2 1-1 1-2q1 0 1-1l2-2q3-3 6-7l8-8q2-4 6-8 2-2 4.5-6t2.5-5q4-8 6-13-34-20-56-51-20-31-20-64 0-40 27-73 28-34 73-53 48-20 101-20m235 334q2 5 6 13 2 5 7 11 4 4 6 8 1 1 2 2.5t2.5 3 3.5 2.5q1 1 2.5 3t2.5 3 1 2q1 0 2 1l1 1q0 1 .5 1t.5 1l1 1 1 2v1q1 2 0 2v2q0 4-4 6-2 4-6 2-18-2-24-4-45-12-80-37-28 5-50 5-77 0-135-38 11 1 25 1 48 0 88-13 43-12 76-36 36-27 55-61 19-36 19-73 0-23-7-43 38 21 59 51t21 66q0 33-20 64-21 29-56 50"/></svg>