<svg xmlns="http://www.w3.org/2000/svg" viewBox="-10 0 522 512"><path fill="currentColor" d="M206.357 26.254q84 0 123 41 39 42 45 136-2-3-5-6-7-9-15-16-8-70-39-102-33-35-109-35-60 0-104 49t-46 117q10-13 30-29 3-2 6-3 2 2 5 4 10 7 26 12 35 10 83 10t83-10q16-5 26-12 3-2 5-4 3 2 6 3 15 10 29 28 30 36 34 73h-7q-35 0-60 10-13 5-20 12-6 6-9 16v48q-41 10-87 10-76 0-128-23-26-12-41-28-14-16-14-36 0-25 14-52 1-58 16.5-102t41.5-67 53.5-33.5 57.5-10.5m-9 89h18v25q27 2 57 10 25 6 36 14-2 3-6 5t-10 4l-9 3q-32 10-77 10t-77-10q-18-6-25-12 9-8 36-14 34-8 57-10zm257 36q11 0 22 8 4 3 1 5-17 15-47-1 0-5 7.5-8.5t16.5-3.5m-36 25q23 14 48 11-4 10-11.5 31.5t-15 38-16.5 29.5q-8-2-16-3-3-39-31-76 20-9 42-31m-36 124q31 0 53 9 16 6 18 14 0 3-2 5t-4.5 3.5-6.5 3.5-5 2q-22 9-53 9t-53-9q-16-6-18-14 0-10 18-14 32-9 53-9m-71 49q5 3 11 5 25 10 60 10t60-10q6-2 11-5v70q0 17-20 28-21 11-51 11t-51-11q-20-11-20-28zm-122 58q-7 19-13 25-13 1-34 1-37 0-49 3-10 2-18 7-27-8-46-28 8-4 20-5 13-1 46 2 60 3 94-5m56 24q-2 9-4 14-10 21-45 32-68 22-119-13 6-8 20-11 10-2 45-2 64 1 103-20"/></svg>