<svg xmlns="http://www.w3.org/2000/svg" viewBox="-10 0 522 512"><path fill="currentColor" d="M105 402.5q0-7-6-13-5-5-13-5-7 0-12 5-6 6-6 13t6 13q5 5 12 5 8 0 13-5 6-6 6-13m329-165q0-14-11-25-13-11-26-11H297q0-17 13-46 14-27 14-46 0-27-9-41-9-13-37-13-7 7-10 24-5 17-9 36-7 21-17 31-9 9-22 26l-1 2q-1 1-2.5 3t-3.5 4q-6 8-9 11-4 6-10 12-8 10-11 13-7 7-11 10-2 2-11 8-4 2-11 2h-9v183h9q1 0 4 .5t5 .5 5 .5 5 1.5q6 2 11 3 6 3 10 3l10 4q6 3 8 3 60 21 98 21h34q55 0 55-48 0-10-1-16 8-4 13-15 5-9 5-21 0-11-5-20 15-13 15-34 0-5-2-15-3-9-8-14 9 0 16-13 6-13 6-24m36 0q0 27-14 47 3 9 3 19 0 22-11 42 1 4 1 12 0 28-17 51 0 40-24 62-24 23-65 23h-37q-27 0-54-6-20-5-62-19-35-11-40-11H68q-15 0-26-11-10-10-10-26v-183q0-15 10-25 10-11 26-11h78q11-8 40-44 15-20 30-37 7-7 10-24t9-37q6-18 18-30 11-11 25-11 25 0 44 9 18 9 29 29 10 22 10 53 0 25-14 55h50q28 0 52 22 21 21 21 51"/></svg>