<svg xmlns="http://www.w3.org/2000/svg" viewBox="-11 0 534 512"><path fill="currentColor" d="M79.079 176.222q-1 1-6 11-1 5-1 13 0 6-1 6l-1 1q-2 1-4 3l-4 4q-5 4-9 8-9 7-15-2l-36-39q-5-6 1-12 1-1 10-7l10-8q3-3 14-3 9 0 19-8 6-6 9-19 1-11 5-15l2-1q1-2 3-3 6-6 13-11 14-12 21-16 68-46 95-49 67 0 76 1 5 0-4 4-62 27-78 39-41 29-19 58 15 20 20 25 5 3-1 7l-2 2q-3 2-7.5 6.5t-10.5 9.5q-12 11-19 18-8 3-9 2-22-25-37-31-14-6-34 6m147 13 209 244q10 11-1 20l-24 21q-11 7-20-2l-212-242q-3-3 0-10l37-32q7-3 11 1m283-103q9 53-8 85-26 45-79 32-29-6-51 16l-42 40-35-40 35-36q11-11 16-27 3-15 3-33 0-22 2-30 8-29 72-57 6-3 9 1 4 5 1 8-6 7-23 41-7 4-6 18 0 13 20 27 29 21 49-11l14-21q9-15 11-17 2-5 7-5 5 2 5 9m-439 350 130-127 39 44-126 124q-10 10-20 2l-23-23q-12-9 0-20"/></svg>