<svg xmlns="http://www.w3.org/2000/svg" viewBox="-10 0 522 512"><path fill="currentColor" d="M100.5 457.048v-329h43v329zm258 0v-329h43v329zm43-10q13 0 22.5 9.5t9.5 22.5h-109q0-13 10-22.5t24-9.5zm-258 0q13 0 22.5 9.5t9.5 22.5h-108q0-13 9.5-22.5t23.5-9.5zm78-233v-86h59v86zm-186-151h431l-6 17q-2 6-8.5 11t-12.5 5h-377q-7 0-13-4.5t-8-11.5zm27 173v-32h377v32zm0-140h377v27q0 7-5 11.5t-11 4.5h-345q-7 0-11.5-5t-4.5-11zm393-25h-409q-13 0-23.5-7.5t-14.5-19.5q-3-8 4.5-10.5t10.5 5.5q6 16 23 16h409q17 0 23-16 3-8 10.5-5t4.5 10q-4 12-14.5 19.5t-23.5 7.5"/></svg>