<svg xmlns="http://www.w3.org/2000/svg" viewBox="-10 0 522 512"><path fill="currentColor" d="M196 210v165q0 4-2 6-3 3-7 3h-18q-4 0-7-3-2-1-2-6V210q0-5 2-6 3-3 7-3h18q4 0 7 3 2 2 2 6m73 0v165q0 4-2 6-3 3-7 3h-18q-4 0-7-3-2-2-2-6V210q0-4 2-6 3-3 7-3h18q4 0 7 3 2 2 2 6m73 0v165q0 5-2 6-3 3-7 3h-18q-4 0-7-3-2-2-2-6V210q0-4 2-6 3-3 7-3h18q4 0 7 3 2 1 2 6m37 207V146H123v271q0 4 2 12 2 5 4 7l3 3h238l3-3q2-2 4-7 2-8 2-12M187 110h128l-14-34q-1-1-5-3h-90q-4 2-5 3zm265 9v18q0 3-2 7-4 2-7 2h-27v271q0 24-14 41-13 17-32 17H132q-19 0-32-16-14-17-14-41V146H59q-3 0-7-2-2-4-2-7v-18q0-3 2-7 4-2 7-2h88l20-48q5-11 16-18 10-7 22-7h92q12 0 22 7 11 7 16 18l20 48h88q3 0 7 2 2 4 2 7"/></svg>