<svg xmlns="http://www.w3.org/2000/svg" viewBox="0 0 100 100">
    <linearGradient id="0TO_svg__a" x1="19.181" x2="80.829" y1="52" y2="52" gradientTransform="matrix(1 0 0 -1 0 102)" gradientUnits="userSpaceOnUse">
        <stop offset="0" stop-color="#f9da9c"/>
        <stop offset=".043" stop-color="#fbe0a1"/>
        <stop offset=".067" stop-color="#fce6a6"/>
        <stop offset=".145" stop-color="#f4d593"/>
        <stop offset=".193" stop-color="#f5d797"/>
        <stop offset=".243" stop-color="#f7dda4"/>
        <stop offset=".263" stop-color="#f9e1ab"/>
        <stop offset=".329" stop-color="#f7dfa8"/>
        <stop offset=".383" stop-color="#f2d89e"/>
        <stop offset=".398" stop-color="#efd599"/>
        <stop offset=".461" stop-color="#f2d795"/>
        <stop offset=".462" stop-color="#f2d795"/>
        <stop offset=".527" stop-color="#f2d795"/>
        <stop offset=".538" stop-color="#f2d795"/>
        <stop offset=".538" stop-color="#f2d795"/>
        <stop offset=".615" stop-color="#efda9c"/>
        <stop offset=".735" stop-color="#f6e5ad"/>
        <stop offset=".773" stop-color="#f9e9b4"/>
        <stop offset=".822" stop-color="#f7e1a6"/>
        <stop offset=".887" stop-color="#f5db9b"/>
        <stop offset=".956" stop-color="#f4d997"/>
        <stop offset=".967" stop-color="#f4da9c"/>
        <stop offset="1" stop-color="#f4db9e"/>
    </linearGradient>
    <path fill="url(#0TO_svg__a)" stroke="#63451a" stroke-miterlimit="10" stroke-width=".954" d="M77.6 15.4 50 5.8l-27.6 9.6-10.6 72.1v6.7h76.4v-6.7z"/>
    <path fill="#63451a" fill-opacity=".75" d="M12.3 87.5h75.4v6.2H12.3z"/>
    <path d="M38.388 26.155c2.751 1 5.753 1.75 8.38 2.876 2.626 1.25 3.126 3.252 2.5 6.254-.5 2.751-.875 5.628-.875 8.504 0 2.126 1.626 3.127 3.377 2.126 2.501-1.25 4.752-2.751 7.879-1.5 1.626.625 1.876 1.375.375 2.376-1.626 1.125-3.252 2-4.752 3.251-5.503 4.003-9.63 9.13-11.507 15.759-1.125 3.752 1.126 6.879 5.128 6.879 2.126 0 4.378-.376 6.504-.125 1.5.125 2.876.625 4.002 1.75.5.5 1.125 1.501 1.125 2.377-.125.375-.375 1.125-1.876 1-9.255-.625-22.887-.375-18.51-14.132 1.751-5.128 6.88-13.007 7.254-13.508.25-.25.25-.625-.125-.875s-1-.5-1.25-.75c-3.252-2.377-1.876-5.879-2.126-9.13-.126-1.501.375-3.252-.126-4.628-.375-1.25-1.25-2.501-2.126-3.627-1.125-1.5-2.501-2.751-3.877-4.127-.25-.375.125-1 .626-.75"/>
    <path fill="#fff" d="M45.266 30.157c-.375 0-3.752-.5-3.877-1.25-.25-.626 0-.876.5-.751 1.126.375 3.252 1 4.002 1.376.626 0 0 .5-.625.625m-5.003 39.896c-.125-.375-.375-3.877.376-4.002.625-.375.875-.25.875.375 0 1.251-.25 3.252-.375 4.253-.25.25-.75-.25-.876-.626"/>
</svg>
