<svg xmlns="http://www.w3.org/2000/svg" viewBox="0 0 100 100">
    <linearGradient id="1TO_svg__a" x1="17.242" x2="82.762" y1="52" y2="52" gradientTransform="matrix(1 0 0 -1 0 102)" gradientUnits="userSpaceOnUse">
        <stop offset="0" stop-color="#f9da9c"/>
        <stop offset=".043" stop-color="#fbe0a1"/>
        <stop offset=".067" stop-color="#fce6a6"/>
        <stop offset=".145" stop-color="#f4d593"/>
        <stop offset=".193" stop-color="#f5d797"/>
        <stop offset=".243" stop-color="#f7dda4"/>
        <stop offset=".263" stop-color="#f9e1ab"/>
        <stop offset=".329" stop-color="#f7dfa8"/>
        <stop offset=".383" stop-color="#f2d89e"/>
        <stop offset=".398" stop-color="#efd599"/>
        <stop offset=".461" stop-color="#f2d795"/>
        <stop offset=".615" stop-color="#efda9c"/>
        <stop offset=".735" stop-color="#f6e5ad"/>
        <stop offset=".773" stop-color="#f9e9b4"/>
        <stop offset=".822" stop-color="#f7e1a6"/>
        <stop offset=".887" stop-color="#f5db9b"/>
        <stop offset=".956" stop-color="#f4d997"/>
        <stop offset=".967" stop-color="#f4da9c"/>
        <stop offset="1" stop-color="#f4db9e"/>
    </linearGradient>
    <path fill="url(#1TO_svg__a)" stroke="#63451a" stroke-miterlimit="10" stroke-width="1.01" d="M11.8 5.8V11l10.6 73.5L50 94.2l27.6-9.7L88.2 11V5.8z"/>
    <path fill="#63451a" fill-opacity=".75" d="M77.1 78.9 50 88.6l-27.1-9.7L12.3 6.3V11l10.6 73.1L50 93.7l27.1-9.6L87.7 11V6.3z"/>
    <path d="M61.388 67.299c-2.751-1-5.753-1.751-8.38-2.877-2.626-1.25-3.126-3.251-2.5-6.253.5-2.752.875-5.628.875-8.505 0-2.126-1.626-3.126-3.377-2.126-2.501 1.25-4.752 2.752-7.879 1.501-1.626-.625-1.876-1.376-.375-2.376 1.626-1.126 3.252-2.001 4.752-3.252 5.503-4.002 9.63-9.13 11.506-15.758 1.126-3.752-1.125-6.88-5.127-6.88-2.126 0-4.378.376-6.504.126-1.5-.125-2.876-.625-4.002-1.751-.5-.5-1.125-1.5-1.125-2.376.125-.375.375-1.126 1.876-1 9.254.625 22.887.374 18.51 14.132-1.752 5.128-6.88 13.007-7.255 13.507-.25.25-.25.625.126.875.375.25 1 .5 1.25.75 3.252 2.377 1.876 5.879 2.126 9.13.125 1.502-.375 3.252.125 4.628.376 1.25 1.251 2.502 2.127 3.627 1.125 1.501 2.5 2.752 3.877 4.127.25.376-.126 1-.626.75"/>
    <path fill="#fff" d="M51.134 61.17c-.125-.375-.125-3.752.625-4.002.625-.375.875-.125.875.375-.125 1.126-.375 3.377-.625 4.128-.375.5-.625.125-.875-.5zm-8.63-44.649c.375-.125 3.627 0 4.002.626.375.625.125.875-.375.875-1.25-.125-3.252-.5-4.252-.625-.25-.375.25-.75.625-.876"/>
</svg>
