<svg xmlns="http://www.w3.org/2000/svg" width="498.898" height="544.252" viewBox="0 0 1320 1440">
    <defs>
        <linearGradient id="0_CHARIOT_svg__a" x1="-1430.769" x2="-1409.955" y1="-77.47" y2="-77.47" gradientUnits="userSpaceOnUse" spreadMethod="reflect">
            <stop offset="0" stop-color="#ffd285"/>
            <stop offset=".232" stop-color="#ffcd79"/>
            <stop offset=".616" stop-color="#ffca73"/>
            <stop offset=".808" stop-color="#ffd386"/>
            <stop offset="1" stop-color="#ffc86e"/>
        </linearGradient>
        <linearGradient id="0_CHARIOT_svg__b" x1="-899.903" x2="-899.906" y1="-319.311" y2="125.211" gradientUnits="userSpaceOnUse">
            <stop offset=".598" stop-color="#fff"/>
            <stop offset="1"/>
        </linearGradient>
        <filter id="0_CHARIOT_svg__c" width="1.145" height="1.084" x="-.072" y="-.042" color-interpolation-filters="sRGB">
            <feGaussianBlur in="SourceGraphic" result="blur" stdDeviation="6"/>
            <feDiffuseLighting in="blur" lighting-color="#fff" result="diffuse" surfaceScale="4">
                <feDistantLight azimuth="235" elevation="45"/>
            </feDiffuseLighting>
            <feSpecularLighting in="blur" lighting-color="#fff" result="specular" specularExponent="25" surfaceScale="4">
                <feDistantLight azimuth="280" elevation="45"/>
            </feSpecularLighting>
            <feComposite in="diffuse" in2="SourceGraphic" k1="1.4" operator="arithmetic" result="lit"/>
            <feComposite in="lit" in2="specular" k2="1" k3="1" operator="arithmetic" result="shaded"/>
            <feComposite in="shaded" in2="SourceGraphic" operator="in"/>
        </filter>
    </defs>
    <path d="m1107.176 1348.302-56.54 70.558h-913.03l-20.225-18.874L321.87 430.64l63.084-35.292z" opacity=".5"/>
    <path fill="url(#0_CHARIOT_svg__a)" d="m-1215.568-283.246-145.942 38.045-83.762 462.487 6.639 36.814 10.024 8.338h426.077l10.024-8.338 6.639-36.814-83.759-462.487z" transform="translate(3097.382 831.934)scale(2.0051)"/>
    <path fill="url(#0_CHARIOT_svg__b)" d="m-899.903-323.401-145.942 37.996-83.762 462.487 6.639 36.814 10.024 8.338h426.077l10.024-8.338 6.639-36.814-83.759-462.487z" opacity=".25" style="mix-blend-mode:overlay" transform="translate(2464.43 912.55)scale(2.0051)"/>
    <path fill="#fff" d="m1099.875 1262.57-.043 21.064 20.75-16.013z" opacity=".8"/>
    <path d="m1120.582 1267.622-20.75 16.013-12.661 74.524 20.099-16.719z" opacity=".6"/>
    <g fill="#fff">
        <path d="m367.372 340.273 17.664 13.248 274.969-73.032v-16.402zm585.261 0-17.664 13.248-274.964-73.032v-16.402z" opacity=".3"/>
        <path d="m952.633 340.273-17.664 13.248 164.905 909.049 20.707 5.052z" opacity=".3"/>
    </g>
    <path d="m367.372 340.273 17.664 13.248-164.91 909.049-20.707 5.052z" opacity=".4"/>
    <path d="m199.418 1267.622 20.75 16.013 12.661 74.524-20.099-16.719z" opacity=".9"/>
    <path d="m220.126 1262.57.043 21.064-20.75-16.013z" opacity=".6"/>
    <path d="M220.126 1262.57h879.749l-.043 21.064H220.168l-.043-21.064z" opacity=".2"/>
    <path d="m1099.832 1283.634-12.661 74.524H232.829l-12.661-74.524h879.663z" opacity=".7"/>
    <path fill-opacity=".992" stroke="#000" stroke-width="8.159" d="m660.415 362.215-23.924 27.649-8.99 110.822 20.92 8.01h-2.936v44.534A226.874 226.874 0 0 0 433.15 779.64a226.874 226.874 0 0 0 212.335 226.409v46.11h2.88l-20.902 8.004 8.983 110.817 23.93 27.653 22.761-28.458 9.368-110.918-20.038-7.097h2.019v-46.099a226.874 226.874 0 0 0 212.425-226.42 226.874 226.874 0 0 0-212.425-226.42v-44.524h-1.99l20.064-7.106-9.365-110.918zm14.068 240.607a177.4 177.4 0 0 1 102.154 43.106L674.483 748.082Zm-28.998.01v138.263l-98.317-98.318a177.4 177.4 0 0 1 98.317-39.944zm-119.102 60.173 102.086 102.087H483.254a177.4 177.4 0 0 1 43.129-102.087zm270.482 3.708a177.4 177.4 0 0 1 39.979 98.38H698.48Zm-313.61 127.383h145.214L526.354 896.211a177.4 177.4 0 0 1-43.1-102.115zm215.237 0h138.346a177.4 177.4 0 0 1-39.945 98.402zm-24.008 17.01L776.66 913.282a177.4 177.4 0 0 1-102.176 43.14zm-28.998 6.987V956.41a177.4 177.4 0 0 1-98.346-39.972z" filter="url(#0_CHARIOT_svg__c)"/>
</svg>
