<svg xmlns="http://www.w3.org/2000/svg" width="498.898" height="544.252" viewBox="0 0 1320 1440">
    <defs>
        <linearGradient id="0_LANCE_svg__a" x1="-1430.769" x2="-1409.955" y1="-77.47" y2="-77.47" gradientUnits="userSpaceOnUse" spreadMethod="reflect">
            <stop offset="0" stop-color="#ffd285"/>
            <stop offset=".232" stop-color="#ffcd79"/>
            <stop offset=".616" stop-color="#ffca73"/>
            <stop offset=".808" stop-color="#ffd386"/>
            <stop offset="1" stop-color="#ffc86e"/>
        </linearGradient>
        <linearGradient id="0_LANCE_svg__b" x1="-899.903" x2="-899.906" y1="-319.311" y2="125.211" gradientUnits="userSpaceOnUse">
            <stop offset=".598" stop-color="#fff"/>
            <stop offset="1"/>
        </linearGradient>
        <filter id="0_LANCE_svg__c" width="1.127" height="1.065" x="-.063" y="-.032" color-interpolation-filters="sRGB">
            <feGaussianBlur in="SourceGraphic" result="blur" stdDeviation="6"/>
            <feDiffuseLighting in="blur" lighting-color="#fff" result="diffuse" surfaceScale="4">
                <feDistantLight azimuth="235" elevation="45"/>
            </feDiffuseLighting>
            <feSpecularLighting in="blur" lighting-color="#fff" result="specular" specularExponent="25" surfaceScale="4">
                <feDistantLight azimuth="280" elevation="45"/>
            </feSpecularLighting>
            <feComposite in="diffuse" in2="SourceGraphic" k1="1.4" operator="arithmetic" result="lit"/>
            <feComposite in="lit" in2="specular" k2="1" k3="1" operator="arithmetic" result="shaded"/>
            <feComposite in="shaded" in2="SourceGraphic" operator="in"/>
        </filter>
    </defs>
    <path d="m1107.176 1348.302-56.54 70.558h-913.03l-20.225-18.874L321.87 430.64l63.084-35.292z" opacity=".5"/>
    <path fill="url(#0_LANCE_svg__a)" d="m-1215.568-283.246-145.942 38.045-83.762 462.487 6.639 36.814 10.024 8.338h426.077l10.024-8.338 6.639-36.814-83.759-462.487z" transform="translate(3097.382 831.934)scale(2.0051)"/>
    <path fill="url(#0_LANCE_svg__b)" d="m-899.903-323.401-145.942 37.996-83.762 462.487 6.639 36.814 10.024 8.338h426.077l10.024-8.338 6.639-36.814-83.759-462.487z" opacity=".25" style="mix-blend-mode:overlay" transform="translate(2464.43 912.55)scale(2.0051)"/>
    <path fill="#fff" d="m1099.875 1262.57-.043 21.064 20.75-16.013z" opacity=".8"/>
    <path d="m1120.582 1267.622-20.75 16.013-12.661 74.524 20.099-16.719z" opacity=".6"/>
    <g fill="#fff">
        <path d="m367.372 340.273 17.664 13.248 274.969-73.032v-16.402zm585.261 0-17.664 13.248-274.964-73.032v-16.402z" opacity=".3"/>
        <path d="m952.633 340.273-17.664 13.248 164.905 909.049 20.707 5.052z" opacity=".3"/>
    </g>
    <path d="m367.372 340.273 17.664 13.248-164.91 909.049-20.707 5.052z" opacity=".4"/>
    <path d="m199.418 1267.622 20.75 16.013 12.661 74.524-20.099-16.719z" opacity=".9"/>
    <path d="m220.126 1262.57.043 21.064-20.75-16.013z" opacity=".6"/>
    <path d="M220.126 1262.57h879.749l-.043 21.064H220.168l-.043-21.064z" opacity=".2"/>
    <path d="m1099.832 1283.634-12.661 74.524H232.829l-12.661-74.524h879.663z" opacity=".7"/>
    <path fill="#1a1a1a" d="m659.853 343.672-54.015 67.348-7.1 220.492 42.31 22.026h1.016v133.77c-118.27 9.16-209.472 105.623-209.48 221.569 0 122.756 101.827 222.27 227.437 222.274 125.617.01 227.454-99.511 227.457-222.274 0-1.27-.013-2.563-.038-3.843-1.118-65.07-31.436-126.375-82.845-167.742-1.016-.787-2.032-1.625-3.038-2.413-35.413-27.516-78.423-44.076-123.518-47.574v-133.77h1.22l42.106-22.048-6.39-220.51zm-14.13 77.006h28.768v185.127h-28.768zm-3.657 415.258v130.538l-94.448-92.294c26.972-21.506 59.818-34.805 94.449-38.244zm35.96.037c34.61 3.442 67.416 16.736 94.378 38.226l-94.377 92.257zM522.19 899.031l95.322 93.13H483c3.343-34.143 17.01-66.545 39.186-93.13zm275.656.019c22.133 26.536 35.756 58.87 39.155 92.944l.018.167H702.585zm-314.657 128.254h132.563l-93.536 91.421c-21.809-26.13-35.361-57.893-39.024-91.421zm221.142 0h132.524c-3.655 33.52-17.213 65.275-39.003 91.402zm-62.263 23.998v130.482c-3.452-.355-6.899-.762-10.345-1.32a188 188 0 0 1-3.452-.585c-29.59-5.275-57.344-17.752-80.644-36.335zm35.96 0 94.378 92.257c-26.962 21.483-59.767 34.763-94.378 38.212z" filter="url(#0_LANCE_svg__c)"/>
</svg>
