<svg xmlns="http://www.w3.org/2000/svg" width="498.898" height="544.252" viewBox="0 0 1320 1440">
    <defs>
        <linearGradient id="0_WHALE_svg__b" x1="-1430.769" x2="-1409.955" y1="-77.47" y2="-77.47" gradientUnits="userSpaceOnUse" spreadMethod="reflect">
            <stop offset="0" stop-color="#ffd285"/>
            <stop offset=".232" stop-color="#ffcd79"/>
            <stop offset=".616" stop-color="#ffca73"/>
            <stop offset=".808" stop-color="#ffd386"/>
            <stop offset="1" stop-color="#ffc86e"/>
        </linearGradient>
        <linearGradient id="0_WHALE_svg__c" x1="-899.903" x2="-899.906" y1="-319.311" y2="125.211" gradientUnits="userSpaceOnUse">
            <stop offset=".598" stop-color="#fff"/>
            <stop offset="1"/>
        </linearGradient>
        <filter id="0_WHALE_svg__a" width="1.024" height="1.023" x="-.012" y="-.011" color-interpolation-filters="sRGB">
            <feGaussianBlur stdDeviation="2.441"/>
        </filter>
        <filter id="0_WHALE_svg__d" width="1.079" height="1.067" x="-.04" y="-.033" color-interpolation-filters="sRGB">
            <feGaussianBlur in="SourceGraphic" result="blur" stdDeviation="6"/>
            <feDiffuseLighting in="blur" lighting-color="#fff" result="diffuse" surfaceScale="4">
                <feDistantLight azimuth="235" elevation="45"/>
            </feDiffuseLighting>
            <feSpecularLighting in="blur" lighting-color="#fff" result="specular" specularExponent="25" surfaceScale="4">
                <feDistantLight azimuth="280" elevation="45"/>
            </feSpecularLighting>
            <feComposite in="diffuse" in2="SourceGraphic" k1="1.4" operator="arithmetic" result="lit"/>
            <feComposite in="lit" in2="specular" k2="1" k3="1" operator="arithmetic" result="shaded"/>
            <feComposite in="shaded" in2="SourceGraphic" operator="in"/>
        </filter>
    </defs>
    <path d="m-2728.669 265.144 28.198 35.189h455.354l10.087-9.413-101.985-483.44-31.462-17.601z" filter="url(#0_WHALE_svg__a)" opacity=".5" transform="matrix(-2.0051 0 0 2.0051 -4364.078 816.662)"/>
    <path fill="url(#0_WHALE_svg__b)" d="m-1215.568-283.246-145.942 38.045-83.762 462.487 6.639 36.814 10.024 8.338h426.077l10.024-8.338 6.639-36.814-83.759-462.487z" transform="translate(3097.382 831.934)scale(2.0051)"/>
    <path fill="url(#0_WHALE_svg__c)" d="m-899.903-323.401-145.942 37.996-83.762 462.487 6.639 36.814 10.024 8.338h426.077l10.024-8.338 6.639-36.814-83.759-462.487z" opacity=".25" style="mix-blend-mode:overlay" transform="translate(2464.43 912.55)scale(2.0051)"/>
    <path fill="#fff" d="m1099.875 1262.57-.043 21.064 20.75-16.013z" opacity=".8"/>
    <path d="m1120.582 1267.622-20.75 16.013-12.661 74.524 20.099-16.719z" opacity=".6"/>
    <g fill="#fff">
        <path d="m367.372 340.273 17.664 13.248 274.969-73.032v-16.402zm585.261 0-17.664 13.248-274.964-73.032v-16.402z" opacity=".3"/>
        <path d="m952.633 340.273-17.664 13.248 164.905 909.049 20.707 5.052z" opacity=".3"/>
    </g>
    <path d="m367.372 340.273 17.664 13.248-164.91 909.049-20.707 5.052z" opacity=".4"/>
    <path d="m199.418 1267.622 20.75 16.013 12.661 74.524-20.099-16.719z" opacity=".9"/>
    <path d="m220.126 1262.57.043 21.064-20.75-16.013z" opacity=".6"/>
    <path d="M220.126 1262.57h879.749l-.043 21.064H220.168l-.043-21.064z" opacity=".2"/>
    <path d="m1099.832 1283.634-12.661 74.524H232.829l-12.661-74.524h879.663z" opacity=".7"/>
    <path fill="#9b0000" d="M509.27 353.32c26.719 44.755 68.46 106.108 80.157 134.27 36.974 107.767 22.011 130.536-7.826 175.915-150.09 29.245-255.84 137.66-255.845 262.305a367 367 0 0 0 4.668 24.724c-4.834 23.963-54.369 273.412-23.03 268.187 24.19-4.044 81.407-76.445 110.06-114.601 128.61 115.746 354.771 98.205 482.407-3.61 27.606 36.988 87.77 114.038 112.743 118.193 29.484 4.912-12.603-215.586-21.735-261.769a213 213 0 0 0 3.435-31.144c-.001-124.068-104.783-232.152-253.97-261.954-30.025-45.627-45.176-68.207-8.133-176.266 11.707-28.158 53.438-89.517 80.157-134.27-46.425 34.337-91.08 53.945-151.25 54.38l-.306-.99-.304.99c-60.178-.43-104.833-20.045-151.258-54.38zm19.38 438.469s9.94 49.422-9.535 64.08c-18.077 13.634-89.877 33.64-89.877 33.64s3.248-58.199 18.656-71.365c18.24-15.542 80.755-26.354 80.755-26.354zm262.697 0s62.516 10.815 80.755 26.354c15.408 13.167 18.66 71.365 18.66 71.365s-71.801-20.008-89.878-33.64c-19.48-14.659-9.538-64.08-9.538-64.08zM659.473 950.452c.812-.01 1.676 0 2.489 0 54.966-.011 118.252 14.325 174.347 27.736 56.1 13.411 112.246 26.08 129.46 25.759l-23.32 24.086c-33.053.66-60.594-12.51-116.02-25.76-55.428-13.248-116.868-25.762-164.443-25.758-45.458.01-100.722 12.385-154.535 25.759-53.812 13.368-85.75 26.623-130.017 25.758l-23.32-24.087c34.051.66 89.386-12.332 143.412-25.758 53.177-13.213 109.44-27.293 161.943-27.737z" filter="url(#0_WHALE_svg__d)" paint-order="stroke fill markers"/>
</svg>
