<svg xmlns="http://www.w3.org/2000/svg" width="498.898" height="544.252" viewBox="0 0 1320 1440">
    <defs>
        <linearGradient id="1_CHARIOT_svg__b" x1="-1430.769" x2="-1409.955" y1="-77.47" y2="-77.47" gradientUnits="userSpaceOnUse" spreadMethod="reflect">
            <stop offset="0" stop-color="#ffd285"/>
            <stop offset=".232" stop-color="#ffcd79"/>
            <stop offset=".616" stop-color="#ffca73"/>
            <stop offset=".808" stop-color="#ffd386"/>
            <stop offset="1" stop-color="#ffc86e"/>
        </linearGradient>
        <linearGradient id="1_CHARIOT_svg__c" x1="660" x2="659.07" y1="1175.225" y2="76.797" gradientUnits="userSpaceOnUse">
            <stop offset="0"/>
            <stop offset=".603" stop-color="#fff"/>
        </linearGradient>
        <filter id="1_CHARIOT_svg__a" width="1.028" height="1.023" x="-.014" y="-.011" class="1_CHARIOT_svg__B">
            <feGaussianBlur stdDeviation="2.441"/>
        </filter>
        <filter id="1_CHARIOT_svg__d" width="1.145" height="1.084" x="-.072" y="-.042" color-interpolation-filters="sRGB">
            <feGaussianBlur in="SourceGraphic" result="blur" stdDeviation="6"/>
            <feDiffuseLighting in="blur" lighting-color="#fff" result="diffuse" surfaceScale="4">
                <feDistantLight azimuth="235" elevation="45"/>
            </feDiffuseLighting>
            <feSpecularLighting in="blur" lighting-color="#fff" result="specular" specularExponent="25" surfaceScale="4">
                <feDistantLight azimuth="280" elevation="45"/>
            </feSpecularLighting>
            <feComposite in="diffuse" in2="SourceGraphic" k1="1.4" operator="arithmetic" result="lit"/>
            <feComposite in="lit" in2="specular" k2="1" k3="1" operator="arithmetic" result="shaded"/>
            <feComposite in="shaded" in2="SourceGraphic" operator="in"/>
        </filter>
    </defs>
    <path d="m-2651.547 193.989 26.181 28.949 142.394 35.891 162.994-41.193 89.945-426.908-45.894-49.39z" filter="url(#1_CHARIOT_svg__a)" opacity=".5" transform="matrix(-2.0051 0 0 2.0051 -4364.078 706.823)"/>
    <path fill="url(#1_CHARIOT_svg__b)" d="m-1220.685-320.026-145.941 39.619-8.809 28.459-85.278 471.754 10.349 7.986h459.359l10.348-7.986-85.278-471.754-8.809-28.459z" transform="translate(-1787.64 533.54)scale(-2.0051)"/>
    <path fill="url(#1_CHARIOT_svg__c)" d="m660 1175.225 292.626-79.44 17.663-53.693 171-949.289-20.751-16.013-921.111.006-20.751 16.013 171.035 945.627 17.663 57.348z" opacity=".25" style="mix-blend-mode:overlay"/>
    <path d="m199.418 97.854.043-21.064-20.75 16.013zm770.876 940.595-17.664-13.248L660 1101.487v16.402z" opacity=".4"/>
    <path d="m349.706 1038.449 17.664-13.248L660 1101.487v16.402z" opacity=".6"/>
    <path d="m349.706 1038.449 17.664-13.248L199.418 97.854l-20.707-5.052z" opacity=".6"/>
    <g fill="#fff">
        <path d="m970.294 1038.449-17.664-13.248 167.951-927.347 20.707-5.052z" opacity=".3"/>
        <path d="m1120.582 97.854-.043-21.064 20.75 16.013z" opacity=".8"/>
        <path d="M1120.582 97.854H199.418l.043-21.064h921.077l.043 21.064z" opacity=".3"/>
    </g>
    <path d="m367.369 1095.797-17.663-57.348L660 1117.89l310.294-79.441-17.663 57.348L660 1175.238z" opacity=".7"/>
    <path fill-opacity=".992" stroke="#000" stroke-width="8.159" d="m659.598 999.112 23.924-27.649 8.989-110.822-20.92-8.01h2.937v-44.535a226.874 226.874 0 0 0 212.335-226.409 226.874 226.874 0 0 0-212.335-226.41v-46.11h-2.88l20.902-8.003-8.983-110.817-23.93-27.654-22.761 28.458-9.368 110.918 20.037 7.098h-2.018v46.099a226.874 226.874 0 0 0-212.425 226.42 226.874 226.874 0 0 0 212.425 226.42v44.524h1.99l-20.064 7.106 9.365 110.918zM645.53 758.505a177.4 177.4 0 0 1-102.154-43.106L645.53 613.245Zm28.998-.01V620.231l98.317 98.317a177.4 177.4 0 0 1-98.317 39.945zM793.63 698.32 691.544 596.235h145.215A177.4 177.4 0 0 1 793.63 698.32zm-270.482-3.708a177.4 177.4 0 0 1-39.979-98.379h138.364Zm313.61-127.383H691.545l102.114-102.114a177.4 177.4 0 0 1 43.1 102.114zm-215.237 0H483.175a177.4 177.4 0 0 1 39.945-98.401zm24.008-17.01L543.353 448.046a177.4 177.4 0 0 1 102.176-43.14zm28.998-6.986V404.915a177.4 177.4 0 0 1 98.345 39.973z" filter="url(#1_CHARIOT_svg__d)"/>
</svg>
