<svg xmlns="http://www.w3.org/2000/svg" viewBox="0 0 60 60">
    <defs>
        <filter id="0GY_svg__a" color-interpolation-filters="sRGB">
            <feFlood flood-color="#000" flood-opacity=".498" result="flood"/>
            <feComposite in="flood" in2="SourceGraphic" operator="in" result="composite1"/>
            <feGaussianBlur in="composite1" result="blur" stdDeviation="1"/>
            <feOffset dx="5" dy="3" result="offset"/>
            <feComposite in="SourceGraphic" in2="offset" result="composite2"/>
        </filter>
    </defs>
    <g opacity=".99">
        <g filter="url(#0GY_svg__a)" transform="matrix(.6 0 0 .6 6.557 -50.376)">
            <path fill="#fee572" d="m39.071 93.92-22.551 7.394L6 168.33h66.142l-10.52-67.017z"/>
            <path fill="#c3983c" fill-opacity=".992" d="M6 168.331V174h66.142v-5.669z"/>
        </g>
        <g stroke="#000" stroke-width=".868" opacity=".99">
            <path d="M13.062.962q-.292.375-.458.417-.709 0-1.834-.958L7.812-2.33q-.125-.125-.125-.875.167-.125.542-.125.75 0 2.25.583 1.541.542 1.958.958.625.542.625 2.75z" transform="matrix(.98351 0 0 .98608 31.107 33.887)"/>
            <path d="M-6.677-13.39c-1.722 0-4.415-.629-5.248-1.462 0-.194 1.498-.121 1.665-.204q.29-.125 1.25-.209 1-.124 2.291-.25 1.335-.124 4-.583 2.667-.458 5.75-1.167a5.7 5.7 0 0 1 1.459-.166q1.834 0 2.791 1.125.042.416-.166.666-.21.21-.959.417-.75.166-1.583.292-.792.083-2.542.375-1.75.29-3.416.625 1.041.54 1.041 1.666l-.208 2.25-.125 4.042v.042l4.004-.58c.167-.028 1.309-.254 1.587-.254q1.625 0 2.375 1.042-.042.583-1.542 1c-1.5.417-3.243.5-4.466.667q-1.832.208-1.916.25l-.125.208-.25 8.208q4.875-.333 8.041-.75l3.584-.625h.291q1.209 0 2.542 1.292 1.375 1.25 1.375 1.917-.167.291-.833.291-.625 0-5.459-.458L5.865 6.11q-3.459 0-9.667.584c-4.139.389-6.357.784-7.857 1.256l-1.875.542a.7.7 0 0 0-.166.041h-.167q-.834 0-1.792-.625t-1.416-1.416q0-.459.25-.667l.19.035c1.611.3 3.833-.166 6.583-.5q4.125-.5 6.75-.5h.167l.125-8.25-3.75.25c-1.222-.027-2.917-.233-3.528-.9q0-.458.541-.5l2.653-.266 4.042-.542v-6.083q0-1.209-.792-2.125-1.5.165-2.833.166z" transform="matrix(.98351 0 0 .98608 31.107 33.887)"/>
        </g>
    </g>
</svg>
