<svg xmlns="http://www.w3.org/2000/svg" width="52.157" height="52.157">
    <path fill="#e2d9ba" stroke="#393830" stroke-opacity=".992" stroke-width="1.048" d="M26.079 3.396 12.406 7.88 5.988 48.787h40.181L39.75 7.88z" opacity=".98"/>
    <path fill="#38372f" fill-opacity=".98" d="M33.454 12.166a4 4 0 0 0-.893.073v.063h-.06c-2.344.662-4.106 2.684-4.825 5.34 0 0-.03.085-.03.125-.211 1.064-.413 2.502-.585 3.932a48 48 0 0 0-2.179-3.446l-.07-.144-.144-.07c-.624-.413-1.383-.596-2.182-.634h-.14c-2.103.22-4.058.355-6.055.634l-.566.07-.144.49c-3.21 10.408-2.883 18.895-3.873 24.431l-.144.778.7.211c1.702.48 3.54-.374 5.14-1.62 1.602-1.246 2.98-3.03 3.38-4.928h.07V37.4c.01-.173.03-.327.04-.5 7.12 2.163 13.125 1.686 19.085-.422.06-.023.144.023.201 0l.413-.134v-.163c-.06-.016-.125-.03-.173-.043a3 3 0 0 1-.278-.073c-5.995-1.476-11.88-1.736-18.659.423a1.6 1.6 0 0 1-.547.072c.03-.394.07-.788.106-1.18l.173-.021c6.991-2.228 13.09-1.935 19.221-.423l.08.021a8.2 8.2 0 0 0-.364-1.715c-.05.001-.096.008-.144.004-.173-.017-.307-.082-.49-.144-4.49-1.446-8.341-2.941-17.884-.777-.04.01-.144.043-.297.065.04-.403.096-.807.144-1.203 9.45-2.136 13.735-.653 18.07.749a12 12 0 0 0-.654-.988 7.8 7.8 0 0 0-1.77-1.635c-.673-.46-1.1-.931-2.634-1.838l-.135-.07-.134-.069c-1.084-.015-2.67-.182-4.16-.25h-.681c-.26 0-.519-.004-.787 0q-.248.006-.51.016-.804.015-1.651.051c-.25.077-.5.154-.788.23-.624.183-1.149.404-1.674.596-.99-2.202-1.49-3.624-2.822-5.858l-.01-.023-.001.003c-.07-.124-.134-.23-.211-.355l-.07-.07v-.07c-.682-.835-1.434-1.542-2.198-2.204 1.201-.116 2.44-.202 3.746-.327.518.027.826.115 1.126.279a55 55 0 0 1 2.172 3.465l-1.186.055.07 2.254 2.069-.096c-.06.556-.06.633-.106.996.192-.024.394-.041.586-.058h.002a23 23 0 0 1 1.738-.094c1.542-.026 3.193.096 5.48.355l.202-1.566 2.134-.096-.144-2.253-1.704.081.73-5.744v-.063c.23-1.388.23-2.57-.26-3.41a1.93 1.93 0 0 0-1.093-.903q-.36-.12-.778-.134zm-16.557 8.251.586.23c.73.625 1.43 1.29 2.042 2.043.46.758.806 1.404 1.117 2.021-.883 4.28-1.126 8.19-1.469 12.412-.278 1.304-1.392 2.889-2.745 3.943a4.74 4.74 0 0 1-2.233.984 6 6 0 0 1-.653.072c.835-5.512.826-12.74 3.359-21.708zm5.019 7.486.625 1.424a8.4 8.4 0 0 0-.972 1.085q.159-1.25.346-2.509z" opacity=".99" overflow="visible"/>
</svg>
