<svg xmlns="http://www.w3.org/2000/svg" width="52.157" height="52.157">
    <path fill="#e2d9ba" stroke="#38362e" stroke-opacity=".973" stroke-width=".878" d="M26.08 5.256 14.845 8.985l-5.882 37.94h34.229L37.31 8.985Z" opacity=".99"/>
    <path fill="#38362e" fill-opacity=".992" d="M26.078 16.263c-1.874.077-4.72 1.757-5.367 2.698l-1.346 5.019c.02.22.041.451.077.681 2.075-.518 4.488-.374 6.635-.585 2.141.019 4.524.288 6.634.605.04-.24.06-.47.076-.682l-1.35-5.032c-.642-.94-3.493-2.623-5.366-2.698zm-8.312 3.265v.004c-.02.01-.051.017-.077.027-.04.012-.077.024-.135.033l-.05.011c-1.091.173-2.225.327-3.16.97-.019.017-.05.033-.068.05-.116.084-.212.182-.308.25l-.02.016c-.02.016-.03.03-.05.047l-.031.032q-.015.018-.031.032l-.031.031v.001l-.031.034c-.02.023-.041.043-.06.07l-.031.035v.001c-.02.031-.05.06-.077.09q-.009.01-.01.02c.02.03.031.062.05.105.008.017.02.032.02.049.008.017.02.032.02.048v.001c.008.017.01.031.02.048l.01.024.01.026.001.001c.01.029.02.06.041.084l.006.016v.001c.008.017.01.034.02.05v.001c.008.017.01.036.02.05v.001c.02.036.032.072.041.125.007.02.02.037.02.058v.001c.007.019.01.036.02.057v.001c.01.036.032.077.041.125v.001c.01.038.031.084.04.134v.001c.327.922.548 1.885.798 2.83.01.043.02.09.04.144.005.02.01.036.01.058.211.748.384 1.517.71 2.226l.01.02.004.007.006.013.032.056.01.019v.002l.01.017.01.017.006.011.004.008.003.005c.211.384.461.432.931.528l.51.084a1.7 1.7 0 0 1 .166-.714c.181-.385.488-.836.776-1.252.384-.566.826-1.112 1.062-1.408l-.002-.01-.005-.026-.003-.01c-.278-1.594-.528-3.374-1.072-4.77-.009-.024-.02-.044-.031-.07l-.001-.003-.031-.07v-.001l-.032-.07-.001-.002-.031-.072v-.002l-.032-.072c-.007-.014-.01-.027-.02-.043a.1.1 0 0 1-.01-.032c-.02-.048-.041-.105-.07-.163zm16.624.002v.003q-.014.039-.032.077l-.031.076c-.02.048-.04.106-.06.154l-.032.072v.002c-.032.062-.05.134-.077.192l-.01.024v.003a.4.4 0 0 1-.032.062l-.001.004a.4.4 0 0 1-.032.062l-.001.003c-.008.021-.02.043-.02.062l-.002.004c-.854 1.611-.672 2.902-.965 4.46l-.001.009-.005.026-.001.008-.005.027-.002.008-.006.026-.001.007-.006.03-.002.007c.23.297.663.844 1.064 1.412.288.422.614.864.778 1.25.076.202.153.423.163.625l.002.09.972-.183.06-.017a.2.2 0 0 0 .041-.022q.015-.008.03-.019l.01-.007.032-.024c.007-.006.01-.013.02-.019.007-.006.02-.013.02-.019l.01-.009c.269-.307.432-.7.566-1.087v-.001c.006-.017.01-.034.02-.05v-.001c.006-.017.01-.034.02-.05v-.001c.212-.644.384-1.316.557-1.975.25-.903.451-1.808.768-2.677.031-.084.06-.163.09-.221.01-.036.032-.077.041-.125.01-.036.031-.072.04-.115.01-.036.032-.072.042-.115.02-.05.05-.115.069-.163a.3.3 0 0 1 .04-.072l.01-.024.008-.016q.006-.016.02-.031l-.06-.077q-.009-.01-.01-.019l-.031-.036q-.009-.01-.01-.017c-.06-.072-.134-.144-.192-.211l-.031-.031c-.06-.05-.125-.115-.183-.163l-.03-.03c-.682-.585-1.722-.863-2.513-.996l-.06-.01-.13-.022c-.04-.007-.076-.014-.134-.02-.076-.013-.173-.026-.23-.035-.04-.007-.077-.014-.125-.02a1.6 1.6 0 0 1-.432-.115l-.02-.006zm-8.408 5.416c-2.06.013-5.864.432-6.152.47-.106.125-.663.673-1.173 1.409a7.4 7.4 0 0 0-.624 1.092c-.05.124-.069.182-.076.23.423 0 .874.115 1.328.163a81 81 0 0 0 2.812.163c2.02.084 3.984.084 3.984.084s1.963 0 3.984-.084a86 86 0 0 0 2.811-.163c.384-.031.884-.182 1.328-.163a1 1 0 0 0-.076-.23 7.5 7.5 0 0 0-.624-1.092c-.51-.73-1.076-1.291-1.173-1.408-.288-.031-4.213-.47-6.248-.47zm9.278 3.758-.5.105c-.21.154-.403.183-.72.212-.288.038-.672.048-1.093.084a82 82 0 0 1-2.89.163l-3.984.163s-1.953-.076-3.984-.163a62 62 0 0 1-2.89-.163c-.422-.031-.806-.039-1.093-.084-.268-.05-.528-.039-.739-.212l-.48-.09c-1.633 2.552-2.419 4.843-2.466 6.446 1.928-.912 3.377-1.47 4.848-1.796a22.5 22.5 0 0 1-1.311-3.594v-.084c-.004-.024 0-.182 0-.23 0-.06-.01-.084 0-.164l.777.084v.169a21 21 0 0 0 1.391 3.66c1.632-.269 3.4-.288 5.948-.24 2.53-.038 4.292-.015 5.915.24a23 23 0 0 0 1.355-3.656c.01-.116.069-.173.076-.173l.94-.106c-.316 1.286-.996 3.005-1.503 4.083 1.478.326 2.933.883 4.87 1.798-.05-1.602-.836-3.9-2.474-6.457zm-2.396 4.658c-.288-.063-.576-.135-.884-.173-.643 1.357-1.386 2.588-2.16 3.608-.72.94-1.446 1.75-2.109 2.265-.662.519-1.255.7-1.641.7-.375 0-.978-.191-1.641-.7-.662-.518-1.394-1.325-2.108-2.265a21.5 21.5 0 0 1-2.202-3.603c-.288.047-.567.105-.864.172a21 21 0 0 0 2.36 3.983c.748.984 1.52 1.768 2.265 2.343.739.566 1.49.94 2.187.94.69 0 1.443-.364 2.187-.94.739-.567 1.438-1.36 2.186-2.343a23 23 0 0 0 2.41-3.986z" paint-order="stroke fill markers"/>
</svg>
