<svg xmlns="http://www.w3.org/2000/svg" width="52.157" height="52.157">
    <g stroke="#000" opacity=".99">
        <path fill="#e2d9ba" stroke="#38362e" stroke-opacity=".965" stroke-width=".844" d="m26.08 5.998 10.95 3.56 5.791 36.621H9.335l5.796-36.62Z"/>
        <path fill="#c80e0e" fill-opacity=".992" stroke="none" d="M23.392 12.276a.83.895-90 0 0-.895.833.83.895-90 0 0 .895.833.83.895-90 0 0 .895-.833.83.895-90 0 0-.895-.832zm2.627 2.173a.799.895 0 0 0-.775.894.799.895 0 0 0 .8.895.799.895 0 0 0 .791-.895.799.895 0 0 0-.791-.894.799.895 0 0 0-.027 0zm-2.468 1.468a.863.895 0 0 0-.863.895.863.895 0 0 0 .863.895.863.895 0 0 0 .863-.895.863.895 0 0 0-.863-.895m4.34 2.68c-2.191.031-3.856 1.238-5.244 3.06-1.576 1.762-2.672 3.965-3.222 6.67-.541 1.099-1 1.294-1.458 1.534-1.392-.425-1.847-1.085-1.519-1.934.217-1.206 2.12-2.235 3.344-3.335.97-1.765 1.426-3.465-.367-4.869-5.324-1.368-4.29 3.14-3.161 4.135.757-.366 1.216-.816 1.458-1.335-.158-.291-.591-.541 0-.933a.72.72 0 0 1 .608.4c0 .666.308.766-2.188 2.666-1.47.775-1.577 1.994-2.128 3.068-1.014 5.828 1.185 7.576 3.951 8.604.525-.483.683-1.162.911-1.801.783.183 1.529.258 2.615 1.2.267-.266.525-.54.783-.799l.925-.74c.241.624-.258.911-.517 1.307-.374.574-1.156 1.168-1.806 1.563l1.458.192c.667-.275 1.175-.683 1.642-1.134l.791-.266c.741-1.982 1.454-3.97 1.762-6.069-.051-.658-.06-1.18-.424-3l.424-1.535 2.553-3.134-1.945 3.335-.366 1.4a6.8 6.8 0 0 0 .366 2.667l-.125 1.4c-.666 2.066-1.433 4.047-1.578 6.335.079.516.242.963.791 1.133 6.826-.283 10.23-3.49 12.339-7.803l.125-1.399c-1.281-5.932-4.955-8.97-9.847-10.538a7 7 0 0 0-.853-.058h-.117zm-5.757 7.51c.117 0 .234.047.35.184l1.074 1.389c.183.458.233.888.066 1.313-.191-.333-.366-.683-.816-1.025-.5-.15-1.015-.292-1.32-.617-.15-.783.027-.824.116-1.07.175-.048.334-.159.509-.176h.027zm-2.83 9.155c-.808 2.712-2.462 4.216-4.01 5.868-.134.2.09.266.607.192 2.374-1.244 4.17-2.909 4.922-5.336-.474-.275-.79-.724-1.518-.741z"/>
    </g>
</svg>
