<svg xmlns="http://www.w3.org/2000/svg" width="52.157" height="52.157">
    <g stroke="#000" opacity=".99">
        <path fill="#e2d9ba" stroke="#38362e" stroke-opacity=".965" stroke-width=".844" d="m26.08 5.998 10.95 3.56 5.791 36.621H9.335l5.796-36.62Z"/>
        <path fill="#38362e" fill-opacity=".957" stroke="none" d="M26.061 10.64a.405.405 0 0 0-.364.279c-1.142 4.566-2.23 7.118-7.031 10.184-.27.173-.212.547.09.643 1.6.528 2.072.221 3.592 1.038 3.067 1.639 2.294 6.342 0 7.523-1.528.787-1.994.509-3.592 1.038-.307.105-.355.48-.09.643 4.801 3.067 5.89 5.619 7.03 10.184.041.173.183.27.365.279h.001c.183.005.356-.125.394-.279 1.142-4.566 2.231-7.117 7.037-10.184.269-.173.211-.547-.09-.643-1.542-.528-2-.27-3.596-1.042-2.705-1.302-2.672-6.238 0-7.515 1.598-.768 2.053-.528 3.595-1.042.308-.105.356-.48.09-.643-4.806-3.067-5.894-5.619-7.036-10.184-.04-.183-.202-.288-.394-.279z" opacity=".99" overflow="visible" paint-order="stroke fill markers"/>
    </g>
</svg>
