<svg xmlns="http://www.w3.org/2000/svg" width="52.157" height="52.157">
    <g opacity=".99">
        <path fill="#e2d9ba" stroke="#393831" stroke-opacity=".992" stroke-width="1.044" d="m-11.54 7.386-13.14 4.634-6.169 42.276H7.767L1.598 12.02Z" transform="matrix(1.04053 0 0 .96762 38.088 -3.75)"/>
        <path fill="#3a3931" fill-opacity=".984" d="m22.077 7.188-.797 1.144c-.432.634-.682.932-.912 1.259-.24.326-.432.681-.682 1.316l-.115.23.173.23c.806.903 2.134 1.662 3.49 2.346 1.355.682 2.727 1.306 3.604 1.717 1.459.94 2.56 2.1 3.625 3.323.08 1.17.576 2.011 1.81 3.198l-.635.681c-1.483-1.426-2.134-2.69-2.115-4.345h.105c-.355-.528-.71-1.03-1.08-1.43-.644-.702-1.302-.894-1.831-.973-.528-.082-.922-.116-1.717-.519-.002 0-.22-.057-.23-.057l-.289.057-1.2.519 1.03.518c.02.028.03.057.06.115a7 7 0 0 1 .345.75 8 8 0 0 1 .336 1.138c-3.978.412-8.23 3.21-10.522 4.81-.49.384-.164 1.17.46 1.087 1.499-.22 2.67-.48 3.884-.922l.01-.005c.5-.173 1.068-.269 1.635-.336a18 18 0 0 1 1.964-.096 6.5 6.5 0 0 1 2.692-1.548c.25-.451.259-.768.172-1.21-.096-.47-.336-.993-.288-1.659l.912.057c-.03.404.173.855.288 1.43.09.442-.08.99-.288 1.546a10 10 0 0 0 .624.46c.394.26.893.576 1.373.855a83 83 0 0 0 1.315.749c.183.096.346.172.461.23.06.027.08.043.115.055l-.23.912h-.06c-.02-.01-.09-.048-.115-.057-.05-.023-.05-.026-.115-.057-.125-.063-.327-.183-.519-.288a45 45 0 0 1-1.316-.749c-.49-.288-1.016-.586-1.43-.854a5.6 5.6 0 0 1-.682-.51c-1.75.529-2.857 1.74-3.67 3.426-.844 1.757-1.33 4.024-1.601 6.406s-.384 4.862-.576 7.094-.452 4.21-1.145 5.605c-.115.23-.22.384-.269.614.855.09 1.723.202 2.613.308 3.87.47 8.052.892 12.184-.461a.61.61 0 0 0 .345-.797c-1.299-2.664-1.846-5.677-5.948-9.324-.403-1.17-.355-2.284-.288-3.49.02-.287-.03-.594-.09-.902-.538-.806-1.035-2.026-1.493-3.991l.317-.538.566.288c.442 1.913 1.063 3.163 1.436 3.71.51.643.605.518.855.518.758-.017 1.366-.336 2.059-.576.49 2.374 1.033 4.437 1.143 6.807a.64.64 0 0 0 .06.346l1.545 2.288a.6.6 0 0 0 .682.23l1.144-.346a.613.613 0 0 0 .403-.796l-.03-.082 1.438-.739c.154.24.442.336.71.24.375-.134.807-.259 1.258-.46.451-.202.94-.49 1.259-1.03a1 1 0 0 0 .06-.23c.002-.013.03-.09.288-.288.259-.192.71-.47 1.43-.797a.613.613 0 0 0 .114-1.03l-.739-.518c-1.915-2.79-3.42-4.953-3.776-8.29-.002-.02.001-.038 0-.058l.46-2.689a.6.6 0 0 0-.124-.442c-.08-.47-.384-.892-.73-1.328-.442-.547-1.013-1.094-1.601-1.658a23 23 0 0 1-1.602-1.717c-.432-.508-.672-.95-.748-1.316l2.288-3.26-4.175 1.373c-.797-.154-2.508-.749-4.232-1.602-1.773-.874-3.59-2-4.52-2.918-.06-.063-.269-.393-.403-.681a2.7 2.7 0 0 1-.173-.634zm-.624 2.41c.153.345.365.71.624.965 1.088 1.073 2.925 2.133 4.748 3.032 1.823.902 3.552 1.604 4.576 1.773h.116l1.716-.518-.912 1.316v.173c.096.672.528 1.29 1.03 1.888.5.595 1.127 1.151 1.716 1.717.556.528 1.09 1.06 1.471 1.516l-2.5-1.288c-1.307-.538-1.441-.835-1.945-1.2a1.4 1.4 0 0 0-.298-.174c-1.291-1.508-2.61-3.014-4.511-4.23h-.06c-.912-.432-2.23-.995-3.547-1.658-1.204-.605-2.302-1.346-2.974-2.003.135-.288.26-.605.404-.797.08-.115.23-.365.345-.509zm12.092 13.953h.633l.183.288c.22.345.269.643.355.931.09.288.22.653.605 1.294l.326.528-.537.317a1.27 1.27 0 0 1-1.094.072c-.317-.144-.537-.365-.768-.614l-.007-.009-.008-.008c-.163-.192-.298-.345-.413-.537s-.211-.452-.192-.72c.04-.538.336-.836.73-1.321zm-11.802.211c-.355.013-.74.036-1.135.08-.509.057-1.018.153-1.411.287l.001.003c-3.078.864-5.08 1.14-6.843 4.113a.608.608 0 0 0 .519.912l.844.035.007-.001c.883-.25.672-.183 1.774-.634l.002.006c1.22-.518 2.307-.682 4.454-.902.23-.845.519-1.652.874-2.387a8 8 0 0 1 .922-1.507zm-2.003 4.737c-1.914.201-2.865.355-3.934.816l.003.006c-1.098.451-.902.413-1.779.663l-.03.015c-.893.537-1.836 1.333-2.847 2.594-.644.499-.09 1.169.739.973 2.485-.23 4.746-1.195 7.238-1.262l.03-.288a32 32 0 0 1 .576-3.519zm15.038 2.657 2.803 3.318-.134.69-2.555 1.079 2.133 1.115-.02.089a.56.56 0 0 0 .04.336l-2.1-.912-.566-1.379c-.183-1.167.04-1.853.288-2.631.134-.432.05-1.14.115-1.716zm-15.722 1.962h-.002c-.825.024-1.762.07-3.924.769-.528.259-1.09.528-1.343.758-1.499 1.38-2.9 3.02-3.431 3.832a.606.606 0 0 0 .681.912c1.966-.518 2.803-.47 3.375-.288.413.06.317.135.768-.096 1.232-.345 2.127-.816 3.473-.672.125-1.654.23-3.437.403-5.22zm-.873 6.005h-.002v.001c-.835-.003-1.513.288-2.493.586-2.996 1.77-5.036 4.173-5.62 5.007-.03.037-.212.202-.231.23-.307.48.144 1.075.682.913 1.938-.73 4.218-.73 6.703-.51a3.3 3.3 0 0 1 .336-.98c.576-1.146.845-3.007 1.03-5.206l.001-.017a4 4 0 0 0-.413-.024z" overflow="visible"/>
    </g>
</svg>
