<svg xmlns="http://www.w3.org/2000/svg" width="52.157" height="52.157">
    <path fill="#38362e" fill-opacity=".973" stroke="#38362e" stroke-opacity=".973" d="m-11.427 7.439-12.666 4.1-6.756 42.757H7.992L1.245 11.592Z" opacity=".99" transform="matrix(.95786 0 0 .9052 37.026 -1.851)"/>
    <path fill="#b0b0b0" d="M14.614 15.84c-.268 0-.307.008-.393.043a.7.7 0 0 0-.135.062c.008.023.06.048.27.154.249.134.825.451.825.48 0 .005-.01.003-.02-.004-.01-.01-.02-.006-.009.009q.013.021.031.013c.031-.017.183.105.183.134q-.01.02.01.007a8 8 0 0 1 1.458 1.282c.173.182.192.22.173.24q-.012.013.009.002c.031-.016.125.106.09.135q-.011.014.008.003c.031-.017.173.154.144.182q-.012.021.008.01c.031-.017.09.07.07.106q-.01.017.01.007c.01-.008.05.03.09.09l.069.115.076-.072c.04-.038.077-.062.09-.06q.014.013.004-.007c-.007-.015.02-.05.06-.085.04-.033.115-.105.154-.144.307-.153.403-.412.7-.528.01.01.02.007.01-.006-.007-.013.02-.043.06-.062l.07-.05c0-.01-.25-.25-.269-.25-.71-.663-1.681-1.306-2.598-1.63a3.5 3.5 0 0 0-.883-.09c-.163-.002-.269-.004-.365-.004zm22.99.182a2.3 2.3 0 0 0-.749.115 5.6 5.6 0 0 0-1.295.567c-.624.451-1.063.777-1.58 1.182-.01 0-.162.153-.162.163 0 .003.069.06.163.134.09.07.153.135.144.144q-.011.02.006.01c.031-.017.125.058.09.084q-.011.015.008.004c.032-.017.567.47.548.509q-.011.02.006.01c.01-.007.06.03.125.084l.106.115.06-.063c.03-.036.134-.163.21-.268.077-.116.174-.202.183-.192.01.006.02.003.01-.006-.007-.024.06-.125.07-.105q.011.007.003-.004c.816-.893 1.618-1.613 2.645-2.13l.278-.143-.076-.034a1.8 1.8 0 0 0-.7-.134h-.06zm-11.469.183c-.364 0-.73.006-.95.02-.988.063-1.992.212-2.765.423-.48.106-.983.298-1.412.47-.355.144-.94.423-1.296.624-.125.063-.22.135-.25.144-.21.135-.403.27-.614.413-.432.346-.595.48-.653.538-.04.038-.076.076-.076.076-.007 0-.154.135-.307.298-.27.22-.384.374-.595.634-.05.062-.106.124-.125.115-.01-.008-.02-.005-.01.005a15 15 0 0 0-.807 1.207c-.633 1.107-1.026 2.33-1.25 3.52-.192 1.026-.259 2.065-.22 3.452.02 1.011.076 1.77.192 2.46.172.965.412 2.019.873 2.822.04.072.07.144.06.164q-.01.02.003.008c.173.173.269.384.442.576.01.015.02.036.01.048.03.013.076.106.105.135q-.011.013.01.008c.432.422.806.787 1.328 1.12.031.021.07.043.077.057.03.03.518.356.518.356.374.24.787.499 1.17.768.01.008.05.038.077.069.04.029.07.05.076.05.01 0 .04.023.07.048s.069.058.09.062c.02.008.03.024.02.036q-.014.024.008.01c.031-.019.509.336.48.375q-.01.019.01.007c.01-.007.05.013.09.043.04.031.124.09.172.134l.106.077.06-.183c.07-.201.173-.46.269-.604.105-.173.662-1.32.787-1.564.076-.192.173-.394.24-.567.04-.105.09-.22.115-.24.05-.105.22-.633.326-.94a8.4 8.4 0 0 0 .336-1.44c.01-.09.031-.221.041-.288.05-.327.04-1.23-.02-1.616-.031-.22-.173-.758-.221-.854a.4.4 0 0 0-.144.036 7 7 0 0 1-.691.182 3.26 3.26 0 0 1-1.601-.211 4.4 4.4 0 0 1-.864-.47 7.4 7.4 0 0 1-1.183-1.123c0-.01-.007-.024-.01-.033-.04-.036-.01-.164.04-.212.442-.364.759-.47 1.116-.576.163-.043.576-.069.797-.043.345.036.365.043.537.09.327.085.836.308.95.414.02.02.042.033.042.026 0-.017.316.22.441.355.06.058.115.115.106.135q-.011.02.006.01c.25.22.364.412.518.595.031.05.076.134.115.173.183.24.375.854.47 1.266.077.403.116.624.106 1.132-.002.768-.115 1.438-.374 2.378a18 18 0 0 1-.48 1.389 2 2 0 0 1-.09.21 17 17 0 0 1-.984 1.988q-.011-.013-.01.005c.01.036-.03.125-.05.106-.01-.008-.02-.005-.008.009-.01.106-.07.182-.115.278-.125.24-.183.615-.192.969-.005.182-.001.22.02.22.076 0 1.208.116 1.597.164.49.058.538.076.576.211.032.106-.01.211-.124.25-.07.033-.106.03-.548-.021-.268-.029-.69-.072-.95-.106-.26-.024-.48-.043-.5-.05-.04-.013-.05.024-.03.062.01.021.04.106.06.173.02.084.06.173.06.182.01.014.01.027.007.027-.02 0 .106.22.202.384l.076.134.144-.012c.336-.029.787-.057.873-.048a.19.19 0 0 1 .154.072c.106.115.07.26-.05.326-.05.027-.403.063-.624.07-.05 0-.06.005-.031.031.01.017.07.06.134.106.06.036.135.084.163.115q.047.039.032.012c-.01-.027-.01-.027.01 0a.1.1 0 0 0 .05.036 6 6 0 0 0 .643.196c.566.072 1.229-.043 1.665-.288.06-.034.124-.05.134-.043q.01.008.01-.011c0-.013.05-.05.115-.09.183-.106.519-.49.643-.711.116-.192.192-.375.192-.442 0-.016-.105-.072-.22-.134-.375-.183-1.053-.557-1.053-.615q-.002-.02-.01-.009c-.02.017-.25-.173-.23-.202q.004-.017-.01-.009c-.031.021-.346-.326-.327-.365q.012-.02-.007-.009c-.031.017-.144-.192-.173-.336-.06-.201-.04-.528.05-.7.05-.106.077-.145.106-.135q.015.012.001-.013c-.01-.019.02-.062.106-.144.06-.06.134-.115.134-.115a.5.5 0 0 0 .106-.043c.05-.027.182-.063.268-.09.183-.044.202-.044 1.529-.044 1.233 0 1.361.003 1.513.036.192.043.45.163.422.182q-.01.018.01.008c.01-.008.06.029.124.084.05.05.09.105.076.125q-.01.019.007.009c.02-.016.135.192.163.317.032.144.02.374-.01.518-.115.365-.403.701-.911 1.044-.23.173-.778.441-1.024.537-.04.015-.07.034-.07.043 0 .031.135.327.164.375.02.026.031.06.02.076q-.014.025.009.01c.01-.008.02-.006.02.005s.04.084.09.163c.05.072.076.144.076.154q-.01.013.007.008c.03-.01.278.259.268.278q-.012.015.009.004c.01-.007.05.01.076.036l.06.05c.005 0 .05.031.115.07.22.172.586.307.94.364.145.027.28.036.558.036.336 0 .384-.005.566-.057a3 3 0 0 0 .595-.23c.09-.058.183-.106.183-.085q.011.01 0-.01c-.007-.014.001-.03.02-.034.02-.007.032-.024.032-.036 0-.021-.077-.027-.317-.034-.355-.006-.432-.024-.528-.105-.134-.135-.02-.365.182-.365.135 0 1.007.06 1.041.072.02.008.134-.084.134-.125 0-.008.01-.026.031-.043.077-.084.375-.787.327-.807-.031-.016-1.292.106-1.973.183a.4.4 0 0 1-.173-.013c-.06-.027-.153-.135-.153-.202 0-.062.06-.173.134-.192.09-.043.922-.144 1.91-.22l.316-.027-.004-.23a2 2 0 0 0-.05-.442c-.02-.125-.04-.22-.05-.23-.06-.212-.182-.413-.25-.577-.076-.163-.143-.278-.134-.278q.013-.001-.006-.016c-.211-.326-.355-.643-.528-1.02-.02-.034-.02-.07-.02-.077.006-.01.003-.019-.007-.019a6 6 0 0 1-.365-.806c-.003-.017-.01-.036-.02-.043-.04-.034-.355-.903-.47-1.317-.298-1.026-.394-1.665-.394-2.48-.001-.758.106-1.316.346-1.921.134-.326.364-.74.412-.71q.014.012.005-.007c-.02-.034.125-.221.346-.461.172-.182.508-.46.528-.442.01.008.02.005.01-.006-.02-.028.307-.22.556-.336a3 3 0 0 1 1.282-.268c.326-.002.566.03.653.084.47.22.643.268.892.518.07.09.154.134.144.23-.003.043-.134.202-.163.192q-.013-.002-.006.016c.007.012-.125.154-.27.308-.345.345-.48.46-.508.441-.01-.007-.02-.004-.01.007.01.017-.04.062-.268.221-.116.076-.423.26-.586.336-.317.163-.74.278-1.085.326a3.7 3.7 0 0 1-1.102-.06 3 3 0 0 1-.365-.105.3.3 0 0 0-.124-.031c-.02.015-.135.355-.173.566-.07.308-.09.47-.106.96-.02.634.04 1.172.211 1.894.164.672.49 1.644.826 2.376.04.09.07.183.06.183q-.011.02.003.008c.01-.012.077.106.09.173.145.288.26.528.394.835 0 .014.008.026.01.026.008 0 .05.063.09.144.042.077.135.23.193.365.134.22.23.49.288.663.02.06.04.124.05.124s.076-.05.173-.134c.173-.144.633-.5.643-.5a.4.4 0 0 0 .077-.05c.105-.083.09-.071.307-.22.125-.084.21-.144.22-.144.02 0 .02-.005.02-.01-.01-.01.183-.153.212-.153q.015-.002.03-.017c.01-.027.529-.365.567-.365.01 0 .02-.005.01-.011-.005-.006.008-.021.031-.034.788-.528 1.506-.94 2.042-1.65.05-.051.125-.135.144-.174.02-.035.06-.06.07-.05.01.008.02.004.009-.007-.007-.012.02-.072.07-.135.44-.624.796-1.437 1.023-2.436.115-.47.22-1.366.278-2.029.134-1.615.09-3.063-.09-4.292-.031-.211-.06-.384-.06-.422a.2.2 0 0 0-.01-.062c-.006-.006-.031-.135-.06-.26-.22-1.14-.672-2.364-1.204-3.26-.134-.27-.326-.52-.47-.769q.01-.012-.01-.013a.6.6 0 0 1-.134-.153c-.144-.183-.317-.404-.422-.528-.02-.029-.041-.06-.031-.072q.009-.017-.008-.008c-.032.017-.183-.154-.164-.173q.012-.021-.002-.009c-.01.008-.164-.125-.317-.269-.183-.173-.384-.365-.5-.46a1 1 0 0 1-.191-.183q.003-.016-.01-.013c-.031.011-.173-.09-.164-.125q.011-.02-.003-.008c-.47-.26-.816-.548-1.286-.797-.567-.327-1.201-.557-1.895-.778a14 14 0 0 0-3.293-.566 17 17 0 0 0-.96-.021zm-12.45.084c-.032.005-.106.182-.145.297-.076.279-.07.768.01 1.168.02.076.031.172.04.192.02.115.107.374.212.681.22 1.018.768 1.726 1.153 2.567q-.01.02.003.009c.02-.016.384.614.384.653 0 .014.007.02.01.016q.013-.006.031.023c.01.026.02.026.041.004.02-.015.02-.033.02-.043-.005-.008.003-.036.02-.062.01-.026.031-.05.031-.057.212-.327.336-.75.567-1.033q.014.01.005-.011c-.01-.026.134-.25.163-.25.01 0 .01-.007.009-.017-.01-.023.163-.269.182-.25.01.004.01-.003.008-.013-.01-.024.365-.528.528-.72.01-.013.06-.063.106-.135.04-.05.09-.084.105-.084.041.023.006-.115-.04-.173-.02-.031-.04-.07-.031-.084q.01-.02-.003-.01c-.008.008-.06-.047-.134-.134-1.03-1.042-1.97-2.095-3.198-2.548-.04-.017-.076-.03-.076-.03h-.002zm25.093.23c-.02 0-.04.006-.04.013 0 .009-.041.031-.106.05-1.06.365-1.672 1.082-2.377 1.647-.01-.006-.01-.003-.01.007.008.029-.317.365-.336.365q-.013-.01-.006.01c-.221.25-.317.403-.5.662-.069.106-.105.164-.076.183.01.013.01.03.004.038q-.012.015.01.003c.02-.013.076.06.069.084-.002.006.004.01.01.01.04 0 .346.404.336.442q-.003.02.01.01c.02-.014.365.48.557.835.22.375.441.826.422.864q-.011.023.003.01c.02-.015.21.375.22.49.02.07.04.062.09-.027a20 20 0 0 0 1.327-2.553c.22-.423.375-.912.5-1.397 0-.02.02-.154.04-.269.06-.288.06-.987.02-1.167-.04-.173-.125-.278-.182-.288h-.01zm-8.466 1.756c.393-.001.912.125 1.281.278.077.036.163.07.173.07.031 0 .298.173.346.22.172.173.259.461.22.625a.7.7 0 0 1-.134.297c-.06.084-.202.183-.22.173q-.013-.01-.008.008c.02.029-.221.144-.423.192-.134.034-.22.043-.509.048-.374.006-.374.006-.662-.062-.5-.135-.807-.365-.922-.759a.89.89 0 0 1 .26-.892c.03-.027.134-.084.21-.135.145-.062.173-.076.346-.084l.076-.002zm-6.752.02c.154 0 .288.01.307.027.01.013.031.017.04.011.02-.019.318.07.423.135.183.09.365.316.346.384q-.011.032.01.017c.02-.011.02.03.01.153a.6.6 0 0 1-.06.27c-.07.133-.202.277-.22.268-.01-.008-.02-.004-.008.01.02.03-.192.173-.365.22a1.2 1.2 0 0 1-.375.058 3 3 0 0 1-.288-.004 3 3 0 0 1-.787-.278c-.192-.135-.336-.327-.326-.49a.47.47 0 0 1 .134-.288c.163-.192.624-.422.96-.47.06-.008.154-.013.22-.013zm3.16.654c.278-.014.604.072.748.23q-.011.02.009.009c.03-.017.124.09.182.23.07.163.106.336.07.5-.02.153-.145.383-.183.364-.01-.007-.02-.003-.006.012.02.036-.125.173-.269.22a.66.66 0 0 1-.345.073c-.144.005-.212 0-.221-.016q-.013-.021-.031-.013c-.05.03-.336-.135-.432-.24-.077-.09-.173-.212-.154-.23q.01-.02-.007-.022c-.02 0-.105-.23-.124-.365-.02-.163.115-.556.172-.508q.014.011.003-.01c-.032-.05.21-.211.364-.24.041-.01.135-.014.221-.014zm4.644 2.537c.125-.001.23.019.365.06.336.115.7.355.921.624.27.326.375.538.442.883.05.24.031.423-.06.586-.076.173-.163.22-.326.269h.001c.07.027-.163.036-.173.036a1.1 1.1 0 0 1-.364-.106c-.183-.084-.576-.422-.557-.46q.01-.021-.004-.01c-.02.022-.076-.025-.06-.05q.012-.017-.007-.008c-.031.016-.125-.076-.09-.106q.012-.014-.02-.008-.03.004-.031-.02c.002-.013-.002-.023-.01-.022-.032.008-.115-.048-.115-.084 0-.017-.008-.027-.02-.021-.01.006-.06-.024-.135-.063-.06-.043-.154-.105-.192-.134a2 2 0 0 1-.298-.375.3.3 0 0 0-.02-.062 1 1 0 0 1-.02-.23c-.001-.173.006-.202.05-.298a.6.6 0 0 1 .27-.298.8.8 0 0 1 .402-.115zm-12.004-.787h.07c.336.001.365.003.557.07.201.062.585.268.585.316q0 .018.031.02c.041 0 .173.135.154.164-.01.01-.005.013.007.01.173.153.27.268.365.575.06.192.07.394.02.528-.04.125-.182.307-.211.307-.01 0-.031.009-.031.018 0 .033-.23.144-.384.192-.076.023-.23.05-.346.062v-.002a2.8 2.8 0 0 1-.633-.001 2 2 0 0 1-.528-.135c-.03-.013-.06-.026-.076-.028-.05-.01-.298-.183-.365-.221-.105-.09-.211-.24-.201-.269q.01-.019-.007-.01c-.01.008-.041-.022-.06-.061-.25-.528-.06-1.18.384-1.392.201-.09.345-.135.662-.135zm8.263 2.299.06.002c.154.011.413.106.422.163q.01.025.041.027c.04 0 .24.23.22.269q-.01.019.004.008c.02-.02.134.154.192.288.076.211.106.355.06.528a.95.95 0 0 1-.49.634.8.8 0 0 1-.278.072c-.164.007-.192.002-.279-.036-.031-.012-.06-.024-.076-.026-.05-.01-.211-.125-.26-.173-.124-.135-.182-.183-.23-.346-.144-.278-.211-.643-.144-.806.01-.034.031-.077.031-.106.01-.07.135-.22.221-.307.173-.134.336-.202.528-.202zm-4.149-.134c.278-.001.48.028.74.124.182.058.527.221.566.27.02.015.04.028.05.028q.013.002.006.024-.015.022.01.009c.03-.02.268.22.364.364a.9.9 0 0 1 .153.692c-.01.06-.03.124-.03.134-.001.006-.032.05-.06.115-.07.125-.289.432-.337.288-.04-.144-.345.07-.508.026a1 1 0 0 1-.26-.125c-.268-.153-.422-.22-.537-.24a1 1 0 0 0-.643.084.7.7 0 0 1-.144.05c-.01 0-.02.004-.01.01.02.017-.125.115-.144.09-.01-.007-.02-.002-.007.011.02.029-.135.106-.22.135-.145.023-.471-.135-.423-.212q.01-.017-.01-.006c-.03.019-.124-.106-.105-.144q.012-.023-.002-.011c-.01.008-.04-.024-.06-.072-.183-.365-.125-.768.153-1.097.077-.106.327-.279.365-.26.01.01.02.006.007-.013-.01-.02-.007-.024.02-.014.02.008.031.006.02-.004-.01-.024.25-.135.269-.125.01.007.02.003.02-.008 0-.043.298-.09.624-.105.04-.002.09-.002.134-.002zm-6.729 6.134c.125-.002.26.036.48.134.173.063.404.221.519.365.211.25.269.5.201.797-.06.288-.201.48-.422.586-.182.084-.48.069-.691-.034-.211-.105-.422-.403-.547-.758a1 1 0 0 1-.07-.423c0-.21.005-.23.05-.336a.54.54 0 0 1 .308-.288.6.6 0 0 1 .173-.036zm18.133.682c.04 0 .076.003.134.012.135.03.211.072.26.135.01.017.02.02.01.005-.01-.021 0-.017.04.006.07.043.182.192.163.22q-.006.027.01.037c.04.014.031.297-.02.422-.04.134-.211.346-.23.326-.01-.006-.02-.003-.02.009 0 .034-.173.134-.288.173-.164.043-.26.036-.385-.021-.163-.062-.25-.144-.22-.183q.008-.017-.01-.005c-.032.017-.135-.173-.145-.288-.02-.106.02-.26.077-.374a.8.8 0 0 1 .662-.432zm-15.662.662a.8.8 0 0 1 .173.106c0 .008.02.02.041.028q.045.013.031.036c.09.039.26.221.327.307q-.015.024.008.01.03-.016.09.135c.06.134.07.173.06.317a.65.65 0 0 1-.336.595c-.153.076-.268.106-.403.084-.124-.021-.316-.134-.297-.154q.01-.018-.01-.006c-.01.007-.04-.003-.06-.024s-.06-.048-.076-.06c-.041-.026-.154-.173-.23-.317-.135-.22-.183-.499-.135-.691.01-.043.02-.09.02-.106.001-.009.01-.024.031-.033.01-.01.031-.024.031-.031.134-.327.5-.327.72-.202zm13.574.614q.062 0 .144.01c.164.02.365.105.346.134q-.008.014.02.006c.031-.011.173.134.173.182.003.014.01.06.02.106.01.06.01.115-.01.192-.04.144-.134.317-.163.297q-.013-.01-.007.01c.02.03-.192.268-.346.384a1.6 1.6 0 0 1-.585.307c-.366.106-.644 0-.788-.269-.04-.084-.05-.134-.05-.288 0-.192.003-.21.076-.364.09-.183.374-.51.432-.48.02.006.031.003.02-.006-.01-.024.192-.135.336-.183.135-.038.25-.06.365-.06zm-13.413 1.696c.07 0 .153.015.22.043.27.105.529.26.625.374.124.144.144.221.144.423-.001.172-.008.201-.06.288a.6.6 0 0 1-.307.278.9.9 0 0 1-.375.043c-.528-.134-.854-.537-.748-.96.02-.115.172-.365.192-.365.008 0 .05-.026.09-.062a.36.36 0 0 1 .22-.084zm13.36.576c.05 0 .115.006.163.017.05.01.173.084.173.105q0 .016.031.017c.06 0 .192.22.22.403.032.134.01.24-.059.432a1.13 1.13 0 0 1-.787.662c-.212.049-.356.036-.51-.03-.01-.005-.02-.016-.01-.024q.003-.013-.02-.004c-.05.017-.21-.173-.249-.27a1.07 1.07 0 0 1 .031-.614c.01-.03.031-.057.041-.057q.013-.002.007-.021c-.02-.029.09-.192.134-.173.01.007.02.003.007-.011-.02-.031.134-.183.26-.26.21-.134.402-.2.604-.191zm-15.11 4.963a42 42 0 0 0-3.974.182c-.298.03-.346.048-.423.183-.105.153-.04.393.125.49.076.05.172.05.777-.007a45 45 0 0 1 5.259-.135c.922.044 1.366.07 1.434.084.041.01.07.01.077.002a.7.7 0 0 0-.02-.173 2 2 0 0 1-.041-.355l-.01-.202h-.076c-.05-.001-.336-.014-.644-.032a45 45 0 0 0-2.454-.062zm14.03.084-.221.014-.01.202c-.009.115-.032.268-.041.355-.02.084-.031.173-.031.173a33 33 0 0 1 1.409-.077 69 69 0 0 1 3.128-.014c.672.011 1.26.062 1.866.115.24.02.5.039.567.048h.001c.25.033.384.026.47-.027.125-.076.164-.153.183-.288.003-.105.002-.163-.04-.22-.077-.135-.212-.125-.327-.135a21 21 0 0 0-1.257-.105l-.95-.058v.003a15 15 0 0 0-.902-.033 51 51 0 0 0-3.807.084zm-5.535 1.39c-.008 0-.04.042-.07.105-.134.211-.163.259-.172.259-.01-.003-.02.002-.01.013.006.011-.008.043-.032.076-.06.077-.09.125-.069.072q.016-.03-.007-.014c-.01.008-.02.024-.01.034.01.019-.327.364-.365.364-.009 0-.04.024-.077.05-.076.07-.336.221-.509.298-.326.154-.787.26-1.193.279-.182.01-.259.005-.585-.039-.05-.007-.09-.003-.106.01-.007.012-.002.023.01.023.01 0 .02.014.01.033q-.01.027.005.023c.01-.006.04.024.06.063.07.105.172.201.21.297q-.01.019.01.007c.134.063.25.183.365.26.518.345 1.184.566 1.955.643.04.004.307.005.585.002.538.029.902-.125 1.37-.173q.014.01.005-.005c.317-.134.663-.269.974-.46.125-.073.26-.183.384-.318.076-.084.317-.374.307-.393a1 1 0 0 0-.211.012 2.9 2.9 0 0 1-1.115-.135c-.124-.028-.201-.062-.192-.071.007-.01-.003-.013-.02-.005-.076.03-.883-.423-.844-.49q.008-.017-.007-.014c-.02.008-.183-.134-.298-.26a3.4 3.4 0 0 1-.355-.527c-.01-.026-.031-.043-.04-.043zm-5 .105c-.09 0-.259.016-.595.043-2.053.173-3.686.413-4.807.672-.278.07-.403.125-.47.173a.42.42 0 0 0-.115.259c0 .134.115.269.22.326.06.023.212.014.327-.017 1.815-.432 3.628-.624 5.44-.777.326-.027.575-.05.575-.06 0-.007-.04-.05-.076-.106-.134-.144-.288-.355-.288-.374q-.001-.022-.02-.016c-.02.011-.031-.024-.02-.062q.002-.017-.01-.005c-.01.01-.031-.004-.04-.029s-.02-.043-.126-.038zm9.98.013c-.076 0-.105.01-.105.026 0 .043-.22.346-.374.519-.05.06-.106.115-.106.124 0 .005.07.011.154.014.441.017 1.901.173 2.885.279 1.012.134 1.49.211 2.459.403.09.017.346.09.451.134.076.027.24.024.307-.008a.6.6 0 0 0 .192-.192c.06-.135-.01-.356-.134-.423-.22-.134-1.502-.374-2.848-.557a95 95 0 0 0-1.801-.21c-.644-.06-.95-.085-1.082-.085z"/>
</svg>
