<svg xmlns="http://www.w3.org/2000/svg" width="52.157" height="52.157">
    <g stroke="#000" opacity=".99">
        <path fill="#e2d9ba" stroke="#38362e" stroke-opacity=".965" d="m-11.042 6.667-12.954 4.22-6.853 43.409H8.766L1.91 10.888Z" transform="matrix(-.84528 0 0 .84362 16.746 .374)"/>
        <path fill="#38362e" fill-opacity=".957" stroke="none" d="M26.066 12.291c-.144.007-.25.134-.278.278-.883 4.536-1.71 7.069-5.398 10.115-.211.173-.173.547.07.643a14.2 14.2 0 0 0 3.76 1.03c-.04 1.64-.172 3.128-.623 4.47-.576 1.705-1.69 3.218-3.95 4.594l-.007.004c-1.088.7-1.842 1.286-2.368 2.037-.528.759-.796 1.666-.921 2.92-.02.193.076.365.22.404 2.828.758 6.168 1.118 9.504 1.102 3.335.015 6.673-.346 9.5-1.102.163-.04.259-.211.23-.403-.144-1.257-.403-2.168-.931-2.92-.528-.76-1.278-1.333-2.367-2.038l-.007-.004c-2.259-1.376-3.37-2.889-3.95-4.595-.461-1.339-.576-2.827-.624-4.465a14.4 14.4 0 0 0 3.764-1.034c.22-.106.269-.48.07-.644-3.691-3.047-4.527-5.58-5.404-10.115-.03-.172-.172-.288-.307-.278z" opacity=".99" overflow="visible" paint-order="stroke fill markers"/>
    </g>
</svg>
