<svg xmlns="http://www.w3.org/2000/svg" width="52.157" height="52.157">
    <g stroke="#000" opacity=".99">
        <path fill="#e2d9ba" stroke="#38362e" stroke-opacity=".965" d="m-11.042 6.667-12.954 4.22-6.853 43.409H8.766L1.91 10.888Z" transform="matrix(-.84528 0 0 .84362 16.746 .374)"/>
        <path fill="#c80e0e" fill-opacity=".992" stroke="none" d="M18.746 12.65a.5.5 0 0 0-.181.056l-.363.185.28.33c1.378 1.628 1.665 3.123 1.728 4.438.031.656.001 1.266.015 1.821.014.557.069 1.077.326 1.51.43.869.942 1.5 1.53 1.948-.477.38-1.017.806-1.711 1.381a.298.298 0 0 0 .071.503 14 14 0 0 0 3.782 1.038c-.041 1.67-.161 3.196-.63 4.572-.588 1.727-1.706 3.247-3.962 4.622l-.008.004c-1.089.706-1.843 1.289-2.36 2.032s-.776 1.624-.913 2.868a.3.3 0 0 0 .22.322c2.83.758 6.17 1.118 9.508 1.103 3.339.016 6.68-.345 9.511-1.103a.3.3 0 0 0 .22-.322c-.137-1.243-.397-2.125-.915-2.868s-1.27-1.326-2.359-2.032l-.008-.004c-2.256-1.375-3.373-2.895-3.962-4.623-.469-1.376-.589-2.903-.63-4.575a14.3 14.3 0 0 0 3.781-1.032.298.298 0 0 0 .073-.505 81 81 0 0 0-1.717-1.376c.59-.449 1.105-1.083 1.535-1.954l.013-.023c.245-.428.3-.94.313-1.486.014-.556-.017-1.165.015-1.821.063-1.315.35-2.81 1.728-4.438l.28-.33-.362-.185c-.248-.127-.473-.025-.692.09s-.447.279-.682.444c-.447.315-.926.608-1.201.635-.551-.343-1.098-.306-1.513-.074-.437.246-.74.666-.874 1.081l-.194.6.52-.183c.117-.041.212-.023.332.062s.251.249.365.478c.228.458.38 1.166.35 1.906s-.237 1.507-.698 2.135a3.1 3.1 0 0 1-1.138.95c.316-.416.504-.93.504-1.486 0-1.394-1.17-2.52-2.593-2.52s-2.595 1.126-2.595 2.52c0 .558.189 1.07.504 1.486a3.1 3.1 0 0 1-1.137-.95c-.461-.628-.668-1.396-.7-2.135s.123-1.448.35-1.906c.116-.23.247-.393.367-.478s.215-.103.33-.063l.521.184-.194-.6a1.94 1.94 0 0 0-.874-1.081c-.414-.233-.961-.269-1.513.075-.275-.028-.753-.32-1.2-.636-.236-.166-.465-.33-.684-.444-.163-.086-.33-.164-.509-.145m.787 1.043.13.09c.234.167.481.35.736.493s.519.244.789.242h.073l.062-.044c.443-.31.8-.27 1.099-.102q.11.063.205.15t.173.186a.8.8 0 0 0-.208.109q-.084.06-.16.135a2 2 0 0 0-.144.164q-.138.177-.247.4c-.295.592-.46 1.4-.424 2.26.036.857.28 1.769.83 2.519l.021.027q.109.144.232.279l.08.08q.103.108.217.207l.097.08q.122.1.255.189l.086.058q.176.113.373.21l.008.005c.361.176.772.31 1.235.39.322.1.688.123 1.022.133h.013c.334-.01.7-.034 1.021-.134a4.6 4.6 0 0 0 1.22-.38l.02-.012q.19-.094.362-.202.053-.034.103-.07a4 4 0 0 0 .564-.47l.08-.08q.138-.15.257-.31c.55-.75.792-1.662.828-2.52a6 6 0 0 0-.009-.632 5 5 0 0 0-.078-.598 4 4 0 0 0-.336-1.029c-.147-.295-.328-.54-.551-.7a.8.8 0 0 0-.208-.108c.103-.131.231-.253.378-.336.3-.167.655-.208 1.098.102l.063.045h.073q.1 0 .2-.018c.467-.08.914-.427 1.325-.718l.13-.09a7.7 7.7 0 0 0-1.044 2.551c-.1.483-.15.945-.17 1.377-.033.701-.003 1.326-.015 1.84-.013.513-.071.898-.23 1.163l-.006.011-.006.013a7 7 0 0 1-.196.368l-.07.12a6 6 0 0 1-.227.35 5 5 0 0 1-.22.292l-.068.077a4 4 0 0 1-.568.54h-.002a3.8 3.8 0 0 1-.662.407c-.806.384-1.776.497-2.925.492q-.06 0-.122-.005l-.015-.001h-.016q-.063.005-.122.005c-1.149.006-2.12-.107-2.925-.49a4 4 0 0 1-.448-.255 3 3 0 0 1-.218-.155l-.017-.013a4 4 0 0 1-.547-.522l-.075-.085a5 5 0 0 1-.219-.29 5 5 0 0 1-.23-.358l-.065-.11a7 7 0 0 1-.194-.367l-.006-.012-.007-.012c-.12-.2-.182-.465-.21-.802a6 6 0 0 1-.019-.361c-.013-.514.018-1.139-.016-1.84-.055-1.152-.31-2.515-1.213-3.928m6.546 3.707c.924 0 1.693.595 1.932 1.403a2 2 0 0 1 .07.352v.003q.003.036.003.073.005.052.006.105v.017a2 2 0 0 1-.026.274l-.01.071q-.025.128-.067.248l-.028.075a2 2 0 0 1-.099.215l-.044.075a2 2 0 0 1-.11.163l-.036.053-.003-.004a2.03 2.03 0 0 1-1.588.75 2.03 2.03 0 0 1-1.593-.755l-.001.003q-.017-.022-.03-.044a2 2 0 0 1-.126-.187l-.03-.05a2 2 0 0 1-.102-.224l-.026-.071a2 2 0 0 1-.067-.251l-.01-.065a2 2 0 0 1-.026-.277v-.016q.001-.053.005-.105l.005-.075a2 2 0 0 1 .068-.35v-.003c.24-.808 1.008-1.403 1.933-1.403" overflow="visible" paint-order="stroke fill markers"/>
    </g>
</svg>
