<svg xmlns="http://www.w3.org/2000/svg" width="52.157" height="52.157">
    <g fill-opacity=".992" opacity=".99">
        <path fill="#3a3931" stroke="#393831" stroke-opacity=".992" stroke-width="1.044" d="m-11.54 7.386-13.14 4.634-6.169 42.276H7.767L1.598 12.02Z" transform="matrix(1.04053 0 0 .96762 38.088 -3.75)"/>
        <path fill="#ed5b5b" d="m26.078 10.666-2.03 7.578s1.304-.154 1.999-.154c.7 0 2.069.154 2.069.154zm10.9 4.511L30.183 19.1s1.033.806 1.525 1.302c.49.49 1.351 1.574 1.351 1.574zm-21.794.001 3.917 6.799s.854-1.082 1.352-1.574c.49-.49 1.524-1.302 1.524-1.302zm10.898 3.852a7.05 7.05 0 0 0-7.048 7.048 7.05 7.05 0 0 0 7.048 7.048 7.05 7.05 0 0 0 7.048-7.048 7.05 7.05 0 0 0-7.048-7.048m-3.251 2.913h.005l.01.001h6.447a.166.166 0 0 1 .164.23l-.299.902a.18.18 0 0 1-.163.106h-2.324v2.177h1.654a.16.16 0 0 1 .163.125l.288.777a.17.17 0 0 1-.163.23h-1.947v2.492h3.33a.16.16 0 0 1 .162.125l.27.902c.02.096-.051.202-.145.211h-8.415c-.106 0-.192-.105-.163-.21l.297-.903a.18.18 0 0 1 .144-.125h3.287v-2.491h-1.989a.166.166 0 0 1-.163-.23l.298-.778a.17.17 0 0 1 .163-.125h1.696v-2.176h-2.302c-.07.004-.144-.038-.163-.106l-.298-.902c-.04-.106.04-.221.154-.23zm-4.586 2.102-7.578 2.03 7.578 2.037s-.154-1.371-.154-2.068c0-.692.154-2 .154-2zm15.669 0s.153 1.304.153 1.999c0 .7-.153 2.068-.153 2.068l7.577-2.037zm-14.81 6.134-3.923 6.794 6.799-3.917s-1.082-.854-1.575-1.351c-.49-.49-1.301-1.525-1.301-1.525zm13.953.001s-.806 1.033-1.302 1.526c-.49.49-1.574 1.351-1.574 1.351l6.799 3.917zm-9.01 3.733 2.031 7.577 2.037-7.577s-1.372.153-2.069.153c-.69 0-1.998-.153-1.998-.153z" paint-order="stroke fill markers"/>
    </g>
</svg>
