<svg xmlns="http://www.w3.org/2000/svg" width="52.157" height="52.157">
    <path fill="#38362e" fill-opacity=".973" stroke="#38362e" stroke-opacity=".973" d="m-11.427 7.439-12.666 4.1-6.756 42.757H7.992L1.245 11.592Z" opacity=".99" transform="matrix(.95786 0 0 .9052 37.026 -1.851)"/>
    <path fill="#b0b0b0" fill-rule="evenodd" d="M25.86 10.198h.06c-.336.084-.662.336-1.03.69-1.556 1.556-2.184 4.287-.965 6.219.05.47-.02.883-.22 1.23-.586.993-1.554.892-2.515 1.131-.528.144-1.005.327-1.45.644-.326.23-.623.528-.883.892-2.91 4.026.519 7.242 4.483 7.735 1.157.154 2.39.183 3.523.269 1.163.084 2.279.134 2.974.586.962.643.931 1.869.031 2.45-.816.527-2.206.883-3.744 1.243l-5.385 1.442c-1.024.24-1.777.672-2.241 1.328-.864 1.207-.49 2.633.749 3.41 2 1.254 4.834.163 6.579 2.18.662.778.883 1.848.643 3.199.22-.211.374-.538.47-1.003.09-.48.135-.903.077-1.294-.212-2.162-2.247-2.947-4.025-3.433-.374-.115-.768-.24-1.172-.5-.94-.595-1.043-1.344.07-1.79 2.475-.997 9.797-1.051 11.588-3.275 1.246-1.55 1.136-3.856.134-5.493-1.273-2.068-3.543-2.063-5.785-2.443-1.46-.24-2.922-.441-4.376-.73-.48-.115-.74-.47-.787-.854-.135-1.11 1.056-1.041 1.79-1.268a5.7 5.7 0 0 0 1.937-1.044c1.38-1.115 2.141-3.066 2.053-4.826 1.088-2.021.374-4.495-1.166-6.147-.297-.317-.566-.5-.835-.567h.01c.01-.585.269-1.224.567-1.756a2.9 2.9 0 0 0-.893.681 2.5 2.5 0 0 0-.826-.758c.25.595.48 1.297.567 1.826zm1.64 2.332a.51.51 0 0 0-.509.508.5.5 0 0 0 .51.51.513.513 0 0 0 .508-.51.51.51 0 0 0-.509-.508m-2.711 0a.506.506 0 0 0-.509.508c0 .27.221.51.509.51a.5.5 0 0 0 .509-.51.505.505 0 0 0-.509-.508" class="0_VERTICALMOVER_svg__st0" clip-rule="evenodd"/>
</svg>
