<svg xmlns="http://www.w3.org/2000/svg" width="52.157" height="52.157">
    <path fill="#e2d9ba" stroke="#38362e" stroke-opacity=".973" stroke-width=".878" d="m26.075 46.901 11.235-3.729 5.882-37.94H8.963l5.882 37.94z" opacity=".99"/>
    <path fill="#38362e" fill-opacity=".965" stroke="#38362e" stroke-opacity=".965" stroke-width=".322" d="m26.055 41.736.94-1.09.356-4.37-.826-.317h.125v-1.755a8.945 8.945 0 0 0 8.372-8.926 8.945 8.945 0 0 0-8.372-8.926v-1.819h-.125l.826-.317-.355-4.37-.941-1.09-.893 1.122-.365 4.374.787.278h-.076v1.819a8.945 8.945 0 0 0-8.375 8.927 8.945 8.945 0 0 0 8.375 8.927v1.755h.076l-.796.278.374 4.374zm-.557-9.487a7 7 0 0 1-4.028-1.7l4.028-4.027zm1.143 0v-5.451l3.876 3.875a7 7 0 0 1-3.876 1.575zm4.696-2.373-4.026-4.024h5.726a7 7 0 0 1-1.701 4.024zm-10.665-.153a7 7 0 0 1-1.576-3.879h5.455zM33.037 24.7h-5.725l4.025-4.026a7 7 0 0 1 1.7 4.026zm-8.487 0h-5.455a7 7 0 0 1 1.575-3.88zm.95-.662-4.028-4.03a7 7 0 0 1 4.028-1.7zm1.144-.27v-5.453a7 7 0 0 1 3.876 1.577z"/>
</svg>
