<svg xmlns="http://www.w3.org/2000/svg" width="52.157" height="52.157">
    <path fill="#38362e" fill-opacity=".973" stroke="#38362e" stroke-opacity=".973" stroke-width=".878" d="m26.075 46.901 11.235-3.729 5.882-37.94H8.963l5.882 37.94z" opacity=".99"/>
    <path fill="#b0b0b0" d="M26.077 35.894c1.874-.076 4.72-1.757 5.367-2.698l1.346-5.018c-.02-.221-.041-.452-.077-.682-2.075.518-4.488.374-6.635.586-2.141-.02-4.524-.288-6.634-.605-.04.24-.06.47-.076.681v.001l1.35 5.031c.642.941 3.493 2.623 5.366 2.698zm8.312-3.265v-.004c.02-.009.051-.017.077-.026.04-.012.077-.024.135-.034l.05-.01c1.091-.174 2.225-.327 3.16-.97.019-.017.05-.034.068-.05.116-.085.212-.183.308-.25l.02-.016c.02-.016.03-.031.05-.048l.031-.031v-.001q.015-.018.031-.031l.031-.032v-.001l.031-.033q.03-.033.06-.07l.031-.036c.02-.032.05-.06.077-.091q.009-.01.01-.019c-.02-.031-.031-.062-.05-.106-.008-.016-.02-.032-.02-.048v-.001c-.008-.016-.02-.031-.02-.048-.008-.018-.01-.032-.02-.049l-.01-.024-.01-.026h-.001c-.01-.03-.02-.06-.041-.085l-.006-.016c-.008-.018-.01-.034-.02-.05v-.002c-.008-.017-.01-.036-.02-.05a.4.4 0 0 1-.041-.125v-.001c-.007-.02-.02-.036-.02-.058-.007-.02-.01-.036-.02-.058-.01-.037-.032-.077-.041-.126-.01-.039-.031-.084-.04-.135-.327-.922-.548-1.885-.798-2.83-.01-.044-.02-.091-.04-.145q-.009-.027-.01-.057c-.211-.749-.384-1.518-.71-2.226v-.001l-.01-.02-.004-.007-.006-.013-.032-.055-.01-.02v-.001l-.01-.017-.01-.018-.006-.01-.004-.008v-.001l-.003-.004c-.211-.384-.461-.432-.931-.528l-.51-.084q0 .047-.002.09c-.01.211-.069.422-.163.624-.182.384-.49.835-.777 1.25-.384.567-.826 1.114-1.062 1.41l.002.01.005.025.003.01c.278 1.595.528 3.374 1.072 4.771.009.023.02.043.031.07l.001.002.031.07v.002c.01.023.021.043.032.07l.001.002.031.071v.002l.032.072c.007.015.01.027.02.044q.009.018.01.031c.02.048.041.106.07.163zm-16.624-.002v-.002q.015-.04.032-.077l.031-.077c.02-.047.04-.105.06-.153v-.001l.032-.072v-.001c.032-.063.05-.135.077-.192l.01-.024v-.004a.4.4 0 0 1 .032-.062l.001-.003a.4.4 0 0 1 .032-.062l.001-.004c.008-.02.02-.043.02-.062l.002-.004c.854-1.61.672-2.902.965-4.46l.001-.008.005-.027.001-.008.005-.026.002-.008.006-.027.001-.007.006-.029.002-.007c-.23-.298-.663-.845-1.064-1.412-.288-.423-.614-.864-.778-1.251-.076-.202-.153-.423-.163-.624l-.002-.09-.972.182q-.03.007-.06.017a.2.2 0 0 0-.041.022l-.03.019-.01.007-.032.024c-.007.006-.01.013-.02.02-.007.005-.02.012-.02.018l-.01.01c-.269.306-.432.7-.566 1.087-.006.018-.01.034-.02.05v.002q-.007.025-.02.05c-.212.644-.384 1.316-.557 1.975v.001c-.25.903-.451 1.808-.768 2.677-.031.084-.06.163-.09.22-.01.036-.032.077-.041.125-.01.036-.031.072-.04.116-.01.036-.032.071-.042.115-.02.05-.05.115-.069.163a.3.3 0 0 1-.04.072l-.01.024-.008.016a.1.1 0 0 1-.02.03l.06.077q.009.01.01.02l.031.035q.009.01.01.017c.06.072.134.144.192.211l.031.031c.06.05.125.116.183.164l.03.028c.682.586 1.722.864 2.513.997l.06.01.13.022c.04.008.076.014.134.02.076.013.173.026.23.036.04.006.077.013.125.019.183.029.317.062.432.115l.02.007zm8.408-5.416c2.06-.013 5.864-.432 6.152-.47.106-.125.663-.672 1.173-1.409.268-.393.499-.806.624-1.091.05-.125.069-.182.076-.23-.423 0-.874-.116-1.328-.164a81 81 0 0 0-2.812-.163c-2.02-.084-3.984-.084-3.984-.084s-1.963 0-3.984.084a86 86 0 0 0-2.811.163c-.384.031-.884.183-1.328.164.01.05.031.134.076.23.135.288.346.691.624 1.091.51.73 1.076 1.292 1.173 1.409.288.03 4.213.47 6.248.47zm-9.278-3.757.5-.106c.21-.153.403-.182.72-.211.288-.039.672-.048 1.093-.084a82 82 0 0 1 2.89-.163c2.03-.085 3.984-.164 3.984-.164s1.953.077 3.984.164c1.014.038 2.058.09 2.89.163.422.03.806.038 1.093.084.268.05.528.038.739.211l.48.09c1.633-2.551 2.419-4.843 2.466-6.445-1.928.912-3.377 1.469-4.848 1.795a22.5 22.5 0 0 1 1.311 3.594v.084c.004.024 0 .183 0 .23 0 .06.01.085 0 .164l-.777-.084v-.168a21 21 0 0 0-1.391-3.66c-1.632.268-3.4.287-5.948.24-2.53.038-4.292.014-5.915-.24a23 23 0 0 0-1.355 3.656c-.01.115-.069.173-.076.173l-.94.105c.316-1.285.996-3.004 1.503-4.083-1.478-.326-2.933-.883-4.87-1.798.05 1.603.836 3.9 2.474 6.457zm2.396-4.658c.288.062.576.134.884.173.643-1.358 1.386-2.589 2.16-3.608.72-.94 1.446-1.75 2.109-2.266.662-.518 1.255-.7 1.641-.7.375 0 .978.192 1.641.7.662.519 1.394 1.325 2.108 2.266a21.5 21.5 0 0 1 2.202 3.603c.288-.048.567-.106.864-.173a21 21 0 0 0-2.36-3.982c-.748-.985-1.52-1.768-2.265-2.343-.739-.567-1.49-.941-2.187-.941-.69 0-1.443.365-2.187.94-.739.567-1.438 1.36-2.186 2.344a23 23 0 0 0-2.41 3.986z" paint-order="stroke fill markers"/>
</svg>
