<svg xmlns="http://www.w3.org/2000/svg" width="52.157" height="52.157">
    <g fill-opacity=".992" opacity=".99">
        <path fill="#3a3931" stroke="#393831" stroke-opacity=".992" stroke-width="1.044" d="m-11.54 7.386-13.14 4.634-6.169 42.276H7.767L1.598 12.02Z" transform="matrix(-1.04053 0 0 -.96762 14.07 55.905)"/>
        <path fill="#b2b2b2" d="M29.351 42.104a.959 1.033-90 0 0 1.033-.96.959 1.033-90 0 0-1.033-.96.959 1.033-90 0 0-1.033.96.959 1.033-90 0 0 1.033.96m-3.033-2.509a.922 1.033 0 0 0 .893-1.033.922 1.033 0 0 0-.922-1.033.922 1.033 0 0 0-.921 1.033.922 1.033 0 0 0 .921 1.033.922 1.033 0 0 0 .03 0zm2.85-1.696a.996 1.033 0 0 0 .995-1.033.996 1.033 0 0 0-.996-1.033.996 1.033 0 0 0-.995 1.033.996 1.033 0 0 0 .995 1.033zm-5.011-3.093c2.53-.035 4.45-1.428 6.053-3.533 1.82-2.033 3.084-4.575 3.72-7.698.624-1.27 1.154-1.494 1.684-1.771 1.607.49 2.132 1.25 1.754 2.232-.25 1.393-2.447 2.58-3.859 3.85-1.12 2.038-1.647 3.999.423 5.62 6.145 1.58 4.952-3.624 3.649-4.774-.874.422-1.405.94-1.684 1.54.182.336.691.624 0 1.077-.375-.035-.576-.221-.7-.461 0-.768-.356-.883 2.525-3.08 1.697-.892 1.819-2.302 2.456-3.541 1.17-6.727-1.368-8.745-4.56-9.932-.605.557-.788 1.342-1.053 2.08-.912-.221-1.764-.298-3.017-1.386-.307.307-.605.614-.912.921l-1.066.855c-.288-.73.297-1.053.595-1.509.432-.662 1.335-1.348 2.085-1.803l-1.684-.23c-.758.316-1.356.786-1.895 1.308l-.912.307c-.854 2.287-1.678 4.582-2.035 7.006.06.758.07 1.362.49 3.465l-.49 1.77-2.947 3.62 2.245-3.85.422-1.616a7.7 7.7 0 0 0-.422-3.08l.144-1.617c.768-2.384 1.655-4.671 1.824-7.314-.09-.595-.288-1.112-.912-1.308-7.88.326-11.808 4.03-14.243 9.008l-.144 1.616c1.478 6.846 5.72 10.355 11.367 12.164a8 8 0 0 0 .984.069h.125zm6.646-8.67c-.134 0-.269-.053-.413-.212l-1.238-1.602c-.202-.519-.278-1.027-.08-1.516.22.393.422.787.94 1.183.576.173 1.172.336 1.524.71.163.903-.03.951-.125 1.238-.192.056-.384.183-.585.192l-.03.001zm3.266-10.57C35 12.436 36.911 10.7 38.7 8.791c.144-.24-.096-.307-.7-.23-2.74 1.435-4.813 3.357-5.684 6.16.547.316.922.835 1.754.844z"/>
    </g>
</svg>
