<svg xmlns="http://www.w3.org/2000/svg" width="52.157" height="52.157">
    <g stroke="#000" opacity=".99">
        <path fill="#38362e" fill-opacity=".965" stroke="#38362e" stroke-opacity=".965" stroke-width=".844" d="m26.078 46.157-10.95-3.56-5.792-36.62h33.486l-5.795 36.62Z"/>
        <path fill="#afafaf" fill-opacity=".992" stroke="none" d="M26.097 41.516a.405.405 0 0 0 .365-.279c1.141-4.567 2.229-7.118 7.03-10.185.27-.172.212-.547-.09-.643-1.599-.528-2.072-.22-3.592-1.037-3.067-1.64-2.293-6.342 0-7.523 1.528-.787 1.994-.509 3.592-1.038.308-.105.356-.48.09-.643-4.801-3.067-5.889-5.619-7.03-10.185-.041-.172-.183-.268-.365-.278h-.001c-.183-.005-.355.125-.394.278-1.141 4.567-2.23 7.118-7.037 10.185-.268.173-.21.547.09.643 1.543.528 2 .269 3.596 1.042 2.705 1.302 2.673 6.238 0 7.515-1.597.768-2.052.528-3.595 1.041-.307.106-.355.48-.09.643 4.806 3.068 5.895 5.62 7.036 10.185.04.183.202.288.394.279z" opacity=".99" overflow="visible" paint-order="stroke fill markers"/>
    </g>
</svg>
