<svg xmlns="http://www.w3.org/2000/svg" width="52.157" height="52.157">
    <g opacity=".99">
        <path fill="#e2d9ba" stroke="#393831" stroke-opacity=".992" stroke-width="1.044" d="m-11.54 7.386-13.14 4.634-6.169 42.276H7.767L1.598 12.02Z" transform="matrix(-1.04053 0 0 -.96762 14.07 55.905)"/>
        <path fill="#3a3931" fill-opacity=".984" d="m30.082 44.968.796-1.144c.432-.634.682-.931.912-1.259.24-.326.432-.681.682-1.316l.115-.23-.173-.23c-.806-.903-2.134-1.661-3.49-2.346-1.355-.681-2.727-1.305-3.603-1.716-1.46-.941-2.56-2.1-3.626-3.324-.08-1.17-.576-2.011-1.809-3.198l.634-.681c1.483 1.426 2.134 2.69 2.116 4.346h-.106c.355.528.71 1.03 1.081 1.43a2.93 2.93 0 0 0 1.83.973c.529.08.923.115 1.717.518a7 7 0 0 0 .23.057h.001l.288-.057 1.201-.518-1.03-.519c-.02-.028-.03-.057-.06-.115-.09-.173-.221-.422-.346-.749a8 8 0 0 1-.336-1.138c3.978-.413 8.231-3.212 10.523-4.811.49-.384.163-1.17-.46-1.087-1.5.221-2.67.48-3.885.922l-.01.006v-.001c-.5.173-1.068.269-1.634.336a18 18 0 0 1-1.964.096 6.5 6.5 0 0 1-2.692 1.549c-.25.45-.26.768-.173 1.21.096.47.336.992.288 1.658l-.912-.057c.03-.403-.173-.855-.288-1.43-.09-.442.08-.99.288-1.545a10 10 0 0 0-.624-.461 29 29 0 0 0-1.373-.854c-.48-.279-.95-.548-1.315-.75-.182-.095-.346-.172-.46-.23-.06-.027-.081-.043-.116-.055l.23-.912h.06c.02.01.09.048.116.057.05.023.05.026.115.057.125.064.326.183.518.288a42 42 0 0 1 1.317.75c.49.287 1.015.585 1.43.854a6 6 0 0 1 .682.508c1.749-.528 2.856-1.738 3.669-3.425.844-1.757 1.33-4.024 1.602-6.406.269-2.382.384-4.861.576-7.093s.451-4.21 1.144-5.606c.115-.23.221-.384.269-.614-.854-.09-1.722-.202-2.612-.307-3.87-.47-8.053-.893-12.184.46a.61.61 0 0 0-.346.797c1.3 2.664 1.846 5.678 5.948 9.324.404 1.171.356 2.285.288 3.49-.02.287.03.595.09.902.538.806 1.036 2.026 1.494 3.991l-.317.538-.567-.288c-.441-1.913-1.062-3.163-1.436-3.71-.509-.643-.605-.518-.854-.518-.759.017-1.366.336-2.06.576-.489-2.374-1.032-4.437-1.143-6.807a.65.65 0 0 0-.06-.346l-1.545-2.287a.594.594 0 0 0-.681-.23l-1.144.345a.613.613 0 0 0-.404.797l.03.08-1.438.74c-.153-.24-.441-.336-.71-.24-.374.134-.806.26-1.258.46-.45.202-.94.49-1.258 1.03a1 1 0 0 0-.06.23c-.002.013-.03.09-.288.288-.26.192-.71.47-1.43.797a.613.613 0 0 0-.115 1.03l.74.519c1.914 2.79 3.419 4.952 3.776 8.29.002.02-.002.037 0 .057l-.46 2.69a.6.6 0 0 0 .124.44c.08.471.384.894.73 1.33.441.547 1.012 1.093 1.6 1.657a23 23 0 0 1 1.602 1.717c.432.509.672.95.749 1.316l-2.289 3.261 4.175-1.374c.797.154 2.509.75 4.233 1.603 1.773.873 3.59 2 4.52 2.917.06.063.268.394.403.682a2.7 2.7 0 0 1 .173.633zm.624-2.41c-.154-.345-.365-.71-.624-.965-1.088-1.072-2.926-2.132-4.749-3.032-1.823-.902-3.552-1.604-4.576-1.773h-.115l-1.717.518.912-1.316v-.172c-.096-.672-.528-1.29-1.03-1.889-.499-.595-1.127-1.15-1.715-1.716-.557-.528-1.09-1.061-1.472-1.517l2.501 1.288c1.307.538 1.44.835 1.945 1.201a1.4 1.4 0 0 0 .298.173c1.29 1.508 2.61 3.014 4.51 4.23h.06c.913.433 2.23.995 3.547 1.659 1.205.604 2.302 1.346 2.974 2.002-.134.288-.26.605-.403.797-.08.115-.23.365-.346.509zM18.614 28.606h-.634l-.182-.288c-.221-.345-.27-.643-.355-.93-.09-.289-.221-.654-.605-1.295l-.327-.528.538-.317a1.27 1.27 0 0 1 1.093-.072c.317.144.538.365.768.615l.007.008.009.008c.163.192.297.346.412.538a1.26 1.26 0 0 1 .192.72c-.04.537-.336.835-.73 1.32zm11.802-.21a17 17 0 0 0 1.134-.08c.51-.058 1.019-.154 1.412-.288l-.002-.003c3.078-.864 5.08-1.14 6.843-4.113a.608.608 0 0 0-.518-.912l-.845-.035-.006.001c-.883.25-.672.183-1.774.634l-.003-.006c-1.22.519-2.306.682-4.454.903a14 14 0 0 1-.874 2.386 8 8 0 0 1-.921 1.507zm2.002-4.737c1.914-.202 2.866-.356 3.934-.816l-.002-.007c1.098-.451.902-.413 1.778-.662l.03-.015c.893-.538 1.836-1.334 2.848-2.594.643-.5.09-1.17-.74-.974-2.485.23-4.746 1.195-7.238 1.263l-.03.288a32 32 0 0 1-.576 3.518zM17.381 21l-2.803-3.317.135-.692 2.554-1.078-2.133-1.114.02-.09a.56.56 0 0 0-.04-.336l2.1.912.567 1.379c.182 1.167-.04 1.853-.288 2.631-.134.432-.05 1.14-.115 1.716zm15.722-1.962h.002c.826-.023 1.763-.07 3.925-.768.528-.26 1.09-.528 1.343-.759 1.498-1.38 2.899-3.02 3.43-3.832a.606.606 0 0 0-.68-.912c-1.967.518-2.803.47-3.375.288-.413-.06-.317-.134-.768.096-1.233.346-2.128.816-3.474.672-.124 1.654-.23 3.437-.403 5.22zm.874-6.005h.001v-.001c.835.004 1.513-.288 2.493-.586 2.996-1.769 5.036-4.173 5.621-5.007.03-.037.211-.202.23-.23.308-.48-.143-1.075-.681-.912-1.938.73-4.218.73-6.704.508-.07.423-.22.759-.336.982-.576 1.145-.845 3.006-1.03 5.206v.017a4 4 0 0 0 .412.024z" overflow="visible"/>
    </g>
</svg>
