<svg xmlns="http://www.w3.org/2000/svg" width="52.157" height="52.157">
    <path fill="#35342f" stroke="#35342f" stroke-width=".949" d="m26.078 48.39 13.531-4.436 6.312-40.21H6.236l6.312 40.21Z" opacity=".99"/>
    <path fill="#b3b3b3" d="M36.885 37.604c.44-.013.66-.396.44-.77l-.88-2.991c-.096-.22-.217-.352-.44-.352h-7.657v-7.235h5.633c.218.003.438-.17.438-.418l.88-2.573c.096-.375-.097-.77-.44-.77h-6.602v-8.28H39.17c.217-.027.445-.19.445-.418l.88-2.993c.072-.352-.218-.682-.44-.682H12.09c-.217.041-.44.353-.44.682l.88 2.993c.073.262.218.418.438.418h11.068v8.278h-6.47c-.44-.015-.66.375-.44.77l.88 2.574c.073.263.218.419.445.419h5.502v7.235h-7.724c-.218-.013-.44.128-.44.352l-.88 2.992c-.096.375.097.77.44.77h21.456z" opacity=".99" overflow="visible"/>
</svg>
