<svg xmlns="http://www.w3.org/2000/svg" width="52.157" height="52.157">
    <path fill="#e2d9ba" stroke="#38362e" stroke-opacity=".973" stroke-width=".878" d="m26.075 46.901 11.235-3.729 5.882-37.94H8.963l5.882 37.94z" opacity=".99"/>
    <path fill="#38362e" fill-opacity=".965" d="m26.087 43.112 2.13-2.656.278-8.694-1.668-.874h-.04v-5.275c4.662-.365 8.258-4.165 8.258-8.737 0-4.84-4.014-8.763-8.967-8.764s-8.968 3.924-8.968 8.764l.001.163c.04 2.565 1.24 4.983 3.267 6.614.04.03.076.064.134.105a9.1 9.1 0 0 0 4.87 1.876v5.275h-.05l-1.66.874.249 8.695zm.557-3.037h-1.136v-7.298h1.136zm.154-16.372v-5.147l3.723 3.64a7.06 7.06 0 0 1-3.724 1.508zm-1.42-.002c-1.365-.144-2.658-.653-3.721-1.508l3.722-3.637zm6.145-2.486-3.759-3.671h5.303a6.7 6.7 0 0 1-1.544 3.67zm-10.869 0a6.7 6.7 0 0 1-1.543-3.664v-.007h5.3zm12.406-5.058h-5.227l3.689-3.605a6.74 6.74 0 0 1 1.537 3.605zm-8.718 0h-5.226a6.8 6.8 0 0 1 1.538-3.604zm2.455-.95v-5.145a6 6 0 0 1 .548.075 7.15 7.15 0 0 1 3.18 1.434zm-1.418 0-3.722-3.638a7.05 7.05 0 0 1 3.722-1.507z"/>
</svg>
