<svg xmlns="http://www.w3.org/2000/svg" width="52.157" height="52.157">
    <g stroke="#000" opacity=".99">
        <path fill="#38362e" fill-opacity=".965" stroke="#38362e" stroke-opacity=".965" stroke-width=".844" d="m26.078 46.157-10.95-3.56-5.792-36.62h33.486l-5.795 36.62Z"/>
        <path fill="#b0b0b0" stroke="none" d="M26.092 39.865c.144-.007.25-.134.278-.278.884-4.536 1.711-7.069 5.398-10.115.212-.173.173-.548-.069-.644a14.2 14.2 0 0 0-3.761-1.03c.04-1.638.173-3.127.624-4.469.576-1.705 1.688-3.218 3.95-4.594l.007-.004c1.087-.701 1.84-1.286 2.367-2.037.528-.759.797-1.666.922-2.92.02-.193-.077-.366-.221-.404-2.827-.758-6.167-1.118-9.503-1.102-3.335-.015-6.673.346-9.5 1.102-.164.04-.26.211-.23.403.143 1.257.402 2.168.93 2.92.528.759 1.278 1.333 2.368 2.038l.006.004c2.26 1.375 3.37 2.888 3.95 4.594.462 1.34.577 2.828.625 4.465a14.4 14.4 0 0 0-3.764 1.035c-.221.106-.27.48-.07.643 3.69 3.047 4.526 5.58 5.403 10.115.031.173.173.288.307.279z" opacity=".99" overflow="visible" paint-order="stroke fill markers"/>
    </g>
</svg>
