<svg xmlns="http://www.w3.org/2000/svg" width="52.157" height="52.157">
    <g fill-opacity=".992" opacity=".99">
        <path fill="#3a3931" stroke="#393831" stroke-opacity=".992" stroke-width="1.044" d="m-11.54 7.386-13.14 4.634-6.169 42.276H7.767L1.598 12.02Z" transform="matrix(-1.04053 0 0 -.96762 14.07 55.905)"/>
        <path fill="#ed5b5b" d="m26.08 41.49 2.03-7.577s-1.303.153-1.998.153c-.701 0-2.07-.153-2.07-.153zm-10.899-4.511 6.794-3.923s-1.033-.806-1.524-1.301c-.49-.49-1.352-1.575-1.352-1.575zm21.793-.001-3.917-6.799s-.854 1.082-1.351 1.575c-.49.49-1.525 1.301-1.525 1.301zm-10.898-3.852a7.05 7.05 0 0 0 7.049-7.048 7.05 7.05 0 0 0-7.049-7.048 7.05 7.05 0 0 0-7.048 7.048 7.05 7.05 0 0 0 7.048 7.048m3.252-2.913h-6.463a.166.166 0 0 1-.163-.23l.297-.903a.18.18 0 0 1 .164-.106h2.324v-2.177h-1.654a.16.16 0 0 1-.164-.125l-.288-.777a.17.17 0 0 1 .164-.23h1.947v-2.492h-3.33a.16.16 0 0 1-.163-.125l-.269-.902c-.02-.096.05-.202.144-.211h8.416a.17.17 0 0 1 .163.211l-.298.902a.18.18 0 0 1-.144.125h-3.287v2.491h1.99a.166.166 0 0 1 .163.23l-.298.778a.17.17 0 0 1-.163.125H26.72v2.176h2.302c.07-.004.144.039.164.106l.297.902c.04.106-.04.221-.153.23zm4.586-2.102 7.577-2.03-7.577-2.037s.154 1.372.154 2.069c0 .69-.154 1.998-.154 1.998m-15.67 0s-.153-1.303-.153-1.998c0-.701.154-2.07.154-2.07l-7.578 2.038zm14.81-6.134 3.923-6.794-6.798 3.917s1.082.854 1.574 1.352c.49.49 1.302 1.524 1.302 1.524zm-13.953-.001s.807-1.033 1.302-1.525c.49-.49 1.574-1.352 1.574-1.352l-6.798-3.917zm9.01-3.732-2.03-7.578-2.038 7.578s1.372-.154 2.07-.154c.69 0 1.998.154 1.998.154" paint-order="stroke fill markers"/>
    </g>
</svg>
