<svg xmlns="http://www.w3.org/2000/svg" viewBox="0 0 20.637 20.637">
    <path fill="#fd5" stroke="#deaa87" stroke-linejoin="round" stroke-miterlimit="10" stroke-width=".353" d="m61.716 73.284-2.7 17.273-5.748 1.638-5.554-1.56-2.895-17.351zm27.092-30.232 2.602-16.714 5.541-1.586 5.354 1.51 2.789 16.79zm.034-23.646L91.446 2.69l5.54-1.584 5.355 1.509 2.789 16.791zm21.794-.333 2.488-16.158 5.292-1.53 5.113 1.459 2.664 16.23zm21.699-.217 2.29-15.6 4.878-1.48 4.712 1.41 2.453 15.67zm-21.908 24.121 2.486-16.157 5.291-1.532 5.113 1.459 2.664 16.23zm21.905-.309 2.292-15.6 4.876-1.48 4.713 1.409 2.455 15.67zm22.042-23.671 2.195-15.044 4.668-1.426 4.512 1.358 2.35 15.112zm0 23.575 2.193-15.043 4.67-1.427 4.512 1.358 2.35 15.112zM19.072.558l-2.798 17.83-5.957 1.69-5.754-1.61L1.565.557zm.372 72.422-2.798 17.83-5.956 1.69-5.756-1.61-2.998-17.91zm21.07.305-2.7 17.272-5.748 1.637-5.556-1.56-2.893-17.35zm.022-23.805-2.7 17.273-5.748 1.638-5.554-1.56-2.895-17.351zm21.435 0-2.7 17.273-5.748 1.638-5.554-1.56-2.894-17.351zm43.033 25.022-2.601 16.714-5.541 1.586-5.354-1.51-2.79-16.79zm.003-25.007-2.604 16.716-5.541 1.584-5.354-1.509-2.79-16.79zm-21.667.092-2.604 16.716-5.541 1.583-5.354-1.508-2.789-16.791zm63.328.927-2.29 15.599-4.878 1.48-4.712-1.41-2.453-15.67zM125.8 73.575l-2.486 16.157-5.292 1.532-5.113-1.459-2.664-16.23zm20.868.681-2.291 15.6-4.877 1.48-4.712-1.409-2.456-15.67zm21.184-22.778-2.195 15.044-4.668 1.427-4.512-1.358-2.35-15.113zm.048 23.303-2.193 15.043-4.67 1.426-4.512-1.358-2.35-15.11zm-41.885-24.569-2.488 16.159-5.291 1.53-5.113-1.46-2.664-16.23z"/>
    <path fill-rule="evenodd" d="m11.014 4.544-.215 1.36-.456.13L9.9 5.91l-.23-1.367zm-2.84.745a.594.594 0 1 1-1.19 0 .596.596 0 0 1 1.19 0m5.479 0a.596.596 0 1 1-1.191 0 .596.596 0 0 1 1.19 0zm-5.479 2.71a.594.594 0 1 1-1.19 0 .596.596 0 0 1 1.19 0m5.479 0a.596.596 0 1 1-1.191 0 .596.596 0 0 1 1.19 0zm-2.723 0a.596.596 0 1 1-1.191-.001.596.596 0 0 1 1.192 0zM8.174 2.48a.594.594 0 1 1-1.19 0 .596.596 0 0 1 1.19 0m5.479 0a.596.596 0 1 1-1.191 0 .596.596 0 0 1 1.19 0zm-2.723 0a.596.596 0 1 1-1.191 0 .596.596 0 0 1 1.192 0z"/>
    <path fill-rule="evenodd" d="m11.346 4.13-.32 2.028-.683.192-.66-.183-.343-2.038z"/>
    <path d="M8.144 18.847q-.71 0-.988-.155l-.189-.444q.1-.267.289-.333.255-.1.822-.2l.844-.156q.844-.244 2.543-.589.31-.089.933-.222.955.456 1.266 1.033l-1-.189q-.5 0-2.099.478-.81.233-1.832.577-.289.1-.589.2m3.054-1.977-.222-.122-.5.122q-.41-.066-.521-.1-.3-.088-.434-.3v-.222q.29-.188.29-.655.1-.122.1-.222 0-.078-.056-.167-.69.145-.811.145-.811 0-1.066-.7.044-.444.477-.444.122 0 .378.045.255.044.377.044l.656-.133q.044-.467.044-1.122 0-.678-.044-1.544-.511.09-1.033.178-.644.1-1.022.1-1 0-2.066-.689-.2-.255-.266-.677.122-.011.244-.156.167-.177.222-.21.322.055 1.322.366.81.255 1.31.255 1.211 0 2.544-.255 1.721-.334 2.298-.911h.09q.288-.022.588.333.3.345.455.356l.011.155-.144.2-.155-.034-3.265.79q-.023.865-.023 1.632l.056.833q.677-.056.733-.056.477 0 1.155.489l-1.888.544-.056.91.045.6q.3.211.322.545zm-4.22-3.52q-.367 0-.977-.322l-.411-.467v-.277l.178-.267q.066-.011.133-.011.466 0 .966.5.71.755.8.81-.656.034-.689.034"/>
</svg>
