<svg xmlns="http://www.w3.org/2000/svg" xml:space="preserve" viewBox="0 0 512.001 512.001"><g style="stroke:#000;stroke-opacity:1;stroke-width:16;stroke-miterlimit:10;stroke-dasharray:none"><path d="m336.76 327.082-8.182-47.699 59.308-57.809a9.232 9.232 0 0 0-5.114-15.746L300.81 193.92l-36.654-74.269a9.229 9.229 0 0 0-16.553 0l-36.654 74.269-81.958 11.908a9.232 9.232 0 0 0-5.115 15.746l59.308 57.809-14.002 81.627a9.231 9.231 0 0 0 13.395 9.731l73.306-38.538 73.306 38.538a9.233 9.233 0 0 0 13.397-9.731l-5.826-33.928" style="fill:#ffd960;stroke:#000;stroke-opacity:1;stroke-width:16;stroke-miterlimit:10;stroke-dasharray:none" transform="matrix(1.3739 0 0 1.3739 -95.675 -90.917)"/><path d="m199.294 352.062 14.002-81.627-59.308-57.809a9.24 9.24 0 0 1-2.336-9.464c.075-.23.178-.444.27-.666l-22.933 3.333a9.232 9.232 0 0 0-5.115 15.746l59.308 57.809-14.002 81.627a9.231 9.231 0 0 0 13.395 9.731l19.61-10.31a9.22 9.22 0 0 1-2.891-8.37z" style="opacity:.1;fill:#231f20;stroke:#000;stroke-opacity:1;stroke-width:16;stroke-miterlimit:10;stroke-dasharray:none" transform="matrix(1.3739 0 0 1.3739 -95.675 -90.917)"/></g></svg>