<svg xmlns="http://www.w3.org/2000/svg" viewBox="0 0 513 342"><path fill="#FFF" d="M0 0h513v342H0z"/><path fill="#D80027" d="M0 0h513v26.3H0zm0 52.6h513v26.3H0zm0 52.6h513v26.3H0zm0 52.6h513v26.3H0zm0 52.7h513v26.3H0zm0 52.6h513v26.3H0zm0 52.6h513V342H0z" style="fill:#b22334;fill-opacity:1"/><path fill="#2E52B2" d="M0 0h256.5v184.1H0z" style="fill:#3c3b6e;fill-opacity:1"/><path fill="#fff" d="M37.76 35.125 45.9 41.04l-3.109 9.551 8.129-5.902 8.141 5.902-3.109-9.551 8.142-5.915H54.03l-3.11-9.565-3.095 9.565zm26.348 26.348 8.142 5.915-3.11 9.552 8.13-5.902 8.14 5.902-3.108-9.552 8.141-5.915H80.378L77.27 51.91l-3.096 9.564zm52.697 0 8.142 5.915-3.11 9.552 8.13-5.902 8.14 5.902L135 67.388l8.141-5.915h-10.065l-3.109-9.564-3.096 9.564zm52.697 0 8.142 5.915-3.11 9.552 8.13-5.902 8.14 5.902-3.108-9.552 8.141-5.915h-10.065l-3.109-9.564-3.096 9.564zM64.108 114.17l8.142 5.915-3.11 9.552 8.13-5.902 8.14 5.902-3.108-9.552 8.141-5.915H80.378l-3.109-9.564-3.096 9.564zm52.697 0 8.142 5.915-3.11 9.552 8.13-5.902 8.14 5.902-3.108-9.552 8.141-5.915h-10.065l-3.109-9.564-3.096 9.564zm52.697 0 8.142 5.915-3.11 9.552 8.13-5.902 8.14 5.902-3.108-9.552 8.141-5.915h-10.065l-3.109-9.564-3.096 9.564zM90.457 35.125l8.141 5.915-3.109 9.551 8.129-5.902 8.141 5.902-3.109-9.551 8.142-5.915h-10.065l-3.11-9.565-3.095 9.565zm52.697 0 8.141 5.915-3.109 9.551 8.129-5.902 8.141 5.902-3.109-9.551 8.142-5.915h-10.065l-3.11-9.565-3.095 9.565zm52.697 0 8.141 5.915-3.109 9.551 8.129-5.902 8.141 5.902-3.109-9.551 8.142-5.915H212.12l-3.11-9.565-3.095 9.565zM37.76 87.822l8.141 5.915-3.109 9.551 8.129-5.902 8.141 5.902-3.109-9.551 8.142-5.915H54.03l-3.11-9.565-3.095 9.565zm57.73 15.466 8.128-5.902 8.141 5.902-3.109-9.551 8.142-5.915h-10.065l-3.11-9.565-3.095 9.565H90.457l8.141 5.915zm47.664-15.466 8.141 5.915-3.109 9.551 8.129-5.902 8.141 5.902-3.109-9.551 8.142-5.915h-10.065l-3.11-9.565-3.095 9.565zm52.697 0 8.141 5.915-3.109 9.551 8.129-5.902 8.141 5.902-3.109-9.551 8.142-5.915H212.12l-3.11-9.565-3.095 9.565zM37.76 140.519l8.141 5.915-3.109 9.551 8.129-5.902 8.141 5.902-3.109-9.551 8.142-5.915H54.03l-3.11-9.565-3.095 9.565zm57.73 15.466 8.128-5.902 8.141 5.902-3.109-9.551 8.142-5.915h-10.065l-3.11-9.565-3.095 9.565H90.457l8.141 5.915zm47.664-15.466 8.141 5.915-3.109 9.551 8.129-5.902 8.141 5.902-3.109-9.551 8.142-5.915h-10.065l-3.11-9.565-3.095 9.565zm52.697 0 8.141 5.915-3.109 9.551 8.129-5.902 8.141 5.902-3.109-9.551 8.142-5.915H212.12l-3.11-9.565-3.095 9.565z" style="stroke-width:13.1742"/></svg>