<svg xmlns="http://www.w3.org/2000/svg" viewBox="0 0 512 512"><path fill="#fff" d="M256 0h256v512H256z"/><path fill="#a1a1a1" d="m457.317 186.852 5.965-11.042-12.184 5.53z"/><path fill="#a1a1a1" d="M457.861 176.843a4.48 4.48 0 0 0 4.478 4.497 4.48 4.48 0 0 0 4.479-4.497 4.476 4.476 0 0 0-4.479-4.478 4.476 4.476 0 0 0-4.478 4.478m-10.443 2.63c-2.104 2.085-1.034 6.563 2.375 9.953 3.408 3.427 7.869 4.479 9.954 2.376 2.103-2.086 1.051-6.546-2.375-9.954-3.373-3.409-7.851-4.497-9.954-2.376"/><path fill="#cb9c2b" d="M343.908 283.454c6.871 6.509 12.71-1.904 23.679-11.622 10.026-8.884 75.932-70.167 83.004-76.404 7.089-6.237.507-15.665-7.706-8.014s-87.047 73.648-92.958 79.033c-5.929 5.403-13.634 9.79-6.02 17.007"/><path fill="#cb9c2b" d="m448.832 192.726 7.923 8.848-3.97 3.409 3.97 3.39 3.97-3.39 5.658 6.237v6.219l-11.042 9.374-6.51-4.261v-5.113h-5.384v4.84l2.828.273 2.557 2.828.272 6.527-9.791 7.924-20.09-19.056zM291.31 303.38c0 14.903 12.093 26.997 26.997 26.997s26.997-12.094 26.997-26.997-12.094-26.997-26.997-26.997-26.997 12.093-26.997 26.997m17.297.018c-4.841-.073-8.74-3.989-8.74-8.812 0-4.895 3.971-8.848 8.848-8.848 4.896 0 8.848 3.971 8.848 8.848l-.018.127c.254-.018.472-.163.744-.163.018-4.86 3.988-8.812 8.848-8.812 4.895 0 8.847 3.971 8.847 8.848 0 4.841-3.898 8.74-8.72 8.812 4.84.09 8.72 4.007 8.72 8.83 0 4.877-3.97 8.848-8.847 8.848-4.878 0-8.83-3.971-8.848-8.83-.272 0-.49-.145-.762-.163l.036.145c0 4.877-3.97 8.848-8.848 8.848-4.895 0-8.848-3.971-8.848-8.848.019-4.823 3.917-8.74 8.74-8.83"/><path fill="#a1a1a1" d="M335.948 277.743c-2.103 2.085-1.033 6.563 2.375 9.953 3.409 3.41 7.87 4.479 9.954 2.376 2.103-2.085 1.052-6.546-2.375-9.954-3.39-3.409-7.869-4.479-9.954-2.375m-43.405 3.408a4.623 4.623 0 0 0 4.641 4.624 4.62 4.62 0 0 0 4.624-4.624 4.623 4.623 0 0 0-4.624-4.641 4.627 4.627 0 0 0-4.641 4.641m40.305 44.62a4.623 4.623 0 0 0 4.641 4.624 4.62 4.62 0 0 0 4.624-4.623 4.623 4.623 0 0 0-4.624-4.642 4.627 4.627 0 0 0-4.641 4.642m-41.538-1.504a4.623 4.623 0 0 0 4.641 4.623 4.62 4.62 0 0 0 4.624-4.623 4.623 4.623 0 0 0-4.624-4.642c-2.574.018-4.641 2.085-4.641 4.642"/><path fill="#b4b4b5" d="M420.221 238.507c2.52-1.65 4.442-3.898 5.73-6.708 5.42-11.822-1.306-30.841-5.422-38.184-5.022-9.011-1.94-14.886.472-17.696a6.8 6.8 0 0 0-2.375-.453c-1.977 0-3.899.96-5.657 2.864-5.295 5.639-2.792 13.163 4.587 30.26 5.548 12.82 7.706 22.066 2.665 29.917"/><path fill="#b4b4b5" d="M410.086 183.389c2.593-3.771 6.581-5.875 11.477-5.875 3.97 0 8.068 1.487 11.513 4.098l5.077-7.651c-2.249-1.868-7.67-5.748-13.798-5.748-1.614 0-3.173.272-4.678.798-6.944 2.484-9.283 8.884-9.591 14.378"/><path fill="#cb9c2b" d="m300.81 186.852-5.965-11.042 12.184 5.53z"/><path fill="#cb9c2b" d="M300.266 176.843a4.48 4.48 0 0 1-4.478 4.497 4.48 4.48 0 0 1-4.478-4.497 4.476 4.476 0 0 1 4.478-4.478 4.476 4.476 0 0 1 4.478 4.478m10.426 2.63c2.103 2.085 1.033 6.563-2.375 9.953-3.41 3.427-7.87 4.479-9.954 2.376-2.104-2.086-1.052-6.546 2.375-9.954 3.39-3.409 7.869-4.497 9.954-2.376"/><path fill="#a1a1a1" d="M414.22 283.454c-6.872 6.509-12.71-1.904-23.68-11.622-10.026-8.884-75.932-70.167-83.003-76.404-7.09-6.237-.508-15.665 7.706-8.014 8.213 7.651 87.047 73.648 92.957 79.033 5.93 5.403 13.635 9.79 6.02 17.007"/><path fill="#a1a1a1" d="m309.296 192.726-7.924 8.848 3.971 3.409-3.97 3.39-3.971-3.39-5.657 6.237v6.219l11.042 9.374 6.509-4.261v-5.113h5.385v4.84l-2.829.273-2.556 2.828-.272 6.527 9.79 7.924 20.09-19.056zm130.525 83.657c-14.904 0-26.997 12.093-26.997 26.997s12.093 26.997 26.997 26.997 26.997-12.094 26.997-26.997-12.094-26.997-26.997-26.997m18.42 35.845c0 4.877-3.97 8.848-8.847 8.848-4.895 0-8.848-3.971-8.848-8.848l.036-.145c-.272.018-.49.163-.761.163-.018 4.859-3.971 8.83-8.848 8.83s-8.848-3.971-8.848-8.848c0-4.841 3.898-8.74 8.72-8.83-4.84-.073-8.72-3.989-8.72-8.812 0-4.895 3.97-8.848 8.848-8.848 4.877 0 8.83 3.953 8.848 8.812.272 0 .49.145.743.163l-.018-.127c0-4.895 3.97-8.848 8.848-8.848 4.895 0 8.848 3.971 8.848 8.848 0 4.841-3.898 8.74-8.721 8.812 4.823.09 8.72 4.007 8.72 8.83"/><path fill="#cb9c2b" d="M422.18 277.743c2.102 2.085 1.033 6.563-2.376 9.953-3.409 3.41-7.869 4.479-9.954 2.376-2.103-2.085-1.051-6.546 2.375-9.954 3.39-3.409 7.87-4.479 9.954-2.375m43.405 3.408a4.623 4.623 0 0 1-4.642 4.624 4.62 4.62 0 0 1-4.623-4.624 4.623 4.623 0 0 1 4.623-4.641 4.627 4.627 0 0 1 4.642 4.641m-40.305 44.62a4.623 4.623 0 0 1-4.642 4.624 4.62 4.62 0 0 1-4.623-4.623 4.623 4.623 0 0 1 4.623-4.642 4.627 4.627 0 0 1 4.642 4.642m41.538-1.504a4.623 4.623 0 0 1-4.642 4.623 4.62 4.62 0 0 1-4.623-4.623 4.623 4.623 0 0 1 4.623-4.642c2.575.018 4.642 2.085 4.642 4.642"/><path d="M404.773 177.514c0 26.599-11.585 25.873-25.89 25.873-14.288 0-25.874.726-25.874-25.873 0-26.598 11.586-55.336 25.873-55.336 14.306 0 25.891 28.738 25.891 55.336"/><path fill="#fff" d="M377.74 201.574c-7.687 0-13.054-.236-16.735-3.082-4.206-3.282-6.182-9.936-6.182-20.978 0-27.015 11.912-53.522 24.06-53.522s24.077 26.507 24.077 53.522c0 24.06-9.663 24.06-21.902 24.06z"/><path fill="#cb9c2b" d="M392.408 183.37c-9.065-2.646-7.597-11.331-13.526-11.331s-4.46 8.685-13.525 11.332c-9.048 2.647-13.526-1.505-13.526-1.505l4.224 17.37s7.597-6.42 22.827-6.42 22.827 6.42 22.827 6.42l4.225-17.37c0-.018-4.478 4.134-13.526 1.505"/><path fill="#cb9c2b" d="M393.895 160.38c-10.063-2.774-8.431-11.93-15.013-11.93-6.581 0-4.967 9.156-15.012 11.93-10.045 2.775-14.994-1.577-14.994-1.577l4.677 18.276s8.45-6.763 25.33-6.763c16.898 0 25.328 6.763 25.328 6.763l4.678-18.276c0 .018-4.95 4.37-14.994 1.578"/><path fill="#cb9c2b" d="M391.52 136.284c-8.467-2.338-7.108-10.044-12.638-10.044-5.548 0-4.17 7.706-12.637 10.044-8.449 2.34-12.62-1.323-12.62-1.323l3.953 15.393s7.108-4.279 21.323-4.279 21.322 4.28 21.322 4.28l3.952-15.394c-.018 0-4.206 3.662-12.655 1.323m-15.865-17.17c0 2.684 1.45 4.878 3.227 4.878s3.228-2.176 3.228-4.878-1.45-4.877-3.228-4.877c-1.758 0-3.227 2.176-3.227 4.877"/><path fill="#cb9c2b" d="M370.742 113.82c0 1.85 3.644 3.354 8.14 3.354s8.141-1.505 8.141-3.354c0-1.867-3.644-3.372-8.14-3.372-4.497.018-8.141 1.523-8.141 3.372"/><path fill="#cb9c2b" d="M375.655 108.907c0 1.867 1.45 3.372 3.227 3.372s3.228-1.505 3.228-3.372c0-1.868-1.45-3.355-3.228-3.355-1.758 0-3.227 1.505-3.227 3.355"/><path fill="#b4b4b5" d="M337.562 238.507c-2.52-1.65-4.442-3.898-5.73-6.708-5.42-11.822 1.306-30.841 5.422-38.184 5.022-9.011 1.94-14.886-.472-17.696a6.8 6.8 0 0 1 2.375-.453c1.977 0 3.899.96 5.657 2.864 5.295 5.639 2.792 13.163-4.587 30.26-5.548 12.82-7.706 22.066-2.665 29.917"/><path fill="#b4b4b5" d="M347.697 183.389c-2.61-3.771-6.581-5.875-11.477-5.875-3.97 0-8.068 1.487-11.513 4.098l-5.077-7.651c2.249-1.868 7.67-5.748 13.798-5.748 1.614 0 3.173.272 4.678.798 6.926 2.484 9.265 8.884 9.591 14.378"/><path fill="#ec1c24" d="M378.882 237.002c3.627 2.792 4.46 13.598 4.46 26.344v99.43s5.567 1.415 3.863 16.156c-.49 4.206-8.776 3.408-10.19 0s-.725-14.342 1.886-15.865v-98.868c0-14.723-2.466-20.434-3.228-23.226-.78-2.792 1.469-5.33 3.21-3.97"/><path fill="#ec1c24" d="M413.06 305.882c-3.554-2.484-8.54-8.74-12.82-14.723-5.656-7.94-7.088-13.344-12.71-20.143-5.62-6.8-20.342-20.887-23.823-20.397-1.378.199-2.829 3.408-1.505 4.532 1.323 1.124 5.475 5.657 14.813 12.746 9.356 7.09 10.77 15.013 18.566 26.345 7.198 10.461 13.417 17.605 19.02 18.566-.816-2.194-1.306-4.515-1.542-6.926"/><path fill="#ec1c24" d="M394.656 246.992c-3.318 3.173-13.58 13.218-19.164 19.745s-12.656 22.12-18.893 29.19c-4.007 4.534-8.34 8.414-11.64 10.807-.308 2.466-.834 4.841-1.758 7.053 4.496-1.505 10.914-5.639 18.965-17.279 11.132-16.155 16.517-28.049 21.902-32.581s7.542-5.875 10.57-9.03c3.046-3.172 3.354-11.096.018-7.905"/><path fill="#ec1c24" d="M372.246 260.228v104.815c-6 4.823-4.297 12.819-3.172 16.753 1.124 3.935 10.933 3.917 12.456 1.959 1.523-1.959 1.94-15.303-3.663-19.836v-97.164c0-2.556-5.62-10.425-5.62-6.527"/><path fill="#ec1c24" d="M335.459 309.2c-5.385 3.753-10.009 10.226 2.03 15.049s27.976 11.331 41.393 11.331 38.493-9.101 44.367-13.199 8.413-8.975-.943-11.73c-4.913-1.451-5.657 2.266-3.1 3.118s5.53 3.5-.925 5.856c-6.436 2.357-21.177 9.265-40.432 9.265s-37.386-8.213-40.36-9.265c-2.973-1.051-3.79-4.442-1.686-5.856s2.067-6.237-.344-4.57"/><path fill="#cb9c2b" d="M385.518 359.55a3.83 3.83 0 0 1-3.843 3.825 3.826 3.826 0 0 1-3.826-3.825 3.834 3.834 0 1 1 7.67 0"/><path fill="#cb9c2b" d="M379.064 362.088a3.83 3.83 0 0 1-3.844 3.826 3.826 3.826 0 0 1-3.826-3.826c0-2.121 1.723-3.844 3.826-3.844 2.121.018 3.844 1.723 3.844 3.844"/><path fill="#ffe000" d="M0 0h256v512H0z"/></svg>