<svg xmlns="http://www.w3.org/2000/svg" viewBox="0 85.333 512 341.333"><path d="M0 85.333h512V426.67H0z"/><path fill="#FFDA44" d="M0 134.196h512v48.868H0zm0 195.472h512v48.868H0z"/><path fill="#057f44" d="M0 85.333h512v48.868H0z"/><path fill="#D80027" d="M0 183.069h512v48.868H0zm0 97.737h512v48.868H0z"/><path fill="#057f44" d="M0 378.542h512v48.128H0z"/><path fill="#fff" d="M194.803 255.996 24.14 426.659l-24.131.016L.008 85.333H24.14Z"/><path d="M173.811 255.996 3.145 426.662h20.987L194.8 255.996 24.132 85.33H3.145Z"/><path fill="#d80027" d="m63.327 202.57 13.26 40.812h42.916l-34.718 25.226 13.26 40.814-34.718-25.224-34.72 25.224 13.262-40.814-34.718-25.226h42.915Z"/><path fill="#ffda44" d="m99.802 259.335-34.559-12.243s-2.553-23.955-2.708-24.766c-1.173-6.18-6.603-10.851-13.123-10.851-7.376 0-13.357 5.98-13.357 13.357 0 1.223.178 2.402.486 3.528l-9.689 9.755h17.23c0 17.882-13.345 17.882-13.345 35.691l7.402 17.809h44.522l7.422-17.809h-.004a17.8 17.8 0 0 0 1.381-5.231c6.397-2.589 8.342-9.24 8.342-9.24"/></svg>