<svg xmlns="http://www.w3.org/2000/svg" viewBox="0 0 60 60">
    <filter id="0GY_svg__a">
        <feGaussianBlur in="SourceAlpha" result="blur" stdDeviation="2"/>
        <feOffset dx="2" dy="2" result="offsetBlur"/>
        <feBlend in="SourceGraphic" in2="offsetBlur"/>
    </filter>
    <g fill="#ffeda5" filter="url(#0GY_svg__a)" transform="translate(9.007 5)">
        <path d="M20.915 1.05c-4.162 1.262-8.667 2.126-12.838 3.608l-7.051 44.45H40.96L34.17 4.945 20.915 1.049z"/>
    </g>
    <path d="m45.708 26.24.734 5.092-4.944-2.122zM29.922 6.05l-2.698.698 2.726 4.74 2.534-4.747zM17.084 9.658l-.448 2.92 4 1.04-1.077-4.735zm26.093.287.448 2.92-3.788.97.84-4.64zM14.4 26.472l-.785 5.042 4.873-2.193zm13.031 27.606 5.138.042-2.811-5.341zm-16.711-4.26-.687 4.29 3.922.005 1.062-5.572zm38.636.292.611 3.998-3.571-.052-1.343-5.318z" opacity=".759"/>
    <path stroke="#000" d="M44.454 38.702q-.292.375-.459.417-.708 0-1.833-.958l-2.958-2.75q-.125-.125-.125-.875.166-.125.541-.125.75 0 2.25.583 1.542.542 1.959.958.625.542.625 2.75z"/>
    <path stroke="#000" d="M24.715 24.35c-1.722 0-4.415-.629-5.249-1.462 0-.194 1.499-.121 1.665-.204q.293-.125 1.25-.209a88 88 0 0 1 2.292-.25q1.334-.125 4-.583 2.667-.459 5.75-1.167a5.7 5.7 0 0 1 1.458-.166q1.834 0 2.792 1.125.042.416-.167.666-.207.21-.958.417-.75.166-1.583.292-.792.082-2.542.375-1.75.29-3.417.625 1.042.54 1.042 1.666l-.208 2.25-.125 4.042v.042l4.004-.58c.166-.028 1.308-.254 1.586-.254q1.625 0 2.375 1.042-.041.583-1.541 1c-1 .278-3.244.5-4.466.667q-1.832.208-1.917.25l-.125.208-.25 8.208q4.875-.333 8.042-.75l3.583-.625h.292q1.209 0 2.542 1.292 1.374 1.25 1.375 1.917-.167.291-.834.291-.624 0-5.458-.458l-2.667-.167q-3.457 0-9.666.584c-4.14.388-6.357.784-7.857 1.256l-1.875.542a.7.7 0 0 0-.167.041h-.166q-.834 0-1.792-.625t-1.417-1.416q0-.459.25-.667l.19.035c1.612.3 3.834-.166 6.584-.5q4.125-.5 6.75-.5h.166l.125-8.25-3.75.25c-1.222-.028-2.917-.233-3.528-.9q0-.458.542-.5l2.653-.266 4.042-.542v-6.083q0-1.209-.792-2.125-1.5.165-2.833.166z"/>
</svg>
