<svg xmlns="http://www.w3.org/2000/svg" viewBox="0 0 60 60">
    <filter id="1GY_svg__a">
        <feGaussianBlur in="SourceAlpha" result="blur" stdDeviation="2"/>
        <feOffset dx="2" dy="2" result="offsetBlur"/>
        <feBlend in="SourceGraphic" in2="offsetBlur"/>
    </filter>
    <g filter="url(#1GY_svg__a)" transform="translate(8.836 5)">
        <path fill="#fee572" d="M21.242 48.95c4.319-1 8.69-2.088 12.838-3.608L41.131.892H1.197l6.79 44.163z"/>
    </g>
    <path d="m14.292 33.76-.734-5.091 4.944 2.122zm15.786 20.191 2.698-.698-2.726-4.74-2.534 4.747zm12.838-3.608.448-2.92-4-1.04 1.077 4.735zm-26.093-.287-.448-2.92 3.788-.97-.84 4.64zM45.6 33.529l.785-5.042-4.873 2.193zM32.569 5.923l-5.138-.042 2.811 5.341zm16.711 4.26.687-4.29-3.922-.005-1.062 5.572zM10.644 9.89l-.611-3.997 3.571.052 1.343 5.318z" opacity=".745"/>
    <path stroke="#000" d="M15.812 22.05q.291-.375.458-.417.708 0 1.833.958l2.959 2.75q.125.125.125.875-.167.125-.542.125-.75 0-2.25-.583-1.542-.542-1.958-.958-.625-.542-.625-2.75z"/>
    <path stroke="#000" d="M35.55 36.402c1.723 0 4.416.629 5.25 1.462 0 .194-1.5.121-1.666.204q-.291.125-1.25.209a88 88 0 0 1-2.292.25q-1.333.125-4 .583-2.666.459-5.75 1.167a5.7 5.7 0 0 1-1.458.166q-1.833 0-2.792-1.125-.041-.416.167-.666.208-.21.958-.417.75-.166 1.584-.292.791-.083 2.541-.375a104 104 0 0 0 3.417-.625q-1.041-.54-1.042-1.666l.209-2.25.125-4.042v-.042l-4.004.58c-.167.028-1.309.254-1.587.254q-1.625 0-2.375-1.042.042-.583 1.542-1c1.5-.417 3.243-.5 4.465-.667q1.834-.208 1.917-.25l.125-.208.25-8.208q-4.875.333-8.042.75l-3.583.625h-.292q-1.208 0-2.541-1.292-1.375-1.25-1.375-1.917.166-.291.833-.291.625 0 5.458.458l2.667.167q3.459 0 9.667-.584c4.139-.388 6.357-.784 7.857-1.256l1.875-.542a.7.7 0 0 0 .166-.041h.167q.834 0 1.792.625t1.416 1.416q0 .459-.25.667l-.19-.035c-1.611-.3-3.833.166-6.583.5q-4.125.5-6.75.5h-.167l-.125 8.25 3.75-.25c1.222.028 2.917.233 3.528.9q0 .458-.541.5l-2.654.266-4.041.542v6.083q0 1.209.791 2.125 1.5-.165 2.834-.166z"/>
</svg>
