<svg xmlns="http://www.w3.org/2000/svg" width="52.157" height="60">
    <defs>
        <filter id="0FU_svg__a">
            <feGaussianBlur in="SourceAlpha" result="blur" stdDeviation="2"/>
            <feOffset dx="2" dy="2" result="offsetBlur"/>
            <feBlend in="SourceGraphic" in2="offsetBlur"/>
        </filter>
    </defs>
    <g fill="#ffd5e5" filter="url(#0FU_svg__a)" transform="translate(36.96 -.279)">
        <path fill="#feec99" d="M-10.96 6.237c-4.319 1-8.69 2.088-12.838 3.608-1.492 6.331-2.103 12.88-3.191 19.306-1.285 8.332-2.439 16.689-3.86 24.997 4.847.345 10 .05 14.963.147H9.085C8.5 48.64 7.367 42.774 6.583 37.035c-1.462-8.96-2.486-18.011-4.288-26.902-.885-1.094-2.799-.958-4.037-1.565-3.053-.81-6.099-1.875-9.218-2.332z"/>
    </g>
    <path stroke="#000" stroke-width=".754" d="M27.504 34.583q1.509-.282 2.358-.66.848-.378 1.603.094t-.472 1.037q-1.226.472-3.489.377l-.094 2.924q3.017-.472 4.526-.755 1.603-.283 2.169.189t.566.754q.094.283-1.32.283c-1.415 0-2.012.064-3.207.189q-1.697.188-4.337.566a3.2 3.2 0 0 1 1.131.565q.472.378.189.943c-.283.566-.251 1.038-.189 1.98q.095 1.415 0 2.358-.094.943-.377 1.32-.189.283-.66-.377-.47-.66-.283-1.414.189-.849.094-2.264 0-1.414-.188-1.98a19 19 0 0 0-.377-1.037q-4.998 1.038-5.658 1.226t-1.604-.377q-.848-.66.095-.66 1.038 0 4.055-.566-.189-3.018-.66-3.584t-.283-.754 1.226.094q1.131.189.943.943t-.095 3.112q1.415-.283 3.112-.566 0-3.395-.188-4.903-.094-1.603-.472-2.17-.377-.565.189-.47.565 0 1.414.376.849.284.566.755-.283.377-.283 2.452zm4.594 7.18q.754.66.188.942c-.314.189-1.67 1.81-2.236 2.628q-.754 1.131-2.357 2.64c-1.006 1.007-1.503 1.328-3.716 2.733-1.845.808-1.626.758-3.476 1.353-.681.101-1.15.17-1.343.171-.287.002.045-.146 1.212-.56 2.01-.629 2.718-1.308 4.29-2.377 1.634-1.068 2.31-2.294 3.316-3.677 1.068-1.446 2.487-3.54 2.424-4.042-.538-.736-.448-.921.472-.66.382.108.786.408 1.226.848zm-.68 4.505q1.508.378 2.074.943c.44.378.57.908.471 1.603-.089.627-.408.692-1.037.189q-.849-.754-1.698-1.32a55 55 0 0 1-1.414-1.132q-.566-.566-.283-.66.377-.093 1.886.377zm-9.572-3.576q.472-.943.66-.943.284-.094.189 1.32 0 1.415-1.038 2.924-1.036 1.414-1.32.283-.188-1.132.472-1.886a8.3 8.3 0 0 0 1.037-1.698z"/>
    <path fill="red" stroke="red" stroke-width=".59" d="M29.232 13.16q.28 0 .58-.797t.302-1.313q.15-.065.323-.065.387 0 .753.366l.28.323v.108q-.603.366-1.808 1.441l1.12.28q.473.194.688.582.236.366.236.645 0 .172-.128.236h-.087l-.28-.085q-.903-.603-1.656-1.012l-.753-.366q-.216-.215-.216-.387l.625.043zm3.034 2.28q0 .172.043.581.065.41.151 1.098t.15 1.183q-.129.172-.58.172h-.151q-1.227-.107-2.432-1.14-1.205-1.055-1.635-2.281-.345-.99-.452-2.475l-.087-1.098q-.086-.258-.602-.3-1.054.235-2.13.666-1.077.41-1.4.41-.473 0-.924-.367l-.345-.344q.13-.108.345-.13.214-.02 1.183-.17.968-.174 2.474-.56l1.486-.474q.129-.022.236-.022.13-.021.173-.021.494 0 1.01.495l.28.28q0 .15-.128.3-.108.13-.259.28-.129.151-.258.69-.108.516-.108 1.355v.172l.022.388q.108.946.99 1.914t1.743.969q.41 0 .624-.473.237-.474.43-1.27zm-1.097 7.36q-.215-.065-.624-.301-.41-.259-1.14-.71-.733-.452-1.313-.797-.13-.215-.13-.366.452 0 1.033.194.624-1.29.667-2.173h.582q.559.344.645.43l.129.194v.129q-.538.387-1.657 1.484.99.301 1.485.646.495.323.538.797.043.301-.215.473zm3.4 4.26q0 .517-.624.517-.581 0-2.001-.43-5.338-1.57-5.445-9.103-.13-.172-.387-.172-.216 0-.539.129t-.452.15v5.617l.065 2.066q-.065 1.248-.495 1.248-1.011-1.205-1.011-2.023 0-.15.065-.387.064-.258.15-.646.086-.408.172-1.57.108-1.184.15-2.927v-.581q.022-.387.044-.538-1.27.258-2.131.56-.301 2.668-1.162 4.54t-2.646 2.863q-.28.15-.539.15-.086 0-.15-.022-.065-.021-.108-.021v-.13q3.185-2.367 3.486-6.972-.3.043-1.936.581-.065 0-.086.022-.56-.086-.862-.172-.3-.108-.366-.151-.064-.065-.171-.215 0-.086.02-.13.044-.064.152-.107.129-.043.28-.065.15-.043.43-.086.301-.064.624-.107.323-.065.84-.172.537-.13 1.097-.259 0-1.162-.065-1.57-.065-.41-.28-.69l-1.764.754-.172-.086v-.021q.086-.194.646-.625.58-.43 1.247-1.01t.968-1.12v-.237q.388 0 .711.216.344.215.43.344t.28.451q0 .151-.086.216-.065.065-.517.258-.623.28-1.162.538.948.41 1.055.517l.086.215-.086.732-.13.796h.108q.173-.087.99-.301.818-.216.926-.259.065-.774.065-1.441 0-1.163-.216-2.11l-.237-.559q0-.194.28-.194.517 0 1.206.797-.152 1.613-.195 3.206h.022q.173 0 .84-.259.666-.28.99-.28.925.453 1.226.776 0 .172-.15.344-.13.172-.28.646-.13.452-.13 1.29 0 1.895.947 3.573.517.903 1.679 1.678 1.162.754 1.765.754.602 0 .925-.925l.495-1.744.021-.021q.108 0 .172.107.087.086.13.345.064.236.107.408t.086.56q.065.366.087.516l.473 1.593v.172q.021.13.043.194z" opacity=".5"/>
</svg>
