<svg xmlns="http://www.w3.org/2000/svg" width="55" height="60">
    <filter id="0GY_svg__a" width="1.29" height="1.241" x="-.12" y="-.1">
        <feGaussianBlur in="SourceAlpha" result="blur" stdDeviation="2"/>
        <feOffset dx="2" dy="2" result="offsetBlur"/>
        <feBlend in="SourceGraphic" in2="offsetBlur"/>
    </filter>
    <g filter="url(#0GY_svg__a)" transform="translate(4.105 1.643)scale(1.07422)">
        <path fill="#feec99" d="M20.915 1.05c-4.319 1-8.69 2.088-12.838 3.608-1.492 6.331-2.103 12.88-3.191 19.305-1.285 8.332-2.439 16.689-3.86 24.997 4.847.346 10 .05 14.963.148H40.96c-.585-5.657-1.718-11.523-2.502-17.26-1.462-8.96-2.486-18.012-4.288-26.903-.885-1.093-2.799-.957-4.037-1.564-3.053-.81-6.099-1.875-9.218-2.332Z"/>
    </g>
    <path stroke="#000" stroke-width="1.044" d="M41.4 37.383q-.305.392-.479.436-.74 0-1.915-1l-3.09-2.873q-.13-.13-.13-.914.174-.13.565-.13.784 0 2.35.608 1.611.566 2.046 1 .652.567.652 2.873z"/>
    <path stroke="#000" d="M20.828 24.614c-1.722 0-4.415-.629-5.248-1.462 0-.195 1.498-.121 1.665-.205q.292-.124 1.25-.208 1-.125 2.292-.25 1.333-.125 4-.583a107 107 0 0 0 5.75-1.167 5.7 5.7 0 0 1 1.458-.167q1.833 0 2.792 1.125.042.417-.167.667-.208.209-.958.417-.75.166-1.583.291-.792.083-2.542.375t-3.417.625q1.042.542 1.042 1.667l-.208 2.25-.125 4.042v.041l4.003-.58c.167-.027 1.31-.253 1.587-.253q1.625 0 2.375 1.042-.042.583-1.542 1c-1 .277-3.243.5-4.465.666q-1.833.21-1.917.25l-.125.209-.25 8.208q4.874-.333 8.042-.75l3.583-.625h.292q1.208 0 2.542 1.292 1.374 1.25 1.375 1.916-.168.292-.834.292-.624 0-5.458-.458l-2.667-.167q-3.458 0-9.667.583c-4.138.39-6.356.784-7.856 1.257l-1.875.541a.7.7 0 0 0-.167.042h-.167q-.833 0-1.791-.625-.96-.625-1.417-1.417 0-.458.25-.666l.19.035c1.611.3 3.833-.167 6.583-.5q4.125-.5 6.75-.5h.167l.125-8.25-3.75.25c-1.222-.028-2.917-.233-3.528-.9q0-.459.542-.5l2.653-.267 4.041-.541v-6.084q0-1.208-.791-2.125-1.5.167-2.834.167z" transform="matrix(1.0742 0 0 1.0748 -1.266 -3.954)"/>
</svg>
