<svg xmlns="http://www.w3.org/2000/svg" width="52.157" height="60">
    <defs>
        <filter id="0KY_svg__a">
            <feGaussianBlur in="SourceAlpha" result="blur" stdDeviation="2"/>
            <feOffset dx="2" dy="2" result="offsetBlur"/>
            <feBlend in="SourceGraphic" in2="offsetBlur"/>
        </filter>
    </defs>
    <g fill="#ffd5e5" filter="url(#0KY_svg__a)" transform="translate(36.96 -.279)">
        <path fill="#feec99" d="M-10.96 6.237c-4.319 1-8.69 2.088-12.838 3.608-1.492 6.331-2.103 12.88-3.191 19.306-1.285 8.332-2.439 16.689-3.86 24.997 4.847.345 10 .05 14.963.147H9.085C8.5 48.64 7.367 42.774 6.583 37.035c-1.462-8.96-2.486-18.011-4.288-26.902-.885-1.094-2.799-.958-4.037-1.565-3.053-.81-6.099-1.875-9.218-2.332z"/>
    </g>
    <path fill="red" stroke="red" stroke-width=".503" d="M.65 9.684q.573 0 .937.287.365.286.365.703t-.469.651-2.24.755l-.364.104q-2.083.704-3.698 1.537t-2.526 1.588q-.912.756-1.484 1.563-.573.781-.756 1.354-.182.547-.182 1.042 0 2.578 5.234 2.578.73 0 1.12-.026-.39.026-.625.026.156-.078.339 0 .182.078 1.224-.052 1.067-.13 2.396-.547.833-.234 1.354-.234.911 0 1.458.859 0 .52-.469.833T.415 23.2q-1.38.208-3.932.234h-2.396q-.52 0-1.25-.208-.729-.182-1.614-.599-.86-.443-1.459-1.302-.573-.885-.573-2.057 0-1.797 1.172-3.203 1.198-1.407 3.412-3.021-1.433-1.094-1.433-3.412v-.078l.13-2.916q-.025-.86-.312-1.38-.26-.548-.573-.704-.312-.182-.703-.364-.39-.183-.547-.365-.026-.26.287-.39.312-.13.494-.13 2.266.364 2.917 1.796-.364 2.135-.364 4.063 0 3.02 1.197 3.02.209 0 2.553-1.015Q-.21 10.127.65 9.684z" opacity=".5" transform="matrix(.99398 0 0 .969 30.092 5.048)"/>
    <path stroke="#000" stroke-width=".5" d="M30.96 34.977q.583 0 1.138.329.582.303.834.733 0 .177-.354.303l-4.727.177q-.657.05-1.492.202 2.604 2.023 4.07 2.68t5.739 1.946q.152.077.228.152t.1.076q-.1.152-1.542.43-1.415.253-2.073.253-.858 0-2.123-.91-1.24-.91-2.831-2.427-1.568-1.542-2.073-1.947-.05.405-.05 1.24 0 .884.024 1.465 0 2.099-.48 2.099-.354 0-.53-.633l-.178-.556q.177-1.037.177-3.261-3.21 4.323-7.129 5.84-1.036.379-1.593.379-.328 0-.48-.152.051-.025.557-.329.53-.303.732-.404.203-.126.759-.455.582-.354.885-.556.328-.227.885-.607t.91-.657q.354-.304.834-.733.506-.43.859-.809.354-.38.734-.835.378-.455.657-.91-1.39.127-2.604.48-1.188.33-1.441.33h-.076q-.809 0-1.34-.658 0-.177.304-.227l6.497-.91q0-1.871-.43-2.68-.38.05-1.77.404l-.607.127-.858.126v-.278q2.249-.835 3.488-1.466 1.264-.632 1.618-.986.354-.38.38-.759l.075-.1q.657 0 1.516.555.885.531.885.784 0 .228-.328.303-.304.051-1.29.279-.985.202-2.098.708.784.404.885.555l.152.304.025.177q-.455.834-.48 1.694 1.491-.228 3.286-.556l1.542-.329h.127zm-9.808 7.61q.177 0 .53.176.38.177.48.278 3.439-.379 5.714-1.441 1.467.43 2.175 1.391-.026.1-.279.53-.227.405-.227.633l.227 3.969q0 2.755-1.163 3.615l-.354-.051-1.415-2.174q-2.604.025-4.5.405-.152.58-.506.859-.354-.151-.582-.658-.227-.48-.227-.96 0-.1.253-.885.253-.809.253-1.921 0-2.376-.683-3.564.076-.203.304-.203zm7.003 2.932q0-1.441-.077-1.972-.05-.531-.227-.657-.152-.152-.607-.152-.278.025-1.87.43-1.593.379-2.706.581l-.075.177v2.098l2.376-.682q.43-.127.733-.127.708 0 1.188.506 0 .278-.101.38l-3.943.555q-.203 0-.304.025 0 1.872-.025 2.402l3.084-.632q.556-.05.733-.05.759 0 1.29.682.53-.05.53-3.564z"/>
</svg>
