<svg xmlns="http://www.w3.org/2000/svg" width="55" height="60">
    <filter id="0OU_svg__a" width="1.29" height="1.241" x="-.12" y="-.1">
        <feGaussianBlur in="SourceAlpha" result="blur" stdDeviation="2"/>
        <feOffset dx="2" dy="2" result="offsetBlur"/>
        <feBlend in="SourceGraphic" in2="offsetBlur"/>
    </filter>
    <g filter="url(#0OU_svg__a)" transform="translate(4.105 1.643)scale(1.07422)">
        <path fill="#feec99" d="M20.915 1.05c-4.319 1-8.69 2.088-12.838 3.608-1.492 6.331-2.103 12.88-3.191 19.305-1.285 8.332-2.439 16.689-3.86 24.997 4.847.346 10 .05 14.963.148H40.96c-.585-5.657-1.718-11.523-2.502-17.26-1.462-8.96-2.486-18.012-4.288-26.903-.885-1.093-2.799-.957-4.037-1.564-3.053-.81-6.099-1.875-9.218-2.332Z"/>
    </g>
    <path stroke="#000" stroke-width="1.074" d="M21.107 22.498c-1.85 0-4.743-.676-5.638-1.57 0-.21 1.61-.13 1.789-.22q.314-.134 1.343-.224 1.074-.135 2.462-.269 1.432-.134 4.297-.626a115 115 0 0 0 6.176-1.254 6 6 0 0 1 1.567-.18q1.969 0 2.999 1.21.045.447-.18.716-.223.224-1.029.448-.805.178-1.7.312-.85.09-2.73.403t-3.671.672q1.119.582 1.119 1.79l-.223 2.417-.135 4.342v.044l4.3-.623c.18-.029 1.408-.271 1.705-.271q1.746 0 2.551 1.119-.045.626-1.656 1.074c-1.074.298-3.484.537-4.796.716q-1.97.225-2.06.268l-.134.225-.269 8.817q5.236-.358 8.64-.806l3.848-.671h.314q1.298 0 2.73 1.388 1.477 1.342 1.478 2.058-.18.314-.896.314-.67 0-5.863-.492l-2.865-.18q-3.715 0-10.385.626c-4.445.42-6.828.843-8.439 1.35l-2.014.582a.8.8 0 0 0-.18.045h-.179q-.895 0-1.924-.671-1.031-.672-1.522-1.523 0-.492.269-.715l.204.038c1.73.322 4.117-.18 7.071-.538q4.432-.537 7.251-.537h.18l.134-8.862-4.028.269c-1.313-.03-3.134-.25-3.79-.967q0-.493.582-.537l2.85-.287 4.34-.581V24.6q0-1.297-.849-2.283-1.611.18-3.044.18z"/>
</svg>
