<svg xmlns="http://www.w3.org/2000/svg" width="52.157" height="60">
    <defs>
        <filter id="1FU_svg__a">
            <feGaussianBlur in="SourceAlpha" result="blur" stdDeviation="2"/>
            <feOffset dx="2" dy="2" result="offsetBlur"/>
            <feBlend in="SourceGraphic" in2="offsetBlur"/>
        </filter>
    </defs>
    <g fill="#feec99" filter="url(#1FU_svg__a)">
        <path d="M26.123 53.987a242 242 0 0 0 11.985-3.333c.459-.16 1.11-.258 1.18-.85.697-3.354 1.156-6.76 1.705-10.143 1.699-11.05 3.317-22.12 5.008-33.167-.153-.67-.995-.416-1.483-.471-12.66-.025-25.32-.03-37.978.032-.66.153-.275.935-.274 1.384 1.975 12.882 3.806 25.786 5.89 38.651.271 1.332.34 2.732.8 4.013.341.488 1.054.46 1.56.691 3.762 1.117 7.533 2.226 11.34 3.173a.9.9 0 0 0 .266.02z"/>
    </g>
    <path stroke="#000" stroke-width=".754" d="M24.653 25.726q-1.509.282-2.357.66-.849.377-1.603-.095t.471-1.037q1.226-.472 3.49-.377l.094-2.923q-3.018.471-4.527.754-1.603.283-2.169-.189t-.565-.754q-.095-.283 1.32-.283c1.414 0 2.01-.063 3.206-.189q1.697-.188 4.338-.565a3.2 3.2 0 0 1-1.132-.566q-.471-.377-.189-.943c.283-.566.252-1.037.19-1.98q-.096-1.415 0-2.358.093-.943.376-1.32.189-.283.66.377t.283 1.415q-.188.848-.094 2.263 0 1.414.189 1.98a19 19 0 0 0 .377 1.037q4.997-1.038 5.658-1.225.659-.19 1.603.377.848.66-.095.66-1.038 0-4.054.566.188 3.017.66 3.583.47.566.283.754-.189.189-1.226-.094-1.132-.189-.943-.943t.094-3.112q-1.414.283-3.112.566 0 3.395.189 4.904.093 1.602.471 2.168.377.566-.188.472-.566 0-1.415-.377-.849-.284-.566-.755.283-.377.283-2.451zm-4.593-7.18q-.755-.66-.189-.943c.315-.189 1.67-1.81 2.236-2.628q.755-1.131 2.358-2.64c1.005-1.006 1.502-1.328 3.715-2.733 1.845-.807 1.626-.757 3.476-1.353.681-.1 1.15-.17 1.343-.17.287-.002-.044.145-1.211.56-2.012.628-2.719 1.307-4.29 2.376-1.635 1.068-2.31 2.294-3.316 3.678-1.07 1.445-2.487 3.538-2.425 4.042.538.735.448.92-.471.66-.383-.109-.786-.41-1.226-.849zm.68-4.506q-1.509-.377-2.074-.943c-.44-.377-.571-.907-.472-1.603.09-.626.408-.692 1.037-.189q.85.755 1.698 1.32a55 55 0 0 1 1.414 1.132q.566.566.283.66-.377.094-1.886-.377zm9.571 3.576q-.472.943-.66.943-.284.094-.189-1.32 0-1.415 1.038-2.924 1.036-1.414 1.32-.283.189 1.132-.472 1.886a8.3 8.3 0 0 0-1.037 1.698z"/>
    <path fill="red" stroke="red" stroke-width=".59" d="M22.925 46.61q-.28 0-.58.796t-.302 1.313q-.15.065-.323.065-.387 0-.753-.366l-.28-.323v-.108q.603-.366 1.808-1.441l-1.12-.28q-.473-.194-.688-.582-.236-.366-.236-.645 0-.172.128-.236h.087l.28.085q.903.603 1.656 1.012l.753.366q.216.215.216.387l-.625-.043zm-3.034-2.28q0-.173-.043-.582-.065-.41-.151-1.098t-.15-1.183q.129-.172.58-.172h.151q1.227.107 2.432 1.14 1.205 1.055 1.635 2.281.345.99.452 2.475l.087 1.098q.086.258.602.3 1.054-.235 2.13-.666 1.077-.41 1.4-.41.473 0 .924.367l.345.344q-.13.108-.345.13-.214.02-1.183.17-.968.174-2.474.56l-1.486.474q-.129.022-.236.022-.13.021-.173.021-.494 0-1.01-.495l-.28-.28q0-.15.128-.3.108-.13.259-.28.129-.151.258-.69.108-.516.108-1.355v-.172l-.022-.388q-.108-.946-.99-1.914t-1.743-.969q-.41 0-.624.473-.237.474-.43 1.27zm1.097-7.361q.215.065.624.301.41.259 1.14.71.733.452 1.313.797.13.215.13.366-.452 0-1.033-.194-.624 1.29-.667 2.173h-.582q-.559-.344-.645-.43l-.129-.194v-.129q.538-.387 1.657-1.484-.99-.301-1.485-.646-.495-.323-.538-.797-.043-.301.215-.473zm-3.4-4.26q0-.517.624-.517.581 0 2.001.43 5.338 1.57 5.445 9.103.13.172.387.172.216 0 .539-.129t.452-.15V36l-.065-2.066q.065-1.248.495-1.248 1.011 1.205 1.011 2.023 0 .15-.065.387-.064.258-.15.646-.086.408-.172 1.57-.108 1.184-.15 2.927v.581q-.022.387-.044.538 1.27-.258 2.131-.56.301-2.668 1.162-4.54t2.646-2.863q.28-.15.539-.15.086 0 .15.022.065.021.108.021v.13q-3.185 2.367-3.486 6.972.3-.043 1.936-.581.065 0 .086-.022.56.086.862.172.3.108.366.151.064.065.171.215 0 .086-.02.13-.044.064-.152.107-.129.043-.28.065-.15.043-.43.086-.301.064-.624.107-.323.065-.84.172-.537.13-1.097.259 0 1.162.065 1.57.065.41.28.69l1.764-.754.172.086v.021q-.086.194-.646.625-.58.43-1.247 1.01t-.968 1.12v.237q-.388 0-.711-.216-.344-.215-.43-.344t-.28-.451q0-.151.086-.216.065-.065.517-.258.623-.28 1.162-.538-.948-.41-1.055-.517l-.086-.215.086-.732.13-.796h-.108q-.173.087-.99.301-.818.216-.926.259-.065.774-.065 1.441 0 1.163.216 2.11l.237.559q0 .194-.28.194-.517 0-1.206-.797.152-1.613.195-3.206h-.022q-.173 0-.84.259-.666.28-.99.28-.925-.453-1.226-.776 0-.172.15-.344.13-.172.28-.646.13-.452.13-1.29 0-1.895-.947-3.573-.517-.903-1.679-1.678-1.162-.754-1.765-.754-.602 0-.925.925l-.495 1.744-.021.021q-.108 0-.172-.107-.087-.086-.13-.345-.064-.236-.107-.408t-.086-.56q-.065-.366-.087-.516l-.473-1.593v-.172q-.021-.13-.043-.194z" opacity=".5"/>
</svg>
