<svg xmlns="http://www.w3.org/2000/svg" width="52.157" height="60">
    <defs>
        <filter id="1GI_svg__a">
            <feGaussianBlur in="SourceAlpha" result="blur" stdDeviation="2"/>
            <feOffset dx="2" dy="2" result="offsetBlur"/>
            <feBlend in="SourceGraphic" in2="offsetBlur"/>
        </filter>
    </defs>
    <g fill="#feec99" filter="url(#1GI_svg__a)">
        <path d="M26.123 53.987a242 242 0 0 0 11.985-3.333c.459-.16 1.11-.258 1.18-.85.697-3.354 1.156-6.76 1.705-10.143 1.699-11.05 3.317-22.12 5.008-33.167-.153-.67-.995-.416-1.483-.471-12.66-.025-25.32-.03-37.978.032-.66.153-.275.935-.274 1.384 1.975 12.882 3.806 25.786 5.89 38.651.271 1.332.34 2.732.8 4.013.341.488 1.054.46 1.56.691 3.762 1.117 7.533 2.226 11.34 3.173a.9.9 0 0 0 .266.02z"/>
    </g>
    <path stroke="#000" stroke-width=".401" d="M19.807 19.945q0 .46-.055.597-.082.162-.272.162-.489 0-1.547-.922l-.325-.272q0-.108.027-.19 0-.054.082-.136.081-.08.19-.162t.353-.217q.216-.136.489-.298.243-.164.705-.462.46-.298.949-.624.705-.489 1.357-.787-1.547-1.248-2.307-1.71-.759-.434-1.573-.705l-3.175-.922q-.216-.11-.326-.136v-.19q1.275-.49 3.365-.787 1.818.624 3.771 2.74l2.009 2.226.624.597.624.46.216-6.376.055-.054-.108-.136-2.469 1.492q-.244.137-.733.3l-.081-.11.162-.325q.136-.245 1.466-1.493 1.302-1.248 1.6-1.6l1.058-1.41q.245-.245.625-.245.76.678.76 1.708-1.195 1.276-1.303 4.125l-.081 2.28q-.19 2.415-.19 3.772 0 4.178 1.113 6.512v.108q0 .38-.3.38-.27 0-.786-.298-.516-.272-.706-.462-2.795.95-3.88 1.547-.678 0-1.492-.489-.842-.488-.842-.922 0-.19.109-.38.108-.163.272-.38.135-.19.352-.95.19-.759.353-1.953.298-2.388 1.275-2.958.38 0 .733.38.325.407.353.407l.136-.054q.406-.163 1.22-.38.814-.19 1.113-.298v-1.113q-.733 0-2.144-1.41l-.57-.571-1.709 2.144q-.272.38-.542.95zm1.627 6.81 3.203-1.166q.136-.406.217-1.953v-.19l-1.166.542q-.19.11-.543.11-.869 0-1.032-.408l.19-.217 2.469-.76v-1.98l-1.627.65q-.272.055-.407.055-.407 0-.68-.19l-.297.434-.625 3.636q-.026.325-.026.814 0 .624.325.624zm5.807-9.605q0-.028.244-.163.245-.136.95-.597.679-.435 1.52-1.085h.216v.19l-1.058 1.437q-.38.625-.38 1.221-.108.11-.27.11-.326 0-.76-.408-.462-.38-.462-.705zm1.9 3.012q-1.14 0-1.14-.57v-.027l.244-.19 2.334-.706q.135-.217.325-4.45-.678.136-3.337.95l-.3-.054q.11-.49 1.222-.95l4.885-1.98q.216-.055 1.845-1.087l.38.055 1.492 1.031.054.488q-.19.217-.76.217-.705 0-.786.028l-3.61.976-.162 4.424q1.465-.164 2.062-.164 1.031 0 1.031.49-.27.19-3.039.732 0 1.248.163 1.845 1.41 0 2.035.244l1.79-2.09q.788-.786 1.548-1.112l.298.055-.081.243q-4.26 5.075-5.753 8.358l-.461 1.058q-.081.19-.081.407 0 .082.135.597.137.543.137.76-.082.109-.327.109-.515 0-1.221-.489-.706-.46-.706-.868 0-.136.028-.19l.624-.922v-.055l-1.439-.407q-.895-.326-1.003-.976v-.164l.027-.406.163-.272.433.027 1.656 1.275q.38.272.57.353 1.303-2.36 3.202-4.748-.434.08-2.035.624-1.628.542-2.116.542-.733 0-1.087-.46 0-.299.327-.408l2.333-.733.054-.027q-.597-.19-.597-1.274v-.408q-.489.299-1.357.299zm3.934-4.776q0-.896.272-1.004.787.19 1.573 1.655l.163.271q0 .353-.163.407-1.465-.65-1.845-1.33z"/>
    <path fill="red" stroke="red" stroke-width=".5" d="M27.23 49.479q-.698 0-2.006.261-1.396.262-1.832.437-.523.261-1.134.086-.61-.174-1.309-.697-.784-.437.437-.785t4.187-3.314q-2.18.436-2.617.697-.523.262-1.134.087t-1.483-.698-.523-.96q.261-.435.349-1.83 0-1.396-.175-4.274-.261-2.792-.174-3.926.087-1.046.96-1.744.871-.785 1.133 0t1.221 1.657q.96.873-.087.524-1.134-.262-1.483-.175-.436.175-.349 2.704t.262 4.536q.087 2.006.262 2.53.174.61.785.61.523.087 3.576-.436-.785-.524-.61-.96.087-.35.087-1.395l-1.396.349q-.698.174-1.047-.175-.436-.349.35-.61t2.093-.524v-2.18q-1.047.174-1.658.261-.698.175-1.22-.174-.524-.35.348-.61.872-.175 2.53-.524-.088-1.657.087-3.227.087-1.483.436-1.57.349-.088.436 1.22 0 1.396.087 3.403.96-.175 1.483-.262t1.22.349 0 .523q-.784.088-2.703.436v2.094q1.745-.262 2.268.087t-.087.436q-.61.175-2.18.523 0 1.919.436 2.355l2.616-.349q.174-3.488.436-5.32.262-1.745.785-3.315.523-1.483 2.18-2.268 1.57-.872.35.35-1.221 1.133-1.745 2.965t-.61 4.448q-.175 2.617.174 3.228.349.697-.174.61-.524-.087-1.047-.087t-3.402.436q-1.395 1.745-2.18 2.617t-.524 1.046q.262.262.873.088.523-.088 1.308-.262.698-.088 1.57.262 2.18-2.356 4.012-3.315 1.832-.872.524.175-1.31 1.046-2.356 2.267-1.046 1.309-1.308 1.92-.349.697-.262 1.307 0 .611-.697.35-.698-.262-1.134-.611-.523-.35-.087-.698.348-.349.872-.96z" opacity=".493"/>
</svg>
