<svg xmlns="http://www.w3.org/2000/svg" width="52.157" height="60">
    <defs>
        <filter id="1HI_svg__a">
            <feGaussianBlur in="SourceAlpha" result="blur" stdDeviation="2"/>
            <feOffset dx="2" dy="2" result="offsetBlur"/>
            <feBlend in="SourceGraphic" in2="offsetBlur"/>
        </filter>
    </defs>
    <g fill="#feec99" filter="url(#1HI_svg__a)">
        <path d="M26.123 53.987a242 242 0 0 0 11.985-3.333c.459-.16 1.11-.258 1.18-.85.697-3.354 1.156-6.76 1.705-10.143 1.699-11.05 3.317-22.12 5.008-33.167-.153-.67-.995-.416-1.483-.471-12.66-.025-25.32-.03-37.978.032-.66.153-.275.935-.274 1.384 1.975 12.882 3.806 25.786 5.89 38.651.271 1.332.34 2.732.8 4.013.341.488 1.054.46 1.56.691 3.762 1.117 7.533 2.226 11.34 3.173a.9.9 0 0 0 .266.02z"/>
    </g>
    <path fill="red" fill-opacity=".996" stroke="red" stroke-width=".673" d="M24.808 48.466q-1.345.252-2.101.589-.757.336-1.43-.084t.42-.925q1.094-.421 3.111-.336l.084-2.606q-2.69.42-4.035.672-1.43.252-1.934-.168t-.504-.672q-.084-.253 1.177-.253c1.261 0 1.793-.056 2.858-.168q1.514-.168 3.867-.504a2.8 2.8 0 0 1-1.008-.505q-.42-.336-.169-.84c.253-.505.224-.925.169-1.766q-.085-1.26 0-2.102.084-.84.336-1.176.168-.253.588.336.42.588.253 1.26-.169.757-.084 2.018 0 1.262.168 1.766a17 17 0 0 0 .336.925q4.455-.926 5.044-1.093.588-.168 1.43.336.756.589-.085.589-.925 0-3.615.504.168 2.69.589 3.195t.252.672-1.093-.084q-1.009-.168-.84-.84t.083-2.775q-1.26.252-2.774.505 0 3.026.168 4.371.084 1.429.42 1.934.337.504-.168.42-.504 0-1.26-.336-.757-.253-.505-.673.252-.336.252-2.186zm-4.095-6.4q-.672-.589-.168-.841c.28-.168 1.489-1.614 1.993-2.342q.673-1.01 2.102-2.354c.897-.898 1.34-1.184 3.312-2.437 1.645-.72 1.45-.675 3.1-1.206.96-.142 1.449-.212 1.232-.087-.123.072-.481.208-1.115.434-1.793.56-2.424 1.166-3.825 2.119-1.457.952-2.06 2.045-2.956 3.278-.953 1.289-2.218 3.155-2.162 3.604.48.656.4.821-.42.588-.341-.096-.7-.364-1.093-.756zm.607-4.017q-1.345-.337-1.85-.841c-.393-.336-.509-.81-.42-1.43.08-.557.364-.616.925-.167q.756.672 1.513 1.177a49 49 0 0 1 1.26 1.008q.505.505.253.589-.336.083-1.681-.336zm8.532 3.187q-.42.841-.588.841-.253.084-.168-1.177 0-1.26.924-2.606.925-1.261 1.177-.252.169 1.009-.42 1.681a7.4 7.4 0 0 0-.925 1.513z" opacity=".5"/>
    <path stroke="#000" stroke-width=".734" d="M22.159 26.41q-.348 0-.722.99t-.375 1.631q-.187.08-.402.08-.481 0-.936-.454l-.348-.402v-.134q.75-.455 2.248-1.792l-1.391-.348q-.589-.24-.857-.722-.293-.455-.293-.802 0-.215.16-.295h.107l.348.107q1.123.749 2.06 1.257l.936.455q.267.267.267.482l-.776-.054zm-3.772-2.836q0-.214-.054-.723-.08-.508-.187-1.365-.107-.855-.187-1.47.16-.214.722-.214h.187q1.525.133 3.024 1.417 1.497 1.311 2.032 2.836.429 1.23.562 3.076l.107 1.365q.107.32.749.374 1.311-.293 2.649-.829 1.337-.508 1.739-.508.588 0 1.15.455l.428.427q-.16.135-.428.162-.267.026-1.472.213-1.203.215-3.076.696l-1.846.588q-.16.027-.294.027-.16.027-.214.027-.615 0-1.257-.616l-.348-.347q0-.188.16-.375.134-.16.321-.348.161-.187.321-.856.134-.642.134-1.685v-.214l-.027-.482q-.133-1.177-1.23-2.38t-2.167-1.204q-.509 0-.776.588-.294.589-.536 1.578zm1.364-9.15q.267.08.776.375.508.321 1.417.882.91.562 1.632.99.162.268.162.455-.563 0-1.284-.24-.777 1.604-.83 2.701H20.9q-.695-.428-.802-.535l-.16-.24v-.161q.668-.481 2.059-1.846-1.23-.374-1.845-.802-.616-.402-.67-.99-.053-.375.268-.589zm-4.226-5.297q0-.642.775-.642.722 0 2.488.536 6.635 1.952 6.768 11.315.16.215.481.215.268 0 .67-.161t.562-.187V13.22l-.081-2.568q.08-1.551.616-1.551 1.257 1.497 1.257 2.514 0 .188-.081.482-.08.32-.186.803-.108.507-.215 1.952-.133 1.471-.187 3.638v.723q-.027.481-.053.668 1.578-.32 2.649-.695.374-3.317 1.444-5.644t3.29-3.56q.348-.186.67-.186.106 0 .186.027.08.026.134.026v.162q-3.959 2.942-4.334 8.667.374-.053 2.408-.723.08 0 .107-.026.695.107 1.07.213.375.135.455.188.08.08.214.267 0 .108-.027.161-.053.08-.188.134-.16.053-.347.08-.187.054-.535.107-.374.08-.776.134-.401.08-1.043.214-.669.161-1.365.32 0 1.446.08 1.954.081.508.348.856l2.194-.936.214.107v.026q-.107.24-.803.776-.722.535-1.551 1.257T31.63 25.18v.294q-.483 0-.884-.268-.428-.267-.535-.428t-.348-.561q0-.188.108-.268.08-.08.642-.321.775-.348 1.444-.669-1.177-.508-1.31-.642l-.108-.268.107-.91.16-.989h-.133q-.214.107-1.23.375-1.017.267-1.15.32-.082.964-.082 1.793 0 1.445.268 2.622l.295.695q0 .24-.348.24-.642 0-1.499-.989.188-2.006.242-3.986h-.027q-.215 0-1.044.322-.829.347-1.23.347-1.151-.562-1.525-.963 0-.214.187-.428.16-.214.348-.803.16-.562.16-1.604 0-2.355-1.177-4.442-.642-1.123-2.086-2.086-1.445-.936-2.194-.936t-1.15 1.15l-.616 2.167-.026.026q-.135 0-.215-.133-.107-.107-.16-.429-.08-.293-.134-.507t-.107-.696q-.08-.455-.107-.642l-.589-1.98v-.214q-.026-.16-.053-.24z"/>
</svg>
