<svg xmlns="http://www.w3.org/2000/svg" width="52.157" height="60">
    <defs>
        <filter id="1KA_svg__a">
            <feGaussianBlur in="SourceAlpha" result="blur" stdDeviation="2"/>
            <feOffset dx="2" dy="2" result="offsetBlur"/>
            <feBlend in="SourceGraphic" in2="offsetBlur"/>
        </filter>
    </defs>
    <g fill="#feec99" filter="url(#1KA_svg__a)">
        <path d="M26.123 53.987a242 242 0 0 0 11.985-3.333c.459-.16 1.11-.258 1.18-.85.697-3.354 1.156-6.76 1.705-10.143 1.699-11.05 3.317-22.12 5.008-33.167-.153-.67-.995-.416-1.483-.471-12.66-.025-25.32-.03-37.978.032-.66.153-.275.935-.274 1.384 1.975 12.882 3.806 25.786 5.89 38.651.271 1.332.34 2.732.8 4.013.341.488 1.054.46 1.56.691 3.762 1.117 7.533 2.226 11.34 3.173a.9.9 0 0 0 .266.02z"/>
    </g>
    <path fill="red" stroke="red" stroke-width=".364" d="M20.376 41.56q0 .419-.05.543-.073.148-.246.148-.445 0-1.406-.84l-.296-.246q0-.099.025-.173 0-.05.074-.124.073-.073.173-.147t.32-.197q.197-.124.445-.271.221-.15.64-.42.42-.271.864-.568.64-.443 1.233-.715-1.406-1.135-2.097-1.554-.69-.395-1.43-.641l-2.886-.839q-.197-.099-.296-.124v-.172q1.158-.445 3.059-.715 1.652.567 3.428 2.491l1.826 2.023.567.543.567.419.197-5.797.05-.05-.099-.123-2.244 1.357q-.222.124-.667.272l-.073-.1.148-.295q.123-.223 1.332-1.357 1.184-1.135 1.455-1.455l.962-1.283q.222-.222.568-.222.69.616.69 1.554-1.086 1.16-1.184 3.75l-.074 2.071q-.172 2.196-.172 3.43 0 3.798 1.011 5.92v.098q0 .346-.272.346-.246 0-.715-.272-.469-.247-.642-.42-2.54.864-3.526 1.407-.617 0-1.358-.444-.765-.444-.765-.838 0-.173.1-.346.098-.148.246-.345.123-.173.32-.864.174-.69.322-1.776.27-2.17 1.159-2.689.345 0 .666.346.296.37.32.37l.124-.05q.37-.148 1.11-.345.74-.173 1.011-.271v-1.012q-.666 0-1.949-1.282l-.517-.519-1.554 1.95q-.247.345-.494.863zm1.48 6.191 2.912-1.06q.123-.37.197-1.776v-.172l-1.06.493q-.173.099-.494.099-.79 0-.938-.37l.173-.198 2.244-.69v-1.801l-1.479.592q-.247.05-.37.05-.37 0-.617-.173l-.271.394-.568 3.306q-.024.295-.024.74 0 .567.296.567zm5.28-8.732q0-.025.22-.148.223-.124.864-.543.617-.395 1.382-.986h.197v.172l-.962 1.308q-.345.567-.345 1.11-.099.098-.247.098-.296 0-.69-.37-.42-.345-.42-.641zm1.726 2.738q-1.036 0-1.036-.518v-.025l.222-.172 2.121-.641q.124-.198.296-4.046-.616.123-3.034.863l-.272-.05q.1-.444 1.11-.863l4.441-1.8q.197-.05 1.678-.987l.345.05 1.357.937.049.444q-.173.196-.691.196-.641 0-.715.026l-3.281.887-.148 4.022q1.332-.149 1.875-.149.937 0 .937.445-.246.172-2.762.666 0 1.134.147 1.677 1.283 0 1.85.222l1.628-1.9q.716-.715 1.407-1.01l.27.049-.073.221q-3.873 4.613-5.23 7.598l-.42.962q-.073.173-.073.37 0 .074.123.543.124.493.124.69-.074.1-.296.1-.469 0-1.11-.445-.642-.419-.642-.789 0-.124.025-.173l.567-.838v-.05l-1.308-.37q-.813-.296-.912-.887v-.15l.025-.369.148-.247.394.025 1.505 1.16q.346.247.518.32 1.185-2.146 2.91-4.316-.393.073-1.85.566-1.48.494-1.923.494-.666 0-.987-.42 0-.27.296-.37l2.121-.665.05-.025q-.543-.173-.543-1.159v-.37q-.444.271-1.233.271zm3.576-4.342q0-.814.247-.912.716.173 1.43 1.505l.149.246q0 .32-.148.37-1.332-.592-1.678-1.209z" opacity=".486"/>
    <path stroke="#000" stroke-width=".5" d="M27.892 26.965q-.77 0-2.217.289-1.543.29-2.025.483-.578.289-1.253.096t-1.447-.771q-.868-.483.483-.869t4.628-3.663q-2.41.482-2.893.77-.578.29-1.253.097t-1.64-.771-.578-1.06q.289-.483.385-2.025 0-1.543-.193-4.725-.289-3.086-.192-4.34.096-1.156 1.06-1.927.964-.868 1.254 0t1.35 1.831q1.06.965-.097.58-1.253-.29-1.639-.194-.482.193-.385 2.989.096 2.797.288 5.014.097 2.218.29 2.797.193.674.867.674.579.097 3.954-.482-.868-.578-.675-1.06.097-.386.097-1.543l-1.543.386q-.771.192-1.157-.193-.482-.386.386-.675t2.314-.579v-2.41q-1.157.193-1.832.29-.772.192-1.35-.194-.579-.385.385-.674.965-.193 2.797-.58-.097-1.831.096-3.567.096-1.64.482-1.735.386-.097.482 1.35 0 1.543.097 3.76 1.06-.193 1.639-.29.578-.095 1.35.387.77.482 0 .578-.868.097-2.99.482v2.314q1.929-.29 2.507.097.579.385-.096.482-.675.193-2.41.578 0 2.121.482 2.603l2.892-.385q.193-3.857.482-5.882.29-1.928.868-3.663.578-1.64 2.41-2.508 1.736-.964.387.386-1.35 1.253-1.929 3.279t-.674 4.917q-.194 2.892.191 3.567.386.771-.191.675-.58-.096-1.157-.096-.58 0-3.761.482-1.543 1.929-2.41 2.892-.869.964-.58 1.158.29.288.965.096.578-.096 1.446-.29.771-.096 1.736.29 2.41-2.604 4.435-3.664 2.024-.964.579.193-1.447 1.157-2.604 2.506-1.157 1.447-1.446 2.122-.386.771-.29 1.446 0 .675-.77.386-.772-.29-1.254-.675-.579-.386-.097-.771.386-.386.964-1.06z"/>
</svg>
