<svg xmlns="http://www.w3.org/2000/svg" width="52.157" height="60">
    <defs>
        <filter id="1KE_svg__a">
            <feGaussianBlur in="SourceAlpha" result="blur" stdDeviation="2"/>
            <feOffset dx="2" dy="2" result="offsetBlur"/>
            <feBlend in="SourceGraphic" in2="offsetBlur"/>
        </filter>
    </defs>
    <g fill="#feec99" filter="url(#1KE_svg__a)">
        <path d="M26.123 53.987a242 242 0 0 0 11.985-3.333c.459-.16 1.11-.258 1.18-.85.697-3.354 1.156-6.76 1.705-10.143 1.699-11.05 3.317-22.12 5.008-33.167-.153-.67-.995-.416-1.483-.471-12.66-.025-25.32-.03-37.978.032-.66.153-.275.935-.274 1.384 1.975 12.882 3.806 25.786 5.89 38.651.271 1.332.34 2.732.8 4.013.341.488 1.054.46 1.56.691 3.762 1.117 7.533 2.226 11.34 3.173a.9.9 0 0 0 .266.02z"/>
    </g>
    <path fill="red" stroke="red" stroke-width=".505" d="M24.882 49.957q0-.27.22-.442.222-.146.344-.392l-3.339-3.192q-1.35-1.203-2.43-1.792-1.105-.59-2.48-1.056-1.4-.466-2.259-.884l-.098-.147q.54-.32 1.914-.344l2.456-.123q.196-.024.442.074.245.123.443.245.17.148.44.393.246.27.369.393.123.148.368.418.222.294.246.319 2.381 2.578 4.272 5.131.099-.147.638-.908.54-.737.86-1.154.295-.393.908-1.179t1.154-1.35q.516-.54 1.179-1.228.663-.663 1.375-1.228.712-.54 1.448-.982 1.326-.81 1.793-1.006t.957-.22l.05.023q-3.905 3.094-5.868 5.352-1.965 2.26-2.825 4.248-.343.885-.343 2.26-.172.073-.393.073-.467 0-1.154-.368-.687-.369-.687-.934zm-2.897-11.44q-.54-.025-.982-.417-.467-.393-.688-.909 0-.221.196-.344t.59-.245q.393-.098.466-.123 2.136-1.055 3.314-1.301l.05.196q-2.48 1.94-2.775 2.48l-.123.614zm3.805-4.96q-1.792.172-3.412.443-1.646.294-2.063.294h-.05q-.613 0-1.227-.368-.638-.368-1.007-.909.099-.393.565-.393l3.83.124h.025q3.51 0 6.506-.443l2.947-.54h.123q.442 0 .883.246.443.245.54.589 0 .196-.27.196l-6.285.614-.05 5.131 1.965-.147q.614.05 1.178.221l.296.32-.197.171-3.167.467q0 .932.196 2.062.196-.024.59-.024 1.693 0 1.718.589-.221.098-.663.196-.467.099-1.006.172-.566.074-.737.123l-2.848.712q-.491.098-1.056.098-.762-.295-.762-.54 0-.147 1.253-.516 1.252-.343 2.308-.515-.418-.246-.418-.933 0-.246.025-.393l.073-.663-1.964.491q-.343.073-.613.073-.835 0-1.105-.564 0-.27.687-.466.688-.197 2.48-.54.32-.074.491-.1.123-.269.22-5.18zm3.094.737q.982 0 2.529 2.406 0 .246-.099.344-1.865-.369-2.651-1.301-.05-.344-.05-.835 0-.442.27-.614z" opacity=".559"/>
    <path stroke="#000" stroke-width=".5" d="M22.661 19.813q-.258.025-1.6.361t-2.014.336q-1.11 0-1.807-.697-.077-.078-.025-.156.025-.077.051-.129.026-.025.13-.077.103-.051.129-.077.103-.026 1.367-.026h.206q2.943-.13 6.377-1.007l1.394-.439h.206q.439 0 .93.336l.31.259q-.336.386-4.595 1.031l-.078.078v2.53l1.859-.207q.723.052 1.316.568 0 .18-.258.258-.284.078-1.213.233-.981.155-1.652.283l.052 2.788q.077 1.136.465 1.833.36.723.36.877-.103.181-.516.181-.13 0-.31-.026-.206-.026-.258-.026l-1.058-.465q-.258-.18-.414-.412.388-2.066.44-4.362l-1.962.541q-.13.027-.387.027-.723 0-1.11-.491 0-.336.593-.568.568-.232 2.298-.542l.568-.13.077-.076zm-4.724-7.383q-1.264 0-2.297-1.058 0-.568 1.006-.568.13 0 .465.026.336.025.414.025 5.213-.025 8.57-.645l1.78-.413h.13q.077-.026.103-.026.413 0 .851.233.44.258.594.568 0 .155-.361.206l-5.498.67-.052 3.022q.851-.155 1.55-.155 1.806 0 1.806.645-.26.078-1.601.283-1.342.233-1.755.362.232 1.807.232 1.859l.233.8q0 .154-.259.258-.722 0-1.6-.93l.104-1.496v-.026q-.104 0-.698.206-.593.206-1.136.206-.955 0-1.367-.567 0-.206.155-.31l3.123-.8.155-3.15h-.077q-.827 0-2.324.388-1.523.387-2.246.387zm15.36 16.391q0 .31-.75.31h-.154l-1.265-.749q-.517-.438-.62-.826.594-1.936.594-4.982l-1.6.44q-.13.025-.362.025-.413 0-.774-.155-.387-.155-.44-.387.207-.258.93-.542.697-.258 1.446-.465t.774-.206l.078-2.478-1.498-.465q-.49-.232-.774-.594l-.155-.851q.052-.284.465-.284h.103q.077.026.13.026l1.677 1.342q.13-5.343.13-8.621 0-.8.8-1.446.36.052.696.723.31.67.31 1.626 0 .645-.155 1.368l-.18.749q-.336 1.161-.336 3.846 0 .619.026 1.265v1.032q.825-1.703 2.555-3.691t2.478-2.013v.18q-3.537 4.49-4.93 7.847l2.581-.465q.206-.025.542-.025.98 0 1.368.464l-.232.206-4.491 1.085v2.71q0 1.91.516 3.02l.438.775q.078.103.078.206z"/>
</svg>
