<svg xmlns="http://www.w3.org/2000/svg" width="52.157" height="60">
    <defs>
        <filter id="1KI_svg__a">
            <feGaussianBlur in="SourceAlpha" result="blur" stdDeviation="2"/>
            <feOffset dx="2" dy="2" result="offsetBlur"/>
            <feBlend in="SourceGraphic" in2="offsetBlur"/>
        </filter>
    </defs>
    <g fill="#feec99" filter="url(#1KI_svg__a)">
        <path d="M26.123 53.987a242 242 0 0 0 11.985-3.333c.459-.16 1.11-.258 1.18-.85.697-3.354 1.156-6.76 1.705-10.143 1.699-11.05 3.317-22.12 5.008-33.167-.153-.67-.995-.416-1.483-.471-12.66-.025-25.32-.03-37.978.032-.66.153-.275.935-.274 1.384 1.975 12.882 3.806 25.786 5.89 38.651.271 1.332.34 2.732.8 4.013.341.488 1.054.46 1.56.691 3.762 1.117 7.533 2.226 11.34 3.173a.9.9 0 0 0 .266.02z"/>
    </g>
    <path fill="red" stroke="red" stroke-width=".4" d="M22.977 40.915q-.235.023-1.456.329-1.22.305-1.83.305-1.01 0-1.643-.634-.07-.07-.022-.141.022-.07.046-.117.024-.024.118-.07.093-.048.117-.071.094-.024 1.243-.024h.188q2.675-.117 5.796-.915l1.267-.399h.188q.399 0 .845.305l.282.236q-.305.351-4.177.938l-.07.07v2.3l1.689-.188q.657.047 1.196.516 0 .164-.234.235-.258.07-1.103.211-.892.141-1.502.258l.047 2.534q.07 1.033.423 1.667.328.657.328.798-.094.164-.47.164-.117 0-.28-.024-.189-.023-.236-.023l-.962-.423q-.234-.164-.375-.374.352-1.879.399-3.967l-1.784.493q-.117.024-.352.024-.657 0-1.008-.447 0-.305.539-.515.516-.212 2.088-.493l.517-.118.07-.07zm-4.295-6.712q-1.15 0-2.089-.962 0-.515.915-.515.118 0 .423.022.305.024.376.024 4.74-.024 7.79-.586l1.62-.376h.117q.07-.024.094-.024.376 0 .774.212.4.235.54.516 0 .14-.328.187l-4.999.61-.047 2.747q.774-.141 1.409-.141 1.642 0 1.642.586-.235.071-1.455.258-1.22.212-1.596.329.211 1.642.211 1.69l.212.727q0 .14-.235.235-.657 0-1.455-.845l.094-1.36v-.024q-.094 0-.634.187t-1.033.187q-.868 0-1.243-.515 0-.188.141-.282l2.84-.728.14-2.863h-.07q-.751 0-2.112.353-1.385.351-2.042.351zm13.963 14.902q0 .281-.68.281h-.142l-1.15-.68q-.469-.4-.563-.751.54-1.76.54-4.53l-1.455.4q-.118.023-.329.023-.375 0-.703-.14-.352-.142-.4-.353.188-.234.846-.492.633-.235 1.314-.423t.703-.187L30.697 40l-1.361-.423q-.446-.211-.704-.54l-.14-.774q.046-.258.422-.258h.093q.07.024.118.024l1.525 1.22q.118-4.858.118-7.838 0-.727.727-1.314.328.047.633.657.282.61.282 1.479 0 .586-.141 1.243l-.164.681q-.305 1.056-.305 3.496 0 .563.023 1.15v.939q.751-1.549 2.323-3.356t2.253-1.83v.164q-3.215 4.082-4.482 7.134l2.347-.423q.187-.023.492-.023.892 0 1.244.422l-.211.187-4.083.987v2.463q0 1.737.47 2.746l.398.704q.07.093.07.187z" opacity=".503"/>
    <path stroke="#000" stroke-width=".5" d="M25.357 28.077q0-.294.24-.482.24-.159.374-.426l-3.633-3.473q-1.469-1.31-2.644-1.95-1.203-.642-2.699-1.15-1.523-.506-2.457-.961l-.107-.16q.588-.347 2.083-.374l2.672-.134q.214-.026.481.081.267.133.482.267.186.16.48.427.267.294.4.427.134.161.401.455.24.32.268.347 2.59 2.805 4.647 5.584.108-.161.695-.99.588-.8.935-1.255.32-.427.988-1.282t1.256-1.47q.56-.587 1.282-1.335.721-.721 1.496-1.336.775-.587 1.576-1.068 1.443-.882 1.95-1.096t1.042-.24l.054.026q-4.248 3.367-6.385 5.824-2.137 2.458-3.072 4.622-.374.962-.374 2.458-.187.08-.427.08-.508 0-1.256-.4-.748-.402-.748-1.016zm-3.152-12.448q-.588-.027-1.069-.454-.508-.428-.748-.989 0-.24.213-.374.214-.134.642-.266.428-.108.507-.135 2.325-1.148 3.607-1.415l.053.213q-2.698 2.11-3.018 2.699l-.134.668zm4.14-5.396q-1.95.187-3.712.481-1.79.32-2.245.32h-.053q-.668 0-1.336-.4-.695-.401-1.095-.989.107-.428.614-.428l4.167.135h.027q3.82 0 7.08-.482l3.205-.588h.134q.481 0 .962.268.48.267.587.64 0 .214-.294.214l-6.838.669-.054 5.583 2.137-.16q.668.053 1.282.24l.321.347-.213.187-3.446.508q0 1.015.213 2.244.214-.027.641-.027 1.844 0 1.87.64-.24.108-.72.215-.509.107-1.096.187-.616.08-.802.134l-3.099.774q-.534.107-1.148.107-.829-.32-.829-.588 0-.16 1.363-.56 1.362-.375 2.511-.562-.454-.267-.454-1.014 0-.268.027-.428l.08-.721-2.137.534q-.374.08-.668.08-.908 0-1.203-.614 0-.295.748-.508.749-.214 2.7-.588.346-.08.533-.107.134-.294.24-5.636zm3.367.801q1.068 0 2.751 2.618 0 .268-.107.374-2.03-.4-2.885-1.415-.054-.374-.054-.909 0-.481.295-.668z"/>
</svg>
