<svg xmlns="http://www.w3.org/2000/svg" width="52.157" height="60">
    <defs>
        <filter id="1KY_svg__a">
            <feGaussianBlur in="SourceAlpha" result="blur" stdDeviation="2"/>
            <feOffset dx="2" dy="2" result="offsetBlur"/>
            <feBlend in="SourceGraphic" in2="offsetBlur"/>
        </filter>
    </defs>
    <g fill="#feec99" filter="url(#1KY_svg__a)">
        <path d="M26.123 53.987a242 242 0 0 0 11.985-3.333c.459-.16 1.11-.258 1.18-.85.697-3.354 1.156-6.76 1.705-10.143 1.699-11.05 3.317-22.12 5.008-33.167-.153-.67-.995-.416-1.483-.471-12.66-.025-25.32-.03-37.978.032-.66.153-.275.935-.274 1.384 1.975 12.882 3.806 25.786 5.89 38.651.271 1.332.34 2.732.8 4.013.341.488 1.054.46 1.56.691 3.762 1.117 7.533 2.226 11.34 3.173a.9.9 0 0 0 .266.02z"/>
    </g>
    <path fill="red" stroke="red" stroke-width=".503" d="M.65 9.684q.573 0 .937.287.365.286.365.703t-.469.651-2.24.755l-.364.104q-2.083.704-3.698 1.537t-2.526 1.588q-.912.756-1.484 1.563-.573.781-.756 1.354-.182.547-.182 1.042 0 2.578 5.234 2.578.73 0 1.12-.026-.39.026-.625.026.156-.078.339 0 .182.078 1.224-.052 1.067-.13 2.396-.547.833-.234 1.354-.234.911 0 1.458.859 0 .52-.469.833T.415 23.2q-1.38.208-3.932.234h-2.396q-.52 0-1.25-.208-.729-.182-1.614-.599-.86-.443-1.459-1.302-.573-.885-.573-2.057 0-1.797 1.172-3.203 1.198-1.407 3.412-3.021-1.433-1.094-1.433-3.412v-.078l.13-2.916q-.025-.86-.312-1.38-.26-.548-.573-.704-.312-.182-.703-.364-.39-.183-.547-.365-.026-.26.287-.39.312-.13.494-.13 2.266.364 2.917 1.796-.364 2.135-.364 4.063 0 3.02 1.197 3.02.209 0 2.553-1.015Q-.21 10.127.65 9.684z" opacity=".5" transform="matrix(-.99398 0 0 -.969 22.065 54.753)"/>
    <path stroke="#000" stroke-width=".5" d="M21.197 24.824q-.583 0-1.138-.329-.582-.303-.834-.733 0-.177.354-.303l4.727-.177q.657-.05 1.492-.202-2.604-2.023-4.07-2.68t-5.739-1.946q-.152-.077-.228-.152t-.1-.076q.1-.152 1.542-.43 1.415-.253 2.073-.253.858 0 2.123.91 1.24.91 2.831 2.427 1.568 1.542 2.073 1.947.05-.405.05-1.24 0-.884-.024-1.465 0-2.099.48-2.099.354 0 .53.633l.178.556q-.177 1.037-.177 3.261 3.21-4.323 7.129-5.84 1.036-.379 1.593-.379.328 0 .48.152-.051.025-.557.329-.53.303-.732.404-.203.126-.759.455-.582.354-.885.556-.328.227-.885.607t-.91.657q-.354.304-.834.733-.506.43-.859.809-.354.38-.734.835-.378.455-.657.91 1.39-.127 2.604-.48 1.188-.33 1.441-.33h.076q.809 0 1.34.658 0 .177-.304.227l-6.497.91q0 1.871.43 2.68.38-.05 1.77-.404l.607-.127.858-.126v.278q-2.249.835-3.488 1.466-1.264.632-1.618.986-.354.38-.38.759l-.075.1q-.657 0-1.516-.555-.885-.531-.885-.784 0-.228.328-.303.304-.051 1.29-.279.985-.202 2.098-.708-.784-.404-.885-.555l-.152-.304-.025-.177q.455-.834.48-1.694-1.491.228-3.286.556l-1.542.329h-.127zm9.808-7.61q-.177 0-.53-.176-.38-.177-.48-.278-3.439.379-5.714 1.441-1.467-.43-2.175-1.391.026-.1.279-.53.227-.405.227-.633l-.227-3.969q0-2.755 1.163-3.615l.354.051 1.415 2.174q2.604-.025 4.5-.405.152-.58.506-.859.354.151.582.658.227.48.227.96 0 .1-.253.885-.253.809-.253 1.921 0 2.376.683 3.564-.076.203-.304.203zm-7.003-2.932q0 1.441.077 1.972.05.531.227.657.152.152.607.152.278-.025 1.87-.43 1.593-.379 2.706-.581l.075-.177v-2.098l-2.376.682q-.43.127-.733.127-.708 0-1.188-.506 0-.278.101-.38l3.943-.555q.203 0 .304-.025 0-1.872.025-2.402l-3.084.632q-.556.05-.733.05-.759 0-1.29-.682-.53.05-.53 3.564z"/>
</svg>
