<svg xmlns="http://www.w3.org/2000/svg" width="52.157" height="60">
    <defs>
        <filter id="1TO_svg__a">
            <feGaussianBlur in="SourceAlpha" result="blur" stdDeviation="2"/>
            <feOffset dx="2" dy="2" result="offsetBlur"/>
            <feBlend in="SourceGraphic" in2="offsetBlur"/>
        </filter>
    </defs>
    <g fill="#feec99" filter="url(#1TO_svg__a)">
        <path d="M26.123 53.987a242 242 0 0 0 11.985-3.333c.459-.16 1.11-.258 1.18-.85.697-3.354 1.156-6.76 1.705-10.143 1.699-11.05 3.317-22.12 5.008-33.167-.153-.67-.995-.416-1.483-.471-12.66-.025-25.32-.03-37.978.032-.66.153-.275.935-.274 1.384 1.975 12.882 3.806 25.786 5.89 38.651.271 1.332.34 2.732.8 4.013.341.488 1.054.46 1.56.691 3.762 1.117 7.533 2.226 11.34 3.173a.9.9 0 0 0 .266.02z"/>
    </g>
    <path stroke="#000" stroke-width=".501" d="M19.95 22.967q-.627 0-1.024-.314-.4-.313-.4-.768t.513-.712 2.448-.825l.398-.114q2.277-.769 4.042-1.68t2.76-1.735q.997-.826 1.622-1.708.626-.854.826-1.48.2-.598.2-1.139 0-2.817-5.721-2.817-.798 0-1.224.028.426-.028.683-.028-.17.085-.37 0t-1.338.057q-1.166.142-2.619.598-.91.255-1.48.255-.995 0-1.593-.938 0-.569.513-.91t2.02-.542q1.509-.227 4.298-.256h2.618q.568 0 1.366.228.797.199 1.764.654.94.485 1.595 1.423.626.968.626 2.248 0 1.964-1.28 3.5-1.31 1.539-3.73 3.302 1.566 1.196 1.566 3.73v.085l-.142 3.186q.028.94.341 1.509.284.599.626.769.341.199.769.398.426.2.597.399.029.284-.313.426-.341.142-.54.142-2.477-.398-3.188-1.963.398-2.333.398-4.44 0-3.3-1.308-3.3-.229 0-2.79 1.109-2.59 1.138-3.53 1.623z"/>
    <path fill="red" stroke="red" stroke-width=".5" d="M21.284 47.436q-.53 0-1.035-.298-.529-.276-.758-.667 0-.16.321-.275l4.298-.161q.597-.047 1.356-.184-2.367-1.84-3.7-2.437t-5.217-1.769q-.138-.069-.207-.138t-.091-.069q.091-.138 1.401-.39 1.287-.23 1.885-.23.78 0 1.93.827 1.127.828 2.574 2.206 1.425 1.402 1.885 1.77.046-.368.046-1.127 0-.803-.023-1.332 0-1.908.436-1.908.322 0 .483.575l.16.506q-.16.942-.16 2.964 2.919-3.93 6.48-5.308.943-.345 1.449-.345.298 0 .436.138-.046.023-.506.298-.481.276-.665.368-.184.115-.69.414-.529.322-.805.506-.298.206-.804.55t-.828.598q-.321.277-.758.667-.46.39-.78.735-.323.345-.668.759-.344.413-.597.827 1.264-.115 2.367-.437 1.08-.298 1.31-.298h.069q.736 0 1.218.597 0 .16-.276.207l-5.906.828q0 1.7.39 2.435.345-.045 1.61-.367l.551-.115.78-.115v.252q-2.044.76-3.17 1.334-1.15.574-1.471.896-.322.345-.345.69l-.069.091q-.597 0-1.378-.505-.805-.483-.805-.713 0-.207.299-.275.275-.046 1.172-.254.896-.183 1.907-.643-.713-.367-.804-.505l-.138-.276-.023-.161q.414-.759.437-1.54-1.356.207-2.988.506l-1.402.298h-.115zM30.2 40.52q-.16 0-.482-.16-.345-.162-.437-.253-3.125.344-5.194 1.31-1.333-.391-1.977-1.265.023-.092.254-.482.206-.368.206-.575l-.206-3.608q0-2.505 1.057-3.286l.321.046 1.287 1.976q2.368-.023 4.091-.368.138-.528.46-.78.322.136.529.597.206.436.206.873 0 .091-.23.804-.23.735-.23 1.747 0 2.16.62 3.24-.068.184-.275.184zm-6.366-2.666q0 1.31.07 1.792.045.484.206.598.138.138.552.138.253-.023 1.7-.39 1.448-.345 2.46-.529l.068-.16v-1.908l-2.16.62q-.391.115-.667.115-.643 0-1.079-.46 0-.252.092-.345l3.584-.505q.185 0 .276-.023 0-1.701.023-2.183l-2.803.574q-.506.046-.667.046-.69 0-1.172-.62-.482.045-.482 3.24z" opacity=".51"/>
</svg>
