<svg xmlns="http://www.w3.org/2000/svg" viewBox="0 0 22 22">
    <defs>
        <filter id="0FU_svg__a" color-interpolation-filters="sRGB">
            <feGaussianBlur in="SourceAlpha" result="blur" stdDeviation="1"/>
            <feOffset dx="5" dy="3" in="blur" result="offset"/>
            <feFlood flood-color="#000" flood-opacity=".5"/>
            <feComposite in2="offset" operator="in"/>
            <feComposite in="SourceGraphic"/>
        </filter>
    </defs>
    <g stroke-width=".435" filter="url(#0FU_svg__a)" transform="translate(-149.731 -24.992)scale(.26458)">
        <path fill="#fee572" d="m607.424 100-17.367 5.643-9.208 58.137 53.151-.001-9.208-58.136z"/>
        <path fill="#c3983c" d="M580.849 163.78v5.668H634v-5.67z"/>
    </g>
    <path fill-rule="evenodd" d="M10.62 12.67a.538.538 0 1 1 1.076 0 .538.538 0 0 1-1.076 0m-.474 3.559.32-2.03.683-.191.66.183.343 2.038z"/>
    <path d="M11.17 3.614q.11 0 .373.101.263.093.333.163.008.062.008.116 0 .132-.054.186l-.016.706q.225 0 .916-.294.077.023.387.023.117 0 .21.077.093.07.085.179v.015q-.124.124-.31.148-.179.023-.35.038-.821.101-.922.148-.078.077-.078.419 0 .07-.1.364l.162.008 1.567-.248q.186-.031.489.093.263.108.434.263l.015.303q-.186.124-.325.124-.101 0-.466-.1-.356-.102-.55-.102-1.125 0-1.66.264.147.031.295.07.147.031.178.202-.085.325-.085.566l-.024.279q.008-.046.024.14l.015.279q.016.163.093.248l.644-.636-.108-.155q.03-.17.31-.17.062.054.232.061l.249.016-.613-.683q1.094.179 1.559.66v.03q.007.101-.085.195-.117.108-.132.155h-.04q-.069.007-.208-.063-.14-.077-.194-.077l-.078.186q-.217.054-.465.287-.187.194-.38.388-.132.085-.388.295-.132.147-.396.41-.116.11-.434.334-.21.179-.636.489-.28.17-.473.264-.155.046-.45.17-.17.093-.333.186-.225.109-.365.109-.054 0-.17-.031l-.218.054-.147-.039q1.202-.558 2.707-1.869-.117-.256-.295-.419l-.341-.34q.248-.07.636-.195.007-.07.007-.132t-.023-.186q-.016-.132-.016-.201 0-.365-.053-.481-.047-.124-.327-.334-.046 0-.713.124-.473.093-.69.163-.45.132-.62.326l-.226.085q-.209-.085-.372-.294-.155-.21-.163-.427l.24.016q.187.131.233.131.016 0 1.513-.387l.155-.11q-.109-.045-.109-.17 0-.039.008-.124.016-.093.016-.132 0-.799-.249-.923l.04-.023.007-.031-.031-.054.217-.024q.039.047.326.109.24.047.279.233-.031.325-.155 1.062.403 0 .752-.14l-.124-.325.046-1.086q-.03-.077-.038-.28 0-.2-.031-.255-.093-.132-.256-.372.015-.148.325-.148M9.472 7.252q.085 0 .116.07.016.03.078.294.062.256.062.295 0 .256-.109.473-.124.24-.333.334-.24-.14-.24-.396 0-.186.217-.52.217-.333.21-.55z"/>
</svg>
