<svg xmlns="http://www.w3.org/2000/svg" viewBox="0 0 22 22">
    <defs>
        <filter id="0GI_svg__a" color-interpolation-filters="sRGB">
            <feGaussianBlur in="SourceAlpha" result="blur" stdDeviation="1"/>
            <feOffset dx="5" dy="3" in="blur" result="offset"/>
            <feFlood flood-color="#000" flood-opacity=".5"/>
            <feComposite in2="offset" operator="in"/>
            <feComposite in="SourceGraphic"/>
        </filter>
    </defs>
    <g stroke-width=".435" filter="url(#0GI_svg__a)" transform="translate(-85.668 -1.947)scale(.26458)">
        <path fill="#fee572" d="m365.292 8.535-20.027 6.098-10.682 63.589H396L385.331 14.71z"/>
        <path fill="#c3983c" d="M334.583 78.222v5.668H396v-5.668z"/>
    </g>
    <path fill-rule="evenodd" d="M13.103 11.61a.596.596 0 1 1 1.192 0 .596.596 0 0 1-1.192 0m-5.476 0a.596.596 0 1 1 1.192 0 .596.596 0 0 1-1.192 0m2.722 0a.596.596 0 1 1 1.192 0 .596.596 0 0 1-1.192 0m2.754 5.518c0-.33.267-.594.596-.594a.594.594 0 1 1 0 1.19.596.596 0 0 1-.596-.596m-5.476 0c0-.33.266-.594.596-.594a.594.594 0 1 1 0 1.19.596.596 0 0 1-.596-.596m2.333-1.775.318-2.03.684-.191.659.183.342 2.038z"/>
    <path d="M9.186 2.767q.09-.027.32.071.196.071.312.151-.01.027-.01.036.01.026.063.142.053.106.053.169l-.009.053q-.453.187-.649.809.782.018 1.2.338l.08.373-.044.15h-.054q-.337.01-.71-.221-.32-.205-.632-.41-.364.339-.728 1.192h.044q.249.009.658-.231.409-.249.63-.249.054 0 .108.009l.177.195v.16q-.23.054-.524.205-.24.133-.489.275l.409.231.08.187q.266-.08.64-.08.053 0 .124.018.054.08.098.16.07.106.07.169 0 .026-.008.07-.16.072-.524.116t-.525.134v1.208q.4-.373.49-.649l-.08-.195.834.044.116.462-.915.4q-.063-.026-.125-.026-.186 0-.338.186v.454q.427-.213.81-.213.053 0 .124.008.089.054.204.25-.204.204-.613.363l-.658.258q-.23.125-.693.347-.196.053-.578.204-.257.125-.337.356l-.223-.098q-.142-.204-.142-.498 0-.133.027-.266l.195.044q.311-.062.756-.266.542-.24.738-.303l-.063-.613q0-.16.027-.489.036-.328.036-.488l-.071-.294q-.765.187-.97.418-.186-.071-.55-.338.31-.062.773-.284.56-.276.755-.338.018-.044.018-.089 0-.106-.169-.284-.16-.178-.16-.214 0-.026.027-.062l-.382-.178-.48.516q-.089.151-.302.427-.178.195-.4.275-.054.134-.222.249-.16.116-.303.107h-.009Q8.29 5.14 8.938 3.176L8.635 2.9l.018-.053h.018q.027 0 .08.027.053.017.071.017zm4.737.569q.09.204.09.39 0 .054-.01.116l-.195.125q-.036.302-.062.595-.053.338-.125.569-.08.169-.195.596.267.088.782.31l.098.178q-.134.213-.56.294-.125.08-.347.24-.089.07-.222.257-.124.187-.222.267.302.693 1.04 1.289.47.373 1.395.897l.053.205q-.106.106-.293.16-.249.062-.311.089l-.187-.036-.302.107-.4-.036q-.622-.506-1.03-1.182-.303.16-.863.747-.169.142-.48.444-.186.196-.186.507l-.25.089-.346-.347-.036-.382L11 7.94q-.008-.09-.017-.276.026-.356.124-2.604 0-.036-.009-.116t-.009-.115q0-.4-.133-.649-.044-.098-.24-.311-.133-.142-.133-.302l.4.142q.364-.08 1.093-.249.204-.053.427-.133.133-.062.417-.187.08-.035.258-.035.195 0 .746.23m-2.568.712q.098.07.133.266.045.196.107.267.267-.053.729-.213.489-.17.72-.223l-.018-.48q-1.102.08-1.67.383m1.154.729q-.106 0-.32.026-.204.018-.32.018-.186 0-.337.124l-.098.622q0 .072.027.196.035.027.07.044.659-.222 1.423-.613l.008-.417zm-.426 1.181V6.1l.569.808.284-.31q.213-.223.187-.356l-.054-.285h.196l.124-.168-.266-.08zm-.65.187q-.079.818-.194 1.316l.035.16-.035.577.106.09q.445-.268.89-.81-.143-.257-.259-.693-.107-.364-.204-.729zM8.423 8.588l-.169.605q-.107-.027-.258-.134v-.053q.01-.07-.062-.213.063-.693.063-.614 0-.177-.187-.382.31.063.417.196.08.089.107.276.027.222.089.32m4.026-.676q-.16.08-.453.267-.311.213-.462.284-.134-.062-.17-.062-.044 0-.062.009-.07.07-.07.488l.044.418q.649-.266 1.511-.835-.071-.151-.142-.311-.107-.205-.196-.258"/>
</svg>
