<svg xmlns="http://www.w3.org/2000/svg" viewBox="0 0 100 100">
    <g filter="drop-shadow(6px 3px 1px rgba(0,0,0,0.5))">
        <path fill="#fee572" d="M49.909 0 22.791 8.89l-12.655 80.6h79.546l-12.65-80.6z"/>
        <path fill="#c3983c" d="M10.136 89.49v6.819h79.546v-6.818z"/>
        <path d="M59.64 70.39a2.705 2.705 0 1 1 5.41 0 2.71 2.71 0 0 1-5.41 0m-24.904 0a2.71 2.71 0 1 1 5.419 0 2.71 2.71 0 0 1-5.419 0m24.905-12.317a2.705 2.705 0 1 1 5.409 0 2.71 2.71 0 0 1-5.41 0m-24.904 0a2.71 2.71 0 1 1 5.419 0 2.71 2.71 0 0 1-5.419 0m12.378 0a2.71 2.71 0 1 1 5.418.004 2.71 2.71 0 0 1-5.418 0zM59.64 83.159a2.705 2.705 0 1 1 5.409 0 2.71 2.71 0 0 1-5.41 0m-24.904 0a2.71 2.71 0 1 1 5.419 0 2.71 2.71 0 0 1-5.419 0m12.378 0a2.71 2.71 0 1 1 5.413 0 2.71 2.71 0 0 1-5.413 0m-1.887-7.495 1.455-9.223 3.1-.873 3 .832 1.559 9.264zm14.556-66.9q3.227 0 4.49.704l.86 2.018Q64.677 12.7 63.818 13q-1.159.455-3.736.91l-3.837.708q-3.836 1.11-11.559 2.677-1.409.405-4.24 1.01-4.341-2.073-5.755-4.696l4.545.86q2.273 0 9.541-2.174 3.682-1.059 8.327-2.622 1.314-.455 2.678-.91M45.9 17.75l1.009.555 2.273-.555q1.863.3 2.368.455 1.364.4 1.973 1.363v1.01q-1.319.854-1.319 2.977-.454.554-.454 1.009 0 .354.254.759 3.137-.66 3.687-.66 3.686 0 4.845 3.182-.2 2.019-2.168 2.019-.554 0-1.718-.205-1.16-.2-1.714-.2l-2.982.605q-.2 2.122-.2 5.1 0 3.081.2 7.018 2.323-.41 4.696-.81 2.927-.454 4.645-.454 4.546 0 9.391 3.132.91 1.159 1.21 3.077-.555.05-1.11.71-.759.804-1.009.954-1.463-.25-6.009-1.664-3.682-1.159-5.954-1.159-5.505 0-11.564 1.16-7.823 1.517-10.445 4.14h-.41q-1.309.1-2.672-1.514-1.364-1.568-2.068-1.618l-.05-.704.654-.91.705.155 14.84-3.59q.105-3.932.105-7.419l-.255-3.786q-3.077.254-3.331.254-2.168 0-5.25-2.222l8.581-2.473.255-4.136-.205-2.728q-1.363-.959-1.463-2.477zm19.182 16q1.668 0 4.44 1.464l1.869 2.122v1.26l-.81 1.213q-.3.05-.604.05-2.118 0-4.39-2.273-3.228-3.431-3.637-3.681 2.982-.155 3.132-.155"/>
    </g>
</svg>
