<svg xmlns="http://www.w3.org/2000/svg" viewBox="0 0 22 22">
    <defs>
        <filter id="0GY_svg__a" color-interpolation-filters="sRGB">
            <feGaussianBlur in="SourceAlpha" result="blur" stdDeviation="1"/>
            <feOffset dx="5" dy="3" in="blur" result="offset"/>
            <feFlood flood-color="#000" flood-opacity=".5"/>
            <feComposite in2="offset" operator="in"/>
            <feComposite in="SourceGraphic"/>
        </filter>
    </defs>
    <g stroke-width=".435" filter="url(#0GY_svg__a)" transform="translate(.643 -1.037)scale(.26458)">
        <path fill="#fee572" d="M39.071 3.92 16.52 11.313 6 78.331h66.142l-10.52-67.018z"/>
        <path fill="#c3983c" d="M6 78.331V84h66.142v-5.669z"/>
    </g>
    <path fill-rule="evenodd" d="M13.121 15.486a.594.594 0 1 1 1.19 0 .596.596 0 0 1-1.19 0m-5.479 0a.596.596 0 1 1 1.192 0 .596.596 0 0 1-1.192 0m5.479-2.71a.594.594 0 1 1 1.19 0 .596.596 0 0 1-1.19 0m-5.479 0a.596.596 0 1 1 1.192 0 .596.596 0 0 1-1.192 0m2.723 0a.596.596 0 1 1 1.192.001.596.596 0 0 1-1.192 0zm2.756 5.519a.594.594 0 1 1 1.19 0 .596.596 0 0 1-1.19 0m-5.479 0a.596.596 0 1 1 1.192 0 .596.596 0 0 1-1.192 0m2.723 0a.596.596 0 1 1 1.191 0 .596.596 0 0 1-1.191 0m-.415-1.649.32-2.029.682-.192.66.183.343 2.038z"/>
    <path d="M13.152 1.928q.71 0 .988.155l.189.444q-.1.267-.289.333-.255.1-.822.2l-.844.156q-.844.244-2.543.589-.31.089-.933.222-.955-.456-1.266-1.033l1 .189q.5 0 2.099-.478.81-.233 1.832-.577.289-.1.589-.2m-3.054 1.977.222.122.5-.122q.41.066.521.1.3.088.434.3v.222q-.29.188-.29.655-.1.122-.1.222 0 .078.056.167.69-.145.811-.145.811 0 1.066.7-.044.444-.477.444-.122 0-.378-.045-.255-.044-.377-.044l-.656.133q-.044.467-.044 1.122 0 .678.044 1.544.511-.09 1.033-.178.644-.1 1.022-.1 1 0 2.066.689.2.255.266.677-.122.011-.244.156-.167.177-.222.21-.322-.055-1.322-.366-.81-.255-1.31-.255-1.211 0-2.544.255-1.721.334-2.298.911h-.09q-.288.022-.588-.333-.3-.345-.455-.356l-.011-.155.144-.2.155.034 3.265-.79q.023-.865.023-1.632l-.056-.833q-.677.056-.733.056-.477 0-1.155-.489l1.888-.544.056-.91-.045-.6q-.3-.211-.322-.545zm4.22 3.52q.367 0 .977.322l.411.467v.277l-.178.267q-.066.011-.133.011-.466 0-.966-.5-.71-.755-.8-.81.656-.034.689-.034"/>
</svg>
