<svg xmlns="http://www.w3.org/2000/svg" viewBox="0 0 22 22">
    <defs>
        <filter id="0KA_svg__a" color-interpolation-filters="sRGB">
            <feGaussianBlur in="SourceAlpha" result="blur" stdDeviation="1"/>
            <feOffset dx="5" dy="3" in="blur" result="offset"/>
            <feFlood flood-color="#000" flood-opacity=".5"/>
            <feComposite in2="offset" operator="in"/>
            <feComposite in="SourceGraphic"/>
        </filter>
    </defs>
    <g stroke-width=".435" filter="url(#0KA_svg__a)" transform="translate(-41.977 -1.947)scale(.26458)">
        <path fill="#fee572" d="m200.156 8-21.702 7.118-10.187 64.931h63.779l-10.189-64.93z"/>
        <path fill="#c3983c" d="M168.267 80.05v5.668h63.779v-5.67z"/>
    </g>
    <path fill-rule="evenodd" d="m10.235 15.541.22-1.394.469-.131.452.124.236 1.401z"/>
    <path d="m10.922 13.927-.022.004-.469.13a.09.09 0 0 0-.063.072l-.22 1.395a.088.088 0 0 0 .087.102h1.377a.088.088 0 0 0 .087-.103l-.236-1.401a.09.09 0 0 0-.064-.07l-.452-.125zm.002.18.374.103.21 1.243h-1.17l.195-1.237zm3.051-2.937-1.838 1.838.655.655 1.838-1.838zm-4.873 4.876-1.797 1.838.662.647 1.797-1.837zm-1.136-4.873-.66.65L9.11 13.66l.66-.649zm4.826 4.869-.655.655 1.838 1.838.655-.655zm1.44-10.374q-.027.09-.227.263-.19.164-.245.255-.027.236-.027.545 0 .463.064 1.39.072.917.072 1.38 0 .291-.036.636-.036.046-.263.573-.164.372-.391.454-.282-.064-.527-.309-.145-.2-.454-.572-.218-.21-.436-.427-.282-.282-.291-.5.518.227.936.227.163 0 .309-.036.009-.29.009-.572t-.01-.573q-.617-.29-1.208-.29-1.308 0-2.598.654l-.154-.046Q8.69 9.956 8.5 10.4q-.081.192-.3.382-.408-.036-.408-.826 0-.191.19-1.417.191-1.236.182-2.017v-.237l-.29-.472.036-.082.363.064q1.072-.227 1.663-.581.627-.373 1.29-1.209-.127-.109-.282-.317-1.653 1.353-2.28 1.417-.281.027-.672.027-.373 0-.536-.136 1.59-.627 2.789-2.09.018-.064.018-.127 0-.1-.036-.2l.063-.082q.164-.054.309-.054.236 0 .59.182.364.181.455.381l-.2.273q.136.09.645.09.245 0 .681.464-.018.327-.173.418-.163.054-.463.163-.49.21-.681.564.318-.082.627-.164.39-.09.636-.09.163 0 .608.217.382.182.59.327.219.145.319.4zm-1.498.472v-.48q-.073-.173-.373-.173-.408 0-1.208.2.236.164.2.336.381-.082.5-.082.39 0 .88.2m-.045 1.345q-.009-.545 0-.972-.127.172-.418.209h-.69q-.254 0-.4.136l-.027.554q.381-.1.827-.1.417 0 .708.173m-2.316-1.163q0-.082-.11-.209-.1-.127-.117-.2-.782.318-1.272.445l.018.382h.045q.337.018 1.427-.345.009-.046.009-.073m.036 1.19V7.04q-.227.064-.454.119-.29.09-.427.19-.318-.172-.663-.436 0 .527-.055 1.081.836-.227 1.6-.48"/>
</svg>
