<svg xmlns="http://www.w3.org/2000/svg" viewBox="0 0 22 22">
    <defs>
        <filter id="0KE_svg__a" color-interpolation-filters="sRGB">
            <feGaussianBlur in="SourceAlpha" result="blur" stdDeviation="1"/>
            <feOffset dx="5" dy="3" in="blur" result="offset"/>
            <feFlood flood-color="#000" flood-opacity=".5"/>
            <feComposite in2="offset" operator="in"/>
            <feComposite in="SourceGraphic"/>
        </filter>
    </defs>
    <g stroke-width=".435" filter="url(#0KE_svg__a)" transform="translate(-107.147 -1.418)scale(.26458)">
        <path fill="#fee572" d="m446.474 8-19.258 5.892-10.271 61.433H476l-10.259-61.359z"/>
        <path fill="#c3983c" d="M416.945 75.325v5.668H476v-5.669z"/>
    </g>
    <path d="M11.16 13.008a.87.87 0 0 0-.864.865c0 .475.391.863.865.863.473 0 .862-.39.862-.863a.87.87 0 0 0-.862-.865zm0 .53a.33.33 0 0 1 .334.335c0 .19-.144.334-.333.334a.33.33 0 0 1-.336-.334c0-.188.147-.335.336-.335z"/>
    <path fill-rule="evenodd" d="M13.332 11.147a.599.599 0 1 1 1.197.001.599.599 0 0 1-1.197-.001m-5.512 0a.599.599 0 1 1 1.198.001.599.599 0 0 1-1.197-.001z"/>
    <path d="M11.16 10.284a.87.87 0 0 0-.864.863c0 .474.39.865.865.865a.87.87 0 0 0 .862-.865.867.867 0 0 0-.862-.863zm0 .53c.19 0 .334.143.334.333a.33.33 0 0 1-.333.336.33.33 0 0 1-.336-.336.33.33 0 0 1 .336-.334z"/>
    <path fill-rule="evenodd" d="m10.145 17.717.32-2.03.683-.191.658.183.344 2.038z"/>
    <path d="M12.583 2.479q.107.053.418.08.267.017.401.15l-.045.232q-.151.053-.16.178v.231l-.089.258.045.125.347-.063q.089.027.329.036.24 0 .391.16.018.044.018.09 0 .115-.205.328-.009 0-.32.098-.178.053-.293.169l-.338.134-.045.622q.116.027.25.027.302 0 .542-.08.756.089 1.12.364v.25l-.489.062q-.062.008-.275-.08-.205-.09-.33-.09-.053 0-.106.018-.09-.035-.17-.035-.373 0-1.102.169-.027.008-.454.169-.427.16-.462.178-.152.08-.214.195l-.338-.098q-.027-.097-.133-.16-.098-.062-.098-.124 0-.009.009-.036l.151.01q.267-.125.774-.276.551-.17.782-.267l-.026-.142.062-.374-.81-.214-.248-.24q.631-.115 1.058-.32 0-.089.027-.293.026-.214.026-.312l-.044-.613q-.222-.098-.356-.285zm-2.926.284q.267.107.534.205.276.133.329.436-.231.044-.267.275v.445q0 .044-.018.125-.017.08-.017.124 0 .125.115.205.027 0 .116-.01.062-.008.107-.008.196 0 .293.178l-.044.204q-.205.116-.41.223-.284.151-.275.31.017.241.017.188l-.08.365.036.222q.347.124.694.258.356.195.373.587l-.178.222q-.115.009-.31-.027-.01 0-.205-.15-.187-.16-.205-.188-.035-.07-.142-.204l-.045.115.01.347-.063.374.036.151-.036.187.053.302-.035.187.053.338q0 .036-.018.107-.017.062-.017.098l.035.204-.053.196.08.213-.16.365-.196-.009q-.134-.133-.196-.374-.089-.328-.124-.409l.115-1.618-.017-.312q-.196.027-.383.294-.133.205-.267.418-.213.275-.684.534-.588.302-.747.444l-.125-.035-.418.044-.178-.053q.383-.294 1.13-.916.373-.32.836-1.023.471-.712.595-1.174-.587.106-.773.409-.16 0-.347-.17-.25-.212-.303-.24l-.16-.39q.063-.027.134-.027.16 0 .373.142.294-.062.685-.275.498-.285.65-.348l.08-1.093-.036-.427q-.187-.063-.383-.392l-.008-.044q.204.009.15.009.16 0 .294-.134m2.926 3.389.614.231q.036.125.036.151 0 .072-.063.187-.053.107-.053.17 0 .053.045.124l.178-.009q.693-.036.835.213l-.008.17q-.116.097-.41.16-.337.062-.444.115-.205.107-.205.356 0 .053.018.16.027.107.027.16l-.045.275.134.054.373-.071q.063-.134.285-.134l.293.071q.267.063.552.125.311.089.498.25l.053.23-.098.232-.169.053q-.186-.027-.756-.187-.471-.133-.747-.133-.382 0-.987.098-.676.098-.952.222-.275.116-.427.347-.133-.054-.24-.231-.097-.17-.169-.187v-.196l.125.045q.275-.107.756-.24.551-.143.765-.214v-.756q-.08-.027-.516-.044-.32-.018-.49-.187.765-.24 1.14-.445.017-.258.017-.516 0-.062-.009-.115l-.311-.24q.026-.045.07-.134l-.008-.027z"/>
</svg>
