<svg xmlns="http://www.w3.org/2000/svg" viewBox="0 0 22 22">
    <defs>
        <filter id="0KI_svg__a" color-interpolation-filters="sRGB">
            <feGaussianBlur in="SourceAlpha" result="blur" stdDeviation="1"/>
            <feOffset dx="5" dy="3" in="blur" result="offset"/>
            <feFlood flood-color="#000" flood-opacity=".5"/>
            <feComposite in2="offset" operator="in"/>
            <feComposite in="SourceGraphic"/>
        </filter>
    </defs>
    <g stroke-width=".435" filter="url(#0KI_svg__a)" transform="translate(-63.819 -1.947)scale(.26458)">
        <path fill="#fee572" d="m282.71 8-20.035 6.138L252 77.687h61.417l-10.675-63.55z"/>
        <path fill="#c3983c" d="M252 77.687v5.668h61.417v-5.668z"/>
    </g>
    <path fill-rule="evenodd" d="m10.265 14.923.215-1.36.456-.13.444.123.23 1.367zm2.84-.745a.596.596 0 1 1 1.191 0 .596.596 0 0 1-1.19 0zm-5.478 0a.596.596 0 1 1 1.192 0 .596.596 0 0 1-1.192 0m5.478-2.709a.596.596 0 1 1 1.191-.001.596.596 0 0 1-1.19.001zm-5.478 0a.596.596 0 1 1 1.192 0 .596.596 0 0 1-1.192 0m2.722 0a.596.596 0 1 1 1.192 0 .596.596 0 0 1-1.192 0m0 5.517c0-.329.267-.593.596-.593a.594.594 0 1 1 0 1.19.596.596 0 0 1-.596-.597"/>
    <path fill-rule="evenodd" d="m9.96 15.211.32-2.03.682-.19.659.182.344 2.038z"/>
    <path d="M10.663 2.297a.45.45 0 0 0-.197.06h-.002a1 1 0 0 1-.116.056 2 2 0 0 0-.196.009c-.1.006-.182.04-.226.109a.06.06 0 0 0 0 .064l.303.497q-.45 1.045-1.438 2.367Q7.71 6.895 6.87 7.444a.062.062 0 0 0 .004.106q.09.05.181.052c.108 0 .232-.07.413-.195q.27-.188.693-.557h.001c.075-.032.157-.094.268-.195q.18-.165.448-.46c.383-.433.618-.677.728-.77q.153.188.415.302c.03.084.095.194.21.363l.001.002c.103.142.148.258.148.337 0 .037-.01.078-.02.119l-1.595.386-.204-.074a.1.1 0 0 0-.033-.003l-.045.01a.06.06 0 0 0-.05.06v.045l.003.02q.072.215.142.317l.002.003.195.249a.06.06 0 0 0 .039.023l.267.044a.06.06 0 0 0 .067-.039.3.3 0 0 1 .194-.186 7 7 0 0 1 .348-.087l.012-.004q.14-.061.29-.123h.002q.15-.058.268-.057l.034.003c.03.213.045.533.04.974-.006.438.016.767.064 1.01l-2.039.473-.155-.033h-.025l-.119.025-.234-.068a.062.062 0 0 0-.078.067q.047.374.337.851a.06.06 0 0 0 .039.028l.195.045a.06.06 0 0 0 .037-.004.54.54 0 0 0 .297-.252 8 8 0 0 1 1.033-.294l.008-.003q.408-.132.51-.158a6 6 0 0 1 .515-.061l.015-.003c.229-.07.386-.104.443-.104q.124 0 .343.043c.19.042.309.066.37.073h.003l.415.027c.082.01.264.062.528.156q.32.11.599.11h.003l.178-.01a.06.06 0 0 0 .036-.013.46.46 0 0 0 .182-.358.43.43 0 0 0-.142-.302 1.4 1.4 0 0 0-.39-.252q-.425-.21-.75-.192h-.001l-1.47.07-.06-.022c.007-.006.006-.013.015-.02a.4.4 0 0 1 .142-.048h.002a2 2 0 0 0 .208-.05.3.3 0 0 0 .093-.048h.001c.186-.032.44-.142.774-.327h.001q.23-.133.37-.198a.7.7 0 0 1 .176-.061q.054 0 .108.016a.062.062 0 0 0 .078-.05 1 1 0 0 0 .01-.107c0-.12-.057-.233-.159-.332s-.248-.185-.439-.267l-.022-.005-.675-.027a.062.062 0 0 0-.057.09l.127.248c-.114.27-.366.556-.752.848l-.032-.16q0-.018.008-.065a1 1 0 0 0 .01-.09.5.5 0 0 0-.02-.122.5.5 0 0 1-.016-.092q0-.033.017-.12a1 1 0 0 0 .019-.147q0-.181.004-.286a1 1 0 0 1 .011-.123.1.1 0 0 0 .001-.03l-.03-.139.135-.262.677-.084.614.105a.1.1 0 0 0 .032-.003l.266-.098a.06.06 0 0 0 .04-.048q.01-.066.01-.125a.4.4 0 0 0-.155-.322.52.52 0 0 0-.343-.13v.123h-.004l-.007-.001-.008-.002-.016-.01-.023-.036.009-.047.015-.016.008-.004.01-.004c.006-.002.002-.001-.001 0l-.046.006-.209.026c-.184.023-.475.059-.853.104l-.063-.059.082-.2.004-.023a.57.57 0 0 0-.178-.408l-.023-.015c-.027-.01-.045-.009-.069-.015.099-.03.198-.063.445-.124.231-.06.418-.13.572-.207a58 58 0 0 1 .735.853l.003.003q.475.495.933.715a.06.06 0 0 0 .039.005 1 1 0 0 1 .308 0c.173.024.275.036.328.036q.062 0 .17-.018.114-.017.159-.017.32 0 .445-.018a.1.1 0 0 0 .03-.014l.187-.16a.06.06 0 0 0 .021-.058l-.053-.302a.06.06 0 0 0-.021-.037q-.279-.23-.799-.436-.604-.25-.798-.377L13.6 5.54q-.32-.19-.672-.532a85 85 0 0 1-.595-.621l-.002-.002a32 32 0 0 0-1.217-1.109.7.7 0 0 0 .236-.11.35.35 0 0 0 .129-.274l-.001-.012-.027-.142a.06.06 0 0 0-.025-.039q-.277-.196-.464-.297c-.125-.067-.218-.105-.3-.105m.01 1.426a32 32 0 0 1 .682.985l-.017-.002c-.128 0-.307.06-.559.174l-.384.178-.151.068a10 10 0 0 1-.423.125l-.096-.065zM8.907 7.754a.062.062 0 0 0-.059.088c.033.07.087.302.146.668.043.293.143.509.309.635a.06.06 0 0 0 .065.006.43.43 0 0 1 .272-.048.06.06 0 0 0 .065-.032q.132-.247.123-.57v-.098l-.005-.025a.83.83 0 0 0-.393-.404l-.004-.002-.497-.213z"/>
</svg>
