<svg xmlns="http://www.w3.org/2000/svg" viewBox="0 0 22 22">
    <defs>
        <filter id="0KY_svg__a" color-interpolation-filters="sRGB">
            <feGaussianBlur in="SourceAlpha" result="blur" stdDeviation="1"/>
            <feOffset dx="5" dy="3" in="blur" result="offset"/>
            <feFlood flood-color="#000" flood-opacity=".5"/>
            <feComposite in2="offset" operator="in"/>
            <feComposite in="SourceGraphic"/>
        </filter>
    </defs>
    <g stroke-width=".435" filter="url(#0KY_svg__a)" transform="translate(-128.409 -1.418)scale(.26458)">
        <path fill="#fee572" d="m526.835 8-17.83 5.92-9.336 60.222H554l-9.335-60.223z"/>
        <path fill="#c3983c" d="M499.67 74.142v5.668H554v-5.669z"/>
    </g>
    <path fill-rule="evenodd" d="m10.083 17.363.273-1.732.581-.164.564.155.292 1.741z"/>
    <path d="M10.474 11.598v3.05h.926v-3.05z"/>
    <path fill-rule="evenodd" d="m9.999 17.63.32-2.027.683-.194.658.183.342 2.038z"/>
    <path d="m11.125 2.707.32.063.17-.063q.204.036.355.187t.151.356q0 .284-.213.364-.178.036-.516.116-.169.053-.533.24-.427.213-.48.32l.453.169q.063.15.293.408.845-.266 1.822-.266.312 0 .525.204.222.205.222.516l-.027.124-.382.107-.533-.107q-.347-.062-.551-.062-.231 0-.41.062.97 1.04 2.054 1.538.374.177.756.346.426.196.71.418l.107.204q-.142.142-.284.205l-.196-.045-.364.08-.489-.044-.178.08q-.613-.071-1.102-.569v.133q-.07.071-.142.151-.071.072-.071.187 0 .062.036.142 0 .214.008.596.01.417.01.586 0 .987-.472 1.173l-.16-.035-.142-.276q-.062-.026-.604-.124-.054.009-.738.098-.462.062-.738.16-.213.124-.64.355-.195-.16-.32-.417.16-.871.16-2.116 0-.533-.24-.613-.213.133-.213.293-.204.24-.4.49-.266.328-.453.452-.382.24-.569.24L6.7 9.125q.586-.417 1.413-1.475.72-.924 1.146-1.715-.8 0-1.173.453-.044.01-.098.01-.293 0-.409-.303-.053-.125-.115-.57.249.036.586.125.72-.168 1.076-.266.764-.205 1.04-.356-.054-.32-.32-.693l-.125.045-.142-.045q-.222.062-.258.062-.035 0-.088-.026l-.747-.036q.142-.08 1.147-.613.675-.374 1.093-.72l-.134-.134V2.77l.196.018zm-.133 2.685q-.107.026-.133.23-.018.16-.027.312l.053.133-.08.436.063.16q-.071.026-.09.142-.017.106-.026.196l.054.24.986-.08q.391-.036.685.133-.507-.622-1.485-1.902m-2.16 2.141.427.17q.16-.09.525-.16t.515-.142q-.089-.303-.098-.81t-.062-.72q-.267.036-.444.25-.027.035-.285.453-.018.044-.329.462-.204.258-.248.498zm.534.543.044.773q.489-.036.933-.151l.845-.293h.258q.115 0 .222-.054.035-.426.035-.47 0-.267-.186-.267.106 0-.543.08-1.066.15-1.608.382m.48 1.164-.107-.027q-.284 0-.347.098v.16q0-.044.036.151-.018.196.018.569.258-.035 1.093-.258.667-.169 1.102-.186v-.854l-.107-.044q-.746.124-.853.151-.569.116-.835.24"/>
</svg>
