<svg xmlns="http://www.w3.org/2000/svg" viewBox="0 0 22 22">
    <defs>
        <filter id="0NK_svg__a" color-interpolation-filters="sRGB">
            <feGaussianBlur in="SourceAlpha" result="blur" stdDeviation="1"/>
            <feOffset dx="5" dy="3" in="blur" result="offset"/>
            <feFlood flood-color="#000" flood-opacity=".5"/>
            <feComposite in2="offset" operator="in"/>
            <feComposite in="SourceGraphic"/>
        </filter>
    </defs>
    <g stroke-width=".435" filter="url(#0NK_svg__a)" transform="translate(-107.147 -25.23)scale(.26458)">
        <path fill="#fee572" d="m446.472 98-19.256 5.892-10.271 61.433H476l-10.259-61.359z"/>
        <path fill="#c3983c" d="M416.945 165.325v5.668H476v-5.669z"/>
    </g>
    <path fill="red" fill-rule="evenodd" d="m10.268 15.05.215-1.36.459-.128.44.122.23 1.367zm2.841-.744a.596.596 0 1 1 1.191 0 .596.596 0 0 1-1.191 0m-5.479 0a.596.596 0 1 1 1.191 0 .596.596 0 0 1-1.191 0m5.479-2.71a.596.596 0 1 1 1.191.001.596.596 0 0 1-1.191 0zm-5.479 0a.596.596 0 1 1 1.192.001.596.596 0 0 1-1.192 0zm2.724 0a.596.596 0 1 1 1.192.001.596.596 0 0 1-1.192 0zm0 5.519a.596.596 0 1 1 1.192 0 .596.596 0 0 1-1.192 0"/>
    <path fill="red" fill-rule="evenodd" d="m9.962 15.466.321-2.028.682-.193.659.183.344 2.038z"/>
    <path fill="red" d="M14.348 5.178q0 .08-.053.16-.178.116-.409.178-.222.062-.435.115-.151.063-.445.178-.346.134-.968.294l-.151-.018.55-.516q.347-.338.383-.613-.116-.115-.738-.115-1.146 0-2.035.47-.782.41-1.609 1.343l-.409.48q-.249.284-.444.426-.258-.178-.258-.693 0-.267.391-.791.036-.053.88-1.013.676-.765.853-.978.507-.622.738-1.057-.133-.267-.284-.347.124-.062.24-.125.168-.08.24-.08.426 0 .604.267 0 .418-.356.88-.115.16-.71.791-.445.47-.57.773.854-.542 1.512-.746.702-.223 1.661-.223.33 0 .57.036.293.044.755.347.497.328.497.577m-1.573 4.737q0 .32-.382.32-.053 0-.124-.008-.622-.116-1.138-.116-.756 0-1.76.453-.355-.107-.373-.64l.658-.524q-.027-.027-.56-.302-.436-.222-.436-.4 0-.24.338-.543.276-.248.56-.382.675-.32.738-.355.364-.249.364-.676 0-.088-.018-.177-.284.142-.684.142-.222 0-.436-.053l-.133-.107q.284-.107.587-.444.373-.41.515-.507.09-.062.267-.062.648 0 .986.222v.07q.01.179-.097.321-.098.133-.205.267-.124.23-.142.72.035.053.329.124.302.062.409.187.008.044.008.088 0 .285-.648.96-.756.783-.854.978.507-.151 1.174-.151 1.057 0 1.057.595m-2.24-2.097q-1.03.187-1.315.79.054.17.649.205.409-.15.667-.995"/>
</svg>
