<svg xmlns="http://www.w3.org/2000/svg" viewBox="0 0 22 22">
    <defs>
        <filter id="0OU_svg__a" color-interpolation-filters="sRGB">
            <feGaussianBlur in="SourceAlpha" result="blur" stdDeviation="1"/>
            <feOffset dx="5" dy="3" in="blur" result="offset"/>
            <feFlood flood-color="#000" flood-opacity=".5"/>
            <feComposite in2="offset" operator="in"/>
            <feComposite in="SourceGraphic"/>
        </filter>
    </defs>
    <g stroke-width=".435" filter="url(#0OU_svg__a)" transform="translate(.643 -1.037)scale(.26458)">
        <path fill="#fee572" d="M39.071 3.92 16.52 11.313 6 78.331h66.142l-10.52-67.018z"/>
        <path fill="#c3983c" d="M6 78.331V84h66.142v-5.669z"/>
    </g>
    <path fill-rule="evenodd" d="m9.95 16.369.32-2.027.682-.194.659.183.344 2.038zm3.17-1.11a.596.596 0 1 1 1.191 0 .596.596 0 0 1-1.192 0zm-5.479 0a.596.596 0 1 1 1.192-.001.596.596 0 0 1-1.192 0zm5.479-2.709a.596.596 0 1 1 1.191 0 .596.596 0 0 1-1.192 0zm-5.479 0a.596.596 0 1 1 1.192-.001.596.596 0 0 1-1.192 0zm2.724 0a.596.596 0 1 1 1.192 0 .596.596 0 0 1-1.192 0m2.755 5.517c0-.33.266-.594.595-.594a.594.594 0 1 1 0 1.19.596.596 0 0 1-.596-.596zm-5.479 0c0-.33.267-.594.596-.594a.594.594 0 1 1 0 1.19.596.596 0 0 1-.596-.596m2.724 0a.594.594 0 1 1 1.188 0 .594.594 0 0 1-1.188 0"/>
    <path fill-rule="evenodd" d="m9.92 16.418.32-2.027.682-.193.66.183.343 2.037z"/>
    <path d="m12.389 1.682 1.233.2q.022.056.211.212.19.144.222.333-.155.278-.61.389-.156.033-.756.077-.178.012-.778.145-.589.122-.756.178-.31.1-.533.256.333.155.656.3.355.177.444.555l-.044.211q-.223.011-.29.2-.033.09-.033.378-.01.044-.022.145-.011.088-.011.133l.034.267q.1 0 .433-.034.266-.022.433-.022.734 0 1.111.533v.323l-.244.155-.467-.1q-.133-.033-.633.1-.49.134-.634.256l-.066.267.066.266-.2 1.978q2.29-.089 2.367-.089.356 0 .844.145.5.144.712.322l.311.322q.233.267.233.4 0 .122-.166.256-.167.144-.267.11-1.145-.4-1.334-.455-.8-.233-1.4-.233-1.166 0-2.81.355-.145.023-.401.167-.244.145-.378.178-.378.089-.444.122-.223.1-.278.322l-.411.156q-.278-.056-.556-.378-.266-.322-.433-.378l-.145-.333.078-.055q.045.01.156.044.122.033.178.033.033 0 .889-.266.944-.29 1.244-.367.722-.189 1.278-.234-.222-.444-.222-1.388v-.145q0-.578-.056-.889l-.522.045q-.511-.123-1.423-.512l.245.023q.222 0 1.8-.523.067-2.055.067-1.889 0-.4-.367-.544-.145.033-.555.044-.345 0-.478.056-.59-.256-1.4-.933l.5.055q.41 0 2.278-.522 1.11-.311 2.1-.723"/>
</svg>
