<svg xmlns="http://www.w3.org/2000/svg" viewBox="0 0 22 22">
    <defs>
        <filter id="0UM_svg__a" color-interpolation-filters="sRGB">
            <feGaussianBlur in="SourceAlpha" result="blur" stdDeviation="1"/>
            <feOffset dx="5" dy="3" in="blur" result="offset"/>
            <feFlood flood-color="#000" flood-opacity=".5"/>
            <feComposite in2="offset" operator="in"/>
            <feComposite in="SourceGraphic"/>
        </filter>
    </defs>
    <g stroke-width=".435" filter="url(#0UM_svg__a)" transform="translate(-41.906 -25.759)scale(.26458)">
        <path fill="#fee572" d="m199.892 98-21.089 6.577L168 170.049h63.78l-10.804-65.473z"/>
        <path fill="#c3983c" d="M168 170.05v5.668h63.78v-5.67z"/>
    </g>
    <path fill="red" fill-rule="evenodd" d="m10.478 15.936.215-1.369.46-.13.446.124.232 1.375z"/>
    <path fill="red" d="m11.152 14.35-.022.003-.46.13a.09.09 0 0 0-.064.07l-.215 1.369a.088.088 0 0 0 .087.102h1.353a.088.088 0 0 0 .087-.103l-.232-1.375a.09.09 0 0 0-.063-.07l-.446-.124zm.002.179.367.102.206 1.216h-1.146l.19-1.21z"/>
    <path fill="red" fill-rule="evenodd" d="M13.333 15.186a.6.6 0 1 1 1.2.002.6.6 0 0 1-1.2-.002m-5.511 0a.6.6 0 1 1 1.2.002.6.6 0 0 1-1.2-.002m2.742-2.726a.599.599 0 1 1 1.197-.001.599.599 0 0 1-1.197.001m0 5.552a.598.598 0 1 1 1.199 0 .6.6 0 0 1-1.199 0"/>
    <path fill="red" d="m12.93 14.117-.655-.655 1.754-1.752.655.655zM9.38 16.36l-1.712 1.752.662.647 1.713-1.753zm-1.05-4.647-.661.649 1.721 1.752.66-.649zm4.601 4.642-.654.655 1.754 1.753.654-.655z"/>
    <path fill="red" fill-rule="evenodd" d="m10.174 16.346.321-2.028.682-.192.66.183.343 2.037z"/>
    <path fill="red" d="M10.613 9.378q.063-.146.063-.313.564-.658.96-.658.2 0 .711.293.762.48 1.138.48-.167.25-.46.554-.375.083-.574.083-1.222 0-1.838-.439m-.741-1.2q.323-.074.95-.345.397-.22.637-.669 1.18-.303 2.747-.303-.083 1.034-.49 1.88-.053-.449-.345-.71-.366-.271-.899-.271-.94 0-1.347.428-.501.271-.877.386-.22-.292-.376-.397zM9.527 5.2q.01-.502.084-1.013.595.219.814.219.199 0 .345-.02l-.773.553.93-.293v.324q-.71.146-1.4.23m-.052-2.11q.376.094.553.094.199 0 .7-.073-.042.125-.042.177 0 .105.24.188v.22q-.7.198-1.274.198-.02-.47-.177-.804m-.021 3.676q0-.219.042-1.159.658.23.814.23.167 0 .376-.032-.386.293-.97.648.469-.052 1.21-.366l-.041.418q-1.17.25-1.431.261m-1.765 2.11q-.125-.543-.25-.543-.272 0-.387.272-.199.449-.199.741 0 .491.261.752.429.334.794.334.397 0 .554-.71.167-.376.355-.783.146-.167.282-.167.177 0 .397.407.323.45.679.45.177 0 .313-.126.69.908 1.849 1.504.167.355.48.355.627 0 1.337-.731.637-.71 1.128-2.946.22-.282.22-.47 0-.292-.356-.668-.386-.407-.627-.407-.188 0-.46.031-1.033.042-2.412.198l.052-.626q.554-.24 1.034-.334.429-.094.429-.314 0-.365-.7-.501-.146 0-.731.178l.052-.429q.418-.146.877-.271.408-.115.408-.314 0-.323-.596-.376-.135 0-.637.074 0-.303-.094-.48.888-.105 1.379-.21.418-.125.418-.365 0-.314-.303-.523-.334-.24-.742-.24-.167 0-.501.282-1.588.439-2.6.512-.345-.115-.429-.115-.146 0-.146.115 0 .063.042.167-.418 0-.418.178 0 .146.261.376 0 .564-.157 1.744-.135.96-.146 1.723 0 .418.167.815.282.438.606.438.292 0 .439-.417.23.083.793.083-.313.314-.741.554-.146-.021-.23-.021-.167 0-.553.449-.533.386-1.003.585z"/>
</svg>
