<svg xmlns="http://www.w3.org/2000/svg" viewBox="0 0 22 22">
    <defs>
        <filter id="1GI_svg__a" color-interpolation-filters="sRGB">
            <feGaussianBlur in="SourceAlpha" result="blur" stdDeviation="1"/>
            <feOffset dx="5" dy="3" in="blur" result="offset"/>
            <feFlood flood-color="#000" flood-opacity=".5"/>
            <feComposite in2="offset" operator="in"/>
            <feComposite in="SourceGraphic"/>
        </filter>
    </defs>
    <g stroke-width=".435" filter="url(#1GI_svg__a)" transform="translate(-85.668 -48.692)scale(.26458)">
        <path fill="#c3983c" d="M345.268 255.189v-3.78l20.023 6.081 20.403-6.081v3.78l-20.403 6.08z"/>
        <path fill="#feec99" d="m365.291 259.49 20.403-6.081L396 189.803h-61.417l10.685 63.606z"/>
        <path fill="url(#1GI_svg__linearGradient29775)" d="m363.944 259.87 1.242 1.66 18.681-5.935-.863-1.63z" transform="matrix(1.10013 0 0 1.05073 -34.8 -13.593)"/>
    </g>
    <path fill-rule="evenodd" d="m11.534 5.323-.215 1.36-.456.13-.444-.124-.23-1.366zM8.696 8.777a.596.596 0 1 1-1.192 0 .596.596 0 0 1 1.192 0m5.476 0a.596.596 0 1 1-1.192 0 .596.596 0 0 1 1.192 0m-2.722 0a.596.596 0 1 1-1.192 0 .596.596 0 0 1 1.192 0M8.696 3.26a.594.594 0 0 1-.596.593.594.594 0 1 1 0-1.19c.329 0 .596.267.596.596zm5.476 0a.594.594 0 0 1-.596.593.594.594 0 1 1 0-1.19c.33 0 .596.267.596.596z"/>
    <path fill-rule="evenodd" d="m11.84 5.035-.319 2.029-.684.191-.659-.183-.342-2.037z"/>
    <path d="M12.613 17.621q-.09.027-.32-.071-.196-.071-.312-.151.01-.027.01-.036-.01-.026-.063-.142-.053-.106-.053-.169l.009-.053q.453-.187.649-.809-.782-.018-1.2-.338l-.08-.373.044-.15h.054q.337-.01.71.221.32.205.632.41.364-.339.728-1.192h-.044q-.249-.009-.658.231-.409.249-.63.249-.054 0-.108-.009l-.177-.195v-.16q.23-.054.524-.205.24-.133.489-.275l-.409-.231-.08-.187q-.266.08-.64.08-.053 0-.124-.018-.054-.08-.098-.16-.07-.106-.07-.169 0-.026.008-.07.16-.072.524-.116t.525-.134v-1.208q-.4.373-.49.649l.08.195-.834-.044-.116-.462.915-.4q.063.026.125.026.186 0 .338-.186v-.454q-.427.213-.81.213-.053 0-.124-.008-.089-.054-.204-.25.204-.204.613-.363l.658-.258q.23-.125.693-.347.196-.053.578-.204.257-.125.337-.356l.223.098q.142.204.142.498 0 .133-.027.266l-.195-.044q-.311.062-.756.266-.542.24-.738.303l.063.613q0 .16-.027.489-.036.328-.036.488l.071.294q.765-.187.97-.418.186.071.55.338-.31.062-.773.284-.56.276-.755.338-.018.044-.018.089 0 .106.169.284.16.178.16.214 0 .026-.027.062l.382.178.48-.516q.089-.151.302-.427.178-.195.4-.275.054-.134.222-.249.16-.116.303-.107h.009q-1.796 2.24-2.445 4.204l.303.276-.018.053h-.018q-.027 0-.08-.027-.053-.017-.071-.017zm-4.737-.569q-.09-.204-.09-.39 0-.054.01-.116l.195-.125q.036-.302.062-.595.053-.338.125-.569.08-.169.195-.596-.267-.088-.782-.31l-.098-.178q.134-.213.56-.294.125-.08.347-.24.089-.07.222-.257.124-.187.222-.267-.302-.693-1.04-1.289-.47-.373-1.395-.897l-.053-.205q.106-.106.293-.16.249-.062.311-.089l.187.036.302-.107.4.036q.622.506 1.03 1.182.303-.16.863-.747.169-.142.48-.444.186-.196.186-.507l.25-.089.346.347.036.382-.24 1.884q.008.09.017.276-.026.356-.124 2.604 0 .036.009.116t.009.115q0 .4.133.649.044.098.24.311.133.142.133.302l-.4-.142q-.364.08-1.093.249-.204.053-.427.133-.133.062-.417.187-.08.035-.258.035-.195 0-.746-.23m2.568-.712q-.098-.07-.133-.266-.045-.196-.107-.267-.267.053-.729.213-.489.17-.72.223l.018.48q1.102-.08 1.67-.383m-1.154-.729q.106 0 .32-.026.204-.018.32-.018.186 0 .337-.124l.098-.622q0-.072-.027-.196-.035-.027-.07-.044-.659.222-1.423.613l-.008.417zm.426-1.181v-.143l-.569-.808-.284.31q-.213.223-.187.356l.054.285h-.196l-.124.168.266.08zm.65-.187q.079-.818.194-1.316l-.035-.16.035-.577-.106-.09q-.445.268-.89.81.143.257.259.693.107.364.204.729zm3.012-2.444.169-.605q.107.027.258.134v.053q-.01.07.062.213-.063.693-.063.614 0 .177.187.382-.31-.063-.417-.196-.08-.089-.107-.276-.027-.222-.089-.32m-4.026.676q.16-.08.453-.267.311-.213.462-.284.134.062.17.062.044 0 .062-.009.07-.07.07-.488l-.044-.418q-.649.266-1.511.835.071.151.142.311.107.205.196.258"/>
</svg>
