<svg xmlns="http://www.w3.org/2000/svg" viewBox="0 0 22 22">
    <defs>
        <filter id="1GY_svg__a" color-interpolation-filters="sRGB">
            <feGaussianBlur in="SourceAlpha" result="blur" stdDeviation="1"/>
            <feOffset dx="5" dy="3" in="blur" result="offset"/>
            <feFlood flood-color="#000" flood-opacity=".5"/>
            <feComposite in2="offset" operator="in"/>
            <feComposite in="SourceGraphic"/>
        </filter>
    </defs>
    <g stroke-width=".435" filter="url(#1GY_svg__a)" transform="translate(.643 -48.79)scale(.26458)">
        <path fill="#c3983c" d="M16.264 256.374v-3.78l22.764 7.626 22.856-7.654v3.78L39.028 264z"/>
        <path fill="#feec99" d="m39.028 262.22 22.856-7.654 10.258-66.757H6l10.264 66.786z"/>
    </g>
    <path fill-rule="evenodd" d="m11.673 4.887-.216 1.36-.456.13-.443-.124-.23-1.366zm-2.841.745a.594.594 0 1 1-1.19 0 .596.596 0 0 1 1.19 0m5.479 0a.596.596 0 1 1-1.191 0 .596.596 0 0 1 1.191 0M8.832 8.341a.594.594 0 1 1-1.19 0 .596.596 0 0 1 1.19 0m5.479 0a.596.596 0 1 1-1.191 0 .596.596 0 0 1 1.191 0m-2.722 0a.596.596 0 1 1-1.192 0 .596.596 0 0 1 1.192 0M8.832 2.823a.594.594 0 1 1-1.19 0 .596.596 0 0 1 1.19 0m5.479 0a.596.596 0 1 1-1.191 0 .596.596 0 0 1 1.191 0m-2.722 0a.596.596 0 1 1-1.192 0 .596.596 0 0 1 1.192 0"/>
    <path fill-rule="evenodd" d="m12.004 4.472-.32 2.028-.683.192-.66-.183-.343-2.037z"/>
    <path d="M8.802 19.19q-.71 0-.988-.155l-.189-.444q.1-.267.289-.333.255-.1.822-.2l.844-.156q.844-.244 2.543-.589.31-.089.933-.222.955.456 1.266 1.033l-1-.189q-.5 0-2.099.478-.81.233-1.832.577-.289.1-.589.2m3.054-1.977-.222-.122-.5.122q-.41-.066-.521-.1-.3-.088-.434-.3v-.222q.29-.188.29-.655.1-.122.1-.222 0-.078-.056-.167-.69.145-.811.145-.811 0-1.066-.7.044-.444.477-.444.122 0 .378.045.255.044.377.044l.656-.133q.044-.467.044-1.122 0-.678-.044-1.544-.511.09-1.033.178-.644.1-1.022.1-1 0-2.066-.689-.2-.255-.266-.677.122-.011.244-.156.167-.177.222-.21.322.055 1.322.366.81.255 1.31.255 1.211 0 2.544-.255 1.721-.334 2.298-.911h.09q.288-.022.588.333.3.345.455.356l.011.155-.144.2-.155-.034-3.265.79q-.023.865-.023 1.632l.056.833q.677-.056.733-.056.477 0 1.155.489l-1.888.544-.056.91.045.6q.3.211.322.545zm-4.22-3.52q-.367 0-.977-.322l-.411-.467v-.277l.178-.267q.066-.011.133-.011.466 0 .966.5.71.755.8.81-.656.034-.689.034"/>
</svg>
