<svg xmlns="http://www.w3.org/2000/svg" viewBox="0 0 100 100">
    <g filter="drop-shadow(6px 3px 1px rgba(0,0,0,0.5))">
        <path fill="#c3983c" d="M22.482 86.55v-4.546l27.377 9.173 27.486-9.204v4.545L49.86 95.723z"/>
        <path fill="#feec99" d="m49.859 93.582 27.486-9.205L89.682 4.095H10.136l12.346 80.319z"/>
        <path d="m53.059 22.214-.982 6.181-2.073.591-2.013-.563-1.046-6.21zM40.145 25.6a2.705 2.705 0 1 1-5.409 0 2.71 2.71 0 0 1 5.41 0m24.904 0a2.71 2.71 0 1 1-5.414 0 2.71 2.71 0 0 1 5.414 0M40.145 37.914a2.705 2.705 0 1 1-5.409 0 2.71 2.71 0 0 1 5.41 0m24.904 0a2.71 2.71 0 1 1-5.414 0 2.71 2.71 0 0 1 5.414 0m-12.373 0a2.71 2.71 0 1 1-5.418 0 2.71 2.71 0 0 1 5.418 0M40.145 12.832a2.705 2.705 0 1 1-5.409 0 2.71 2.71 0 0 1 5.41 0m24.904 0a2.71 2.71 0 1 1-5.414 0 2.71 2.71 0 0 1 5.414 0m-12.373 0a2.71 2.71 0 1 1-5.418 0 2.71 2.71 0 0 1 5.418 0"/>
        <path d="m54.564 20.327-1.455 9.218-3.105.873-3-.832-1.559-9.259zm-14.554 66.9q-3.228 0-4.492-.704l-.859-2.019q.455-1.213 1.314-1.513 1.159-.455 3.736-.91l3.836-.708q3.837-1.11 11.56-2.678 1.409-.404 4.24-1.009 4.341 2.073 5.755 4.696l-4.546-.86q-2.272 0-9.54 2.173-3.682 1.06-8.328 2.623-1.313.455-2.677.91m13.882-8.987-1.01-.555-2.272.555q-1.864-.3-2.368-.455-1.364-.4-1.973-1.363v-1.01q1.318-.854 1.318-2.977.455-.554.455-1.009 0-.354-.255-.759-3.136.66-3.686.66-3.686 0-4.845-3.183.2-2.018 2.168-2.018.554 0 1.718.205 1.159.2 1.714.2l2.981-.605q.2-2.123.2-5.1 0-3.082-.2-7.018-2.322.41-4.695.81-2.927.454-4.646.454-4.545 0-9.39-3.132-.91-1.16-1.21-3.077.555-.05 1.11-.71.759-.804 1.009-.954 1.463.25 6.009 1.664 3.682 1.159 5.954 1.159 5.505 0 11.564-1.16 7.823-1.518 10.445-4.14h.41q1.308-.1 2.672 1.513 1.364 1.568 2.068 1.618l.05.705-.654.91-.705-.155-14.84 3.59q-.105 3.932-.105 7.419l.254 3.786q3.078-.255 3.332-.255 2.168 0 5.25 2.223l-8.582 2.473-.254 4.136.204 2.728q1.364.959 1.464 2.477zm-19.182-16q-1.668 0-4.44-1.464L28.4 58.654v-1.259l.81-1.213q.3-.05.604-.05 2.118 0 4.39 2.272 3.228 3.432 3.637 3.682-2.982.155-3.132.155"/>
    </g>
</svg>
