<svg xmlns="http://www.w3.org/2000/svg" viewBox="0 0 22 22">
    <defs>
        <filter id="1KA_svg__a" color-interpolation-filters="sRGB">
            <feGaussianBlur in="SourceAlpha" result="blur" stdDeviation="1"/>
            <feOffset dx="5" dy="3" in="blur" result="offset"/>
            <feFlood flood-color="#000" flood-opacity=".5"/>
            <feComposite in2="offset" operator="in"/>
            <feComposite in="SourceGraphic"/>
        </filter>
    </defs>
    <g stroke-width=".435" filter="url(#1KA_svg__a)" transform="translate(-41.977 -49.102)scale(.26458)">
        <path fill="#c3983c" d="M178.81 257.202v-3.78l21.346 6.798 21.346-6.798v3.78L200.156 264z"/>
        <path fill="#feec99" d="m200.156 262.22 21.346-6.798 10.544-65.25h-63.78l10.544 65.25z"/>
    </g>
    <path fill-rule="evenodd" d="m11.725 5.433-.22 1.395-.469.131-.452-.125-.236-1.4z"/>
    <path d="m11.038 7.047.022-.003.47-.13a.09.09 0 0 0 .062-.072l.22-1.394a.088.088 0 0 0-.087-.102h-1.377a.088.088 0 0 0-.087.102l.236 1.401a.09.09 0 0 0 .064.07l.452.126.025.003zm-.002-.18-.374-.103-.21-1.242h1.17l-.195 1.236zM7.985 9.804l1.838-1.838-.655-.654L7.33 9.149zm4.873-4.875 1.797-1.838-.662-.648-1.797 1.838zm1.136 4.872.66-.649-1.805-1.837-.66.649zM9.168 4.932l.655-.655L7.985 2.44l-.655.655zm-1.44 10.374q.027-.09.227-.263.19-.164.245-.255.027-.236.027-.545 0-.463-.064-1.39-.072-.917-.072-1.38 0-.291.036-.636.036-.046.263-.573.164-.372.391-.454.282.064.527.309.145.2.454.572.218.21.436.427.282.282.291.5-.518-.227-.936-.227-.163 0-.309.036-.009.29-.009.572t.01.573q.617.29 1.208.29 1.308 0 2.598-.654l.154.046q.064-1.236.255-1.68.081-.192.3-.382.408.036.408.826 0 .191-.19 1.417-.191 1.236-.182 2.017v.237l.29.472-.036.082-.363-.064q-1.072.227-1.663.581-.627.373-1.29 1.209.127.109.282.317 1.653-1.353 2.28-1.417.281-.027.672-.027.373 0 .536.136-1.59.627-2.789 2.09-.018.064-.018.127 0 .1.036.2l-.063.082q-.164.054-.309.054-.236 0-.59-.182-.364-.181-.455-.381l.2-.273q-.136-.09-.645-.09-.245 0-.681-.464.018-.327.173-.418.163-.054.463-.163.49-.21.681-.564-.318.082-.627.164-.39.09-.636.09-.163 0-.608-.217-.382-.182-.59-.327-.219-.145-.319-.4zm1.498-.472v.481q.073.173.373.173.408 0 1.208-.2-.236-.164-.2-.336-.381.082-.5.082-.39 0-.88-.2m.045-1.345q.009.545 0 .972.127-.172.418-.209h.69q.254 0 .4-.136l.027-.554q-.381.1-.827.1-.417 0-.708-.173m2.316 1.163q0 .082.11.209.1.127.117.2.782-.318 1.272-.445l-.018-.382h-.045q-.337-.018-1.427.345-.009.046-.009.073m-.036-1.19v.473q.227-.064.454-.119.29-.09.427-.19.318.172.663.436 0-.527.055-1.081-.836.227-1.6.48"/>
</svg>
