<svg xmlns="http://www.w3.org/2000/svg" viewBox="0 0 22 22">
    <defs>
        <filter id="1KI_svg__a" color-interpolation-filters="sRGB">
            <feGaussianBlur in="SourceAlpha" result="blur" stdDeviation="1"/>
            <feOffset dx="5" dy="3" in="blur" result="offset"/>
            <feFlood flood-color="#000" flood-opacity=".5"/>
            <feComposite in2="offset" operator="in"/>
            <feComposite in="SourceGraphic"/>
        </filter>
    </defs>
    <g stroke-width=".435" filter="url(#1KI_svg__a)" transform="translate(-63.819 -48.885)scale(.26458)">
        <path fill="#c3983c" d="M262.623 255.819v-3.78l20.087 6.181 20.087-6.18v3.78L282.71 262z"/>
        <path fill="#feec99" d="m282.71 260.22 20.087-6.18 10.62-63.506H252l10.623 63.505z"/>
    </g>
    <path fill-rule="evenodd" d="m11.717 5.221-.215 1.36-.456.13-.444-.123-.23-1.367zm-2.841.745a.596.596 0 1 1-1.19 0 .596.596 0 0 1 1.19 0m5.479 0a.596.596 0 1 1-1.192 0 .596.596 0 0 1 1.192 0M8.876 8.675a.596.596 0 1 1-1.19.001.596.596 0 0 1 1.19-.001m5.479 0a.596.596 0 1 1-1.192 0 .596.596 0 0 1 1.192 0m-2.722 0a.596.596 0 1 1-1.192 0 .596.596 0 0 1 1.192 0m0-5.518c0 .33-.267.594-.596.594a.594.594 0 1 1 0-1.19c.33 0 .596.267.596.596"/>
    <path fill-rule="evenodd" d="m12.023 4.933-.321 2.03-.682.19-.659-.182-.344-2.038z"/>
    <path d="M11.319 17.847a.45.45 0 0 0 .197-.06h.002a1 1 0 0 1 .116-.056 2 2 0 0 0 .196-.009c.1-.006.182-.04.226-.109a.06.06 0 0 0 0-.064l-.303-.497q.45-1.046 1.438-2.367 1.082-1.436 1.922-1.985a.062.062 0 0 0-.004-.106.4.4 0 0 0-.181-.052c-.108 0-.232.07-.413.195q-.27.188-.693.557h-.001a1 1 0 0 0-.268.195q-.18.165-.448.46c-.383.433-.618.677-.728.77a1.05 1.05 0 0 0-.415-.302 1.8 1.8 0 0 0-.21-.363l-.001-.002c-.103-.142-.148-.258-.148-.337 0-.037.01-.078.02-.119l1.595-.386.204.074a.1.1 0 0 0 .033.003l.045-.01a.06.06 0 0 0 .05-.06v-.045l-.003-.02a1.3 1.3 0 0 0-.142-.317l-.002-.003-.195-.249a.06.06 0 0 0-.039-.023l-.267-.044a.06.06 0 0 0-.067.039.3.3 0 0 1-.194.186 7 7 0 0 1-.348.087l-.012.004q-.14.061-.29.123h-.002q-.15.058-.268.057l-.034-.003a7 7 0 0 1-.04-.974c.006-.438-.016-.767-.064-1.01l2.039-.473.155.033h.025l.119-.025.234.068a.062.062 0 0 0 .078-.067q-.047-.374-.337-.851a.06.06 0 0 0-.039-.028l-.195-.045a.06.06 0 0 0-.037.004.54.54 0 0 0-.297.252 8 8 0 0 1-1.033.294l-.008.003q-.408.132-.51.158a6 6 0 0 1-.515.061l-.015.003c-.229.07-.386.104-.443.104q-.124 0-.343-.043a5 5 0 0 0-.37-.073h-.003l-.415-.027a3.3 3.3 0 0 1-.528-.156q-.32-.11-.599-.11h-.003l-.178.01a.06.06 0 0 0-.036.013.46.46 0 0 0-.182.358.43.43 0 0 0 .142.302q.136.134.39.252.425.21.75.192h.001l1.47-.07.06.022c-.007.006-.006.013-.015.02a.4.4 0 0 1-.142.048H10.8a2 2 0 0 0-.208.05.3.3 0 0 0-.093.048h.001c-.186.032-.44.142-.774.327h-.001q-.23.133-.37.198a.7.7 0 0 1-.176.061q-.054 0-.108-.016a.062.062 0 0 0-.078.05 1 1 0 0 0-.01.107c0 .12.057.233.159.332s.248.185.439.267l.022.005.675.027a.062.062 0 0 0 .057-.09l-.127-.248c.114-.27.366-.556.752-.848l.032.16q0 .018-.008.065a1 1 0 0 0-.01.09c0 .034.007.072.02.122a.5.5 0 0 1 .016.092 1 1 0 0 1-.017.12 1 1 0 0 0-.019.147q0 .181-.004.286a1 1 0 0 1-.011.123.1.1 0 0 0-.001.03l.03.139-.135.262-.677.084-.614-.105a.1.1 0 0 0-.032.003l-.266.098a.06.06 0 0 0-.04.048q-.01.066-.01.125c0 .127.055.241.155.322q.15.13.343.13v-.123h.004l.007.001.008.002.016.01.023.036-.009.047-.015.016-.008.004-.01.004c-.006.002-.002.001.001 0l.046-.006.209-.026c.184-.023.475-.059.853-.104l.063.059-.082.2-.004.023a.57.57 0 0 0 .178.408l.023.015c.027.01.045.009.069.015-.099.03-.198.063-.445.124-.231.06-.418.13-.572.207a58 58 0 0 1-.735-.853l-.003-.003q-.475-.495-.933-.715a.06.06 0 0 0-.039-.005 1 1 0 0 1-.308 0 3 3 0 0 0-.328-.036q-.062 0-.17.018-.114.017-.159.017-.32 0-.445.018a.1.1 0 0 0-.03.014l-.187.16a.06.06 0 0 0-.021.058l.053.302a.06.06 0 0 0 .021.037q.279.23.799.436.604.25.798.377l.002.002q.32.19.672.532.051.051.595.621l.002.002c.533.505.922.857 1.217 1.109a.7.7 0 0 0-.236.11.35.35 0 0 0-.129.274l.001.012.027.142a.06.06 0 0 0 .025.039q.277.196.464.297c.125.067.218.105.3.105m-.01-1.426a32 32 0 0 1-.682-.985l.017.002c.128 0 .307-.06.559-.174l.384-.178.151-.068a10 10 0 0 1 .423-.125l.096.065zm1.767-4.031a.062.062 0 0 0 .059-.088c-.033-.07-.087-.302-.146-.668-.043-.293-.143-.509-.309-.635a.06.06 0 0 0-.065-.006.43.43 0 0 1-.272.048.06.06 0 0 0-.065.032 1.1 1.1 0 0 0-.123.57v.098l.005.025q.117.261.393.404l.004.002.497.213z"/>
</svg>
