<svg xmlns="http://www.w3.org/2000/svg" viewBox="0 0 22 22">
    <defs>
        <filter id="1KY_svg__a" color-interpolation-filters="sRGB">
            <feGaussianBlur in="SourceAlpha" result="blur" stdDeviation="1"/>
            <feOffset dx="5" dy="3" in="blur" result="offset"/>
            <feFlood flood-color="#000" flood-opacity=".5"/>
            <feComposite in2="offset" operator="in"/>
            <feComposite in="SourceGraphic"/>
        </filter>
    </defs>
    <g stroke-width=".435" filter="url(#1KY_svg__a)" transform="translate(-128.409 -49.354)scale(.26458)">
        <path fill="#c3983c" d="M509.002 256.066v-3.78l17.834 5.934 17.826-5.904v3.78L526.836 262z"/>
        <path fill="#feec99" d="m526.836 260.22 17.826-5.904L554 194.079h-54.33l9.332 60.208z"/>
    </g>
    <path fill-rule="evenodd" d="m11.918 3.36-.273 1.731-.581.164L10.5 5.1l-.293-1.74z"/>
    <path d="M11.527 9.124v-3.05h-.926v3.05z"/>
    <path fill-rule="evenodd" d="m12.002 3.092-.32 2.027-.683.194-.658-.183-.342-2.038z"/>
    <path d="m10.876 18.016-.32-.063-.17.063q-.204-.036-.355-.187t-.151-.356q0-.284.213-.364.178-.036.516-.116.169-.053.533-.24.427-.213.48-.32l-.453-.169q-.063-.15-.293-.408-.845.266-1.822.266-.312 0-.525-.204-.222-.205-.222-.516l.027-.124.382-.107.533.107q.347.062.551.062.231 0 .41-.062-.97-1.04-2.054-1.538-.374-.177-.756-.346-.426-.196-.71-.418l-.107-.204q.142-.142.284-.205l.196.045.364-.08.489.044.178-.08q.613.071 1.102.569v-.133q.07-.071.142-.151.071-.072.071-.187 0-.062-.036-.142 0-.214-.008-.596-.01-.417-.01-.586 0-.987.472-1.173l.16.035.142.276q.062.026.604.124.054-.009.738-.098.462-.062.738-.16.213-.124.64-.355.195.16.32.417-.16.871-.16 2.116 0 .533.24.613.213-.133.213-.293.204-.24.4-.49.266-.328.453-.452.382-.24.569-.24l.417.009q-.586.417-1.413 1.475-.72.924-1.146 1.715.8 0 1.173-.453.044-.01.098-.01.293 0 .409.303.053.125.115.57-.249-.036-.586-.125-.72.168-1.076.266-.764.205-1.04.356.054.32.32.693l.125-.045.142.045q.222-.062.258-.062.035 0 .088.026l.747.036q-.142.08-1.147.613-.675.374-1.093.72l.134.134v.097l-.196-.018zm.133-2.685q.107-.026.133-.23.018-.16.027-.312l-.053-.133.08-.436-.063-.16q.071-.026.09-.142.017-.106.026-.196l-.054-.24-.986.08q-.391.036-.685-.133.507.622 1.485 1.902m2.16-2.141-.427-.17q-.16.09-.525.16t-.515.142q.089.303.098.81t.062.72q.267-.036.444-.25.027-.035.285-.453.018-.044.329-.462.204-.258.248-.498zm-.534-.543-.044-.773q-.489.036-.933.151l-.845.293h-.258q-.115 0-.222.054-.035.426-.035.47 0 .267.186.267-.106 0 .543-.08 1.066-.15 1.608-.382m-.48-1.164.107.027q.284 0 .347-.098v-.16q0 .044-.036-.151.018-.196-.018-.569-.258.035-1.093.258-.667.169-1.102.186v.854l.107.044q.746-.124.853-.151.569-.116.835-.24"/>
</svg>
