<svg xmlns="http://www.w3.org/2000/svg" viewBox="0 0 22 22">
    <defs>
        <filter id="1NG_svg__a" color-interpolation-filters="sRGB">
            <feGaussianBlur in="SourceAlpha" result="blur" stdDeviation="1"/>
            <feOffset dx="5" dy="3" in="blur" result="offset"/>
            <feFlood flood-color="#000" flood-opacity=".5"/>
            <feComposite in2="offset" operator="in"/>
            <feComposite in="SourceGraphic"/>
        </filter>
    </defs>
    <g stroke-width=".435" filter="url(#1NG_svg__a)" transform="translate(-85.668 -72.697)scale(.26458)">
        <path fill="#c3983c" d="M345.268 345.92v-3.78l20.025 6.08 20.4-6.08v3.779l-20.4 6.081z"/>
        <path fill="#feec99" d="m365.293 350.22 20.4-6.08L396 280.533h-61.417l10.685 63.606z"/>
    </g>
    <path fill="red" fill-rule="evenodd" d="m11.493 5.039-.215 1.36-.458.129-.441-.123-.23-1.366zm-2.84.744a.596.596 0 1 1-1.192 0 .596.596 0 0 1 1.192 0m5.477 0a.594.594 0 1 1-1.19 0 .596.596 0 0 1 1.19 0m-5.477 2.71a.596.596 0 1 1-1.192 0 .596.596 0 0 1 1.192 0m5.477 0a.594.594 0 1 1-1.19 0 .596.596 0 0 1 1.19 0m-2.723 0a.596.596 0 1 1-1.192 0 .596.596 0 0 1 1.192 0m0-5.518a.596.596 0 1 1-1.191 0 .596.596 0 0 1 1.191 0"/>
    <path fill="red" fill-rule="evenodd" d="m11.81 4.644-.319 2.028-.684.193-.659-.184-.342-2.037z"/>
    <path fill="red" d="m12.621 10.617-.493.279-.172-.161zm0 1.254q0 .14-.922.504l.022-.418q.128-.214.353-.397.547.161.547.311m3.603.89q0-.096-.246-.096-.58 0-1.566.611-.375.268-1.19 1.126-.418-.525-1.073-.525-.182 0-.579.064.054-.279.086-.6 1.544-.644 1.544-.998 0-.515-.75-1.126.568-.429 1.018-.611.204-.043.504-.064.3-.043.3-.29 0-.279-.321-.45-.257-.14-.504-.14-.268 0-1.426.28-.837.16-1.448.16-1.115 0-2.37-.097-.557 0-.557.547 0 .3.225.504.6.43.944.43.278 0 .718-.483.933-.14 1.394-.183l-.01.987q-.44.44-.923.847-.279.14-.279.343 0 .418 1.04.676-.075.29-.375.568-.858.215-.858.59 0 .343.268.504.419.204.708.204.193 0 .536-.397 1.083-.472 1.941-.493-.868 1.03-1.823 2.252-1.212-.966-2.37-2.252-.74-.783-1.072-.89-.633-.183-1.49-.183-.687 0-.687.29 0 .525.483 1.061.236.269.89.483.793.214 1.05.332 1.052.719 2.735 1.748-.525.633-.525.815 0 .204.343.504.3.247.547.247.665-.032.665-.215 0-.193-.236-.386 2.402-4 4.557-5.48.182-.064.182-.214"/>
</svg>
