<svg xmlns="http://www.w3.org/2000/svg" viewBox="0 0 22 22">
    <defs>
        <filter id="1NY_svg__a" color-interpolation-filters="sRGB">
            <feGaussianBlur in="SourceAlpha" result="blur" stdDeviation="1"/>
            <feOffset dx="5" dy="3" in="blur" result="offset"/>
            <feFlood flood-color="#000" flood-opacity=".5"/>
            <feComposite in2="offset" operator="in"/>
            <feComposite in="SourceGraphic"/>
        </filter>
    </defs>
    <g stroke-width=".435" filter="url(#1NY_svg__a)" transform="translate(-128.409 -73.097)scale(.26458)">
        <path fill="#c3983c" d="M507.891 344.726v-3.78l18.944 7.012 18.943-7.01v3.779l-18.943 7.01z"/>
        <path fill="#feec99" d="m526.835 349.958 18.943-7.01L554 283.815h-54.33l8.221 59.13z"/>
    </g>
    <path fill="red" fill-rule="evenodd" d="m11.697 5.452-.216 1.36-.458.129-.441-.123-.23-1.366zm-2.841.744a.596.596 0 1 1-1.192 0 .596.596 0 0 1 1.192 0m5.479 0a.596.596 0 1 1-1.192 0 .596.596 0 0 1 1.192 0m-5.479 2.71a.596.596 0 1 1-1.192 0 .596.596 0 0 1 1.192 0m5.479 0a.596.596 0 1 1-1.192 0 .596.596 0 0 1 1.192 0m-2.725 0a.596.596 0 1 1-1.191 0 .596.596 0 0 1 1.192 0zm0-5.518a.596.596 0 1 1-1.191 0 .596.596 0 0 1 1.192 0z"/>
    <path fill="red" fill-rule="evenodd" d="m11.972 5.037-.32 2.028-.683.192-.658-.183-.342-2.037z"/>
    <path fill="red" d="M9.061 14.8q.143-.186.64-.408.489-.213.542-.284-.07-.578-.035-.871-.276-.24-.329-.498.08-.284.444-.72.364-.427.454-.675-.16-.16-.818-.32-.586-.143-.8-.498.009-.142.267-.231.257-.098 1.35-.302 1.094-.213 1.307-.214.382 0 .48.382-.045.213-.284.49-.276.302-.338.47.089.072.55.09.419.008.419.39 0 .25-.276.56-.284.32-.827.622-.461.25-.924.49-.053.257-.053.47 0 .09.009.151.24-.07 1.137-.524.685-.346 1.182-.338h.063q.16.08.16.231 0 .285-.791.916v-.151l.062-.196q-.347.09-.951.427-.569.32-.871.577-.045.116-.045.222 0 .098.045.178.658-.426 1.209-.56l-1.156 1.138q.356.053.64.32.285.275.284.622 0 .151-.16.542l-.23.552q-.213-.063-.49-.232-.337-.204-.337-.364 0-.063.178-.276.177-.213.177-.346 0-.045-.008-.08-.08-.018-.187-.018t-.329.018-.338.018q-.675 0-.649-.418v-.062q.152-.107.596-.338.382-.196.569-.365-.231-.124-.685-.222a15 15 0 0 0-.488-.044q-.24-.045-.365-.32m1.991-2.124v.018q.898-.25 1.298-.694.142-.16.142-.267 0-.062-.071-.088a.6.6 0 0 0-.134-.018q-.444 0-.844.311-.409.32-.39.738m-.143-1.867q0 .125.071.258.293-.32.48-.489a.2.2 0 0 0-.062-.009q-.17 0-.48.16-.009.036-.009.08"/>
</svg>
