<svg xmlns="http://www.w3.org/2000/svg" viewBox="0 0 22 22">
    <defs>
        <filter id="1OU_svg__a" color-interpolation-filters="sRGB">
            <feGaussianBlur in="SourceAlpha" result="blur" stdDeviation="1"/>
            <feOffset dx="5" dy="3" in="blur" result="offset"/>
            <feFlood flood-color="#000" flood-opacity=".5"/>
            <feComposite in2="offset" operator="in"/>
            <feComposite in="SourceGraphic"/>
        </filter>
    </defs>
    <g stroke-width=".435" filter="url(#1OU_svg__a)" transform="translate(.643 -72.601)scale(.26458)">
        <path fill="#c3983c" d="M16.264 346.374v-3.78l22.764 7.626 22.856-7.654v3.78L39.028 354z"/>
        <path fill="#feec99" d="m39.028 352.22 22.856-7.654 10.258-66.757H6l10.264 66.786z"/>
    </g>
    <path fill-rule="evenodd" d="m12.003 4.749-.32 2.027-.683.193-.658-.183-.345-2.037zm-3.17 1.11a.596.596 0 1 1-1.192 0 .596.596 0 0 1 1.192 0m5.478 0a.596.596 0 1 1-1.191 0 .596.596 0 0 1 1.191 0M8.833 8.568a.596.596 0 1 1-1.192 0 .596.596 0 0 1 1.192 0m5.478 0a.596.596 0 1 1-1.191 0 .596.596 0 0 1 1.191 0m-2.723 0a.596.596 0 1 1-1.192 0 .596.596 0 0 1 1.192 0M8.833 3.05c0 .33-.267.595-.596.595a.594.594 0 1 1 0-1.19c.33 0 .596.267.596.596zm5.478 0c0 .33-.266.595-.596.595a.594.594 0 1 1 0-1.19c.33 0 .596.267.596.596zm-2.723 0a.594.594 0 1 1-1.189 0 .594.594 0 0 1 1.189 0"/>
    <path fill-rule="evenodd" d="m12.033 4.7-.32 2.026-.683.194-.66-.183-.342-2.038z"/>
    <path d="m9.564 19.435-1.233-.2q-.022-.056-.211-.212-.19-.144-.222-.333.155-.278.61-.389.156-.033.756-.077.178-.012.778-.145.589-.122.756-.178.31-.1.533-.256-.333-.155-.656-.3-.355-.177-.444-.555l.044-.211q.223-.011.29-.2.033-.09.033-.378.01-.044.022-.145.011-.088.011-.133l-.034-.267q-.1 0-.433.034-.266.022-.433.022-.734 0-1.111-.533v-.323l.244-.155.467.1q.133.033.633-.1.49-.134.634-.256l.066-.267-.066-.266.2-1.978q-2.29.089-2.367.089-.356 0-.844-.145-.5-.144-.712-.322l-.311-.322q-.233-.267-.233-.4 0-.122.166-.256.167-.144.267-.11 1.145.4 1.334.455.8.233 1.4.233 1.166 0 2.81-.355.145-.023.401-.167.244-.145.378-.178.378-.089.444-.122.223-.1.278-.322l.411-.156q.278.056.556.378.266.322.433.378l.145.333-.078.055q-.045-.01-.156-.044-.122-.033-.178-.033-.033 0-.889.266-.944.29-1.244.367-.722.189-1.278.234.222.444.222 1.388v.145q0 .578.056.889l.522-.045q.511.123 1.423.512l-.245-.023q-.222 0-1.8.523-.067 2.055-.067 1.889 0 .4.367.544.145-.033.555-.044.345 0 .478-.056.59.256 1.4.933l-.5-.055q-.41 0-2.278.522-1.11.311-2.1.723"/>
</svg>
