<svg xmlns="http://www.w3.org/2000/svg" viewBox="0 0 22 22">
    <defs>
        <filter id="1TO_svg__a" color-interpolation-filters="sRGB">
            <feGaussianBlur in="SourceAlpha" result="blur" stdDeviation="1"/>
            <feOffset dx="5" dy="3" in="blur" result="offset"/>
            <feFlood flood-color="#000" flood-opacity=".5"/>
            <feComposite in2="offset" operator="in"/>
            <feComposite in="SourceGraphic"/>
        </filter>
    </defs>
    <g stroke-width=".435" filter="url(#1TO_svg__a)" transform="translate(-149.731 -74.008)scale(.26458)">
        <path fill="#c3983c" d="M589.491 348.833v-3.78l17.934 5.167 17.533-5.566v3.78L607.425 354z"/>
        <path fill="#feec99" d="M624.958 346.654 634 288.441h-53.151l8.642 58.613 17.934 5.166z"/>
    </g>
    <path fill="red" fill-rule="evenodd" d="m11.647 5.595-.216 1.36-.458.129-.441-.123-.23-1.366zm-2.841.745a.596.596 0 1 1-1.191-.001.596.596 0 0 1 1.191 0zm5.479 0a.596.596 0 1 1-1.192-.001.596.596 0 0 1 1.192 0zM8.806 9.05a.596.596 0 1 1-1.192-.002.596.596 0 0 1 1.192.001zm5.479 0a.596.596 0 1 1-1.192-.002.596.596 0 0 1 1.192.001zm-2.725 0a.596.596 0 1 1-1.191-.002.596.596 0 0 1 1.192.001zm0-5.52a.596.596 0 1 1-1.191 0 .596.596 0 0 1 1.192 0z"/>
    <path fill="red" fill-rule="evenodd" d="m11.924 5.18-.32 2.028-.683.192-.66-.183-.342-2.037z"/>
    <path fill="red" d="M12.91 15.95q-.17 0-.465-.125-.38-.17-.59-.542-.108-.202-.271-.737-.155-.505-.318-.745-.217 0-.791.597-.55.574-.613.8l.117.247q-.032 0-.14.023-.093.008-.147.008-.218 0-.536-.364-.318-.365-.31-.59v-.054q.21-.108.59-.357.387-.349 1.17-.977.133-.077.373-.225.093-.054.233-.225.124-.14.263-.201.784-.776.784-1.18 0-.442-.946-.442-.45 0-1.102.171-1.031.287-1.078.295-.225-.085-.442-.163-.24-.1-.326-.303 0-.186.155-.286.148-.101.636-.256.45-.163.66-.202.395-.078.993-.078.76 0 1.31.264.73.334.73 1 0 .505-.389 1.071l-.682.946q.202.372.364.698.217.528.442 1.047.31.667.683.8-.023.084-.357.084"/>
</svg>
