<svg xmlns="http://www.w3.org/2000/svg" viewBox="0 0 22 22">
    <defs>
        <filter id="1UM_svg__a" width="1.154" height="1.106" x="-.038" y="-.033" color-interpolation-filters="sRGB">
            <feGaussianBlur in="SourceAlpha" result="blur" stdDeviation="1"/>
            <feOffset dx="5" dy="3" in="blur" result="offset"/>
            <feFlood flood-color="#000" flood-opacity=".5"/>
            <feComposite in2="offset" operator="in"/>
            <feComposite in="SourceGraphic"/>
        </filter>
    </defs>
    <g filter="url(#1UM_svg__a)" transform="translate(-41.906 -72.914)scale(.26458)">
        <path fill="#c3983c" d="M178.822 347.44v-3.78l21.068 6.56 21.067-6.56v3.78L199.89 354z"/>
        <path fill="#feec99" d="m199.89 352.22 21.067-6.56 10.823-65.489H168l10.822 65.489z"/>
    </g>
    <path fill="red" d="m11.81 4.393-.321 2.028-.682.192-.661-.183-.342-2.037Zm-3.16 1.16a.6.6 0 1 1-1.2-.002.6.6 0 0 1 1.2.002m5.511 0a.6.6 0 1 1-1.2-.002.6.6 0 0 1 1.2.002M11.42 8.279a.599.599 0 1 1-1.197.001.599.599 0 0 1 1.197-.001m0-5.552a.6.6 0 1 1-1.199 0 .6.6 0 0 1 1.199 0m1.183 1.653 1.713-1.753-.662-.647-1.713 1.753Zm1.052 4.646.66-.649-1.721-1.752-.66.649zM9.053 4.384l.654-.655-1.754-1.753-.654.655Zm0 2.237.655.655-1.754 1.752-.655-.655Zm2.317 4.739q-.062.147-.062.314-.564.658-.96.658-.2 0-.711-.293-.763-.48-1.138-.48.167-.25.459-.554.376-.083.574-.083 1.222 0 1.839.439zm.742 1.202q-.324.073-.95.344-.397.22-.637.669-1.18.303-2.747.303.083-1.034.49-1.88.053.449.345.71.366.271.899.271.94 0 1.347-.428.501-.271.877-.386.22.292.376.397m.345 2.976q-.01.502-.084 1.013-.595-.219-.814-.219-.199 0-.345.02l.773-.553-.93.293v-.324q.71-.146 1.4-.23m.052 2.11q-.376-.094-.553-.094-.199 0-.7.073.042-.125.042-.177 0-.105-.24-.188v-.22q.7-.198 1.274-.198.02.47.177.804m.021-3.676q0 .219-.042 1.159-.658-.23-.814-.23-.168 0-.376.031.386-.292.97-.647-.47.052-1.21.365l.041-.417q1.17-.25 1.431-.261m1.765-2.11q.125.543.25.543.272 0 .387-.272.199-.449.199-.741 0-.491-.262-.752-.428-.334-.793-.334-.397 0-.554.71-.167.376-.355.783-.146.167-.282.167-.177 0-.397-.407-.324-.45-.679-.45-.177 0-.313.126-.69-.908-1.849-1.504-.167-.355-.48-.355-.627 0-1.337.731-.637.71-1.128 2.946-.22.282-.22.47 0 .292.356.668.386.407.627.407.188 0 .46-.031 1.033-.042 2.412-.199l-.053.627q-.553.24-1.034.334-.428.094-.428.314 0 .365.7.501.146 0 .731-.178l-.052.429q-.418.146-.877.271-.408.115-.408.314 0 .323.596.376.135 0 .637-.074 0 .303.094.48-.888.105-1.379.21-.418.125-.418.365 0 .314.303.523.334.24.742.24.167 0 .501-.282 1.588-.439 2.6-.512.345.115.429.115.146 0 .146-.115 0-.063-.042-.167.418 0 .418-.178 0-.146-.261-.376 0-.564.157-1.744.135-.96.146-1.723 0-.418-.167-.815-.282-.438-.606-.438-.292 0-.439.417-.23-.083-.793-.083.313-.314.741-.554.146.021.23.021.167 0 .553-.449.533-.386 1.003-.585z"/>
</svg>
