<svg xmlns="http://www.w3.org/2000/svg" width="52.157" height="60">
    <defs>
        <filter id="0FU_svg__a">
            <feGaussianBlur in="SourceAlpha" result="blur" stdDeviation="2"/>
            <feOffset dx="2" dy="2" result="offsetBlur"/>
            <feBlend in="SourceGraphic" in2="offsetBlur"/>
        </filter>
    </defs>
    <g fill="#ffd5e5" filter="url(#0FU_svg__a)" transform="translate(36.96 -.279)">
        <path fill="#feec99" d="M-10.96 6.237c-4.319 1-8.69 2.088-12.838 3.608-1.492 6.331-2.103 12.88-3.191 19.306-1.285 8.332-2.439 16.689-3.86 24.997 4.847.345 10 .05 14.963.147H9.085C8.5 48.64 7.367 42.774 6.583 37.035c-1.462-8.96-2.486-18.011-4.288-26.902-.885-1.094-2.799-.958-4.037-1.565-3.053-.81-6.099-1.875-9.218-2.332z"/>
    </g>
    <g opacity=".5">
        <path fill="none" stroke="#ffffe5" stroke-width=".559" d="m18.536 39.013-.248-2.478"/>
        <path fill="none" stroke="#fff" stroke-width=".559" d="M21.403 36.707h9.12"/>
        <path fill="#c83737" stroke="#c83737" stroke-linecap="round" stroke-linejoin="round" stroke-width=".559" d="M31.012 36.103a4.92 5.106 0 0 0-.028-.13 4.92 5.106 0 0 0-.155-.485 4.92 5.106 0 0 0-.202-.466 4.92 5.106 0 0 0-.244-.441 4.92 5.106 0 0 0-.286-.417 4.92 5.106 0 0 0-.325-.383 4.92 5.106 0 0 0-.36-.347 4.92 5.106 0 0 0-.391-.31 4.92 5.106 0 0 0-.42-.266 4.92 5.106 0 0 0-.442-.222 4.92 5.106 0 0 0-.462-.175 4.92 5.106 0 0 0-.477-.126 4.92 5.106 0 0 0-.487-.077 4.92 5.106 0 0 0-.49-.025 4.92 5.106 0 0 0-.348.012 4.92 5.106 0 0 0-.488.062 4.92 5.106 0 0 0-.481.112 4.92 5.106 0 0 0-.467.16 4.92 5.106 0 0 0-.448.209 4.92 5.106 0 0 0-.427.255 4.92 5.106 0 0 0-.4.296 4.92 5.106 0 0 0-.37.337 4.92 5.106 0 0 0-.335.373 4.92 5.106 0 0 0-.298.407 4.92 5.106 0 0 0-.257.434 4.92 5.106 0 0 0-.214.46 4.92 5.106 0 0 0-.168.48 4.92 5.106 0 0 0-.068.273z" opacity="1"/>
        <path fill="#c83737" stroke="#c83737" stroke-linecap="round" stroke-linejoin="round" stroke-width=".559" d="M16.653 22.484V36.72h2.188l.037-.247a8 8 0 0 1 .184-.722 8 8 0 0 1 .256-.702 8 8 0 0 1 .324-.671 8 8 0 0 1 .39-.636 8 8 0 0 1 .452-.595 8 8 0 0 1 .509-.546 8 8 0 0 1 .56-.492 8 8 0 0 1 .607-.434 8 8 0 0 1 .648-.372 8 8 0 0 1 .68-.304 8 8 0 0 1 .708-.235 8 8 0 0 1 .729-.164 8 8 0 0 1 .74-.089 8 8 0 0 1 .528-.02 8 8 0 0 1 .746.038 8 8 0 0 1 .737.112 8 8 0 0 1 .723.184 8 8 0 0 1 .7.256 8 8 0 0 1 .673.324 8 8 0 0 1 .636.39 8 8 0 0 1 .594.452 8 8 0 0 1 .545.508 8 8 0 0 1 .493.56 8 8 0 0 1 .435.608 8 8 0 0 1 .37.646 8 8 0 0 1 .305.682 8 8 0 0 1 .236.708 8 8 0 0 1 .162.728l.005.033h1.984V22.484Z" opacity="1"/>
        <path fill="#c83737" stroke="#c83737" stroke-linejoin="round" stroke-width=".559" d="M33.647 37.66h3.223l-.734-.93-.6-.018-1.984.001q.06.356.087.716l.008.23zm-14.806-.942H16.7l-.744-.004-.736.945h3.524q.004-.225.023-.448a7 7 0 0 1 .074-.493z"/>
        <path fill="#c83737" stroke="#c83737" stroke-width=".527" d="m33.54 39.136 3.345-.008-.005-1.28h-3.249a7.54 6.554 0 0 1 .01.265 7.54 6.554 0 0 1-.037.655 7.54 6.554 0 0 1-.064.368z"/>
        <path fill="#c83737" stroke="#c83737" stroke-width=".531" d="m18.758 37.833-3.55.002.008 1.347 3.628-.009a7.498 6.707 0 0 1-.082-.607 7.498 6.707 0 0 1-.019-.473 7.498 6.707 0 0 1 .014-.26z"/>
        <path fill="#c83737" stroke="#c83737" stroke-width=".712" d="M21.364 36.622a4.844 8.42 0 0 0-.014.48 4.844 8.42 0 0 0 .011.597 4.844 8.42 0 0 0 .059.836 4.844 8.42 0 0 0 .07.54l9.412-.041a4.844 8.42 0 0 0 .038-.257 4.844 8.42 0 0 0 .073-.833 4.844 8.42 0 0 0 .024-.841 4.844 8.42 0 0 0-.01-.494z"/>
        <path fill="#c83737" stroke="#c83737" stroke-linejoin="round" stroke-width=".559" d="M16.628 22.497c-1.492-1.093-1.365-1.362-2.129-3.013 7.844.81 15.754.896 23.159-.03-.535 1.753-.633 2.015-2.085 3.03z"/>
        <path fill="#c83737" stroke="#c83737" stroke-linecap="round" stroke-linejoin="round" stroke-width=".466" d="M26.094 29.924a7.464 7.464 0 0 0-7.464 7.464 7.464 7.464 0 0 0 7.464 7.464 7.464 7.464 0 0 0 7.464-7.464 7.464 7.464 0 0 0-7.464-7.464m0 2.359a4.92 5.106 0 0 1 4.92 5.105 4.92 5.106 0 0 1-4.92 5.105 4.92 5.106 0 0 1-4.92-5.105 4.92 5.106 0 0 1 4.92-5.105" opacity="1"/>
        <path fill="none" stroke="#c83737" stroke-width=".559" d="M26.144 37.833v5.264"/>
        <path fill="#fff" stroke="#fff" stroke-width=".823" d="m16.362 23.08 19.444.098"/>
        <path fill="none" stroke="#c83737" stroke-width=".559" d="m22.535 41.367 3.535-3.584 3.694 3.695"/>
        <path fill="#fff" stroke="#fff" stroke-width=".714" d="M14.93 37.9h3.452"/>
        <path fill="#fff" stroke="#fff" stroke-width=".56" d="M21.57 37.9h9.054"/>
        <path fill="#fff" stroke="#fff" stroke-width=".714" d="M33.797 37.9h3.352"/>
        <path fill="none" stroke="#fff" stroke-width=".559" d="M26.12 39.24v-6.82"/>
        <path fill="#fff" stroke="#fff" stroke-width=".559" d="m27.393 39.127-4.769-4.963"/>
        <path fill="none" stroke="#fff" stroke-width=".559" d="m24.667 39.222 4.937-5.022"/>
        <path fill="none" stroke="#fff" stroke-linejoin="bevel" stroke-width=".549" d="M29.997 39.19a4.534 4.534 0 0 0-1.125-5.654 4.534 4.534 0 0 0-5.766.021 4.534 4.534 0 0 0-1.083 5.663" opacity="1"/>
        <path fill="none" stroke="#fff" stroke-width=".559" d="M21.445 36.613h8.983"/>
        <path fill="none" stroke="#fff" stroke-linejoin="bevel" stroke-width=".909" d="M33.996 39.164a8.065 8.065 0 0 0-3.455-8.316 8.065 8.065 0 0 0-9.005.068 8.065 8.065 0 0 0-3.328 8.368" opacity="1"/>
        <path fill="#fff" stroke="#fff" stroke-width=".892" d="M16.373 35.974h1.842m15.753.01h1.843"/>
    </g>
    <g stroke="#000" stroke-linejoin="round" stroke-width="1.313" paint-order="stroke fill markers">
        <path d="M-23.356 37.944c-2.134 9.081-4.332 14.438-13.39 20.588 8.914 3.135 18.701 2.896 26.78 0-9.058-6.15-11.255-11.507-13.39-20.588z" transform="matrix(.41933 0 0 .51039 35.763 -.363)"/>
        <path d="M-26.818 58.55c-.101 8.756-.37 15.837-11.545 21.428-5.232 2.786-6.963 4.476-7.615 9.333 6.785 1.493 14.837 2.21 22.883 2.179 8.046.031 16.097-.686 22.882-2.18-.651-4.856-2.382-6.546-7.615-9.332-11.174-5.591-11.443-12.672-11.545-21.428-1.24.02-2.481.02-3.722.02s-2.482 0-3.723-.02z" transform="matrix(.41933 0 0 .51039 35.763 -.363)"/>
    </g>
</svg>
