<svg xmlns="http://www.w3.org/2000/svg" width="52.157" height="60">
    <defs>
        <filter id="0GI_svg__a">
            <feGaussianBlur in="SourceAlpha" result="blur" stdDeviation="2"/>
            <feOffset dx="2" dy="2" result="offsetBlur"/>
            <feBlend in="SourceGraphic" in2="offsetBlur"/>
        </filter>
    </defs>
    <g fill="#ffd5e5" filter="url(#0GI_svg__a)" transform="translate(36.96 -.279)">
        <path fill="#feec99" d="M-10.96 6.237c-4.319 1-8.69 2.088-12.838 3.608-1.492 6.331-2.103 12.88-3.191 19.306-1.285 8.332-2.439 16.689-3.86 24.997 4.847.345 10 .05 14.963.147H9.085C8.5 48.64 7.367 42.774 6.583 37.035c-1.462-8.96-2.486-18.011-4.288-26.902-.885-1.094-2.799-.958-4.037-1.565-3.053-.81-6.099-1.875-9.218-2.332z"/>
    </g>
    <g stroke="#c83737" stroke-width=".56" opacity=".503">
        <path fill="#f4d7d7" d="M22.468 19.685c-.918 4.433-1.148 8.493-1.513 12.96-.7 3.321-5.192 6.793-7.766 6.071 1.057-5.917.732-14.586 4.017-25.236 2.022-.286 4.101-.405 6.307-.634.734.038 1.277.186 1.786.525.683.966 1.445 3.704 2.054 5.271l.43 3.71c-1.438.589-2.244 1.177-3.314 1.765z"/>
        <path fill="none" d="M24.554 23.948c-1.33-2.87-1.72-4.281-3.391-7.004-.678-.835-1.367-1.654-2.15-2.33-.89-.288-1.111-.643-2.002-.342"/>
    </g>
    <g stroke="#000">
        <path d="M282.83 136.555c.204-5.885-.282-11.142-3.009-13.33 2.021-.873 3.212-2.979 4.365-4.578 1.154 1.6 2.344 3.705 4.365 4.579-2.727 2.187-3.213 7.444-3.009 13.33a4.5 4.5 0 0 1-1.356.232 4.4 4.4 0 0 1-1.356-.233z" transform="matrix(.61774 0 0 .62303 -149.467 -53.572)"/>
        <path fill="#ccc" stroke-width="10.741" d="M97.159 111.627c-2.764 121.39 19.614 224.192 177.984 219.075 158.37 5.117 180.748-97.685 177.985-219.075-11.066 132.287-51.513 167.404-177.985 175.038-126.471-7.634-166.92-42.75-177.984-175.038Z" transform="matrix(.048 0 0 .0567 12.948 15.342)"/>
        <path stroke-width="13.427" d="m166.796 305.119-54.464 95.975-8.754-6.962-40.59 61.712-7.283-9.989c-17.703 21.022-27.021 32.762-44.724 53.784 14.216 20.56 44.13 49.69 71.96 55.397 13.294-25.846 83.135-195.794 102.034-237.34M380.21 305.12l54.464 95.975 8.754-6.962 40.59 61.712 7.283-9.989c17.702 21.022 27.021 32.762 44.724 53.784-14.216 20.56-44.13 49.69-71.961 55.397-13.293-25.846-83.134-195.794-102.034-237.34" transform="matrix(.048 0 0 .0567 12.948 15.342)"/>
        <path stroke-width=".69" d="M18.667 41.509c5.161 2.1 10.15 2.167 14.952 0l-2.82-8.005c-2.82 1.121-6.442 1.355-9.268-.063z"/>
        <path fill="none" stroke="#fff" stroke-width=".701" d="M21.336 35.31c2.994 1.528 6.613 1.57 9.533-.021"/>
    </g>
    <path fill="none" stroke="#fff" stroke-width=".701" d="M18.336 37.314c2.067 1.352 1.068.795 1.809 1.34m13.626-1.401c-2.066 1.352-1.283.515-2.024 1.06m-15.65 2.174 2.879 1.493m17.138-1.493-2.88 1.493m-14.305-.131 3.157-8.338m8.161-.156 2.977 8.592"/>
    <path stroke="#000" stroke-width=".701" d="M21.516 30.147c4.114-3.666 5.63-3.362 9.542.06-2.008.82-2.158.724-4.693 1.178-1.762-.476-.383-.122-2.529-.318z"/>
</svg>
