<svg xmlns="http://www.w3.org/2000/svg" width="52.157" height="60">
    <defs>
        <filter id="0HI_svg__a">
            <feGaussianBlur in="SourceAlpha" result="blur" stdDeviation="2"/>
            <feOffset dx="2" dy="2" result="offsetBlur"/>
            <feBlend in="SourceGraphic" in2="offsetBlur"/>
        </filter>
    </defs>
    <g fill="#ffd5e5" filter="url(#0HI_svg__a)" transform="translate(36.96 -.279)">
        <path fill="#feec99" d="M-10.96 6.237c-4.319 1-8.69 2.088-12.838 3.608-1.492 6.331-2.103 12.88-3.191 19.306-1.285 8.332-2.439 16.689-3.86 24.997 4.847.345 10 .05 14.963.147H9.085C8.5 48.64 7.367 42.774 6.583 37.035c-1.462-8.96-2.486-18.011-4.288-26.902-.885-1.094-2.799-.958-4.037-1.565-3.053-.81-6.099-1.875-9.218-2.332z"/>
    </g>
    <g fill="#c83737" stroke="#c83737" stroke-linejoin="round" stroke-width="1.313" opacity=".51" paint-order="stroke fill markers">
        <path d="M-23.356 37.944c-2.134 9.081-4.332 14.438-13.39 20.588 8.914 3.135 18.701 2.896 26.78 0-9.058-6.15-11.255-11.507-13.39-20.588z" transform="matrix(.46731 0 0 .5688 36.871 -12.94)"/>
        <path d="M-26.818 58.55c-.101 8.756-.37 15.837-11.545 21.428-5.232 2.786-6.963 4.476-7.615 9.333 6.785 1.493 14.837 2.21 22.883 2.179 8.046.031 16.097-.686 22.882-2.18-.651-4.856-2.382-6.546-7.615-9.332-11.174-5.591-11.443-12.672-11.545-21.428-1.24.02-2.481.02-3.722.02s-2.482 0-3.723-.02z" transform="matrix(.46731 0 0 .5688 36.871 -12.94)"/>
    </g>
    <path fill="none" stroke="#ffffe5" stroke-width=".627" d="m17.621 44.282-.277-2.778"/>
    <path fill="none" stroke="#fff" stroke-width=".627" d="M20.836 41.697H31.06"/>
    <path stroke="#000" stroke-linecap="round" stroke-linejoin="round" stroke-width=".627" d="M31.61 41.02a5.517 5.725 0 0 0-.031-.145 5.517 5.725 0 0 0-.175-.544 5.517 5.725 0 0 0-.225-.522 5.517 5.725 0 0 0-.274-.496 5.517 5.725 0 0 0-.321-.467 5.517 5.725 0 0 0-.364-.43 5.517 5.725 0 0 0-.404-.389 5.517 5.725 0 0 0-.439-.346 5.517 5.725 0 0 0-.47-.3 5.517 5.725 0 0 0-.495-.248 5.517 5.725 0 0 0-.519-.196 5.517 5.725 0 0 0-.535-.142 5.517 5.725 0 0 0-.545-.086 5.517 5.725 0 0 0-.55-.028 5.517 5.725 0 0 0-.39.014 5.517 5.725 0 0 0-.548.07 5.517 5.725 0 0 0-.539.125 5.517 5.725 0 0 0-.523.18 5.517 5.725 0 0 0-.503.233 5.517 5.725 0 0 0-.479.286 5.517 5.725 0 0 0-.448.332 5.517 5.725 0 0 0-.414.378 5.517 5.725 0 0 0-.376.419 5.517 5.725 0 0 0-.334.456 5.517 5.725 0 0 0-.288.487 5.517 5.725 0 0 0-.24.515 5.517 5.725 0 0 0-.188.538 5.517 5.725 0 0 0-.077.306z"/>
    <path stroke="#000" stroke-linecap="round" stroke-linejoin="round" stroke-width=".627" d="M15.51 25.75v15.962h2.454a8 8 0 0 1 .04-.277 8 8 0 0 1 .208-.81 8 8 0 0 1 .286-.786 8 8 0 0 1 .364-.753 8 8 0 0 1 .438-.713 8 8 0 0 1 .506-.667 8 8 0 0 1 .57-.612 8 8 0 0 1 .63-.552 8 8 0 0 1 .679-.487 8 8 0 0 1 .727-.416 8 8 0 0 1 .762-.342 8 8 0 0 1 .794-.263 8 8 0 0 1 .817-.183 8 8 0 0 1 .83-.1 8 8 0 0 1 .591-.022 8 8 0 0 1 .837.042 8 8 0 0 1 .827.125 8 8 0 0 1 .81.207 8 8 0 0 1 .786.286 8 8 0 0 1 .754.364 8 8 0 0 1 .713.437 8 8 0 0 1 .666.507 8 8 0 0 1 .611.57 8 8 0 0 1 .552.628 8 8 0 0 1 .488.681 8 8 0 0 1 .415.725 8 8 0 0 1 .341.764 8 8 0 0 1 .265.794 8 8 0 0 1 .182.816l.006.037h2.224V25.751Z"/>
    <path stroke="#000" stroke-linejoin="round" stroke-width=".627" d="M34.564 42.765h3.613l-.822-1.042-.673-.02-2.225.001q.068.4.098.803zm-16.6-1.056-2.4.001-.835-.005-.825 1.06h3.952q.003-.252.025-.502a8 8 0 0 1 .083-.554z"/>
    <path stroke="#000" stroke-width=".591" d="m34.445 44.421 3.75-.009-.006-1.436-3.643.002a8.454 7.349 0 0 1 .012.296 8.454 7.349 0 0 1-.042.734 8.454 7.349 0 0 1-.072.412z"/>
    <path stroke="#000" stroke-width=".596" d="m17.87 42.96-3.98.003.01 1.51 4.067-.01a8.407 7.52 0 0 1-.092-.68 8.407 7.52 0 0 1-.02-.532 8.407 7.52 0 0 1 .015-.292z"/>
    <path stroke="#000" stroke-width=".799" d="M20.793 41.602a5.43 9.441 0 0 0-.016.54 5.43 9.441 0 0 0 .012.668 5.43 9.441 0 0 0 .066.937 5.43 9.441 0 0 0 .079.606l10.552-.047a5.43 9.441 0 0 0 .043-.288 5.43 9.441 0 0 0 .082-.934 5.43 9.441 0 0 0 .027-.943 5.43 9.441 0 0 0-.011-.553z"/>
    <path stroke="#000" stroke-linejoin="round" stroke-width=".627" d="M15.483 25.765c-1.673-1.225-1.53-1.527-2.387-3.378 8.794.91 17.663 1.005 25.965-.034-.6 1.966-.71 2.26-2.338 3.399z"/>
    <path stroke="#000" stroke-linecap="round" stroke-linejoin="round" stroke-width=".523" d="M26.096 34.093a8.37 8.37 0 0 0-8.368 8.368 8.37 8.37 0 0 0 8.368 8.369 8.37 8.37 0 0 0 8.369-8.369 8.37 8.37 0 0 0-8.369-8.368m0 2.644a5.517 5.725 0 0 1 5.516 5.723 5.517 5.725 0 0 1-5.516 5.725 5.517 5.725 0 0 1-5.516-5.725 5.517 5.725 0 0 1 5.516-5.723"/>
    <path fill="none" stroke="#000" stroke-width=".627" d="M26.152 42.96v5.902"/>
    <path fill="#fff" stroke="#fff" stroke-width=".627" d="m15.566 25.974 21.005.11"/>
    <path fill="none" stroke="#000" stroke-width=".627" d="m22.106 46.922 3.962-4.018 4.143 4.143"/>
    <path fill="#fff" stroke="#fff" stroke-width=".628" d="M13.834 43.035h3.615m3.576 0h10.15m3.557 0h3.536"/>
    <path fill="none" stroke="#fff" stroke-width=".627" d="M26.124 44.536v-7.645"/>
    <path fill="#fff" stroke="#fff" stroke-width=".627" d="m27.552 44.41-5.347-5.564"/>
    <path fill="none" stroke="#fff" stroke-width=".627" d="m24.496 44.517 5.535-5.63"/>
    <path fill="none" stroke="#fff" stroke-linejoin="bevel" stroke-width=".615" d="M30.472 44.482a5.084 5.084 0 0 0-1.262-6.34 5.084 5.084 0 0 0-6.464.024 5.084 5.084 0 0 0-1.215 6.35"/>
    <path fill="none" stroke="#fff" stroke-width=".627" d="M20.884 41.592h10.071"/>
    <path fill="none" stroke="#fff" stroke-linejoin="bevel" stroke-width=".613" d="M34.822 44.435a8.87 8.87 0 0 0-3.798-9.143 8.87 8.87 0 0 0-9.9.075 8.87 8.87 0 0 0-3.66 9.199"/>
    <path fill="#fff" stroke="#fff" stroke-width=".627" d="M15.323 41.507h2.067m17.39.02h2.067"/>
</svg>
