<svg xmlns="http://www.w3.org/2000/svg" width="52.157" height="60">
    <defs>
        <filter id="0KA_svg__a">
            <feGaussianBlur in="SourceAlpha" result="blur" stdDeviation="2"/>
            <feOffset dx="2" dy="2" result="offsetBlur"/>
            <feBlend in="SourceGraphic" in2="offsetBlur"/>
        </filter>
    </defs>
    <g fill="#ffd5e5" filter="url(#0KA_svg__a)" transform="translate(36.96 -.279)">
        <path fill="#feec99" d="M-10.96 6.237c-4.319 1-8.69 2.088-12.838 3.608-1.492 6.331-2.103 12.88-3.191 19.306-1.285 8.332-2.439 16.689-3.86 24.997 4.847.345 10 .05 14.963.147H9.085C8.5 48.64 7.367 42.774 6.583 37.035c-1.462-8.96-2.486-18.011-4.288-26.902-.885-1.094-2.799-.958-4.037-1.565-3.053-.81-6.099-1.875-9.218-2.332z"/>
    </g>
    <g opacity=".469">
        <g stroke="#000">
            <path fill="#c83737" stroke="#c83737" d="M282.83 136.555c.204-5.885-.282-11.142-3.009-13.33 2.021-.873 3.212-2.979 4.365-4.578 1.154 1.6 2.344 3.705 4.365 4.579-2.727 2.187-3.213 7.444-3.009 13.33a4.5 4.5 0 0 1-1.356.232 4.4 4.4 0 0 1-1.356-.233z" transform="matrix(.61774 0 0 .62303 -149.247 -63.121)"/>
            <path fill="#ccc" stroke="#c83737" stroke-width="10.741" d="M97.159 111.627c-2.764 121.39 19.614 224.192 177.984 219.075 158.37 5.117 180.748-97.685 177.985-219.075-11.066 132.287-51.513 167.404-177.985 175.038-126.471-7.634-166.92-42.75-177.984-175.038Z" transform="matrix(.048 0 0 .0567 13.168 5.793)"/>
            <path fill="#c83737" stroke="#c83737" stroke-width="13.427" d="m166.796 305.119-54.464 95.975-8.754-6.962-40.59 61.712-7.283-9.989c-17.703 21.022-27.021 32.762-44.724 53.784 14.216 20.56 44.13 49.69 71.96 55.397 13.294-25.846 83.135-195.794 102.034-237.34M380.21 305.12l54.464 95.975 8.754-6.962 40.59 61.712 7.283-9.989c17.702 21.022 27.021 32.762 44.724 53.784-14.216 20.56-44.13 49.69-71.961 55.397-13.293-25.846-83.134-195.794-102.034-237.34" transform="matrix(.048 0 0 .0567 13.168 5.793)"/>
            <path fill="#c83737" stroke="#c83737" stroke-width=".69" d="M18.886 31.96c5.161 2.1 10.15 2.167 14.952 0l-2.82-8.005c-2.82 1.121-6.442 1.355-9.268-.063z"/>
            <path fill="none" stroke="#fff" stroke-width=".701" d="M21.555 25.76c2.994 1.53 6.613 1.571 9.533-.02"/>
        </g>
        <path fill="none" stroke="#fff" stroke-width=".701" d="M18.555 27.764c2.067 1.352 1.068.795 1.809 1.34m13.626-1.401c-2.066 1.352-1.283.515-2.024 1.06m-15.649 2.175 2.879 1.493m17.138-1.493-2.88 1.493M19.148 32.3l3.157-8.338m8.161-.156 2.977 8.592"/>
        <path fill="#c83737" stroke="#c83737" stroke-width=".701" d="M21.735 20.598c4.114-3.666 5.63-3.362 9.542.06-2.008.82-2.158.724-4.693 1.178-1.762-.476-.383-.122-2.529-.318z"/>
    </g>
    <g stroke-width=".6">
        <path fill="none" stroke="#000" stroke-width=".905" d="m36.59 30.206-2.512.251"/>
        <path stroke="#000" stroke-width=".563" d="M40.8 42.294c-6.298-.442-12.202-.063-20.777 0m.646-4.594c3.705-6.077 9.402-4.093 13.37-4.039 3.319 1.967 3.806 2.127 5.022 3.608 1.286 1.727 1.612 2.926 1.715 5.046-6.41 2.31-12.815 2.784-20.484.441-.117-1.881.163-3.479.377-5.056z"/>
        <g stroke="#000" stroke-width=".563">
            <path fill="#e6e6e6" d="M20.728 30.781c-.923 4.455-1.154 8.537-1.521 13.026-.704 3.338-5.218 6.827-7.805 6.103 1.062-5.948.736-14.66 4.037-25.366 2.033-.287 4.122-.406 6.339-.636.738.038 1.284.187 1.795.527.687.971 2.176 4.175 2.788 5.75l-.292 3.277c-1.445.591-2.254 1.183-3.33 1.774z"/>
            <path fill="none" d="M22.825 35.066c-1.337-2.885-1.729-4.303-3.41-7.04-.68-.84-1.372-1.661-2.159-2.342-.895-.29-1.118-.646-2.013-.344"/>
        </g>
        <path stroke="#000" stroke-width=".563" d="m33.748 33.665 1.5-11.544c.538-3.123-.18-4.804-2.782-4.32-2.397.682-3.916 2.968-5.142 5.788l-1.218 9.896c4.187-.397 5.569-.11 7.642.18z"/>
        <path fill="none" stroke="#fff" stroke-width=".905" d="M40.403 38.929c-.18.071-.265.059-.627-.058-4.662-1.502-8.925-3.114-18.966-.835-.094.022-.324.091-.49.073"/>
        <path fill="none" stroke="#000" stroke-width=".905" d="m29.355 30.848-5.325.311"/>
    </g>
    <path fill="none" stroke="#fff" stroke-width=".905" d="M41.041 42.053c-.196.017-.62-.103-.705-.124-6.32-1.556-12.534-1.865-19.71.42-.178.056-.533.063-.722.079m14.216-9.551c-3.605-.409-5.372-.464-7.8-.174-.31.036-.404.074-.494.064"/>
</svg>
