<svg xmlns="http://www.w3.org/2000/svg" width="52.157" height="60">
    <defs>
        <filter id="0KE_svg__a">
            <feGaussianBlur in="SourceAlpha" result="blur" stdDeviation="2"/>
            <feOffset dx="2" dy="2" result="offsetBlur"/>
            <feBlend in="SourceGraphic" in2="offsetBlur"/>
        </filter>
    </defs>
    <g fill="#ffd5e5" filter="url(#0KE_svg__a)" transform="translate(36.96 -.279)">
        <path fill="#feec99" d="M-10.96 6.237c-4.319 1-8.69 2.088-12.838 3.608-1.492 6.331-2.103 12.88-3.191 19.306-1.285 8.332-2.439 16.689-3.86 24.997 4.847.345 10 .05 14.963.147H9.085C8.5 48.64 7.367 42.774 6.583 37.035c-1.462-8.96-2.486-18.011-4.288-26.902-.885-1.094-2.799-.958-4.037-1.565-3.053-.81-6.099-1.875-9.218-2.332z"/>
    </g>
    <g opacity=".5" transform="translate(-144.952 -36.079)scale(.70055)">
        <g stroke="#000" stroke-width="1.2">
            <path fill="#ffe680" stroke="#c83737" stroke-width="8.056" d="M89.878 104.459c71.228 71.229 31.757 135.82 52.51 165.378 28.87 49.947 71.082 59.605 129.342 59.37a66 66 0 0 0 3.413-.105q1.714.098 3.413.104c58.26.236 100.472-9.422 129.342-59.369 20.753-29.557-18.718-94.15 52.51-165.378-11.605-5.015-42.725 25.605-62.898 25.525-25.612-15.171-47.031 3.08-52.25 16.777 37.838-11.301 70.078 121.468-45.539 137.914-7.067 1.97-16.164 2.514-24.578 2.72-8.414-.206-17.511-.75-24.578-2.72-115.617-16.446-83.377-149.215-45.538-137.914-5.22-13.698-26.64-31.948-52.251-16.777-20.173.08-51.293-30.54-62.898-25.525z" transform="matrix(.06853 0 0 .08094 225.709 60.013)"/>
            <path fill="#c83737" stroke="#c83737" stroke-width="16.112" d="M141.488 275.714c-45.126-28.295-80.012-25.181-108.804-20.805L3.205 306.581c41.944-36.203 152.117 6.577 144.443 111.867 7.77-26.63 28.133-63.418 39.832-101.833m220.385-40.901c45.126-28.295 80.012-25.181 108.803-20.805l29.48 51.672c-41.944-36.203-152.118 6.577-144.443 111.867-7.77-26.63-28.133-63.418-39.832-101.833" transform="matrix(.06853 0 0 .08094 225.73 59.991)"/>
            <path fill="#c83737" stroke="#c83737" stroke-width="16.112" d="m128.121 339.223-29.443 64.098c-3.406-2.033 6.609 9.49-6.592 1.008-14.055 23.338-19.002 29.833-33.969 54.715 21.968 17.086 24.659 18.31 46.106 25.56 13.293-25.846 25.739-42.373 44.639-83.918m270.022-61.463 29.443 64.098c3.407-2.033-6.608 9.49 6.593 1.008 14.054 23.338 19.002 29.833 33.968 54.715-21.968 17.086-24.658 18.31-46.106 25.56-13.292-25.846-25.738-42.373-44.638-83.918" transform="matrix(.06853 0 0 .08094 225.709 60.013)"/>
            <path fill="#c83737" stroke="#c83737" d="M233.879 97.288c7.363 3.092 14.48 3.19 21.328 0l-4.023-11.781c-5.552 2.375-8.767 2.099-13.5.437z"/>
            <path fill="none" stroke="#fff" d="M237.463 88.704c4.81 1.655 8.506 2.056 13.826-.031"/>
        </g>
        <path fill="none" stroke="#fff" stroke-width=".7" d="M234.042 88.04c2.11 3.522 1.59 3.631 1.985 5.204m18.987-5.204c-2.11 3.522-1.59 3.631-1.985 5.204"/>
        <path fill="none" stroke="#fff" d="m234.404 97.35 4.202-11.855m11.863-.05 4.06 12.203"/>
        <path fill="none" stroke="#fff" stroke-width=".7" d="M231.883 92.628c2.375 2.02 2.256 1.307 3.27 2.527m21.906-2.527c-2.375 2.02-2.256 1.307-3.27 2.527"/>
        <path fill="#c83737" stroke="#c83737" d="M239.024 80.489c3.438-2.881 8.3-2.42 11.037.134-2.365 3.351-9.494 2.307-11.037-.134z"/>
        <ellipse cx="244.601" cy="79.253" fill="#ffe680" stroke="#c83737" stroke-width=".604" rx="3.947" ry="3.818"/>
        <path fill="#c83737" stroke="#c83737" d="m240.019 99.645-1.37 4.684-.575-.132-.928 2.872c4.644 1.953 10.662 1.844 14.496 0l-.928-2.872-.575.132-1.37-4.684"/>
        <path fill="none" stroke="#fff" stroke-width=".7" d="M239.875 99.85c3.262.72 6.238.677 9 .063m-10.188 3.937c3.262.72 8.551.802 11.313.188"/>
    </g>
    <g stroke-width="1.386">
        <path stroke="#000" stroke-width=".586" d="M19.315 19.966c-.676 1.276-.414 2.735-.414 4.137-1.114 2.296-1.868 4.06-1.714 6.145-1.447 1.613-2.721 3.331-3.545 5.319-.235.984-.439 1.97-.06 2.954l.533.296c.686 1.421.888 1.737 2.422 1.536l.296-1.477.414-.71-.296 1.892.414 1.004c2.35-.757 2.297-2.021 3.53-3.924 1.867-.862 2.676-1.299 4.506-1.985l.828-.532 1.24-2.068-1.122 2.01.295 1.3s.06 1.18 0 1.477c-.124 1.904-1.812 4.204-3.177 5.379-1.867 1.422-2.227 2.743-2.496 5.02 9.116 5.06 13.589 2.69 17.788-.117a31 31 0 0 0-.72-3.228c-1.009-3.384-1.197-5.523-1.349-11.368-.281-4.286-4.67-10.277-10.247-9.992l-2.753-4.25c-1.16 1.032-.99 2.564-1.182 4.018l-.887-.118z"/>
        <path fill="none" stroke="#fff" stroke-width=".732" d="M26.205 34.532c.636-1.11.717-2.947.653-3.61"/>
        <path fill="#fff" stroke="#fff" stroke-width=".838" d="M20.824 27.61c-1.397-.085-1.281.63-1.653 1.842 1.423.111 1.29-.604 1.653-1.841z"/>
        <path fill="none" stroke="#fff" stroke-width="1.254" d="M27.338 24.976c.842-.48 2.516.463 3.127.978 2.022 1.708 4.32 3.921 4.357 6.77.555 4.424.348 10.596 2.026 14.321"/>
    </g>
    <path fill="none" stroke="#fff" stroke-width=".732" d="m16.889 40.527 1.556-2.197m-3.78-.889c-.378-.707.145-.878.993-1.68"/>
</svg>
