<svg xmlns="http://www.w3.org/2000/svg" width="52.157" height="60">
    <defs>
        <filter id="0KI_svg__a">
            <feGaussianBlur in="SourceAlpha" result="blur" stdDeviation="2"/>
            <feOffset dx="2" dy="2" result="offsetBlur"/>
            <feBlend in="SourceGraphic" in2="offsetBlur"/>
        </filter>
    </defs>
    <g fill="#fecb00" filter="url(#0KI_svg__a)" transform="translate(36.3 1.558)scale(.93934)">
        <path fill="#feec99" d="M-10.96 6.237c-4.319 1-8.69 2.088-12.838 3.608-1.492 6.331-2.103 12.88-3.191 19.306-1.285 8.332-2.439 16.689-3.86 24.997 4.847.345 10 .05 14.963.147H9.085C8.5 48.64 7.367 42.774 6.583 37.035c-1.462-8.96-2.486-18.011-4.288-26.902-.885-1.094-2.799-.958-4.037-1.565-3.053-.81-6.099-1.875-9.218-2.332z"/>
    </g>
    <g opacity=".528">
        <g stroke-width="1.386">
            <path fill="#c83737" stroke="#c83737" stroke-width=".417" d="M21.266 12.24c-.48.909-.294 1.947-.294 2.944-.793 1.634-1.33 2.89-1.22 4.373-1.03 1.148-1.936 2.37-2.522 3.784-.167.701-.312 1.402-.042 2.103l.378.21c.488 1.011.632 1.236 1.724 1.093l.21-1.051.295-.505-.21 1.346.294.715c1.672-.54 1.634-1.439 2.512-2.793 1.328-.613 1.904-.924 3.206-1.412l.589-.378.883-1.472-.8 1.43.211.925s.042.84 0 1.05c-.089 1.356-1.29 2.992-2.26 3.829-1.33 1.011-1.586 1.951-1.776 3.572 6.486 3.6 9.668 1.914 12.656-.084a22 22 0 0 0-.512-2.297c-.718-2.408-.852-3.93-.96-8.089-.2-3.049-3.322-7.311-7.291-7.11l-1.96-3.023c-.824.734-.704 1.824-.84 2.86l-.631-.085z"/>
            <path fill="none" stroke="#fff" stroke-width=".521" d="M26.17 22.605c.451-.789.509-2.096.463-2.569"/>
            <path fill="#fff" stroke="#fff" stroke-width=".597" d="M22.34 17.68c-.994-.06-.911.449-1.176 1.311 1.012.079.918-.43 1.176-1.31z"/>
            <path fill="none" stroke="#fff" stroke-width=".892" d="M26.975 15.806c.6-.342 1.79.33 2.225.696 1.439 1.215 3.074 2.79 3.1 4.816.395 3.149.248 7.54 1.442 10.19"/>
        </g>
        <path fill="none" stroke="#fff" stroke-width=".521" d="m19.538 26.872 1.108-1.563m-2.688-.634c-.269-.502.103-.624.706-1.195"/>
    </g>
    <g transform="translate(-144.736 -28.289)scale(.70055)">
        <g stroke="#000" stroke-width="1.2">
            <path fill="#ffe680" stroke-width="8.056" d="M89.878 104.459c71.228 71.229 31.757 135.82 52.51 165.378 28.87 49.947 71.082 59.605 129.342 59.37a66 66 0 0 0 3.413-.105q1.714.098 3.413.104c58.26.236 100.472-9.422 129.342-59.369 20.753-29.557-18.718-94.15 52.51-165.378-11.605-5.015-42.725 25.605-62.898 25.525-25.612-15.171-47.031 3.08-52.25 16.777 37.838-11.301 70.078 121.468-45.539 137.914-7.067 1.97-16.164 2.514-24.578 2.72-8.414-.206-17.511-.75-24.578-2.72-115.617-16.446-83.377-149.215-45.538-137.914-5.22-13.698-26.64-31.948-52.251-16.777-20.173.08-51.293-30.54-62.898-25.525z" transform="matrix(.06853 0 0 .08094 225.709 60.013)"/>
            <path stroke-width="16.112" d="M141.488 275.714c-45.126-28.295-80.012-25.181-108.804-20.805L3.205 306.581c41.944-36.203 152.117 6.577 144.443 111.867 7.77-26.63 28.133-63.418 39.832-101.833m220.385-40.901c45.126-28.295 80.012-25.181 108.803-20.805l29.48 51.672c-41.944-36.203-152.118 6.577-144.443 111.867-7.77-26.63-28.133-63.418-39.832-101.833" transform="matrix(.06853 0 0 .08094 225.73 59.991)"/>
            <path stroke-width="16.112" d="m128.121 339.223-29.443 64.098c-3.406-2.033 6.609 9.49-6.592 1.008-14.055 23.338-19.002 29.833-33.969 54.715 21.968 17.086 24.659 18.31 46.106 25.56 13.293-25.846 25.739-42.373 44.639-83.918m270.022-61.463 29.443 64.098c3.407-2.033-6.608 9.49 6.593 1.008 14.054 23.338 19.002 29.833 33.968 54.715-21.968 17.086-24.658 18.31-46.106 25.56-13.292-25.846-25.738-42.373-44.638-83.918" transform="matrix(.06853 0 0 .08094 225.709 60.013)"/>
            <path d="M233.879 97.288c7.363 3.092 14.48 3.19 21.328 0l-4.023-11.781c-5.552 2.375-8.767 2.099-13.5.437z"/>
            <path fill="none" stroke="#fff" d="M237.463 88.704c4.81 1.655 8.506 2.056 13.826-.031"/>
        </g>
        <path fill="none" stroke="#fff" stroke-width=".7" d="M234.042 88.04c2.11 3.522 1.59 3.631 1.985 5.204m18.987-5.204c-2.11 3.522-1.59 3.631-1.985 5.204"/>
        <path fill="none" stroke="#fff" d="m234.404 97.35 4.202-11.855m11.863-.05 4.06 12.203"/>
        <path fill="none" stroke="#fff" stroke-width=".7" d="M231.883 92.628c2.375 2.02 2.256 1.307 3.27 2.527m21.906-2.527c-2.375 2.02-2.256 1.307-3.27 2.527"/>
        <path stroke="#000" d="M239.024 80.489c3.438-2.881 8.3-2.42 11.037.134-2.365 3.351-9.494 2.307-11.037-.134z"/>
        <ellipse cx="244.601" cy="79.253" fill="#ffe680" stroke="#000" stroke-width=".604" rx="3.947" ry="3.818"/>
        <path stroke="#000" d="m240.019 99.645-1.37 4.684-.575-.132-.928 2.872c4.644 1.953 10.662 1.844 14.496 0l-.928-2.872-.575.132-1.37-4.684"/>
        <path fill="none" stroke="#fff" stroke-width=".7" d="M239.875 99.85c3.262.72 6.238.677 9 .063m-10.188 3.937c3.262.72 8.551.802 11.313.188"/>
    </g>
</svg>
