<svg xmlns="http://www.w3.org/2000/svg" width="52.157" height="60">
    <defs>
        <filter id="0TO_svg__a" width="1.29" height="1.241" x="-.12" y="-.1">
            <feGaussianBlur in="SourceAlpha" result="blur" stdDeviation="2"/>
            <feOffset dx="2" dy="2" result="offsetBlur"/>
            <feBlend in="SourceGraphic" in2="offsetBlur"/>
        </filter>
    </defs>
    <g fill="#ffd5e5" filter="url(#0TO_svg__a)" transform="translate(36.018 -.358)">
        <path fill="#feec99" d="M-10.96 6.237c-4.319 1-8.69 2.088-12.838 3.608-1.492 6.331-2.103 12.88-3.191 19.306-1.285 8.332-2.439 16.689-3.86 24.997 4.847.345 10 .05 14.963.147H9.085C8.5 48.64 7.367 42.774 6.583 37.035c-1.462-8.96-2.486-18.011-4.288-26.902-.885-1.094-2.799-.958-4.037-1.565-3.053-.81-6.099-1.875-9.218-2.332z"/>
    </g>
    <g opacity=".5">
        <g stroke="#c83737" stroke-width="4.938" opacity="1">
            <path fill="#c83737" stroke-width=".476" d="M24.411 49.9V24.308h1.446V49.9z"/>
            <path fill="#e6e6e6" stroke-width=".838" d="m24.537 24.802-1.297-.826.256-10.735 1.608-2.754 1.692 2.676.228 10.725-1.29.89z"/>
            <path fill="none" stroke-width=".435" d="M25.126 10.907v10.132l1.594 1.266m-1.594-1.266-1.574 1.398"/>
        </g>
        <path fill="#c83737" stroke="#c83737" stroke-width=".476" d="M17.198 40.434h15.877v1.447H17.198Z" opacity="1"/>
        <path fill="#c83737" d="M25.136 32.01a9.147 9.147 0 0 0-9.149 9.147 9.147 9.147 0 0 0 9.149 9.148 9.147 9.147 0 0 0 9.147-9.148 9.147 9.147 0 0 0-9.147-9.147m0 1.994a7.15 7.15 0 0 1 7.152 7.153 7.15 7.15 0 0 1-7.152 7.152 7.15 7.15 0 0 1-7.153-7.152 7.15 7.15 0 0 1 7.153-7.152z" opacity="1"/>
        <path fill="#c83737" stroke="#c83737" stroke-width=".476" d="m19.013 46.26 11.225-11.225 1.023 1.024-11.227 11.223Z" opacity="1"/>
        <path fill="#c83737" stroke="#c83737" stroke-width=".476" d="M20.035 35.035 31.26 46.26l-1.023 1.023-11.224-11.225Z" opacity="1"/>
    </g>
    <g stroke="#000" stroke-linejoin="round" stroke-width="1.313" paint-order="stroke fill markers">
        <path d="M-23.356 44.733c-4.132 8.932-4.332 7.65-13.39 13.799 8.914 3.135 18.701 2.896 26.78 0-9.058-6.15-9.44-5.165-13.39-13.8z" transform="matrix(.46731 0 0 .5688 35.929 -1.13)"/>
        <path d="M-26.818 58.55c-.101 8.756-.37 15.837-11.545 21.428-5.232 2.786-6.963 4.476-7.615 9.333 6.785 1.493 14.837 2.21 22.883 2.179 8.046.031 16.097-.686 22.882-2.18-.651-4.856-2.382-6.546-7.615-9.332-11.174-5.591-11.443-12.672-11.545-21.428-1.24.02-2.481.02-3.722.02s-2.482 0-3.723-.02z" transform="matrix(.46731 0 0 .5688 35.929 -1.13)"/>
    </g>
    <g fill="#fd5" stroke="#000" transform="translate(-376.969 -56.363)scale(.66146)">
        <path stroke-width="13.427" d="M89.878 104.459c71.228 71.229 31.757 135.82 52.51 165.378 28.87 49.947 71.082 59.605 129.342 59.37a66 66 0 0 0 3.413-.105q1.714.098 3.413.104c58.26.236 100.472-9.422 129.342-59.369 20.753-29.557-18.718-94.15 52.51-165.378-11.605-5.015-42.725 25.605-62.898 25.525-25.612-15.171-47.031 3.08-52.25 16.777 37.838-11.301 70.078 121.468-45.539 137.914-7.067 1.97-16.164 2.514-24.578 2.72-8.414-.206-17.511-.75-24.578-2.72-115.617-16.446-83.377-149.215-45.538-137.914-5.22-13.698-26.64-31.948-52.251-16.777-20.173.08-51.293-30.54-62.898-25.525z" class="0TO_svg__UnoptimicedTransforms" transform="matrix(.06853 0 0 .08094 589.02 105.58)"/>
        <ellipse cx="608" cy="124.96" rx="3.947" ry="3.818"/>
    </g>
</svg>
