<svg xmlns="http://www.w3.org/2000/svg" width="52.157" height="60">
    <defs>
        <filter id="1FU_svg__a">
            <feGaussianBlur in="SourceAlpha" result="blur" stdDeviation="2"/>
            <feOffset dx="2" dy="2" result="offsetBlur"/>
            <feBlend in="SourceGraphic" in2="offsetBlur"/>
        </filter>
    </defs>
    <g fill="#feec99" filter="url(#1FU_svg__a)">
        <path d="M26.123 53.987a242 242 0 0 0 11.985-3.333c.459-.16 1.11-.258 1.18-.85.697-3.354 1.156-6.76 1.705-10.143 1.699-11.05 3.317-22.12 5.008-33.167-.153-.67-.995-.416-1.483-.471-12.66-.025-25.32-.03-37.978.032-.66.153-.275.935-.274 1.384 1.975 12.882 3.806 25.786 5.89 38.651.271 1.332.34 2.732.8 4.013.341.488 1.054.46 1.56.691 3.762 1.117 7.533 2.226 11.34 3.173a.9.9 0 0 0 .266.02z"/>
    </g>
    <g opacity=".5">
        <path fill="none" stroke="#ffffe5" stroke-width=".559" d="m33.621 21.116.248 2.478"/>
        <path fill="none" stroke="#fff" stroke-width=".559" d="M30.754 23.422h-9.12"/>
        <path fill="#c83737" stroke="#c83737" stroke-linecap="round" stroke-linejoin="round" stroke-width=".559" d="M21.145 24.027a4.92 5.106 0 0 0 .028.13 4.92 5.106 0 0 0 .155.485 4.92 5.106 0 0 0 .202.466 4.92 5.106 0 0 0 .244.441 4.92 5.106 0 0 0 .286.417 4.92 5.106 0 0 0 .325.383 4.92 5.106 0 0 0 .36.347 4.92 5.106 0 0 0 .391.31 4.92 5.106 0 0 0 .42.266 4.92 5.106 0 0 0 .442.222 4.92 5.106 0 0 0 .462.175 4.92 5.106 0 0 0 .477.126 4.92 5.106 0 0 0 .487.077 4.92 5.106 0 0 0 .49.025 4.92 5.106 0 0 0 .348-.012 4.92 5.106 0 0 0 .488-.062 4.92 5.106 0 0 0 .481-.112 4.92 5.106 0 0 0 .467-.16 4.92 5.106 0 0 0 .448-.209 4.92 5.106 0 0 0 .427-.255 4.92 5.106 0 0 0 .4-.296 4.92 5.106 0 0 0 .37-.337 4.92 5.106 0 0 0 .335-.373 4.92 5.106 0 0 0 .298-.407 4.92 5.106 0 0 0 .257-.434 4.92 5.106 0 0 0 .214-.46 4.92 5.106 0 0 0 .168-.48 4.92 5.106 0 0 0 .068-.273z" opacity="1"/>
        <path fill="#c83737" stroke="#c83737" stroke-linecap="round" stroke-linejoin="round" stroke-width=".559" d="M35.504 37.646V23.41h-2.188l-.037.247a8 8 0 0 1-.184.722 8 8 0 0 1-.256.702 8 8 0 0 1-.324.671 8 8 0 0 1-.39.636 8 8 0 0 1-.452.595 8 8 0 0 1-.509.546 8 8 0 0 1-.56.492 8 8 0 0 1-.607.434 8 8 0 0 1-.648.372 8 8 0 0 1-.68.304 8 8 0 0 1-.708.235 8 8 0 0 1-.729.164 8 8 0 0 1-.74.089 8 8 0 0 1-.528.02 8 8 0 0 1-.746-.038 8 8 0 0 1-.737-.112 8 8 0 0 1-.723-.184 8 8 0 0 1-.7-.256 8 8 0 0 1-.673-.324 8 8 0 0 1-.636-.39 8 8 0 0 1-.594-.452 8 8 0 0 1-.545-.508 8 8 0 0 1-.493-.56 8 8 0 0 1-.435-.608 8 8 0 0 1-.37-.646 8 8 0 0 1-.305-.682 8 8 0 0 1-.236-.708 8 8 0 0 1-.162-.728l-.005-.033H16.62v14.236Z" opacity="1"/>
        <path fill="#c83737" stroke="#c83737" stroke-linejoin="round" stroke-width=".559" d="M18.51 22.47h-3.223l.734.93.6.018 1.984-.001a8 8 0 0 1-.087-.716zm14.806.942h2.141l.744.004.736-.945h-3.524q-.004.225-.023.448a7 7 0 0 1-.074.493z"/>
        <path fill="#c83737" stroke="#c83737" stroke-width=".527" d="m18.616 20.994-3.344.008.005 1.28h3.249a6.554 7.54 90 0 1-.01-.265 6.554 7.54 90 0 1 .037-.655 6.554 7.54 90 0 1 .064-.368z"/>
        <path fill="#c83737" stroke="#c83737" stroke-width=".531" d="m33.4 22.297 3.55-.002-.01-1.347-3.627.009a6.707 7.498 90 0 1 .082.607 6.707 7.498 90 0 1 .019.473 6.707 7.498 90 0 1-.014.26z"/>
        <path fill="#c83737" stroke="#c83737" stroke-width=".712" d="M30.793 23.508a4.844 8.42 0 0 0 .014-.48 4.844 8.42 0 0 0-.011-.597 4.844 8.42 0 0 0-.059-.836 4.844 8.42 0 0 0-.07-.54l-9.412.041a4.844 8.42 0 0 0-.038.257 4.844 8.42 0 0 0-.073.833 4.844 8.42 0 0 0-.024.841 4.844 8.42 0 0 0 .01.494z"/>
        <path fill="#c83737" stroke="#c83737" stroke-linejoin="round" stroke-width=".559" d="M35.529 37.633c1.492 1.093 1.365 1.362 2.129 3.013-7.844-.81-15.754-.896-23.159.03.535-1.753.633-2.015 2.085-3.03z"/>
        <path fill="#c83737" stroke="#c83737" stroke-linecap="round" stroke-linejoin="round" stroke-width=".466" d="M26.063 30.206a7.464 7.464 0 0 0 7.464-7.464 7.464 7.464 0 0 0-7.464-7.464 7.464 7.464 0 0 0-7.464 7.464 7.464 7.464 0 0 0 7.464 7.464m0-2.359a4.92 5.106 0 0 1-4.92-5.105 4.92 5.106 0 0 1 4.92-5.105 4.92 5.106 0 0 1 4.92 5.105 4.92 5.106 0 0 1-4.92 5.105" opacity="1"/>
        <path fill="none" stroke="#c83737" stroke-width=".559" d="M26.013 22.297v-5.264"/>
        <path fill="#fff" stroke="#fff" stroke-width=".823" d="m35.795 37.05-19.444-.098"/>
        <path fill="none" stroke="#c83737" stroke-width=".559" d="m29.622 18.763-3.535 3.584-3.694-3.695"/>
        <path fill="#fff" stroke="#fff" stroke-width=".714" d="M37.226 22.23h-3.45"/>
        <path fill="#fff" stroke="#fff" stroke-width=".56" d="M30.586 22.23h-9.053"/>
        <path fill="#fff" stroke="#fff" stroke-width=".714" d="M18.36 22.23h-3.352"/>
        <path fill="none" stroke="#fff" stroke-width=".559" d="M26.038 20.89v6.82"/>
        <path fill="#fff" stroke="#fff" stroke-width=".559" d="m24.764 21.003 4.769 4.963"/>
        <path fill="none" stroke="#fff" stroke-width=".559" d="m27.49 20.908-4.937 5.022"/>
        <path fill="none" stroke="#fff" stroke-linejoin="bevel" stroke-width=".549" d="M22.16 20.938a4.534 4.534 0 0 0 1.125 5.655 4.534 4.534 0 0 0 5.766-.021 4.534 4.534 0 0 0 1.083-5.663" opacity="1"/>
        <path fill="none" stroke="#fff" stroke-width=".559" d="M30.712 23.517h-8.983"/>
        <path fill="none" stroke="#fff" stroke-linejoin="bevel" stroke-width=".909" d="M18.161 20.965a8.065 8.065 0 0 0 3.455 8.316 8.065 8.065 0 0 0 9.005-.068 8.065 8.065 0 0 0 3.328-8.368" opacity="1"/>
        <path fill="#fff" stroke="#fff" stroke-width=".892" d="M35.784 24.156h-1.842m-15.753-.01h-1.843"/>
    </g>
    <g stroke="#000" stroke-linejoin="round" stroke-width="1.313" paint-order="stroke fill markers">
        <path d="M-23.356 37.944c-2.134 9.081-4.332 14.438-13.39 20.588 8.914 3.135 18.701 2.896 26.78 0-9.058-6.15-11.255-11.507-13.39-20.588z" transform="matrix(-.41933 0 0 -.51039 16.394 60.492)"/>
        <path d="M-26.818 58.55c-.101 8.756-.37 15.837-11.545 21.428-5.232 2.786-6.963 4.476-7.615 9.333 6.785 1.493 14.837 2.21 22.883 2.179 8.046.031 16.097-.686 22.882-2.18-.651-4.856-2.382-6.546-7.615-9.332-11.174-5.591-11.443-12.672-11.545-21.428-1.24.02-2.481.02-3.722.02s-2.482 0-3.723-.02z" transform="matrix(-.41933 0 0 -.51039 16.394 60.492)"/>
    </g>
</svg>
