<svg xmlns="http://www.w3.org/2000/svg" width="52.157" height="60">
    <defs>
        <filter id="1GI_svg__a">
            <feGaussianBlur in="SourceAlpha" result="blur" stdDeviation="2"/>
            <feOffset dx="2" dy="2" result="offsetBlur"/>
            <feBlend in="SourceGraphic" in2="offsetBlur"/>
        </filter>
    </defs>
    <g fill="#feec99" filter="url(#1GI_svg__a)">
        <path d="M26.123 53.987a242 242 0 0 0 11.985-3.333c.459-.16 1.11-.258 1.18-.85.697-3.354 1.156-6.76 1.705-10.143 1.699-11.05 3.317-22.12 5.008-33.167-.153-.67-.995-.416-1.483-.471-12.66-.025-25.32-.03-37.978.032-.66.153-.275.935-.274 1.384 1.975 12.882 3.806 25.786 5.89 38.651.271 1.332.34 2.732.8 4.013.341.488 1.054.46 1.56.691 3.762 1.117 7.533 2.226 11.34 3.173a.9.9 0 0 0 .266.02z"/>
    </g>
    <g stroke="#c83737" stroke-width=".56" opacity=".503">
        <path fill="#e6e6e6" d="M29.442 39.839c.918-4.433 1.148-8.493 1.513-12.96.7-3.321 5.192-6.793 7.766-6.071-1.057 5.917-.732 14.586-4.017 25.236-2.022.286-4.101.405-6.307.634-.734-.038-1.277-.186-1.786-.525-.683-.966-1.445-3.704-2.054-5.271l-.43-3.71c1.438-.589 2.244-1.177 3.314-1.765z"/>
        <path fill="none" d="M27.356 35.576c1.33 2.87 1.72 4.281 3.391 7.004.678.835 1.367 1.654 2.15 2.33.89.288 1.111.643 2.002.342"/>
    </g>
    <g stroke="#000">
        <path d="M282.83 136.555c.204-5.885-.282-11.142-3.009-13.33 2.021-.873 3.212-2.979 4.365-4.578 1.154 1.6 2.344 3.705 4.365 4.579-2.727 2.187-3.213 7.444-3.009 13.33a4.5 4.5 0 0 1-1.356.232 4.4 4.4 0 0 1-1.356-.233z" transform="matrix(-.61774 0 0 -.62303 201.377 113.097)"/>
        <path fill="#ccc" stroke-width="10.741" d="M97.159 111.627c-2.764 121.39 19.614 224.192 177.984 219.075 158.37 5.117 180.748-97.685 177.985-219.075-11.066 132.287-51.513 167.404-177.985 175.038-126.471-7.634-166.92-42.75-177.984-175.038Z" transform="matrix(-.048 0 0 -.0567 38.962 44.183)"/>
        <path stroke-width="13.427" d="m166.796 305.119-54.464 95.975-8.754-6.962-40.59 61.712-7.283-9.989c-17.703 21.022-27.021 32.762-44.724 53.784 14.216 20.56 44.13 49.69 71.96 55.397 13.294-25.846 83.135-195.794 102.034-237.34M380.21 305.12l54.464 95.975 8.754-6.962 40.59 61.712 7.283-9.989c17.702 21.022 27.021 32.762 44.724 53.784-14.216 20.56-44.13 49.69-71.961 55.397-13.293-25.846-83.134-195.794-102.034-237.34" transform="matrix(-.048 0 0 -.0567 38.962 44.183)"/>
        <path stroke-width=".69" d="M33.244 18.016c-5.161-2.1-10.15-2.167-14.952 0l2.82 8.005c2.82-1.121 6.442-1.355 9.268.063z"/>
        <path fill="none" stroke="#fff" stroke-width=".701" d="M30.575 24.215c-2.994-1.528-6.613-1.57-9.533.021"/>
    </g>
    <path fill="none" stroke="#fff" stroke-width=".701" d="M33.574 22.21c-2.067-1.352-1.068-.795-1.809-1.34m-13.626 1.401c2.066-1.352 1.283-.515 2.024-1.06m15.651-2.173-2.879-1.493m-17.138 1.493 2.88-1.493m14.305.13-3.157 8.338m-8.161.156-2.977-8.592"/>
    <path stroke="#000" stroke-width=".701" d="M30.393 29.377c-4.114 3.666-5.63 3.362-9.542-.06 2.008-.82 2.158-.724 4.693-1.178 1.762.476.383.122 2.529.318z"/>
</svg>
