<svg xmlns="http://www.w3.org/2000/svg" width="52.157" height="60">
    <defs>
        <filter id="1HI_svg__a">
            <feGaussianBlur in="SourceAlpha" result="blur" stdDeviation="2"/>
            <feOffset dx="2" dy="2" result="offsetBlur"/>
            <feBlend in="SourceGraphic" in2="offsetBlur"/>
        </filter>
    </defs>
    <g fill="#feec99" filter="url(#1HI_svg__a)">
        <path d="M26.123 53.987a242 242 0 0 0 11.985-3.333c.459-.16 1.11-.258 1.18-.85.697-3.354 1.156-6.76 1.705-10.143 1.699-11.05 3.317-22.12 5.008-33.167-.153-.67-.995-.416-1.483-.471-12.66-.025-25.32-.03-37.978.032-.66.153-.275.935-.274 1.384 1.975 12.882 3.806 25.786 5.89 38.651.271 1.332.34 2.732.8 4.013.341.488 1.054.46 1.56.691 3.762 1.117 7.533 2.226 11.34 3.173a.9.9 0 0 0 .266.02z"/>
    </g>
    <g fill="#c83737" stroke="#c83737" stroke-linejoin="round" stroke-width="1.313" opacity=".51" paint-order="stroke fill markers">
        <path d="M-23.356 37.944c-2.134 9.081-4.332 14.438-13.39 20.588 8.914 3.135 18.701 2.896 26.78 0-9.058-6.15-11.255-11.507-13.39-20.588z" transform="matrix(.46731 0 0 -.5688 36.871 72.659)"/>
        <path d="M-26.818 58.55c-.101 8.756-.37 15.837-11.545 21.428-5.232 2.786-6.963 4.476-7.615 9.333 6.785 1.493 14.837 2.21 22.883 2.179 8.046.031 16.097-.686 22.882-2.18-.651-4.856-2.382-6.546-7.615-9.332-11.174-5.591-11.443-12.672-11.545-21.428-1.24.02-2.481.02-3.722.02s-2.482 0-3.723-.02z" transform="matrix(.46731 0 0 -.5688 36.871 72.659)"/>
    </g>
    <path fill="none" stroke="#ffffe5" stroke-width=".627" d="m34.536 15.506.277 2.778"/>
    <path fill="none" stroke="#fff" stroke-width=".627" d="M31.321 18.09H21.096"/>
    <path stroke="#000" stroke-linecap="round" stroke-linejoin="round" stroke-width=".627" d="M20.547 18.768a5.517 5.725 0 0 0 .031.145 5.517 5.725 0 0 0 .175.544 5.517 5.725 0 0 0 .225.522 5.517 5.725 0 0 0 .274.496 5.517 5.725 0 0 0 .321.467 5.517 5.725 0 0 0 .364.43 5.517 5.725 0 0 0 .404.389 5.517 5.725 0 0 0 .439.346 5.517 5.725 0 0 0 .47.3 5.517 5.725 0 0 0 .495.248 5.517 5.725 0 0 0 .519.196 5.517 5.725 0 0 0 .535.142 5.517 5.725 0 0 0 .545.086 5.517 5.725 0 0 0 .55.028 5.517 5.725 0 0 0 .39-.014 5.517 5.725 0 0 0 .548-.07 5.517 5.725 0 0 0 .539-.125 5.517 5.725 0 0 0 .523-.18 5.517 5.725 0 0 0 .503-.233 5.517 5.725 0 0 0 .479-.286 5.517 5.725 0 0 0 .448-.332 5.517 5.725 0 0 0 .414-.378 5.517 5.725 0 0 0 .376-.419 5.517 5.725 0 0 0 .334-.456 5.517 5.725 0 0 0 .288-.487 5.517 5.725 0 0 0 .24-.515 5.517 5.725 0 0 0 .188-.538 5.517 5.725 0 0 0 .077-.306z"/>
    <path stroke="#000" stroke-linecap="round" stroke-linejoin="round" stroke-width=".627" d="M36.646 34.037V18.076h-2.453a8 8 0 0 1-.04.277 8 8 0 0 1-.208.81 8 8 0 0 1-.286.786 8 8 0 0 1-.364.753 8 8 0 0 1-.438.713 8 8 0 0 1-.506.667 8 8 0 0 1-.57.612 8 8 0 0 1-.63.552 8 8 0 0 1-.679.487 8 8 0 0 1-.727.416 8 8 0 0 1-.762.342 8 8 0 0 1-.794.263 8 8 0 0 1-.817.183 8 8 0 0 1-.83.1 8 8 0 0 1-.591.022 8 8 0 0 1-.837-.042 8 8 0 0 1-.827-.125 8 8 0 0 1-.81-.207 8 8 0 0 1-.786-.286 8 8 0 0 1-.754-.364 8 8 0 0 1-.713-.437 8 8 0 0 1-.666-.507 8 8 0 0 1-.611-.57 8 8 0 0 1-.552-.628 8 8 0 0 1-.488-.681 8 8 0 0 1-.415-.725 8 8 0 0 1-.341-.764 8 8 0 0 1-.265-.794 8 8 0 0 1-.182-.816l-.006-.037h-2.224v15.961Z"/>
    <path stroke="#000" stroke-linejoin="round" stroke-width=".627" d="M17.593 17.023H13.98l.822 1.042.673.02 2.225-.001a9 9 0 0 1-.098-.803zm16.6 1.056 2.4-.001.835.005.825-1.06h-3.952a8 8 0 0 1-.025.502 8 8 0 0 1-.083.554z"/>
    <path stroke="#000" stroke-width=".591" d="m17.712 15.367-3.75.009.006 1.436 3.643-.002a7.349 8.454 90 0 1-.012-.296 7.349 8.454 90 0 1 .042-.734 7.349 8.454 90 0 1 .072-.412z"/>
    <path stroke="#000" stroke-width=".596" d="m34.286 16.829 3.98-.004-.009-1.51-4.067.01a7.52 8.407 90 0 1 .092.68 7.52 8.407 90 0 1 .02.532 7.52 8.407 90 0 1-.015.292z"/>
    <path stroke="#000" stroke-width=".799" d="M31.364 18.186a5.43 9.441 0 0 0 .016-.54 5.43 9.441 0 0 0-.012-.668 5.43 9.441 0 0 0-.066-.937 5.43 9.441 0 0 0-.079-.606l-10.552.047a5.43 9.441 0 0 0-.043.288 5.43 9.441 0 0 0-.082.934 5.43 9.441 0 0 0-.027.943 5.43 9.441 0 0 0 .011.553z"/>
    <path stroke="#000" stroke-linejoin="round" stroke-width=".627" d="M36.674 34.023c1.673 1.225 1.53 1.527 2.387 3.378-8.794-.91-17.663-1.005-25.965.034.6-1.966.71-2.26 2.338-3.399z"/>
    <path stroke="#000" stroke-linecap="round" stroke-linejoin="round" stroke-width=".523" d="M26.061 25.695a8.37 8.37 0 0 0 8.368-8.368 8.37 8.37 0 0 0-8.368-8.369 8.37 8.37 0 0 0-8.369 8.369 8.37 8.37 0 0 0 8.369 8.368m0-2.644a5.517 5.725 0 0 1-5.516-5.723 5.517 5.725 0 0 1 5.516-5.725 5.517 5.725 0 0 1 5.516 5.725 5.517 5.725 0 0 1-5.516 5.723"/>
    <path fill="none" stroke="#000" stroke-width=".627" d="M26.005 16.828v-5.902"/>
    <path fill="#fff" stroke="#fff" stroke-width=".627" d="m36.59 33.814-21.004-.11"/>
    <path fill="none" stroke="#000" stroke-width=".627" d="m30.051 12.866-3.962 4.018-4.143-4.143"/>
    <path fill="#fff" stroke="#fff" stroke-width=".628" d="M38.323 16.753h-3.615m-3.576 0h-10.15m-3.557 0H13.89"/>
    <path fill="none" stroke="#fff" stroke-width=".627" d="M26.033 15.252v7.645"/>
    <path fill="#fff" stroke="#fff" stroke-width=".627" d="m24.605 15.378 5.347 5.564"/>
    <path fill="none" stroke="#fff" stroke-width=".627" d="m27.66 15.271-5.534 5.63"/>
    <path fill="none" stroke="#fff" stroke-linejoin="bevel" stroke-width=".615" d="M21.685 15.306a5.084 5.084 0 0 0 1.262 6.34 5.084 5.084 0 0 0 6.464-.024 5.084 5.084 0 0 0 1.215-6.35"/>
    <path fill="none" stroke="#fff" stroke-width=".627" d="M31.273 18.196H21.202"/>
    <path fill="none" stroke="#fff" stroke-linejoin="bevel" stroke-width=".613" d="M17.335 15.353a8.87 8.87 0 0 0 3.798 9.143 8.87 8.87 0 0 0 9.9-.075 8.87 8.87 0 0 0 3.66-9.199"/>
    <path fill="#fff" stroke="#fff" stroke-width=".627" d="M36.834 18.28h-2.067m-17.39-.019H15.31"/>
</svg>
