<svg xmlns="http://www.w3.org/2000/svg" width="52.157" height="60">
    <defs>
        <filter id="1KA_svg__a">
            <feGaussianBlur in="SourceAlpha" result="blur" stdDeviation="2"/>
            <feOffset dx="2" dy="2" result="offsetBlur"/>
            <feBlend in="SourceGraphic" in2="offsetBlur"/>
        </filter>
    </defs>
    <g fill="#feec99" filter="url(#1KA_svg__a)">
        <path d="M26.123 53.987a242 242 0 0 0 11.985-3.333c.459-.16 1.11-.258 1.18-.85.697-3.354 1.156-6.76 1.705-10.143 1.699-11.05 3.317-22.12 5.008-33.167-.153-.67-.995-.416-1.483-.471-12.66-.025-25.32-.03-37.978.032-.66.153-.275.935-.274 1.384 1.975 12.882 3.806 25.786 5.89 38.651.271 1.332.34 2.732.8 4.013.341.488 1.054.46 1.56.691 3.762 1.117 7.533 2.226 11.34 3.173a.9.9 0 0 0 .266.02z"/>
    </g>
    <g opacity=".469">
        <g stroke="#000">
            <path fill="#c83737" stroke="#c83737" d="M282.83 136.555c.204-5.885-.282-11.142-3.009-13.33 2.021-.873 3.212-2.979 4.365-4.578 1.154 1.6 2.344 3.705 4.365 4.579-2.727 2.187-3.213 7.444-3.009 13.33a4.5 4.5 0 0 1-1.356.232 4.4 4.4 0 0 1-1.356-.233z" transform="matrix(-.61774 0 0 -.62303 201.65 122.64)"/>
            <path fill="#ccc" stroke="#c83737" stroke-width="10.741" d="M97.159 111.627c-2.764 121.39 19.614 224.192 177.984 219.075 158.37 5.117 180.748-97.685 177.985-219.075-11.066 132.287-51.513 167.404-177.985 175.038-126.471-7.634-166.92-42.75-177.984-175.038Z" transform="matrix(-.048 0 0 -.0567 39.235 53.726)"/>
            <path fill="#c83737" stroke="#c83737" stroke-width="13.427" d="m166.796 305.119-54.464 95.975-8.754-6.962-40.59 61.712-7.283-9.989c-17.703 21.022-27.021 32.762-44.724 53.784 14.216 20.56 44.13 49.69 71.96 55.397 13.294-25.846 83.135-195.794 102.034-237.34M380.21 305.12l54.464 95.975 8.754-6.962 40.59 61.712 7.283-9.989c17.702 21.022 27.021 32.762 44.724 53.784-14.216 20.56-44.13 49.69-71.961 55.397-13.293-25.846-83.134-195.794-102.034-237.34" transform="matrix(-.048 0 0 -.0567 39.235 53.726)"/>
            <path fill="#c83737" stroke="#c83737" stroke-width=".69" d="M33.516 27.558c-5.161-2.1-10.15-2.167-14.952 0l2.82 8.005c2.82-1.121 6.442-1.355 9.268.063z"/>
            <path fill="none" stroke="#fff" stroke-width=".701" d="M30.847 33.757c-2.994-1.528-6.613-1.57-9.533.021"/>
        </g>
        <path fill="none" stroke="#fff" stroke-width=".701" d="M33.846 31.754c-2.067-1.352-1.068-.795-1.809-1.34m-13.626 1.401c2.066-1.352 1.283-.515 2.024-1.06m15.651-2.175-2.879-1.493M16.069 28.58l2.88-1.493m14.305.133-3.157 8.337m-8.161.156-2.977-8.592"/>
        <path fill="#c83737" stroke="#c83737" stroke-width=".701" d="M30.667 38.92c-4.114 3.667-5.63 3.363-9.542-.059 2.008-.82 2.158-.724 4.693-1.178 1.762.476.383.122 2.529.318z"/>
    </g>
    <g stroke-width=".6">
        <path fill="none" stroke="#000" stroke-width="1" d="m14.46 30.992 2.776-.277"/>
        <path stroke="#000" stroke-width=".623" d="M9.808 17.632c6.96.488 13.485.07 22.963 0m-.714 5.077c-4.095 6.717-10.391 4.524-14.778 4.464-3.667-2.174-4.206-2.35-5.55-3.988-1.421-1.909-1.782-3.234-1.895-5.577 7.084-2.553 14.164-3.077 22.64-.488.13 2.08-.18 3.846-.417 5.59z"/>
        <g stroke="#000" stroke-width=".622">
            <path fill="#e6e6e6" d="M31.991 30.357c1.02-4.924 1.276-9.435 1.681-14.397.779-3.69 5.768-7.546 8.628-6.745-1.175 6.573-.814 16.204-4.463 28.035-2.247.318-4.556.45-7.006.704-.816-.042-1.419-.207-1.984-.583-.76-1.074-2.405-4.614-3.081-6.355l.322-3.622c1.597-.654 2.492-1.307 3.68-1.96z"/>
            <path fill="none" d="M29.674 25.621c1.477 3.188 1.91 4.756 3.768 7.781.752.928 1.517 1.837 2.387 2.588.99.32 1.235.715 2.224.38"/>
        </g>
        <path stroke="#000" stroke-width=".623" d="m17.602 27.169-1.658 12.759c-.595 3.452.198 5.31 3.074 4.774 2.65-.753 4.329-3.279 5.684-6.396l1.346-10.938c-4.628.439-6.155.12-8.446-.2z"/>
        <path fill="none" stroke="#fff" stroke-width="1" d="M10.246 21.35c.199-.078.292-.065.693.065 5.153 1.66 9.865 3.442 20.962.923.104-.024.358-.101.542-.081"/>
        <path fill="none" stroke="#000" stroke-width="1" d="m22.457 30.283 5.885-.345"/>
    </g>
    <path fill="none" stroke="#fff" d="M9.543 17.897c.217-.019.685.114.78.138 6.984 1.72 13.853 2.06 21.784-.465.197-.062.59-.07.799-.087M17.192 28.04c3.986.451 5.938.512 8.622.192.342-.04.447-.083.546-.07"/>
</svg>
