<svg xmlns="http://www.w3.org/2000/svg" width="52.157" height="60">
    <defs>
        <filter id="1KE_svg__a">
            <feGaussianBlur in="SourceAlpha" result="blur" stdDeviation="2"/>
            <feOffset dx="2" dy="2" result="offsetBlur"/>
            <feBlend in="SourceGraphic" in2="offsetBlur"/>
        </filter>
    </defs>
    <g fill="#feec99" filter="url(#1KE_svg__a)">
        <path d="M26.123 53.987a242 242 0 0 0 11.985-3.333c.459-.16 1.11-.258 1.18-.85.697-3.354 1.156-6.76 1.705-10.143 1.699-11.05 3.317-22.12 5.008-33.167-.153-.67-.995-.416-1.483-.471-12.66-.025-25.32-.03-37.978.032-.66.153-.275.935-.274 1.384 1.975 12.882 3.806 25.786 5.89 38.651.271 1.332.34 2.732.8 4.013.341.488 1.054.46 1.56.691 3.762 1.117 7.533 2.226 11.34 3.173a.9.9 0 0 0 .266.02z"/>
    </g>
    <g opacity=".5" transform="translate(197.4 96.512)scale(-.70055)">
        <g stroke="#000" stroke-width="1.2">
            <path fill="#ffe680" stroke="#c83737" stroke-width="8.056" d="M89.878 104.459c71.228 71.229 31.757 135.82 52.51 165.378 28.87 49.947 71.082 59.605 129.342 59.37a66 66 0 0 0 3.413-.105q1.714.098 3.413.104c58.26.236 100.472-9.422 129.342-59.369 20.753-29.557-18.718-94.15 52.51-165.378-11.605-5.015-42.725 25.605-62.898 25.525-25.612-15.171-47.031 3.08-52.25 16.777 37.838-11.301 70.078 121.468-45.539 137.914-7.067 1.97-16.164 2.514-24.578 2.72-8.414-.206-17.511-.75-24.578-2.72-115.617-16.446-83.377-149.215-45.538-137.914-5.22-13.698-26.64-31.948-52.251-16.777-20.173.08-51.293-30.54-62.898-25.525z" transform="matrix(.06853 0 0 .08094 225.709 60.013)"/>
            <path fill="#c83737" stroke="#c83737" stroke-width="16.112" d="M141.488 275.714c-45.126-28.295-80.012-25.181-108.804-20.805L3.205 306.581c41.944-36.203 152.117 6.577 144.443 111.867 7.77-26.63 28.133-63.418 39.832-101.833m220.385-40.901c45.126-28.295 80.012-25.181 108.803-20.805l29.48 51.672c-41.944-36.203-152.118 6.577-144.443 111.867-7.77-26.63-28.133-63.418-39.832-101.833" transform="matrix(.06853 0 0 .08094 225.73 59.991)"/>
            <path fill="#c83737" stroke="#c83737" stroke-width="16.112" d="m128.121 339.223-29.443 64.098c-3.406-2.033 6.609 9.49-6.592 1.008-14.055 23.338-19.002 29.833-33.969 54.715 21.968 17.086 24.659 18.31 46.106 25.56 13.293-25.846 25.739-42.373 44.639-83.918m270.022-61.463 29.443 64.098c3.407-2.033-6.608 9.49 6.593 1.008 14.054 23.338 19.002 29.833 33.968 54.715-21.968 17.086-24.658 18.31-46.106 25.56-13.292-25.846-25.738-42.373-44.638-83.918" transform="matrix(.06853 0 0 .08094 225.709 60.013)"/>
            <path fill="#c83737" stroke="#c83737" d="M233.879 97.288c7.363 3.092 14.48 3.19 21.328 0l-4.023-11.781c-5.552 2.375-8.767 2.099-13.5.437z"/>
            <path fill="none" stroke="#fff" d="M237.463 88.704c4.81 1.655 8.506 2.056 13.826-.031"/>
        </g>
        <path fill="none" stroke="#fff" stroke-width=".7" d="M234.042 88.04c2.11 3.522 1.59 3.631 1.985 5.204m18.987-5.204c-2.11 3.522-1.59 3.631-1.985 5.204"/>
        <path fill="none" stroke="#fff" d="m234.404 97.35 4.202-11.855m11.863-.05 4.06 12.203"/>
        <path fill="none" stroke="#fff" stroke-width=".7" d="M231.883 92.628c2.375 2.02 2.256 1.307 3.27 2.527m21.906-2.527c-2.375 2.02-2.256 1.307-3.27 2.527"/>
        <path fill="#c83737" stroke="#c83737" d="M239.024 80.489c3.438-2.881 8.3-2.42 11.037.134-2.365 3.351-9.494 2.307-11.037-.134z"/>
        <ellipse cx="244.601" cy="79.253" fill="#ffe680" stroke="#c83737" stroke-width=".604" rx="3.947" ry="3.818"/>
        <path fill="#c83737" stroke="#c83737" d="m240.019 99.645-1.37 4.684-.575-.132-.928 2.872c4.644 1.953 10.662 1.844 14.496 0l-.928-2.872-.575.132-1.37-4.684"/>
        <path fill="none" stroke="#fff" stroke-width=".7" d="M239.875 99.85c3.262.72 6.238.677 9 .063m-10.188 3.937c3.262.72 8.551.802 11.313.188"/>
    </g>
    <g stroke-width="1.386">
        <path stroke="#000" stroke-width=".586" d="M32.842 41.164c.676-1.276.414-2.735.414-4.137 1.114-2.296 1.868-4.06 1.714-6.145 1.447-1.613 2.721-3.331 3.545-5.319.235-.984.439-1.97.06-2.954l-.533-.296c-.686-1.421-.888-1.737-2.422-1.536l-.296 1.477-.414.71.296-1.892-.414-1.004c-2.35.757-2.297 2.021-3.53 3.924-1.867.862-2.676 1.299-4.506 1.985l-.828.532-1.24 2.068 1.122-2.01-.295-1.3s-.06-1.18 0-1.477c.124-1.904 1.812-4.204 3.177-5.379 1.867-1.422 2.227-2.743 2.496-5.02-9.116-5.06-13.589-2.69-17.788.117.184 1.045.326 1.79.72 3.228 1.009 3.384 1.197 5.523 1.349 11.368.281 4.286 4.67 10.277 10.247 9.992l2.753 4.25c1.16-1.032.99-2.564 1.182-4.018l.887.118z"/>
        <path fill="none" stroke="#fff" stroke-width=".732" d="M25.952 26.598c-.636 1.11-.717 2.947-.653 3.61"/>
        <path fill="#fff" stroke="#fff" stroke-width=".838" d="M31.333 33.52c1.397.085 1.281-.63 1.653-1.842-1.423-.111-1.29.604-1.653 1.841z"/>
        <path fill="none" stroke="#fff" stroke-width="1.254" d="M24.82 36.154c-.843.48-2.517-.463-3.128-.978-2.022-1.708-4.32-3.921-4.357-6.77-.555-4.424-.348-10.596-2.026-14.321"/>
    </g>
    <path fill="none" stroke="#fff" stroke-width=".732" d="m35.268 20.602-1.556 2.197m3.78.889c.378.707-.145.878-.993 1.68"/>
</svg>
