<svg xmlns="http://www.w3.org/2000/svg" width="52.157" height="60">
    <defs>
        <filter id="1KI_svg__a">
            <feGaussianBlur in="SourceAlpha" result="blur" stdDeviation="2"/>
            <feOffset dx="2" dy="2" result="offsetBlur"/>
            <feBlend in="SourceGraphic" in2="offsetBlur"/>
        </filter>
    </defs>
    <g fill="#feec99" filter="url(#1KI_svg__a)">
        <path d="M26.123 53.987a242 242 0 0 0 11.985-3.333c.459-.16 1.11-.258 1.18-.85.697-3.354 1.156-6.76 1.705-10.143 1.699-11.05 3.317-22.12 5.008-33.167-.153-.67-.995-.416-1.483-.471-12.66-.025-25.32-.03-37.978.032-.66.153-.275.935-.274 1.384 1.975 12.882 3.806 25.786 5.89 38.651.271 1.332.34 2.732.8 4.013.341.488 1.054.46 1.56.691 3.762 1.117 7.533 2.226 11.34 3.173a.9.9 0 0 0 .266.02z"/>
    </g>
    <g opacity=".528">
        <g stroke-width="1.386">
            <path fill="#c83737" stroke="#c83737" stroke-width=".417" d="M31.399 46.081c.48-.908.294-1.946.294-2.943.793-1.634 1.33-2.89 1.22-4.373 1.03-1.148 1.936-2.37 2.522-3.784.167-.701.312-1.402.042-2.103l-.378-.21c-.488-1.011-.632-1.236-1.724-1.093l-.21 1.051-.295.505.21-1.346-.294-.715c-1.672.54-1.634 1.439-2.512 2.793-1.328.613-1.904.924-3.206 1.412l-.589.378-.883 1.472.8-1.43-.211-.925s-.042-.84 0-1.05c.089-1.356 1.29-2.992 2.26-3.829 1.33-1.011 1.586-1.951 1.776-3.572-6.486-3.6-9.668-1.914-12.656.084.131.743.232 1.273.512 2.297.718 2.408.852 3.93.96 8.089.2 3.049 3.322 7.311 7.291 7.11l1.96 3.023c.824-.734.704-1.824.84-2.86l.631.085z"/>
            <path fill="none" stroke="#fff" stroke-width=".521" d="M26.496 35.717c-.452.789-.51 2.096-.464 2.569"/>
            <path fill="#fff" stroke="#fff" stroke-width=".597" d="M30.325 40.641c.994.062.911-.448 1.176-1.31-1.012-.079-.918.43-1.176 1.31z"/>
            <path fill="none" stroke="#fff" stroke-width=".892" d="M25.69 42.516c-.6.342-1.79-.33-2.225-.696-1.439-1.215-3.074-2.79-3.1-4.816-.395-3.149-.248-7.54-1.442-10.19"/>
        </g>
        <path fill="none" stroke="#fff" stroke-width=".521" d="m33.127 31.449-1.108 1.563m2.689.635c.269.502-.103.624-.706 1.195"/>
    </g>
    <g transform="translate(197.4 86.61)scale(-.70055)">
        <g stroke="#000" stroke-width="1.2">
            <path fill="#ffe680" stroke-width="8.056" d="M89.878 104.459c71.228 71.229 31.757 135.82 52.51 165.378 28.87 49.947 71.082 59.605 129.342 59.37a66 66 0 0 0 3.413-.105q1.714.098 3.413.104c58.26.236 100.472-9.422 129.342-59.369 20.753-29.557-18.718-94.15 52.51-165.378-11.605-5.015-42.725 25.605-62.898 25.525-25.612-15.171-47.031 3.08-52.25 16.777 37.838-11.301 70.078 121.468-45.539 137.914-7.067 1.97-16.164 2.514-24.578 2.72-8.414-.206-17.511-.75-24.578-2.72-115.617-16.446-83.377-149.215-45.538-137.914-5.22-13.698-26.64-31.948-52.251-16.777-20.173.08-51.293-30.54-62.898-25.525z" transform="matrix(.06853 0 0 .08094 225.709 60.013)"/>
            <path stroke-width="16.112" d="M141.488 275.714c-45.126-28.295-80.012-25.181-108.804-20.805L3.205 306.581c41.944-36.203 152.117 6.577 144.443 111.867 7.77-26.63 28.133-63.418 39.832-101.833m220.385-40.901c45.126-28.295 80.012-25.181 108.803-20.805l29.48 51.672c-41.944-36.203-152.118 6.577-144.443 111.867-7.77-26.63-28.133-63.418-39.832-101.833" transform="matrix(.06853 0 0 .08094 225.73 59.991)"/>
            <path stroke-width="16.112" d="m128.121 339.223-29.443 64.098c-3.406-2.033 6.609 9.49-6.592 1.008-14.055 23.338-19.002 29.833-33.969 54.715 21.968 17.086 24.659 18.31 46.106 25.56 13.293-25.846 25.739-42.373 44.639-83.918m270.022-61.463 29.443 64.098c3.407-2.033-6.608 9.49 6.593 1.008 14.054 23.338 19.002 29.833 33.968 54.715-21.968 17.086-24.658 18.31-46.106 25.56-13.292-25.846-25.738-42.373-44.638-83.918" transform="matrix(.06853 0 0 .08094 225.709 60.013)"/>
            <path d="M233.879 97.288c7.363 3.092 14.48 3.19 21.328 0l-4.023-11.781c-5.552 2.375-8.767 2.099-13.5.437z"/>
            <path fill="none" stroke="#fff" d="M237.463 88.704c4.81 1.655 8.506 2.056 13.826-.031"/>
        </g>
        <path fill="none" stroke="#fff" stroke-width=".7" d="M234.042 88.04c2.11 3.522 1.59 3.631 1.985 5.204m18.987-5.204c-2.11 3.522-1.59 3.631-1.985 5.204"/>
        <path fill="none" stroke="#fff" d="m234.404 97.35 4.202-11.855m11.863-.05 4.06 12.203"/>
        <path fill="none" stroke="#fff" stroke-width=".7" d="M231.883 92.628c2.375 2.02 2.256 1.307 3.27 2.527m21.906-2.527c-2.375 2.02-2.256 1.307-3.27 2.527"/>
        <path stroke="#000" d="M239.024 80.489c3.438-2.881 8.3-2.42 11.037.134-2.365 3.351-9.494 2.307-11.037-.134z"/>
        <ellipse cx="244.601" cy="79.253" fill="#ffe680" stroke="#000" stroke-width=".604" rx="3.947" ry="3.818"/>
        <path stroke="#000" d="m240.019 99.645-1.37 4.684-.575-.132-.928 2.872c4.644 1.953 10.662 1.844 14.496 0l-.928-2.872-.575.132-1.37-4.684"/>
        <path fill="none" stroke="#fff" stroke-width=".7" d="M239.875 99.85c3.262.72 6.238.677 9 .063m-10.188 3.937c3.262.72 8.551.802 11.313.188"/>
    </g>
</svg>
