<svg xmlns="http://www.w3.org/2000/svg" width="52.157" height="60">
    <defs>
        <filter id="1KY_svg__a">
            <feGaussianBlur in="SourceAlpha" result="blur" stdDeviation="2"/>
            <feOffset dx="2" dy="2" result="offsetBlur"/>
            <feBlend in="SourceGraphic" in2="offsetBlur"/>
        </filter>
    </defs>
    <g fill="#feec99" filter="url(#1KY_svg__a)">
        <path d="M26.123 53.987a242 242 0 0 0 11.985-3.333c.459-.16 1.11-.258 1.18-.85.697-3.354 1.156-6.76 1.705-10.143 1.699-11.05 3.317-22.12 5.008-33.167-.153-.67-.995-.416-1.483-.471-12.66-.025-25.32-.03-37.978.032-.66.153-.275.935-.274 1.384 1.975 12.882 3.806 25.786 5.89 38.651.271 1.332.34 2.732.8 4.013.341.488 1.054.46 1.56.691 3.762 1.117 7.533 2.226 11.34 3.173a.9.9 0 0 0 .266.02z"/>
    </g>
    <g stroke="#c83737" opacity=".507">
        <g fill="#c83737" stroke-linejoin="round" stroke-width="1.313" paint-order="stroke fill markers">
            <path d="M-23.356 44.733c-4.132 8.932-4.332 7.65-13.39 13.799 8.914 3.135 18.701 2.896 26.78 0-9.058-6.15-9.44-5.165-13.39-13.8z" transform="matrix(-.46731 0 0 -.5688 15.286 69.957)"/>
            <path d="M-26.818 58.55c-.101 8.756-.37 15.837-11.545 21.428-5.232 2.786-6.963 4.476-7.615 9.333 6.785 1.493 14.837 2.21 22.883 2.179 8.046.031 16.097-.686 22.882-2.18-.651-4.856-2.382-6.546-7.615-9.332-11.174-5.591-11.443-12.672-11.545-21.428-1.24.02-2.481.02-3.722.02s-2.482 0-3.723-.02z" transform="matrix(-.46731 0 0 -.5688 15.286 69.957)"/>
        </g>
        <g fill="#fd5" transform="translate(428.184 125.19)scale(-.66146)">
            <path stroke-width="13.427" d="M89.878 104.459c71.228 71.229 31.757 135.82 52.51 165.378 28.87 49.947 71.082 59.605 129.342 59.37a66 66 0 0 0 3.413-.105q1.714.098 3.413.104c58.26.236 100.472-9.422 129.342-59.369 20.753-29.557-18.718-94.15 52.51-165.378-11.605-5.015-42.725 25.605-62.898 25.525-25.612-15.171-47.031 3.08-52.25 16.777 37.838-11.301 70.078 121.468-45.539 137.914-7.067 1.97-16.164 2.514-24.578 2.72-8.414-.206-17.511-.75-24.578-2.72-115.617-16.446-83.377-149.215-45.538-137.914-5.22-13.698-26.64-31.948-52.251-16.777-20.173.08-51.293-30.54-62.898-25.525z" transform="matrix(.06853 0 0 .08094 589.02 105.58)"/>
            <ellipse cx="608" cy="124.96" rx="3.947" ry="3.818"/>
        </g>
    </g>
    <g stroke="#000" stroke-width="4.938">
        <path stroke-width=".476" d="M26.803 7.699V33.29h-1.446V7.699z"/>
        <path fill="#e6e6e6" stroke-width=".838" d="m26.677 32.797 1.297.826-.256 10.735-1.608 2.754-1.692-2.676-.228-10.725 1.29-.89z"/>
        <path fill="none" stroke-width=".435" d="M26.088 46.692V36.56l-1.594-1.266m1.594 1.266 1.574-1.398"/>
    </g>
    <path stroke="#000" stroke-width=".476" d="M34.016 17.164H18.139v-1.447h15.877Z"/>
    <path d="M26.078 25.588a9.147 9.147 0 0 0 9.149-9.147 9.147 9.147 0 0 0-9.149-9.148 9.147 9.147 0 0 0-9.147 9.148 9.147 9.147 0 0 0 9.147 9.147m0-1.994a7.15 7.15 0 0 1-7.152-7.153 7.15 7.15 0 0 1 7.152-7.152 7.15 7.15 0 0 1 7.153 7.152 7.15 7.15 0 0 1-7.153 7.152z"/>
    <path stroke="#000" stroke-width=".476" d="M32.202 11.34 20.977 22.565l-1.023-1.024L31.18 10.318Z"/>
    <path stroke="#000" stroke-width=".476" d="M31.18 22.565 19.955 11.34l1.023-1.023 11.224 11.225Z"/>
</svg>
