<svg xmlns="http://www.w3.org/2000/svg" width="30mm" height="34mm" viewBox="0 0 30 34">
    <path fill="#fff" fill-opacity=".502" d="m22.555 6.68-7.401-2.555a.47.47 0 0 0-.307 0L7.445 6.68a.472.479 0 0 0-.315.38L3.706 29.347a.472.48 0 0 0 .468.552h21.652a.472.479 0 0 0 .468-.552L22.87 7.06a.472.479 0 0 0-.315-.379"/>
    <path d="M13.655 22.18h2.078v2.6h-2.078zm2.017-1.505h-1.956v-1.577q0-1.034.287-1.699t1.208-1.546l.921-.911q.584-.543.84-1.024.266-.481.266-.983 0-.91-.676-1.474-.665-.563-1.77-.563-.81 0-1.73.358-.912.359-1.905 1.045v-1.925q.962-.584 1.945-.87.993-.287 2.048-.287 1.883 0 3.02.993 1.146.993 1.146 2.62 0 .779-.368 1.485-.369.697-1.29 1.577l-.901.88q-.481.482-.686.758-.194.266-.276.522-.062.215-.093.522-.03.307-.03.84z"/>
    <path fill="none" stroke="#000" stroke-dasharray="2.4 1.2" stroke-miterlimit="10" stroke-width="1.2" d="m23.023 6.2-7.86-2.673a.5.5 0 0 0-.326 0L6.977 6.2a.5.5 0 0 0-.335.397L3.006 29.923a.502.502 0 0 0 .498.577h22.992a.5.5 0 0 0 .498-.577L23.357 6.597a.5.5 0 0 0-.334-.397"/>
</svg>
